<svg width="63" height="60" viewBox="0 0 63 60" fill="none" xmlns="http://www.w3.org/2000/svg">
<ellipse cx="28.4633" cy="32.1121" rx="27.8879" ry="27.888" fill="#B7B1AD"/>
<path d="M17.9874 15.5951C17.4394 15.8393 16.1139 14.4346 15.5007 13.6913L16.0209 13.2621C18.0947 14.7153 17.9874 15.5951 17.9874 15.5951Z" fill="#C69B89"/>
<path d="M16.1466 17.659C16.0185 17.073 14.1015 16.8372 13.1395 16.7837L13.1019 17.457C15.5013 18.2664 16.1466 17.659 16.1466 17.659Z" fill="#C69B89"/>
<path d="M12.9886 16.9075C12.6473 17.3565 12.0257 20.4179 12.4632 21.0966C12.9012 21.7751 13.89 22.1171 14.1317 21.3908C14.3732 20.6648 13.8719 17.9254 13.81 17.4691C13.7424 16.9683 13.2919 16.509 12.9886 16.9075Z" fill="#773B30"/>
<path d="M15.5825 13.4422C15.7746 12.9107 17.99 10.6931 18.7851 10.7206C19.5801 10.7482 20.387 11.432 19.9122 12.0206C19.4374 12.6093 16.8985 13.6031 16.4863 13.7845C16.09 13.959 15.4119 13.9139 15.5825 13.4422Z" fill="#773B30"/>
<path d="M36.2797 55.886C50.719 55.886 62.4245 43.3753 62.4245 27.9426C62.4245 12.5099 50.719 -0.000854492 36.2797 -0.000854492C21.8403 -0.000854492 10.1349 12.5099 10.1349 27.9426C10.1349 43.3753 21.8403 55.886 36.2797 55.886Z" fill="#EFD8BB"/>
<path d="M61.8594 27.8567C61.8594 12.7573 50.4071 0.516968 36.2797 0.516968C22.152 0.516968 10.6996 12.7574 10.6996 27.8567C10.6996 42.9562 22.152 55.1965 36.2797 55.1965C50.4071 55.1965 61.8594 42.9563 61.8594 27.8567Z" fill="#F4EDD3"/>
<path d="M37.7553 47.2214C19.9222 46.8899 12.0996 27.4659 14.6105 12.6676C11.9286 17.0292 10.3669 22.2476 10.3669 27.8567C10.3669 43.1527 21.9684 55.552 36.2797 55.552C50.5906 55.552 62.192 43.1527 62.192 27.8567C62.192 27.8372 62.1914 27.8179 62.1914 27.7984C60.4278 35.4874 58.0417 47.5985 37.7553 47.2214Z" fill="#F4E1C3"/>
<g opacity="0.4">
<path d="M41.4091 0.7052L10.4017 29.3001C10.7939 37.4644 14.4949 44.6931 20.0984 49.4876L53.1413 6.8283C49.8454 3.80643 45.8308 1.65439 41.4091 0.7052Z" fill="#F4EDD3"/>
<path d="M57.9722 12.7058L27.8112 54.0377C30.3254 54.9666 33.015 55.4928 35.813 55.5457L62.0908 25.4168C61.7096 20.7522 60.2472 16.4194 57.9722 12.7058Z" fill="#F4EDD3"/>
</g>
<g opacity="0.2">
<path d="M14.8604 26.98C17.5804 22.1962 20.393 17.2495 21.9566 12.05C22.1273 11.4821 22.2937 10.9167 22.4593 10.3538C23.215 7.78367 23.9343 5.33945 24.9857 2.92419C24.9229 2.9567 24.8609 2.99058 24.7984 3.02363C23.7797 5.39627 23.0733 7.79596 22.332 10.3164C22.1665 10.879 22.0003 11.4442 21.8296 12.0118C20.2705 17.1969 17.4616 22.1371 14.7451 26.9145C14.1128 28.0266 13.4589 29.1765 12.8409 30.2964C12.2422 31.381 11.5776 32.4773 10.9164 33.5517C10.9288 33.6154 10.9423 33.6785 10.9552 33.742C11.6416 32.6277 12.3344 31.4882 12.9568 30.3605C13.5748 29.2414 14.2284 28.0918 14.8604 26.98Z" fill="#D38266"/>
<path d="M21.5805 6.10031C21.8337 5.64108 22.0804 5.15371 22.3414 4.6378C22.3749 4.57182 22.4089 4.50475 22.4427 4.43823C22.3667 4.48959 22.2909 4.54109 22.2154 4.5934C21.9579 5.10249 21.7141 5.58385 21.4644 6.03625C20.4179 7.93286 19.4252 9.94571 18.465 11.8922C16.1901 16.5043 13.84 21.2636 10.4922 25.1295C10.4855 25.2027 10.48 25.2765 10.4739 25.35C13.8954 21.4475 16.2787 16.6242 18.584 11.9509C19.5433 10.0057 20.5354 7.99432 21.5805 6.10031Z" fill="#D38266"/>
<path d="M16.3791 35.5743C21.071 31.4907 23.6897 25.6122 26.2222 19.9274C26.4875 19.332 26.7515 18.7391 27.0168 18.1512C27.996 15.9807 28.7826 13.714 29.5435 11.522C30.8818 7.66552 32.2676 3.6838 34.7265 0.212402C34.6694 0.21609 34.6126 0.220053 34.5557 0.224014C32.1248 3.68954 30.7482 7.64585 29.4182 11.4785C28.6583 13.6677 27.8728 15.9316 26.896 18.0967C26.6306 18.6848 26.3663 19.2778 26.1012 19.8735C23.5746 25.5451 20.9618 31.4098 16.2922 35.4743C14.8584 36.7223 13.6337 37.9528 12.6187 39.1634C12.6398 39.2138 12.661 39.2645 12.6823 39.3148C13.7038 38.0795 14.9375 36.829 16.3791 35.5743Z" fill="#D38266"/>
<path d="M23.4531 16.5217L23.4585 16.6032L23.5372 16.5811C24.4427 16.3261 24.8357 14.6219 25.1227 13.3774C25.1942 13.0671 25.2561 12.7991 25.3163 12.5965C26.2502 9.46566 27.2158 6.22811 28.8914 3.13589C29.3034 2.37574 29.7154 1.64729 30.1284 0.948608C30.068 0.964317 30.0074 0.979753 29.9472 0.995871C29.5558 1.66122 29.1653 2.35239 28.7749 3.07265C27.0926 6.17702 26.1251 9.42126 25.1893 12.5586C25.1277 12.7651 25.0654 13.035 24.9934 13.3477C24.7381 14.4545 24.3566 16.1092 23.58 16.4264C23.3494 12.5086 24.9743 7.58243 28.5359 1.41986C28.4719 1.44117 28.4087 1.46412 28.345 1.48597C24.7971 7.65606 23.1931 12.5916 23.4531 16.5217Z" fill="#D38266"/>
<path d="M28.5627 35.2036C29.5923 32.8817 30.6569 30.4806 31.637 28.0695C31.7383 27.8202 31.9072 27.4566 32.1208 26.9961C33.2231 24.6212 35.2748 20.2004 34.0376 18.6723C33.8692 18.4645 33.6986 18.3729 33.5304 18.3992C33.1394 18.4614 32.8819 19.1343 32.6549 19.7281C32.5858 19.9091 32.5203 20.0799 32.4609 20.2026C31.1585 22.8942 29.7722 25.2162 28.0985 27.5105C27.6102 28.1797 27.1409 28.8791 26.6868 29.5553C25.7677 30.9246 24.8173 32.3405 23.6675 33.5689C22.5711 34.7406 21.3027 35.7515 20.0762 36.7293C19.5703 37.1326 19.047 37.5496 18.5417 37.9732C16.9998 39.2657 15.731 40.903 14.6145 43.0527C14.6417 43.0969 14.6686 43.1411 14.696 43.1851C15.8132 41.0164 17.0822 39.3696 18.627 38.0748C19.1311 37.6524 19.6536 37.2358 20.159 36.8331C21.3893 35.8523 22.6614 34.8384 23.7645 33.6597C24.9215 32.4234 25.8749 31.003 26.797 29.6295C27.2503 28.9543 27.7191 28.2561 28.2057 27.5888C29.8843 25.2879 31.2745 22.9592 32.5804 20.2605C32.6423 20.1328 32.7086 19.9593 32.7788 19.7758C32.9718 19.2713 33.2361 18.5804 33.5513 18.5303C33.6683 18.5112 33.7982 18.5874 33.9346 18.7558C35.1199 20.2195 33.013 24.7588 32.0007 26.9404C31.7863 27.4025 31.6169 27.7673 31.5143 28.0195C30.5349 30.4287 29.4709 32.8288 28.4416 35.15C26.8969 38.6341 25.2996 42.2366 23.9656 45.925C23.337 47.6632 22.7801 49.4414 22.2729 51.1608C22.3112 51.1871 22.3495 51.213 22.3881 51.239C22.8978 49.509 23.4577 47.7188 24.0903 45.9701C25.4225 42.286 27.0189 38.6856 28.5627 35.2036Z" fill="#D38266"/>
<path d="M14.8182 34.4331C15.5166 33.2276 16.153 31.9264 16.7684 30.6681C17.3157 29.5492 17.8816 28.3919 18.4922 27.2992C19.5813 25.3503 20.8154 23.1414 21.4275 20.8159L21.5367 20.4006L21.3073 20.7637C20.2612 22.4185 19.139 24.0529 18.0537 25.6333C16.5557 27.8148 15.0066 30.0707 13.6308 32.4198C13.1454 33.2489 12.6595 34.0962 12.1895 34.9154C11.9707 35.2968 11.7487 35.6829 11.5256 36.0703C11.5427 36.1288 11.5609 36.1865 11.5781 36.2447C11.8225 35.8209 12.0653 35.3982 12.3045 34.9812C12.7742 34.1623 13.26 33.3155 13.7452 32.4869C15.1185 30.1417 16.6661 27.8879 18.1629 25.7084C19.166 24.2477 20.2006 22.7408 21.178 21.2135C20.5382 23.3654 19.3937 25.4138 18.3762 27.2346C17.7639 28.3305 17.1972 29.4892 16.6491 30.6098C16.0347 31.8661 15.3994 33.1651 14.7032 34.3664C14.1828 35.2648 13.2402 36.0447 12.2421 36.8706C12.1189 36.9725 11.9954 37.0748 11.8724 37.1777C11.8875 37.2225 11.9018 37.268 11.9171 37.3129C12.0533 37.199 12.1902 37.0856 12.3266 36.9728C13.3343 36.1394 14.2858 35.3519 14.8182 34.4331Z" fill="#D38266"/>
<path d="M33.9172 9.92507C31.9469 13.4029 29.9098 16.9991 30.3321 20.0778L30.4638 20.0636C30.3929 19.1684 30.976 18.0106 31.4906 16.9892C31.6886 16.596 31.8756 16.2246 32.0072 15.902C33.4171 12.4439 35.351 10.4535 38.4265 7.99048C40.695 6.17365 43.0976 4.16093 45.1896 1.84225C45.1453 1.8249 45.1002 1.80906 45.0559 1.79198C42.9781 4.08799 40.5947 6.08418 38.3435 7.88708C35.2505 10.3642 33.3051 12.3671 31.8842 15.8519C31.7546 16.1697 31.5687 16.5388 31.372 16.9296C30.9947 17.6786 30.5813 18.4996 30.4083 19.249C30.4022 16.3989 32.245 13.1455 34.0322 9.99036C34.5639 9.05182 35.0659 8.16546 35.5232 7.28579C36.7257 4.97285 37.7197 2.65963 38.6772 0.28057C38.6313 0.276063 38.5854 0.27169 38.5395 0.267456C37.5878 2.63053 36.5992 4.92832 35.4056 7.2246C34.9495 8.10235 34.448 8.98762 33.9172 9.92507Z" fill="#D38266"/>
<path d="M31.5224 45.5225C32.1546 43.2739 32.8082 40.9485 33.644 38.7197C33.9519 37.8989 34.2721 37.0654 34.5817 36.2594C35.3893 34.1573 36.2246 31.9836 36.9273 29.8085C38.0921 26.2051 38.8708 23.3984 38.2844 20.0865L38.2657 19.9801C38.0165 18.5761 37.7339 16.9846 38.2942 15.7786C38.6565 14.9987 39.451 14.1567 40.2194 13.3425C40.6529 12.8834 41.0622 12.4497 41.3695 12.0512C42.9171 10.0452 44.7975 7.70905 47.0104 5.59089C47.6822 4.94767 48.3724 4.34255 49.0711 3.76708C49.0311 3.74263 48.9905 3.719 48.9502 3.69482C48.2616 4.26333 47.5817 4.86066 46.9186 5.49513C44.6995 7.61931 42.8149 9.96039 41.2646 11.9702C40.961 12.3634 40.5542 12.7947 40.1231 13.2515C39.3472 14.0732 38.5453 14.9231 38.1739 15.7226C37.5961 16.9666 37.8825 18.5798 38.135 20.0031L38.1539 20.1095C38.735 23.3911 37.9597 26.1824 36.8014 29.7676C36.0994 31.9392 35.265 34.1112 34.458 36.2116C34.1482 37.0179 33.828 37.8517 33.52 38.673C32.6821 40.907 32.0277 43.235 31.3947 45.4865C31.0095 46.8572 30.6111 48.2746 30.1751 49.6572C29.6399 51.3544 29.173 52.9073 28.7604 54.3662C28.8024 54.3798 28.8447 54.3929 28.8869 54.4063C29.2995 52.9476 29.7664 51.3947 30.3016 49.6971C30.7383 48.3126 31.137 46.8942 31.5224 45.5225Z" fill="#D38266"/>
<path d="M30.1959 42.2613C31.5169 39.0318 32.4964 35.8955 33.3717 32.0915C33.5846 31.1665 34.6229 28.9654 35.5387 27.0233C36.2076 25.605 36.7854 24.3803 36.9567 23.8397L36.8302 23.7997C36.819 23.8347 36.8062 23.8729 36.7913 23.9142L36.7121 23.8409C34.6151 26.1125 32.4147 32.0028 30.2864 37.6989C29.1672 40.6951 28.0097 43.7931 26.8731 46.3574C26.6439 46.8745 26.4078 47.3936 26.1708 47.9151C25.504 49.3824 24.8274 50.874 24.2644 52.3991C24.3035 52.4209 24.3421 52.4433 24.3815 52.4649C24.9445 50.9367 25.623 49.441 26.2916 47.97C26.5289 47.4481 26.7649 46.9286 26.9944 46.4109C28.1326 43.8432 29.2907 40.7432 30.4107 37.7454C32.5206 32.0979 34.7018 26.2595 36.7692 23.9751C36.5441 24.5809 35.9961 25.743 35.4187 26.9666C34.4998 28.9147 33.4586 31.1226 33.2425 32.0616C32.3688 35.8582 31.3913 38.9884 30.0731 42.2109C29.0216 44.7813 28.1073 47.4537 27.2232 50.0376C26.8535 51.1182 26.4744 52.2242 26.0851 53.325C26.1255 53.3435 26.1654 53.3627 26.206 53.381C26.5969 52.2757 26.9776 51.1655 27.3487 50.0807C28.2323 47.4983 29.146 44.8281 30.1959 42.2613Z" fill="#D38266"/>
<path d="M24.5004 39.8434C24.6956 39.0732 24.8143 38.2951 24.9289 37.5428C25.215 35.6654 25.4854 33.8922 26.8662 32.3495L26.7674 32.2612C26.6263 32.4189 26.4967 32.5784 26.3773 32.7405L26.3646 32.7317C25.9339 33.3532 25.4772 33.993 24.9936 34.6703C22.5632 38.0744 19.8085 41.9326 18.785 45.6944C18.5998 46.3752 18.4262 47.0743 18.2582 47.755C18.2945 47.7927 18.3303 47.831 18.3668 47.8683C18.5408 47.163 18.7207 46.4356 18.9129 45.7291C19.9302 41.9904 22.6775 38.1424 25.1015 34.7474C25.2993 34.4705 25.4926 34.1996 25.6815 33.9338C25.173 35.0622 24.9891 36.2694 24.798 37.5227C24.6838 38.272 24.5657 39.0467 24.372 39.8106C23.7178 42.391 22.1015 44.4869 20.5385 46.5139C20.0317 47.1712 19.5191 47.8377 19.0339 48.5256C19.066 48.5563 19.0984 48.5868 19.1307 48.6174C19.6178 47.9258 20.1338 47.2557 20.6434 46.5947C22.2146 44.5572 23.8393 42.4502 24.5004 39.8434Z" fill="#D38266"/>
<path d="M47.221 10.2774C44.9635 13.1067 43.4969 16.4044 43.0919 19.5628C42.342 25.41 40.9165 31.6787 39.0781 37.2143L38.9485 37.604L39.1942 37.2749C40.4828 35.5467 40.9051 33.6759 41.2778 32.0254C41.4824 31.1196 41.6756 30.2642 41.9902 29.5535C44.5126 23.8564 47.855 18.7601 51.9237 14.4059C52.2641 14.0418 52.6179 13.6741 52.9599 13.3186C54.0076 12.2297 55.0822 11.113 55.9879 9.87723C55.9594 9.8413 55.9314 9.80483 55.9025 9.76905C54.9968 11.01 53.9171 12.1324 52.8644 13.2267C52.5218 13.5826 52.1678 13.9506 51.8268 14.3153C47.7477 18.6804 44.3974 23.7891 41.8691 29.4998C41.5492 30.2222 41.3546 31.084 41.1486 31.996C40.8048 33.5192 40.4181 35.2317 39.3424 36.836C41.1165 31.3967 42.4913 25.2878 43.2236 19.5796C43.9133 14.2017 47.5311 8.87641 52.163 5.97474C52.1291 5.94646 52.0947 5.91887 52.0606 5.89087C50.2933 7.00957 48.6376 8.502 47.221 10.2774Z" fill="#D38266"/>
<path d="M56.5873 21.2346C55.4009 23.3546 54.174 25.5466 53.1319 27.8112C52.8395 28.4472 52.5466 29.1009 52.2636 29.7332C51.2853 31.9182 50.2734 34.1775 49.0321 36.24C48.9662 36.35 48.8936 36.4808 48.8151 36.6221C48.475 37.2355 48.0092 38.0757 47.5125 38.1644C47.3526 38.1925 47.2014 38.1422 47.0482 38.0103C46.6152 37.6374 46.7374 36.1302 46.9961 34.844C47.4137 32.7684 48.3472 30.701 49.2499 28.7017C49.5055 28.136 49.7467 27.602 49.9782 27.0641C50.5935 25.6362 51.4376 24.2904 52.2539 22.9889C53.4307 21.1128 54.6474 19.1727 55.1938 16.9591C55.2767 16.6235 55.3349 16.2462 55.3912 15.8814C55.4141 15.7313 55.4376 15.5799 55.4626 15.4298C55.4741 15.4034 55.4853 15.3772 55.4962 15.3507C55.5819 15.1453 55.5973 14.9587 55.6121 14.7784C55.6152 14.7405 55.6182 14.703 55.6219 14.6657C55.6843 14.4327 55.761 14.2147 55.8593 14.0227L55.7476 13.9524C55.5595 14.2003 55.5136 14.4253 55.4912 14.6414C55.4274 14.8811 55.3781 15.1349 55.3346 15.3921C54.7205 16.8174 53.6533 18.2611 52.7097 19.5381C52.6086 19.6751 52.5085 19.8101 52.4111 19.9427C49.0534 24.5114 45.2842 29.8455 43.0544 35.3329C42.2268 37.3698 41.9718 39.5974 41.7254 41.7516C41.6963 42.0073 41.6672 42.2626 41.6371 42.5169C41.4309 44.2608 40.9352 45.9605 40.456 47.6042C40.2105 48.4461 39.9569 49.3166 39.7431 50.1868C39.3221 51.9034 39.054 53.6183 38.9319 55.4088C38.9767 55.4039 39.0212 55.3975 39.066 55.3923C39.1884 53.6188 39.4548 51.9191 39.8719 50.2184C40.0849 49.3509 40.3383 48.4817 40.5832 47.6413C41.064 45.9924 41.5612 44.2872 41.7685 42.5325C41.7987 42.278 41.8278 42.0227 41.857 41.7669C42.1025 39.6214 42.3564 37.403 43.1771 35.3829C45.4013 29.9094 49.1648 24.5836 52.5181 20.0213C52.6155 19.8888 52.7152 19.7539 52.8164 19.6171C53.6696 18.4625 54.6233 17.1718 55.2577 15.8758C55.2004 16.2489 55.1455 16.6016 55.0651 16.9274C54.5236 19.1204 53.3126 21.0512 52.1415 22.9184C51.3225 24.2243 50.4754 25.5744 49.8564 27.0116C49.6252 27.5484 49.3842 28.0821 49.1289 28.647C48.2232 30.6532 47.2865 32.7275 46.8661 34.8179C46.737 35.4599 46.3622 37.5945 46.9613 38.1107C47.1443 38.2682 47.3364 38.3305 47.5354 38.295C48.0943 38.1951 48.5579 37.3587 48.9307 36.6864C49.0083 36.5467 49.0801 36.4171 49.1454 36.3085C50.3908 34.2391 51.4043 31.976 52.3845 29.7876C52.6675 29.1556 52.96 28.5021 53.2523 27.8668C54.2919 25.607 55.5175 23.4173 56.7029 21.2995C57.4058 20.0434 58.1329 18.7447 58.8151 17.4422C59.0571 16.9803 59.3569 16.473 59.6749 15.9378C59.6528 15.8883 59.6309 15.8389 59.6085 15.7899C59.2716 16.3566 58.9533 16.8924 58.6975 17.3808C58.0165 18.6813 57.2901 19.9793 56.5873 21.2346Z" fill="#D38266"/>
<path d="M54.6281 41.1458C54.6209 40.6247 54.6153 40.213 54.6231 39.9979L54.6281 39.8442C54.7277 36.9766 54.8304 34.0115 55.4877 31.1719C55.5641 30.8427 55.6649 30.5028 55.7625 30.174C56.0293 29.2757 56.3052 28.3465 56.1638 27.4088L56.1498 27.3146L56.0666 27.3607C55.2384 27.8174 54.6575 29.1534 54.1906 30.2268C54.0562 30.536 53.9292 30.828 53.8105 31.065C53.2848 32.1152 52.7099 33.1665 52.1537 34.1836C51.0932 36.1233 49.9965 38.1291 49.1852 40.2256C48.9638 40.7985 48.7374 41.3773 48.509 41.9613C47.0176 45.7754 45.3894 49.9389 44.4661 54.1403C44.5151 54.1228 44.5648 54.1061 44.6136 54.0884C45.5383 49.9236 47.1523 45.7941 48.6325 42.0095C48.8608 41.4254 49.0873 40.8464 49.309 40.2734C50.1168 38.1849 51.2115 36.1831 52.2704 34.247C52.8268 33.2291 53.4023 32.1765 53.9293 31.1243C54.0494 30.8842 54.1771 30.5905 54.3124 30.2795C54.7547 29.2627 55.3014 28.0057 56.0462 27.527C56.1503 28.4031 55.8889 29.2837 55.6356 30.1363C55.5374 30.4669 55.4361 30.8085 55.359 31.1419C54.6987 33.9939 54.5957 36.9656 54.496 39.8394L54.491 39.9931C54.4832 40.2115 54.4888 40.6246 54.496 41.1475C54.5184 42.7784 54.5601 45.8318 54.2324 47.8269C54.2842 47.7735 54.3354 47.7194 54.3869 47.6657C54.69 45.6885 54.6513 42.8489 54.6281 41.1458Z" fill="#D38266"/>
<path d="M58.9604 35.9642C58.9575 36.0729 58.9492 36.2296 58.9391 36.423C58.8801 37.5378 58.7711 39.6158 59.1568 40.8709C59.1865 40.8118 59.2156 40.7528 59.2446 40.6934C58.913 39.4355 59.0193 37.417 59.0714 36.4299C59.0816 36.2351 59.0902 36.077 59.093 35.9678C59.2024 31.8724 60.0063 27.7104 61.4821 23.5977C61.5693 23.3543 61.6659 23.1076 61.7699 22.8573C61.7565 22.7778 61.7416 22.6987 61.7271 22.6194C61.5924 22.9355 61.4668 23.247 61.3571 23.5529C59.8768 27.6791 59.0704 31.8549 58.9604 35.9642Z" fill="#D38266"/>
<path d="M51.8261 42.3946L51.8071 42.3251L51.7397 42.3498C49.8447 43.0395 49.1401 48.5199 49.066 49.1423C48.9899 49.7798 48.8803 50.9076 48.8866 52.0566C48.932 52.0297 48.9773 52.0026 49.0227 51.9753C49.0213 50.7908 49.1379 49.6569 49.1974 49.1582C49.4585 46.963 50.2806 43.1321 51.7174 42.5014C52.343 44.9075 51.6518 48.0352 51.0512 50.6118C51.1059 50.5711 51.1614 50.5311 51.2155 50.49C51.8168 47.9026 52.4805 44.7948 51.8261 42.3946Z" fill="#D38266"/>
<path d="M38.0552 44.42C38.0747 44.3251 38.0936 44.2284 38.1131 44.1307C38.2438 43.4707 38.3785 42.79 38.7011 42.2542C38.7356 43.5218 38.4719 44.8906 38.2164 46.2166C38.0451 47.107 37.8676 48.0277 37.7882 48.8906C37.7212 49.6203 37.6585 50.3692 37.5976 51.0937C37.4749 52.5601 37.35 54.0504 37.1772 55.5337C37.2217 55.5322 37.2662 55.5303 37.311 55.5283C37.4829 54.05 37.6074 52.5655 37.7298 51.1048C37.7903 50.3806 37.853 49.6318 37.9201 48.9028C37.9991 48.0462 38.1757 47.129 38.3464 46.2418C38.6171 44.8365 38.897 43.3833 38.8253 42.0431L38.8155 41.8567L38.7055 42.0076C38.2832 42.5884 38.1306 43.3595 37.9828 44.105C37.9635 44.2024 37.9447 44.2987 37.9252 44.3934C37.4842 46.5367 36.9668 48.8499 36.1746 51.2419C35.705 52.659 35.2517 54.0672 34.8542 55.51C34.8993 55.5125 34.9444 55.5154 34.9895 55.5179C35.3846 54.0873 35.8343 52.69 36.3005 51.2837C37.0947 48.8851 37.613 46.5674 38.0552 44.42Z" fill="#D38266"/>
<path d="M33.3672 51.1957C33.8938 50.2111 34.3911 49.2813 34.786 48.3727C35.3574 47.0583 35.601 45.5959 35.8368 44.1816C35.9358 43.5874 36.0383 42.9732 36.1629 42.3866C36.2639 41.9107 36.3867 41.4292 36.5054 40.964C36.7688 39.9313 37.0409 38.8636 37.0993 37.7752C37.1463 36.8955 37.6911 35.8455 38.2182 34.8302C38.5375 34.2145 38.8395 33.6327 39.0114 33.1219C39.4582 31.7951 39.6121 29.4488 39.1578 29.1003C39.0951 29.0518 38.9902 29.0141 38.8488 29.1082L38.8163 29.1298L38.8195 29.1684C39.0081 31.6195 37.7366 34.1335 36.5067 36.5646C35.6706 38.2174 34.8062 39.9263 34.4353 41.5712C34.0253 43.3899 33.6841 45.2528 33.3538 47.0543C33.0455 48.7365 32.7268 50.4759 32.3528 52.176C32.2486 52.6499 32.1131 53.1412 31.9588 53.6485C31.7397 54.1135 31.536 54.5809 31.3558 55.0505C31.4001 55.0595 31.4443 55.0688 31.4887 55.0776C31.5126 55.0154 31.5355 54.9531 31.5603 54.891C31.5397 54.9533 31.5184 55.0168 31.4975 55.0795C31.5412 55.0881 31.5846 55.0978 31.6283 55.1063C31.7887 54.6248 31.9433 54.1543 32.0826 53.697C32.4796 52.8556 32.9257 52.0213 33.3672 51.1957ZM32.4823 52.2046C32.8569 50.5022 33.1758 48.7616 33.4844 47.0785C33.8143 45.2782 34.1553 43.4167 34.5648 41.6008C34.932 39.9718 35.7928 38.2702 36.625 36.6247C37.8562 34.1907 39.129 31.6745 38.9546 29.2C39.0162 29.1702 39.0522 29.1862 39.0771 29.2057C39.4186 29.4677 39.3743 31.6294 38.8861 33.0799C38.7173 33.5809 38.4176 34.1583 38.1004 34.7693C37.5672 35.7972 37.0157 36.8602 36.9668 37.7685C36.9095 38.8436 36.6387 39.9051 36.3773 40.9313C36.2583 41.3981 36.1353 41.8805 36.0334 42.3594C35.908 42.9487 35.8055 43.5643 35.7062 44.1599C35.4717 45.5663 35.2292 47.0206 34.6644 48.32C34.2717 49.2237 33.7757 50.1512 33.2504 51.1333C32.9284 51.7352 32.6039 52.3421 32.2976 52.9531C32.3664 52.6992 32.4285 52.4498 32.4823 52.2046Z" fill="#D38266"/>
<path d="M40.3385 20.8385L40.4263 20.6612C41.0673 19.3649 41.3755 17.9294 41.6735 16.5415C41.9999 15.0202 42.3375 13.4474 43.115 12.0497C43.1145 12.0505 43.1142 12.0511 43.1137 12.0519L43 11.9839C43.0006 11.9827 43.0014 11.9816 43.0019 11.9805C42.8522 12.2139 42.6383 12.5025 42.3907 12.8369C41.2154 14.4233 39.2487 17.0784 40.0768 19.4568L40.3385 20.8385ZM42.4971 12.9156C42.5402 12.8573 42.5824 12.8003 42.6236 12.7449C42.0932 13.9543 41.8146 15.2516 41.5439 16.5135C41.2614 17.829 40.9701 19.1872 40.3943 20.4213L40.2046 19.4224C39.3971 17.1008 41.3377 14.481 42.4971 12.9156Z" fill="#D38266"/>
<path d="M43.1139 12.0519C43.1145 12.051 43.1147 12.0505 43.1153 12.0497C43.1829 11.9441 43.234 11.8563 43.271 11.7815L43.1546 11.7179C43.1016 11.8048 43.0511 11.8922 43.0019 11.9803C43.0014 11.9814 43.0005 11.9826 43 11.9837L43.1139 12.0519Z" fill="#D38266"/>
<path d="M47.5708 12.9247C47.4471 13.2613 47.2243 13.7255 46.966 14.2632C46.2755 15.7017 45.4162 17.4919 45.6091 18.5272L45.6443 18.717L45.7328 18.5457C45.9271 18.171 46.0903 17.7197 46.2632 17.242C46.4423 16.7476 46.6274 16.2363 46.8541 15.7985C47.5741 14.4088 48.7211 13.5129 49.9353 12.5642C50.1936 12.3626 50.4604 12.1543 50.7212 11.9418C52.1323 10.7933 53.3507 9.5287 54.5227 8.19035C54.4922 8.15798 54.4611 8.12629 54.4306 8.09419C53.26 9.43144 52.0444 10.694 50.6375 11.839C50.3777 12.0506 50.1114 12.2587 49.854 12.4597C48.6278 13.4175 47.4698 14.3222 46.7367 15.7374C46.5058 16.183 46.3194 16.6985 46.1388 17.197C45.9982 17.585 45.8642 17.9556 45.7156 18.2786C45.6793 17.2504 46.4856 15.5711 47.0855 14.3207C47.3451 13.78 47.5692 13.3132 47.6954 12.9707C48.3112 11.297 50.542 9.44018 52.3346 7.94817C52.715 7.63141 53.0733 7.33322 53.3887 7.05894C53.3564 7.02848 53.3246 6.99747 53.2921 6.96729C52.9802 7.23815 52.6259 7.53319 52.2495 7.84641C50.4449 9.34826 48.1988 11.2177 47.5708 12.9247Z" fill="#D38266"/>
<path d="M44.3879 46.7773L44.401 46.7341C45.3913 43.5045 45.3841 40.6707 44.3794 38.3121L44.3248 38.1836L44.2596 38.3073C44.0819 38.6472 44.0273 40.3717 43.9974 42.014C43.9942 42.1837 43.9921 42.3141 43.9896 42.3874C43.8936 45.4403 42.2234 51.3554 41.1656 55.0583C41.2146 55.0483 41.2633 55.0385 41.3121 55.0284C42.3723 51.3155 44.0261 45.4421 44.1221 42.3915C44.1246 42.3177 44.1266 42.187 44.1299 42.0163C44.1445 41.2049 44.1814 39.1817 44.326 38.5297C45.2494 40.8259 45.2321 43.5717 44.2743 46.6953L44.2609 46.7385C44.0104 47.5567 43.7355 48.3848 43.4699 49.1853C42.8509 51.0492 42.2215 52.9515 41.8361 54.9116C41.8836 54.9005 41.931 54.8899 41.978 54.8787C42.3632 52.9463 42.9845 51.068 43.5955 49.2272C43.8615 48.4258 44.1368 47.5971 44.3879 46.7773Z" fill="#D38266"/>
</g>
<path opacity="0.4" d="M17.4219 47.2958C18.7862 48.8137 20.3099 50.1668 21.9634 51.3256C20.9642 49.6348 19.164 48.0699 17.4219 47.2958Z" fill="#844634"/>
<path opacity="0.3" d="M20.976 38.1363L15.9376 40.8762L15.6673 40.4647L22.4787 29.8274L15.064 22.6505L25.5362 10.0382L32.9971 18.2479L20.976 38.1363Z" fill="#844634"/>
<path d="M33.6946 16.2944L25.7013 9.80591L15.6067 22.6638L24.7183 29.1662L33.6946 16.2944Z" fill="#E8D5C8"/>
<path d="M16.0848 22.493L25.9113 9.97638L25.7013 9.80591L15.6067 22.6638L24.7183 29.1662L24.9567 28.8244L16.0848 22.493Z" fill="#DBC0AD"/>
<path d="M32.5995 16.3035L25.8818 10.337L16.4073 22.449L24.2686 27.7502L32.5995 16.3035Z" fill="#D3B8A5"/>
<path d="M32.4077 16.3085L25.9039 10.4254L16.6085 22.4305L24.2466 27.6617L32.4077 16.3085Z" fill="#E8D5C8"/>
<path opacity="0.4" d="M23.1081 17.6287C26.6679 16.8396 30.0519 17.0647 32.4654 18.057L33.6946 16.2944L25.7012 9.80579L18.1155 19.468C19.5628 18.6788 21.2559 18.0393 23.1081 17.6287Z" fill="#E8D5C8"/>
<path d="M26.2192 31.8593L26.6636 32.1023L37.0283 17.4269L36.6175 17.1411L26.2192 31.8593Z" fill="#EDD5C5"/>
<path d="M24.3641 28.9973L26.2706 31.828L36.6247 17.1451L33.3434 16.1279L24.3641 28.9973Z" fill="#CEB6A5"/>
<path d="M26.6233 25.7593L24.3641 28.9973L26.2706 31.8281L31.5535 24.3364C29.524 25.744 27.65 26.3278 26.6233 25.7593Z" fill="#C1A491"/>
<path d="M24.6591 28.8272L26.2441 30.9707L35.8558 17.3718L33.3691 16.5114L24.6591 28.8272Z" fill="#8E7565"/>
<path d="M24.8651 28.7656L26.3354 30.8056L35.7275 17.5109L33.3763 16.7252L24.8651 28.7656Z" fill="#FFF6E1"/>
<path d="M25.0337 28.7212L26.3345 30.6245L35.5503 17.5674L33.3848 16.8959L25.0337 28.7212Z" fill="#BFEFEF"/>
<path d="M24.9253 26.0934L23.9782 25.4607L23.1066 26.6224L24.0683 27.2408L24.9253 26.0934Z" fill="#8E7565"/>
<path d="M25.8513 24.8599L24.92 24.2119L24.0536 25.3667L24.9995 26.0005L25.8513 24.8599Z" fill="#8E7565"/>
<path d="M26.7719 23.6339L25.8562 22.9707L24.995 24.1185L25.9251 24.7679L26.7719 23.6339Z" fill="#8E7565"/>
<path d="M27.6871 22.4149L26.7868 21.7368L25.9307 22.8778L26.8453 23.5422L27.6871 22.4149Z" fill="#8E7565"/>
<path d="M28.5967 21.2032L27.7118 20.5104L26.8608 21.6447L27.7599 22.3239L28.5967 21.2032Z" fill="#8E7565"/>
<path d="M29.5012 19.9987L28.6312 19.2911L27.7854 20.4189L28.6689 21.113L29.5012 19.9987Z" fill="#8E7565"/>
<path d="M30.4002 18.8012L29.5454 18.0793L28.7043 19.2004L29.5729 19.9089L30.4002 18.8012Z" fill="#8E7565"/>
<path d="M31.2941 17.6107L30.4539 16.8746L29.6179 17.9891L30.4718 18.7121L31.2941 17.6107Z" fill="#8E7565"/>
<path d="M32.1826 16.4272L31.3572 15.6771L30.5261 16.7849L31.3651 17.5222L32.1826 16.4272Z" fill="#8E7565"/>
<path d="M23.8519 25.3485L22.9043 24.7163L22.0237 25.8901L22.986 26.5079L23.8519 25.3485Z" fill="#8E7565"/>
<path d="M24.7873 24.1021L23.8558 23.4543L22.9805 24.6213L23.9267 25.2547L24.7873 24.1021Z" fill="#8E7565"/>
<path d="M25.7175 22.8631L24.8017 22.2001L23.9316 23.3599L24.862 24.0089L25.7175 22.8631Z" fill="#8E7565"/>
<path d="M26.642 21.6316L25.7419 20.9534L24.877 22.1062L25.7915 22.7706L26.642 21.6316Z" fill="#8E7565"/>
<path d="M27.5612 20.4072L26.6765 19.7141L25.8167 20.8604L26.7156 21.5396L27.5612 20.4072Z" fill="#8E7565"/>
<path d="M28.4747 19.1901L27.6053 18.4822L26.7506 19.6216L27.6341 20.316L28.4747 19.1901Z" fill="#8E7565"/>
<path d="M29.3831 17.9801L28.5288 17.2577L27.6791 18.3903L28.5474 19.0993L29.3831 17.9801Z" fill="#8E7565"/>
<path d="M30.2862 16.7772L29.4466 16.0403L28.6022 17.1665L29.4553 17.8899L30.2862 16.7772Z" fill="#8E7565"/>
<path d="M31.1839 15.5813L30.3592 14.8303L29.5195 15.9496L30.3579 16.6877L31.1839 15.5813Z" fill="#8E7565"/>
<path d="M22.7221 24.6198L21.7739 23.9886L20.8721 25.1911L21.8355 25.8073L22.7221 24.6198Z" fill="#8E7565"/>
<path d="M23.6801 23.3432L22.7482 22.6959L21.8517 23.8914L22.7987 24.5236L23.6801 23.3432Z" fill="#8E7565"/>
<path d="M24.6324 22.074L23.7166 21.4113L22.8254 22.5995L23.7563 23.2478L24.6324 22.074Z" fill="#8E7565"/>
<path d="M25.5794 20.8126L24.6793 20.1342L23.7935 21.3151L24.7084 21.9791L25.5794 20.8126Z" fill="#8E7565"/>
<path d="M26.5205 19.5585L25.6361 18.8647L24.7557 20.0388L25.6545 20.7183L26.5205 19.5585Z" fill="#8E7565"/>
<path d="M27.4561 18.3116L26.5873 17.6027L25.7122 18.7699L26.5951 19.4648L27.4561 18.3116Z" fill="#8E7565"/>
<path d="M28.3861 17.0725L27.5329 16.3484L26.6628 17.5088L27.5302 18.2188L28.3861 17.0725Z" fill="#8E7565"/>
<path d="M29.3108 15.8403L28.4727 15.1014L27.6078 16.255L28.46 16.9799L29.3108 15.8403Z" fill="#8E7565"/>
<path d="M30.2302 14.6151L29.4072 13.8619L28.5475 15.0085L29.3844 15.7484L30.2302 14.6151Z" fill="#8E7565"/>
<path d="M21.6241 23.8424L20.6751 23.2114L19.7559 24.4241L20.7202 25.0399L21.6241 23.8424Z" fill="#8E7565"/>
<path d="M22.6007 22.5548L21.6683 21.9077L20.7545 23.1134L21.7022 23.7452L22.6007 22.5548Z" fill="#8E7565"/>
<path d="M23.5716 21.2749L22.6554 20.6122L21.7471 21.8104L22.6784 22.4585L23.5716 21.2749Z" fill="#8E7565"/>
<path d="M24.5367 20.0027L23.6368 19.3242L22.7339 20.5152L23.6487 21.1793L24.5367 20.0027Z" fill="#8E7565"/>
<path d="M25.4961 18.7379L24.6122 18.0438L23.7146 19.2281L24.6133 19.9076L25.4961 18.7379Z" fill="#8E7565"/>
<path d="M26.4499 17.4805L25.5817 16.7711L24.6896 17.9483L25.5721 18.6434L26.4499 17.4805Z" fill="#8E7565"/>
<path d="M27.3981 16.2306L26.5456 15.5061L25.6587 16.6764L26.5254 17.3866L27.3981 16.2306Z" fill="#8E7565"/>
<path d="M28.3407 14.9879L27.5037 14.2487L26.6219 15.4119L27.4733 16.1373L28.3407 14.9879Z" fill="#8E7565"/>
<path d="M29.2777 13.7525L28.4561 12.9985L27.5796 14.1549L28.4154 14.8954L29.2777 13.7525Z" fill="#8E7565"/>
<path d="M20.5197 23.093L19.5702 22.4629L18.6392 23.6916L19.6041 24.3064L20.5197 23.093Z" fill="#8E7565"/>
<path d="M21.5087 21.7887L20.5761 21.1422L19.6505 22.3635L20.5986 22.9947L21.5087 21.7887Z" fill="#8E7565"/>
<path d="M22.4922 20.4918L21.576 19.8293L20.656 21.0433L21.5874 21.6911L22.4922 20.4918Z" fill="#8E7565"/>
<path d="M23.4695 19.203L22.5698 18.5244L21.6553 19.7311L22.57 20.3949L23.4695 19.203Z" fill="#8E7565"/>
<path d="M24.4412 17.9215L23.5575 17.2272L22.6486 18.4269L23.5471 19.1066L24.4412 17.9215Z" fill="#8E7565"/>
<path d="M25.4072 16.6476L24.5396 15.9377L23.636 17.1303L24.5182 17.8259L25.4072 16.6476Z" fill="#8E7565"/>
<path d="M26.3676 15.381L25.5157 14.656L24.6174 15.8416L25.4837 16.5522L26.3676 15.381Z" fill="#8E7565"/>
<path d="M27.3224 14.1222L26.4859 13.3818L25.593 14.5604L26.4437 15.2866L27.3224 14.1222Z" fill="#8E7565"/>
<path d="M28.2715 12.8703L27.4507 12.1152L26.563 13.2869L27.398 14.0282L28.2715 12.8703Z" fill="#8E7565"/>
<path d="M23.5679 16.9282L22.0308 15.7704L20.406 17.8754L21.9431 19.0333L23.5679 16.9282Z" fill="#8E7565"/>
<path d="M23.4718 16.9441L22.0402 15.8657L20.5018 17.8593L21.9335 18.9377L23.4718 16.9441Z" fill="#E8D5C8"/>
<path d="M21.821 17.3266L21.2267 16.879L20.4564 17.8824L21.0506 18.3301L21.821 17.3266Z" fill="#8E7565"/>
<path d="M22.6338 16.2658L22.0395 15.8184L21.2811 16.8059L21.8753 17.2536L22.6338 16.2658Z" fill="#8E7565"/>
<path d="M21.7118 17.3462L21.2221 16.9774L20.5433 17.8632L21.0329 18.232L21.7118 17.3462Z" fill="#E8D5C8"/>
<path d="M22.5428 16.2648L22.0531 15.896L21.3743 16.7818L21.8638 17.1506L22.5428 16.2648Z" fill="#E8D5C8"/>
<path d="M24.9739 25.9575L24.0468 25.3386L23.1899 26.481L24.1313 27.0857L24.9739 25.9575Z" fill="#F7E6DA"/>
<path d="M25.8842 24.7448L24.9729 24.1107L24.1211 25.2464L25.0468 25.8664L25.8842 24.7448Z" fill="#F7E6DA"/>
<path d="M26.7895 23.5392L25.8933 22.8903L25.0465 24.0189L25.9568 24.6542L26.7895 23.5392Z" fill="#F7E6DA"/>
<path d="M27.6892 22.3406L26.8083 21.6771L25.9664 22.799L26.8614 23.449L27.6892 22.3406Z" fill="#F7E6DA"/>
<path d="M28.5836 21.1492L27.7177 20.4712L26.8811 21.5865L27.7608 22.2511L28.5836 21.1492Z" fill="#F7E6DA"/>
<path d="M29.4729 19.9649L28.6218 19.2723L27.79 20.3811L28.6545 21.0604L29.4729 19.9649Z" fill="#F7E6DA"/>
<path d="M30.3566 18.7874L29.5204 18.0807L28.6937 19.1829L29.5433 19.8765L30.3566 18.7874Z" fill="#F7E6DA"/>
<path d="M31.2356 17.6169L30.4135 16.8962L29.5918 17.992L30.4271 18.6998L31.2356 17.6169Z" fill="#F7E6DA"/>
<path d="M32.1091 16.4531L31.3019 15.7186L30.4847 16.808L31.3053 17.5297L32.1091 16.4531Z" fill="#F7E6DA"/>
<path d="M23.9234 25.2287L22.9961 24.6104L22.1304 25.7646L23.0722 26.3687L23.9234 25.2287Z" fill="#F7E6DA"/>
<path d="M24.8432 24.0032L23.9317 23.3695L23.0709 24.5169L23.997 25.1365L24.8432 24.0032Z" fill="#F7E6DA"/>
<path d="M25.7578 22.7851L24.8616 22.1362L24.0062 23.2767L24.9165 23.9115L25.7578 22.7851Z" fill="#F7E6DA"/>
<path d="M26.6667 21.5741L25.7858 20.9104L24.9355 22.044L25.8305 22.6939L26.6667 21.5741Z" fill="#F7E6DA"/>
<path d="M27.5705 20.3701L26.7049 19.6919L25.8595 20.8189L26.739 21.4836L27.5705 20.3701Z" fill="#F7E6DA"/>
<path d="M28.4687 19.1735L27.618 18.4805L26.7778 19.6008L27.6422 20.2802L28.4687 19.1735Z" fill="#F7E6DA"/>
<path d="M29.3619 17.9836L28.5261 17.2765L27.6906 18.3903L28.54 19.0842L29.3619 17.9836Z" fill="#F7E6DA"/>
<path d="M30.2498 16.8007L29.4285 16.0793L28.5981 17.1867L29.4329 17.895L30.2498 16.8007Z" fill="#F7E6DA"/>
<path d="M31.1323 15.6249L30.3257 14.8896L29.5001 15.9903L30.3202 16.7128L31.1323 15.6249Z" fill="#F7E6DA"/>
<path d="M22.8178 24.5161L21.8897 23.8988L21.0032 25.081L21.9461 25.6838L22.8178 24.5161Z" fill="#F7E6DA"/>
<path d="M23.7599 23.2609L22.8478 22.6277L21.9663 23.8031L22.8932 24.4214L23.7599 23.2609Z" fill="#F7E6DA"/>
<path d="M24.6963 22.0129L23.8 21.3645L22.9237 22.5327L23.8348 23.167L24.6963 22.0129Z" fill="#F7E6DA"/>
<path d="M25.627 20.7726L24.7464 20.1089L23.8755 21.2701L24.7707 21.9197L25.627 20.7726Z" fill="#F7E6DA"/>
<path d="M26.5525 19.5395L25.6871 18.8605L24.8215 20.015L25.7011 20.6799L26.5525 19.5395Z" fill="#F7E6DA"/>
<path d="M27.4723 18.3137L26.6224 17.6196L25.7618 18.7672L26.6257 19.4475L27.4723 18.3137Z" fill="#F7E6DA"/>
<path d="M28.3866 17.0951L27.552 16.3864L26.6965 17.5273L27.5452 18.2222L28.3866 17.0951Z" fill="#F7E6DA"/>
<path d="M29.2959 15.8834L28.476 15.1603L27.6256 16.2944L28.4594 17.004L29.2959 15.8834Z" fill="#F7E6DA"/>
<path d="M30.1998 14.6789L29.3947 13.9414L28.5494 15.0689L29.368 15.7931L30.1998 14.6789Z" fill="#F7E6DA"/>
<path d="M21.7433 23.7554L20.8145 23.1384L19.9108 24.3308L20.8545 24.933L21.7433 23.7554Z" fill="#F7E6DA"/>
<path d="M22.7034 22.4895L21.791 21.8566L20.8926 23.0421L21.8201 23.6602L22.7034 22.4895Z" fill="#F7E6DA"/>
<path d="M23.6581 21.2309L22.7615 20.5825L21.8684 21.7606L22.7798 22.3947L23.6581 21.2309Z" fill="#F7E6DA"/>
<path d="M24.6067 19.98L23.7263 19.3162L22.8386 20.4872L23.7337 21.137L24.6067 19.98Z" fill="#F7E6DA"/>
<path d="M25.5502 18.7363L24.6853 18.0571L23.8027 19.2215L24.682 19.8865L25.5502 18.7363Z" fill="#F7E6DA"/>
<path d="M26.4879 17.5L25.6384 16.8057L24.7614 17.9632L25.6249 18.6434L26.4879 17.5Z" fill="#F7E6DA"/>
<path d="M27.4199 16.271L26.5861 15.5619L25.7141 16.7126L26.562 17.4077L27.4199 16.271Z" fill="#F7E6DA"/>
<path d="M28.3468 15.0491L27.5279 14.3253L26.6613 15.4692L27.4939 16.1794L28.3468 15.0491Z" fill="#F7E6DA"/>
<path d="M29.2682 13.8344L28.4643 13.0961L27.6027 14.2331L28.4202 14.9581L29.2682 13.8344Z" fill="#F7E6DA"/>
<path d="M20.6624 23.0227L19.7332 22.4062L18.8179 23.6144L19.7621 24.2156L20.6624 23.0227Z" fill="#F7E6DA"/>
<path d="M21.6348 21.74L20.7222 21.1077L19.8123 22.3086L20.74 22.9259L21.6348 21.74Z" fill="#F7E6DA"/>
<path d="M22.6018 20.4648L21.705 19.8165L20.8007 21.0102L21.7121 21.644L22.6018 20.4648Z" fill="#F7E6DA"/>
<path d="M23.5628 19.1974L22.6823 18.5333L21.7831 19.7199L22.6785 20.3694L23.5628 19.1974Z" fill="#F7E6DA"/>
<path d="M24.518 17.9374L23.6534 17.2579L22.7596 18.4376L23.6389 19.1025L24.518 17.9374Z" fill="#F7E6DA"/>
<path d="M25.4678 16.6848L24.6189 15.99L23.7305 17.1626L24.5937 17.8433L25.4678 16.6848Z" fill="#F7E6DA"/>
<path d="M26.412 15.4395L25.5788 14.7296L24.6954 15.8954L25.5431 16.5911L26.412 15.4395Z" fill="#F7E6DA"/>
<path d="M27.3506 14.2014L26.5326 13.4768L25.6545 14.6357L26.4868 15.3466L27.3506 14.2014Z" fill="#F7E6DA"/>
<path d="M28.2837 12.9707L27.481 12.2313L26.6083 13.3834L27.425 14.1094L28.2837 12.9707Z" fill="#F7E6DA"/>
<path d="M29.9233 22.0946C31.9182 20.1153 33.6648 18.8084 34.949 18.2407L35.4658 17.5083L33.3779 16.8909L29.1415 22.8927C29.4002 22.6217 29.6609 22.3549 29.9233 22.0946Z" fill="#AFE0DE"/>
<path opacity="0.4" d="M22.7817 39.0419L19.8221 43.2763L26.4015 47.4197L28.8602 42.9803L28.8145 42.6616L22.7817 39.0419Z" fill="#844634"/>
<path d="M28.9967 42.6503L22.8041 38.8983L20.2633 43.1371L26.5266 46.8959L28.9967 42.6503Z" fill="#D1DDE5"/>
<path d="M24.4696 42.3595C25.9282 42.7272 27.2 43.2922 28.1096 43.9224L28.9227 42.5932L22.8041 38.8982L20.9611 41.9731C21.9809 41.9173 23.1983 42.0389 24.4696 42.3595Z" fill="#DAEDF2"/>
<path d="M22.7808 39.4025L20.6974 42.8784L26.375 46.2816L28.4585 42.8056L22.7808 39.4025Z" fill="#708693"/>
<path d="M22.8437 39.5484L20.8558 42.8649L26.3121 46.1353L28.2999 42.8188L22.8437 39.5484Z" fill="#FFF6E1"/>
<path d="M22.8714 39.6524L20.9581 42.8445L26.2841 46.0368L28.1974 42.8448L22.8714 39.6524Z" fill="#BFEFEF"/>
<path d="M25.8831 44.221C23.9423 43.6815 22.3756 42.7255 21.6242 41.7357L20.9602 42.8434L26.2863 46.036L27.2025 44.5075C26.773 44.4403 26.3309 44.3456 25.8831 44.221Z" fill="#A9DBD9"/>
<path d="M27.7561 44.1241L27.5184 44.5522L27.7577 44.6851L27.9954 44.257L27.7561 44.1241Z" fill="#708693"/>
<path d="M27.9281 44.2789L27.7672 44.1909L27.6063 44.4804L27.7672 44.5683L27.9281 44.2789Z" fill="#D1DDE5"/>
<path opacity="0.3" d="M33.8343 47.0895L33.5441 47.2602L33.1559 52.3919L36.0198 52.6728L36.595 52.3654L33.8343 47.0895Z" fill="#844634"/>
<path d="M36.8394 47.4372L33.8808 47.1748L33.527 51.9663L36.5177 52.2288L36.8394 47.4372Z" fill="#E8CCA3"/>
<path d="M34.6472 49.7653C34.274 49.027 34.0138 48.2906 33.8687 47.6182L33.5419 51.9546L36.4501 52.2047C35.8099 51.6385 35.1656 50.7904 34.6472 49.7653Z" fill="#DBBC93"/>
<path d="M36.623 47.6112L34.0507 47.3911L33.743 51.4056L36.3434 51.6255L36.623 47.6112Z" fill="#3A302B"/>
<path d="M36.5321 47.6723L34.1224 47.4594L33.8344 51.3444L36.2701 51.5572L36.5321 47.6723Z" fill="#FFF9D7"/>
<path d="M36.4637 47.7538L34.1761 47.5504L33.9026 51.2628L36.2151 51.4663L36.4637 47.7538Z" fill="#A9DBD9"/>
<path d="M34.3622 47.567C35.023 47.8326 35.641 48.5081 35.9628 49.4187C36.2189 50.1429 36.2354 50.8703 36.058 51.4527L36.2151 51.4665L36.4637 47.754L34.3622 47.567Z" fill="#BFEFEF"/>
<path d="M34.6728 51.5996L34.6395 52.0251L35.3375 52.0797L35.3707 51.6541L34.6728 51.5996Z" fill="#3A302B"/>
<path d="M34.7435 51.6722L34.7201 51.9714L35.2716 52.0145L35.295 51.7153L34.7435 51.6722Z" fill="#E8CCA3"/>
<path d="M35.2875 51.7108L34.7398 51.6732L34.7308 51.7835L35.2784 51.8209L35.2875 51.7108Z" fill="#F7DFBF"/>
<path d="M33.8002 47.0724L33.4246 52.0581L36.6004 52.3313L36.9419 47.3456L33.8002 47.0724ZM36.5177 52.2288L33.527 51.9663L33.8808 47.1748L36.8394 47.4374L36.5177 52.2288Z" fill="#F7DFBF"/>
<path opacity="0.3" d="M32.0482 9.18726L31.8097 9.42507L32.7149 14.4912L35.9173 13.658L36.3271 13.214L32.0482 9.18726Z" fill="#844634"/>
<path d="M33.2987 14.1223L36.1836 13.4148L34.9705 8.76599L32.0586 9.30404L33.2987 14.1223Z" fill="#CCAEBA"/>
<path d="M34.6895 11.0515C35.2813 11.6296 35.7653 12.2425 36.1202 12.8319L35.0282 8.62244L32.1497 9.29844C32.9385 9.6275 33.8677 10.2487 34.6895 11.0515Z" fill="#EAD6DD"/>
<path d="M33.5155 13.7286L36.0212 13.1057L35.0153 9.20715L32.4833 9.8389L33.5155 13.7286Z" fill="#724852"/>
<path d="M33.582 13.6411L35.9312 13.0642L34.9487 9.29443L32.5747 9.87988L33.582 13.6411Z" fill="#FFF9D7"/>
<path d="M33.6202 13.542L35.8512 12.9954L34.9103 9.39368L32.6561 9.94825L33.6202 13.542Z" fill="#A9DBD9"/>
<path d="M35.6695 13.04C34.9583 13.0022 34.1552 12.5625 33.5564 11.8048C33.0803 11.2021 32.8295 10.5192 32.8093 9.91064L32.6561 9.94834L33.6202 13.5421L35.6695 13.04Z" fill="#BFEFEF"/>
<path d="M33.9668 8.90723L33.2887 9.08105L33.3947 9.49455L34.0728 9.32073L33.9668 8.90723Z" fill="#724852"/>
<path d="M33.9114 8.98736L33.3754 9.12476L33.4499 9.41546L33.9859 9.27806L33.9114 8.98736Z" fill="#E8CCA3"/>
<path d="M33.4551 9.41731L33.9857 9.27567L33.9585 9.16858L33.4282 9.30995L33.4551 9.41731Z" fill="#F7DFBF"/>
<path d="M36.3612 13.3265L35.1058 8.48682L32.0122 9.25434L33.2997 14.0829L36.3612 13.3265ZM32.1234 9.32441L35.0387 8.60661L36.2519 13.2554L33.3671 13.9629L32.1234 9.32441Z" fill="#FFE9F1"/>
<path opacity="0.4" d="M58.1953 30.1606L52.2716 24.4711L51.1671 25.6211L49.9538 24.7075L47.8049 27.5611L46.4676 27.0587L44.204 32.5764L52.0811 35.4706L52.6011 34.0869L52.9658 34.3616L53.4215 33.7562L54.1084 34.4158L58.1953 30.1606Z" fill="#844634"/>
<path d="M46.607 26.8667L44.4287 32.3877L52.0041 35.2894L54.1821 29.7686L46.607 26.8667Z" fill="#F4E7CB"/>
<path d="M45.3424 32.252L47.1011 27.7101L47.2889 27.7784L45.5473 32.3032L45.3424 32.252Z" fill="#C6B799"/>
<path d="M45.8033 32.3715L47.562 27.8296L47.7498 27.8979L46.0082 32.4227L45.8033 32.3715Z" fill="#C6B799"/>
<path d="M46.3157 32.5592L48.0743 28.0173L48.2621 28.0856L46.5206 32.6104L46.3157 32.5592Z" fill="#C6B799"/>
<path d="M46.845 32.6958L48.6036 28.1539L48.7914 28.2222L47.0499 32.747L46.845 32.6958Z" fill="#C6B799"/>
<path d="M47.3059 32.8154L49.0646 28.2737L49.2524 28.342L47.5108 32.8667L47.3059 32.8154Z" fill="#C6B799"/>
<path d="M47.8181 33.0032L49.5768 28.4614L49.7646 28.5297L48.023 33.0544L47.8181 33.0032Z" fill="#C6B799"/>
<path d="M48.3987 33.2251L50.1573 28.6833L50.3452 28.7516L48.6036 33.2763L48.3987 33.2251Z" fill="#C6B799"/>
<path d="M48.8597 33.3447L50.6184 28.803L50.8062 28.8713L49.0646 33.396L48.8597 33.3447Z" fill="#C6B799"/>
<path d="M49.3719 33.5325L51.1306 28.9907L51.3184 29.059L49.5768 33.5837L49.3719 33.5325Z" fill="#C6B799"/>
<path d="M50.3451 33.9252L52.1037 29.3834L52.2916 29.4517L50.55 33.9764L50.3451 33.9252Z" fill="#C6B799"/>
<path d="M50.8062 34.0447L52.5648 29.5029L52.7526 29.5712L51.011 34.0959L50.8062 34.0447Z" fill="#C6B799"/>
<path d="M51.3184 34.2325L53.077 29.6908L53.2648 29.7591L51.5233 34.2838L51.3184 34.2325Z" fill="#C6B799"/>
<path opacity="0.4" d="M47.9603 27.2719L46.3668 29.1388L52.5362 33.965L54.4259 29.1842L47.9603 27.2719Z" fill="#844634"/>
<path d="M50.1875 24.3613L46.5627 29.0699L52.9743 34.0221L56.5994 29.314L50.1875 24.3613Z" fill="#F4E7CB"/>
<path d="M47.5802 29.1904L50.457 25.6608L50.6043 25.7758L47.7478 29.2953L47.5802 29.1904Z" fill="#C6B799"/>
<path d="M47.9556 29.43L50.8324 25.9004L50.9796 26.0154L48.1232 29.5347L47.9556 29.43Z" fill="#C6B799"/>
<path d="M48.3569 29.745L51.2336 26.2155L51.3809 26.3303L48.5241 29.8499L48.3569 29.745Z" fill="#C6B799"/>
<path d="M49.3901 30.5221L52.2669 26.9926L52.4142 27.1077L49.5577 30.627L49.3901 30.5221Z" fill="#C6B799"/>
<path d="M49.7655 30.7618L52.6423 27.2322L52.7896 27.3472L49.9331 30.8665L49.7655 30.7618Z" fill="#C6B799"/>
<path d="M50.1667 31.0768L53.0434 27.5472L53.1907 27.6621L50.3339 31.1817L50.1667 31.0768Z" fill="#C6B799"/>
<path d="M50.6536 31.3758L53.5304 27.8462L53.6776 27.9613L50.8212 31.4807L50.6536 31.3758Z" fill="#C6B799"/>
<path d="M51.0289 31.6155L53.9057 28.0859L54.053 28.201L51.1965 31.7203L51.0289 31.6155Z" fill="#C6B799"/>
<path d="M51.4303 31.9305L54.307 28.4009L54.4542 28.5159L51.5975 32.0354L51.4303 31.9305Z" fill="#C6B799"/>
<path d="M52.2244 32.7076L55.1012 29.1781L55.2484 29.2931L52.392 32.8125L52.2244 32.7076Z" fill="#C6B799"/>
<path d="M52.5997 32.9473L55.4765 29.4178L55.6238 29.5327L52.7673 33.0521L52.5997 32.9473Z" fill="#C6B799"/>
<path opacity="0.4" d="M51.4435 25.2684L47.983 28.6378L53.2875 33.6691L56.156 29.8218L51.4435 25.2684Z" fill="#844634"/>
<path d="M52.4264 24.2881L48.2769 28.5377L54.0399 34.2377L58.1892 29.9882L52.4264 24.2881Z" fill="#F4E7CB"/>
<path d="M49.1718 28.4225L52.3615 25.5076L52.4837 25.636L49.3142 28.5442L49.1718 28.4225Z" fill="#C6B799"/>
<path d="M49.5457 28.828L52.735 25.9131L52.8575 26.0413L49.6881 28.9497L49.5457 28.828Z" fill="#C6B799"/>
<path d="M49.8647 29.105L53.0541 26.1901L53.1766 26.3185L50.0072 29.2266L49.8647 29.105Z" fill="#C6B799"/>
<path d="M50.1976 29.4564L53.3874 26.5414L53.5095 26.6699L50.3401 29.5779L50.1976 29.4564Z" fill="#C6B799"/>
<path d="M51.1865 30.369L54.3763 27.4541L54.4985 27.5825L51.329 30.4907L51.1865 30.369Z" fill="#C6B799"/>
<path d="M51.5604 30.7745L54.7498 27.8596L54.8723 27.9879L51.7029 30.8962L51.5604 30.7745Z" fill="#C6B799"/>
<path d="M51.8795 31.0514L55.0689 28.1364L55.1914 28.2649L52.022 31.173L51.8795 31.0514Z" fill="#C6B799"/>
<path d="M52.9636 32.1882L56.1534 29.2732L56.2755 29.4017L53.1061 32.3097L52.9636 32.1882Z" fill="#C6B799"/>
<path d="M53.3734 32.7005L55.2941 30.9792L55.4162 31.1079L53.5159 32.8219L53.3734 32.7005Z" fill="#C6B799"/>
<path opacity="0.4" d="M42.5903 8.12915C43.1108 7.41176 44.8569 6.17353 43.0502 4.86264C41.2433 3.55161 40.5125 5.52662 39.992 6.24401C39.4716 6.96141 39.6311 7.9651 40.3486 8.48566C41.0662 9.00622 42.0697 8.84654 42.5903 8.12915Z" fill="#844634"/>
<path d="M43.1705 4.88887C42.5164 4.29072 41.5012 4.33621 40.9031 4.99035C40.3049 5.6445 40.3503 6.65981 41.0044 7.25795C41.6589 7.85596 42.674 7.81061 43.2722 7.15646C43.8703 6.50218 43.8247 5.48701 43.1705 4.88887Z" fill="#E8D5C8"/>
<path d="M43.0436 5.61759C42.4826 6.23131 41.5301 6.27393 40.9163 5.7128C40.8373 5.64068 40.7682 5.56186 40.7084 5.47827C40.4603 6.05142 40.5862 6.74231 41.0728 7.18733C41.6866 7.74846 42.6391 7.70571 43.2001 7.09199C43.6891 6.55722 43.7193 5.76539 43.3129 5.19934C43.2482 5.34877 43.1594 5.4907 43.0436 5.61759Z" fill="#D3B9A7"/>
<path d="M42.9939 5.08201C42.4464 4.58139 41.5968 4.6195 41.0962 5.16697C40.5957 5.71444 40.6335 6.56419 41.181 7.06467C41.7285 7.56529 42.5781 7.52704 43.079 6.97971C43.5795 6.43238 43.5413 5.58263 42.9939 5.08201Z" fill="#511F1C"/>
<path d="M42.9326 5.14916C42.4223 4.68256 41.6302 4.71807 41.1636 5.22839C40.697 5.7387 40.7325 6.53081 41.2428 6.99742C41.7531 7.46416 42.5452 7.42864 43.0118 6.91819C43.4784 6.40788 43.4429 5.61577 42.9326 5.14916Z" fill="#662F28"/>
<path d="M41.0962 5.16699C40.7299 5.56762 40.6534 6.12957 40.8524 6.5985C40.8435 6.26343 40.9588 5.92468 41.2029 5.65764C41.7034 5.11017 42.5531 5.07206 43.1006 5.57267C43.2473 5.70695 43.3562 5.8669 43.4292 6.03887C43.4202 5.68673 43.2745 5.33842 42.9938 5.08203C42.4464 4.58155 41.5967 4.61966 41.0962 5.16699Z" fill="#511F1C"/>
<path d="M42.0919 7.63915C42.0919 7.63915 42.1863 8.76919 42.6073 8.75485C43.0283 8.74051 42.6257 7.52905 42.6257 7.52905L42.0919 7.63915Z" fill="#E8D5C8"/>
<path opacity="0.4" d="M26.4488 38.5448C27.0974 37.9406 29.0488 37.0607 27.5272 35.4274C26.0057 33.7938 24.9095 35.5919 24.2609 36.1962C23.6122 36.8003 23.5763 37.8158 24.1805 38.4645C24.7845 39.1129 25.8001 39.1489 26.4488 38.5448Z" fill="#844634"/>
<path d="M28.2374 36.4495C28.4075 35.5798 27.8401 34.7365 26.9703 34.5663C26.1003 34.3961 25.2571 34.9635 25.0871 35.8333C24.9168 36.7033 25.4842 37.5462 26.354 37.7166C27.224 37.8868 28.0672 37.3195 28.2374 36.4495Z" fill="#E27489"/>
<path d="M27.5529 36.7135C26.7358 36.5599 26.1977 35.7731 26.3511 34.956C26.3709 34.8507 26.4013 34.7503 26.4408 34.6554C25.8228 34.7469 25.3023 35.2179 25.1804 35.8659C25.0269 36.6833 25.5651 37.4702 26.3823 37.6237C27.0944 37.7573 27.7832 37.3657 28.0503 36.7219C27.8894 36.7458 27.7221 36.7453 27.5529 36.7135Z" fill="#AA465E"/>
<path d="M27.9805 36.3994C28.1228 35.6715 27.6482 34.9657 26.9201 34.8233C26.1921 34.6809 25.4864 35.1558 25.3441 35.8836C25.2016 36.6118 25.6766 37.3174 26.4045 37.4597C27.1324 37.6019 27.838 37.1274 27.9805 36.3994Z" fill="#511F1C"/>
<path d="M27.891 36.3819C28.0238 35.7032 27.5812 35.0456 26.9026 34.9127C26.2239 34.7799 25.5661 35.2224 25.4334 35.901C25.3007 36.5797 25.7432 37.2377 26.4218 37.3704C27.1004 37.5032 27.7584 37.0605 27.891 36.3819Z" fill="#662F28"/>
<path d="M26.9201 34.8234C26.3875 34.7192 25.8678 34.9462 25.5708 35.3604C25.8526 35.1785 26.2016 35.1004 26.5566 35.1698C27.2845 35.3121 27.7593 36.0179 27.6168 36.7458C27.5787 36.9412 27.499 37.1175 27.39 37.2694C27.686 37.0782 27.9074 36.7723 27.9803 36.3994C28.1228 35.6715 27.6481 34.9657 26.9201 34.8234Z" fill="#511F1C"/>
<path d="M25.3275 36.9603C25.3275 36.9603 24.4118 37.6291 24.6432 37.9812C24.8746 38.3331 25.6993 37.3586 25.6993 37.3586L25.3275 36.9603Z" fill="#E27489"/>
<path opacity="0.4" d="M24.8546 9.75134C25.3752 9.03395 27.1213 7.79572 25.3145 6.48483C23.5077 5.1738 22.777 7.14881 22.2566 7.8662C21.7361 8.5836 21.8956 9.58729 22.6131 10.1078C23.3304 10.6284 24.3341 10.4687 24.8546 9.75134Z" fill="#844634"/>
<path opacity="0.4" d="M36.8736 39.9752L36.6975 40.5336L44.9097 46.8049L49.0987 40.7494L49.2353 40.2259L36.8736 39.9752Z" fill="#844634"/>
<path d="M41.199 34.1486L36.8719 39.9515L44.9501 45.9751L49.2771 40.1722L41.199 34.1486Z" fill="#F7DFBF"/>
<path d="M41.1685 34.2878L36.9952 39.8845L44.9808 45.8391L49.1541 40.2424L41.1685 34.2878Z" fill="#E8CCA3"/>
<path d="M42.5281 41.7635C40.9033 41.6481 39.4113 41.2912 38.1846 40.7742L44.9764 45.8388L48.8168 40.6893C47.2988 41.5085 45.0283 41.9412 42.5281 41.7635Z" fill="#DBBC93"/>
<path d="M41.2006 34.7338L37.4332 39.7861L44.4507 45.0188L48.218 39.9665L41.2006 34.7338Z" fill="#775246"/>
<path d="M41.2127 34.867L37.5649 39.7589L44.4385 44.8843L48.0862 39.9924L41.2127 34.867Z" fill="#A9DBD9"/>
<path d="M43.7377 38.6361C44.7854 38.6869 45.7871 38.8052 46.7175 38.9771L41.2092 34.8693L38.0317 39.1302C39.6099 38.7246 41.5936 38.532 43.7377 38.6361Z" fill="#BDE5E2"/>
<path d="M46.6742 43.2308C46.8628 43.2308 47.0157 43.0703 47.0157 42.8722C47.0157 42.6742 46.8628 42.5137 46.6742 42.5137C46.4857 42.5137 46.3328 42.6742 46.3328 42.8722C46.3328 43.0703 46.4857 43.2308 46.6742 43.2308Z" fill="#775246"/>
<path d="M46.949 42.8721C46.949 42.7127 46.826 42.5835 46.6741 42.5835C46.5224 42.5835 46.399 42.7127 46.399 42.8721C46.399 43.0315 46.5223 43.1607 46.6741 43.1607C46.826 43.1607 46.949 43.0314 46.949 42.8721Z" fill="#E8CCA3"/>
<path opacity="0.3" d="M46.1452 9.62842H43.3992V9.95856H43.2106V9.62842H40.4075C40.1338 9.62842 39.9121 9.85025 39.9121 10.124V10.8199V14.3121C39.9121 14.5166 40.0778 14.6824 40.2824 14.6824H43.2107V14.3181H43.3994V14.6824H46.2251C46.4862 14.6824 46.6978 14.4707 46.6978 14.2096V13.1711V10.1809C46.6977 9.87579 46.4505 9.62842 46.1452 9.62842ZM43.3992 12.4248H43.2106V11.8519H43.3992V12.4248ZM43.3992 10.6189V11.1917H43.2106V10.6189H43.3992ZM43.2106 13.6579V13.0851H43.3992V13.6579H43.2106Z" fill="#844634"/>
<path d="M43.874 13.4189H43.3049V14.0791H43.874V13.4189Z" fill="#7A5241"/>
<path d="M43.874 12.1858H43.3049V12.846H43.874V12.1858Z" fill="#7A5241"/>
<path d="M43.874 10.9528H43.3049V11.6129H43.874V10.9528Z" fill="#7A5241"/>
<path d="M43.874 9.7196H43.3049V10.3798H43.874V9.7196Z" fill="#7A5241"/>
<path d="M46.9367 9.94179C46.9367 9.63677 46.6894 9.3894 46.3841 9.3894H43.6381V14.4434H46.4639C46.7249 14.4434 46.9367 14.2317 46.9367 13.9706V9.94179Z" fill="#A36B57"/>
<path d="M43.4496 9.3894H40.6466C40.3728 9.3894 40.151 9.61123 40.151 9.88497V14.0731C40.151 14.2777 40.3168 14.4434 40.5213 14.4434H43.4496V9.3894Z" fill="#A36B57"/>
<path d="M44.2511 12.4536C44.0425 12.3931 43.8381 12.3281 43.6383 12.2595V14.4434H46.464C46.7252 14.4434 46.9368 14.2317 46.9368 13.9706V12.9321C46.1068 12.8832 45.1918 12.7268 44.2511 12.4536Z" fill="#7A5241"/>
<path d="M42.1346 11.717C41.4029 11.3785 40.7348 10.9915 40.151 10.5809V14.0731C40.151 14.2776 40.3167 14.4434 40.5213 14.4434H43.4496V12.2429C43.0174 12.0963 42.5769 11.9216 42.1346 11.717Z" fill="#7A5241"/>
<path d="M46.5888 9.74792H43.8398V14.0677H46.5888V9.74792Z" fill="#F4E6C6"/>
<path d="M45.7188 12.3151C44.8853 11.9739 44.2248 11.445 43.8398 10.8738V14.0678H46.5888V12.5801C46.3026 12.5218 46.0102 12.4344 45.7188 12.3151Z" fill="#EADBB7"/>
<path d="M43.2252 9.74792H40.4762V14.0677H43.2252V9.74792Z" fill="#F4E6C6"/>
<path d="M40.9025 11.1532C40.7517 11.0387 40.6098 10.9192 40.4762 10.7961V14.0678H43.2252V12.1578C42.5064 12.0794 41.6722 11.7381 40.9025 11.1532Z" fill="#EADBB7"/>
<path d="M44.1219 13.1629C44.1834 13.1629 44.2333 13.1132 44.2333 13.0518C44.2333 12.9905 44.1834 12.9408 44.1219 12.9408C44.0605 12.9408 44.0106 12.9905 44.0106 13.0518C44.0106 13.1132 44.0605 13.1629 44.1219 13.1629Z" fill="#3A302B"/>
<path d="M44.1219 11.9079C44.1834 11.9079 44.2333 11.8582 44.2333 11.7968C44.2333 11.7355 44.1834 11.6858 44.1219 11.6858C44.0605 11.6858 44.0106 11.7355 44.0106 11.7968C44.0106 11.8582 44.0605 11.9079 44.1219 11.9079Z" fill="#3A302B"/>
<path d="M44.1219 10.8493C44.1834 10.8493 44.2333 10.7996 44.2333 10.7383C44.2333 10.6769 44.1834 10.6272 44.1219 10.6272C44.0605 10.6272 44.0106 10.6769 44.0106 10.7383C44.0106 10.7996 44.0605 10.8493 44.1219 10.8493Z" fill="#3A302B"/>
<path d="M42.8328 13.1629C42.8942 13.1629 42.9441 13.1132 42.9441 13.0518C42.9441 12.9905 42.8942 12.9408 42.8328 12.9408C42.7713 12.9408 42.7214 12.9905 42.7214 13.0518C42.7214 13.1132 42.7713 13.1629 42.8328 13.1629Z" fill="#3A302B"/>
<path d="M42.8328 11.9079C42.8942 11.9079 42.9441 11.8582 42.9441 11.7968C42.9441 11.7355 42.8942 11.6858 42.8328 11.6858C42.7713 11.6858 42.7214 11.7355 42.7214 11.7968C42.7214 11.8582 42.7713 11.9079 42.8328 11.9079Z" fill="#3A302B"/>
<path d="M42.8328 10.8493C42.8942 10.8493 42.9441 10.7996 42.9441 10.7383C42.9441 10.6769 42.8942 10.6272 42.8328 10.6272C42.7713 10.6272 42.7214 10.6769 42.7214 10.7383C42.7214 10.7996 42.7713 10.8493 42.8328 10.8493Z" fill="#3A302B"/>
<path d="M55.0567 18.7073L55.3842 17.9904C55.4039 17.9471 55.4057 17.8975 55.389 17.8529C55.3725 17.8082 55.3386 17.772 55.2952 17.7522L55.2259 17.7207C55.1617 17.6914 55.086 17.7196 55.0567 17.7838L54.7073 18.548L55.0567 18.7073Z" fill="#82A1AD"/>
<path opacity="0.4" d="M55.104 21.1818C55.1699 20.2979 54.5067 19.5279 53.6228 19.4619C52.7386 19.3961 51.9688 20.0591 51.9028 20.9431C51.837 21.827 52.4999 22.597 53.384 22.663C54.2679 22.7288 55.0379 22.0657 55.104 21.1818Z" fill="#844634"/>
<path d="M55.7454 19.9282C55.8112 19.0443 55.1484 18.2742 54.2642 18.2084C53.3803 18.1424 52.6104 18.8056 52.5445 19.6895C52.4783 20.5734 53.1415 21.3435 54.0254 21.4093C54.9096 21.4753 55.6796 20.8123 55.7454 19.9282Z" fill="#82A1AD"/>
<path d="M54.2424 20.0332C53.5866 19.9843 53.0328 19.6071 52.7194 19.0713C52.6228 19.258 52.5612 19.4667 52.5447 19.6897C52.4786 20.5736 53.1418 21.3437 54.0257 21.4095C54.9098 21.4755 55.6797 20.8123 55.7457 19.9284C55.7569 19.7801 55.7457 19.6354 55.7179 19.4961C55.3335 19.8644 54.8079 20.0753 54.2424 20.0332Z" fill="#5F7F89"/>
<path d="M55.4618 19.9072C55.5159 19.18 54.9704 18.5465 54.2431 18.4922C53.5159 18.438 52.8823 18.9836 52.8282 19.7108C52.7741 20.438 53.3196 21.0715 54.0469 21.1258C54.7741 21.18 55.4075 20.6343 55.4618 19.9072Z" fill="#5E3529"/>
<path d="M55.331 20.1351C55.3974 19.5714 54.912 19.0509 54.2471 18.9729C53.5821 18.8949 52.9893 19.2888 52.9231 19.8527C52.857 20.4165 53.3422 20.9371 54.0074 21.0151C54.6721 21.0931 55.2649 20.6991 55.331 20.1351Z" fill="#A86F52"/>
<path d="M54.4606 20.8395C54.4688 20.7899 54.2191 20.7867 53.9433 20.7398C53.6674 20.6928 53.4706 20.6197 53.4621 20.6693C53.4535 20.719 53.6371 20.8723 53.9127 20.9194C54.1882 20.9662 54.4521 20.8891 54.4606 20.8395Z" fill="#D38E71"/>
<path d="M54.5425 20.5892C54.5467 20.561 54.4009 20.559 54.2394 20.5319C54.0782 20.5049 53.9625 20.4634 53.958 20.4914C53.9535 20.5195 54.0621 20.6067 54.2232 20.6336C54.3845 20.6607 54.538 20.6173 54.5425 20.5892Z" fill="#D38E71"/>
<path d="M24.603 8.95678C25.4894 8.95678 26.208 8.23821 26.208 7.35181C26.208 6.4654 25.4894 5.74683 24.603 5.74683C23.7166 5.74683 22.998 6.4654 22.998 7.35181C22.998 8.23821 23.7166 8.95678 24.603 8.95678Z" fill="#E8D5C8"/>
<path d="M25.5841 7.74965C24.7527 7.74965 24.0785 7.07556 24.0785 6.24397C24.0785 6.13702 24.0901 6.0328 24.1112 5.93213C23.5209 6.13579 23.0961 6.69501 23.0961 7.35448C23.0961 8.18607 23.7702 8.86016 24.6017 8.86016C25.3264 8.86016 25.9309 8.34807 26.0746 7.66633C25.9207 7.71946 25.7561 7.74965 25.5841 7.74965Z" fill="#D3B9A7"/>
<path d="M24.6028 8.69493C25.3446 8.69493 25.9459 8.09359 25.9459 7.3518C25.9459 6.61001 25.3446 6.00867 24.6028 6.00867C23.861 6.00867 23.2596 6.61001 23.2596 7.3518C23.2596 8.09359 23.861 8.69493 24.6028 8.69493Z" fill="#511F1C"/>
<path d="M24.6027 8.60393C25.2943 8.60393 25.8549 8.04332 25.8549 7.35177C25.8549 6.66022 25.2943 6.09961 24.6027 6.09961C23.9112 6.09961 23.3506 6.66022 23.3506 7.35177C23.3506 8.04332 23.9112 8.60393 24.6027 8.60393Z" fill="#662F28"/>
<path d="M24.6027 6.00867C24.0599 6.00867 23.5936 6.3313 23.3817 6.79463C23.6232 6.56215 23.9509 6.41845 24.3125 6.41845C25.0543 6.41845 25.6556 7.01987 25.6556 7.76158C25.6556 7.9606 25.6112 8.14896 25.5335 8.31888C25.7873 8.07452 25.9459 7.73194 25.9459 7.3518C25.946 6.61009 25.3446 6.00867 24.6027 6.00867Z" fill="#511F1C"/>
<path d="M23.4502 8.41174C23.4502 8.41174 22.6798 9.24387 22.9746 9.54493C23.2692 9.84598 23.8916 8.73124 23.8916 8.73124L23.4502 8.41174Z" fill="#E8D5C8"/>
</svg>
