<svg width="42" height="56" viewBox="0 0 42 56" fill="none" xmlns="http://www.w3.org/2000/svg">
<path d="M21.6501 3.46862C19.537 3.54219 17.8279 3.38989 16.6569 2.93677L0.292908 13.1563C1.70349 13.8802 3.94706 14.2676 7.07447 14.2976L21.6501 3.46862Z" fill="#FFE6A6"/>
<path d="M7.0752 50.0075L21.6508 27.7137V3.47119L7.0752 14.3002V50.0075Z" fill="#D8531E"/>
<path d="M7.07394 50.3041C7.04575 50.3041 7.01726 50.2999 6.98935 50.2914C6.86574 50.2535 6.78125 50.1378 6.78125 50.0066V14.2992C6.78125 14.2043 6.82584 14.1151 6.90116 14.0591L21.4769 3.23005C21.5659 3.16401 21.6838 3.1542 21.7821 3.20496C21.8803 3.25563 21.9423 3.35815 21.9423 3.47019V27.7127C21.9423 27.7713 21.9253 27.8285 21.8934 27.8773L7.31775 50.1712C7.26243 50.2557 7.17014 50.3041 7.07394 50.3041ZM7.36663 14.4502V49.0213L21.3569 27.6229V4.05608L7.36663 14.4502Z" fill="#D8531E"/>
<path d="M31.976 5.52688C29.2894 5.5719 27.1242 5.3263 25.4543 4.80457L11.3242 17.4781C13.6328 18.5502 16.8726 19.061 20.7625 19.1801L31.976 5.52688Z" fill="#D5E0E8"/>
<path d="M11.3239 17.4753C13.3853 18.4151 16.2299 19.029 20.3659 19.106V49.4537C16.7776 48.7196 13.6045 47.814 11.3239 46.539V17.4753Z" fill="#344B6B"/>
<path d="M20.3659 49.7522C20.3467 49.7522 20.3273 49.7503 20.3081 49.7463C16.1588 48.8975 13.2592 47.9615 11.1828 46.8006C11.0892 46.7484 11.0312 46.6484 11.0312 46.5401V17.4764C11.0312 17.3755 11.0815 17.2816 11.1649 17.2268C11.2482 17.1719 11.3531 17.1637 11.4437 17.205C13.6576 18.2143 16.5778 18.7391 20.3713 18.8096C20.5308 18.8126 20.6586 18.9448 20.6586 19.107V49.4547C20.6586 49.5439 20.6192 49.6283 20.5513 49.6848C20.4986 49.7289 20.4329 49.7522 20.3659 49.7522ZM11.6166 46.363C13.5699 47.4233 16.2703 48.2943 20.0732 49.0906V19.3982C16.564 19.3108 13.7892 18.8284 11.6166 17.9273V46.363Z" fill="#344B6B"/>
<path d="M3.73435 13.7855C3.71874 13.7855 3.70342 13.7778 3.69405 13.7638C3.67883 13.7412 3.68459 13.7103 3.70693 13.695L18.6548 3.34702C18.677 3.33156 18.7075 3.3374 18.7226 3.36011C18.7378 3.38272 18.732 3.41355 18.7097 3.42892L3.76186 13.7769C3.75337 13.7826 3.74381 13.7855 3.73435 13.7855Z" fill="#E2C37F"/>
<path d="M8.47915 11.7112C8.46393 11.7112 8.44891 11.7039 8.43935 11.6904C8.42374 11.668 8.42881 11.6371 8.45076 11.6212L19.757 3.42985C19.779 3.41399 19.8094 3.41915 19.825 3.44145C19.8407 3.46376 19.8356 3.4947 19.8136 3.51056L8.50745 11.702C8.49886 11.7082 8.48901 11.7112 8.47915 11.7112Z" fill="#E2C37F"/>
<path d="M6.35016 11.1806C6.33425 11.1806 6.31864 11.1726 6.30928 11.1581C6.29454 11.1351 6.30089 11.1044 6.32342 11.0895L18.1016 3.27177C18.1242 3.2568 18.1545 3.26315 18.1691 3.28615C18.1839 3.30905 18.1775 3.33979 18.155 3.35476L6.37669 11.1726C6.3685 11.178 6.35923 11.1806 6.35016 11.1806Z" fill="#E2C37F"/>
<path d="M14.7262 7.76024C14.7111 7.76024 14.6962 7.7531 14.6867 7.73972C14.6709 7.7175 14.6758 7.68657 14.6976 7.67051L20.441 3.44537C20.4628 3.42931 20.4933 3.43416 20.5091 3.45647C20.5249 3.47868 20.52 3.50962 20.4982 3.52568L14.7548 7.75082C14.7461 7.75717 14.7361 7.76024 14.7262 7.76024Z" fill="#E2C37F"/>
<path d="M2.8168 12.527C2.80051 12.527 2.7847 12.5188 2.77544 12.5038C2.76119 12.4806 2.76802 12.4501 2.79085 12.4355L17.3905 3.13034C17.4133 3.11567 17.4434 3.12271 17.4577 3.14601C17.4721 3.16921 17.4651 3.19985 17.4423 3.21432L2.84266 12.5195C2.83466 12.5245 2.82568 12.527 2.8168 12.527Z" fill="#E2C37F"/>
<path d="M20.3676 13.2061C20.3554 13.2061 20.3431 13.2015 20.3336 13.1921C20.3143 13.1729 20.3139 13.1415 20.3327 13.122L27.8591 5.28692C27.878 5.26729 27.9088 5.26699 27.9281 5.28603C27.9474 5.30517 27.9478 5.3366 27.9289 5.35613L20.4026 13.1911C20.393 13.2012 20.3803 13.2061 20.3676 13.2061Z" fill="#AAAFB2"/>
<path d="M14.2533 18.0559C14.2407 18.0559 14.2281 18.0509 14.2185 18.0411C14.1996 18.0217 14.1998 17.9902 14.219 17.971L26.9947 5.15232C27.0138 5.13308 27.0447 5.13338 27.0637 5.15281C27.0826 5.17224 27.0824 5.20368 27.0632 5.22291L14.2875 18.0416C14.278 18.0511 14.2657 18.0559 14.2533 18.0559Z" fill="#AAAFB2"/>
<path d="M28.0425 7.86602C28.0313 7.86602 28.0201 7.86215 28.0109 7.85422C27.9903 7.83647 27.9879 7.80514 28.0054 7.78432L29.9428 5.46874C29.9602 5.44782 29.9912 5.44544 30.0116 5.46309C30.0321 5.48084 30.0346 5.51217 30.0171 5.53299L28.0797 7.84857C28.07 7.86008 28.0563 7.86602 28.0425 7.86602Z" fill="#AAAFB2"/>
<path d="M7.07421 14.5954C7.07334 14.5954 7.07236 14.5954 7.07148 14.5954C3.94417 14.5654 1.61903 14.1705 0.160746 13.4221C0.0661093 13.3736 0.00464224 13.2767 0.000251866 13.169C-0.00413851 13.0613 0.0491315 12.9596 0.139476 12.9032L16.5035 2.68365C16.6412 2.59778 16.8215 2.64141 16.9061 2.78131C16.9907 2.92131 16.9477 3.10444 16.81 3.19051L0.917839 13.1153C2.29476 13.6703 4.32955 13.9674 6.98006 13.9995L21.4772 3.22878C21.6076 3.13191 21.7908 3.16076 21.8862 3.29333C21.9816 3.42589 21.9531 3.612 21.8226 3.70897L7.247 14.5381C7.19675 14.5754 7.13626 14.5954 7.07421 14.5954Z" fill="#FB6A1D"/>
<path d="M0.292786 13.1582C2.03069 13.9876 4.38012 14.2917 7.07435 14.2995V50.0068C4.18831 49.6413 1.80395 48.9408 0.292786 47.6571V13.1582Z" fill="#FB6A1D"/>
<path d="M7.07425 50.3043C7.06225 50.3043 7.05016 50.3035 7.03806 50.302C3.80509 49.8926 1.53721 49.1021 0.104978 47.8853C0.038439 47.8288 0 47.7452 0 47.657V13.1581C0 13.0564 0.0512208 12.9616 0.135809 12.9071C0.220299 12.8525 0.326449 12.8457 0.417183 12.8889C1.96884 13.6294 4.14666 13.9936 7.07513 14.0021C7.23641 14.0026 7.36695 14.1356 7.36695 14.2995V50.0068C7.36695 50.0921 7.33094 50.1733 7.26801 50.2298C7.21426 50.278 7.14518 50.3043 7.07425 50.3043ZM0.585383 47.5158C1.8864 48.5683 3.91738 49.2739 6.78156 49.6681V14.5949C4.15661 14.5656 2.12084 14.243 0.585383 13.6121V47.5158Z" fill="#FB6A1D"/>
<path d="M8.15544 48.0528C8.07456 48.0528 8.00909 47.9862 8.00909 47.904V13.7369C8.00909 13.6547 8.07456 13.5881 8.15544 13.5881C8.23632 13.5881 8.30179 13.6547 8.30179 13.7369V47.904C8.30179 47.9862 8.23632 48.0528 8.15544 48.0528Z" fill="#FB6A1D"/>
<path d="M20.7622 19.4749C20.7592 19.4749 20.7563 19.4749 20.7534 19.4748C16.5546 19.3463 13.4303 18.7808 11.2023 17.746C11.1121 17.7042 11.049 17.6188 11.0344 17.5191C11.0198 17.4194 11.0559 17.3191 11.1302 17.2525L25.2602 4.57894C25.3814 4.47027 25.5663 4.48197 25.6734 4.60511C25.7803 4.72836 25.7688 4.91625 25.6477 5.02502L11.8631 17.3885C13.9631 18.2625 16.839 18.7499 20.6288 18.8757L31.751 5.33368C31.8546 5.20746 32.0393 5.1907 32.1633 5.2959C32.2874 5.4012 32.3039 5.5888 32.2004 5.71492L20.9868 19.3681C20.9311 19.4359 20.8488 19.4749 20.7622 19.4749Z" fill="#45688C"/>
<path d="M29.9045 37.4794L22.897 55.1522V16.5784L29.9045 8.04614V37.4794Z" fill="#D8531E"/>
<path d="M22.8969 55.4485C22.8784 55.4485 22.8597 55.4467 22.841 55.443C22.7034 55.416 22.604 55.2934 22.604 55.151V16.5772C22.604 16.5075 22.6281 16.4401 22.672 16.3866L29.6796 7.85434C29.7586 7.75816 29.8882 7.72257 30.0041 7.7653C30.1199 7.80794 30.1971 7.91978 30.1971 8.04491V37.4782C30.1971 37.5163 30.1899 37.554 30.1759 37.5893L23.1683 55.2622C23.1229 55.3763 23.0144 55.4485 22.8969 55.4485ZM23.1895 16.6851V53.617L29.6117 37.4204V8.86548L23.1895 16.6851Z" fill="#D8531E"/>
<path d="M19.4615 16.0085C20.2976 16.4362 21.4769 16.601 22.8975 16.5807L29.9051 8.04843L27.1881 7.71399L19.4615 16.0085Z" fill="#FFE6A6"/>
<path d="M19.4609 16.0076C20.1914 16.402 21.3367 16.5928 22.8969 16.5798V55.1535C21.5903 54.9744 20.3569 54.697 19.4609 53.9684V16.0076Z" fill="#FB6A1D"/>
<path d="M22.8977 55.4498C22.8847 55.4498 22.8716 55.4489 22.8586 55.4472C21.5807 55.2719 20.2626 54.9994 19.2789 54.1994C19.2095 54.143 19.1691 54.0576 19.1691 53.9672V16.0064C19.1691 15.902 19.223 15.8053 19.3111 15.7515C19.3991 15.6977 19.5085 15.6948 19.5992 15.7438C20.2828 16.1129 21.3912 16.2949 22.8955 16.2813C22.9735 16.28 23.0486 16.3117 23.104 16.3675C23.1594 16.4234 23.1905 16.4994 23.1905 16.5787V55.1525C23.1905 55.2383 23.154 55.32 23.0904 55.3765C23.0367 55.4241 22.9681 55.4498 22.8977 55.4498ZM19.7544 53.8206C20.5348 54.4028 21.5682 54.6513 22.605 54.8097V16.8762C21.3981 16.8665 20.4581 16.7308 19.7544 16.4641V53.8206Z" fill="#FB6A1D"/>
<path d="M27.1874 7.71265L19.4609 16.0072C20.297 16.4349 21.4763 16.5997 22.8969 16.5794L29.9045 8.04708L27.1874 7.71265Z" fill="#FFE6A6"/>
<path d="M22.6666 16.8772C21.2186 16.8772 20.1256 16.6785 19.3302 16.2716C19.2475 16.2293 19.1895 16.1497 19.1735 16.0571C19.1576 15.9644 19.1857 15.8696 19.2492 15.8013L26.9758 7.50681C27.0869 7.38763 27.2722 7.38247 27.3895 7.49531C27.5069 7.60824 27.512 7.79653 27.4009 7.91581L19.962 15.9014C20.6582 16.1607 21.595 16.2898 22.7595 16.2819L29.6805 7.85513C29.7841 7.72891 29.9687 7.71225 30.0927 7.81735C30.2168 7.92255 30.2334 8.11024 30.1299 8.23636L23.1223 16.7686C23.0677 16.8352 22.9871 16.8742 22.9017 16.8754C22.8225 16.8767 22.7439 16.8772 22.6666 16.8772Z" fill="#FB6A1D"/>
<path d="M23.7767 51.9085C23.6958 51.9085 23.6304 51.842 23.6304 51.7598V15.5101C23.6304 15.4279 23.6958 15.3613 23.7767 15.3613C23.8576 15.3613 23.9231 15.4279 23.9231 15.5101V51.7598C23.9231 51.8419 23.8575 51.9085 23.7767 51.9085Z" fill="#FB6A1D"/>
<path d="M25.4277 12.3705C27.9917 13.1572 31.1263 13.6128 34.8314 13.7374L41.7034 0.815178C39.113 0.987701 37.1131 0.813393 35.6942 0.297607L25.4277 12.3705Z" fill="#D5E0E8"/>
<path d="M31.5231 11.1823C31.5137 11.1823 31.5043 11.1796 31.496 11.1739C31.4736 11.1586 31.4677 11.1279 31.4827 11.1051L38.2979 0.793024C38.313 0.770219 38.3433 0.764073 38.3657 0.77954C38.388 0.79481 38.3939 0.825547 38.3789 0.848351L31.5636 11.1604C31.5542 11.1747 31.5388 11.1823 31.5231 11.1823Z" fill="#AAAFB2"/>
<path d="M32.4167 13.4352C32.4084 13.4352 32.3998 13.433 32.3921 13.4284C32.3688 13.4145 32.3611 13.3841 32.3748 13.3605L39.6261 0.853005C39.6398 0.829308 39.6696 0.821673 39.693 0.835455C39.7162 0.849336 39.7239 0.879775 39.7102 0.903374L32.4589 13.4109C32.4497 13.4265 32.4335 13.4352 32.4167 13.4352Z" fill="#AAAFB2"/>
<path d="M32.2333 8.09758C32.2235 8.09758 32.2137 8.09461 32.2051 8.08846C32.1831 8.0726 32.178 8.04166 32.1936 8.01935L37.3216 0.680167C37.3372 0.657858 37.3677 0.652603 37.3896 0.668467C37.4116 0.684332 37.4168 0.715268 37.4012 0.737577L32.2731 8.07676C32.2635 8.09034 32.2485 8.09758 32.2333 8.09758Z" fill="#AAAFB2"/>
<path d="M26.4014 12.5616C26.3905 12.5616 26.3794 12.5578 26.3703 12.5502C26.3496 12.5326 26.3467 12.5014 26.3639 12.4804L36.2076 0.440802C36.2248 0.419683 36.2556 0.416808 36.2762 0.434259C36.2969 0.451808 36.2999 0.483041 36.2826 0.504061L26.439 12.5437C26.4293 12.5555 26.4154 12.5616 26.4014 12.5616Z" fill="#AAAFB2"/>
<path d="M41.7047 0.814941L34.8328 13.7371V55.704L41.7047 26.4301V0.814941Z" fill="#526815"/>
<path d="M34.8351 56.0002C34.8237 56.0002 34.8123 55.9995 34.8007 55.9982C34.6533 55.9805 34.5422 55.8536 34.5422 55.7028V13.736C34.5422 13.6866 34.5543 13.638 34.5775 13.5946L41.4494 0.672379C41.5131 0.552604 41.6486 0.49212 41.7786 0.525435C41.9086 0.55875 41.9995 0.677633 41.9995 0.813768V26.4289C41.9995 26.4521 41.9969 26.4753 41.9915 26.4979L35.1195 55.7718C35.0879 55.9069 34.969 56.0002 34.8351 56.0002ZM35.1276 13.8112V53.1741L41.4142 26.394V1.9898L35.1276 13.8112Z" fill="#526815"/>
<path d="M35.5599 49.6724C35.479 49.6724 35.4136 49.6058 35.4136 49.5236V12.371C35.4136 12.2888 35.479 12.2223 35.5599 12.2223C35.6408 12.2223 35.7063 12.2888 35.7063 12.371V49.5237C35.7063 49.6058 35.6407 49.6724 35.5599 49.6724Z" fill="#767F1C"/>
<path d="M34.8343 14.0346C34.8311 14.0346 34.8279 14.0345 34.8246 14.0345C31.1113 13.9096 27.9222 13.4455 25.3458 12.655C25.2509 12.6258 25.177 12.5499 25.1493 12.4531C25.1217 12.3563 25.1442 12.2519 25.209 12.1758L35.4755 0.103006C35.5812 -0.0213301 35.766 -0.035012 35.8883 0.0723689C36.0106 0.17975 36.0241 0.367642 35.9184 0.491879L25.9502 12.2141C28.357 12.8994 31.2842 13.3092 34.6631 13.4334L41.4487 0.673524C41.5257 0.529061 41.7033 0.475319 41.8453 0.553252C41.9876 0.631384 42.0405 0.811839 41.9637 0.956303L35.0917 13.8785C35.0406 13.9749 34.9416 14.0346 34.8343 14.0346Z" fill="#767F1C"/>
<path d="M25.4282 12.3704C28.0341 13.1489 31.1307 13.6277 34.8319 13.7373V55.7041C30.934 55.0916 27.8575 54.0275 25.4282 52.6074V12.3704Z" fill="#767F1C"/>
<path d="M34.8341 56.0004C34.8193 56.0004 34.8043 55.9992 34.7895 55.9969C31.0273 55.4058 27.8293 54.3517 25.2845 52.8642C25.1937 52.8111 25.1378 52.7127 25.1378 52.6063V12.3692C25.1378 12.2755 25.1813 12.1872 25.2551 12.1311C25.329 12.0749 25.4244 12.0575 25.5131 12.0838C28.1726 12.8784 31.3116 13.3343 34.8428 13.4388C35.0011 13.4434 35.127 13.5751 35.127 13.7361V55.703C35.127 55.7897 35.0897 55.8722 35.0249 55.9288C34.9712 55.9753 34.9035 56.0004 34.8341 56.0004ZM25.723 52.4333C28.1045 53.7957 31.0689 54.7776 34.5414 55.3544V14.0243C31.2387 13.9083 28.2754 13.4846 25.723 12.7637V52.4333Z" fill="#767F1C"/>
<path d="M34.1142 52.9405C34.1092 52.9405 34.1042 52.9401 34.0993 52.9393C30.8528 52.4292 28.0953 51.5208 25.9033 50.2394C25.8731 50.2218 25.8544 50.189 25.8544 50.1535V27.1625C25.8544 27.1298 25.8701 27.0994 25.8965 27.0809C25.9228 27.0622 25.9564 27.0582 25.9864 27.0697C28.1602 27.904 30.898 28.4958 34.124 28.8286C34.1738 28.8338 34.2117 28.8764 34.2117 28.9273V52.8414C34.2117 52.8703 34.1993 52.8978 34.1777 52.9166C34.1599 52.9322 34.1374 52.9405 34.1142 52.9405ZM26.0496 50.0961C28.1873 51.3355 30.867 52.2198 34.0166 52.7255V29.0168C30.8766 28.6874 28.1974 28.1117 26.0496 27.3052V50.0961Z" fill="#526815"/>
<path d="M34.1146 25.8235C34.1118 25.8235 34.109 25.8234 34.1061 25.8231C30.8645 25.5354 28.111 25.0229 25.9223 24.2999C25.8821 24.2867 25.8549 24.2486 25.8549 24.2057V15.2303C25.8549 15.199 25.8693 15.1696 25.894 15.1509C25.9186 15.1321 25.9505 15.1264 25.9799 15.1351C28.3013 15.8287 31.0391 16.2264 34.1174 16.3176C34.1702 16.3192 34.2122 16.363 34.2122 16.4167V25.7244C34.2122 25.7521 34.2007 25.7787 34.1806 25.7974C34.1625 25.8142 34.1389 25.8235 34.1146 25.8235ZM26.05 24.1335C28.1898 24.8322 30.8693 25.3308 34.017 25.616V16.5129C31.0153 16.4177 28.3364 16.0308 26.05 15.3623V24.1335Z" fill="#526815"/>
<path d="M3.67958 34.2148C3.61548 34.2148 3.5504 34.2085 3.48445 34.1952C2.95965 34.0903 2.63321 33.597 2.45183 33.2016C1.91484 32.031 1.86899 30.5642 2.31144 28.7172C2.60852 27.4771 3.04863 26.2683 3.61528 25.1244C3.48055 24.7647 3.34122 24.4074 3.2019 24.054C2.60413 25.1745 1.86216 26.2154 0.994425 27.1431C0.938716 27.2027 0.846127 27.205 0.787492 27.1485C0.728953 27.0918 0.726613 26.9978 0.782225 26.9382C1.68859 25.9693 2.45486 24.8743 3.05907 23.6931C3.05331 23.6786 3.04756 23.664 3.0418 23.6494C2.60062 22.5354 2.14441 21.3834 1.80859 20.2078C1.59883 19.4736 1.39727 18.604 1.49317 17.7223C1.52888 17.3943 1.68069 16.6045 2.31866 16.3527C2.64101 16.2255 3.04317 16.2722 3.4222 16.4809C4.07198 16.8384 4.54165 17.5734 4.67853 18.4469C4.80995 19.2852 4.63833 20.1311 4.47423 20.7744C4.21471 21.7913 3.8468 22.7754 3.38054 23.7081C3.51928 24.0587 3.65889 24.4133 3.79529 24.7711C4.29374 23.8207 4.88039 22.9188 5.54568 22.0852C5.59651 22.0212 5.68871 22.0115 5.75154 22.0634C5.81437 22.1151 5.82393 22.2087 5.773 22.2726C5.06596 23.1586 4.44906 24.1234 3.9347 25.1419C4.11217 25.6205 4.28106 26.1042 4.43111 26.591C4.77249 27.6991 5.02332 28.844 5.1764 29.9942C5.29104 30.8552 5.37163 31.8644 5.09952 32.8213C4.89786 33.5314 4.34633 34.2147 3.67958 34.2148ZM3.75616 25.5065C3.25732 26.5563 2.86628 27.6587 2.59584 28.7876C2.16968 30.5663 2.20939 31.969 2.71701 33.0759C2.8697 33.4088 3.13663 33.8226 3.54084 33.9034C4.12261 34.0201 4.63326 33.3902 4.81844 32.7387C5.07532 31.8349 4.99698 30.8643 4.88644 30.0341C4.73551 28.9005 4.48838 27.7719 4.15178 26.6799C4.0308 26.287 3.89705 25.8955 3.75616 25.5065ZM2.7054 16.5793C2.6053 16.5793 2.51047 16.5961 2.42461 16.6299C1.93601 16.8226 1.81386 17.4808 1.78411 17.7549C1.69396 18.5848 1.88801 19.4185 2.08978 20.1247C2.40159 21.2163 2.82102 22.2936 3.23439 23.3386C3.63714 22.4951 3.95851 21.6109 4.19101 20.6997C4.34799 20.0843 4.51248 19.2775 4.38955 18.4935C4.26691 17.7107 3.85314 17.056 3.28288 16.7422C3.08717 16.6346 2.88746 16.5793 2.7054 16.5793Z" fill="#D8531E"/>
<path d="M34.0946 49.972C34.0842 49.972 34.0734 49.9703 34.063 49.9666C30.6084 48.764 27.6238 46.2061 25.8743 42.9486C25.8484 42.9006 25.8659 42.8404 25.9132 42.8141C25.9606 42.7879 26.0198 42.8057 26.0456 42.8537C27.772 46.068 30.7172 48.5922 34.1263 49.7791C34.1773 49.7968 34.2045 49.8531 34.187 49.905C34.173 49.9462 34.1352 49.972 34.0946 49.972Z" fill="#526815"/>
<path d="M33.8815 48.8764C32.6562 48.8764 31.3596 48.1903 30.2931 46.9692C29.6956 46.2852 29.204 45.5038 28.7287 44.7482C28.4444 44.2965 28.1505 43.8293 27.8377 43.3892C27.2435 42.5534 26.5519 41.7733 25.8829 41.0188C25.8468 40.9782 25.8501 40.9155 25.8901 40.8788C25.9302 40.842 25.9918 40.8454 26.0279 40.8861C26.7003 41.6445 27.3955 42.4287 27.9959 43.2731C28.3119 43.7177 28.6073 44.1873 28.893 44.6414C29.3644 45.3905 29.8517 46.1651 30.439 46.8375C31.524 48.0797 32.8462 48.7487 34.0708 48.6722C34.124 48.6687 34.1708 48.7105 34.1741 48.7651C34.1774 48.8198 34.1364 48.8668 34.0827 48.8701C34.0158 48.8742 33.9487 48.8764 33.8815 48.8764Z" fill="#526815"/>
<path d="M34.1205 45.2448C34.0994 45.2448 34.0782 45.2379 34.0604 45.2236C32.994 44.3747 31.7309 43.7849 30.5093 43.2144C30.2816 43.1082 30.0542 43.002 29.8281 42.8942C28.3723 42.2005 26.8797 41.3835 25.8246 40.1126C25.7899 40.0707 25.7951 40.0082 25.8363 39.9729C25.8774 39.9375 25.939 39.9428 25.9737 39.9847C27.0046 41.2264 28.4753 42.0306 29.9108 42.7146C30.1365 42.8222 30.3635 42.9281 30.5906 43.0342C31.8224 43.6094 33.0962 44.2042 34.1806 45.0675C34.223 45.1012 34.2304 45.1636 34.1972 45.2067C34.1781 45.2318 34.1494 45.2448 34.1205 45.2448Z" fill="#526815"/>
<path d="M34.0765 20.7315C34.057 20.7315 34.0373 20.7256 34.0201 20.7133C31.5207 18.9118 28.7951 17.4542 25.9188 16.3812C25.8682 16.3624 25.8423 16.3054 25.8609 16.2539C25.8795 16.2025 25.9356 16.1763 25.9861 16.195C28.8786 17.2742 31.6197 18.7399 34.1331 20.5515C34.177 20.5833 34.1874 20.6451 34.1562 20.6899C34.1372 20.717 34.1071 20.7315 34.0765 20.7315Z" fill="#526815"/>
<path d="M34.0529 23.2835C34.0352 23.2835 34.0175 23.2787 34.0014 23.2685C32.7133 22.4528 31.5673 21.3917 30.459 20.3655C29.0661 19.0757 27.6257 17.7419 25.9105 16.9127C25.8618 16.8892 25.8412 16.8301 25.8643 16.7807C25.8875 16.7312 25.9457 16.71 25.9944 16.7338C27.7357 17.5756 29.1871 18.9194 30.5905 20.2189C31.6923 21.2392 32.8317 22.2941 34.1046 23.1003C34.1503 23.1292 34.1643 23.1904 34.1358 23.2368C34.1174 23.267 34.0855 23.2835 34.0529 23.2835Z" fill="#526815"/>
<path d="M34.1149 23.7348C34.0916 23.7348 34.0684 23.7265 34.0498 23.7095C32.9307 22.6895 31.4506 22.1774 30.0191 21.6822L29.9789 21.6684C28.3761 21.1137 26.9617 20.5681 25.8847 19.5049C25.846 19.4667 25.8452 19.4039 25.8826 19.3647C25.9201 19.3254 25.9819 19.3244 26.0206 19.3626C27.0684 20.3971 28.4616 20.9339 30.0418 21.4806L30.082 21.4946C31.532 21.9962 33.0312 22.5148 34.1799 23.5619C34.22 23.5984 34.2235 23.6611 34.1875 23.7019C34.1682 23.7236 34.1416 23.7348 34.1149 23.7348Z" fill="#526815"/>
</svg>
