<svg width="100" height="56" viewBox="0 0 100 56" fill="none" xmlns="http://www.w3.org/2000/svg">
<path d="M25.823 52.4767C25.823 54.2115 25.5329 55.6178 25.1752 55.6178C24.8174 55.6178 24.5276 54.2115 24.5276 52.4767C24.5276 50.742 24.8176 49.3357 25.1752 49.3357C25.5331 49.3357 25.823 50.742 25.823 52.4767Z" fill="#FFA506"/>
<path d="M25.1752 53.1242C26.91 53.1242 28.3163 52.8343 28.3163 52.4767C28.3163 52.119 26.91 51.8291 25.1752 51.8291C23.4405 51.8291 22.0342 52.119 22.0342 52.4767C22.0342 52.8343 23.4405 53.1242 25.1752 53.1242Z" fill="#FFA506"/>
<path d="M77.889 46.8136C77.889 49.289 77.4753 51.2958 76.9648 51.2958C76.4543 51.2958 76.0406 49.289 76.0406 46.8136C76.0406 44.3381 76.4543 42.3311 76.9648 42.3311C77.475 42.3313 77.889 44.3381 77.889 46.8136Z" fill="#AC441C"/>
<path d="M76.9647 45.8895C79.4402 45.8895 81.4469 46.3032 81.4469 46.8137C81.4469 47.3241 79.4402 47.7378 76.9647 47.7378C74.4892 47.7378 72.4822 47.3241 72.4822 46.8137C72.4824 46.3032 74.4892 45.8895 76.9647 45.8895Z" fill="#AC441C"/>
<path d="M40.4707 49.9325C41.6832 49.9325 42.6662 48.9496 42.6662 47.737C42.6662 46.5245 41.6832 45.5415 40.4707 45.5415C39.2581 45.5415 38.2751 46.5245 38.2751 47.737C38.2751 48.9496 39.2581 49.9325 40.4707 49.9325Z" fill="#75240E"/>
<path d="M54.832 54.4011C54.832 55.2842 54.1162 56 53.2331 56C52.35 56 51.6343 55.284 51.6343 54.4011C51.6343 53.518 52.3503 52.8022 53.2331 52.8022C54.116 52.8022 54.832 53.518 54.832 54.4011Z" fill="#FFA506"/>
<path d="M61.9761 27.9089C61.9761 27.9089 68.2032 25.5437 76.7612 30.2812C85.3192 35.0187 91.1125 35.9183 92.2974 28.9512C92.9558 24.7489 88.0843 21.4413 86.1092 21.1202C87.9525 19.0875 92.3579 19.6143 92.3579 19.6143L92.8239 13.9529C92.8239 13.9529 105.2 23.2524 96.2471 34.0071C88.479 41.7337 81.7643 38.1268 74.2593 35.1903C66.7546 32.2539 62.4097 35.1903 62.4097 35.1903L61.9761 27.9089Z" fill="#AC441C"/>
<path d="M84.9454 33.7377L84.9459 33.7387C84.9459 33.7387 92.2508 36.399 97.6016 32.1396C103.795 22.1978 92.8245 13.9524 92.8245 13.9524L92.3584 19.6138C92.3584 19.6138 87.9527 19.0873 86.1097 21.1197C88.0846 21.4408 92.956 24.7484 92.2979 28.9507C91.5457 33.3718 88.9367 34.622 84.9454 33.7377Z" fill="#75240E"/>
<path d="M77.2708 36.3895C78.4857 34.885 79.3794 33.193 79.9544 31.9217C78.939 31.4446 77.8749 30.8972 76.7613 30.2808C70.1927 26.6447 65.0012 27.1926 62.9406 27.6437L62.3644 34.4233L62.41 35.1895C62.41 35.1895 66.7549 32.253 74.2596 35.1895C75.2765 35.5876 76.2784 35.997 77.2708 36.3895Z" fill="#5B1A0B"/>
<path d="M19.9437 16.8336C19.9437 16.8336 2.35291 26.6707 10.5698 33.4985C14.6203 36.0446 22.4897 41.021 14.736 47.7331C10.2226 51.7837 4.20483 52.4781 4.20483 52.4781L6.40371 47.2702L0.501465 43.7983C0.501465 43.7983 6.98236 43.7983 10.6855 38.359C3.62594 37.7803 -4.3592 20.7682 19.2493 10.9312C20.8695 13.1305 19.9437 16.8336 19.9437 16.8336Z" fill="#75240E"/>
<path d="M19.2494 10.9315C16.7423 11.9762 14.5948 13.1023 12.7614 14.2805C12.9126 16.1744 13.2788 18.4881 14.0814 20.8951C16.9987 18.4814 19.9438 16.8338 19.9438 16.8338C19.9438 16.8338 20.8694 13.1304 19.2494 10.9315Z" fill="#5B1A0B"/>
<path d="M11.9226 34.3628C11.9226 34.3628 10.1713 36.7221 8.25793 37.5379C9.04644 38.0052 9.87192 38.2923 10.6854 38.3591C10.081 39.2467 9.40203 39.9872 8.68988 40.6089C10.2388 42.2192 12.3056 43.9141 12.3056 43.9141L15.3828 37.0267C14.3126 36.0027 13.0629 35.1112 11.9226 34.3628Z" fill="#5B1A0B"/>
<path d="M14.7363 47.7332C21.6912 41.7126 16.0768 37.0892 11.923 34.3628V34.3633C11.6558 37.5425 10.686 38.3593 10.686 38.3593C6.98261 43.7986 0.501953 43.7987 0.501953 43.7987L6.4042 47.2705L4.20532 52.4784C4.20484 52.4779 10.2228 51.7835 14.7363 47.7332Z" fill="#AC441C"/>
<path d="M64.8254 13.782C59.5616 12.4732 54.8884 10.3209 51.1527 7.68528C50.235 7.03796 48.9583 7.47639 48.6479 8.55566C46.3273 16.6239 41.6308 38.0647 54.0776 46.9363C55.4445 47.9104 57.131 48.3299 58.7949 48.1092C73.9472 46.0993 79.8384 24.9555 81.5664 16.7401C81.7976 15.6411 80.8749 14.656 79.7611 14.7981C75.2262 15.3773 70.0892 15.0908 64.8254 13.782Z" fill="#F0EBD6"/>
<path d="M76.8724 22.779C73.5875 24.342 68.4048 23.3771 67.296 20.3227C67.296 20.3227 67.0545 21.2488 66.9102 21.9938C66.7661 22.7391 68.8697 28.2668 74.8898 27.8305C76.5542 27.5575 78.0109 26.8989 78.8587 26.4511C79.8914 23.5221 80.6389 20.7738 81.1587 18.5687C80.4086 19.8307 78.9834 21.7746 76.8724 22.779Z" fill="#CEC9B3"/>
<path d="M62.4117 33.7432C61.2172 34.6006 59.7543 34.1792 59.7543 34.1792C59.7543 34.1792 58.2642 33.8666 57.6104 32.5494C56.9297 31.5719 55.3671 31.3566 55.3671 31.3566C55.3671 31.3566 56.2655 32.619 56.933 34.1127C57.6008 35.6064 59.3081 35.9733 59.3081 35.9733C59.3081 35.9733 60.9886 36.4487 62.278 35.4417C63.5673 34.4347 64.9525 33.7398 64.9525 33.7398C64.9525 33.7398 63.4708 33.1984 62.4117 33.7432Z" fill="#B5A3A2"/>
<path d="M58.5805 38.8996C61.1698 39.5433 63.4347 40.6866 65.1853 42.1105C64.5807 39.9344 62.2037 37.9055 59.0242 37.1151C55.8447 36.3247 52.7944 37.0042 51.2412 38.6436C53.4545 38.2052 55.9914 38.2558 58.5805 38.8996Z" fill="#3F1111"/>
<path d="M57.8993 41.6404C59.6389 42.0728 61.1179 43.0126 62.2212 44.2613C61.9638 42.2005 60.4725 40.4125 58.3365 39.8814C56.2006 39.3503 54.0454 40.2319 52.853 41.9321C54.4127 41.3455 56.1597 41.2079 57.8993 41.6404Z" fill="#B5A3A2"/>
<path d="M81.5665 16.74C81.7978 15.6411 80.875 14.6559 79.7612 14.7981C75.2261 15.3772 70.0891 15.0907 64.8253 13.7819C59.5615 12.4731 54.8886 10.3208 51.1525 7.68521C50.8918 7.50129 50.6022 7.40788 50.3141 7.38892C50.3141 7.38892 52.5303 9.87039 56.8262 11.8621C61.1221 13.8537 68.1493 16.0051 75.3099 16.2267C79.2637 16.3438 80.4616 20.7363 76.7889 31.6003C79.3732 25.9504 80.839 20.1992 81.5665 16.74Z" fill="#B5A3A2"/>
<path d="M63.9978 20.63C63.9978 20.63 62.7267 29.2618 61.0783 32.3728C60.3873 33.7596 58.6466 32.634 59.5818 30.7307C60.5167 28.8274 62.1276 24.2057 62.3559 22.1266C62.584 20.0478 64.1935 19.4038 63.9978 20.63Z" fill="#CEC9B3"/>
<path d="M76.2686 32.7028C70.4293 33.6015 66.469 29.9611 66.469 29.9611C68.0782 33.4755 72.3688 35.2011 74.5773 35.8792C75.1845 34.8409 75.7471 33.7766 76.2686 32.7028Z" fill="#B5A3A2"/>
<path d="M45.8538 25.1406C50.5925 28.6692 55.7963 27.3073 55.7963 27.3073C52.7287 29.6589 48.1295 29.1744 45.8605 28.7393C45.8101 27.5373 45.8116 26.3335 45.8538 25.1406Z" fill="#B5A3A2"/>
<path d="M68.2427 35.5971C68.2427 35.5971 70.7333 35.9278 69.7284 37.9293C70.7986 36.9254 70.8509 35.3222 68.2427 35.5971Z" fill="#CEC9B3"/>
<path d="M51.5897 31.4572C51.5897 31.4572 49.2343 30.583 49.1846 32.8219C48.7092 31.4337 49.4139 29.9926 51.5897 31.4572Z" fill="#CEC9B3"/>
<path d="M69.9923 26.1529C68.5106 25.069 67.4722 23.6054 66.9099 21.994C66.3557 24.0474 67.077 26.3202 68.8965 27.6511C70.716 28.9818 73.1005 28.9808 74.8895 27.8305C73.1835 27.7829 71.474 27.2367 69.9923 26.1529Z" fill="#3F1111"/>
<path d="M71.7017 23.0397C69.9235 22.5835 68.4159 21.6101 67.2953 20.3226C67.5433 22.4351 69.0569 24.2776 71.2404 24.8376C73.4239 25.3977 75.6377 24.5113 76.8716 22.7789C75.2701 23.3684 73.4799 23.4959 71.7017 23.0397Z" fill="#B5A3A2"/>
<path d="M49.9678 16.0897C52.1381 19.0089 57.1695 20.5835 59.5794 18.4041C59.5794 18.4041 59.3593 19.3355 59.1376 20.0613C58.916 20.7871 54.4688 24.6862 49.3539 21.4813C48.0112 20.4606 47.0323 19.1967 46.493 18.4039C46.9521 15.3322 47.5788 12.554 48.1524 10.3621C48.224 11.8286 48.5731 14.2138 49.9678 16.0897Z" fill="#CEC9B3"/>
<path d="M54.4667 22.2929C56.2833 22.0293 57.8865 21.2223 59.1379 20.0619C58.6658 22.1357 56.9642 23.8061 54.7334 24.13C52.5026 24.4539 50.3962 23.3362 49.3541 21.4819C50.8836 22.2384 52.6498 22.5566 54.4667 22.2929Z" fill="#3F1111"/>
<path d="M54.414 18.7413C56.1987 19.1711 57.9868 19.017 59.5796 18.4042C58.3714 20.1546 56.1711 21.0737 53.9794 20.5459C51.7878 20.0182 50.247 18.1984 49.968 16.0898C51.1073 17.3605 52.6293 18.3115 54.414 18.7413Z" fill="#B5A3A2"/>
<path opacity="0.44" d="M49.9524 8.84448C49.9524 8.84448 55.0534 13.6531 62.5915 15.2195C70.1295 16.7859 66.6538 18.6924 60.9811 16.7432C55.3084 14.7943 49.5903 10.3002 49.9524 8.84448Z" fill="white"/>
<path opacity="0.44" d="M60.8825 24.5699C60.8825 24.5699 59.5293 28.7747 58.281 30.0806C57.212 30.0458 56.7967 29.7115 55.6372 30.2698C56.3052 29.0505 57.6999 29.0124 57.6999 29.0124C57.6999 29.0124 60.3956 26.219 60.8825 24.5699Z" fill="white"/>
<g opacity="0.44">
<path d="M50.7604 41.7554C45.3869 33.0305 47.7971 19.6219 48.751 14.8563C49.3001 12.1128 48.6033 11.4074 47.913 11.3018C45.5696 20.7222 42.8562 38.9368 54.0784 46.9354C55.4453 47.9095 57.1318 48.329 58.7957 48.1083C59.3655 48.0327 59.9206 47.927 60.4647 47.7988C57.341 48.4668 54.3015 47.1551 50.7604 41.7554Z" fill="white"/>
<path d="M60.8883 47.6963C60.8737 47.7001 60.8593 47.704 60.8446 47.7078C60.8593 47.704 60.8739 47.7001 60.8883 47.6963Z" fill="white"/>
</g>
<path d="M64.1529 45.0856C72.9866 39.8931 77.1365 26.9169 78.5253 22.2594C79.3248 19.5784 80.2708 19.2813 80.9304 19.5111C78.5894 28.9321 72.4569 46.2967 58.7957 48.1088C57.1318 48.3294 55.445 47.9102 54.0784 46.9358C53.6101 46.6021 53.1693 46.2487 52.7487 45.8808C55.1956 47.9337 58.4953 48.1983 64.1529 45.0856Z" fill="#CEC9B3"/>
<path d="M52.4218 45.5919C52.4328 45.6022 52.4438 45.6123 52.4549 45.6224C52.4438 45.6123 52.433 45.602 52.4218 45.5919Z" fill="#CEC9B3"/>
<path d="M50.9608 7.56823C50.9468 7.56102 50.9327 7.5555 50.9187 7.54878C50.8647 7.52237 50.81 7.49883 50.7545 7.4789C50.7437 7.47506 50.7327 7.47195 50.7216 7.46835C50.6604 7.44794 50.5987 7.43113 50.5365 7.41816C50.5317 7.4172 50.5271 7.41648 50.5223 7.41552C49.7295 7.25873 48.8918 7.70821 48.6483 8.55482C48.492 9.09841 48.3246 9.70443 48.1527 10.3616C48.1525 10.3628 48.152 10.364 48.1518 10.365C47.9374 11.1844 47.7157 12.0855 47.498 13.0539C47.4972 13.0568 47.4968 13.0596 47.496 13.0625C47.4543 13.2484 47.4127 13.4366 47.3712 13.6273C47.3683 13.6412 47.3652 13.6546 47.3621 13.6686C47.3357 13.7903 47.3095 13.9137 47.2833 14.0374C47.2814 14.047 47.2792 14.0566 47.2773 14.0662C47.2764 14.0705 47.2754 14.0748 47.2744 14.0791C47.266 14.1192 47.2576 14.1588 47.249 14.1989C47.2223 14.3257 47.1962 14.4539 47.17 14.5826C47.1589 14.6369 47.1479 14.6909 47.1369 14.7454C47.1124 14.8672 47.0881 14.9896 47.0636 15.1128C47.0514 15.175 47.0391 15.2372 47.0271 15.2998C47.0036 15.4206 46.9803 15.5418 46.9573 15.6641C46.9448 15.7301 46.9325 15.7966 46.92 15.8631C46.8975 15.9844 46.8749 16.1061 46.8528 16.2285C46.8403 16.2972 46.8281 16.3664 46.8158 16.4355C46.7942 16.5575 46.7724 16.6795 46.751 16.8026C46.7388 16.8735 46.7268 16.945 46.7147 17.0163C46.6936 17.14 46.6727 17.2636 46.6521 17.3885C46.6415 17.4533 46.6312 17.5189 46.6206 17.5839C46.5784 17.8456 46.5371 18.1095 46.4972 18.3758C46.496 18.3835 46.4948 18.3912 46.4939 18.3988C46.4936 18.4003 46.4934 18.4017 46.4931 18.4032C46.4857 18.4534 46.4778 18.5028 46.4706 18.553C46.4545 18.663 46.4389 18.7739 46.4233 18.8846C46.4096 18.9799 46.3959 19.0752 46.3827 19.171C46.368 19.2769 46.3541 19.3838 46.3399 19.4904C46.3265 19.5917 46.3128 19.693 46.2998 19.7951C46.2864 19.8997 46.2734 20.0051 46.2605 20.1105C46.2475 20.2162 46.2345 20.3218 46.2221 20.4282C46.2098 20.5315 46.198 20.6349 46.1863 20.7387C46.1738 20.8484 46.1615 20.9581 46.1498 21.0683C46.1387 21.1709 46.1279 21.2736 46.1174 21.3766C46.1058 21.4883 46.0948 21.6002 46.084 21.7123C46.0739 21.8148 46.0641 21.9171 46.0547 22.0199C46.0439 22.137 46.0338 22.2547 46.0237 22.3723C46.0153 22.4701 46.0067 22.5675 45.9988 22.6655C45.9884 22.792 45.9791 22.9188 45.9697 23.0458C45.963 23.1366 45.9558 23.2273 45.9495 23.3183C45.9387 23.4744 45.9291 23.631 45.9195 23.7875C45.9157 23.8495 45.9114 23.9112 45.9078 23.9731C45.8953 24.1906 45.884 24.4087 45.8741 24.6274C45.8713 24.6929 45.8691 24.7587 45.8662 24.8243C45.8597 24.9803 45.8535 25.1364 45.8485 25.2927C45.8458 25.3753 45.8439 25.4582 45.8417 25.5407C45.8379 25.6798 45.8343 25.819 45.8316 25.9583C45.83 26.0488 45.829 26.1396 45.8276 26.2303C45.8256 26.3629 45.8242 26.4954 45.8235 26.6282C45.823 26.7206 45.823 26.8131 45.823 26.9055C45.823 26.9156 45.823 26.9257 45.823 26.9355V26.9358C45.8232 27.0577 45.8237 27.1795 45.8249 27.3014C45.8259 27.3941 45.8268 27.4866 45.8283 27.5792C45.8304 27.7132 45.8331 27.847 45.8364 27.9807C45.8386 28.0702 45.8408 28.1596 45.8434 28.2491C45.8477 28.3874 45.8528 28.5257 45.8583 28.6643C45.8593 28.689 45.86 28.7137 45.8609 28.7385C45.8636 28.7997 45.866 28.8607 45.8689 28.9219C45.8758 29.0696 45.884 29.2172 45.8924 29.3646C45.8967 29.44 45.9003 29.5154 45.9051 29.5908C45.9164 29.7707 45.9294 29.9503 45.9431 30.1299C45.9464 30.1728 45.9491 30.2161 45.9524 30.259C45.9704 30.484 45.9901 30.7085 46.0122 30.933C46.0158 30.9697 46.0201 31.0065 46.024 31.0432C46.0427 31.2283 46.0621 31.4135 46.0838 31.5981C46.0917 31.6675 46.101 31.7364 46.1094 31.8055C46.1279 31.9571 46.1469 32.1086 46.1673 32.2596C46.1784 32.3403 46.1901 32.4207 46.2016 32.5014C46.2216 32.6406 46.242 32.7799 46.2636 32.9187C46.277 33.0041 46.291 33.0894 46.3049 33.1744C46.327 33.3086 46.3495 33.4423 46.3733 33.5761C46.3887 33.6625 46.4043 33.749 46.4204 33.8351C46.4451 33.9682 46.471 34.1009 46.4975 34.2335C46.5145 34.3182 46.5315 34.4032 46.5491 34.4878C46.5772 34.6222 46.6067 34.7562 46.6367 34.8899C46.655 34.9716 46.673 35.0532 46.6919 35.1344C46.7248 35.2755 46.7594 35.416 46.7945 35.5562C46.8125 35.6285 46.8298 35.7008 46.8482 35.7728C46.8912 35.9389 46.9361 36.1041 46.9822 36.2688C46.9947 36.314 47.0065 36.3596 47.0194 36.4047C47.0799 36.6172 47.1429 36.8285 47.2086 37.0389C47.2156 37.061 47.223 37.0826 47.23 37.1046C47.2884 37.2895 47.3486 37.4737 47.4111 37.6567C47.4329 37.7205 47.4562 37.7837 47.4785 37.8473C47.528 37.9875 47.5777 38.1277 47.6295 38.2667C47.6576 38.3419 47.6869 38.4163 47.7157 38.491C47.7645 38.6178 47.8137 38.7441 47.8646 38.8697C47.8968 38.9489 47.9299 39.0274 47.9628 39.1059C47.9875 39.165 48.0135 39.2236 48.0387 39.2824C54.5273 29.969 53.5371 15.2969 52.6662 8.68831C52.1476 8.36177 51.6405 8.02803 51.1531 7.6842C51.0906 7.6405 51.0263 7.60232 50.9608 7.56823Z" fill="#CEC9B3"/>
<path d="M31.784 5.92399C26.2913 7.02919 20.9774 7.08538 16.3246 6.27646C15.1817 6.07766 14.1838 7.05152 14.3711 8.1961C15.7714 16.7539 20.8652 38.8464 36.4067 41.6263C38.1134 41.9317 39.8733 41.5775 41.3291 40.6359C54.5859 32.0613 50.739 9.71812 48.7202 1.2847C48.4501 0.156693 47.1533 -0.355454 46.1763 0.269777C42.199 2.81536 37.2766 4.81879 31.784 5.92399Z" fill="#F0EBD6"/>
<path d="M38.3545 25.6258C37.6183 26.9543 36.0663 27.2077 36.0663 27.2077C36.0663 27.2077 34.5371 27.5743 33.3445 26.6338C32.277 26.0223 30.7228 26.5121 30.7228 26.5121C30.7228 26.5121 32.1195 27.2934 33.4031 28.3928C34.6867 29.492 36.4428 29.0797 36.4428 29.0797C36.4428 29.0797 38.2217 28.7808 38.9802 27.2706C39.7387 25.7603 40.7246 24.4995 40.7246 24.4995C40.7246 24.4995 39.1024 24.6489 38.3545 25.6258Z" fill="#B5A3A2"/>
<path d="M36.8485 31.0952C33.5341 31.7619 30.2543 31.3542 27.3656 30.116C29.4677 33.4211 33.453 35.2655 37.5227 34.4465C41.5925 33.6275 44.5544 30.3854 45.2147 26.5245C43.0298 28.7837 40.1629 30.4282 36.8485 31.0952Z" fill="#3F1111"/>
<path d="M37.907 36.355C36.092 36.7202 34.2955 36.4969 32.7135 35.8186C33.8648 37.6288 36.0473 38.6386 38.2762 38.1904C40.5051 37.7419 42.1273 35.9663 42.4889 33.8519C41.2922 35.0892 39.7219 35.9898 37.907 36.355Z" fill="#B5A3A2"/>
<path d="M48.7202 1.2847C48.4501 0.156693 47.1533 -0.355454 46.1763 0.269777C42.1985 2.81536 37.2763 4.81855 31.7837 5.92375C26.2911 7.02895 20.9771 7.08513 16.3244 6.27622C15.9997 6.2198 15.6881 6.26062 15.4105 6.37035C15.4105 6.37035 18.5763 7.70725 23.4672 7.66763C28.3581 7.62801 35.8693 6.52978 42.6523 3.57145C46.3952 1.93298 49.4551 5.50429 50.829 17.2699C50.7443 10.8529 49.5701 4.83584 48.7202 1.2847Z" fill="#B5A3A2"/>
<path d="M34.0389 12.6827C34.0389 12.6827 36.668 21.3026 36.5042 24.9359C36.4721 26.5359 34.3495 26.2548 34.3812 24.0646C34.4127 21.8743 33.8734 16.8477 33.1675 14.8059C32.4616 12.7641 33.6794 11.4514 34.0389 12.6827Z" fill="#CEC9B3"/>
<path d="M50.831 18.5288C45.7768 21.9491 40.4705 20.3013 40.4705 20.3013C43.5263 22.8706 48.2947 22.5851 50.6562 22.2418C50.7642 21.0038 50.819 19.7617 50.831 18.5288Z" fill="#B5A3A2"/>
<path d="M19.0946 24.9141C25.0782 26.1137 29.3343 22.5416 29.3343 22.5416C27.51 26.093 23.0023 27.6739 20.6918 28.2705C20.1134 27.1708 19.5825 26.0464 19.0946 24.9141Z" fill="#B5A3A2"/>
<path d="M44.6179 24.7788C44.6179 24.7788 47.0893 23.9864 47.036 26.2991C47.5911 24.8887 46.9311 23.3689 44.6179 24.7788Z" fill="#CEC9B3"/>
<path d="M27.2413 28.2753C27.2413 28.2753 24.6558 28.5006 25.5994 30.6125C24.542 29.5268 24.5627 27.8698 27.2413 28.2753Z" fill="#CEC9B3"/>
<path d="M38.3156 17.8885C38.3156 17.8885 38.095 14.5032 38.3968 12.9274C38.6986 11.3516 42.7244 6.5673 47.0869 10.6476C48.2014 12.6664 48.327 15.874 48.327 15.874C48.327 15.874 42.2502 11.7123 38.3156 17.8885Z" fill="#CEC9B3"/>
<path d="M30.3882 19.4832C30.3882 19.4832 29.2825 16.2761 28.3946 14.9394C27.5067 13.603 21.9439 10.7482 19.4992 16.1981C19.2521 18.4906 20.377 21.4974 20.377 21.4974C20.377 21.4974 24.3712 15.3095 30.3882 19.4832Z" fill="#CEC9B3"/>
<path d="M43.008 15.3248C44.8669 14.9508 46.7066 15.1796 48.3268 15.874C47.1479 14.0201 44.9125 12.9857 42.6299 13.4451C40.3472 13.9044 38.6859 15.7229 38.3157 17.8884C39.5409 16.6212 41.1491 15.6989 43.008 15.3248Z" fill="#3F1111"/>
<path d="M38.3965 12.9273C38.3965 12.9273 41.3404 7.31802 47.0866 10.6475C45.8697 8.41337 42.8504 7.78141 40.8316 8.89574C38.8131 10.0103 38.2709 12.3033 38.3965 12.9273Z" fill="#B5A3A2"/>
<path d="M25.0693 18.9341C23.2104 19.3082 21.6024 20.2307 20.3767 21.4977C20.7469 19.3322 22.4082 17.5136 24.6909 17.0546C26.9736 16.5952 29.2089 17.6296 30.3879 19.4835C28.7679 18.7888 26.9282 18.56 25.0693 18.9341Z" fill="#3F1111"/>
<path d="M28.3948 14.9398C28.3948 14.9398 23.5103 10.9056 19.4994 16.1984C19.7575 13.6675 22.2973 11.9169 24.5901 12.164C26.8826 12.4108 28.2692 14.3158 28.3948 14.9398Z" fill="#B5A3A2"/>
<path opacity="0.44" d="M15.7168 7.88939C15.7168 7.88939 22.6044 10.1236 30.3343 8.25363C38.064 6.38345 35.662 9.70001 29.5045 10.3881C23.3471 11.076 16.0224 9.40829 15.7168 7.88939Z" fill="white"/>
<path opacity="0.44" d="M32.8717 17.7377C32.8717 17.7377 33.4671 22.261 32.8789 24.032C31.8656 24.4719 31.3302 24.3437 30.4944 25.3775C30.5789 23.9439 31.8642 23.2918 31.8642 23.2918C31.8642 23.2918 33.1461 19.4926 32.8717 17.7377Z" fill="white"/>
<g opacity="0.44">
<path d="M31.0189 38.2571C22.1456 32.4874 18.4679 18.9042 17.2521 14.0335C16.5519 11.2295 15.5896 10.8792 14.8983 11.0855C16.8751 20.9161 22.3939 39.1196 36.4061 41.626C38.1128 41.9314 39.8728 41.5773 41.3285 40.6356C41.827 40.3131 42.2985 39.9688 42.7497 39.6089C40.1292 41.6135 36.712 41.7326 31.0189 38.2571Z" fill="white"/>
</g>
<path d="M44.9936 35.4449C50.945 26.6924 49.0828 12.7438 48.3204 7.78176C47.8815 4.92548 48.6335 4.22991 49.3507 4.15283C51.3299 13.9827 53.281 32.9043 41.3286 40.6352C39.8729 41.5769 38.1129 41.9311 36.4062 41.6257C35.8218 41.5212 35.2537 41.386 34.6986 41.2288C37.8906 42.0636 41.0878 40.8518 44.9936 35.4449Z" fill="#CEC9B3"/>
<path d="M34.2657 41.103C34.2806 41.1078 34.2955 41.1121 34.3104 41.1169C34.2953 41.1124 34.2804 41.1076 34.2657 41.103Z" fill="#CEC9B3"/>
</svg>
