<svg width="59" height="64" viewBox="0 0 59 64" fill="none" xmlns="http://www.w3.org/2000/svg">
<path d="M58.1109 40.92C56.021 36.7913 48.9488 39.889 45.0253 38.7469C43.4029 38.0523 42.842 37.1797 42.6918 36.2379C42.7676 35.5286 42.8727 34.8141 42.7651 34.1351C42.9577 32.3346 42.9597 30.5644 38.8019 29.4893C35.8916 29.0084 32.7666 28.7465 29.5161 28.7465C15.5567 28.7465 2.85476 33.8282 0.921212 40.9203C0.68146 41.7994 0.614166 42.6719 0.705163 43.5295C-0.265563 51.4162 12.0771 59.4381 29.5 59.4381C46.8287 59.4381 59.1343 51.5029 58.312 43.6576C58.424 42.7586 58.3624 41.8427 58.1109 40.92ZM31.5232 36.6634C28.8685 36.6634 26.6393 35.9629 25.8381 35.0017C26.6472 34.0585 28.8464 33.3898 31.4104 33.3898C34.0234 33.3898 36.2888 34.0839 37.0974 35.0554C36.2962 35.989 34.128 36.6634 31.5232 36.6634Z" fill="url(#paint0_linear_355_68785)"/>
<path d="M26.1365 33.2178C28.5578 30.9428 34.2911 30.8337 37.1246 32.2512C39.958 33.6687 37.3493 35.7726 35.9233 35.8656C40.8821 33.9481 32.5355 29.8388 26.1365 33.2178Z" fill="white"/>
<path opacity="0.55" d="M30.8102 59.0203C31.5548 58.1843 30.8102 57.1484 30.8102 57.1484C30.8102 57.1484 49.4433 56.2077 55.8924 48.5729C55.1486 53.4101 42.4573 59.4837 30.8102 59.0203Z" fill="#823C8B"/>
<path opacity="0.55" d="M8.7622 54.4107C8.50556 54.1678 8.78673 53.1679 9.49073 53.0137C5.34519 51.6599 0.584461 47.4677 0.649031 42.8851C0.277687 48.2618 3.52661 51.7821 8.7622 54.4107Z" fill="#823C8B"/>
<path opacity="0.5" d="M4.55501 38.0836C1.7292 43.1492 4.21009 50.8088 20.9928 53.6438C37.7755 56.4788 47.616 50.6426 46.342 49.2979C45.068 47.9532 27.3045 52.105 19.0434 45.2057C11.6552 39.0358 8.45998 31.776 4.55501 38.0836Z" fill="white"/>
<path d="M2.27557 45.6485C0.168744 40.5008 3.36535 31.8961 24.1742 28.9962C12.4463 30.0975 2.60414 34.7469 0.920963 40.92C-1.315 49.121 11.336 56.7744 29.5158 56.7744C31.1339 56.7744 32.707 56.7128 34.2311 56.5964C13.3382 56.6577 3.94676 49.7311 2.27557 45.6485Z" fill="white"/>
<path d="M29.5002 57.0131C19.0081 57.0131 9.64682 54.418 4.4589 50.0712C4.39542 50.0181 4.38697 49.9235 4.4401 49.86C4.49322 49.7965 4.58776 49.7883 4.65124 49.8412C9.78685 54.1444 19.0762 56.7133 29.5 56.7133C32.2133 56.7133 34.8748 56.541 37.4107 56.2016C37.4933 56.1904 37.5682 56.2482 37.5791 56.3303C37.59 56.4123 37.5325 56.4879 37.4505 56.4988C34.9015 56.84 32.2266 57.0131 29.5002 57.0131ZM43.4056 55.3326C43.3391 55.3326 43.2787 55.2879 43.261 55.2208C43.2397 55.1407 43.2876 55.0586 43.3677 55.0376C46.3445 54.2534 48.9848 53.2227 51.2158 51.9737C51.2878 51.9333 51.3796 51.959 51.4199 52.0312C51.4602 52.1034 51.4346 52.1948 51.3624 52.2354C49.1093 53.4967 46.4453 54.5372 43.4443 55.3274C43.4312 55.331 43.4182 55.3326 43.4056 55.3326ZM53.4336 50.8929C53.3872 50.8929 53.3412 50.8713 53.312 50.8307C53.2635 50.7636 53.2788 50.6699 53.3458 50.6213C57.2325 47.8117 58.8678 44.4119 57.9507 41.0484C57.9289 40.9685 57.9761 40.8862 58.0559 40.8644C58.136 40.8428 58.218 40.8897 58.2398 40.9696C59.192 44.4623 57.5162 47.9764 53.5213 50.8645C53.4946 50.8836 53.4638 50.8929 53.4336 50.8929ZM2.83511 48.4117C2.79261 48.4117 2.75038 48.3937 2.72069 48.3588C0.753081 46.0385 0.0752351 43.4835 0.76071 40.9696C0.782778 40.8895 0.865871 40.8426 0.944608 40.8644C1.02443 40.8862 1.07157 40.9685 1.04978 41.0484C0.391546 43.4627 1.04841 45.9235 2.94927 48.1647C3.00267 48.228 2.99504 48.3226 2.93183 48.376C2.90377 48.4 2.86944 48.4117 2.83511 48.4117ZM31.5076 36.9022C28.979 36.9022 26.7409 36.2725 25.8059 35.2983C25.4917 34.9709 25.34 34.6211 25.355 34.258C25.4122 32.8496 28.0724 31.7461 31.4106 31.7461C34.7459 31.7461 37.4472 32.8468 37.5606 34.2521C37.59 34.6168 37.4508 34.9687 37.147 35.298C36.2485 36.2725 34.0348 36.9022 31.5076 36.9022ZM31.4106 32.0457C28.2865 32.0457 25.704 33.0436 25.6541 34.2703C25.643 34.5486 25.7666 34.8245 26.0219 35.0906C26.8897 35.9947 29.094 36.6024 31.5074 36.6024C33.9174 36.6024 36.0951 35.9964 36.9269 35.0946C37.1712 34.8294 37.284 34.5541 37.2617 34.276C37.1628 33.0464 34.538 32.0457 31.4106 32.0457Z" fill="#1D1D1B"/>
<path d="M29.5 59.5882C18.2164 59.5882 8.1582 56.1922 3.25062 50.7253C1.22635 48.4701 0.289136 46.0198 0.539787 43.6384C0.445248 42.7514 0.519352 41.8535 0.760467 40.97C2.66977 33.9668 15.0252 28.6858 29.5 28.6858C32.6871 28.6858 35.8194 28.9363 38.81 29.4308C42.9291 30.4953 43.0994 32.2579 42.9101 34.1235C42.8095 35.064 42.7853 35.7269 42.8294 36.3411C42.9365 36.98 43.2877 37.9363 45.0681 38.6985C46.4709 39.1057 48.3732 38.9482 50.213 38.796C53.4829 38.5254 56.8637 38.2451 58.2286 40.9419C58.2333 40.9509 58.2368 40.9604 58.2395 40.9703C58.4804 41.8537 58.5545 42.7517 58.4602 43.6387C58.7109 46.0201 57.7737 48.4704 55.7494 50.7256C50.8418 56.1922 40.7836 59.5882 29.5 59.5882ZM29.5 28.9854C15.1557 28.9854 2.92477 34.1715 1.0498 41.0488C0.817131 41.9014 0.746568 42.7672 0.839745 43.6221C0.840835 43.633 0.840835 43.6436 0.839745 43.6545C0.592364 45.9541 1.50315 48.3298 3.47375 50.5252C8.32602 55.9308 18.2986 59.2886 29.5 59.2886C40.7014 59.2886 50.674 55.9308 55.5262 50.5252C57.4969 48.33 58.4076 45.9541 58.1603 43.6545C58.1592 43.6436 58.1592 43.633 58.1603 43.6221C58.2529 42.7721 58.1834 41.9115 57.9543 41.0635C56.676 38.5613 53.4033 38.8323 50.2378 39.0945C48.3707 39.2488 46.4407 39.4088 44.9673 38.98C43.492 38.3498 42.724 37.5244 42.5322 36.3762C42.4853 35.7294 42.5096 35.0506 42.612 34.0922C42.7943 32.2963 42.6295 30.7272 38.7482 29.7238C35.7867 29.2348 32.6707 28.9854 29.5 28.9854ZM37.1244 35.2436C37.08 35.2436 37.0361 35.224 37.0067 35.1866C36.2425 34.2173 33.9411 33.5404 31.4104 33.5404C28.9238 33.5404 26.6614 34.2009 25.9089 35.1466C25.8577 35.2114 25.7631 35.2221 25.6983 35.1703C25.6337 35.1187 25.6228 35.0244 25.6746 34.9595C26.4927 33.9313 28.7979 33.2406 31.4104 33.2406C34.0681 33.2406 36.4117 33.948 37.2418 35.001C37.2933 35.0661 37.2822 35.1605 37.217 35.2114C37.1895 35.233 37.1568 35.2436 37.1244 35.2436Z" fill="#1D1D1B"/>
<path opacity="0.45" d="M36.0864 61.5262C36.0866 61.5204 36.0899 61.5152 36.0907 61.5095L36.0864 61.5262Z" fill="#823C8B"/>
<path d="M36.0592 26.0913C36.0592 26.0913 36.0592 26.2413 36.0565 26.522C36.0565 27.0182 36.051 27.9204 36.032 29.1062C36.0129 30.491 35.972 32.2601 35.9012 34.2174C35.8821 34.768 35.8603 35.3296 35.8358 35.9047C35.4571 36.0683 35.0212 36.2128 34.5417 36.3273C34.0486 36.4472 33.5064 36.5371 32.9288 36.5944C32.779 36.6108 32.6291 36.6217 32.4738 36.6326C32.5583 35.534 32.6482 34.4627 32.7408 33.4514C32.8988 31.6959 33.0623 30.1148 33.1985 28.8609C33.3266 27.7187 33.4301 26.8491 33.4873 26.3639C33.5227 26.0832 33.5418 25.9332 33.5418 25.9332L33.7761 25.9469L34.2147 25.9741L35.1983 26.0368L35.7622 26.0723C35.7622 26.0723 35.765 26.075 35.765 26.0723L36.0592 26.0913Z" fill="#06281F"/>
<path opacity="0.74" d="M34.9231 28.992C34.8822 30.0851 34.8005 31.7807 34.6888 33.7924C34.6452 34.5938 34.5961 35.4443 34.5417 36.3275C34.0485 36.4475 33.5064 36.5374 32.9288 36.5947C32.9969 35.5125 33.0677 34.4684 33.1386 33.4953C33.2721 31.6362 33.411 30.0279 33.5363 28.883C33.6589 27.7953 33.7706 27.1275 33.8605 27.0593C34.2065 27.1929 34.8114 27.4164 34.9449 27.6727C34.964 27.7081 34.9558 28.1851 34.9231 28.992Z" fill="white"/>
<path d="M32.3101 36.7941L32.3234 36.621C32.4079 35.5219 32.4978 34.4508 32.5904 33.4376C32.722 31.9768 32.8759 30.4314 33.0484 28.8447C33.162 27.8317 33.2563 27.0335 33.3159 26.5271L33.4094 25.7755L35.6137 25.9129V25.9124L36.2077 25.9511V26.0915C36.2077 26.0915 36.2077 26.2419 36.205 26.5235C36.205 26.8408 36.2025 27.7306 36.1804 29.1085C36.1652 30.2123 36.1303 31.9958 36.0497 34.2227C36.0306 34.7733 36.0088 35.3354 35.9843 35.9108L35.9802 36.0049L35.8938 36.0422C35.4961 36.214 35.0525 36.359 34.5752 36.4729C34.075 36.5945 33.5254 36.6856 32.9421 36.7433C32.792 36.7597 32.6403 36.7709 32.4828 36.7821L32.3101 36.7941ZM33.672 26.0906L33.614 26.5619C33.5543 27.0679 33.4601 27.8655 33.3464 28.8774C33.1743 30.462 33.0203 32.0054 32.889 33.4646C32.8013 34.4233 32.716 35.4335 32.6356 36.4702C32.7285 36.4631 32.8201 36.4549 32.9116 36.4451C33.4824 36.3884 34.018 36.2998 34.5054 36.1813C34.9321 36.0793 35.3296 35.9526 35.6892 35.8034C35.7121 35.2618 35.7325 34.7321 35.7505 34.212C35.8312 31.9877 35.866 30.2065 35.8813 29.1042C35.9034 27.7278 35.9058 26.8397 35.9058 26.5219C35.9069 26.3998 35.9077 26.3024 35.908 26.2316L35.7903 26.2239L35.7249 26.2501L35.6938 26.2179L33.672 26.0906Z" fill="#1D1D1B"/>
<path d="M36.3518 17.0828C37.3486 16.1508 37.7848 13.5055 35.8197 9.62024C33.3878 13.2318 33.4927 15.9106 34.3665 16.9593L36.3518 17.0828Z" fill="#965928"/>
<path opacity="0.7" d="M34.5962 16.9029C34.1879 16.5564 34.3914 14.9538 34.5548 14.6341C34.7183 14.3143 34.681 14.9129 35.2874 15.351C35.8939 15.7893 36.8366 13.1678 36.6728 11.4106C38.1114 14.4588 36.9461 16.9618 36.3642 17.2731C35.7822 17.5844 34.5962 16.9029 34.5962 16.9029Z" fill="#8C226A"/>
<path d="M36.352 17.2325C36.312 17.2325 36.2722 17.2165 36.2425 17.1851C36.1861 17.1246 36.1891 17.0297 36.2496 16.9733C37.2487 16.0394 37.5181 13.4462 35.8011 9.91965C33.6603 13.2058 33.606 15.8126 34.4817 16.8632C34.5348 16.9267 34.5261 17.0213 34.4626 17.0742C34.3989 17.1273 34.3046 17.1186 34.2517 17.0551C33.2554 15.8598 33.3156 13.0711 35.6957 9.53639C35.7251 9.49223 35.7747 9.46388 35.8292 9.47042C35.8823 9.47369 35.9297 9.50477 35.9534 9.5522C37.8769 13.3552 37.5908 16.1294 36.4542 17.1922C36.4253 17.2192 36.3885 17.2325 36.352 17.2325Z" fill="#1D1D1B"/>
<path d="M35.3685 16.8743C34.0025 16.7892 34.3716 16.8781 34.3667 16.9593C34.3667 16.9593 33.6322 22.4753 33.5276 24.3229C33.4995 24.8166 33.4557 26.2992 33.4557 26.2992C33.4355 26.6236 36.0785 26.7883 36.0987 26.4639C36.0987 26.4639 36.2387 24.9872 36.2722 24.4938C36.3973 22.6475 36.3523 17.0831 36.3523 17.0831C36.357 17.0018 36.7346 16.9593 35.3685 16.8743Z" fill="#C7E0ED"/>
<path d="M34.66 17.1671C34.66 17.1671 33.8552 23.9419 33.8805 24.3445C33.9058 24.7471 33.6955 26.0578 33.814 26.1188C33.9325 26.1799 34.2298 26.1586 34.2298 26.1586C34.2298 26.1586 34.0903 25.1844 34.4812 24.5073C34.4336 24.4885 34.0377 21.6445 35.0921 17.1941C34.66 17.1671 34.66 17.1671 34.66 17.1671Z" fill="white"/>
<path d="M35.2596 26.7926C35.1127 26.7926 34.9443 26.7874 34.7504 26.7752C33.2802 26.6836 33.2985 26.3878 33.3048 26.2908L33.3767 24.3183L34.2166 16.943C34.2215 16.8642 34.2341 16.6625 35.3756 16.7252H35.3778C36.5183 16.8045 36.506 17.0065 36.5005 17.0929L36.421 24.496L36.2469 26.4775C36.2417 26.5587 36.227 26.7926 35.2596 26.7926ZM33.6053 26.269C33.8725 26.4598 35.6622 26.5713 35.9513 26.4151L36.1216 24.4813L36.2003 17.1578C36.0734 17.1147 35.735 17.0506 35.3582 17.0245C34.9817 17.0043 34.6367 17.0256 34.5057 17.0523L33.6753 24.3406L33.6053 26.269ZM35.9483 26.4505C35.9483 26.4521 35.948 26.4538 35.948 26.4554L35.9483 26.4505ZM33.6042 26.3014V26.3055C33.6042 26.3041 33.6042 26.3028 33.6042 26.3014ZM36.2011 17.082C36.2009 17.0858 36.2009 17.0893 36.2011 17.0932V17.082ZM34.515 16.9694L34.5136 16.983C34.5141 16.9787 34.5147 16.974 34.515 16.9694Z" fill="#1D1D1B"/>
<g opacity="0.36">
<path d="M35.3953 24.6859C34.3521 24.6859 33.5345 24.4648 33.4911 24.4531L33.5634 24.1903C33.5764 24.1939 34.8779 24.5447 36.2535 24.3574L36.2903 24.6275C35.9827 24.6695 35.6805 24.6859 35.3953 24.6859Z" fill="#003D6A"/>
</g>
<path opacity="0.45" d="M35.3686 16.8743C35.923 18.451 35.5993 23.2731 35.1743 26.2038C35.4653 26.2106 35.6388 26.2327 35.8279 26.0062C35.9088 25.7775 36.0154 17.0117 36.0154 17.0117L35.3686 16.8743Z" fill="#2B6E99"/>
<path opacity="0.69" d="M34.5139 13.7845C34.6106 14.1075 35.9728 11.3889 35.824 10.729C35.6753 10.0688 34.3517 12.6396 34.5139 13.7845Z" fill="white"/>
<path d="M33.9102 27.0632C33.6258 27.7011 33.273 34.8938 33.3147 35.3471C33.3563 35.7999 34.4818 27.2881 33.9102 27.0632Z" fill="white"/>
<path opacity="0.37" d="M28.0575 50.5179C29.6472 53.3695 34.7763 49.1525 35.3721 49.2256C35.968 49.2986 39.2229 51.375 41.6839 51.897C44.2637 52.4444 44.7928 48.154 43.9305 47.3735C43.0682 46.5931 38.372 45.3512 36.8728 44.3824C35.3735 43.4136 36.1167 42.5914 35.9317 41.718C35.7467 40.8446 33.2247 40.9561 32.263 41.3849C31.3012 41.8134 34.0238 47.1574 28.0575 50.5179Z" fill="#823C8B"/>
<path d="M30.9015 42.715C31.0687 42.761 31.2325 42.8521 31.2278 42.9935C31.2224 43.1587 30.9807 43.3089 30.7519 43.346C30.5217 43.3834 30.3062 43.3389 30.0937 43.3078C29.8373 43.2702 29.5602 43.2525 29.2801 43.3248C28.9976 43.3978 28.7072 43.5859 28.6331 43.8045C28.5355 44.0924 28.8426 44.3012 29.2 44.3325C29.5586 44.3639 29.9509 44.2701 30.3266 44.2314C30.7004 44.193 31.108 44.2249 31.3063 44.4489C31.5044 44.6727 31.433 45.0361 31.2169 45.3289C30.9935 45.6314 30.6454 45.8719 30.2917 46.1006C29.3995 46.6779 28.329 47.3232 27.8108 48.3345C27.352 49.23 27.4583 50.2691 28.0577 50.8802C28.6895 51.5244 29.7594 51.6533 30.7748 51.2973C31.7602 50.9519 32.613 50.2045 33.1666 49.354C33.3791 49.0272 33.554 48.6812 33.821 48.4296C34.082 48.1837 34.4762 48.042 34.7814 48.2009C35.0794 48.356 35.1979 48.7349 35.2372 49.0907C35.2778 49.4584 35.2707 49.8613 35.45 50.2097C35.6347 50.5687 36.1139 50.8028 36.3828 50.5316C36.6226 50.2898 36.5269 49.8599 36.4959 49.5102C36.4656 49.1711 36.6389 48.7491 36.9481 48.8358C37.2015 48.9067 37.2811 49.2458 37.3432 49.5205C37.5971 50.6461 38.5193 51.7645 39.6524 52.2225C40.8278 52.6976 42.0369 52.3869 42.5932 51.4906C43.1109 50.6564 42.9962 49.4172 42.3851 48.4334C42.0058 47.8228 41.4558 47.3071 41.192 46.7444C41.0433 46.4269 40.9907 46.1033 40.7793 45.8236C40.4927 45.4447 39.9766 45.2359 39.5132 45.1509C39.0541 45.0664 38.5975 45.0696 38.1461 44.968C37.2135 44.7581 36.4861 44.151 35.9932 43.5472C35.5341 42.9846 35.2339 42.4077 34.8032 41.9307C34.2782 41.3495 33.4919 40.9308 32.4757 41.041C32.1384 41.0775 31.861 41.1565 31.5785 41.31C31.2638 41.4806 30.8464 41.6742 30.5598 41.8827C29.9923 42.2957 30.3955 42.5757 30.9015 42.715Z" fill="#2FD475"/>
<path d="M40.3388 44.6307C40.5077 44.743 40.7145 44.8063 40.9175 44.8676C41.2095 44.9559 41.5029 45.0445 41.798 45.1337C42.2652 45.2749 42.7363 45.4172 43.2112 45.5605C43.4378 45.629 43.67 45.6987 43.9013 45.7097C44.1326 45.7206 44.3658 45.6639 44.4802 45.5177C44.6077 45.3553 44.5603 45.114 44.42 44.9224C44.2813 44.7327 44.0656 44.583 43.8452 44.4554C43.0951 44.0217 42.2088 43.7917 41.3683 43.789C41.0629 43.7879 40.6333 43.7824 40.3668 43.8955C40.0042 44.0495 39.9939 44.4012 40.3388 44.6307Z" fill="#2FD475"/>
<path d="M43.9598 45.861C43.9383 45.861 43.9165 45.8605 43.8941 45.8594C43.6424 45.8477 43.3904 45.7713 43.1678 45.704L40.8741 45.0111C40.6727 44.9503 40.4447 44.8813 40.2559 44.7554C40.0357 44.6087 39.9202 44.4075 39.9393 44.2028C39.957 44.0117 40.0913 43.8493 40.3079 43.7571C40.5934 43.6358 41.0245 43.6367 41.3367 43.6383L41.3685 43.6386C42.2529 43.6416 43.1591 43.8853 43.92 44.3252C44.2189 44.498 44.4104 44.6548 44.5409 44.8333C44.736 45.1005 44.7583 45.4052 44.5981 45.61C44.472 45.7711 44.2415 45.861 43.9598 45.861ZM40.4218 44.506C40.5738 44.6071 40.7705 44.6665 40.961 44.7243L43.2544 45.4172C43.4702 45.4824 43.6936 45.55 43.9083 45.5601C44.1151 45.5699 44.2894 45.5186 44.3625 45.4254C44.448 45.3161 44.3924 45.1384 44.2992 45.0108C44.1633 44.8249 43.9323 44.6788 43.7702 44.5853C43.0539 44.1712 42.2006 43.9417 41.3677 43.939H41.3358C41.0481 43.9381 40.6542 43.9365 40.4253 44.0338C40.3117 44.0821 40.245 44.1521 40.2379 44.2312C40.2295 44.3209 40.2984 44.4236 40.4218 44.506Z" fill="#1D1D1B"/>
<path d="M40.3388 44.6307C40.5077 44.743 40.7145 44.8063 40.9175 44.8676C41.2095 44.9559 41.5029 45.0445 41.798 45.1337C42.2652 45.2749 42.7363 45.4172 43.2112 45.5605C43.4378 45.629 43.67 45.6987 43.9013 45.7097C44.1326 45.7206 44.3658 45.6639 44.4802 45.5177C44.6077 45.3553 44.5603 45.114 44.42 44.9224C44.2813 44.7327 44.0656 44.583 43.8452 44.4554C43.0951 44.0217 42.2088 43.7917 41.3683 43.789C41.0629 43.7879 40.6333 43.7824 40.3668 43.8955C40.0042 44.0495 39.9939 44.4012 40.3388 44.6307Z" fill="#2FD475"/>
<path d="M43.9598 45.861C43.9383 45.861 43.9165 45.8605 43.8941 45.8594C43.6424 45.8477 43.3904 45.7713 43.1678 45.704L40.8741 45.0111C40.6727 44.9503 40.4447 44.8813 40.2559 44.7554C40.0357 44.6087 39.9202 44.4075 39.9393 44.2028C39.957 44.0117 40.0913 43.8493 40.3079 43.7571C40.5934 43.6358 41.0245 43.6367 41.3367 43.6383L41.3685 43.6386C42.2529 43.6416 43.1591 43.8853 43.92 44.3252C44.2189 44.498 44.4104 44.6548 44.5409 44.8333C44.736 45.1005 44.7583 45.4052 44.5981 45.61C44.472 45.7711 44.2415 45.861 43.9598 45.861ZM40.4218 44.506C40.5738 44.6071 40.7705 44.6665 40.961 44.7243L43.2544 45.4172C43.4702 45.4824 43.6936 45.55 43.9083 45.5601C44.1151 45.5699 44.2894 45.5186 44.3625 45.4254C44.448 45.3161 44.3924 45.1384 44.2992 45.0108C44.1633 44.8249 43.9323 44.6788 43.7702 44.5853C43.0539 44.1712 42.2006 43.9417 41.3677 43.939H41.3358C41.0481 43.9381 40.6542 43.9365 40.4253 44.0338C40.3117 44.0821 40.245 44.1521 40.2379 44.2312C40.2295 44.3209 40.2984 44.4236 40.4218 44.506Z" fill="#1D1D1B"/>
<path opacity="0.4" d="M38.1205 50.2426C39.3465 51.4966 41.4988 51.2512 41.853 49.9564C42.2072 48.6616 41.6893 47.5009 41.7473 47.5742C41.8056 47.6475 44.4301 50.9233 41.6838 52.2596C39.2103 52.2596 38.1205 50.2426 38.1205 50.2426Z" fill="#AD21BF"/>
<path opacity="0.5" d="M17.6137 31.0882C13.9335 31.8959 13.9482 33.5296 14.4324 34.2353C14.9168 34.941 17.135 35.3232 19.0427 34.2996C20.9504 33.2763 22.0366 31.8959 25.0036 31.4516C27.0431 31.1463 24.912 29.4889 17.6137 31.0882Z" fill="white"/>
<path opacity="0.37" d="M19.3066 39.7844C18.7625 40.6613 16.9848 41.5244 13.6574 41.5244C10.33 41.5244 7.63281 40.7039 7.63281 39.6914C7.63281 38.679 12.126 37.8585 15.4531 37.8585C18.7802 37.8585 19.9891 38.6842 19.3066 39.7844Z" fill="#823C8B"/>
<path d="M7.15053 38.8694C7.29329 40.1157 9.32738 41.0447 12.0123 41.0447C14.6976 41.0447 16.8741 40.0707 16.8741 38.8694C16.93 36.1955 13.969 37.3739 12.6005 34.111C9.91559 34.111 6.92413 36.8912 7.15053 38.8694Z" fill="#E52F24"/>
<path opacity="0.7" d="M13.1079 34.9255C12.7265 36.0361 11.039 36.801 11.4207 37.4969C11.8021 38.1929 13.9405 37.7818 14.6015 38.2054C15.2622 38.629 12.2925 40.0738 11.0665 40.0738C9.84048 40.0738 11.7729 41.1175 13.8171 40.8408C15.8615 40.5644 16.9968 38.9583 16.243 37.8578C15.4888 36.7576 14.1977 36.4046 13.1079 34.9255Z" fill="#AD21BF"/>
<path d="M12.0664 41.1394C9.34605 41.1394 7.26156 40.1687 7.11036 38.8311C7.018 38.0155 7.43511 37.0211 8.2549 36.103C9.44603 34.7684 11.1709 33.9059 12.6484 33.9059C12.7089 33.9059 12.7636 33.9424 12.7868 33.9983C13.4346 35.5603 14.44 36.0635 15.3271 36.5073C16.2536 36.9709 17.0538 37.3711 17.0239 38.8175C17.0236 40.1183 14.8462 41.1394 12.0664 41.1394ZM12.5495 34.2071C11.1755 34.2444 9.58852 35.0587 8.47803 36.3028C7.71518 37.1574 7.32505 38.0668 7.40787 38.7976C7.53973 39.9618 9.54221 40.8399 12.0664 40.8399C14.5912 40.8399 16.7242 39.9122 16.7242 38.8145C16.75 37.5546 16.097 37.2277 15.1927 36.7755C14.3217 36.3399 13.242 35.7996 12.5495 34.2071Z" fill="#1D1D1B"/>
<path opacity="0.7" d="M9.71637 35.865C7.94983 37.2119 7.60845 38.5596 8.28739 39.0383C9.21371 39.6914 11.5567 39.5562 11.5295 38.9292C11.5023 38.3022 9.9376 38.163 9.91035 37.2089C9.88311 36.2551 10.0033 35.6466 9.71637 35.865Z" fill="white"/>
<path opacity="0.37" d="M26.9901 47.4784C26.392 48.4636 24.4375 49.4329 20.7797 49.4329C17.1218 49.4329 14.1565 48.511 14.1565 47.3738C14.1565 46.2365 19.0959 45.3146 22.7538 45.3146C26.4117 45.3146 27.7404 46.2428 26.9901 47.4784Z" fill="#823C8B"/>
<path d="M25.3557 45.9825C25.1609 47.5262 22.3836 48.6771 18.717 48.6771C15.0507 48.6771 12.0786 47.4706 12.0786 45.9825C12.0023 42.6705 16.0454 44.1299 17.9138 40.0879C21.5804 40.0882 25.6649 43.5321 25.3557 45.9825Z" fill="#006BD6"/>
<path opacity="0.55" d="M22.2623 41.8848C23.8403 44.0742 23.1249 46.032 20.3266 46.7898C17.5283 47.5476 15.319 46.4319 15.0875 46.4742C14.8562 46.5161 14.8316 47.2892 15.5152 47.7665C16.1985 48.2441 24.3664 49.1268 25.3677 45.5893C25.208 43.6321 22.2623 41.8848 22.2623 41.8848Z" fill="#AD21BF"/>
<path d="M18.7163 48.8277C14.9097 48.8277 11.9277 47.5784 11.9277 45.9832C11.8869 44.213 12.9797 43.7226 14.2452 43.1548C15.4783 42.6014 16.8762 41.9739 17.7769 40.0259C17.8014 39.973 17.8545 39.939 17.9128 39.939C20.4384 39.939 22.9215 41.4739 24.2622 42.995C25.1763 44.0328 25.6174 45.1005 25.5035 46.002C25.297 47.6395 22.4425 48.8277 18.7163 48.8277ZM18.0077 40.2394C17.0576 42.2211 15.5682 42.8895 14.368 43.4282C13.1044 43.9952 12.1915 44.4049 12.2277 45.9797C12.2277 47.3625 15.1993 48.5279 18.7166 48.5279C22.2319 48.5279 25.0221 47.4258 25.2062 45.9644C25.3092 45.1493 24.8943 44.1653 24.0377 43.1932C22.7583 41.7419 20.4071 40.2773 18.0077 40.2394Z" fill="#1D1D1B"/>
<path opacity="0.3" d="M13.2916 44.3672C12.702 45.6493 17.1301 47.1076 19.3121 45.8354C21.4938 44.5632 17.6292 42.3882 17.1707 42.44C16.7119 42.4918 16.0569 43.8728 13.2916 44.3672Z" fill="white"/>
<path opacity="0.37" d="M55.5736 42.9848C55.0295 43.8618 53.2516 44.7248 49.9244 44.7248C46.5971 44.7248 43.8998 43.9043 43.8998 42.8919C43.8998 41.8795 48.393 41.059 51.7201 41.059C55.0475 41.059 56.2561 41.8849 55.5736 42.9848Z" fill="#823C8B"/>
<path d="M43.4176 42.0703C43.5604 43.3166 45.5945 44.2456 48.2794 44.2456C50.9647 44.2456 53.1412 43.2716 53.1412 42.0703C53.1971 39.3964 50.2361 40.5748 48.8676 37.3119C46.1827 37.3119 43.1912 40.0921 43.4176 42.0703Z" fill="#FFC91D"/>
<path opacity="0.37" d="M49.375 38.1265C48.9936 39.237 47.3063 40.0019 47.6878 40.6978C48.0692 41.3938 50.2079 40.9827 50.8686 41.4063C51.5292 41.8299 48.5596 43.2747 47.3336 43.2747C46.1076 43.2747 48.04 44.3184 50.0842 44.0418C52.1286 43.7654 53.2636 42.1592 52.5101 41.0588C51.7559 39.9586 50.4648 39.6053 49.375 38.1265Z" fill="#AD21BF"/>
<path d="M48.334 44.341C45.6134 44.341 43.5289 43.3703 43.3777 42.0327C43.2853 41.2171 43.7024 40.2226 44.5222 39.3045C45.7134 37.9699 47.4382 37.1074 48.9157 37.1074C48.9762 37.1074 49.0309 37.144 49.0541 37.1998C49.7017 38.7618 50.7073 39.265 51.5944 39.7088C52.521 40.1725 53.3212 40.5726 53.2915 42.019C53.2915 43.3198 51.1138 44.341 48.334 44.341ZM48.8174 37.4086C47.4434 37.446 45.8561 38.2602 44.7459 39.5043C43.9831 40.3589 43.5929 41.2683 43.6757 41.9989C43.8076 43.1631 45.8101 44.0411 48.3343 44.0411C50.8591 44.0411 52.992 43.1135 52.992 42.0158C53.0179 40.7558 52.3649 40.4293 51.4606 39.9768C50.5896 39.5411 49.5099 39.0009 48.8174 37.4086Z" fill="#1D1D1B"/>
<path opacity="0.7" d="M45.9834 39.0654C44.2169 40.4123 43.8755 41.76 44.5544 42.2387C45.4807 42.8918 47.8238 42.7566 47.7965 42.1296C47.7693 41.5026 46.2046 41.3634 46.1774 40.4093C46.1501 39.4555 46.2703 38.8468 45.9834 39.0654Z" fill="white"/>
<path opacity="0.4" d="M28.1219 49.9568C28.3543 51.1235 31.3496 51.8001 33.6046 48.6772C34.2315 47.8442 35.0363 48.2059 35.1368 48.6483C35.2376 49.091 35.6534 47.7289 35.0603 47.2085C34.7696 46.9536 34.0795 47.2807 33.5346 48.044C32.9897 48.8072 29.3751 50.9245 28.1219 49.9568Z" fill="#AD21BF"/>
<path opacity="0.4" d="M31.7473 44.0921C31.0114 44.0067 28.7487 44.3818 28.7784 43.5938C28.7027 43.7622 28.6659 43.9157 28.6583 44.0569C28.7452 44.2087 28.9599 44.3115 29.2002 44.3325C29.5587 44.3638 29.951 44.2701 30.3267 44.2313C30.7008 44.1929 31.1081 44.2248 31.3064 44.4489C31.5045 44.6727 31.4331 45.036 31.2171 45.3288C31.1612 45.4043 31.0975 45.4763 31.028 45.545C31.028 45.545 31.7726 45.3904 32.0723 45.032C32.287 44.7746 32.8351 44.218 31.7473 44.0921Z" fill="#AD21BF"/>
<path d="M40.754 52.5955C40.3786 52.5958 39.9846 52.5198 39.5956 52.3625C38.4333 51.8925 37.4691 50.7643 37.1961 49.5545C37.146 49.3326 37.0776 49.0287 36.9071 48.9809C36.8613 48.9681 36.8264 48.9758 36.7899 49.006C36.691 49.0881 36.6273 49.3042 36.6444 49.4975C36.6491 49.5488 36.6551 49.6014 36.661 49.6553C36.6995 49.9955 36.7431 50.3813 36.4886 50.6378C36.3605 50.7667 36.1851 50.8212 35.9941 50.7921C35.7255 50.7506 35.453 50.5443 35.3163 50.2788C35.161 49.977 35.1343 49.6526 35.1089 49.3391C35.1027 49.2609 35.0964 49.1838 35.0877 49.1077C35.0569 48.828 34.9664 48.4668 34.7117 48.3344C34.4594 48.203 34.1259 48.3483 33.9232 48.5393C33.7369 48.7149 33.5963 48.9444 33.447 49.1878C33.3963 49.2707 33.3451 49.3541 33.2914 49.4365C32.6817 50.3734 31.7824 51.1034 30.8236 51.4395C29.709 51.8298 28.6078 51.6565 27.9501 50.9859C27.3055 50.3289 27.1933 49.2107 27.6769 48.2668C28.1823 47.2811 29.1723 46.6435 30.0458 46.0811L30.2095 45.9753C30.5422 45.7602 30.8846 45.5261 31.0958 45.2404C31.2511 45.0297 31.3481 44.7236 31.1936 44.5491C31.062 44.4005 30.7514 44.3389 30.3411 44.3812C30.2286 44.3926 30.1144 44.4095 30 44.4262C29.7308 44.4654 29.4518 44.5063 29.1862 44.4826C28.8971 44.4572 28.6549 44.3359 28.5389 44.1577C28.4596 44.0361 28.4427 43.8976 28.4904 43.7572C28.5887 43.4675 28.9388 43.2589 29.2421 43.1804C29.566 43.097 29.8785 43.1256 30.115 43.1605L30.2 43.1733C30.3803 43.2011 30.5506 43.2276 30.7274 43.1989C30.9301 43.166 31.0759 43.0436 31.0775 42.9896C31.0784 42.9618 31.0105 42.9015 30.8615 42.8604C30.561 42.7775 30.1918 42.6186 30.1395 42.3313C30.1046 42.1394 30.2163 41.948 30.4716 41.7626C30.6907 41.6032 30.9822 41.4527 31.2394 41.32C31.3328 41.2714 31.4235 41.2248 31.5069 41.1796C31.7984 41.0215 32.0921 40.9331 32.4594 40.8933C33.4026 40.7911 34.275 41.1242 34.9141 41.8316C35.1539 42.0974 35.3498 42.3858 35.5571 42.6914C35.7268 42.9416 35.9026 43.2006 36.1091 43.4536C36.521 43.9584 37.2147 44.6058 38.1786 44.8228C38.4162 44.8762 38.6535 44.8994 38.9046 44.9239C39.1114 44.9441 39.3253 44.9651 39.5397 45.0043C39.8895 45.0687 40.5314 45.2491 40.8981 45.7343C41.0472 45.9314 41.1235 46.1451 41.1973 46.3518C41.2362 46.4611 41.2757 46.572 41.3272 46.6819C41.4695 46.9856 41.7035 47.2797 41.9514 47.5913C42.144 47.8336 42.3432 48.0841 42.5118 48.3553C43.1711 49.4171 43.2551 50.7092 42.72 51.5709C42.308 52.2341 41.5743 52.5955 40.754 52.5955ZM36.8681 48.6754C36.9076 48.6754 36.9477 48.6808 36.9877 48.692C37.3305 48.7882 37.4217 49.1928 37.4885 49.4882C37.7367 50.589 38.6494 51.6565 39.7078 52.0842C40.8096 52.5296 41.9435 52.2532 42.4652 51.4122C42.9415 50.6454 42.8578 49.4803 42.2571 48.5132C42.0977 48.2567 41.9043 48.013 41.7168 47.7774C41.4577 47.4517 41.2131 47.1439 41.0559 46.8084C40.9992 46.6876 40.9564 46.5677 40.915 46.4518C40.8458 46.258 40.7804 46.0748 40.6592 45.9145C40.4361 45.6193 40.0081 45.3947 39.4855 45.2987C39.2836 45.2617 39.0763 45.2415 38.8755 45.2216C38.6262 45.1973 38.3685 45.172 38.1129 45.1145C37.0654 44.8787 36.3189 44.1838 35.877 43.6422C35.662 43.3789 35.4827 43.1144 35.3094 42.8588C35.1081 42.5622 34.9179 42.2817 34.6918 42.0314C34.2867 41.5827 33.5748 41.0716 32.4918 41.1905C32.1651 41.2259 31.9055 41.3036 31.6499 41.4421C31.5647 41.4881 31.4723 41.5361 31.377 41.5852C31.1173 41.7193 30.8487 41.8583 30.6479 42.0042C30.5024 42.1099 30.4226 42.2119 30.4346 42.2768C30.4482 42.3515 30.589 42.4733 30.9413 42.5703C31.2249 42.6483 31.384 42.8042 31.3775 42.9983C31.3688 43.2581 31.0609 43.4476 30.7757 43.4939C30.552 43.5299 30.3498 43.4985 30.1545 43.4685L30.0717 43.456C29.8632 43.4257 29.5897 43.3998 29.3173 43.4696C29.0593 43.5364 28.826 43.7011 28.7746 43.8524C28.7568 43.9047 28.7617 43.9491 28.7901 43.9927C28.8533 44.0898 29.0233 44.1664 29.2126 44.183C29.4442 44.2029 29.6935 44.1669 29.9572 44.1285C30.0758 44.1111 30.1943 44.0941 30.3109 44.0819C30.6751 44.0448 31.1628 44.0609 31.4181 44.3493C31.6489 44.6099 31.6162 45.0395 31.3372 45.4176C31.0961 45.7442 30.7285 45.9963 30.373 46.2264L30.2087 46.3324C29.3669 46.8743 28.4127 47.4888 27.9441 48.4028C27.5186 49.2334 27.6093 50.209 28.1648 50.7752C28.7315 51.3531 29.7366 51.5027 30.7253 51.1557C31.6224 50.8411 32.4667 50.1545 33.0408 49.2721C33.0928 49.1919 33.1427 49.111 33.192 49.0303C33.3448 48.7809 33.5029 48.5233 33.7181 48.3205C34.0044 48.0503 34.4654 47.8674 34.8504 48.0678C35.1449 48.221 35.3302 48.5688 35.386 49.0739C35.3947 49.1527 35.4013 49.2328 35.4078 49.3138C35.4312 49.5981 35.4549 49.8922 35.583 50.1406C35.6764 50.3221 35.8644 50.468 36.0401 50.4949C36.1366 50.5105 36.2159 50.4865 36.2761 50.4257C36.4295 50.2711 36.396 49.9746 36.3635 49.6881C36.3573 49.6319 36.351 49.5766 36.3461 49.5234C36.3246 49.2819 36.3943 48.9444 36.5984 48.7746C36.6777 48.7094 36.7706 48.6754 36.8681 48.6754Z" fill="#1D1D1B"/>
<path opacity="0.7" d="M30.5299 33.4172C30.8462 32.6513 31.5233 32.2497 32.4016 31.9597C29.6962 31.5846 24.499 32.5785 25.8381 35.2679C25.9103 33.5759 30.5299 33.4172 30.5299 33.4172Z" fill="#823C8B"/>
<path d="M31.0886 43.3568C31.0341 43.3568 30.9816 43.3271 30.9551 43.2753C30.9173 43.2017 30.9464 43.1112 31.02 43.0736C31.1614 43.0011 31.491 42.723 31.3205 42.3144C31.2886 42.2381 31.3246 42.15 31.4009 42.1184C31.4769 42.086 31.5649 42.1225 31.5967 42.1988C31.8278 42.7522 31.46 43.1845 31.1565 43.3405C31.1349 43.3514 31.1115 43.3568 31.0886 43.3568Z" fill="#1D1D1B"/>
<path d="M28.6577 48.3888C28.5574 49.2611 30.3011 49.2248 30.8094 47.8073C31.3181 46.3898 29.2303 47.2984 28.6577 48.3888Z" fill="white"/>
<path opacity="0.3" d="M32.7038 41.4694C31.7824 42.7245 33.553 43.7644 34.7292 43.4297C35.9051 43.0949 33.0959 40.9351 32.7038 41.4694Z" fill="white"/>
<path d="M38.1204 49.2793C37.7013 49.6642 38.4383 49.9608 38.9467 49.9561C39.4553 49.9518 38.4563 48.9707 38.1204 49.2793Z" fill="white"/>
<path d="M14.5539 45.3147C14.7552 45.969 16.2752 45.7269 16.4771 45.5451C16.6789 45.3632 14.3784 44.7447 14.5539 45.3147Z" fill="white"/>
<path d="M7.99666 38.0633C7.91683 38.8467 8.65053 39.3756 9.19542 39.0485C9.74031 38.7213 8.02963 37.7414 7.99666 38.0633Z" fill="white"/>
<path d="M44.2297 41.4648C44.1599 41.8647 44.6866 42.228 44.9228 42.0282C45.1587 41.8284 44.2994 41.0651 44.2297 41.4648Z" fill="white"/>
<path d="M41.1265 44.1911C40.8453 44.3847 42.3171 44.6646 42.3211 44.3825C42.3252 44.1003 41.4172 43.9913 41.1265 44.1911Z" fill="white"/>
<path opacity="0.45" d="M45.1461 25.7208V25.741C45.1461 25.7342 45.1485 25.7276 45.1491 25.7208H45.1461Z" fill="#823C8B"/>
<path d="M32.7672 36.6089C32.3667 36.6443 31.9499 36.6634 31.5222 36.6634C30.1654 36.6634 28.9203 36.4808 27.9204 36.1755C27.8387 35.4122 27.7651 34.6598 27.6916 33.9266C27.5145 32.0675 27.3674 30.3201 27.2475 28.7936C26.9832 25.3371 26.8688 23.001 26.8688 23.001L30.4405 22.5566C30.4405 22.5566 30.9446 25.0863 31.5685 28.7827C31.8055 30.1838 32.0616 31.754 32.3123 33.4195C32.4648 34.4527 32.6201 35.5212 32.7672 36.6089Z" fill="#06281F"/>
<path d="M34.568 59.2041C34.5489 61.9355 34.3119 63.7728 33.7316 63.8464C33.1731 63.9173 32.4947 62.1209 31.7972 59.3895C32.7399 59.354 33.6635 59.2913 34.568 59.2041Z" fill="#06281F"/>
<path opacity="0.74" d="M30.9201 36.6498C30.1624 30.3068 29.3358 24.6063 29.2236 24.4951C28.9781 24.2514 28.0771 24.1601 27.5638 24.1023C27.2372 24.3727 27.7799 30.0419 28.6007 36.3535C29.2982 36.5119 30.082 36.6157 30.9201 36.6498Z" fill="white"/>
<path d="M32.6194 36.6285C31.6982 29.8422 30.5126 23.7061 30.3199 22.7232L27.0247 23.131C27.0746 24.0818 27.3884 29.7637 28.0701 36.1588L27.772 36.1904C27.0272 29.2044 26.7212 23.0677 26.7179 23.0064L26.7111 22.8674L30.5594 22.3909L30.5867 22.5272C30.5997 22.5931 31.9143 29.2065 32.9161 36.5873L32.6194 36.6285Z" fill="#1D1D1B"/>
<path d="M33.6941 63.9992C33.2748 63.9992 32.6648 63.3935 31.6516 59.4264L31.9418 59.3523C32.9901 63.4578 33.5645 63.716 33.7135 63.6983C33.8718 63.6789 34.3897 63.2967 34.4183 59.2026L34.718 59.2048C34.6891 63.3488 34.1856 63.942 33.7503 63.9959C33.7323 63.9981 33.7135 63.9992 33.6941 63.9992Z" fill="#1D1D1B"/>
<path d="M26.0392 13.1989C23.478 11.8466 22.899 7.8416 24.4691 4.92811C26.0392 2.01435 24.7402 0.217956 25.2892 0.15008C25.8382 0.0822043 33.8377 8.21642 28.8571 12.8503L26.0392 13.1989Z" fill="#965928"/>
<path opacity="0.7" d="M25.592 12.9218C24.2535 11.3271 24.1938 8.76176 24.4897 8.65217C24.7856 8.54259 25.2406 9.93282 26.2274 10.6402C27.2142 11.3476 26.9791 5.85944 27.2199 5.17223C27.4607 4.48475 27.7024 6.19746 28.1108 6.37165C28.5192 6.54584 28.6535 4.44659 28.1871 3.00647C30.434 6.08406 31.5692 10.6059 28.8573 12.8501C25.8776 13.1069 25.8016 13.0638 25.592 12.9218Z" fill="#8C226A"/>
<path d="M26.0396 13.3486C26.0162 13.3486 25.9922 13.3428 25.9699 13.3311C24.9316 12.7829 24.1404 11.7599 23.7423 10.4509C23.1958 8.65394 23.4184 6.5626 24.3379 4.85643C25.3394 2.99761 25.1449 1.5943 25.0403 0.840302C24.9896 0.475025 24.9591 0.254496 25.0686 0.111657C25.1018 0.0683142 25.164 0.0140681 25.271 0.000710945C25.7287 -0.0502642 28.3791 2.64788 29.7285 5.54583C31.1523 8.60324 30.8864 11.1667 28.9594 12.9596C28.8987 13.0157 28.8041 13.0125 28.7477 12.9519C28.6913 12.8912 28.6949 12.7966 28.7554 12.7401C30.2252 11.3725 30.6717 9.56359 30.0827 7.36376C29.0921 3.66601 25.6574 0.383706 25.2858 0.298384C25.274 0.34527 25.3089 0.597148 25.337 0.799412C25.4462 1.58721 25.6497 3.05377 24.6014 4.99927C23.7323 6.61194 23.5129 8.66758 24.0287 10.3642C24.4087 11.614 25.1283 12.5485 26.1094 13.0664C26.1826 13.1051 26.2107 13.1959 26.172 13.269C26.1453 13.3197 26.0933 13.3486 26.0396 13.3486Z" fill="#1D1D1B"/>
<path d="M27.4285 12.865C25.4895 13.1049 26.0284 13.1106 26.0393 13.1984C26.0393 13.1984 26.2276 19.2639 26.4891 21.2615C26.5592 21.7952 26.8251 23.3885 26.8251 23.3885C26.8684 23.7396 30.62 23.2754 30.5767 22.924C30.5767 22.924 30.4467 21.3138 30.3846 20.7792C30.1519 18.7781 28.857 12.8495 28.857 12.8495C28.8463 12.7617 29.3675 12.6251 27.4285 12.865Z" fill="#C7E0ED"/>
<path d="M26.4979 13.3496C26.4979 13.3496 26.8657 20.7759 26.9905 21.1995C27.1152 21.6231 27.1095 23.0731 27.2896 23.1093C27.4697 23.1458 27.883 23.0512 27.883 23.0512C27.883 23.0512 27.4713 22.0451 27.871 21.2276C27.7999 21.2191 26.6142 18.2795 27.1111 13.2736C26.4979 13.3496 26.4979 13.3496 26.4979 13.3496Z" fill="white"/>
<path d="M27.4746 23.6648C26.7088 23.6648 26.6867 23.4871 26.6769 23.4059L26.3415 21.284L25.8901 13.2059C25.8789 13.119 25.8538 12.9165 27.4098 12.7156L27.4114 12.7153C28.9687 12.5307 28.994 12.7327 29.0063 12.83L30.5323 20.75L30.7265 22.9095C30.7399 23.0174 30.7769 23.317 28.7502 23.5675C28.1835 23.6381 27.773 23.6648 27.4746 23.6648ZM26.9671 23.3227C27.3667 23.4898 30.0778 23.154 30.4241 22.8948L30.2359 20.7922L28.7254 12.9546C28.5421 12.9309 27.9934 12.9489 27.4474 13.0132C26.9019 13.0838 26.3652 13.2005 26.1933 13.2681L26.6393 21.2524L26.9671 23.3227ZM26.9728 23.3587L26.9739 23.3645C26.9733 23.3625 26.973 23.3606 26.9728 23.3587ZM30.4279 22.9348C30.4279 22.937 30.4282 22.9395 30.4285 22.9417L30.4279 22.9348ZM26.1884 13.1792L26.1895 13.1978C26.1895 13.192 26.1892 13.1858 26.1884 13.1792ZM28.7104 12.8772C28.711 12.8821 28.7118 12.8867 28.7132 12.8911L28.7104 12.8772Z" fill="#1D1D1B"/>
<g opacity="0.36">
<path d="M26.6893 21.4001C26.5612 21.4001 26.489 21.3977 26.4852 21.3977L26.4948 21.1254C26.5141 21.1259 28.437 21.1864 30.3488 20.6483L30.4223 20.9108C28.8359 21.3571 27.2426 21.4001 26.6893 21.4001Z" fill="#003D6A"/>
</g>
<path opacity="0.45" d="M27.4285 12.8652C28.5565 14.4138 29.1689 19.6394 29.2201 22.8705C29.6304 22.8073 29.8795 22.789 30.0952 22.5011C30.1584 22.2375 28.3682 12.8551 28.3682 12.8551L27.4285 12.8652Z" fill="#2B6E99"/>
<path d="M27.8102 24.1215C27.4726 24.8305 28.5292 32.0439 28.7046 32.4808C28.8801 32.9175 28.8357 24.1872 27.8102 24.1215Z" fill="white"/>
<path opacity="0.69" d="M25.9023 2.36405C25.4171 3.09242 24.3246 5.99855 24.5142 6.58027C24.7035 7.16171 26.2799 5.1715 26.4979 3.71775C26.7158 2.26373 26.1202 2.03666 25.9023 2.36405Z" fill="white"/>
<defs>
<linearGradient id="paint0_linear_355_68785" x1="40.1425" y1="54.2699" x2="7.57813" y2="24.4839" gradientUnits="userSpaceOnUse">
<stop stop-color="#CF7502"/>
<stop offset="0.2433" stop-color="#D37A02"/>
<stop offset="0.5446" stop-color="#DF8A03"/>
<stop offset="0.8754" stop-color="#F3A305"/>
<stop offset="1" stop-color="#FCAE06"/>
</linearGradient>
</defs>
</svg>
