<svg width="79" height="64" viewBox="0 0 79 64" fill="none" xmlns="http://www.w3.org/2000/svg">
<path d="M20.0228 58.6061C29.2239 58.6061 36.6828 56.7562 36.6828 54.4743C36.6828 52.1924 29.2239 50.3425 20.0228 50.3425C10.8217 50.3425 3.36279 52.1924 3.36279 54.4743C3.36279 56.7562 10.8217 58.6061 20.0228 58.6061Z" fill="#C3DBDA"/>
<path d="M56.9675 58.6064C67.5738 58.6064 76.1719 56.3904 76.1719 53.6569C76.1719 50.9234 67.5738 48.7074 56.9675 48.7074C46.3613 48.7074 37.7632 50.9234 37.7632 53.6569C37.7632 56.3904 46.3613 58.6064 56.9675 58.6064Z" fill="#C3DBDA"/>
<path d="M39.9308 56.5885C50.5371 56.5885 59.1351 53.9538 59.1351 50.7037C59.1351 47.4537 50.5371 44.819 39.9308 44.819C29.3245 44.819 20.7264 47.4537 20.7264 50.7037C20.7264 53.9538 29.3245 56.5885 39.9308 56.5885Z" fill="#EDEBCC"/>
<path d="M38.2191 63.6552C45.6679 63.6552 51.7064 61.8048 51.7064 59.5222C51.7064 57.2397 45.6679 55.3893 38.2191 55.3893C30.7702 55.3893 24.7317 57.2397 24.7317 59.5222C24.7317 61.8048 30.7702 63.6552 38.2191 63.6552Z" fill="#C3DBDA"/>
<path d="M50.4336 44.1672L54.73 11.9448L31.0166 18.2927L35.8078 49.1205L50.4336 44.1672Z" fill="#D9A72A"/>
<path d="M54.7294 11.9455L31.6399 19.3305L17.7767 10.5071L39.3409 6.93726L42.2585 7.88713L46.1687 9.16013L54.7294 11.9455Z" fill="#F0C04A"/>
<path d="M46.1719 45.3126C46.9805 34.969 46.6909 23.8152 46.2706 13.4192C46.3688 13.4437 46.4671 13.4683 46.5654 13.4928C44.2549 11.7367 41.8189 10.3568 39.3131 9.38477L33.9136 11.5066C36.4193 12.4787 39.4528 14.0057 41.7633 15.7618C41.665 15.7373 41.5667 15.7128 41.4684 15.6882C41.8888 26.0842 42.1784 37.238 41.3697 47.5818L46.1719 45.3126Z" fill="#8FB73A"/>
<path d="M46.1686 9.15996C44.5532 9.50059 42.9045 9.75363 41.3008 10.0729C40.1886 10.2948 38.9727 10.4115 37.8918 10.7541C36.0297 11.342 34.1265 10.7347 32.2408 10.6003C35.407 9.17553 38.8023 8.25679 42.2583 7.88696L46.1686 9.15996Z" fill="#8FB73A"/>
<path d="M17.7775 10.5062L24.3638 42.6772L35.8079 49.1206L31.0167 18.2927L17.7775 10.5062Z" fill="#BA8D1E"/>
<path d="M19.6114 11.5176C20.6094 11.8016 21.4545 12.7252 22.3905 13.2839C23.7723 14.1086 25.2432 14.6869 26.6518 15.4071C27.7493 15.9681 28.8417 16.5386 29.932 17.1305C30.4326 17.4022 30.9437 17.5694 31.3245 18.08C38.0822 16.4774 44.7866 14.1076 51.5778 12.8916C51.6644 12.8761 51.6675 13.0659 51.597 13.106C48.2649 15.0016 44.7244 15.8302 41.2294 16.7684C38.0348 17.6261 34.8271 18.4027 31.6411 19.3312C31.8765 20.9168 31.9995 22.5639 32.2213 24.1512C32.5058 26.1884 32.7943 28.2244 33.0807 30.261C33.6247 34.1269 34.1792 38.0181 34.514 41.9371C34.5299 42.123 34.3372 42.1476 34.3037 41.98C33.5046 37.9891 32.9413 33.8725 32.3607 29.796C32.0892 27.8902 31.8138 25.9854 31.5464 24.0782C31.339 22.5987 31.0657 20.9923 31.0437 19.4419C30.7984 19.3553 30.6607 18.9574 30.6905 18.625C28.9831 17.4639 27.0941 16.6809 25.3442 15.7249C24.2911 15.1498 23.2833 14.4305 22.2385 13.8283C21.2984 13.2864 20.3112 12.9181 19.4265 12.1794C19.1763 11.9712 19.3547 11.4446 19.6114 11.5176Z" fill="#FFD878"/>
<path d="M35.4606 11.0278C33.4418 11.4727 31.7974 12.6225 29.7787 13.0675C28.0867 13.4404 26.1921 14.0942 24.6656 14.8905C24.7306 14.8804 23.172 14.2229 23.2334 14.199C22.1181 13.7546 22.2235 13.2613 21.1082 12.817C24.2802 12.0327 27.7315 10.8997 30.9617 10.3872C31.7626 10.2601 32.576 10.1328 33.3813 10.2283C34.1867 10.3239 34.9973 10.6733 35.469 11.3291C35.3844 11.2676 35.2998 11.2059 35.2151 11.1442" fill="#6A872A"/>
<path d="M24.6419 33.2202C25.3641 36.8286 25.8918 40.1891 26.6356 43.7874C27.8904 44.6246 29.1451 45.4618 30.3998 46.2987C30.113 46.0825 29.8416 43.2566 29.7439 42.7244C29.4979 41.3841 29.252 40.0437 29.0059 38.7034C28.514 36.0227 28.022 33.3418 27.5299 30.6612C27.0515 28.0548 26.5732 25.4485 26.095 22.8424C25.8491 21.502 25.603 20.1617 25.357 18.8211C25.1886 17.9032 25.1001 16.1251 24.6938 15.3905C23.8973 13.9557 22.1826 14.0704 21.0951 13.4465C21.4953 15.0683 21.5359 16.4112 21.7745 18.0653C22.0095 19.6939 22.3373 21.2873 22.6191 22.898C23.2276 26.3791 23.9596 29.8111 24.6419 33.2202Z" fill="#6A872A"/>
<path d="M41.326 2.47595C41.086 4.03196 40.8459 5.58817 40.6058 7.14418L41.326 2.47595Z" fill="#E6369F"/>
<path d="M37.2591 0.728143C36.9062 1.228 36.711 1.81875 36.5322 2.40308C35.6615 5.25155 35.0715 8.18489 34.7733 11.1472C35.1373 11.3662 35.6335 11.2163 35.9345 10.9172C36.2354 10.6182 36.387 10.2057 36.5299 9.80728C37.5393 6.99346 38.5487 4.17963 39.5579 1.36581C40.1466 -0.27507 38.0368 -0.373561 37.2591 0.728143Z" fill="#6A872A"/>
<path d="M42.4766 3.63394C42.6837 2.67432 42.5214 1.08406 41.5414 0.517437C41.1324 0.280941 40.3773 0.201524 39.9039 0.102448C39.5872 0.0360735 38.1169 0.175246 37.9667 0.0401611C39.6744 1.57476 38.5894 4.26109 38.0018 6.06839C37.4144 7.87531 36.3662 9.42061 35.6388 11.1446C36.8273 11.6328 39.1173 9.31395 39.8345 8.56066C41.1369 7.19307 42.0785 5.47842 42.4766 3.63394Z" fill="#8FB73A"/>
<path d="M28.186 4.00201C27.9342 3.0969 28.851 2.7985 29.585 2.93651C30.8163 3.16794 31.9606 3.99967 32.7957 4.89349C33.8245 5.99461 34.5619 7.33476 35.1579 8.71579C35.4865 9.47686 35.7671 10.3853 35.3437 11.0985C34.1174 10.5749 33.3253 9.39569 32.624 8.26673C31.9226 7.13778 31.1816 5.9407 29.9943 5.33495C29.6487 5.1586 29.2751 5.03889 28.9377 4.84775C28.6003 4.65661 28.2896 4.37417 28.186 4.00201Z" fill="#6A872A"/>
<path d="M26.3236 5.59328C27.921 8.23932 31.966 11.7784 35.3242 10.9038C34.6152 9.84185 33.185 9.30228 32.2507 8.43747C31.0817 7.35542 29.6877 6.03357 29.3171 4.425C29.1902 3.87396 29.2807 3.24408 29.6768 2.83843C28.8093 2.81079 27.9364 2.96106 27.1287 3.27697C26.6222 3.47512 26.0914 3.79999 25.9725 4.32807C25.8742 4.76583 26.0914 5.20846 26.3236 5.59328Z" fill="#8FB73A"/>
<path d="M31.6591 10.2411C32.271 10.3102 32.8678 10.4971 33.4721 10.615C34.141 10.7456 34.8157 10.8334 35.4901 10.9298C35.6379 10.951 35.6038 11.1994 35.4546 11.1898C34.2038 11.1094 32.7543 10.9601 31.6006 10.4556C31.4978 10.4105 31.5473 10.2285 31.6591 10.2411Z" fill="#6A872A"/>
<path d="M38.8359 22.747L37.848 22.4173L36.9516 22.9455L36.962 21.9098L36.1796 21.2256L37.1737 20.9152L37.5866 19.9641L38.1907 20.8081L39.2283 20.9045L38.6076 21.7364L38.8359 22.747Z" fill="#FFD878"/>
<path d="M42.0976 31.5241L41.1098 31.1944L40.2134 31.7226L40.2237 30.6869L39.4413 30.0027L40.4354 29.6923L40.8484 28.7412L41.4524 29.5852L42.49 29.6816L41.8691 30.5135L42.0976 31.5241Z" fill="#FFD878"/>
<path d="M41.0623 44.3431L40.0745 44.0133L39.1781 44.5416L39.1885 43.5059L38.406 42.8217L39.4001 42.5112L39.8131 41.5602L40.4171 42.4042L41.4547 42.5005L40.8338 43.3324L41.0623 44.3431Z" fill="#FFD878"/>
<path d="M37.6102 35.2714L36.6223 34.9417L35.7259 35.4699L35.7363 34.4342L34.9539 33.7498L35.948 33.4396L36.3609 32.4885L36.965 33.3325L38.0026 33.4289L37.3819 34.2608L37.6102 35.2714Z" fill="#FFD878"/>
<path d="M29.6421 21.736L28.909 21.2811L28.1481 21.6885L28.2758 20.6631L27.7441 19.8835L28.5562 19.7047L28.9883 18.8153L29.3625 19.7303L30.1614 19.9604L29.5806 20.7046L29.6421 21.736Z" fill="#D9A72A"/>
<path d="M25.9508 40.2749L25.2177 39.82L24.4568 40.2274L24.5845 39.202L24.0529 38.4224L24.8649 38.2435L25.297 37.3544L25.6712 38.2692L26.4701 38.4993L25.8893 39.2434L25.9508 40.2749Z" fill="#D9A72A"/>
<path d="M30.468 33.3686L29.7347 32.9137L28.974 33.3211L29.1016 32.2957L28.5698 31.5162L29.3818 31.3373L29.8142 30.4481L30.1884 31.363L30.9873 31.593L30.4063 32.3372L30.468 33.3686Z" fill="#D9A72A"/>
<path d="M23.9226 28.6162L23.1895 28.1613L22.4286 28.5687L22.5562 27.5433L22.0244 26.7637L22.8364 26.5848L23.2688 25.6957L23.643 26.6105L24.4418 26.8406L23.8609 27.5847L23.9226 28.6162Z" fill="#D9A72A"/>
<path d="M30.5249 27.201L30.2021 27.0007L29.8668 27.1801L29.9232 26.7284L29.6888 26.385L30.0466 26.3062L30.2371 25.9146L30.4018 26.3175L30.7538 26.4189L30.4979 26.7467L30.5249 27.201Z" fill="#D9A72A"/>
<path d="M28.9458 28.7192L28.623 28.5189L28.2877 28.6984L28.3439 28.2466L28.1097 27.9033L28.4675 27.8244L28.6578 27.4326L28.8227 27.8357L29.1745 27.9371L28.9188 28.2649L28.9458 28.7192Z" fill="#D9A72A"/>
<path d="M32.1545 40.5547L31.8316 40.3542L31.4964 40.5337L31.5525 40.0821L31.3184 39.7385L31.6761 39.6599L31.8664 39.2681L32.0313 39.6712L32.3832 39.7724L32.1274 40.1004L32.1545 40.5547Z" fill="#D9A72A"/>
<path d="M32.1545 36.2676L31.8316 36.0671L31.4964 36.2466L31.5525 35.795L31.3184 35.4514L31.6761 35.3728L31.8664 34.981L32.0313 35.3841L32.3832 35.4853L32.1274 35.8133L32.1545 36.2676Z" fill="#D9A72A"/>
<path d="M23.8969 32.7087L23.5738 32.5084L23.2388 32.6879L23.295 32.2361L23.0608 31.8928L23.4183 31.8139L23.6089 31.4221L23.7737 31.8252L24.1256 31.9265L23.8697 32.2544L23.8969 32.7087Z" fill="#D9A72A"/>
<path d="M21.136 17.4388L20.8129 17.2385L20.4777 17.418L20.5341 16.9662L20.2997 16.6229L20.6574 16.544L20.8479 16.1522L21.0126 16.5553L21.3647 16.6567L21.1088 16.9845L21.136 17.4388Z" fill="#D9A72A"/>
<path d="M27.6287 23.5889L27.3058 23.3884L26.9706 23.5678L27.027 23.1163L26.7926 22.7727L27.1503 22.6941L27.3409 22.3022L27.5055 22.7054L27.8576 22.8066L27.6017 23.1346L27.6287 23.5889Z" fill="#D9A72A"/>
<path d="M21.4119 22.0978L21.089 21.8975L20.7538 22.0769L20.81 21.6252L20.5758 21.2818L20.9335 21.203L21.1239 20.8112L21.2887 21.2143L21.6406 21.3157L21.3849 21.6435L21.4119 22.0978Z" fill="#D9A72A"/>
<path d="M35.0264 15.8703L34.0336 15.9087L33.2428 16.506L33.1151 15.7989L32.2729 15.5414L33.1866 15.066L33.457 14.3094L34.1494 14.7231L35.1586 14.5129L34.6728 15.2438L35.0264 15.8703Z" fill="#FFD878"/>
<path d="M46.0436 10.763L45.3794 10.7885L44.8501 11.1883L44.7646 10.7151L44.201 10.5428L44.8126 10.2248L44.9935 9.71851L45.4568 9.9951L46.1321 9.85457L45.8071 10.3435L46.0436 10.763Z" fill="#FFD878"/>
<path d="M25.1726 11.0249L24.5084 11.0506L23.9792 11.4504L23.8936 10.9773L23.3301 10.8048L23.9416 10.4867L24.1225 9.98047L24.5858 10.2573L25.2611 10.1165L24.9361 10.6057L25.1726 11.0249Z" fill="#FFD878"/>
<path d="M49.2526 12.0448L48.8565 12.06L48.5407 12.2984L48.4898 12.0162L48.1536 11.9134L48.5184 11.7237L48.6262 11.4218L48.9025 11.5868L49.3055 11.5029L49.1115 11.7945L49.2526 12.0448Z" fill="#FFD878"/>
<path d="M34.3478 12.7274L33.9517 12.7427L33.636 12.9812L33.5849 12.6989L33.2489 12.5962L33.6135 12.4064L33.7214 12.1045L33.9977 12.2694L34.4006 12.1857L34.2066 12.4772L34.3478 12.7274Z" fill="#FFD878"/>
<path d="M49.2578 22.747L48.2702 22.4173L47.3737 22.9455L47.3839 21.9098L46.6017 21.2256L47.5958 20.9152L48.0086 19.9641L48.6128 20.8081L49.6502 20.9045L49.0295 21.7364L49.2578 22.747Z" fill="#FFD878"/>
<path d="M51.2068 31.5241L50.219 31.1944L49.3226 31.7226L49.333 30.6869L48.5505 30.0027L49.5446 29.6923L49.9576 28.7412L50.5617 29.5852L51.5992 29.6816L50.9785 30.5135L51.2068 31.5241Z" fill="#FFD878"/>
<path d="M49.2342 38.6467L48.2464 38.317L47.3499 38.8451L47.3603 37.8093L46.5779 37.1252L47.572 36.8147L47.9849 35.8636L48.589 36.7076L49.6266 36.804L49.0059 37.6359L49.2342 38.6467Z" fill="#FFD878"/>
<path d="M48.5271 17.2537L48.1768 17.1369L47.8588 17.3241L47.8623 16.9568L47.5848 16.7141L47.9375 16.6039L48.0839 16.2666L48.2982 16.566L48.6663 16.6L48.446 16.8953L48.5271 17.2537Z" fill="#FFD878"/>
<path d="M39.4986 37.9006L39.1483 37.7836L38.8303 37.971L38.8341 37.6035L38.5564 37.3608L38.909 37.2509L39.0555 36.9133L39.2699 37.2129L39.6378 37.247L39.4177 37.542L39.4986 37.9006Z" fill="#FFD878"/>
<path d="M52.3055 23.8334L51.955 23.7165L51.637 23.9039L51.6407 23.5364L51.3633 23.2937L51.7157 23.1835L51.8622 22.8462L52.0766 23.1456L52.4445 23.1798L52.2244 23.4749L52.3055 23.8334Z" fill="#FFD878"/>
<path d="M51.7649 17.7825L51.4146 17.6655L51.0966 17.8529L51.1001 17.4854L50.8226 17.2427L51.1753 17.1327L51.3217 16.7954L51.536 17.0946L51.9041 17.1288L51.684 17.4239L51.7649 17.7825Z" fill="#FFD878"/>
<path d="M49.0678 27.0161L48.7175 26.8991L48.3995 27.0866L48.4033 26.7193L48.1256 26.4765L48.4783 26.3664L48.6247 26.0291L48.8391 26.3284L49.2071 26.3625L48.987 26.6578L49.0678 27.0161Z" fill="#FFD878"/>
<path d="M49.4074 41.378L49.0569 41.261L48.7389 41.4485L48.7427 41.081L48.4652 40.8382L48.8179 40.7281L48.9641 40.3907L49.1785 40.6901L49.5465 40.7244L49.3264 41.0195L49.4074 41.378Z" fill="#FFD878"/>
<path d="M37.9283 26.5468L37.5778 26.4298L37.26 26.6173L37.2635 26.2498L36.9861 26.0071L37.3387 25.8971L37.4852 25.5596L37.6994 25.8589L38.0675 25.8932L37.8472 26.1883L37.9283 26.5468Z" fill="#FFD878"/>
<path d="M35.7258 25.5482L35.3755 25.4312L35.0575 25.6187L35.061 25.2512L34.7836 25.0087L35.1362 24.8985L35.2827 24.5612L35.4969 24.8605L35.865 24.8946L35.6447 25.1899L35.7258 25.5482Z" fill="#FFD878"/>
<path d="M24.7547 14.1973C24.1797 13.9149 23.5997 13.6424 23.0211 13.3675C22.5034 13.1217 21.9663 12.7704 21.3967 12.6814C21.0847 12.6328 20.7867 12.9969 21.0618 13.2533C21.4852 13.648 22.0694 13.8522 22.586 14.1076C23.1599 14.3914 23.7324 14.6775 24.3101 14.9537C24.8176 15.1963 25.265 14.448 24.7547 14.1973Z" fill="#8FB73A"/>
<path d="M46.1181 13.9565C44.9787 14.2911 43.832 14.6025 42.6993 14.9595C41.1227 15.4564 40.8252 15.3827 41.4827 16.9455C42.9873 16.2872 44.9855 15.6009 46.6148 15.3865C46.7595 15.3673 47.0989 13.6684 46.1181 13.9565Z" fill="#AED164"/>
<path d="M41.9078 4.3799C41.8773 4.24306 41.6781 4.14671 41.5573 4.2382C41.0921 4.59012 40.9909 5.11236 40.733 5.62389C40.3782 6.32754 39.9638 7.00122 39.4849 7.62798C39.0359 8.21562 38.5323 8.75811 37.9827 9.25426C37.4293 9.75392 36.7657 10.151 36.2729 10.7104C36.1407 10.8605 36.2656 11.1085 36.4738 11.0536C37.8997 10.6775 39.1777 9.24044 40.0645 8.13426C40.5256 7.55927 40.9448 6.9473 41.2949 6.29893C41.6071 5.72102 42.0568 5.04793 41.9078 4.3799Z" fill="#AED164"/>
<path d="M41.0581 2.47202C40.9067 2.47884 40.7358 2.60614 40.7532 2.77509C40.7553 2.7967 40.7577 2.8183 40.7598 2.83991C40.7755 2.99368 40.8857 3.14414 41.0581 3.13636C41.2333 3.12857 41.3394 3.00575 41.3563 2.83991C41.3584 2.8183 41.3608 2.7967 41.3629 2.77509C41.3792 2.61704 41.2112 2.46521 41.0581 2.47202Z" fill="#AED164"/>
<path d="M63.9797 33.267L62.6502 38.9021V38.904L62.3897 40.0077L60.5726 47.7177L60.3259 48.761L58.5617 56.2452L52.4388 54.8787L51.6204 54.6958L45.8989 53.4189L45.098 53.2398C45.0961 53.2398 45.0961 53.2398 45.0961 53.2398L42.0219 52.5547L41.2915 48.94L41.1643 48.3172L40.1715 43.4043L40.0462 42.7833L39.2434 38.8145L39.1475 38.3434L38.5972 35.6242L38.4641 34.9683L37.8277 31.8169L37.7044 31.2096L37.1639 28.5352L40.5005 29.123L41.3425 29.2729L44.6751 29.8607L45.5836 30.0203C45.5856 30.0203 45.5856 30.0203 45.5856 30.0203L49.2981 30.6763L50.0754 30.8145L55.2075 31.7196L56.1592 31.887L61.8943 32.8991L62.6443 33.0315L63.9797 33.267Z" fill="#BF2525"/>
<path d="M41.3423 29.2732C40.5806 29.789 39.7954 30.2717 39.0572 30.8265C38.6363 31.1437 38.2309 31.4785 37.8276 31.8172L37.7042 31.2099C38.5716 30.4352 39.5311 29.717 40.5003 29.1233L41.3423 29.2732Z" fill="#D93D2A"/>
<path d="M45.5838 30.0205C44.6008 30.7504 43.6081 31.4706 42.6545 32.2316C41.276 33.3314 39.9582 34.5051 38.5974 35.6243L38.4642 34.9684C39.7154 33.8219 41.0587 32.7552 42.3765 31.7003C43.1323 31.093 43.8959 30.4662 44.6752 29.8608L45.5838 30.0205Z" fill="#D93D2A"/>
<path d="M50.0756 30.8145C49.7603 31.0422 49.447 31.2699 49.1396 31.5016C47.9491 32.3989 46.7566 33.2904 45.5622 34.1799C43.4651 35.7371 41.37 37.2943 39.2435 38.8145L39.1476 38.3434C41.0684 36.8485 43.0148 35.3848 44.963 33.921C46.1536 33.0276 47.346 32.1361 48.5424 31.2505C48.795 31.0636 49.0476 30.8709 49.2982 30.6763L50.0756 30.8145Z" fill="#D93D2A"/>
<path d="M56.1592 31.8872C55.3192 32.4167 54.4674 32.9267 53.6783 33.4697C51.8945 34.6921 50.1264 35.9359 48.3759 37.2031C45.5974 39.2118 42.8718 41.2926 40.1716 43.4045L40.0463 42.7836C42.5193 40.7924 45.0491 38.8731 47.6162 37.0026C49.4137 35.6946 51.2288 34.4118 53.0674 33.1602C53.7782 32.6756 54.4909 32.1948 55.2076 31.7198L56.1592 31.8872Z" fill="#D93D2A"/>
<path d="M62.6442 33.0315C61.1756 34.1722 59.5348 35.1065 57.9899 36.142C56.3353 37.2515 54.6964 38.3843 53.0829 39.5503C50.3044 41.5551 44.9354 45.9464 41.2915 48.9401L41.1642 48.3172C44.6633 45.3371 49.6994 41.1931 52.3056 39.2933C54.0111 38.0495 55.742 36.8369 57.5003 35.6671C58.9278 34.7152 60.363 33.6914 61.8943 32.8992L62.6442 33.0315Z" fill="#D93D2A"/>
<path d="M62.65 38.9043L62.3896 40.008C61.6729 40.5997 60.9485 41.1817 60.2259 41.7656C58.7221 42.9861 57.2105 44.2007 55.7028 45.4172C53.3551 47.3092 49.1217 50.9121 45.8987 53.4192L45.0979 53.2401C48.2837 50.4936 53.0144 46.7428 55.5383 44.7087C57.0969 43.4513 58.6536 42.1938 60.2161 40.9423C60.9876 40.3252 61.7963 39.5525 62.65 38.9043Z" fill="#D93D2A"/>
<path d="M60.5726 47.7178L60.3259 48.7611C60.0263 48.981 59.7287 49.1951 59.4546 49.4132C58.5461 50.1333 57.6355 50.8477 56.7192 51.5582C55.3015 52.6521 53.9074 53.8317 52.4388 54.8789L51.6204 54.6959C53.1849 53.3314 54.9138 52.1168 56.5469 50.8458C57.4319 50.1567 58.3248 49.4774 59.2196 48.7981C59.6621 48.4613 60.1066 48.0681 60.5726 47.7178Z" fill="#D93D2A"/>
<path d="M79 27.4628L63.7506 33.2672L56.0554 31.9085C56.0554 31.9085 56.0553 31.9085 56.0534 31.9085L54.1521 31.5737H54.1501L50.8058 30.9839H50.796L49.0063 30.6647C49.0043 30.6647 49.0043 30.6647 49.0043 30.6647L44.6946 29.9037H44.6927L43.8742 29.7596L41.4521 29.3314H41.4501L40.5259 29.1698L36.9348 28.5353L44.3187 26.0886L47.7531 24.9518L54.6201 22.6764L58.1799 23.3752L60.0694 23.747L63.7564 24.471C63.7564 24.471 63.7564 24.471 63.7584 24.471L65.9749 24.9051C65.9769 24.9051 65.9769 24.9051 65.9769 24.9051L69.3761 25.5747C69.3761 25.5747 69.3781 25.5727 69.38 25.5747L71.6572 26.0204C71.6592 26.0204 71.6592 26.0204 71.6612 26.0204L79 27.4628Z" fill="#F04832"/>
<path d="M66.5955 31.8404C64.7586 32.1234 62.9034 32.1835 61.0675 32.4408C60.7961 32.4788 60.8836 32.8782 61.1292 32.8934C62.9913 33.0082 64.9188 32.7017 66.7567 32.4212C67.1404 32.3626 66.9777 31.7816 66.5955 31.8404Z" fill="#F77261"/>
<path d="M70.4002 30.4392C67.6902 30.7156 64.9802 30.9939 62.2683 31.2684C60.9133 31.4046 59.5583 31.5428 58.2014 31.6732C57.4945 31.7414 56.7759 31.8387 56.0553 31.9088C56.0553 31.9088 56.0553 31.9088 56.0534 31.9088L54.1521 31.574C55.4033 31.2801 56.7309 31.2372 58.0075 31.1049C59.3625 30.9667 60.7195 30.8343 62.0744 30.7C64.849 30.4256 67.6256 30.1569 70.4002 29.8883C70.7585 29.8533 70.7526 30.4041 70.4002 30.4392Z" fill="#F77261"/>
<path d="M76.4252 27.8385C71.9295 28.5509 67.3672 28.9675 62.8479 29.5222C60.5355 29.8064 58.2249 30.0906 55.9125 30.367C54.2285 30.5694 52.5132 30.8517 50.8058 30.984H50.796L49.0063 30.6648C51.1837 30.1217 53.4942 29.9641 55.7186 29.6857C57.9665 29.4035 60.2143 29.1251 62.4622 28.8487C67.0774 28.2823 71.7023 27.5621 76.3331 27.1572C76.7248 27.1222 76.8109 27.7762 76.4252 27.8385Z" fill="#F77261"/>
<path d="M71.6572 26.0206C67.0538 26.3807 62.4602 26.8926 57.892 27.568C53.4687 28.222 49.0983 29.1447 44.6946 29.9038H44.6927L43.8742 29.7598C43.8722 29.6702 43.9212 29.5826 44.0406 29.5515C48.6323 28.3155 53.3963 27.5817 58.0996 26.8965C61.8454 26.3495 65.6048 25.9096 69.3761 25.5748C69.3761 25.5748 69.378 25.5729 69.38 25.5748L71.6572 26.0206Z" fill="#F77261"/>
<path d="M65.9749 24.9053C63.962 25.2926 61.8845 25.4658 59.8618 25.7792C57.7118 26.1121 55.5678 26.4741 53.4276 26.8654C51.2248 27.2663 49.0278 27.7004 46.8387 28.1637C45.0549 28.5413 43.2613 29.0551 41.452 29.3315H41.4501L40.5259 29.17C40.5376 29.0746 40.5925 28.9831 40.6904 28.9461C42.7659 28.1812 45.0568 27.8366 47.2186 27.3831C49.347 26.9374 51.4813 26.5208 53.6214 26.1315C55.8243 25.7325 58.031 25.3627 60.2456 25.0259C61.4048 24.8488 62.5796 24.6366 63.7564 24.4712C63.7564 24.4712 63.7564 24.4712 63.7584 24.4712L65.9749 24.9053Z" fill="#F77261"/>
<path d="M60.0696 23.7469C57.2636 24.1965 54.4616 24.6462 51.6499 25.0588C50.1911 25.2729 48.7323 25.4832 47.2697 25.6817C46.32 25.8102 45.3077 26.0223 44.3188 26.0885L47.7533 24.9518C49.0574 24.7688 50.3595 24.58 51.6616 24.3873C53.8351 24.0642 56.0105 23.7333 58.18 23.3751L60.0696 23.7469Z" fill="#F77261"/>
<path d="M76.8763 28.2172C75.7477 28.4289 74.7921 29.1172 73.7338 29.5337C72.1712 30.1484 70.5081 30.5796 68.9152 31.1162C67.6742 31.5343 66.439 31.9596 65.206 32.4007C64.6399 32.6033 64.0619 32.7279 63.6313 33.1084C55.9898 31.9139 48.4083 30.1475 40.7292 29.2412C40.6313 29.2297 40.6277 29.371 40.7074 29.401C44.4753 30.8139 48.479 31.4316 52.4312 32.1309C56.0436 32.7702 59.6707 33.349 63.2736 34.0412C63.0075 35.2231 62.8683 36.4507 62.6176 37.634C62.2959 39.1526 61.9697 40.6701 61.6458 42.1882C61.0308 45.0697 60.4036 47.9704 60.0252 50.8914C60.0071 51.03 60.2251 51.0483 60.2631 50.9234C61.1667 47.9486 61.8037 44.8801 62.4602 41.8417C62.7672 40.4212 63.0786 39.0014 63.3811 37.5797C63.6157 36.4768 63.9246 35.2793 63.9493 34.1239C64.2268 34.0593 64.3824 33.7629 64.3488 33.5151C66.2794 32.6497 68.4155 32.0659 70.3943 31.3535C71.585 30.9249 72.7246 30.3886 73.9063 29.9398C74.9693 29.5359 76.0858 29.2612 77.086 28.7108C77.3682 28.5553 77.1665 28.1628 76.8763 28.2172Z" fill="#F77261"/>
<path d="M46.841 53.6534C45.9264 45.9435 46.254 37.384 46.7294 29.6349C46.6182 29.6532 46.507 29.6715 46.3959 29.6898C49.0086 28.3808 51.7634 27.3523 54.5969 26.6278L60.0272 28.3191C57.1937 29.0438 54.4391 30.0723 51.8263 31.3813C51.9375 31.363 52.0487 31.3447 52.1597 31.3264C51.6843 39.0753 51.3567 47.1438 52.2713 54.8538L46.841 53.6534Z" fill="#D6C48B"/>
<path d="M62.5954 28.0019C60.4634 28.1531 58.3094 28.8416 56.2054 28.1751C54.983 27.788 53.6081 27.657 52.349 27.4059C49.8086 26.8992 47.1678 26.5405 44.6746 25.8551C46.1085 24.9014 48.472 24.7013 50.1421 24.829C54.4363 25.1575 58.6714 26.2366 62.5954 28.0019Z" fill="#E2D4A7"/>
<path d="M78.9489 27.4626L78.7512 28.1011L78.5338 28.7979L76.3839 35.7254L76.1332 36.5274V36.5293L73.9931 43.4237V43.4257L73.6582 44.4982V44.5001L71.5024 51.4432L61.8765 55.015L60.9602 55.3556L58.5615 56.2452L63.9795 33.267L78.9489 27.4626Z" fill="#D93D2A"/>
<path d="M78.7514 28.1014L78.5341 28.7983C77.5198 29.6567 76.3195 30.3574 75.2386 31.1107C73.8758 32.0625 72.5111 33.0143 71.1482 33.9662C68.452 35.8465 65.7968 37.9993 62.9126 39.5856C62.7481 39.6752 62.5582 39.4494 62.707 39.319C65.1095 37.2324 67.9468 35.537 70.5569 33.7151C71.9217 32.7652 73.2845 31.8134 74.6493 30.8615C75.9768 29.937 77.2946 28.8139 78.7514 28.1014Z" fill="#F04832"/>
<path d="M76.384 35.7257L76.1334 36.5277V36.5296C73.8463 38.0615 71.6004 39.6537 69.3996 41.3062C66.5662 43.4337 63.915 45.7948 61.0856 47.9204C60.9055 48.0547 60.7018 47.7666 60.8506 47.6187C63.3217 45.17 66.206 43.0503 68.9845 40.9598C71.3988 39.1418 73.8679 37.3977 76.384 35.7257Z" fill="#F04832"/>
<path d="M73.9931 43.4257L73.6582 44.4982V44.5001C73.3371 44.7415 73.0003 44.9712 72.6968 45.2125C72.1368 45.6544 71.5807 46.1021 71.0286 46.5556C69.9281 47.4626 68.8434 48.3931 67.7801 49.3449C65.7476 51.1629 63.8914 53.1794 61.8765 55.015L60.9602 55.3556C60.9543 55.3011 60.97 55.2408 61.013 55.1863C62.8967 52.7785 65.311 50.6821 67.5902 48.6539C68.7454 47.6242 69.9222 46.6237 71.1225 45.6466C72.0095 44.9283 72.9533 43.9746 73.9931 43.4257Z" fill="#F04832"/>
<path d="M58.9539 28.4857C61.2368 28.9889 63.5196 29.4923 65.8025 29.9954C67.7157 30.4172 69.7621 30.2582 71.4885 31.1588C71.4151 31.1473 71.3436 31.1281 71.2739 31.101C72.5351 30.5986 73.7963 30.0962 75.0575 29.5939C71.4705 28.707 67.694 28.3409 64.0412 27.7615C63.1356 27.6178 62.2157 27.4738 61.3052 27.5818C60.3945 27.6898 59.4779 28.085 58.9443 28.8266C59.0401 28.7569 59.1358 28.6872 59.2314 28.6175" fill="#ECE1C3"/>
<path d="M71.1874 44.3942C70.3462 47.0763 69.7527 49.7225 68.9115 52.4048C67.4512 53.0471 64.5959 54.0118 64.6748 53.9771C64.9991 53.816 65.3077 51.8753 65.4181 51.4786C65.6963 50.4795 65.9744 49.4804 66.2526 48.4813C66.8089 46.483 67.3654 44.485 67.9217 42.4867C68.4625 40.5441 69.0035 38.6013 69.5443 36.6586C69.8226 35.6594 70.1006 34.6603 70.3789 33.6614C70.5694 32.9772 70.6695 31.6518 71.1286 31.1041C72.0293 30.0347 73.9684 30.1202 75.1981 29.6552C74.7456 30.8639 74.6995 31.865 74.4297 33.0979C74.164 34.3119 73.7926 35.4994 73.475 36.7002C72.7885 39.2883 71.9651 41.8331 71.1874 44.3942Z" fill="#ECE1C3"/>
<path d="M52.3213 18.8153C52.5927 20.5749 52.8641 22.3345 53.1356 24.0941L52.3213 18.8153Z" fill="#00B2C5"/>
<path d="M56.9202 16.8389C57.3193 17.4042 57.5399 18.0722 57.742 18.733C58.7267 21.9543 59.3938 25.2711 59.731 28.6209C59.3192 28.8685 58.7583 28.699 58.4179 28.3609C58.0776 28.0228 57.9061 27.5564 57.7446 27.1058C56.6032 23.9239 55.4618 20.7422 54.3205 17.5603C53.6549 15.7045 56.0408 15.593 56.9202 16.8389Z" fill="#D6C48B"/>
<path d="M51.0202 20.1245C50.7861 19.0396 50.9695 17.241 52.0778 16.6004C52.5405 16.333 53.3942 16.2431 53.9295 16.1309C54.2875 16.056 55.9503 16.2133 56.12 16.0607C54.189 17.7961 55.4159 20.8338 56.0803 22.8774C56.7447 24.9206 57.9297 26.668 58.7523 28.6176C57.4084 29.1694 54.8189 26.5475 54.0077 25.6957C52.5352 24.149 51.4704 22.2104 51.0202 20.1245Z" fill="#ECE1C3"/>
<path d="M67.1794 20.5409C67.4641 19.5172 66.4275 19.1799 65.5975 19.336C64.2051 19.5976 62.9112 20.5381 61.9668 21.5489C60.8035 22.7941 59.9696 24.3094 59.2956 25.8711C58.9242 26.7316 58.6068 27.759 59.0855 28.5656C60.4722 27.9735 61.3678 26.6401 62.1611 25.3636C62.9541 24.0871 63.7919 22.7334 65.1348 22.0484C65.5256 21.8491 65.948 21.7136 66.3296 21.4976C66.711 21.2811 67.0623 20.9617 67.1794 20.5409Z" fill="#D6C48B"/>
<path d="M69.2857 22.3404C67.4794 25.3326 62.9055 29.3345 59.1077 28.3457C59.9093 27.1447 61.5267 26.5347 62.5832 25.5568C63.9051 24.3334 65.4814 22.8384 65.9004 21.0196C66.0439 20.3965 65.9417 19.6841 65.4937 19.2253C66.4747 19.1942 67.4616 19.3639 68.375 19.7213C68.9477 19.9453 69.5481 20.3126 69.6826 20.9098C69.7938 21.4048 69.5483 21.9052 69.2857 22.3404Z" fill="#ECE1C3"/>
<path d="M63.2524 27.5964C62.5604 27.6745 61.8854 27.8858 61.2023 28.0194C60.4459 28.1671 59.683 28.2664 58.9203 28.3754C58.7531 28.3993 58.7919 28.6802 58.9603 28.6693C60.3748 28.5784 62.0137 28.4096 63.3184 27.8389C63.4347 27.7879 63.3787 27.5822 63.2524 27.5964Z" fill="#E2D4A7"/>
<path d="M52.0581 31.0039C51.3365 30.6294 50.4742 30.5344 49.6845 30.3526C48.7891 30.1465 47.8897 29.9006 46.9796 29.7712C46.6135 29.719 46.4553 30.2123 46.8234 30.3343C47.6943 30.6228 48.6083 30.8016 49.5008 31.0146C50.2894 31.2028 51.1108 31.5074 51.9249 31.4926C52.1761 31.4882 52.2977 31.1285 52.0581 31.0039Z" fill="#ECE1C3"/>
<path d="M74.768 29.3864C74.1201 29.3815 73.5816 29.8742 72.9646 30.0797C72.2924 30.3038 71.5847 30.419 70.9198 30.6559C70.702 30.7333 70.7201 31.0843 70.9772 31.0771C71.6979 31.0567 72.4285 30.8285 73.112 30.6115C73.4488 30.5046 73.7747 30.353 74.112 30.2528C74.5344 30.1272 74.6808 30.1936 74.9659 29.8617C75.1193 29.683 75.0235 29.3883 74.768 29.3864Z" fill="#FFFCF5"/>
<path d="M67.3835 22.4028C66.5879 23.8961 65.5513 24.9431 64.2805 26.0407C64.08 26.214 64.3355 26.4752 64.5447 26.3812C66.0483 25.7044 67.2956 24.2178 67.9462 22.7298C68.1089 22.3574 67.5844 22.0255 67.3835 22.4028Z" fill="#FFFCF5"/>
<path d="M67.9166 20.7611C67.7018 20.7611 67.496 20.9489 67.5058 21.1695C67.5158 21.3908 67.6864 21.5778 67.9166 21.5778C68.1314 21.5778 68.3372 21.39 68.3274 21.1695C68.3173 20.9482 68.1469 20.7611 67.9166 20.7611Z" fill="#FFFCF5"/>
<path d="M55.4934 22.6032C55.3115 21.7239 54.7398 20.9568 54.5381 20.0558C54.318 19.0719 54.3454 18.0908 54.3998 17.0923C54.4124 16.8638 54.0707 16.8299 54.0076 17.0396C53.7116 18.0254 53.7132 19.0545 53.9035 20.0624C54.0707 20.9473 54.394 22.2314 55.1367 22.8095C55.3023 22.9385 55.539 22.8231 55.4934 22.6032Z" fill="#FFFCF5"/>
<path d="M32.7013 54.4976L36.9977 33.2577L13.2843 37.442L18.0755 57.7628L32.7013 54.4976Z" fill="#8FB73A"/>
<path d="M37.1996 33.2575L21.5601 28.0756L0 32.3091L13.4862 37.4418L37.1996 33.2575Z" fill="#A4CC4B"/>
<path d="M28.4396 55.2525C29.2483 48.4343 28.9587 41.0819 28.5383 34.2292C28.6366 34.2453 28.7349 34.2615 28.8334 34.2776C26.5229 33.1201 24.0868 32.2105 21.5811 31.5697L16.7789 33.0654C19.2847 33.7062 21.7207 34.6157 24.0312 35.7733C23.9329 35.7571 23.8346 35.741 23.7363 35.7248C24.1569 42.5776 24.4463 49.9298 23.6377 56.7481L28.4396 55.2525Z" fill="#D93D2A"/>
<path d="M14.5081 32.7853C16.3935 32.919 18.2983 33.5279 20.1588 32.9385C21.2399 32.5961 22.4557 32.4803 23.5692 32.2582C25.8159 31.8101 28.1511 31.4928 30.3561 30.8867C29.088 30.0433 26.9978 29.8663 25.521 29.9792C21.7233 30.2698 17.9781 31.2242 14.5081 32.7853Z" fill="#F04832"/>
<path d="M0.045166 32.3091L6.63152 53.5151L18.0756 57.7625L13.2844 37.4417L0.045166 32.3091Z" fill="#6A872A"/>
<path d="M1.879 32.976C2.87703 33.1632 3.72213 33.7719 4.65808 34.1402C6.03989 34.6838 7.51079 35.0649 8.91943 35.5397C10.0169 35.9095 11.1093 36.2856 12.1996 36.6756C12.7003 36.8549 13.2113 36.9651 13.5922 37.3016C20.3498 36.2453 27.0543 34.683 33.8454 33.8817C33.932 33.8715 33.9351 33.9965 33.8646 34.023C30.5326 35.2726 26.992 35.8188 23.4969 36.4372C20.3023 37.0024 17.0946 37.5144 13.9086 38.1265C14.1439 39.1718 14.2671 40.2573 14.4888 41.3038C14.7733 42.6466 15.0617 43.9887 15.3482 45.3312C15.8921 47.8795 16.4466 50.4444 16.7815 53.0278C16.7973 53.1502 16.6047 53.1666 16.5712 53.056C15.7721 50.4253 15.2087 47.7118 14.6282 45.0246C14.3566 43.7684 14.0813 42.5127 13.8138 41.2557C13.6065 40.2805 13.3331 39.2214 13.3112 38.1995C13.0658 38.1425 12.9282 37.8803 12.9579 37.6611C11.2505 36.8958 9.36156 36.3796 7.61163 35.7495C6.55859 35.3703 5.55077 34.8964 4.50594 34.4993C3.56587 34.1421 2.57862 33.8992 1.69396 33.4124C1.44392 33.2749 1.6223 32.9279 1.879 32.976Z" fill="#B4D66D"/>
<path d="M17.7283 33.2131C15.7095 33.658 13.6907 34.1032 11.672 34.5481C9.97999 34.9211 8.17034 34.7806 6.64364 35.577C6.70864 35.5669 6.77189 35.55 6.83337 35.5259C5.71806 35.0815 4.60274 34.6373 3.48743 34.1929C6.6595 33.4087 9.99918 33.085 13.2294 32.5725C14.0303 32.4454 14.8436 32.3181 15.649 32.4136C16.4543 32.5092 17.265 32.8586 17.7367 33.5144C17.6521 33.4529 17.5675 33.3912 17.4827 33.3295" fill="#F04832"/>
<path d="M6.90964 47.2815C7.63177 49.6599 8.15947 51.8752 8.90334 54.2472C10.1581 54.799 11.4128 55.3508 12.6675 55.9027C12.3807 55.7602 12.1093 53.8974 12.0116 53.5467C11.7656 52.6632 11.5197 51.7797 11.2736 50.8961C10.7817 49.1291 10.2897 47.3619 9.79759 45.5949C9.31924 43.877 8.84088 42.159 8.36272 40.441C8.11679 39.5575 7.87066 38.674 7.62472 37.7903C7.45633 37.1852 7.36783 36.0132 6.96153 35.5289C6.16498 34.5833 4.4503 34.6588 3.36279 34.2476C3.76302 35.3166 3.80355 36.2018 4.04224 37.292C4.27721 38.3657 4.60499 39.4158 4.88676 40.4776C5.49532 42.7721 6.22725 45.0345 6.90964 47.2815Z" fill="#BF2525"/>
<path d="M23.5936 24.6613C23.3535 26.2173 23.1135 27.7735 22.8734 29.3295L23.5936 24.6613Z" fill="#E6369F"/>
<path d="M19.5267 22.9134C19.1738 23.4133 18.9786 24.004 18.7998 24.5884C17.9291 27.437 17.3389 30.3702 17.0409 33.3327C17.4049 33.5517 17.9011 33.4016 18.202 33.1026C18.503 32.8037 18.6545 32.3912 18.7975 31.9928C19.8069 29.1789 20.8162 26.3651 21.8254 23.5513C22.4142 21.9102 20.3044 21.8117 19.5267 22.9134Z" fill="#BF2525"/>
<path d="M24.7441 25.8191C24.9513 24.8595 24.789 23.2692 23.809 22.7026C23.3999 22.4661 22.6449 22.3867 22.1714 22.2874C21.8548 22.221 20.3845 22.3602 20.2343 22.2251C21.9419 23.7599 20.857 26.446 20.2694 28.2533C19.6819 30.0602 18.6338 31.6055 17.9064 33.3295C19.0949 33.8175 21.3849 31.4989 22.1021 30.7456C23.4044 29.3782 24.3461 27.6635 24.7441 25.8191Z" fill="#F04832"/>
<path d="M10.4536 26.1873C10.2018 25.2822 11.1185 24.9838 11.8526 25.1218C13.0839 25.3532 14.2281 26.185 15.0633 27.0788C16.092 28.1799 16.8294 29.5201 17.4257 30.9011C17.7542 31.6622 18.0348 32.5706 17.6115 33.2838C16.3852 32.7602 15.5931 31.581 14.8917 30.4522C14.1904 29.3233 13.4494 28.1262 12.262 27.5204C11.9164 27.3441 11.5429 27.2244 11.2055 27.0332C10.8679 26.8417 10.5572 26.5595 10.4536 26.1873Z" fill="#D93D2A"/>
<path d="M8.59153 27.7786C10.1889 30.4246 14.2339 33.9637 17.5922 33.0892C16.8832 32.0272 15.453 31.4876 14.5186 30.6228C13.3496 29.5407 11.9557 28.2189 11.585 26.6103C11.4581 26.0593 11.5486 25.4292 11.9447 25.0237C11.0773 24.9961 10.2044 25.1464 9.39668 25.4623C8.89013 25.6604 8.3593 25.9853 8.24044 26.5134C8.14215 26.9511 8.3593 27.3938 8.59153 27.7786Z" fill="#F04832"/>
<path d="M21.8099 34.0564C21.0837 33.83 20.3386 33.7251 19.5907 33.7356C19.2253 33.7408 18.4227 33.7161 19.0383 33.037C19.184 32.8764 19.387 32.7806 19.5883 32.6991C21.573 31.8967 24.2029 32.171 26.0398 33.2542C28.0489 34.4392 29.3223 36.762 29.2347 39.0827C29.2038 39.9038 29.0164 40.7141 29.0031 41.5357C28.9898 42.3571 29.1819 43.2346 29.7787 43.8029C28.6295 43.6287 27.6103 42.7793 27.2373 41.6848C27.2675 42.5239 27.2974 43.363 27.3276 44.2022C26.2765 44.1533 25.4367 43.2348 25.1191 42.2376C24.8015 41.2404 24.8867 40.1679 24.9278 39.1228C24.9689 38.0778 24.9511 36.9823 24.4588 36.0579C23.926 35.0584 22.8957 34.3947 21.8099 34.0564Z" fill="#BF2525"/>
<path d="M22.0011 33.5184C21.2598 33.3467 20.5089 33.2973 19.7639 33.3635C19.4001 33.3958 18.5976 33.4308 19.1604 32.7079C19.2935 32.537 19.4888 32.4262 19.6836 32.3301C21.6025 31.3823 24.2455 31.4606 26.1587 32.4042C28.2515 33.4365 29.6958 35.6582 29.7831 37.9789C29.814 38.8 29.6879 39.622 29.7365 40.4422C29.7851 41.2624 30.0425 42.123 30.6805 42.6454C29.5215 42.557 28.4412 41.7859 27.987 40.7221C28.08 41.5568 28.1732 42.3912 28.2662 43.2257C27.2145 43.2551 26.3079 42.4013 25.9161 41.4306C25.5245 40.4599 25.5286 39.3841 25.491 38.3388C25.4534 37.2936 25.3534 36.2026 24.7928 35.3173C24.1865 34.3603 23.1092 33.7751 22.0011 33.5184Z" fill="#F04832"/>
<path d="M17.9613 32.9022C18.9637 32.1189 20.3392 31.4764 21.7351 31.2485C21.8309 31.1988 21.9258 31.1474 22.0173 31.0889C22.3229 30.8927 22.5767 30.6468 22.831 30.3908C22.9186 30.3029 23.0842 30.4202 23.0082 30.5269C22.8467 30.7541 22.6348 30.9779 22.3946 31.1718C23.3329 31.1116 24.2555 31.259 25.0548 31.7028C25.1797 31.7721 25.0955 31.9881 24.9551 31.9377C23.7417 31.5021 22.5452 31.4075 21.2902 31.7507C20.6893 31.9149 20.1117 32.1538 19.5589 32.4389C19.0825 32.6846 18.6423 33.0287 18.1291 33.1893C17.9733 33.238 17.8229 33.0104 17.9613 32.9022Z" fill="#D93D2A"/>
<path d="M13.9267 32.4264C14.5386 32.4955 15.1356 32.6824 15.7397 32.8003C16.4085 32.9311 17.0833 33.0187 17.7577 33.1151C17.9055 33.1363 17.8714 33.3847 17.7222 33.3751C16.4714 33.2947 15.0218 33.1454 13.8682 32.6409C13.7654 32.5958 13.8149 32.4138 13.9267 32.4264Z" fill="#BF2525"/>
<path d="M19.1835 41.6068C19.0715 41.5936 18.9864 41.6331 18.8865 41.6761C18.6077 41.7962 18.6077 42.2864 18.8865 42.4065C18.9864 42.4495 19.0715 42.489 19.1835 42.4758C19.4097 42.4489 19.6321 42.2951 19.6206 42.0413C19.609 41.7828 19.4277 41.6357 19.1835 41.6068Z" fill="#B4D66D"/>
<path d="M21.9825 45.5987C21.7732 45.608 21.5492 45.7807 21.5681 46.0106C21.5693 46.0242 21.5705 46.0378 21.5715 46.0514C21.5891 46.264 21.7479 46.4705 21.9825 46.46C22.2202 46.4495 22.3747 46.2802 22.3935 46.0514C22.3946 46.0378 22.3958 46.0242 22.3968 46.0106C22.4146 45.7955 22.1936 45.5894 21.9825 45.5987Z" fill="#B4D66D"/>
<path d="M19.4304 50.5669C19.0243 50.5669 19.0237 51.1942 19.4304 51.1942C19.8365 51.194 19.8371 50.5669 19.4304 50.5669Z" fill="#B4D66D"/>
<path d="M22.3942 53.2843C21.7981 53.2843 21.7972 54.205 22.3942 54.205C22.9902 54.2052 22.9912 53.2843 22.3942 53.2843Z" fill="#B4D66D"/>
<path d="M31.3189 51.8973C31.3064 51.8773 31.2939 51.8574 31.2811 51.8374C31.1294 51.596 30.7836 51.596 30.6317 51.8374C30.6191 51.8574 30.6066 51.8773 30.5939 51.8973C30.4235 52.1683 30.6454 52.5251 30.9563 52.5251C31.2672 52.5251 31.4893 52.1683 31.3189 51.8973Z" fill="#B4D66D"/>
<path d="M33.1797 47.3905C32.688 47.3905 32.6873 48.15 33.1797 48.15C33.6714 48.15 33.6722 47.3905 33.1797 47.3905Z" fill="#B4D66D"/>
<path d="M31.1084 45.3838C31.1135 45.3871 31.1188 45.3906 31.1239 45.3939C30.9212 45.1489 30.521 45.3591 30.521 45.6421C30.521 45.9257 30.922 46.1344 31.1239 45.8903C31.1188 45.8936 31.1135 45.8971 31.1084 45.9004C31.304 45.7914 31.304 45.493 31.1084 45.3838Z" fill="#B4D66D"/>
<path d="M33.5091 39.2605C33.0881 39.2605 33.0875 39.9108 33.5091 39.9108C33.9301 39.9108 33.9306 39.2605 33.5091 39.2605Z" fill="#B4D66D"/>
<path d="M31.4959 37.9905C31.39 37.8093 31.1819 37.8097 31.0761 37.9905C30.9835 38.1489 31.1014 38.3541 31.286 38.3541C31.4707 38.3543 31.5885 38.1489 31.4959 37.9905Z" fill="#B4D66D"/>
<path d="M10.9203 39.7085C10.8938 39.5125 10.7636 39.3191 10.5384 39.329C10.3088 39.3393 10.1854 39.4968 10.1566 39.7085C10.1437 39.8049 10.1693 39.8931 10.224 39.9731C10.3824 40.2057 10.6943 40.2057 10.8529 39.9731C10.9073 39.8931 10.9332 39.8049 10.9203 39.7085Z" fill="#B4D66D"/>
<path d="M12.6793 43.7777C12.1727 43.7777 12.1719 44.5604 12.6793 44.5604C13.1858 44.5602 13.1866 43.7777 12.6793 43.7777Z" fill="#B4D66D"/>
<path d="M12.4321 49.0302C11.9441 49.0302 11.9433 49.784 12.4321 49.784C12.92 49.784 12.9208 49.0302 12.4321 49.0302Z" fill="#B4D66D"/>
<path d="M14.855 54.9136C14.8241 54.8157 14.7828 54.7453 14.7054 54.6772C14.5768 54.5641 14.4051 54.5633 14.2756 54.6772C14.1983 54.7453 14.157 54.8157 14.126 54.9136C14.0518 55.1484 14.2523 55.3894 14.4906 55.3894C14.7285 55.3892 14.9292 55.1482 14.855 54.9136Z" fill="#B4D66D"/>
<path d="M6.92434 50.6241C6.9216 50.6113 6.91886 50.5984 6.91612 50.5854C6.84622 50.2617 6.32713 50.2615 6.25742 50.5854C6.25468 50.5982 6.25194 50.6111 6.249 50.6241C6.20162 50.8435 6.35082 51.0648 6.58677 51.0648C6.82115 51.0648 6.97173 50.8437 6.92434 50.6241Z" fill="#B4D66D"/>
<path d="M3.37581 39.3986C2.92134 39.3986 2.92056 40.1007 3.37581 40.1007C3.83028 40.1007 3.83106 39.3986 3.37581 39.3986Z" fill="#B4D66D"/>
<path d="M21.9825 38.1007C21.9688 38.1001 21.9551 38.0993 21.9414 38.0985C21.4993 38.076 21.4985 38.8043 21.9414 38.7818C21.9551 38.781 21.9688 38.7804 21.9825 38.7796C22.4217 38.7572 22.4225 38.1231 21.9825 38.1007Z" fill="#B4D66D"/>
<path d="M15.3138 35.3478C15.1078 35.3478 14.9107 35.5278 14.9203 35.739C14.9299 35.951 15.0932 36.1303 15.3138 36.1303C15.5196 36.1303 15.717 35.9502 15.7074 35.739C15.6978 35.5271 15.5345 35.3478 15.3138 35.3478Z" fill="#B4D66D"/>
<path d="M19.2656 34.7521C18.9415 34.7521 18.941 35.2527 19.2656 35.2527C19.5897 35.2527 19.5903 34.7521 19.2656 34.7521Z" fill="#B4D66D"/>
<path d="M7.41011 32.7026C7.4058 32.6901 7.40169 32.6777 7.39738 32.6652C7.29184 32.3559 6.86988 32.3555 6.76415 32.6652C6.75984 32.6777 6.75573 32.6901 6.75142 32.7026C6.67936 32.914 6.8689 33.1324 7.08077 33.1324C7.29263 33.1324 7.48217 32.9138 7.41011 32.7026Z" fill="#B4D66D"/>
<path d="M10.0012 31.4529C9.9908 31.4473 9.98043 31.4415 9.97005 31.4358C9.74487 31.3124 9.45605 31.4666 9.45605 31.7289C9.45605 31.9913 9.74467 32.1455 9.97005 32.0221C9.98043 32.0164 9.9908 32.0106 10.0012 32.005C10.2105 31.8905 10.2105 31.5674 10.0012 31.4529Z" fill="#B4D66D"/>
<path d="M28.595 32.2155C28.5392 32.1143 28.421 32.0495 28.3058 32.0507C28.2894 32.0509 28.2729 32.0511 28.2565 32.0513C27.8261 32.0557 27.8255 32.7115 28.2565 32.7162C28.2729 32.7164 28.2894 32.7166 28.3058 32.7168C28.421 32.7179 28.5392 32.6531 28.595 32.5519C28.6583 32.4372 28.6583 32.33 28.595 32.2155Z" fill="#B4D66D"/>
<path d="M31.7046 32.8899C31.7027 32.8749 31.6984 32.8442 31.6907 32.7883C31.6903 32.7868 31.6893 32.7854 31.6888 32.784C31.6523 32.5684 31.4221 32.4002 31.1988 32.4718C31.1309 32.4936 31.0874 32.5472 31.0258 32.5721C31.0831 32.5258 31.0831 32.525 31.0259 32.5697C30.994 32.5884 30.9688 32.6135 30.95 32.6453C30.8482 32.7763 30.8503 32.9147 30.8767 33.0682C30.9143 33.287 31.1965 33.4291 31.4001 33.3637C31.6087 33.2967 31.7352 33.1023 31.7046 32.8899Z" fill="#B4D66D"/>
<path d="M29.8742 60.8856L26.8879 46.1218L40.1644 49.0304L40.0405 63.1552L29.8742 60.8856Z" fill="#D6C48B"/>
<path d="M26.7074 46.0847L37.3912 42.6102L49.4 45.3252L40.2359 49.1891L26.7074 46.0847Z" fill="#ECE1C3"/>
<path d="M32.6093 61.6514C32.0471 56.9122 32.2484 51.6508 32.5408 46.8876C32.4724 46.8989 32.4041 46.9102 32.3357 46.9213C33.9418 46.1166 35.6351 45.4844 37.3768 45.0391L40.7147 46.0787C38.973 46.524 37.2797 47.1562 35.6737 47.9609C35.742 47.9496 35.8103 47.9385 35.8787 47.9272C35.5863 52.6905 35.385 57.6501 35.9472 62.3894L32.6093 61.6514Z" fill="#BA8D1E"/>
<path d="M42.2932 45.8835C40.9826 45.9765 39.6586 46.3997 38.3653 45.99C37.6138 45.7519 36.7687 45.6715 35.9948 45.5172C34.4333 45.2057 32.81 44.9852 31.2775 44.564C32.1588 43.9777 33.6117 43.8547 34.6383 43.9331C37.278 44.1352 39.8812 44.7985 42.2932 45.8835Z" fill="#D9A72A"/>
<path d="M49.3689 45.325L47.7681 60.2928L39.8135 63.2452L39.9374 49.1204L49.3689 45.325Z" fill="#ECE1C3"/>
<path d="M39.9309 46.2622L43.408 47.724L43.1829 61.9948L45.3271 61.1989L46.0679 46.6984L41.4372 45.52L39.9309 46.2622Z" fill="#F0C04A"/>
<path d="M35.978 40.2368C36.1449 41.3185 36.3117 42.4001 36.4785 43.4816L35.978 40.2368Z" fill="#00B2C5"/>
<path d="M38.8047 39.0219C39.05 39.3694 39.1857 39.7801 39.3098 40.1861C39.9151 42.1661 40.3253 44.205 40.5325 46.2642C40.2795 46.4164 39.9345 46.3121 39.7254 46.1044C39.5162 45.8965 39.4107 45.6098 39.3114 45.333C38.6098 43.3772 37.9083 41.4214 37.2067 39.4655C36.7976 38.3245 38.2642 38.2562 38.8047 39.0219Z" fill="#BA8D1E"/>
<path d="M35.1779 41.0417C35.034 40.3749 35.1468 39.2693 35.828 38.8755C36.1123 38.711 36.6372 38.6559 36.9662 38.587C37.1863 38.5409 38.2082 38.6376 38.3128 38.5438C37.1258 39.6105 37.88 41.4777 38.2883 42.734C38.6967 43.9901 39.4251 45.0641 39.9307 46.2624C39.1046 46.6016 37.5129 44.99 37.0142 44.4664C36.1092 43.5155 35.4546 42.3239 35.1779 41.0417Z" fill="#F0C04A"/>
<path d="M45.111 41.2974C45.286 40.6683 44.6487 40.4608 44.1386 40.5567C43.2827 40.7175 42.4873 41.2958 41.9068 41.9169C41.1917 42.6823 40.6791 43.6139 40.2647 44.5737C40.0364 45.1027 39.8412 45.7342 40.1355 46.2299C40.9879 45.8659 41.5385 45.0463 42.026 44.2617C42.5136 43.477 43.0286 42.6449 43.8539 42.2237C44.0941 42.1013 44.3538 42.018 44.5884 41.885C44.8229 41.7523 45.0389 41.5561 45.111 41.2974Z" fill="#BA8D1E"/>
<path d="M46.4055 42.4034C45.2951 44.2426 42.4837 46.7026 40.1493 46.0947C40.6421 45.3566 41.6363 44.9815 42.2857 44.3804C43.0983 43.6283 44.0672 42.7094 44.3249 41.5913C44.4132 41.2083 44.3501 40.7705 44.0748 40.4885C44.6777 40.4692 45.2845 40.5737 45.8459 40.7933C46.198 40.9311 46.5671 41.1569 46.6497 41.5238C46.718 41.8284 46.5671 42.136 46.4055 42.4034Z" fill="#F0C04A"/>
<path d="M37.2175 46.7671C37.7223 46.6099 38.2402 46.5369 38.7601 46.5443C39.014 46.548 39.5719 46.5306 39.144 46.0586C39.0428 45.9471 38.9016 45.8803 38.7616 45.8239C37.382 45.266 35.5541 45.4568 34.2775 46.2097C32.881 47.0332 31.9957 48.6478 32.0566 50.2611C32.0782 50.8318 32.2084 51.3951 32.2178 51.966C32.227 52.5371 32.0934 53.1469 31.6787 53.5418C32.4774 53.4208 33.1858 52.8304 33.4451 52.0695C33.4241 52.6527 33.4032 53.2361 33.3824 53.8194C34.113 53.7853 34.6967 53.1469 34.9176 52.4538C35.1382 51.7606 35.0791 51.0151 35.0505 50.2887C35.0219 49.5623 35.0343 48.8008 35.3765 48.1583C35.7468 47.4636 36.4629 47.0025 37.2175 46.7671Z" fill="#BA8D1E"/>
<path d="M37.0845 46.3935C37.5997 46.2742 38.1217 46.2399 38.6396 46.2859C38.8926 46.3084 39.4503 46.3328 39.059 45.8302C38.9664 45.7115 38.8307 45.6344 38.6954 45.5676C37.3616 44.9089 35.5245 44.9632 34.1946 45.6192C32.74 46.3367 31.7361 47.881 31.6754 49.494C31.6538 50.0647 31.7413 50.636 31.7077 51.2062C31.674 51.7763 31.495 52.3746 31.0515 52.7376C31.8571 52.6763 32.608 52.1401 32.9238 51.4008C32.859 51.9809 32.7944 52.5609 32.7296 53.141C33.4607 53.1614 34.0908 52.5681 34.363 51.8933C34.6352 51.2184 34.6322 50.4708 34.6585 49.7442C34.6847 49.0175 34.7542 48.2592 35.1439 47.6439C35.5655 46.9786 36.3144 46.5718 37.0845 46.3935Z" fill="#D9A72A"/>
<path d="M39.8927 45.9648C39.196 45.4204 38.2399 44.9736 37.2695 44.8152C37.2029 44.7807 37.1369 44.7451 37.0733 44.7043C36.8609 44.5678 36.6844 44.3971 36.5076 44.2192C36.4467 44.1581 36.3318 44.2396 36.3845 44.3138C36.4967 44.4716 36.6441 44.6274 36.8111 44.7621C36.1589 44.7202 35.5176 44.8226 34.9621 45.1311C34.8754 45.1794 34.9337 45.3295 35.0314 45.2944C35.8748 44.9917 36.7066 44.926 37.5789 45.1644C37.9965 45.2787 38.3981 45.4445 38.7823 45.6426C39.1134 45.8135 39.4193 46.0526 39.776 46.1643C39.8843 46.1982 39.9891 46.0401 39.8927 45.9648Z" fill="#D9A72A"/>
<path d="M42.6971 45.6345C42.2718 45.6823 41.8569 45.8124 41.4369 45.8943C40.9719 45.9852 40.5031 46.0461 40.0341 46.1131C39.9313 46.1279 39.9552 46.3005 40.0588 46.2937C40.9282 46.2379 41.9358 46.1341 42.7376 45.7834C42.8093 45.7522 42.7748 45.6257 42.6971 45.6345Z" fill="#F0C04A"/>
<path d="M45.3624 42.3946C45.0904 43.2795 44.5353 43.9158 43.6982 44.3216C43.4944 44.4205 43.6373 44.7637 43.8539 44.6886C44.8118 44.3563 45.5913 43.5084 45.8139 42.5184C45.8793 42.2267 45.4507 42.1071 45.3624 42.3946Z" fill="#FFD878"/>
<path d="M46.0423 41.389C46.0323 41.3773 46.0217 41.3663 46.0105 41.3557C45.9269 41.2726 45.7848 41.2724 45.701 41.3557C45.6898 41.3663 45.6792 41.3773 45.6693 41.389C45.5193 41.5549 45.6183 41.8369 45.8559 41.8369C46.0922 41.8369 46.1923 41.5549 46.0423 41.389Z" fill="#FFD878"/>
<path d="M37.4817 41.4539C37.3033 40.927 37.1639 40.3874 37.008 39.8537C36.9358 39.6059 36.5428 39.6478 36.5483 39.9156C36.5681 40.8649 36.8114 42.4421 37.655 43.0292C37.7636 43.1047 37.904 43.0027 37.907 42.8853C37.9191 42.3936 37.6375 41.9138 37.4817 41.4539Z" fill="#FFD878"/>
<path d="M36.7506 38.8593C36.7288 38.8605 36.7071 38.8614 36.6854 38.8626C36.4506 38.8747 36.4502 39.2134 36.6854 39.2254C36.7071 39.2266 36.7288 39.2278 36.7506 39.2287C36.9897 39.241 36.9901 38.847 36.7506 38.8593Z" fill="#FFD878"/>
<path d="M45.1827 46.607C44.7927 46.7764 44.4012 46.943 44.0124 47.1149C43.7018 47.2521 43.3043 47.364 43.1477 47.6844C43.098 47.7862 43.1391 47.9001 43.2505 47.9357C43.5941 48.0458 43.9478 47.8395 44.2648 47.7101C44.6583 47.5493 45.05 47.3831 45.4425 47.2198C45.888 47.0345 45.6344 46.411 45.1827 46.607Z" fill="#FFD878"/>
<path d="M24.3578 24.0722C24.2763 23.8079 23.8757 23.8556 23.871 24.1376C23.8416 25.9385 23.6296 27.4423 22.5264 28.9477C22.4238 29.0877 22.6423 29.2395 22.7606 29.1274C24.0508 27.9056 24.9041 25.8462 24.3578 24.0722Z" fill="#F77261"/>
<path d="M23.3987 23.213C23.3194 22.8646 22.7686 22.8642 22.6893 23.213C22.6774 23.2659 22.6668 23.321 22.6723 23.3751C22.6918 23.5669 22.8291 23.7543 23.0439 23.7446C23.2622 23.7348 23.3944 23.5817 23.4155 23.3751C23.4214 23.321 23.4108 23.2659 23.3987 23.213Z" fill="#F77261"/>
<path d="M25.0055 32.8862C24.7492 32.8285 24.6184 33.1542 24.8305 33.299C25.63 33.8446 26.3873 34.3402 26.9205 35.1717C27.4138 35.9408 27.5367 36.7859 27.8069 37.6354C27.8623 37.8096 28.1308 37.8255 28.1786 37.6354C28.6542 35.7455 26.8441 33.2996 25.0055 32.8862Z" fill="#F77261"/>
<path d="M12.8059 29.947C12.3885 29.3902 11.9097 28.8956 11.5706 28.2814C11.2338 27.6718 11.1662 26.9384 10.8152 26.3556C10.6996 26.1639 10.3558 26.1806 10.3076 26.4216C10.1653 27.133 10.5569 27.9313 10.8902 28.5493C11.2569 29.2294 11.7639 29.9142 12.4449 30.306C12.6577 30.4282 12.971 30.1672 12.8059 29.947Z" fill="#F77261"/>
</svg>
