<svg width="64" height="64" viewBox="0 0 64 64" fill="none" xmlns="http://www.w3.org/2000/svg">
<rect width="64" height="64" rx="32" fill="#051A17"/>
<path d="M33.028 22C34.153 22.003 34.724 22.009 35.217 22.023L35.411 22.03C35.635 22.038 35.856 22.048 36.123 22.06C37.187 22.11 37.913 22.278 38.55 22.525C39.21 22.779 39.766 23.123 40.322 23.678C40.8307 24.1777 41.2242 24.7825 41.475 25.45C41.722 26.087 41.89 26.813 41.94 27.878C41.952 28.144 41.962 28.365 41.97 28.59L41.976 28.784C41.991 29.276 41.997 29.847 41.999 30.972L42 31.718V33.028C42.0025 33.7574 41.9948 34.4868 41.977 35.216L41.971 35.41C41.963 35.635 41.953 35.856 41.941 36.122C41.891 37.187 41.721 37.912 41.475 38.55C41.2242 39.2175 40.8307 39.8223 40.322 40.322C39.8223 40.8307 39.2175 41.2242 38.55 41.475C37.913 41.722 37.187 41.89 36.123 41.94L35.411 41.97L35.217 41.976C34.724 41.99 34.153 41.997 33.028 41.999L32.282 42H30.973C30.2433 42.0026 29.5135 41.9949 28.784 41.977L28.59 41.971C28.3526 41.962 28.1153 41.9517 27.878 41.94C26.814 41.89 26.088 41.722 25.45 41.475C24.7828 41.2241 24.1785 40.8306 23.679 40.322C23.17 39.8224 22.7761 39.2176 22.525 38.55C22.278 37.913 22.11 37.187 22.06 36.122L22.03 35.41L22.025 35.216C22.0066 34.4868 21.9983 33.7574 22 33.028V30.972C21.9973 30.2426 22.0046 29.5132 22.022 28.784L22.029 28.59C22.037 28.365 22.047 28.144 22.059 27.878C22.109 26.813 22.277 26.088 22.524 25.45C22.7757 24.7822 23.1702 24.1774 23.68 23.678C24.1792 23.1695 24.7832 22.7761 25.45 22.525C26.088 22.278 26.813 22.11 27.878 22.06C28.144 22.048 28.366 22.038 28.59 22.03L28.784 22.024C29.5132 22.0062 30.2426 21.9986 30.972 22.001L33.028 22ZM32 27C30.6739 27 29.4022 27.5268 28.4645 28.4645C27.5268 29.4021 27 30.6739 27 32C27 33.3261 27.5268 34.5979 28.4645 35.5355C29.4022 36.4732 30.6739 37 32 37C33.3261 37 34.5979 36.4732 35.5356 35.5355C36.4732 34.5979 37 33.3261 37 32C37 30.6739 36.4732 29.4021 35.5356 28.4645C34.5979 27.5268 33.3261 27 32 27ZM32 29C32.394 28.9999 32.7841 29.0775 33.1481 29.2282C33.5121 29.3789 33.8429 29.5998 34.1215 29.8783C34.4001 30.1569 34.6211 30.4875 34.772 30.8515C34.9228 31.2154 35.0005 31.6055 35.0005 31.9995C35.0006 32.3935 34.9231 32.7836 34.7723 33.1476C34.6216 33.5116 34.4007 33.8423 34.1222 34.121C33.8437 34.3996 33.513 34.6206 33.149 34.7714C32.7851 34.9223 32.395 34.9999 32.001 35C31.2054 35 30.4423 34.6839 29.8797 34.1213C29.3171 33.5587 29.001 32.7956 29.001 32C29.001 31.2044 29.3171 30.4413 29.8797 29.8787C30.4423 29.3161 31.2054 29 32.001 29M37.251 25.5C36.9195 25.5 36.6016 25.6317 36.3671 25.8661C36.1327 26.1005 36.001 26.4185 36.001 26.75C36.001 27.0815 36.1327 27.3995 36.3671 27.6339C36.6016 27.8683 36.9195 28 37.251 28C37.5825 28 37.9005 27.8683 38.1349 27.6339C38.3693 27.3995 38.501 27.0815 38.501 26.75C38.501 26.4185 38.3693 26.1005 38.1349 25.8661C37.9005 25.6317 37.5825 25.5 37.251 25.5Z" fill="white"/>
</svg>
