<svg width="67" height="64" viewBox="0 0 67 64" fill="none" xmlns="http://www.w3.org/2000/svg">
<path d="M28.0169 63.7726C37.7677 63.7726 45.6724 62.5228 45.6724 60.981C45.6724 59.4392 37.7677 58.1893 28.0169 58.1893C18.266 58.1893 10.3613 59.4392 10.3613 60.981C10.3613 62.5228 18.266 63.7726 28.0169 63.7726Z" fill="#F9E3C7"/>
<path d="M48.8729 61.7842C58.6082 61.2274 66.4296 59.5281 66.3424 57.9888C66.2553 56.4495 58.2927 55.653 48.5574 56.2098C38.8222 56.7666 31.0008 58.4659 31.0879 60.0052C31.175 61.5445 39.1376 62.341 48.8729 61.7842Z" fill="#F9E3C7"/>
<path d="M18.1555 64.0003C27.9064 64.0003 35.811 62.7504 35.811 61.2086C35.811 59.6669 27.9064 58.417 18.1555 58.417C8.40465 58.417 0.5 59.6669 0.5 61.2086C0.5 62.7504 8.40465 64.0003 18.1555 64.0003Z" fill="#F9E3C7"/>
<path d="M46.4898 60.5161L33.2535 59.0198C32.7672 58.9648 32.3995 58.5512 32.3995 58.0591V35.2991C32.3995 34.8041 32.7716 34.389 33.2612 34.3378L43.5973 33.2542L48.8948 40.3342L46.4898 60.5161Z" fill="#23201C"/>
<path d="M35.879 36.2682L40.0949 35.8534V37.1561C40.0949 37.611 39.7509 37.9914 39.3005 38.0345L36.612 38.2919C36.2189 38.3294 35.8792 38.0187 35.8792 37.6219V36.2682H35.879Z" fill="#0F0E0C"/>
<path d="M43.597 33.2542L61.0892 33.5772L64.0317 39.0074V57.8992L46.4895 60.5161V39.4401L43.597 33.2542Z" fill="#4F483D"/>
<path d="M61.0892 33.5772L43.597 33.2542L46.4895 39.4401L64.0317 39.0074L61.0892 33.5772Z" fill="#665D52"/>
<path d="M44.8199 34.0321L60.8626 34.2313L63.1829 38.4982L47.1967 38.7541L44.8199 34.0321Z" fill="#4F483D"/>
<path d="M47.4999 35.4028C47.5359 35.6 47.4362 35.7599 47.2771 35.7603C47.118 35.7606 46.96 35.6011 46.924 35.404C46.8879 35.2068 46.9876 35.0469 47.1467 35.0465C47.3058 35.0461 47.4638 35.2057 47.4999 35.4028Z" fill="#23201C"/>
<path d="M48.2228 37.1372C48.2588 37.3343 48.1591 37.4943 48 37.4947C47.8409 37.495 47.6829 37.3354 47.6469 37.1383C47.6108 36.9412 47.7105 36.7813 47.8696 36.7809C48.0287 36.7805 48.1869 36.9401 48.2228 37.1372Z" fill="#23201C"/>
<path d="M60.6755 34.4446L62.8821 38.503L63.1829 38.4982L60.8626 34.2313L44.8199 34.0321L44.9292 34.2492L60.6755 34.4446Z" fill="#443E35"/>
<path d="M47.7925 41.059L63.1844 40.49V56.704L47.7925 58.8089V41.059Z" fill="#443E35"/>
<path d="M60.7354 50.0314C61.1838 46.5472 59.3271 43.4339 56.5885 43.0776C53.8498 42.7214 51.2662 45.2572 50.8178 48.7415C50.3695 52.2257 52.2261 55.3391 54.9648 55.6953C57.7034 56.0515 60.287 53.5157 60.7354 50.0314Z" fill="#2D2823"/>
<path d="M61.3863 50.0314C61.8347 46.5472 59.978 43.4339 57.2393 43.0776C54.5007 42.7214 51.9171 45.2572 51.4687 48.7415C51.0203 52.2257 52.877 55.3391 55.6156 55.6953C58.3543 56.0515 60.9379 53.5157 61.3863 50.0314Z" fill="#3A342D"/>
<mask id="mask0_355_69827" style="mask-type:luminance" maskUnits="userSpaceOnUse" x="51" y="43" width="11" height="13">
<path d="M61.3837 50.0305C61.8321 46.5462 59.9754 43.4329 57.2368 43.0767C54.4981 42.7205 51.9145 45.2562 51.4661 48.7405C51.0178 52.2248 52.8744 55.3381 55.6131 55.6943C58.3517 56.0505 60.9354 53.5147 61.3837 50.0305Z" fill="white"/>
</mask>
<g mask="url(#mask0_355_69827)">
<path d="M56.6706 55.9698L56.5612 55.9533C57.4832 49.8299 56.9062 42.8656 56.9003 42.7961L57.0107 42.7865C57.0166 42.8564 57.5945 49.8332 56.6706 55.9698Z" fill="#665D52"/>
<path d="M55.9549 55.9771L55.8455 55.9607C56.7675 49.8368 56.1905 42.873 56.1846 42.8034L56.295 42.7938C56.3011 42.8635 56.879 49.8407 55.9549 55.9771Z" fill="#665D52"/>
<path d="M55.2374 55.9842L55.1279 55.9677C56.05 49.8443 55.473 42.88 55.4671 42.8105L55.5775 42.8009C55.5835 42.8706 56.1612 49.8476 55.2374 55.9842Z" fill="#665D52"/>
<path d="M54.5218 55.9918L54.4124 55.9753C55.3344 49.8519 54.7574 42.8876 54.7515 42.8181L54.8619 42.8085C54.8679 42.8782 55.4459 49.8552 54.5218 55.9918Z" fill="#665D52"/>
<path d="M53.8038 55.9991L53.6943 55.9826C54.6164 49.8588 54.0394 42.8949 54.0335 42.8254L54.1439 42.8158C54.1499 42.8857 54.7276 49.8629 53.8038 55.9991Z" fill="#665D52"/>
<path d="M53.0882 56.0063L52.9788 55.9898C53.9008 49.8664 53.3238 42.9021 53.3179 42.8326L53.4283 42.823C53.4342 42.8929 54.0121 49.8697 53.0882 56.0063Z" fill="#665D52"/>
<path d="M52.3705 56.0137L52.2611 55.997C53.1831 49.8736 52.6062 42.9093 52.6003 42.8398L52.7106 42.8302C52.7167 42.9001 53.2946 49.8771 52.3705 56.0137Z" fill="#665D52"/>
<path d="M51.6527 56.0187L51.5432 56.0023C52.4652 49.8785 51.8883 42.9146 51.8824 42.8451L51.9927 42.8354C51.9986 42.9052 52.5765 49.8824 51.6527 56.0187Z" fill="#665D52"/>
<path d="M57.3179 55.9698L57.2085 55.9533C58.1305 49.8299 57.5535 42.8656 57.5477 42.7961L57.658 42.7865C57.6641 42.8564 58.242 49.8332 57.3179 55.9698Z" fill="#665D52"/>
<path d="M57.9633 55.9698L57.8539 55.9533C58.7759 49.8299 58.1989 42.8656 58.193 42.7961L58.3034 42.7865C58.3095 42.8564 58.8874 49.8332 57.9633 55.9698Z" fill="#665D52"/>
<path d="M58.6107 55.9698L58.5012 55.9533C59.4233 49.8293 58.8461 42.8656 58.8402 42.7961L58.9506 42.7865C58.9564 42.8564 59.5345 49.8332 58.6107 55.9698Z" fill="#665D52"/>
<path d="M59.2539 55.9698L59.1443 55.9533C60.0663 49.8299 59.4893 42.8656 59.4835 42.7961L59.5938 42.7865C59.6001 42.8564 60.178 49.8332 59.2539 55.9698Z" fill="#665D52"/>
<path d="M59.9011 55.9698L59.7916 55.9533C60.7137 49.8299 60.1367 42.8656 60.1308 42.7961L60.2411 42.7865C60.2472 42.8564 60.8251 49.8332 59.9011 55.9698Z" fill="#665D52"/>
<path d="M60.5464 55.9698L60.437 55.9533C61.359 49.8293 60.7819 42.8656 60.776 42.7961L60.8863 42.7865C60.8922 42.8564 61.4703 49.8332 60.5464 55.9698Z" fill="#665D52"/>
<path d="M50.8458 43.9276L50.8418 43.8163L61.6785 43.418L61.6824 43.5295L50.8458 43.9276Z" fill="#665D52"/>
<path d="M50.849 45.0159L50.8442 44.9045L61.6736 44.4175L61.6784 44.529L50.849 45.0159Z" fill="#665D52"/>
<path d="M50.8551 46.0992L50.849 45.9879L61.6714 45.4126L61.6774 45.5239L50.8551 46.0992Z" fill="#665D52"/>
<path d="M50.8584 47.1873L50.8514 47.076L61.6666 46.4121L61.6734 46.5234L50.8584 47.1873Z" fill="#665D52"/>
<path d="M50.8615 48.2706L50.8538 48.1596L61.6614 47.4072L61.6693 47.5182L50.8615 48.2706Z" fill="#665D52"/>
<path d="M50.8672 49.3589L50.8585 49.2477L61.6592 48.4067L61.6678 48.5177L50.8672 49.3589Z" fill="#665D52"/>
<path d="M61.6564 49.3976L50.8634 50.3342L50.8729 50.4451L61.6659 49.5085L61.6564 49.3976Z" fill="#665D52"/>
<path d="M61.6495 50.3996L50.8634 51.4202L50.8738 51.5312L61.6599 50.5106L61.6495 50.3996Z" fill="#665D52"/>
<path d="M61.6471 51.3905L50.8682 52.4962L50.8794 52.6071L61.6583 51.5015L61.6471 51.3905Z" fill="#665D52"/>
<path d="M61.6455 52.3927L50.8733 53.5868L50.8854 53.6973L61.6577 52.5031L61.6455 52.3927Z" fill="#665D52"/>
<path d="M61.6364 53.3982L50.871 54.6776L50.884 54.7882L61.6494 53.5087L61.6364 53.3982Z" fill="#665D52"/>
<path d="M61.6399 54.3959L50.8806 55.7587L50.8945 55.8693L61.6538 54.5066L61.6399 54.3959Z" fill="#665D52"/>
</g>
<path d="M62.8165 40.5037V56.5191L47.7925 58.5737V58.8089L63.1844 56.704V40.49L62.8165 40.5037Z" fill="#3A342D"/>
<path d="M50.423 38.4094C50.3845 38.4094 50.347 38.3893 50.3264 38.3529L49.4777 36.8452C49.4476 36.7916 49.4665 36.7238 49.5197 36.6934C49.5719 36.6633 49.64 36.6816 49.6707 36.7356L50.5193 38.2432C50.5495 38.2966 50.5305 38.3647 50.4774 38.395C50.4605 38.405 50.4417 38.4094 50.423 38.4094Z" fill="#23201C"/>
<path d="M51.4369 38.3965C51.3983 38.3965 51.3609 38.3763 51.3403 38.3399L50.4963 36.8404C50.4661 36.787 50.4851 36.7189 50.5382 36.6886C50.5906 36.6586 50.6587 36.6768 50.6892 36.7307L51.5333 38.2302C51.5635 38.2838 51.5445 38.3517 51.4914 38.382C51.4744 38.392 51.4555 38.3965 51.4369 38.3965Z" fill="#23201C"/>
<path d="M52.4486 38.3859C52.41 38.3859 52.3726 38.3657 52.352 38.3293L51.5124 36.8381C51.4822 36.7847 51.5012 36.7166 51.5543 36.6863C51.6066 36.6562 51.6748 36.6747 51.7054 36.7285L52.545 38.2196C52.5752 38.2731 52.5562 38.3411 52.5031 38.3714C52.4861 38.3814 52.4672 38.3859 52.4486 38.3859Z" fill="#23201C"/>
<path d="M53.4606 38.3731C53.422 38.3731 53.3846 38.353 53.364 38.3166L52.529 36.8334C52.4988 36.7799 52.5178 36.7119 52.5709 36.6815C52.6234 36.6512 52.6914 36.6697 52.722 36.7237L53.557 38.2069C53.5872 38.2605 53.5682 38.3284 53.5151 38.3587C53.4981 38.3687 53.4792 38.3731 53.4606 38.3731Z" fill="#23201C"/>
<path d="M54.4743 38.3602C54.4359 38.3602 54.3984 38.34 54.3778 38.3036L53.5473 36.8287C53.5172 36.7753 53.5361 36.7072 53.5893 36.6769C53.6415 36.6464 53.7095 36.6649 53.7403 36.7191L54.5707 38.1939C54.6007 38.2476 54.5819 38.3154 54.5288 38.3458C54.5118 38.3557 54.4929 38.3602 54.4743 38.3602Z" fill="#23201C"/>
<path d="M55.4859 38.3472C55.4475 38.3472 55.4099 38.3271 55.3893 38.2906L54.5637 36.8237C54.5335 36.7703 54.5525 36.7022 54.6056 36.6719C54.6578 36.6416 54.7259 36.6601 54.7566 36.7141L55.5823 38.181C55.6124 38.2344 55.5935 38.3025 55.5403 38.3328C55.5232 38.3428 55.5045 38.3472 55.4859 38.3472Z" fill="#23201C"/>
<path d="M56.5 38.3359C56.4616 38.3359 56.4241 38.3158 56.4035 38.2793L55.5822 36.8207C55.5521 36.7671 55.571 36.6993 55.6242 36.6689C55.6766 36.639 55.7446 36.6571 55.7752 36.7111L56.5964 38.1697C56.6264 38.2231 56.6076 38.2912 56.5545 38.3215C56.5374 38.3315 56.5186 38.3359 56.5 38.3359Z" fill="#23201C"/>
<path d="M57.5119 38.323C57.4733 38.323 57.436 38.3029 57.4154 38.2664L56.5987 36.8161C56.5685 36.7625 56.5875 36.6947 56.6406 36.6643C56.6929 36.634 56.7611 36.6525 56.7917 36.7065L57.6083 38.1568C57.6385 38.2102 57.6195 38.2783 57.5664 38.3086C57.5493 38.3186 57.5305 38.323 57.5119 38.323Z" fill="#23201C"/>
<path d="M58.5236 38.3102C58.4849 38.3102 58.4476 38.29 58.427 38.2536L57.6149 36.8113C57.5848 36.7578 57.6037 36.6898 57.6569 36.6595C57.7093 36.6291 57.7774 36.6476 57.8079 36.7016L58.6199 38.1439C58.6501 38.1976 58.6312 38.2654 58.578 38.2958C58.5609 38.3057 58.5421 38.3102 58.5236 38.3102Z" fill="#23201C"/>
<path d="M59.5377 38.2993C59.4991 38.2993 59.4617 38.2791 59.4411 38.2427L58.6335 36.8087C58.6033 36.755 58.6223 36.6872 58.6754 36.6568C58.7277 36.6269 58.7957 36.645 58.8264 36.699L59.6341 38.133C59.6642 38.1865 59.6453 38.2545 59.5921 38.2848C59.575 38.2948 59.5563 38.2993 59.5377 38.2993Z" fill="#23201C"/>
<path d="M60.5489 38.2865C60.5103 38.2865 60.4729 38.2664 60.4523 38.2299L59.6495 36.8041C59.6193 36.7506 59.6383 36.6826 59.6914 36.6523C59.7438 36.6219 59.8119 36.6404 59.8424 36.6944L60.6453 38.1203C60.6754 38.1739 60.6565 38.2418 60.6033 38.2721C60.5864 38.2821 60.5675 38.2865 60.5489 38.2865Z" fill="#23201C"/>
<path d="M61.5608 38.2735C61.5223 38.2735 61.4848 38.2533 61.4642 38.2169L60.6661 36.7991C60.6362 36.7457 60.6549 36.6777 60.7081 36.6473C60.7605 36.617 60.8285 36.6357 60.8591 36.6895L61.6571 38.1072C61.6873 38.1607 61.6684 38.2287 61.6152 38.259C61.5983 38.269 61.5793 38.2735 61.5608 38.2735Z" fill="#23201C"/>
<path d="M59.8867 35.5122C59.9289 35.7427 60.1319 35.8149 59.9844 35.8968C59.9377 35.9227 59.6026 36.0623 59.5439 36.0625C59.2991 36.063 59.0556 35.8173 59.0002 35.514C58.9561 35.2721 59.0445 35.0663 59.2064 34.9927C59.2476 34.974 59.5645 34.8696 59.614 34.8694C59.8588 34.8688 59.8312 35.2087 59.8867 35.5122Z" fill="#23201C"/>
<path d="M60.1884 35.3926C60.2418 35.6846 60.0941 35.9217 59.8584 35.922C59.6228 35.9226 59.3887 35.6863 59.3354 35.3943C59.282 35.1023 59.4297 34.8652 59.6653 34.8649C59.9009 34.8645 60.1351 35.1006 60.1884 35.3926Z" fill="#443E35"/>
<path d="M60.0743 35.382C60.1104 35.5791 60.0107 35.739 59.8516 35.7394C59.6925 35.7398 59.5345 35.5802 59.4985 35.3831C59.4624 35.186 59.5621 35.026 59.7212 35.0256C59.8803 35.0253 60.0383 35.1848 60.0743 35.382Z" fill="#665D52"/>
<path d="M57.9173 35.5145C57.9594 35.7449 58.1625 35.8172 58.015 35.8991C57.9683 35.925 57.6331 36.0646 57.5743 36.0648C57.3295 36.0653 57.0861 35.8196 57.0306 35.5163C56.9864 35.2745 57.0751 35.0686 57.2368 34.995C57.278 34.9764 57.5949 34.8719 57.6444 34.8717C57.8895 34.8712 57.8619 35.211 57.9173 35.5145Z" fill="#23201C"/>
<path d="M58.2188 35.3949C58.2722 35.6869 58.1245 35.924 57.8888 35.9243C57.6532 35.9247 57.4191 35.6886 57.3658 35.3966C57.3124 35.1046 57.4601 34.8676 57.6957 34.8672C57.9313 34.8666 58.1655 35.103 58.2188 35.3949Z" fill="#443E35"/>
<path d="M58.1049 35.3843C58.1409 35.5814 58.0412 35.7414 57.8821 35.7417C57.723 35.7421 57.565 35.5825 57.529 35.3854C57.4929 35.1883 57.5926 35.0283 57.7517 35.028C57.9106 35.0276 58.0688 35.1872 58.1049 35.3843Z" fill="#665D52"/>
<path d="M55.9456 35.5145C55.9877 35.7449 56.1908 35.8172 56.0432 35.8991C55.9965 35.925 55.6614 36.0646 55.6027 36.0648C55.3579 36.0653 55.1146 35.8198 55.059 35.5163C55.0149 35.2744 55.1034 35.0686 55.2652 34.995C55.3064 34.9764 55.6233 34.8719 55.6728 34.8717C55.9178 34.8713 55.8902 35.2112 55.9456 35.5145Z" fill="#23201C"/>
<path d="M56.2473 35.3974C56.3006 35.6894 56.1529 35.9264 55.9173 35.9268C55.6817 35.9273 55.4475 35.691 55.3942 35.399C55.3409 35.1071 55.4886 34.87 55.7242 34.8696C55.9598 34.8693 56.1939 35.1056 56.2473 35.3974Z" fill="#443E35"/>
<path d="M56.1332 35.3845C56.1692 35.5816 56.0695 35.7416 55.9104 35.742C55.7513 35.7423 55.5933 35.5828 55.5573 35.3856C55.5212 35.1885 55.6209 35.0286 55.78 35.0282C55.9391 35.0278 56.0971 35.1874 56.1332 35.3845Z" fill="#665D52"/>
<path d="M53.9758 35.5182C54.018 35.7488 54.221 35.821 54.0735 35.9029C54.0268 35.9288 53.6917 36.0684 53.633 36.0686C53.3882 36.0691 53.1447 35.8235 53.0893 35.5201C53.0452 35.2782 53.1336 35.0726 53.2955 34.9988C53.3367 34.9801 53.6536 34.8757 53.7031 34.8755C53.9481 34.8751 53.9203 35.215 53.9758 35.5182Z" fill="#23201C"/>
<path d="M54.0796 35.9C54.2848 35.8042 54.3479 35.5031 54.2206 35.2273C54.0932 34.9515 53.8236 34.8056 53.6185 34.9014C53.4133 34.9972 53.3502 35.2984 53.4775 35.5741C53.6049 35.8499 53.8744 35.9958 54.0796 35.9Z" fill="#443E35"/>
<path d="M54.1636 35.3859C54.1996 35.583 54.0999 35.7429 53.9408 35.7433C53.7817 35.7437 53.6237 35.5841 53.5877 35.387C53.5516 35.1899 53.6513 35.0299 53.8104 35.0295C53.9693 35.0294 54.1275 35.1889 54.1636 35.3859Z" fill="#665D52"/>
<path d="M52.0019 35.5195C52.044 35.7499 52.2471 35.8222 52.0996 35.9041C52.0528 35.93 51.7177 36.0696 51.6589 36.0698C51.4141 36.0703 51.1707 35.8246 51.1152 35.5213C51.071 35.2795 51.1597 35.0736 51.3215 35C51.3627 34.9814 51.6797 34.8769 51.7291 34.8767C51.9741 34.8762 51.9465 35.216 52.0019 35.5195Z" fill="#23201C"/>
<path d="M52.3034 35.3999C52.3567 35.6919 52.2091 35.929 51.9734 35.9294C51.7378 35.9297 51.5037 35.6936 51.4503 35.4016C51.397 35.1096 51.5447 34.8726 51.7803 34.8722C52.0157 34.8718 52.2501 35.1081 52.3034 35.3999Z" fill="#443E35"/>
<path d="M52.1917 35.3893C52.2277 35.5864 52.128 35.7464 51.9689 35.7467C51.8098 35.7471 51.6518 35.5875 51.6158 35.3904C51.5797 35.1933 51.6794 35.0333 51.8385 35.033C51.9974 35.0328 52.1556 35.1924 52.1917 35.3893Z" fill="#665D52"/>
<path d="M50.0324 35.5218C50.0745 35.7522 50.2776 35.8245 50.1301 35.9064C50.0834 35.9323 49.7483 36.0719 49.6894 36.0721C49.4446 36.0727 49.2013 35.8271 49.1457 35.5236C49.1016 35.2818 49.19 35.076 49.3519 35.0024C49.3931 34.9837 49.71 34.8792 49.7595 34.879C50.0047 34.8787 49.9769 35.2183 50.0324 35.5218Z" fill="#23201C"/>
<path d="M50.3339 35.4023C50.3873 35.6942 50.2396 35.9313 50.004 35.9317C49.7683 35.9322 49.5342 35.6959 49.4809 35.4039C49.4275 35.1119 49.5752 34.8749 49.8108 34.8745C50.0464 34.8741 50.2806 35.1105 50.3339 35.4023Z" fill="#443E35"/>
<path d="M50.2199 35.3916C50.2559 35.5887 50.1562 35.7487 49.9971 35.749C49.838 35.7494 49.68 35.5898 49.644 35.3927C49.6079 35.1956 49.7076 35.0356 49.8667 35.0353C50.0258 35.0351 50.184 35.1945 50.2199 35.3916Z" fill="#665D52"/>
<path d="M48.1514 4.64081C48.0416 5.0234 47.644 5.24419 47.2634 5.13379C46.8827 5.0234 46.6632 4.6238 46.7731 4.24102C46.8829 3.85844 47.2805 3.63765 47.6611 3.74804C48.0418 3.85844 48.2612 4.25822 48.1514 4.64081Z" fill="#FFAC1A"/>
<path d="M47.6189 6.48187C47.5091 6.86446 47.1115 7.08525 46.7309 6.97485C46.3504 6.86446 46.1308 6.46468 46.2406 6.08209C46.3504 5.6995 46.748 5.47871 47.1286 5.58911C47.5093 5.69932 47.7287 6.0991 47.6189 6.48187Z" fill="#FFAC1A"/>
<path d="M47.0932 8.32148C46.9834 8.70407 46.5857 8.92486 46.2052 8.81447C45.8246 8.70407 45.605 8.30429 45.7148 7.9217C45.8246 7.53893 46.2223 7.31833 46.6028 7.42872C46.9836 7.53911 47.203 7.93871 47.0932 8.32148Z" fill="#FFAC1A"/>
<path d="M39.9549 2.26605C39.8451 2.64864 39.4474 2.86943 39.0669 2.75903C38.6863 2.64864 38.4667 2.24886 38.5765 1.86627C38.6863 1.48368 39.084 1.26289 39.4645 1.37329C39.8451 1.48368 40.0647 1.88346 39.9549 2.26605Z" fill="#FFAC1A"/>
<path d="M39.4263 4.10712C39.3165 4.4897 38.9188 4.71049 38.5383 4.6001C38.1577 4.48971 37.9381 4.08992 38.0479 3.70733C38.1577 3.32474 38.5554 3.10396 38.9359 3.21435C39.3165 3.32474 39.5361 3.72453 39.4263 4.10712Z" fill="#FFAC1A"/>
<path d="M38.9006 5.94415C38.7908 6.32674 38.3931 6.54753 38.0126 6.43714C37.6318 6.32674 37.4124 5.92696 37.5222 5.54437C37.632 5.16178 38.0295 4.94099 38.4102 5.05139C38.7908 5.16178 39.0104 5.56157 38.9006 5.94415Z" fill="#FFAC1A"/>
<path d="M43.1607 50.8269C42.735 48.7655 40.3708 44.8768 42.958 41.8323C45.5451 38.7877 45.2948 35.8354 44.7336 34.246C44.1724 32.6567 41.793 30.5938 37.8138 29.4395C33.8349 28.2853 30.728 28.7567 29.4109 29.8012C28.0937 30.8456 26.3175 33.2103 26.8938 37.1725C27.47 41.1346 23.4087 43.1593 21.956 44.6759C20.5034 46.1924 17.362 50.422 19.828 54.6094C22.2939 58.7967 26.1882 59.8726 27.3498 60.2095C28.5113 60.5464 28.8572 60.6468 28.8572 60.6468C28.8572 60.6468 29.2032 60.7472 30.3649 61.0841C31.5264 61.421 35.3922 62.5964 39.698 60.3733C44.0038 58.1503 43.5863 52.8884 43.1607 50.8269Z" fill="#B5581A"/>
<path d="M41.8196 50.7979C41.3938 48.7365 39.0295 44.8477 41.6169 41.8033C44.204 38.7587 43.9537 35.8063 43.3925 34.217C42.8314 32.6276 40.4519 30.5647 36.4727 29.4105C32.4938 28.2563 29.3869 28.7276 28.0698 29.772C26.7527 30.8164 24.9765 33.1811 25.5527 37.1433C26.1289 41.1054 22.0676 43.13 20.6149 44.6467C19.1625 46.1632 16.0209 50.3927 18.4869 54.5801C20.9528 58.7675 24.8471 59.8434 26.0087 60.1805C27.1702 60.5174 27.5161 60.6178 27.5161 60.6178C27.5161 60.6178 27.8621 60.7182 29.0238 61.0551C30.1853 61.392 34.0511 62.5673 38.3569 60.3443C42.6627 58.1212 42.2454 52.8593 41.8196 50.7979Z" fill="#FF8E31"/>
<path d="M40.9386 48.0133C40.3393 46.0676 39.9549 43.761 41.6187 41.8029C44.2059 38.7583 43.9556 35.806 43.3944 34.2166C42.8332 32.6273 40.4537 30.5644 36.4746 29.4102C32.6009 28.2864 29.5543 28.7038 28.1805 29.6903C27.7592 37.8694 33.593 44.9809 40.9386 48.0133Z" fill="#FF9F40"/>
<path d="M38.503 39.2857C37.7368 41.9553 34.9631 43.4949 32.3079 42.7245C29.6525 41.9542 28.1212 39.1657 28.8872 36.4962C29.6535 33.8268 32.4271 32.287 35.0823 33.0572C37.7379 33.8276 39.2693 36.6163 38.503 39.2857Z" fill="#FFB91D"/>
<path d="M43.3409 9.81866L41.6092 9.31644L39.8777 8.81421L31.8403 34.7629L34.3824 35.5003L36.9245 36.2378L43.3409 9.81866Z" fill="#5E2D12"/>
<path d="M37.3452 38.9516C36.764 40.9768 34.6599 42.1447 32.6455 41.5604C30.6311 40.9761 29.4692 38.8607 30.0506 36.8355C30.6318 34.8103 32.736 33.6422 34.7504 34.2267C36.7646 34.811 37.9264 36.9264 37.3452 38.9516Z" fill="#C45205"/>
<path d="M31.3479 38.006C31.9291 35.9809 34.0332 34.8128 36.0476 35.3973C36.32 35.4762 36.5751 35.5853 36.8141 35.7162C36.3338 35.0204 35.6222 34.4794 34.7496 34.2264C32.7353 33.6421 30.6311 34.81 30.0499 36.8352C29.5472 38.5865 30.3497 40.4035 31.8785 41.2411C31.25 40.3302 31.0185 39.154 31.3479 38.006Z" fill="#AA4500"/>
<path d="M40.4485 2.29002L40.3159 2.75195L46.0206 4.40662L46.1531 3.94469L40.4485 2.29002Z" fill="#80421B"/>
<path d="M39.9576 4.00975L39.8251 4.47168L45.5297 6.12635L45.6623 5.66442L39.9576 4.00975Z" fill="#80421B"/>
<path d="M39.4322 5.84459L39.2997 6.30652L45.0043 7.96119L45.1369 7.49925L39.4322 5.84459Z" fill="#80421B"/>
<path d="M45.7405 0.923752C45.3049 0.797455 44.8256 0.658399 44.4579 0.551704C44.4579 0.551704 44.2048 0.478293 43.8453 0.374001C43.4776 0.267305 42.9983 0.12825 42.5627 0.00195312C41.914 1.03396 40.2544 0.891392 40.2544 0.891392C40.2544 0.891392 39.2218 4.48946 38.5034 6.99246C39.4587 7.7103 39.6649 9.53244 39.6649 9.53244L41.0976 9.94794L41.71 10.1256L43.1427 10.5413C43.1427 10.5413 44.2828 9.10973 45.4716 9.01394C46.19 6.51094 47.2226 2.91288 47.2226 2.91288C47.2226 2.91288 45.7427 2.14456 45.7405 0.923752ZM41.5631 6.92885C41.4562 7.30108 41.0657 7.5178 40.6955 7.41036L40.6638 7.4013C40.2934 7.29387 40.0778 6.90129 40.1847 6.52906L41.3427 2.49405C41.4496 2.12181 41.8401 1.90509 42.2103 2.01253L42.242 2.02177C42.6124 2.12921 42.8278 2.52178 42.7211 2.89401L41.5631 6.92885ZM44.2942 7.72102C44.1874 8.09344 43.7971 8.31016 43.4266 8.20272L43.395 8.19348C43.0246 8.08604 42.8092 7.69347 42.9159 7.32124L44.0739 3.28622C44.1807 2.91399 44.5712 2.69727 44.9415 2.8047L44.9731 2.81376C45.3434 2.9212 45.5589 3.31377 45.4521 3.686L44.2942 7.72102Z" fill="#915523"/>
<path d="M45.7389 0.923752C45.3034 0.797455 44.8241 0.658399 44.4564 0.551704C44.4564 0.551704 44.2033 0.478293 43.8437 0.374001C43.476 0.267305 42.9967 0.12825 42.5612 0.00195312C41.9125 1.03396 40.2529 0.891392 40.2529 0.891392C40.2529 0.891392 40.0816 1.48793 39.8302 2.36387C40.08 3.02567 40.4263 3.64606 40.8466 4.21763L41.3414 2.49386C41.4482 2.12163 41.8387 1.90491 42.209 2.01234L42.2406 2.02159C42.611 2.12902 42.8264 2.5216 42.7197 2.89383L41.9778 5.47912C42.3493 5.82324 42.7486 6.14056 43.1716 6.42551L44.0727 3.28622C44.1796 2.91399 44.5701 2.69727 44.9403 2.80452L44.9719 2.81376C45.3422 2.9212 45.5578 3.31377 45.4509 3.686L44.4538 7.15999C44.9048 7.37819 45.3698 7.5644 45.8432 7.71381C46.4997 5.42679 47.2212 2.91269 47.2212 2.91269C47.2212 2.91269 45.7411 2.14456 45.7389 0.923752Z" fill="#A86533"/>
<path d="M31.9273 55.9342L25.8523 54.172C25.3329 54.0213 25.0305 53.4708 25.1804 52.9486C25.3303 52.4264 25.8778 52.1224 26.3973 52.2731L32.4722 54.0353C32.9917 54.1861 33.294 54.7365 33.1441 55.2587C32.9942 55.7808 32.4467 56.0848 31.9273 55.9342Z" fill="#80421B"/>
<path d="M26.508 53.803L26.3561 53.754L39.9525 9.66414L40.3663 6.13098L40.5245 6.14966L40.1075 9.69798L26.508 53.803Z" fill="#381C0F"/>
<path d="M27.8043 54.1789L27.6516 54.1328L40.4957 9.76224L41.2975 4.40527L41.4551 4.42931L40.6508 9.79719L27.8043 54.1789Z" fill="#381C0F"/>
<path d="M28.7134 54.4419L41.1146 9.95222L42.0966 2.77588L42.2546 2.7977L41.27 9.98514L28.8666 54.4859L28.7134 54.4419Z" fill="#381C0F"/>
<path d="M29.6982 54.7301L41.7437 10.1071L44.4173 3.43042L44.565 3.49015L41.8944 10.1583L29.852 54.7728L29.6982 54.7301Z" fill="#381C0F"/>
<path d="M30.6077 54.9949L42.2908 10.297L44.3262 5.26624L44.4739 5.32652L42.4417 10.3479L30.7618 55.0361L30.6077 54.9949Z" fill="#381C0F"/>
<path d="M31.488 55.2492L42.8234 10.4504L44.1744 7.21399L44.3215 7.27594L42.9742 10.5014L31.6424 55.2891L31.488 55.2492Z" fill="#381C0F"/>
<path d="M4.37539 59.6378C4.37539 61.251 9.83955 62.5589 16.5798 62.5589C23.3203 62.5589 28.7844 61.251 28.7844 59.6378C28.7844 59.5645 28.8065 58.2962 28.7844 58.2243C28.3194 56.7126 23.0146 56.7167 16.5798 56.7167C10.0501 56.7167 4.70223 56.7268 4.37539 58.2701C4.3649 58.3199 4.37539 59.5873 4.37539 59.6378Z" fill="#F2594B"/>
<path d="M16.5799 61.266C23.3203 61.266 28.7845 59.9582 28.7845 58.3449C28.7845 56.7316 23.3203 55.4238 16.5799 55.4238C9.83943 55.4238 4.37524 56.7316 4.37524 58.3449C4.37524 59.9582 9.83943 61.266 16.5799 61.266Z" fill="#FF736C"/>
<path d="M5.16797 58.0829C5.16797 59.4464 10.2771 60.5519 16.5795 60.5519C22.882 60.5519 27.9912 59.4464 27.9912 58.0829C27.9912 57.9144 27.9132 50.9398 27.7646 50.7808C26.7105 49.653 22.1034 52.8088 16.5795 52.8088C10.8116 52.8088 6.0431 49.5787 5.27575 50.7808C5.20475 50.8923 5.16797 57.9671 5.16797 58.0829Z" fill="#40BACF"/>
<path d="M5.16797 58.083C5.16797 57.9674 5.20475 50.8924 5.27575 50.7809C6.02379 49.6091 10.5736 52.6469 16.1445 52.8013C15.7753 55.6238 14.7372 58.4264 12.8634 60.4172C8.38617 60.0836 5.16797 59.1649 5.16797 58.083Z" fill="#49CDDB"/>
<path d="M4.37539 50.7811C4.37539 52.3943 9.83955 53.7022 16.5798 53.7022C23.3203 53.7022 28.7844 52.3945 28.7844 50.7811C28.7844 50.7079 28.8065 49.4395 28.7844 49.3676C28.3194 47.8559 23.0146 47.86 16.5798 47.86C10.0501 47.86 4.70223 47.8702 4.37539 49.4135C4.3649 49.4634 4.37539 50.7308 4.37539 50.7811Z" fill="#F2594B"/>
<path d="M16.5799 52.4093C23.3203 52.4093 28.7845 51.1015 28.7845 49.4882C28.7845 47.875 23.3203 46.5671 16.5799 46.5671C9.83943 46.5671 4.37524 47.875 4.37524 49.4882C4.37524 51.1015 9.83943 52.4093 16.5799 52.4093Z" fill="#FF736C"/>
<path d="M16.5797 51.6953C22.8822 51.6953 27.9913 50.5899 27.9913 49.2263C27.9913 47.8627 22.8822 46.7573 16.5797 46.7573C10.2772 46.7573 5.16797 47.8627 5.16797 49.2263C5.16797 50.5899 10.2772 51.6953 16.5797 51.6953Z" fill="#FFFBB6"/>
<path d="M16.5795 46.7573C18.4681 46.7573 20.2479 46.8572 21.8168 47.0328C22.2425 47.2917 22.4762 47.5702 22.4762 47.8605C22.4762 49.2241 17.3671 50.3295 11.0647 50.3295C9.17615 50.3295 7.39627 50.2296 5.82735 50.054C5.40174 49.7951 5.16797 49.5166 5.16797 49.2263C5.16778 47.8627 10.277 46.7573 16.5795 46.7573Z" fill="#FFFBCA"/>
<path d="M15.6853 62.0964C15.8575 62.0964 16.0067 61.9856 16.0657 61.8138L19.1294 52.9048L22.5402 61.2935C22.6081 61.4603 22.7596 61.562 22.9333 61.5526C23.1061 61.5428 23.25 61.4231 23.2998 61.2469L25.886 52.1343L27.7973 59.7909C27.8243 59.8992 27.9332 59.9645 28.0413 59.9379C28.1491 59.9105 28.2146 59.8007 28.1876 59.6923L26.2789 52.0387C26.2331 51.8505 26.0784 51.7208 25.8941 51.7173C25.7093 51.7153 25.5518 51.8368 25.4991 52.0234L22.9128 61.1361L19.5013 52.7499C19.4353 52.5877 19.2824 52.4855 19.1188 52.4905C18.9516 52.4951 18.8063 52.6058 18.7489 52.7728L15.6852 61.6818L12.6879 52.7765C12.6314 52.6088 12.4866 52.4969 12.3191 52.4914C12.1546 52.4827 12.0022 52.5866 11.935 52.7486L8.62101 60.7809C8.62027 60.7787 8.61953 60.7752 8.61898 60.7713L7.35098 52.0803C7.31989 51.8745 7.16208 51.7255 6.96656 51.7171C6.77454 51.7129 6.60514 51.8425 6.55787 52.042L4.75721 59.6764C4.73146 59.7851 4.79859 59.8941 4.90674 59.9198C5.01379 59.9453 5.12323 59.8785 5.14879 59.7694L6.94909 52.1354C6.94707 52.1199 6.95075 52.1277 6.95259 52.1399L8.22059 60.8307C8.24984 61.0241 8.39183 61.1689 8.57429 61.1912C8.75362 61.2125 8.91989 61.1108 8.99199 60.9368L12.3068 52.9032L15.3033 61.8105C15.3615 61.9834 15.5106 62.0955 15.6835 62.096C15.6844 62.0964 15.685 62.0964 15.6853 62.0964Z" fill="#FFC022"/>
<path d="M4.18963 39.7617C3.83759 39.518 3.35569 39.6073 3.11328 39.9612C2.87086 40.3152 2.9597 40.7996 3.31174 41.0434C3.66378 41.2871 15.7746 49.672 16.2134 49.0313C16.6523 48.3906 4.54167 40.0054 4.18963 39.7617Z" fill="#B76E37"/>
<path d="M16.5501 47.6862C15.9612 47.2784 15.1552 47.4278 14.7496 48.0199C14.3441 48.612 14.4927 49.4223 15.0816 49.8301C15.6706 50.2378 16.4765 50.0884 16.8821 49.4963C17.2877 48.9044 17.1391 48.0939 16.5501 47.6862Z" fill="#AA5E2B"/>
<path d="M16.7196 48.266C16.7196 48.6304 16.3575 48.9261 15.9109 48.9261C15.4641 48.9261 15.1022 48.6306 15.1022 48.266C15.1022 47.9013 15.4643 47.6058 15.9109 47.6058C16.3575 47.6058 16.7196 47.9013 16.7196 48.266Z" fill="#B76E37"/>
<path d="M11.0004 37.4069C10.6848 37.1172 10.1953 37.1394 9.9071 37.4567C9.61889 37.774 9.64096 38.2661 9.9564 38.5558C10.272 38.8456 21.1284 48.8169 21.6504 48.2424C22.1724 47.6678 11.3158 37.6967 11.0004 37.4069Z" fill="#B76E37"/>
<path d="M22.167 46.9541C21.6391 46.4692 20.8202 46.5064 20.338 47.0371C19.8557 47.5678 19.8927 48.391 20.4206 48.8759C20.9484 49.3607 21.7673 49.3235 22.2496 48.7928C22.7318 48.2621 22.6948 47.4389 22.167 46.9541Z" fill="#AA5E2B"/>
<path d="M22.1031 47.4161C22.1031 47.7806 21.7409 48.0763 21.2943 48.0763C20.8476 48.0763 20.4856 47.7808 20.4856 47.4161C20.4856 47.0517 20.8478 46.756 21.2943 46.756C21.7409 46.7562 22.1031 47.0517 22.1031 47.4161Z" fill="#B76E37"/>
</svg>
