<svg width="180" height="180" viewBox="0 0 180 180" fill="none" xmlns="http://www.w3.org/2000/svg">
<rect x="29.9673" y="29.9683" width="119.871" height="119.871" rx="59.9353" fill="#051A17"/>
<path d="M79.5687 70.4101C79.7097 70.3255 79.8931 70.2832 80.1187 70.2832C80.3443 70.2832 80.5488 70.3819 80.7322 70.5793C80.9155 70.7626 81.0071 70.9812 81.0071 71.2351C81.0071 76.7491 81.0283 80.0843 81.0706 81.2407C81.127 82.383 81.1552 82.9683 81.1552 82.9965C81.1552 83.3067 81.0706 83.6029 80.9014 83.8849C80.7322 84.1529 80.5418 84.2869 80.3302 84.2869C80.1328 84.2869 79.9777 84.2798 79.8649 84.2657C79.7661 84.2375 79.6745 84.2093 79.5899 84.1811C79.5052 84.1529 79.4206 84.0965 79.336 84.0119L79.1245 83.8003C79.0681 83.7439 78.9905 83.6382 78.8918 83.483C78.8072 83.3138 78.7367 83.1798 78.6802 83.0811C78.6238 82.9824 78.5322 82.8132 78.4053 82.5734C78.2924 82.3196 78.0315 81.8119 77.6226 81.0504C77.2277 80.2888 76.8681 79.6049 76.5437 78.9985C75.4296 76.9536 74.3931 75.3389 73.4341 74.1543C73.4341 78.7376 73.3072 81.9177 73.0534 83.6946C73.0111 84.033 72.7502 84.2023 72.2707 84.2023C72.0451 84.2023 71.8547 84.1458 71.6995 84.033C71.5585 83.9202 71.488 83.7369 71.488 83.483C71.488 83.2292 71.5374 81.833 71.6361 79.2946C71.7489 76.7562 71.8053 75.1767 71.8053 74.5562C71.8053 73.9216 71.8053 73.5197 71.8053 73.3504C71.8053 72.3351 71.8829 71.7639 72.038 71.637C72.1931 71.5101 72.3553 71.4466 72.5245 71.4466C73.3002 71.4466 74.4848 72.7158 76.0784 75.2543C76.3886 75.7478 76.9809 76.7844 77.8553 78.3638C78.7296 79.9292 79.2514 80.8952 79.4206 81.2619L79.1668 72.4831C79.1668 71.2703 79.3008 70.5793 79.5687 70.4101ZM83.0427 77.01C82.8453 76.8831 82.7465 76.6998 82.7465 76.46C82.7465 76.2203 82.8241 76.0017 82.9792 75.8043C82.9228 74.394 82.8946 72.9062 82.8946 71.3408C82.9792 71.0024 83.1061 70.7556 83.2754 70.6005C83.4587 70.4453 83.7196 70.3466 84.0581 70.3043C85.9196 70.3889 87.9362 70.4312 90.108 70.4312C90.6439 70.5441 90.9118 70.7767 90.9118 71.1293C90.9118 71.7216 90.3336 72.0671 89.1772 72.1658C88.867 72.1799 88.5285 72.187 88.1619 72.187H86.7869C86.5189 72.187 85.7786 72.1306 84.5657 72.0178C84.5657 73.7806 84.594 74.9934 84.6504 75.6562C85.3978 75.6703 86.8362 75.6773 88.9657 75.6773C89.4734 75.7761 89.7272 76.0087 89.7272 76.3754C89.7272 76.728 89.5228 77.003 89.1138 77.2004C89.0715 77.2286 88.9939 77.2568 88.8811 77.285L85.2215 77.2216C84.9959 77.2216 84.8125 77.2357 84.6715 77.2639L84.7561 80.9023C84.7561 81.7202 84.735 82.3055 84.6927 82.658L89.6003 82.5946C90.0516 82.6651 90.2772 82.8555 90.2772 83.1657C90.2772 83.3773 90.1785 83.5888 89.9811 83.8003C89.7977 84.0119 89.5792 84.1458 89.3253 84.2023L83.91 84.2869C83.5856 84.2869 83.36 84.2305 83.2331 84.1176C83.1061 83.9907 83.0427 83.7862 83.0427 83.5042C83.0991 83.1093 83.1273 82.4747 83.1273 81.6004V80.1196L83.0427 77.01ZM103.401 70.1774C103.697 70.1774 103.901 70.3889 104.014 70.812C103.929 72.2363 103.838 73.2517 103.739 73.8581C103.64 74.4504 103.556 74.9722 103.485 75.4235C103.429 75.8748 103.386 76.185 103.358 76.3543C103.344 76.5235 103.288 76.869 103.189 77.3908C103.09 77.9126 102.985 78.4344 102.872 78.9561C102.773 79.4638 102.71 79.767 102.681 79.8658C102.667 79.9645 102.54 80.5991 102.301 81.7696C102.061 82.926 101.878 83.6382 101.751 83.9061C101.638 84.1599 101.433 84.2869 101.137 84.2869C100.855 84.2869 100.629 84.2023 100.46 84.033C99.8115 83.1446 99.1981 82.0446 98.6199 80.7331C98.4788 80.3946 98.3167 80.0279 98.1333 79.6331C97.9641 79.2382 97.8372 78.942 97.7526 78.7446L97.5622 78.3004C97.266 78.8081 96.8571 79.6683 96.3353 80.8811C95.8135 82.0939 95.3552 83.067 94.9603 83.8003C94.7064 84.1247 94.4244 84.2869 94.1141 84.2869C93.4654 84.2869 92.9718 82.5593 92.6334 79.1042C92.6334 79.0901 92.6193 79.0126 92.5911 78.8715C92.577 78.7305 92.5488 78.4837 92.5065 78.1312C92.4783 77.7786 92.4359 77.3908 92.3795 76.9677C92.3372 76.5305 92.161 74.7466 91.8507 71.6158C91.8507 71.3338 91.9565 71.0799 92.168 70.8543C92.3795 70.6146 92.6122 70.4947 92.8661 70.4947C93.1763 70.4947 93.3879 70.6992 93.5007 71.1082C93.8814 75.6914 94.2622 79.076 94.643 81.2619C94.7558 81.0645 95.0449 80.4157 95.5103 79.3158C95.9757 78.2017 96.3987 77.3203 96.7795 76.6716C97.1603 76.0087 97.5269 75.6773 97.8795 75.6773C98.1192 75.6773 98.3237 75.8043 98.4929 76.0581C99.3814 78.5824 100.143 80.3593 100.778 81.3888C100.792 81.2337 100.876 80.8106 101.031 80.1196L101.306 78.7658C101.306 78.6812 101.32 78.5613 101.349 78.4062C101.391 78.251 101.419 78.103 101.433 77.9619C101.462 77.8068 101.49 77.6658 101.518 77.5389L101.751 76.2062C102.089 74.119 102.301 72.4056 102.385 71.0658C102.442 70.8261 102.569 70.6216 102.766 70.4524C102.978 70.2691 103.189 70.1774 103.401 70.1774ZM53.9303 99.5582L62.4976 99.4312C62.9065 99.5582 63.111 99.7626 63.111 100.045C63.111 100.75 62.8219 101.102 62.2437 101.102C61.186 101.102 60.0649 101.131 58.8803 101.187C58.8098 102.4 58.7745 103.316 58.7745 103.937C58.7745 104.543 58.7745 104.931 58.7745 105.1L58.8591 112.525C58.8591 112.963 58.7463 113.216 58.5207 113.287C58.3514 113.343 58.1399 113.371 57.8861 113.371C57.4771 113.371 57.2514 113.139 57.2091 112.673C57.1245 111.588 57.0822 109.564 57.0822 106.602C57.0822 103.627 57.1245 101.836 57.2091 101.229C56.913 101.243 56.4758 101.25 55.8976 101.25C55.3194 101.25 54.6002 101.243 53.7399 101.229C53.5143 101.229 53.338 101.159 53.2111 101.018C53.0842 100.877 53.0207 100.708 53.0207 100.51C53.0207 100.299 53.1053 100.094 53.2746 99.8966C53.4579 99.6992 53.6765 99.5864 53.9303 99.5582ZM69.3677 99.2197C70.3549 99.2197 71.194 99.537 71.885 100.172C73.2388 101.384 73.9157 103.302 73.9157 105.925C73.9157 108.534 73.1683 110.586 71.6734 112.081C70.8978 112.829 70.0023 113.238 68.9869 113.308C67.6472 113.308 66.6036 112.85 65.8562 111.933C65.1088 111.016 64.5729 109.994 64.2485 108.866C63.9383 107.723 63.7831 106.623 63.7831 105.566C63.7831 103.761 64.2133 102.273 65.0735 101.102C65.9761 99.8473 67.4075 99.2197 69.3677 99.2197ZM69.2196 100.975C67.3299 100.975 66.1523 101.871 65.687 103.662C65.5459 104.141 65.4754 104.755 65.4754 105.502C65.4754 106.25 65.6164 107.117 65.8985 108.104C66.2793 109.43 66.8434 110.361 67.5908 110.897C68.028 111.235 68.5568 111.404 69.1773 111.404C69.7978 111.404 70.3549 111.129 70.8484 110.579C71.342 110.015 71.6805 109.303 71.8638 108.443C72.0472 107.582 72.1388 106.715 72.1388 105.841C72.1388 104.29 71.9132 103.091 71.4619 102.245C71.0247 101.399 70.2773 100.975 69.2196 100.975ZM83.597 99.4101C83.738 99.3255 83.9213 99.2832 84.147 99.2832C84.3726 99.2832 84.5771 99.3819 84.7604 99.5793C84.9438 99.7626 85.0354 99.9812 85.0354 100.235C85.0354 105.749 85.0566 109.084 85.0989 110.241C85.1553 111.383 85.1835 111.968 85.1835 111.996C85.1835 112.307 85.0989 112.603 84.9297 112.885C84.7604 113.153 84.57 113.287 84.3585 113.287C84.1611 113.287 84.0059 113.28 83.8931 113.266C83.7944 113.238 83.7027 113.209 83.6181 113.181C83.5335 113.153 83.4489 113.096 83.3643 113.012L83.1528 112.8C83.0963 112.744 83.0188 112.638 82.9201 112.483C82.8354 112.314 82.7649 112.18 82.7085 112.081C82.6521 111.982 82.5605 111.813 82.4335 111.573C82.3207 111.32 82.0598 110.812 81.6508 110.05C81.256 109.289 80.8964 108.605 80.572 107.998C79.4579 105.954 78.4214 104.339 77.4624 103.154C77.4624 107.738 77.3355 110.918 77.0817 112.695C77.0394 113.033 76.7785 113.202 76.299 113.202C76.0733 113.202 75.883 113.146 75.7278 113.033C75.5868 112.92 75.5163 112.737 75.5163 112.483C75.5163 112.229 75.5656 110.833 75.6644 108.295C75.7772 105.756 75.8336 104.177 75.8336 103.556C75.8336 102.922 75.8336 102.52 75.8336 102.35C75.8336 101.335 75.9112 100.764 76.0663 100.637C76.2214 100.51 76.3836 100.447 76.5528 100.447C77.3285 100.447 78.5131 101.716 80.1066 104.254C80.4169 104.748 81.0092 105.784 81.8835 107.364C82.7579 108.929 83.2797 109.895 83.4489 110.262L83.1951 101.483C83.1951 100.27 83.329 99.5793 83.597 99.4101ZM92.9094 99.2409C93.5863 99.2409 94.2562 99.4101 94.919 99.7485C95.5959 100.087 95.9343 100.468 95.9343 100.891C95.9343 101.54 95.6664 101.864 95.1305 101.864C94.9331 101.864 94.5876 101.737 94.094 101.483C93.6004 101.229 93.1844 101.102 92.8459 101.102C91.6331 101.102 90.6177 101.645 89.7998 102.731C88.996 103.817 88.594 105.199 88.594 106.877C88.594 108.132 88.869 109.232 89.419 110.177C89.969 111.122 90.6177 111.595 91.3652 111.595C92.1267 111.595 92.719 111.348 93.1421 110.854C93.5792 110.347 93.7978 109.775 93.7978 109.141C93.7978 108.788 93.7696 108.499 93.7132 108.273C93.6709 108.034 93.551 107.822 93.3536 107.639C93.1562 107.441 92.8953 107.343 92.5709 107.343C92.2466 107.343 91.9363 107.272 91.6402 107.131C91.3581 106.99 91.2171 106.8 91.2171 106.56C91.2171 106.32 91.2876 106.095 91.4286 105.883C91.5696 105.672 91.76 105.545 91.9998 105.502C92.9587 105.502 93.6004 105.601 93.9247 105.798C94.2632 105.996 94.5171 106.158 94.6863 106.285C94.8555 106.412 94.9965 106.623 95.1094 106.92C95.2222 107.216 95.3068 107.463 95.3632 107.66C95.4337 107.857 95.4831 108.175 95.5113 108.612C95.5395 109.345 95.5536 110.205 95.5536 111.193C95.5536 112.166 95.4831 112.765 95.342 112.991C95.2151 113.174 95.0036 113.273 94.7074 113.287C94.4113 113.287 94.2068 113.223 94.094 113.096C93.9812 112.97 93.9106 112.688 93.8824 112.25C93.544 112.546 93.1139 112.8 92.5921 113.012C92.0844 113.209 91.6331 113.308 91.2382 113.308C89.9972 113.308 88.9536 112.652 88.1075 111.341C87.2614 110.015 86.8383 108.422 86.8383 106.56C86.8383 105.573 87.0005 104.607 87.3248 103.662C87.6492 102.703 88.0863 101.899 88.6363 101.25C89.7927 99.9107 91.2171 99.2409 92.9094 99.2409ZM105.231 99.537C105.428 99.3114 105.647 99.1985 105.886 99.1985C106.126 99.1985 106.331 99.3184 106.5 99.5582C106.74 100.785 106.86 102.16 106.86 103.683V105.291C106.86 106.504 106.838 107.223 106.796 107.448C106.754 107.66 106.711 107.9 106.669 108.168C106.627 108.436 106.585 108.64 106.542 108.781C106.514 108.922 106.465 109.113 106.394 109.352C106.239 109.874 106.02 110.339 105.738 110.748C105.315 111.538 104.758 112.159 104.067 112.61C103.376 113.061 102.671 113.287 101.952 113.287C101.247 113.287 100.513 112.977 99.7519 112.356C99.0045 111.736 98.391 110.96 97.9115 110.029C97.1782 108.591 96.8116 106.934 96.8116 105.058C96.8116 104.395 96.9103 102.823 97.1077 100.341C97.2064 100.115 97.3545 99.9178 97.5519 99.7485C97.7635 99.5652 97.975 99.4735 98.1865 99.4735C98.4968 99.4735 98.6872 99.6851 98.7577 100.108C98.5603 102.548 98.4615 104.092 98.4615 104.741C98.4615 106.292 98.7647 107.667 99.3711 108.866C99.7519 109.655 100.217 110.318 100.767 110.854C101.331 111.376 101.881 111.637 102.417 111.637C103.306 111.637 104.067 110.946 104.702 109.564C104.97 109.084 105.118 108.316 105.146 107.258C105.146 106.976 105.16 106.779 105.188 106.666L105.231 103.873C105.231 102.576 105.132 101.391 104.935 100.32C104.935 100.024 105.033 99.7626 105.231 99.537ZM108.865 106.01C108.668 105.883 108.569 105.7 108.569 105.46C108.569 105.22 108.646 105.002 108.802 104.804C108.745 103.394 108.717 101.906 108.717 100.341C108.802 100.002 108.928 99.7556 109.098 99.6005C109.281 99.4453 109.542 99.3466 109.88 99.3043C111.742 99.3889 113.759 99.4312 115.93 99.4312C116.466 99.5441 116.734 99.7767 116.734 100.129C116.734 100.722 116.156 101.067 115 101.166C114.689 101.18 114.351 101.187 113.984 101.187H112.609C112.341 101.187 111.601 101.131 110.388 101.018C110.388 102.781 110.416 103.993 110.473 104.656C111.22 104.67 112.659 104.677 114.788 104.677C115.296 104.776 115.55 105.009 115.55 105.375C115.55 105.728 115.345 106.003 114.936 106.2C114.894 106.229 114.816 106.257 114.703 106.285L111.044 106.222C110.818 106.222 110.635 106.236 110.494 106.264L110.578 109.902C110.578 110.72 110.557 111.305 110.515 111.658L115.423 111.595C115.874 111.665 116.1 111.855 116.1 112.166C116.1 112.377 116.001 112.589 115.803 112.8C115.62 113.012 115.401 113.146 115.148 113.202L109.732 113.287C109.408 113.287 109.182 113.23 109.055 113.118C108.928 112.991 108.865 112.786 108.865 112.504C108.921 112.109 108.95 111.475 108.95 110.6V109.12L108.865 106.01ZM122.686 99.2832C123.603 99.2832 124.379 99.4383 125.013 99.7485C125.662 100.059 125.986 100.454 125.986 100.933C125.986 101.145 125.93 101.328 125.817 101.483C125.718 101.638 125.563 101.716 125.352 101.716C125.154 101.716 124.717 101.561 124.04 101.25C123.363 100.926 122.743 100.764 122.179 100.764C121.629 100.764 121.058 100.94 120.465 101.293C119.873 101.645 119.577 102.075 119.577 102.583C119.577 103.274 119.936 103.782 120.656 104.106C121.192 104.346 121.96 104.565 122.961 104.762C123.963 104.945 124.781 105.333 125.415 105.925C126.05 106.504 126.367 107.385 126.367 108.57C126.367 110.375 125.824 111.707 124.738 112.568C124.132 113.047 123.272 113.287 122.158 113.287C121.058 113.287 119.958 112.984 118.858 112.377C118.138 111.996 117.779 111.616 117.779 111.235C117.779 111.094 117.835 110.939 117.948 110.77C118.075 110.6 118.244 110.459 118.456 110.347C118.667 110.234 118.858 110.22 119.027 110.304C119.21 110.375 119.499 110.509 119.894 110.706C120.289 110.904 120.578 111.038 120.761 111.108C121.354 111.334 121.911 111.446 122.433 111.446C122.954 111.446 123.455 111.193 123.934 110.685C124.428 110.163 124.675 109.529 124.675 108.781C124.675 107.794 124.181 107.103 123.194 106.708C122.715 106.511 122.172 106.363 121.565 106.264C120.31 106.038 119.365 105.665 118.731 105.143C118.096 104.607 117.779 103.803 117.779 102.731C117.779 101.659 118.237 100.82 119.154 100.214C120.07 99.5934 121.248 99.2832 122.686 99.2832Z" fill="#89D383"/>
<path d="M155.343 136.703L156.28 135.52L156.871 135.988L155.85 137.279L156.888 138.436L157.817 137.261L158.409 137.729L157.394 139.011L159.061 140.884L158.543 141.538L153.159 135.485L153.677 134.83L155.343 136.703ZM157.755 142.533L157.238 143.188L155.571 141.315L154.635 142.498L154.043 142.03L155.065 140.739L154.027 139.582L153.097 140.757L152.506 140.288L153.52 139.007L151.854 137.134L152.372 136.479L157.755 142.533Z" fill="#53BF4D"/>
<path d="M90.3217 167.595C90.8093 167.606 91.2262 167.707 91.5725 167.897C91.9186 168.096 92.2019 168.373 92.4225 168.729C92.6431 169.084 92.8009 169.518 92.8959 170.031C92.9909 170.544 93.031 171.128 93.016 171.783C93.0013 172.431 92.9348 173.009 92.8165 173.517C92.698 174.032 92.5205 174.463 92.284 174.808C92.0474 175.153 91.7519 175.413 91.3972 175.588C91.0425 175.771 90.6213 175.856 90.1337 175.845C89.6461 175.834 89.2293 175.729 88.8832 175.531C88.5369 175.34 88.2535 175.067 88.0329 174.711C87.8123 174.356 87.6546 173.917 87.5597 173.397C87.4647 172.884 87.4246 172.304 87.4393 171.656C87.4543 171.001 87.5209 170.42 87.6392 169.912C87.7575 169.404 87.9349 168.977 88.1714 168.632C88.4079 168.286 88.7036 168.023 89.0584 167.84C89.413 167.665 89.8341 167.583 90.3217 167.595ZM90.3027 168.429C89.9827 168.421 89.7109 168.476 89.4871 168.593C89.2633 168.718 89.0763 168.892 88.9264 169.118C88.7764 169.343 88.6673 169.615 88.5991 169.933C88.5231 170.259 88.4804 170.624 88.4712 171.028L88.4416 172.331C88.4325 172.727 88.4586 173.09 88.5197 173.419C88.5732 173.748 88.6697 174.028 88.8092 174.26C88.9488 174.492 89.1276 174.671 89.3458 174.798C89.5637 174.933 89.8327 175.004 90.1527 175.011C90.4727 175.018 90.7446 174.96 90.9685 174.835C91.1922 174.718 91.379 174.547 91.529 174.322C91.679 174.097 91.7919 173.821 91.868 173.495C91.9364 173.169 91.9751 172.808 91.9841 172.412L92.0138 171.109C92.023 170.705 92.0009 170.339 91.9474 170.01C91.8861 169.688 91.7857 169.412 91.6462 169.18C91.5066 168.948 91.3279 168.765 91.1099 168.63C90.8917 168.503 90.6226 168.436 90.3027 168.429Z" fill="#53BF4D"/>
<path d="M70.4822 165.214L70.5639 167.586L73.2746 168.289L74.4986 166.256L75.4612 166.506L71.0901 173.615L69.8619 173.296L69.4975 164.959L70.4822 165.214ZM70.6927 172.461L70.7923 172.486L72.8438 169.039L70.5756 168.451L70.6927 172.461Z" fill="#53BF4D"/>
<path d="M53.2349 167.493L55.467 163.255C55.6482 162.912 55.7997 162.599 55.9215 162.319C56.0433 162.039 56.1119 161.778 56.1273 161.536C56.1391 161.301 56.0806 161.085 55.9518 160.888C55.8163 160.688 55.5834 160.5 55.253 160.326C54.9226 160.152 54.6398 160.068 54.4045 160.073C54.1624 160.075 53.9478 160.147 53.7608 160.289C53.5701 160.439 53.3936 160.643 53.2314 160.902C53.0691 161.161 52.8974 161.463 52.7162 161.806L50.4841 166.044L49.6346 165.596L51.7602 161.561C52.0372 161.035 52.3057 160.591 52.5656 160.228C52.8188 159.862 53.0955 159.59 53.3958 159.413C53.6894 159.231 54.0201 159.151 54.3877 159.173C54.7451 159.197 55.1632 159.336 55.6419 159.588C56.1206 159.84 56.4745 160.108 56.7037 160.393C56.9226 160.68 57.0437 160.998 57.067 161.346C57.0835 161.691 57.0158 162.073 56.8637 162.492C56.7049 162.908 56.487 163.379 56.21 163.905L54.0844 167.94L53.2349 167.493Z" fill="#53BF4D"/>
<path d="M38.4528 148.197L42.472 151.692L41.8269 152.434L38.242 152.497C37.7187 152.507 37.2421 152.567 36.8123 152.678C36.3775 152.795 36.0251 153.008 35.7551 153.319L35.6651 153.422C35.35 153.785 35.2023 154.146 35.222 154.506C35.2367 154.873 35.431 155.218 35.8047 155.543C36.1727 155.864 36.5398 156.016 36.9061 156.001C37.2616 155.988 37.6233 155.868 37.9911 155.642L38.4279 156.446C38.2154 156.575 37.9878 156.68 37.745 156.761C37.4914 156.844 37.2295 156.884 36.9593 156.881C36.689 156.878 36.4096 156.822 36.1211 156.712C35.8269 156.598 35.5331 156.413 35.2399 156.158C34.9409 155.898 34.7139 155.625 34.5589 155.339C34.3982 155.047 34.3077 154.756 34.2875 154.466C34.2615 154.171 34.3008 153.882 34.4053 153.599C34.5041 153.311 34.6635 153.041 34.8836 152.788C35.0836 152.558 35.3056 152.372 35.5497 152.231C35.788 152.085 36.0475 151.972 36.3283 151.893C36.6033 151.809 36.9017 151.751 37.2235 151.718C37.5345 151.685 37.8657 151.67 38.2169 151.673L41.174 151.669L37.9052 148.826L38.4528 148.197Z" fill="#53BF4D"/>
<path d="M28.1676 136.963C28.4525 137.359 28.6232 137.752 28.6795 138.144C28.7297 138.54 28.6793 138.933 28.5284 139.323C28.3774 139.713 28.126 140.101 27.7739 140.486C27.4219 140.871 26.9799 141.254 26.448 141.637C25.9223 142.016 25.4211 142.311 24.9444 142.523C24.4615 142.739 24.0111 142.856 23.593 142.876C23.175 142.895 22.7893 142.816 22.4361 142.638C22.0767 142.465 21.7545 142.18 21.4696 141.785C21.1846 141.389 21.0171 140.993 20.9669 140.597C20.9106 140.206 20.9578 139.815 21.1088 139.425C21.2597 139.034 21.5143 138.644 21.8725 138.255C22.2246 137.87 22.6634 137.489 23.1891 137.11C23.721 136.727 24.2253 136.43 24.702 136.218C25.1787 136.007 25.6261 135.891 26.0441 135.872C26.4622 135.853 26.8509 135.93 27.2103 136.103C27.5636 136.28 27.8827 136.567 28.1676 136.963ZM27.4904 137.45C27.3034 137.191 27.0936 137.004 26.8611 136.889C26.6224 136.78 26.3702 136.736 26.1045 136.758C25.8344 136.774 25.5494 136.848 25.2496 136.979C24.9436 137.115 24.6267 137.301 24.2989 137.537L23.2413 138.298C22.9197 138.529 22.646 138.769 22.4201 139.016C22.1942 139.263 22.0308 139.512 21.9299 139.763C21.8245 140.008 21.7891 140.259 21.8237 140.516C21.8521 140.777 21.9598 141.037 22.1468 141.297C22.3338 141.557 22.5466 141.742 22.7853 141.851C23.0178 141.966 23.2692 142.015 23.5393 141.999C23.805 141.977 24.0908 141.898 24.3968 141.762C24.7028 141.626 25.0166 141.442 25.3382 141.211L26.3958 140.45C26.7236 140.214 27.0004 139.972 27.2263 139.725C27.446 139.482 27.6085 139.239 27.714 138.994C27.8149 138.743 27.8512 138.487 27.8227 138.225C27.7881 137.969 27.6773 137.71 27.4904 137.45ZM25.3659 138.98C25.5217 139.196 25.5875 139.379 25.5633 139.528C25.5346 139.671 25.4584 139.786 25.3347 139.875L25.1306 140.022C25.0069 140.111 24.8728 140.147 24.7283 140.129C24.5794 140.105 24.4271 139.984 24.2712 139.768C24.1154 139.551 24.0519 139.372 24.0806 139.229C24.1048 139.08 24.1788 138.961 24.3025 138.872L24.5066 138.725C24.6303 138.636 24.7666 138.604 24.9155 138.628C25.06 138.646 25.2101 138.763 25.3659 138.98Z" fill="#53BF4D"/>
<path d="M17.8623 119.101L19.9017 124.022L18.9936 124.398L15.7564 122.857C15.2837 122.632 14.8303 122.474 14.3961 122.381C13.9549 122.292 13.5442 122.326 13.1641 122.484L13.0374 122.536C12.5939 122.72 12.3006 122.978 12.1575 123.309C12.0074 123.644 12.0272 124.04 12.2168 124.497C12.4035 124.948 12.6641 125.248 12.9985 125.398C13.323 125.544 13.7001 125.598 14.1299 125.56L14.1624 126.475C13.915 126.495 13.6644 126.487 13.4107 126.452C13.147 126.413 12.8948 126.332 12.6541 126.209C12.4134 126.086 12.1883 125.911 11.9789 125.685C11.7666 125.451 11.586 125.155 11.4372 124.796C11.2855 124.43 11.2041 124.084 11.193 123.759C11.1789 123.426 11.2276 123.125 11.3389 122.857C11.4472 122.581 11.6113 122.34 11.8309 122.133C12.0476 121.919 12.3108 121.749 12.6206 121.62C12.9021 121.503 13.1836 121.436 13.465 121.419C13.7435 121.394 14.026 121.409 14.3126 121.463C14.5962 121.511 14.8895 121.591 15.1923 121.705C15.4852 121.815 15.7883 121.949 16.1016 122.108L18.7501 123.423L17.0915 119.421L17.8623 119.101Z" fill="#53BF4D"/>
<path d="M6.10206 103.362L6.67685 106.882L9.72577 106.615L9.71288 106.536C9.41772 106.384 9.17528 106.2 8.98556 105.983C8.78832 105.769 8.65531 105.451 8.58653 105.029C8.53004 104.683 8.53486 104.358 8.601 104.054C8.65839 103.744 8.77518 103.466 8.95138 103.221C9.12757 102.976 9.35626 102.769 9.63744 102.599C9.9111 102.431 10.2397 102.316 10.6233 102.253C11.0068 102.19 11.3701 102.193 11.7132 102.26C12.0487 102.329 12.3521 102.461 12.6233 102.656C12.887 102.852 13.1098 103.105 13.2917 103.415C13.4736 103.726 13.5989 104.091 13.6677 104.512C13.7217 104.843 13.7326 105.146 13.7004 105.422C13.667 105.69 13.6029 105.936 13.5082 106.16C13.4123 106.376 13.2976 106.573 13.1643 106.749C13.0309 106.925 12.8875 107.087 12.7342 107.236L12.0766 106.614C12.2174 106.483 12.3431 106.354 12.4538 106.228C12.5632 106.094 12.6551 105.948 12.7295 105.789C12.7965 105.631 12.8415 105.458 12.8647 105.269C12.8878 105.08 12.8798 104.865 12.8405 104.624C12.752 104.083 12.5378 103.693 12.1979 103.455C11.8566 103.21 11.4266 103.129 10.9076 103.214L10.8174 103.229C10.2985 103.314 9.91628 103.527 9.67087 103.868C9.42546 104.209 9.34758 104.654 9.43724 105.203C9.49865 105.579 9.61047 105.862 9.77272 106.052C9.93373 106.234 10.1224 106.396 10.3386 106.538L10.3566 107.358L5.9786 107.783L5.27853 103.496L6.10206 103.362Z" fill="#53BF4D"/>
<path d="M8.34371 66.2877L15.1684 68.4001L14.8845 69.3174L8.0598 67.205L7.2723 69.7492L6.47518 69.5025L8.33408 63.4968L9.13121 63.7435L8.34371 66.2877Z" fill="#53BF4D"/>
<path d="M19.4994 49.07L17.9244 51.7507L21.0486 53.5862L20.5622 54.4141L13.6831 50.3724L14.1695 49.5446L17.205 51.328L18.7799 48.6473L15.7444 46.8639L16.2308 46.036L23.11 50.0776L22.6236 50.9055L19.4994 49.07Z" fill="#53BF4D"/>
<path d="M30.6036 39.3762L24.8326 33.8668L28.2267 30.3116L28.8302 30.8878L26.0992 33.7485L28.0421 35.6034L30.6784 32.8419L31.282 33.4181L28.6457 36.1796L30.663 38.1055L33.3941 35.2448L33.9976 35.821L30.6036 39.3762Z" fill="#53BF4D"/>
<path d="M45.0519 21.4862L43.6727 19.3698L43.5961 19.4197L44.4288 23.7751L40.7806 21.2545L40.704 21.3045L42.0832 23.4209L44.2675 26.7727L43.5301 27.2532L39.174 20.5688L40.2082 19.8948L43.3083 22.0767L43.3658 22.0393L42.6215 18.3221L43.6175 17.673L47.9736 24.3575L47.2362 24.838L45.0519 21.4862Z" fill="#53BF4D"/>
<path d="M59.3388 18.1882L56.629 10.6839L61.252 9.01455L61.5354 9.79938L57.8155 11.1427L58.7278 13.6692L62.3187 12.3725L62.6021 13.1573L59.0112 14.454L59.9585 17.0773L63.6784 15.734L63.9618 16.5188L59.3388 18.1882Z" fill="#53BF4D"/>
<path d="M113.667 13.0424L112.248 12.53L112.504 11.8204L114.052 12.3794L114.819 11.0281L113.411 10.5195L113.667 9.80991L115.205 10.3651L116.452 8.19037L117.237 8.47377L113.204 15.5005L112.42 15.2171L113.667 13.0424ZM118.43 8.90471L119.215 9.18812L117.968 11.3628L119.387 11.8753L119.131 12.5849L117.582 12.0258L116.815 13.3772L118.223 13.8858L117.967 14.5953L116.43 14.0402L115.183 16.2149L114.398 15.9315L118.43 8.90471Z" fill="#53BF4D"/>
<path d="M132.475 24.6519L133.152 22.3779L130.805 20.8489L128.998 22.3864L128.165 21.8435L134.571 16.4946L135.634 17.1873L133.327 25.2073L132.475 24.6519ZM134.58 17.7151L134.494 17.659L131.452 20.2746L133.416 21.554L134.58 17.7151Z" fill="#53BF4D"/>
<path d="M148.63 28.8395L148.575 28.7816L143.713 33.4228L143.113 32.7944L148.884 27.285L149.823 28.2689L146.84 34.8778L146.896 34.9357L151.757 30.2945L152.357 30.9229L146.586 36.4323L145.647 35.4484L148.63 28.8395Z" fill="#53BF4D"/>
<path d="M157.097 50.4211L158.716 48.6873L157.298 46.2727L154.995 46.8435L154.491 45.9861L162.609 44.0535L163.252 45.1475L157.612 51.2982L157.097 50.4211ZM162.074 45.1503L162.022 45.0616L158.133 46.0471L159.32 48.0675L162.074 45.1503Z" fill="#53BF4D"/>
<path d="M163.601 64.8971C163.457 64.4312 163.42 64.0037 163.491 63.6148C163.57 63.2236 163.743 62.867 164.01 62.545C164.277 62.2229 164.639 61.9355 165.095 61.6826C165.551 61.4297 166.092 61.2064 166.718 61.0126C167.337 60.8211 167.906 60.7008 168.425 60.6517C168.952 60.6004 169.417 60.6321 169.819 60.7469C170.221 60.8616 170.562 61.0594 170.84 61.3402C171.126 61.6187 171.341 61.9909 171.485 62.4568C171.629 62.9227 171.662 63.3513 171.584 63.7425C171.513 64.1314 171.344 64.4869 171.076 64.8089C170.809 65.131 170.444 65.4196 169.98 65.6747C169.524 65.9276 168.987 66.1498 168.368 66.3413C167.742 66.5351 167.169 66.6565 166.65 66.7056C166.13 66.7546 165.67 66.7218 165.267 66.607C164.865 66.4923 164.521 66.2956 164.235 66.0171C163.957 65.7363 163.745 65.363 163.601 64.8971ZM164.398 64.6503C164.493 64.9561 164.631 65.1965 164.813 65.3715C165.002 65.5444 165.227 65.6661 165.488 65.7368C165.75 65.8076 166.042 65.8247 166.366 65.7883C166.699 65.7569 167.059 65.6815 167.445 65.5621L168.689 65.1768C169.068 65.0597 169.404 64.9199 169.696 64.7575C169.991 64.6023 170.227 64.4218 170.402 64.2159C170.578 64.01 170.691 63.7835 170.742 63.5363C170.801 63.2869 170.783 63.0093 170.688 62.7036C170.593 62.3978 170.451 62.1585 170.262 61.9857C170.08 61.8107 169.859 61.6878 169.598 61.6171C169.337 61.5463 169.039 61.5267 168.706 61.558C168.375 61.5967 168.02 61.6746 167.642 61.7918L166.397 62.1771C166.011 62.2965 165.671 62.4338 165.376 62.5889C165.09 62.749 164.86 62.9321 164.684 63.138C164.508 63.3439 164.391 63.5716 164.333 63.821C164.282 64.0681 164.304 64.3446 164.398 64.6503Z" fill="#53BF4D"/>
<path d="M167.646 84.4681L169.868 83.6382L169.675 80.8444L167.359 80.3287L167.29 79.3366L175.419 81.2257L175.507 82.4915L167.716 85.483L167.646 84.4681ZM174.451 81.9688L174.443 81.8662L170.523 81.0148L170.685 83.3525L174.451 81.9688Z" fill="#53BF4D"/>
<path d="M175.279 100.1L170.552 99.328C170.169 99.2654 169.825 99.2208 169.52 99.1942C169.216 99.1676 168.946 99.1854 168.712 99.2476C168.486 99.311 168.299 99.435 168.153 99.6196C168.006 99.8118 167.903 100.092 167.842 100.461C167.782 100.829 167.792 101.124 167.872 101.346C167.95 101.575 168.087 101.755 168.281 101.887C168.483 102.021 168.733 102.123 169.03 102.195C169.327 102.267 169.668 102.334 170.051 102.396L174.778 103.168L174.623 104.116L170.122 103.381C169.535 103.285 169.029 103.172 168.603 103.04C168.175 102.916 167.829 102.74 167.565 102.512C167.3 102.291 167.12 102.003 167.023 101.647C166.933 101.3 166.932 100.86 167.019 100.326C167.106 99.7922 167.248 99.3714 167.445 99.0638C167.648 98.765 167.911 98.5493 168.234 98.4167C168.556 98.2916 168.939 98.2346 169.385 98.2457C169.83 98.2642 170.346 98.3214 170.933 98.4172L175.434 99.1523L175.279 100.1Z" fill="#53BF4D"/>
<path d="M161.667 120.238L163.706 115.317L164.615 115.694L165.812 119.073C165.987 119.566 166.196 119.999 166.437 120.372C166.686 120.747 167 121.013 167.381 121.171L167.507 121.223C167.951 121.407 168.34 121.433 168.676 121.299C169.019 121.169 169.285 120.875 169.474 120.418C169.661 119.967 169.689 119.571 169.559 119.228C169.433 118.895 169.205 118.59 168.874 118.313L169.498 117.644C169.687 117.804 169.859 117.987 170.014 118.191C170.172 118.406 170.293 118.641 170.376 118.898C170.46 119.156 170.495 119.438 170.483 119.747C170.467 120.062 170.385 120.399 170.237 120.758C170.085 121.124 169.898 121.426 169.676 121.664C169.45 121.909 169.203 122.087 168.934 122.198C168.663 122.317 168.376 122.371 168.075 122.362C167.771 122.36 167.464 122.294 167.154 122.166C166.872 122.049 166.626 121.897 166.414 121.711C166.2 121.531 166.011 121.321 165.847 121.08C165.68 120.846 165.53 120.581 165.396 120.287C165.267 120.002 165.147 119.693 165.038 119.359L164.097 116.556L162.438 120.558L161.667 120.238Z" fill="#53BF4D"/>
<path d="M140.613 149.004L144.632 145.508L145.277 146.25L144.843 149.809C144.78 150.329 144.773 150.809 144.824 151.25C144.879 151.697 145.042 152.075 145.312 152.386L145.402 152.489C145.717 152.851 146.054 153.048 146.414 153.078C146.779 153.115 147.148 152.97 147.522 152.645C147.89 152.325 148.092 151.983 148.128 151.618C148.164 151.264 148.095 150.889 147.923 150.493L148.78 150.172C148.877 150.401 148.95 150.641 148.997 150.892C149.043 151.155 149.047 151.42 149.006 151.687C148.966 151.954 148.872 152.223 148.723 152.494C148.569 152.769 148.345 153.035 148.052 153.29C147.753 153.55 147.451 153.737 147.146 153.85C146.835 153.969 146.535 154.018 146.245 153.998C145.949 153.983 145.668 153.904 145.402 153.761C145.131 153.624 144.885 153.428 144.665 153.175C144.465 152.945 144.312 152.7 144.206 152.438C144.094 152.182 144.019 151.909 143.98 151.62C143.934 151.336 143.918 151.033 143.93 150.71C143.941 150.397 143.972 150.067 144.023 149.719L144.429 146.79L141.161 149.633L140.613 149.004Z" fill="#53BF4D"/>
<path d="M129.421 165.15L132.576 163.488L131.356 160.681L131.285 160.719C131.234 161.047 131.137 161.335 130.992 161.584C130.851 161.839 130.591 162.066 130.214 162.265C129.904 162.428 129.594 162.527 129.284 162.561C128.972 162.605 128.671 162.582 128.383 162.493C128.095 162.404 127.826 162.253 127.576 162.04C127.329 161.834 127.116 161.559 126.934 161.215C126.753 160.871 126.64 160.526 126.596 160.179C126.554 159.839 126.583 159.509 126.682 159.19C126.784 158.878 126.954 158.586 127.19 158.315C127.426 158.044 127.733 157.81 128.111 157.611C128.407 157.454 128.692 157.348 128.963 157.291C129.228 157.238 129.481 157.22 129.724 157.239C129.959 157.261 130.182 157.308 130.391 157.378C130.601 157.449 130.8 157.533 130.99 157.632L130.609 158.453C130.44 158.361 130.278 158.282 130.123 158.217C129.961 158.156 129.794 158.115 129.619 158.095C129.449 158.082 129.27 158.094 129.083 158.132C128.896 158.17 128.695 158.246 128.48 158.36C127.994 158.615 127.692 158.942 127.575 159.34C127.45 159.742 127.511 160.175 127.756 160.64L127.798 160.721C128.043 161.186 128.367 161.481 128.768 161.605C129.17 161.73 129.616 161.662 130.109 161.403C130.446 161.226 130.678 161.03 130.807 160.816C130.929 160.605 131.022 160.375 131.089 160.125L131.86 159.848L133.653 163.864L129.81 165.889L129.421 165.15Z" fill="#53BF4D"/>
</svg>
