<svg width="44" height="64" viewBox="0 0 44 64" fill="none" xmlns="http://www.w3.org/2000/svg">
<path opacity="0.5" d="M22 63.9997C34.0629 63.9997 43.8418 60.5923 43.8418 56.3891C43.8418 52.1858 34.0629 48.7784 22 48.7784C9.93715 48.7784 0.158264 52.1858 0.158264 56.3891C0.158264 60.5923 9.93715 63.9997 22 63.9997Z" fill="#C7D9DD"/>
<path d="M19.2999 33.4547L19.063 36.2514L21.7648 37.1994H21.8555C21.8267 35.8714 21.7516 34.548 21.7262 33.2401L19.2999 33.4547Z" fill="#777777"/>
<path d="M24.689 33.0189L21.7258 33.2422C21.7514 34.5501 21.8263 35.8735 21.8551 37.2015L25.4 37.2373L24.689 33.0189Z" fill="#3D3D3D"/>
<path d="M39.9189 54.2595C40.7605 56.8312 32.1728 59.1592 22.6175 59.1592C13.0621 59.1592 4.50907 56.8422 5.31598 54.2595C7.82833 46.2192 13.0621 49.3598 22.6175 49.3598C32.1726 49.3598 37.2644 46.1481 39.9189 54.2595Z" fill="#464A4C"/>
<path d="M22.6164 55.6371C31.1246 55.6371 38.0218 53.6839 38.0218 51.2744C38.0218 48.865 31.1246 46.9117 22.6164 46.9117C14.1082 46.9117 7.211 48.865 7.211 51.2744C7.211 53.6839 14.1082 55.6371 22.6164 55.6371Z" fill="#6B6B6B"/>
<path d="M21.2279 36.448C21.2279 36.448 18.244 35.2211 18.2795 36.3L17.8174 51.0532C17.8174 51.0532 19.3461 51.7285 20.1637 52.0486C20.6969 52.262 20.7681 52.262 21.2658 52.1551V36.4436L21.2279 36.448Z" fill="#A0A0A0"/>
<path d="M25.7119 36.4074C25.6053 35.8387 25.4986 35.9808 24.8943 36.0163L21.2681 36.4441V52.1558C21.6236 52.0847 26.5651 50.8354 26.814 50.3376C26.9917 50.0888 25.8541 36.9405 25.7119 36.4074Z" fill="#777777"/>
<path d="M18.6348 30.2933C17.604 30.2223 17.2128 31.0754 17.2483 31.9998C17.2838 32.8174 17.6393 33.7062 18.3504 34.1328C19.0259 34.5594 19.9146 34.5949 20.0567 33.5996C20.0567 33.5996 20.0567 33.5641 20.0567 33.5286L18.6348 30.2933Z" fill="#777777"/>
<path d="M23.6283 27.0917C23.4403 28.3876 22.8037 29.7882 22.5086 30.9687C22.1886 32.213 21.4777 34.3459 22.5798 35.3768C22.727 35.5106 22.9042 35.6192 23.0946 35.693C23.2593 35.691 23.4203 35.6817 23.5751 35.6611C25.1749 35.4478 25.8504 32.4973 26.3482 31.2886C26.8814 29.9734 27.379 28.658 27.8768 27.3781L23.6283 27.0917Z" fill="#777777"/>
<path d="M22.507 30.9694C22.8022 29.7891 23.4388 28.3884 23.6267 27.0924L18.3833 26.7389C18.4189 27.9831 17.9923 29.334 17.8857 30.5782C17.8146 31.2892 17.708 32.2847 17.7435 32.9955C17.779 34.0265 18.3122 34.382 19.2011 34.773C20.3027 35.2137 21.8219 35.7089 23.0934 35.6936C22.903 35.6197 22.7258 35.5111 22.5786 35.3774C21.4762 34.3468 22.1871 32.2137 22.507 30.9694Z" fill="#A0A0A0"/>
<path d="M25.5489 33.348C25.2862 34.5457 25.2563 35.7854 23.5725 35.1871C22.7729 34.903 22.2846 33.8872 22.5473 32.6899C22.81 31.4923 23.6771 30.7914 24.5238 30.8508C26.1916 30.968 25.8117 32.1509 25.5489 33.348Z" fill="#A0A0A0"/>
<path d="M26.1206 33.4903C25.8579 34.6878 24.973 35.511 24.1442 35.3294C23.3152 35.1474 22.8561 34.0295 23.119 32.832C23.3815 31.6345 24.2664 30.8112 25.0954 30.993C25.924 31.1747 26.3833 32.2928 26.1206 33.4903Z" fill="#BFBFBF"/>
<path d="M25.9486 33.5612C25.7539 34.4491 25.7317 35.3684 24.4832 34.9247C23.8904 34.7142 23.5282 33.9608 23.7229 33.073C23.9177 32.185 24.5607 31.6654 25.1884 31.7094C26.4253 31.7964 26.1435 32.6733 25.9486 33.5612Z" fill="#A0A0A0"/>
<path d="M26.3661 33.6685C26.1714 34.5564 25.5151 35.1668 24.9005 35.032C24.286 34.8972 23.9455 34.0681 24.1403 33.1803C24.335 32.2921 24.9914 31.6817 25.6059 31.8167C26.2203 31.9513 26.5609 32.7804 26.3661 33.6685Z" fill="#BFBFBF"/>
<path d="M17.9846 26.3875C16.6511 25.8511 15.1889 25.2112 14.3789 23.9694C13.0627 21.9511 13.4138 20.2399 13.8525 18.0024C14.3351 15.326 15.8708 5.05913 16.9677 3.1286C18.0646 1.19822 21.6625 0.890962 23.5931 1.15426C25.6162 1.42154 27.6973 1.83846 29.4941 2.93515C30.9195 3.80499 32.5948 4.80579 33.1253 6.40731C33.7829 8.39207 32.1928 15.326 31.8857 16.8617C31.447 19.4064 31.096 21.9072 30.2184 24.3643C29.2969 26.8651 26.6643 27.655 24.1635 27.7427C22.2211 27.8109 20.3006 27.2949 18.5053 26.5933C18.3326 26.5256 18.1586 26.4575 17.9846 26.3875Z" fill="#383434"/>
<path d="M29.253 23.2418C29.253 23.2418 28.6369 22.9811 28.8264 22.5072C28.8264 22.5072 28.9212 21.9621 29.6796 22.1755L31.476 22.8013C31.5431 22.5331 31.6065 22.2646 31.6666 21.9955L29.8217 21.3934C29.8217 21.3934 29.2055 21.1327 29.3952 20.6588C29.3952 20.6588 29.49 20.1137 30.2483 20.3269L31.896 20.9008C31.9551 20.5997 32.0118 20.2982 32.0665 19.9959L30.2483 19.4025C30.2483 19.4025 29.6321 19.1418 29.8217 18.6679C29.8217 18.6679 29.9166 18.1228 30.6749 18.336L32.2604 18.8883C32.3119 18.586 32.363 18.2828 32.4142 17.9793L30.6751 17.4118C30.6751 17.4118 30.0588 17.1511 30.2485 16.6772C30.2485 16.6772 30.3433 16.1321 31.1017 16.3453L32.6089 16.8703C32.657 16.6374 32.7215 16.333 32.7968 15.9741L31.1018 15.4209C31.1018 15.4209 30.4854 15.1602 30.6752 14.6863C30.6752 14.6863 30.77 14.1412 31.5282 14.3545L33.0238 14.8755C33.0816 14.5906 33.1418 14.2894 33.2026 13.9765L31.5282 13.4302C31.5282 13.4302 30.9122 13.1695 31.1018 12.6954C31.1018 12.6954 31.1966 12.1503 31.9548 12.3637L33.4107 12.8708C33.4621 12.5879 33.5128 12.3002 33.5619 12.0101L31.8127 11.4393C31.8127 11.4393 31.1966 11.1786 31.3861 10.7047C31.3861 10.7047 31.4809 10.1596 32.2393 10.3728L33.7404 10.8957C33.7865 10.5881 33.8294 10.2819 33.8684 9.98021L32.2393 9.44856C32.2393 9.44856 31.6232 9.18787 31.8127 8.71396C31.8127 8.71396 31.9075 8.16884 32.6659 8.38205L33.9959 8.84538C34.1178 7.53671 34.1242 6.40725 33.9104 5.76226C33.3372 4.03207 31.527 2.95086 29.9873 2.01117C28.046 0.826417 25.7979 0.375949 23.6122 0.0872269C21.5266 -0.197053 17.6397 0.134709 16.4546 2.22025C16.1717 2.7182 15.8617 3.73018 15.5467 5.02062C17.207 4.76789 22.7042 4.2462 29.253 7.00767C29.253 7.00767 30.1537 7.2921 29.9167 7.9083C29.9167 7.9083 29.8217 8.47717 29.0159 8.19273C29.0159 8.19273 23.2514 5.49713 15.2675 6.22743C15.2007 6.5304 15.1341 6.84225 15.0678 7.16176C16.6622 6.91255 22.2073 6.34966 28.8264 9.14069C28.8264 9.14069 29.7271 9.42512 29.4901 10.0413C29.4901 10.0413 29.3951 10.61 28.5893 10.3258C28.5893 10.3258 22.8312 7.49383 14.8543 8.21709C14.7936 8.52373 14.7336 8.83435 14.6741 9.14743C16.3102 8.89593 21.825 8.35907 28.3998 11.1316C28.3998 11.1316 29.3005 11.416 29.0635 12.0322C29.0635 12.0322 28.9686 12.6009 28.1627 12.3165C28.1627 12.3165 22.4284 9.49604 14.4768 10.2034C14.4194 10.516 14.3629 10.8291 14.3071 11.1408C16.0147 10.9199 21.4767 10.5252 27.9732 13.2646C27.9732 13.2646 28.8739 13.549 28.6369 14.1652C28.6369 14.1652 28.542 14.7339 27.7361 14.4495C27.7361 14.4495 22.0364 11.5078 14.1224 12.1875C14.066 12.5104 14.011 12.8296 13.9571 13.1436C15.5325 12.9452 20.7831 12.5715 27.6888 15.113C27.6888 15.113 28.5895 15.3975 28.3523 16.0137C28.3523 16.0137 28.2574 16.5824 27.4517 16.2981C27.4517 16.2981 21.9624 13.7858 13.7551 14.3348C13.6998 14.6636 13.6465 14.9825 13.5953 15.289C15.2965 15.1365 20.7335 14.9049 27.2622 17.246C27.2622 17.246 28.1629 17.5305 27.9258 18.1467C27.9258 18.1467 27.8308 18.7154 27.0251 18.4311C27.0251 18.4311 21.3321 15.6306 13.4254 16.3099C13.3682 16.6553 13.3144 16.9766 13.2655 17.267C15.062 17.1053 20.3902 16.9029 26.8356 19.2369C26.8356 19.2369 27.7363 19.5214 27.4992 20.1376C27.4992 20.1376 27.4042 20.7063 26.5985 20.422C26.5985 20.422 21.1425 17.9816 13.0842 18.3144C13.0247 18.6175 12.967 18.9114 12.9142 19.1985C14.8999 19.2469 20.6618 19.5477 26.409 21.3699C26.409 21.3699 27.3097 21.6544 27.0726 22.2706C27.0726 22.2706 26.9776 22.8394 26.1719 22.555C26.1719 22.555 21.1598 20.7436 12.7674 20.0867C12.5406 21.6968 12.6083 23.1259 13.658 24.7354C14.5329 26.077 16.1126 26.7682 17.5532 27.3478C17.7411 27.4235 17.9291 27.4971 18.1158 27.57C20.0554 28.3281 22.1301 28.8854 24.2286 28.8118C26.9306 28.717 29.7746 27.8638 30.77 25.1619C30.9231 24.7335 31.0598 24.3037 31.1861 23.8729L29.253 23.2418Z" fill="#A0A0A0"/>
<mask id="mask0_355_68886" style="mask-type:luminance" maskUnits="userSpaceOnUse" x="12" y="-1" width="23" height="30">
<path d="M29.2532 23.2418C29.2532 23.2418 28.6372 22.9811 28.8267 22.5072C28.8267 22.5072 28.9215 21.9621 29.6798 22.1755L31.4763 22.8013C31.5433 22.5331 31.6068 22.2646 31.6668 21.9955L29.822 21.3934C29.822 21.3934 29.2058 21.1327 29.3954 20.6588C29.3954 20.6588 29.4902 20.1137 30.2486 20.3269L31.8963 20.9008C31.9554 20.5997 32.0121 20.2982 32.0667 19.9959L30.2486 19.4025C30.2486 19.4025 29.6324 19.1418 29.822 18.6679C29.822 18.6679 29.9168 18.1228 30.6752 18.336L32.2607 18.8883C32.3121 18.586 32.3633 18.2828 32.4144 17.9793L30.6753 17.4118C30.6753 17.4118 30.0591 17.1511 30.2487 16.6772C30.2487 16.6772 30.3435 16.1321 31.1019 16.3453L32.6091 16.8703C32.6572 16.6374 32.7217 16.333 32.7971 15.9741L31.1021 15.4209C31.1021 15.4209 30.4857 15.1602 30.6755 14.6863C30.6755 14.6863 30.7703 14.1412 31.5285 14.3545L33.0241 14.8755C33.0818 14.5906 33.142 14.2894 33.2028 13.9765L31.5285 13.4302C31.5285 13.4302 30.9124 13.1695 31.1021 12.6954C31.1021 12.6954 31.1969 12.1503 31.9551 12.3637L33.411 12.8708C33.4623 12.5879 33.513 12.3002 33.5622 12.0101L31.8129 11.4393C31.8129 11.4393 31.1969 11.1786 31.3863 10.7047C31.3863 10.7047 31.4812 10.1596 32.2395 10.3728L33.7406 10.8957C33.7867 10.5881 33.8296 10.2819 33.8687 9.98021L32.2395 9.44856C32.2395 9.44856 31.6235 9.18787 31.8129 8.71396C31.8129 8.71396 31.9077 8.16884 32.6661 8.38205L33.9961 8.84538C34.118 7.53671 34.1245 6.40725 33.9106 5.76226C33.3375 4.03207 31.5273 2.95086 29.9876 2.01117C28.0462 0.826417 25.7981 0.375949 23.6125 0.0872269C21.5269 -0.197053 17.64 0.134709 16.4548 2.22025C16.1719 2.7182 15.8619 3.73018 15.547 5.02062C17.2072 4.76789 22.7045 4.2462 29.2532 7.00767C29.2532 7.00767 30.1539 7.2921 29.917 7.9083C29.917 7.9083 29.822 8.47717 29.0161 8.19273C29.0161 8.19273 23.2516 5.49713 15.2678 6.22743C15.201 6.5304 15.1343 6.84225 15.068 7.16176C16.6624 6.91255 22.2076 6.34966 28.8267 9.14069C28.8267 9.14069 29.7273 9.42512 29.4904 10.0413C29.4904 10.0413 29.3954 10.61 28.5895 10.3258C28.5895 10.3258 22.8315 7.49383 14.8545 8.21709C14.7938 8.52373 14.7338 8.83435 14.6744 9.14743C16.3104 8.89593 21.8253 8.35907 28.4001 11.1316C28.4001 11.1316 29.3007 11.416 29.0638 12.0322C29.0638 12.0322 28.9688 12.6009 28.163 12.3165C28.163 12.3165 22.4286 9.49604 14.4771 10.2034C14.4196 10.516 14.3631 10.8291 14.3074 11.1408C16.0149 10.9199 21.4769 10.5252 27.9735 13.2646C27.9735 13.2646 28.8741 13.549 28.6372 14.1652C28.6372 14.1652 28.5422 14.7339 27.7364 14.4495C27.7364 14.4495 22.0366 11.5078 14.1226 12.1875C14.0663 12.5104 14.0113 12.8296 13.9574 13.1436C15.5327 12.9452 20.7834 12.5715 27.689 15.113C27.689 15.113 28.5897 15.3975 28.3526 16.0137C28.3526 16.0137 28.2576 16.5824 27.4519 16.2981C27.4519 16.2981 21.9627 13.7858 13.7553 14.3348C13.7 14.6636 13.6467 14.9825 13.5956 15.289C15.2967 15.1365 20.7337 14.9049 27.2625 17.246C27.2625 17.246 28.1631 17.5305 27.926 18.1467C27.926 18.1467 27.831 18.7154 27.0253 18.4311C27.0253 18.4311 21.3323 15.6306 13.4257 16.3099C13.3684 16.6553 13.3146 16.9766 13.2658 17.267C15.0622 17.1053 20.3905 16.9029 26.8359 19.2369C26.8359 19.2369 27.7365 19.5214 27.4994 20.1376C27.4994 20.1376 27.4044 20.7063 26.5988 20.422C26.5988 20.422 21.1427 17.9816 13.0844 18.3144C13.025 18.6175 12.9672 18.9114 12.9144 19.1985C14.9001 19.2469 20.6621 19.5477 26.4093 21.3699C26.4093 21.3699 27.3099 21.6544 27.0728 22.2706C27.0728 22.2706 26.9779 22.8394 26.1722 22.555C26.1722 22.555 21.16 20.7436 12.7677 20.0867C12.5408 21.6968 12.6085 23.1259 13.6582 24.7354C14.5331 26.077 16.1128 26.7682 17.5534 27.3478C17.7414 27.4235 17.9293 27.4971 18.116 27.57C20.0556 28.3281 22.1304 28.8854 24.2289 28.8118C26.9308 28.717 29.7748 27.8638 30.7703 25.1619C30.9233 24.7335 31.0601 24.3037 31.1863 23.8729L29.2532 23.2418Z" fill="white"/>
</mask>
<g mask="url(#mask0_355_68886)">
<g opacity="0.5">
<path d="M10.1038 20.6578C10.6727 23.1699 13.7538 24.0231 15.8867 24.6394C18.3041 25.3504 20.8165 26.014 23.3288 26.014C27.0261 26.0615 30.4863 24.7816 33.3778 22.4589C32.9512 24.2127 32.5719 25.4926 31.2447 26.8198C30.4388 27.6729 29.6805 28.5262 28.5902 29.0001C27.1681 29.5689 25.5566 29.7111 24.087 30.0429C20.3424 30.8961 16.0764 30.2799 12.7583 28.147C11.2889 27.199 10.3883 25.8245 9.81955 24.2129C9.58259 23.5019 9.58259 22.5064 9.10852 21.9377C9.10852 21.8902 9.10852 21.8902 9.06104 21.8429L10.1038 20.6578Z" fill="#A0A0A0"/>
</g>
</g>
<mask id="mask1_355_68886" style="mask-type:luminance" maskUnits="userSpaceOnUse" x="12" y="-1" width="23" height="30">
<path d="M29.2532 23.2418C29.2532 23.2418 28.6372 22.9811 28.8267 22.5072C28.8267 22.5072 28.9215 21.9621 29.6798 22.1755L31.4763 22.8013C31.5433 22.5331 31.6068 22.2646 31.6668 21.9955L29.822 21.3934C29.822 21.3934 29.2058 21.1327 29.3954 20.6588C29.3954 20.6588 29.4902 20.1137 30.2486 20.3269L31.8963 20.9008C31.9554 20.5997 32.0121 20.2982 32.0667 19.9959L30.2486 19.4025C30.2486 19.4025 29.6324 19.1418 29.822 18.6679C29.822 18.6679 29.9168 18.1228 30.6752 18.336L32.2607 18.8883C32.3121 18.586 32.3633 18.2828 32.4144 17.9793L30.6753 17.4118C30.6753 17.4118 30.0591 17.1511 30.2487 16.6772C30.2487 16.6772 30.3435 16.1321 31.1019 16.3453L32.6091 16.8703C32.6572 16.6374 32.7217 16.333 32.7971 15.9741L31.1021 15.4209C31.1021 15.4209 30.4857 15.1602 30.6755 14.6863C30.6755 14.6863 30.7703 14.1412 31.5285 14.3545L33.0241 14.8755C33.0818 14.5906 33.142 14.2894 33.2028 13.9765L31.5285 13.4302C31.5285 13.4302 30.9124 13.1695 31.1021 12.6954C31.1021 12.6954 31.1969 12.1503 31.9551 12.3637L33.411 12.8708C33.4623 12.5879 33.513 12.3002 33.5622 12.0101L31.8129 11.4393C31.8129 11.4393 31.1969 11.1786 31.3863 10.7047C31.3863 10.7047 31.4812 10.1596 32.2395 10.3728L33.7406 10.8957C33.7867 10.5881 33.8296 10.2819 33.8687 9.98021L32.2395 9.44856C32.2395 9.44856 31.6235 9.18787 31.8129 8.71396C31.8129 8.71396 31.9077 8.16884 32.6661 8.38205L33.9961 8.84538C34.118 7.53671 34.1245 6.40725 33.9106 5.76226C33.3375 4.03207 31.5273 2.95086 29.9876 2.01117C28.0462 0.826417 25.7981 0.375949 23.6125 0.0872269C21.5269 -0.197053 17.64 0.134709 16.4548 2.22025C16.1719 2.7182 15.8619 3.73018 15.547 5.02062C17.2072 4.76789 22.7045 4.2462 29.2532 7.00767C29.2532 7.00767 30.1539 7.2921 29.917 7.9083C29.917 7.9083 29.822 8.47717 29.0161 8.19273C29.0161 8.19273 23.2516 5.49713 15.2678 6.22743C15.201 6.5304 15.1343 6.84225 15.068 7.16176C16.6624 6.91255 22.2076 6.34966 28.8267 9.14069C28.8267 9.14069 29.7273 9.42512 29.4904 10.0413C29.4904 10.0413 29.3954 10.61 28.5895 10.3258C28.5895 10.3258 22.8315 7.49383 14.8545 8.21709C14.7938 8.52373 14.7338 8.83435 14.6744 9.14743C16.3104 8.89593 21.8253 8.35907 28.4001 11.1316C28.4001 11.1316 29.3007 11.416 29.0638 12.0322C29.0638 12.0322 28.9688 12.6009 28.163 12.3165C28.163 12.3165 22.4286 9.49604 14.4771 10.2034C14.4196 10.516 14.3631 10.8291 14.3074 11.1408C16.0149 10.9199 21.4769 10.5252 27.9735 13.2646C27.9735 13.2646 28.8741 13.549 28.6372 14.1652C28.6372 14.1652 28.5422 14.7339 27.7364 14.4495C27.7364 14.4495 22.0366 11.5078 14.1226 12.1875C14.0663 12.5104 14.0113 12.8296 13.9574 13.1436C15.5327 12.9452 20.7834 12.5715 27.689 15.113C27.689 15.113 28.5897 15.3975 28.3526 16.0137C28.3526 16.0137 28.2576 16.5824 27.4519 16.2981C27.4519 16.2981 21.9627 13.7858 13.7553 14.3348C13.7 14.6636 13.6467 14.9825 13.5956 15.289C15.2967 15.1365 20.7337 14.9049 27.2625 17.246C27.2625 17.246 28.1631 17.5305 27.926 18.1467C27.926 18.1467 27.831 18.7154 27.0253 18.4311C27.0253 18.4311 21.3323 15.6306 13.4257 16.3099C13.3684 16.6553 13.3146 16.9766 13.2658 17.267C15.0622 17.1053 20.3905 16.9029 26.8359 19.2369C26.8359 19.2369 27.7365 19.5214 27.4994 20.1376C27.4994 20.1376 27.4044 20.7063 26.5988 20.422C26.5988 20.422 21.1427 17.9816 13.0844 18.3144C13.025 18.6175 12.9672 18.9114 12.9144 19.1985C14.9001 19.2469 20.6621 19.5477 26.4093 21.3699C26.4093 21.3699 27.3099 21.6544 27.0728 22.2706C27.0728 22.2706 26.9779 22.8394 26.1722 22.555C26.1722 22.555 21.16 20.7436 12.7677 20.0867C12.5408 21.6968 12.6085 23.1259 13.6582 24.7354C14.5331 26.077 16.1128 26.7682 17.5534 27.3478C17.7414 27.4235 17.9293 27.4971 18.116 27.57C20.0556 28.3281 22.1304 28.8854 24.2289 28.8118C26.9308 28.717 29.7748 27.8638 30.7703 25.1619C30.9233 24.7335 31.0601 24.3037 31.1863 23.8729L29.2532 23.2418Z" fill="white"/>
</mask>
<g mask="url(#mask1_355_68886)">
<path d="M26.694 28.8585C25.1772 28.3371 23.613 27.8631 22.6648 26.4411C21.3851 24.4977 21.9065 22.4121 22.2382 20.2793C22.7123 17.4826 23.3285 14.7335 23.9447 11.9843C24.4188 9.70912 24.7032 7.33915 25.3666 5.15864C26.0303 2.836 27.3576 1.08223 29.8698 0.845275C30.8178 0.750464 32.4295 0.750464 32.0502 2.12515C31.6236 3.59449 29.6802 3.16792 28.6847 3.87892C27.2151 4.77955 28.9216 6.05927 28.5899 7.33915C28.2106 8.76116 26.5516 8.76116 26.8834 10.3726C27.0257 10.9888 27.2628 11.6998 27.1205 12.3635C26.9308 13.027 26.362 13.4063 25.9829 13.9277C25.082 15.1601 26.3145 16.108 25.6034 17.3404C24.8924 18.5728 23.9444 18.952 24.2764 20.4687C24.371 21.0376 24.6555 21.6063 24.371 22.1752C24.0866 22.744 23.4704 22.8862 23.3282 23.5972C23.2332 24.2134 23.5652 24.6399 23.8021 25.1613C24.0392 25.7775 23.8021 26.1568 23.8496 26.7255C23.9443 27.7683 25.2715 28.0527 26.1248 28.5267C26.3621 28.6216 26.5517 28.669 26.694 28.8585Z" fill="url(#paint0_linear_355_68886)"/>
</g>
<mask id="mask2_355_68886" style="mask-type:luminance" maskUnits="userSpaceOnUse" x="12" y="-1" width="23" height="30">
<path d="M29.2532 23.2418C29.2532 23.2418 28.6372 22.9811 28.8267 22.5072C28.8267 22.5072 28.9215 21.9621 29.6798 22.1755L31.4763 22.8013C31.5433 22.5331 31.6068 22.2646 31.6668 21.9955L29.822 21.3934C29.822 21.3934 29.2058 21.1327 29.3954 20.6588C29.3954 20.6588 29.4902 20.1137 30.2486 20.3269L31.8963 20.9008C31.9554 20.5997 32.0121 20.2982 32.0667 19.9959L30.2486 19.4025C30.2486 19.4025 29.6324 19.1418 29.822 18.6679C29.822 18.6679 29.9168 18.1228 30.6752 18.336L32.2607 18.8883C32.3121 18.586 32.3633 18.2828 32.4144 17.9793L30.6753 17.4118C30.6753 17.4118 30.0591 17.1511 30.2487 16.6772C30.2487 16.6772 30.3435 16.1321 31.1019 16.3453L32.6091 16.8703C32.6572 16.6374 32.7217 16.333 32.7971 15.9741L31.1021 15.4209C31.1021 15.4209 30.4857 15.1602 30.6755 14.6863C30.6755 14.6863 30.7703 14.1412 31.5285 14.3545L33.0241 14.8755C33.0818 14.5906 33.142 14.2894 33.2028 13.9765L31.5285 13.4302C31.5285 13.4302 30.9124 13.1695 31.1021 12.6954C31.1021 12.6954 31.1969 12.1503 31.9551 12.3637L33.411 12.8708C33.4623 12.5879 33.513 12.3002 33.5622 12.0101L31.8129 11.4393C31.8129 11.4393 31.1969 11.1786 31.3863 10.7047C31.3863 10.7047 31.4812 10.1596 32.2395 10.3728L33.7406 10.8957C33.7867 10.5881 33.8296 10.2819 33.8687 9.98021L32.2395 9.44856C32.2395 9.44856 31.6235 9.18787 31.8129 8.71396C31.8129 8.71396 31.9077 8.16884 32.6661 8.38205L33.9961 8.84538C34.118 7.53671 34.1245 6.40725 33.9106 5.76226C33.3375 4.03207 31.5273 2.95086 29.9876 2.01117C28.0462 0.826417 25.7981 0.375949 23.6125 0.0872269C21.5269 -0.197053 17.64 0.134709 16.4548 2.22025C16.1719 2.7182 15.8619 3.73018 15.547 5.02062C17.2072 4.76789 22.7045 4.2462 29.2532 7.00767C29.2532 7.00767 30.1539 7.2921 29.917 7.9083C29.917 7.9083 29.822 8.47717 29.0161 8.19273C29.0161 8.19273 23.2516 5.49713 15.2678 6.22743C15.201 6.5304 15.1343 6.84225 15.068 7.16176C16.6624 6.91255 22.2076 6.34966 28.8267 9.14069C28.8267 9.14069 29.7273 9.42512 29.4904 10.0413C29.4904 10.0413 29.3954 10.61 28.5895 10.3258C28.5895 10.3258 22.8315 7.49383 14.8545 8.21709C14.7938 8.52373 14.7338 8.83435 14.6744 9.14743C16.3104 8.89593 21.8253 8.35907 28.4001 11.1316C28.4001 11.1316 29.3007 11.416 29.0638 12.0322C29.0638 12.0322 28.9688 12.6009 28.163 12.3165C28.163 12.3165 22.4286 9.49604 14.4771 10.2034C14.4196 10.516 14.3631 10.8291 14.3074 11.1408C16.0149 10.9199 21.4769 10.5252 27.9735 13.2646C27.9735 13.2646 28.8741 13.549 28.6372 14.1652C28.6372 14.1652 28.5422 14.7339 27.7364 14.4495C27.7364 14.4495 22.0366 11.5078 14.1226 12.1875C14.0663 12.5104 14.0113 12.8296 13.9574 13.1436C15.5327 12.9452 20.7834 12.5715 27.689 15.113C27.689 15.113 28.5897 15.3975 28.3526 16.0137C28.3526 16.0137 28.2576 16.5824 27.4519 16.2981C27.4519 16.2981 21.9627 13.7858 13.7553 14.3348C13.7 14.6636 13.6467 14.9825 13.5956 15.289C15.2967 15.1365 20.7337 14.9049 27.2625 17.246C27.2625 17.246 28.1631 17.5305 27.926 18.1467C27.926 18.1467 27.831 18.7154 27.0253 18.4311C27.0253 18.4311 21.3323 15.6306 13.4257 16.3099C13.3684 16.6553 13.3146 16.9766 13.2658 17.267C15.0622 17.1053 20.3905 16.9029 26.8359 19.2369C26.8359 19.2369 27.7365 19.5214 27.4994 20.1376C27.4994 20.1376 27.4044 20.7063 26.5988 20.422C26.5988 20.422 21.1427 17.9816 13.0844 18.3144C13.025 18.6175 12.9672 18.9114 12.9144 19.1985C14.9001 19.2469 20.6621 19.5477 26.4093 21.3699C26.4093 21.3699 27.3099 21.6544 27.0728 22.2706C27.0728 22.2706 26.9779 22.8394 26.1722 22.555C26.1722 22.555 21.16 20.7436 12.7677 20.0867C12.5408 21.6968 12.6085 23.1259 13.6582 24.7354C14.5331 26.077 16.1128 26.7682 17.5534 27.3478C17.7414 27.4235 17.9293 27.4971 18.116 27.57C20.0556 28.3281 22.1304 28.8854 24.2289 28.8118C26.9308 28.717 29.7748 27.8638 30.7703 25.1619C30.9233 24.7335 31.0601 24.3037 31.1863 23.8729L29.2532 23.2418Z" fill="white"/>
</mask>
<g mask="url(#mask2_355_68886)">
<path d="M19.6801 0.0643311C18.9216 0.087919 18.1632 0.775338 17.7129 1.32031C17.3574 1.77062 17.073 2.17346 17.0256 2.74232C16.9308 3.57188 17.5708 3.406 17.8079 2.7898C18.1871 1.88918 18.8269 0.348764 19.8935 0.0880719L19.6801 0.0643311Z" fill="#383434"/>
</g>
<mask id="mask3_355_68886" style="mask-type:luminance" maskUnits="userSpaceOnUse" x="12" y="-1" width="23" height="30">
<path d="M29.2532 23.2418C29.2532 23.2418 28.6372 22.9811 28.8267 22.5072C28.8267 22.5072 28.9215 21.9621 29.6798 22.1755L31.4763 22.8013C31.5433 22.5331 31.6068 22.2646 31.6668 21.9955L29.822 21.3934C29.822 21.3934 29.2058 21.1327 29.3954 20.6588C29.3954 20.6588 29.4902 20.1137 30.2486 20.3269L31.8963 20.9008C31.9554 20.5997 32.0121 20.2982 32.0667 19.9959L30.2486 19.4025C30.2486 19.4025 29.6324 19.1418 29.822 18.6679C29.822 18.6679 29.9168 18.1228 30.6752 18.336L32.2607 18.8883C32.3121 18.586 32.3633 18.2828 32.4144 17.9793L30.6753 17.4118C30.6753 17.4118 30.0591 17.1511 30.2487 16.6772C30.2487 16.6772 30.3435 16.1321 31.1019 16.3453L32.6091 16.8703C32.6572 16.6374 32.7217 16.333 32.7971 15.9741L31.1021 15.4209C31.1021 15.4209 30.4857 15.1602 30.6755 14.6863C30.6755 14.6863 30.7703 14.1412 31.5285 14.3545L33.0241 14.8755C33.0818 14.5906 33.142 14.2894 33.2028 13.9765L31.5285 13.4302C31.5285 13.4302 30.9124 13.1695 31.1021 12.6954C31.1021 12.6954 31.1969 12.1503 31.9551 12.3637L33.411 12.8708C33.4623 12.5879 33.513 12.3002 33.5622 12.0101L31.8129 11.4393C31.8129 11.4393 31.1969 11.1786 31.3863 10.7047C31.3863 10.7047 31.4812 10.1596 32.2395 10.3728L33.7406 10.8957C33.7867 10.5881 33.8296 10.2819 33.8687 9.98021L32.2395 9.44856C32.2395 9.44856 31.6235 9.18787 31.8129 8.71396C31.8129 8.71396 31.9077 8.16884 32.6661 8.38205L33.9961 8.84538C34.118 7.53671 34.1245 6.40725 33.9106 5.76226C33.3375 4.03207 31.5273 2.95086 29.9876 2.01117C28.0462 0.826417 25.7981 0.375949 23.6125 0.0872269C21.5269 -0.197053 17.64 0.134709 16.4548 2.22025C16.1719 2.7182 15.8619 3.73018 15.547 5.02062C17.2072 4.76789 22.7045 4.2462 29.2532 7.00767C29.2532 7.00767 30.1539 7.2921 29.917 7.9083C29.917 7.9083 29.822 8.47717 29.0161 8.19273C29.0161 8.19273 23.2516 5.49713 15.2678 6.22743C15.201 6.5304 15.1343 6.84225 15.068 7.16176C16.6624 6.91255 22.2076 6.34966 28.8267 9.14069C28.8267 9.14069 29.7273 9.42512 29.4904 10.0413C29.4904 10.0413 29.3954 10.61 28.5895 10.3258C28.5895 10.3258 22.8315 7.49383 14.8545 8.21709C14.7938 8.52373 14.7338 8.83435 14.6744 9.14743C16.3104 8.89593 21.8253 8.35907 28.4001 11.1316C28.4001 11.1316 29.3007 11.416 29.0638 12.0322C29.0638 12.0322 28.9688 12.6009 28.163 12.3165C28.163 12.3165 22.4286 9.49604 14.4771 10.2034C14.4196 10.516 14.3631 10.8291 14.3074 11.1408C16.0149 10.9199 21.4769 10.5252 27.9735 13.2646C27.9735 13.2646 28.8741 13.549 28.6372 14.1652C28.6372 14.1652 28.5422 14.7339 27.7364 14.4495C27.7364 14.4495 22.0366 11.5078 14.1226 12.1875C14.0663 12.5104 14.0113 12.8296 13.9574 13.1436C15.5327 12.9452 20.7834 12.5715 27.689 15.113C27.689 15.113 28.5897 15.3975 28.3526 16.0137C28.3526 16.0137 28.2576 16.5824 27.4519 16.2981C27.4519 16.2981 21.9627 13.7858 13.7553 14.3348C13.7 14.6636 13.6467 14.9825 13.5956 15.289C15.2967 15.1365 20.7337 14.9049 27.2625 17.246C27.2625 17.246 28.1631 17.5305 27.926 18.1467C27.926 18.1467 27.831 18.7154 27.0253 18.4311C27.0253 18.4311 21.3323 15.6306 13.4257 16.3099C13.3684 16.6553 13.3146 16.9766 13.2658 17.267C15.0622 17.1053 20.3905 16.9029 26.8359 19.2369C26.8359 19.2369 27.7365 19.5214 27.4994 20.1376C27.4994 20.1376 27.4044 20.7063 26.5988 20.422C26.5988 20.422 21.1427 17.9816 13.0844 18.3144C13.025 18.6175 12.9672 18.9114 12.9144 19.1985C14.9001 19.2469 20.6621 19.5477 26.4093 21.3699C26.4093 21.3699 27.3099 21.6544 27.0728 22.2706C27.0728 22.2706 26.9779 22.8394 26.1722 22.555C26.1722 22.555 21.16 20.7436 12.7677 20.0867C12.5408 21.6968 12.6085 23.1259 13.6582 24.7354C14.5331 26.077 16.1128 26.7682 17.5534 27.3478C17.7414 27.4235 17.9293 27.4971 18.116 27.57C20.0556 28.3281 22.1304 28.8854 24.2289 28.8118C26.9308 28.717 29.7748 27.8638 30.7703 25.1619C30.9233 24.7335 31.0601 24.3037 31.1863 23.8729L29.2532 23.2418Z" fill="white"/>
</mask>
<g mask="url(#mask3_355_68886)">
<path d="M20.5067 0.0132963C19.6298 0.22666 19.0847 0.984995 18.7054 1.79081C18.587 2.09883 18.1603 3.04695 18.5633 3.26016C19.0847 3.52085 19.3454 2.35953 19.4402 2.07525C19.7246 1.17462 20.6726 0.0843665 21.6444 -0.105103L20.5067 0.0132963Z" fill="#383434"/>
</g>
<mask id="mask4_355_68886" style="mask-type:luminance" maskUnits="userSpaceOnUse" x="12" y="-1" width="23" height="30">
<path d="M29.2532 23.2418C29.2532 23.2418 28.6372 22.9811 28.8267 22.5072C28.8267 22.5072 28.9215 21.9621 29.6798 22.1755L31.4763 22.8013C31.5433 22.5331 31.6068 22.2646 31.6668 21.9955L29.822 21.3934C29.822 21.3934 29.2058 21.1327 29.3954 20.6588C29.3954 20.6588 29.4902 20.1137 30.2486 20.3269L31.8963 20.9008C31.9554 20.5997 32.0121 20.2982 32.0667 19.9959L30.2486 19.4025C30.2486 19.4025 29.6324 19.1418 29.822 18.6679C29.822 18.6679 29.9168 18.1228 30.6752 18.336L32.2607 18.8883C32.3121 18.586 32.3633 18.2828 32.4144 17.9793L30.6753 17.4118C30.6753 17.4118 30.0591 17.1511 30.2487 16.6772C30.2487 16.6772 30.3435 16.1321 31.1019 16.3453L32.6091 16.8703C32.6572 16.6374 32.7217 16.333 32.7971 15.9741L31.1021 15.4209C31.1021 15.4209 30.4857 15.1602 30.6755 14.6863C30.6755 14.6863 30.7703 14.1412 31.5285 14.3545L33.0241 14.8755C33.0818 14.5906 33.142 14.2894 33.2028 13.9765L31.5285 13.4302C31.5285 13.4302 30.9124 13.1695 31.1021 12.6954C31.1021 12.6954 31.1969 12.1503 31.9551 12.3637L33.411 12.8708C33.4623 12.5879 33.513 12.3002 33.5622 12.0101L31.8129 11.4393C31.8129 11.4393 31.1969 11.1786 31.3863 10.7047C31.3863 10.7047 31.4812 10.1596 32.2395 10.3728L33.7406 10.8957C33.7867 10.5881 33.8296 10.2819 33.8687 9.98021L32.2395 9.44856C32.2395 9.44856 31.6235 9.18787 31.8129 8.71396C31.8129 8.71396 31.9077 8.16884 32.6661 8.38205L33.9961 8.84538C34.118 7.53671 34.1245 6.40725 33.9106 5.76226C33.3375 4.03207 31.5273 2.95086 29.9876 2.01117C28.0462 0.826417 25.7981 0.375949 23.6125 0.0872269C21.5269 -0.197053 17.64 0.134709 16.4548 2.22025C16.1719 2.7182 15.8619 3.73018 15.547 5.02062C17.2072 4.76789 22.7045 4.2462 29.2532 7.00767C29.2532 7.00767 30.1539 7.2921 29.917 7.9083C29.917 7.9083 29.822 8.47717 29.0161 8.19273C29.0161 8.19273 23.2516 5.49713 15.2678 6.22743C15.201 6.5304 15.1343 6.84225 15.068 7.16176C16.6624 6.91255 22.2076 6.34966 28.8267 9.14069C28.8267 9.14069 29.7273 9.42512 29.4904 10.0413C29.4904 10.0413 29.3954 10.61 28.5895 10.3258C28.5895 10.3258 22.8315 7.49383 14.8545 8.21709C14.7938 8.52373 14.7338 8.83435 14.6744 9.14743C16.3104 8.89593 21.8253 8.35907 28.4001 11.1316C28.4001 11.1316 29.3007 11.416 29.0638 12.0322C29.0638 12.0322 28.9688 12.6009 28.163 12.3165C28.163 12.3165 22.4286 9.49604 14.4771 10.2034C14.4196 10.516 14.3631 10.8291 14.3074 11.1408C16.0149 10.9199 21.4769 10.5252 27.9735 13.2646C27.9735 13.2646 28.8741 13.549 28.6372 14.1652C28.6372 14.1652 28.5422 14.7339 27.7364 14.4495C27.7364 14.4495 22.0366 11.5078 14.1226 12.1875C14.0663 12.5104 14.0113 12.8296 13.9574 13.1436C15.5327 12.9452 20.7834 12.5715 27.689 15.113C27.689 15.113 28.5897 15.3975 28.3526 16.0137C28.3526 16.0137 28.2576 16.5824 27.4519 16.2981C27.4519 16.2981 21.9627 13.7858 13.7553 14.3348C13.7 14.6636 13.6467 14.9825 13.5956 15.289C15.2967 15.1365 20.7337 14.9049 27.2625 17.246C27.2625 17.246 28.1631 17.5305 27.926 18.1467C27.926 18.1467 27.831 18.7154 27.0253 18.4311C27.0253 18.4311 21.3323 15.6306 13.4257 16.3099C13.3684 16.6553 13.3146 16.9766 13.2658 17.267C15.0622 17.1053 20.3905 16.9029 26.8359 19.2369C26.8359 19.2369 27.7365 19.5214 27.4994 20.1376C27.4994 20.1376 27.4044 20.7063 26.5988 20.422C26.5988 20.422 21.1427 17.9816 13.0844 18.3144C13.025 18.6175 12.9672 18.9114 12.9144 19.1985C14.9001 19.2469 20.6621 19.5477 26.4093 21.3699C26.4093 21.3699 27.3099 21.6544 27.0728 22.2706C27.0728 22.2706 26.9779 22.8394 26.1722 22.555C26.1722 22.555 21.16 20.7436 12.7677 20.0867C12.5408 21.6968 12.6085 23.1259 13.6582 24.7354C14.5331 26.077 16.1128 26.7682 17.5534 27.3478C17.7414 27.4235 17.9293 27.4971 18.116 27.57C20.0556 28.3281 22.1304 28.8854 24.2289 28.8118C26.9308 28.717 29.7748 27.8638 30.7703 25.1619C30.9233 24.7335 31.0601 24.3037 31.1863 23.8729L29.2532 23.2418Z" fill="white"/>
</mask>
<g mask="url(#mask4_355_68886)">
<path d="M22.523 -0.125366C21.6224 -0.101625 20.769 1.01221 20.3899 1.72322C20.2241 2.05514 19.7264 2.83706 20.0107 3.19272C20.5083 3.87998 21.0062 2.81347 21.1246 2.48171C21.5038 1.46253 22.5466 -0.0305551 23.7791 -0.054143L22.523 -0.125366Z" fill="#383434"/>
</g>
<mask id="mask5_355_68886" style="mask-type:luminance" maskUnits="userSpaceOnUse" x="12" y="-1" width="23" height="30">
<path d="M29.2532 23.2418C29.2532 23.2418 28.6372 22.9811 28.8267 22.5072C28.8267 22.5072 28.9215 21.9621 29.6798 22.1755L31.4763 22.8013C31.5433 22.5331 31.6068 22.2646 31.6668 21.9955L29.822 21.3934C29.822 21.3934 29.2058 21.1327 29.3954 20.6588C29.3954 20.6588 29.4902 20.1137 30.2486 20.3269L31.8963 20.9008C31.9554 20.5997 32.0121 20.2982 32.0667 19.9959L30.2486 19.4025C30.2486 19.4025 29.6324 19.1418 29.822 18.6679C29.822 18.6679 29.9168 18.1228 30.6752 18.336L32.2607 18.8883C32.3121 18.586 32.3633 18.2828 32.4144 17.9793L30.6753 17.4118C30.6753 17.4118 30.0591 17.1511 30.2487 16.6772C30.2487 16.6772 30.3435 16.1321 31.1019 16.3453L32.6091 16.8703C32.6572 16.6374 32.7217 16.333 32.7971 15.9741L31.1021 15.4209C31.1021 15.4209 30.4857 15.1602 30.6755 14.6863C30.6755 14.6863 30.7703 14.1412 31.5285 14.3545L33.0241 14.8755C33.0818 14.5906 33.142 14.2894 33.2028 13.9765L31.5285 13.4302C31.5285 13.4302 30.9124 13.1695 31.1021 12.6954C31.1021 12.6954 31.1969 12.1503 31.9551 12.3637L33.411 12.8708C33.4623 12.5879 33.513 12.3002 33.5622 12.0101L31.8129 11.4393C31.8129 11.4393 31.1969 11.1786 31.3863 10.7047C31.3863 10.7047 31.4812 10.1596 32.2395 10.3728L33.7406 10.8957C33.7867 10.5881 33.8296 10.2819 33.8687 9.98021L32.2395 9.44856C32.2395 9.44856 31.6235 9.18787 31.8129 8.71396C31.8129 8.71396 31.9077 8.16884 32.6661 8.38205L33.9961 8.84538C34.118 7.53671 34.1245 6.40725 33.9106 5.76226C33.3375 4.03207 31.5273 2.95086 29.9876 2.01117C28.0462 0.826417 25.7981 0.375949 23.6125 0.0872269C21.5269 -0.197053 17.64 0.134709 16.4548 2.22025C16.1719 2.7182 15.8619 3.73018 15.547 5.02062C17.2072 4.76789 22.7045 4.2462 29.2532 7.00767C29.2532 7.00767 30.1539 7.2921 29.917 7.9083C29.917 7.9083 29.822 8.47717 29.0161 8.19273C29.0161 8.19273 23.2516 5.49713 15.2678 6.22743C15.201 6.5304 15.1343 6.84225 15.068 7.16176C16.6624 6.91255 22.2076 6.34966 28.8267 9.14069C28.8267 9.14069 29.7273 9.42512 29.4904 10.0413C29.4904 10.0413 29.3954 10.61 28.5895 10.3258C28.5895 10.3258 22.8315 7.49383 14.8545 8.21709C14.7938 8.52373 14.7338 8.83435 14.6744 9.14743C16.3104 8.89593 21.8253 8.35907 28.4001 11.1316C28.4001 11.1316 29.3007 11.416 29.0638 12.0322C29.0638 12.0322 28.9688 12.6009 28.163 12.3165C28.163 12.3165 22.4286 9.49604 14.4771 10.2034C14.4196 10.516 14.3631 10.8291 14.3074 11.1408C16.0149 10.9199 21.4769 10.5252 27.9735 13.2646C27.9735 13.2646 28.8741 13.549 28.6372 14.1652C28.6372 14.1652 28.5422 14.7339 27.7364 14.4495C27.7364 14.4495 22.0366 11.5078 14.1226 12.1875C14.0663 12.5104 14.0113 12.8296 13.9574 13.1436C15.5327 12.9452 20.7834 12.5715 27.689 15.113C27.689 15.113 28.5897 15.3975 28.3526 16.0137C28.3526 16.0137 28.2576 16.5824 27.4519 16.2981C27.4519 16.2981 21.9627 13.7858 13.7553 14.3348C13.7 14.6636 13.6467 14.9825 13.5956 15.289C15.2967 15.1365 20.7337 14.9049 27.2625 17.246C27.2625 17.246 28.1631 17.5305 27.926 18.1467C27.926 18.1467 27.831 18.7154 27.0253 18.4311C27.0253 18.4311 21.3323 15.6306 13.4257 16.3099C13.3684 16.6553 13.3146 16.9766 13.2658 17.267C15.0622 17.1053 20.3905 16.9029 26.8359 19.2369C26.8359 19.2369 27.7365 19.5214 27.4994 20.1376C27.4994 20.1376 27.4044 20.7063 26.5988 20.422C26.5988 20.422 21.1427 17.9816 13.0844 18.3144C13.025 18.6175 12.9672 18.9114 12.9144 19.1985C14.9001 19.2469 20.6621 19.5477 26.4093 21.3699C26.4093 21.3699 27.3099 21.6544 27.0728 22.2706C27.0728 22.2706 26.9779 22.8394 26.1722 22.555C26.1722 22.555 21.16 20.7436 12.7677 20.0867C12.5408 21.6968 12.6085 23.1259 13.6582 24.7354C14.5331 26.077 16.1128 26.7682 17.5534 27.3478C17.7414 27.4235 17.9293 27.4971 18.116 27.57C20.0556 28.3281 22.1304 28.8854 24.2289 28.8118C26.9308 28.717 29.7748 27.8638 30.7703 25.1619C30.9233 24.7335 31.0601 24.3037 31.1863 23.8729L29.2532 23.2418Z" fill="white"/>
</mask>
<g mask="url(#mask5_355_68886)">
<path d="M24.4203 0.0418701C23.4486 0.11294 22.5718 1.22693 22.1214 2.00901C21.9317 2.34092 21.4814 3.33621 22.0265 3.57316C22.6428 3.83385 22.8561 2.83841 23.022 2.48291C23.5198 1.25052 24.5626 0.610584 25.7713 0.278821L24.4203 0.0418701Z" fill="#383434"/>
</g>
<mask id="mask6_355_68886" style="mask-type:luminance" maskUnits="userSpaceOnUse" x="12" y="-1" width="23" height="30">
<path d="M29.2532 23.2418C29.2532 23.2418 28.6372 22.9811 28.8267 22.5072C28.8267 22.5072 28.9215 21.9621 29.6798 22.1755L31.4763 22.8013C31.5433 22.5331 31.6068 22.2646 31.6668 21.9955L29.822 21.3934C29.822 21.3934 29.2058 21.1327 29.3954 20.6588C29.3954 20.6588 29.4902 20.1137 30.2486 20.3269L31.8963 20.9008C31.9554 20.5997 32.0121 20.2982 32.0667 19.9959L30.2486 19.4025C30.2486 19.4025 29.6324 19.1418 29.822 18.6679C29.822 18.6679 29.9168 18.1228 30.6752 18.336L32.2607 18.8883C32.3121 18.586 32.3633 18.2828 32.4144 17.9793L30.6753 17.4118C30.6753 17.4118 30.0591 17.1511 30.2487 16.6772C30.2487 16.6772 30.3435 16.1321 31.1019 16.3453L32.6091 16.8703C32.6572 16.6374 32.7217 16.333 32.7971 15.9741L31.1021 15.4209C31.1021 15.4209 30.4857 15.1602 30.6755 14.6863C30.6755 14.6863 30.7703 14.1412 31.5285 14.3545L33.0241 14.8755C33.0818 14.5906 33.142 14.2894 33.2028 13.9765L31.5285 13.4302C31.5285 13.4302 30.9124 13.1695 31.1021 12.6954C31.1021 12.6954 31.1969 12.1503 31.9551 12.3637L33.411 12.8708C33.4623 12.5879 33.513 12.3002 33.5622 12.0101L31.8129 11.4393C31.8129 11.4393 31.1969 11.1786 31.3863 10.7047C31.3863 10.7047 31.4812 10.1596 32.2395 10.3728L33.7406 10.8957C33.7867 10.5881 33.8296 10.2819 33.8687 9.98021L32.2395 9.44856C32.2395 9.44856 31.6235 9.18787 31.8129 8.71396C31.8129 8.71396 31.9077 8.16884 32.6661 8.38205L33.9961 8.84538C34.118 7.53671 34.1245 6.40725 33.9106 5.76226C33.3375 4.03207 31.5273 2.95086 29.9876 2.01117C28.0462 0.826417 25.7981 0.375949 23.6125 0.0872269C21.5269 -0.197053 17.64 0.134709 16.4548 2.22025C16.1719 2.7182 15.8619 3.73018 15.547 5.02062C17.2072 4.76789 22.7045 4.2462 29.2532 7.00767C29.2532 7.00767 30.1539 7.2921 29.917 7.9083C29.917 7.9083 29.822 8.47717 29.0161 8.19273C29.0161 8.19273 23.2516 5.49713 15.2678 6.22743C15.201 6.5304 15.1343 6.84225 15.068 7.16176C16.6624 6.91255 22.2076 6.34966 28.8267 9.14069C28.8267 9.14069 29.7273 9.42512 29.4904 10.0413C29.4904 10.0413 29.3954 10.61 28.5895 10.3258C28.5895 10.3258 22.8315 7.49383 14.8545 8.21709C14.7938 8.52373 14.7338 8.83435 14.6744 9.14743C16.3104 8.89593 21.8253 8.35907 28.4001 11.1316C28.4001 11.1316 29.3007 11.416 29.0638 12.0322C29.0638 12.0322 28.9688 12.6009 28.163 12.3165C28.163 12.3165 22.4286 9.49604 14.4771 10.2034C14.4196 10.516 14.3631 10.8291 14.3074 11.1408C16.0149 10.9199 21.4769 10.5252 27.9735 13.2646C27.9735 13.2646 28.8741 13.549 28.6372 14.1652C28.6372 14.1652 28.5422 14.7339 27.7364 14.4495C27.7364 14.4495 22.0366 11.5078 14.1226 12.1875C14.0663 12.5104 14.0113 12.8296 13.9574 13.1436C15.5327 12.9452 20.7834 12.5715 27.689 15.113C27.689 15.113 28.5897 15.3975 28.3526 16.0137C28.3526 16.0137 28.2576 16.5824 27.4519 16.2981C27.4519 16.2981 21.9627 13.7858 13.7553 14.3348C13.7 14.6636 13.6467 14.9825 13.5956 15.289C15.2967 15.1365 20.7337 14.9049 27.2625 17.246C27.2625 17.246 28.1631 17.5305 27.926 18.1467C27.926 18.1467 27.831 18.7154 27.0253 18.4311C27.0253 18.4311 21.3323 15.6306 13.4257 16.3099C13.3684 16.6553 13.3146 16.9766 13.2658 17.267C15.0622 17.1053 20.3905 16.9029 26.8359 19.2369C26.8359 19.2369 27.7365 19.5214 27.4994 20.1376C27.4994 20.1376 27.4044 20.7063 26.5988 20.422C26.5988 20.422 21.1427 17.9816 13.0844 18.3144C13.025 18.6175 12.9672 18.9114 12.9144 19.1985C14.9001 19.2469 20.6621 19.5477 26.4093 21.3699C26.4093 21.3699 27.3099 21.6544 27.0728 22.2706C27.0728 22.2706 26.9779 22.8394 26.1722 22.555C26.1722 22.555 21.16 20.7436 12.7677 20.0867C12.5408 21.6968 12.6085 23.1259 13.6582 24.7354C14.5331 26.077 16.1128 26.7682 17.5534 27.3478C17.7414 27.4235 17.9293 27.4971 18.116 27.57C20.0556 28.3281 22.1304 28.8854 24.2289 28.8118C26.9308 28.717 29.7748 27.8638 30.7703 25.1619C30.9233 24.7335 31.0601 24.3037 31.1863 23.8729L29.2532 23.2418Z" fill="white"/>
</mask>
<g mask="url(#mask6_355_68886)">
<path d="M26.6204 0.3927C26.3833 0.511252 26.1226 0.511252 25.862 0.629805C25.2931 0.914238 24.7007 1.43562 24.3451 1.95701C24.108 2.35984 23.6579 3.04726 23.7527 3.5449C23.8948 4.32698 24.5346 3.87666 24.8192 3.47383C25.5776 2.43106 26.4307 0.701028 27.9951 0.819427L26.6204 0.3927Z" fill="#383434"/>
</g>
<mask id="mask7_355_68886" style="mask-type:luminance" maskUnits="userSpaceOnUse" x="12" y="-1" width="23" height="30">
<path d="M29.2532 23.2418C29.2532 23.2418 28.6372 22.9811 28.8267 22.5072C28.8267 22.5072 28.9215 21.9621 29.6798 22.1755L31.4763 22.8013C31.5433 22.5331 31.6068 22.2646 31.6668 21.9955L29.822 21.3934C29.822 21.3934 29.2058 21.1327 29.3954 20.6588C29.3954 20.6588 29.4902 20.1137 30.2486 20.3269L31.8963 20.9008C31.9554 20.5997 32.0121 20.2982 32.0667 19.9959L30.2486 19.4025C30.2486 19.4025 29.6324 19.1418 29.822 18.6679C29.822 18.6679 29.9168 18.1228 30.6752 18.336L32.2607 18.8883C32.3121 18.586 32.3633 18.2828 32.4144 17.9793L30.6753 17.4118C30.6753 17.4118 30.0591 17.1511 30.2487 16.6772C30.2487 16.6772 30.3435 16.1321 31.1019 16.3453L32.6091 16.8703C32.6572 16.6374 32.7217 16.333 32.7971 15.9741L31.1021 15.4209C31.1021 15.4209 30.4857 15.1602 30.6755 14.6863C30.6755 14.6863 30.7703 14.1412 31.5285 14.3545L33.0241 14.8755C33.0818 14.5906 33.142 14.2894 33.2028 13.9765L31.5285 13.4302C31.5285 13.4302 30.9124 13.1695 31.1021 12.6954C31.1021 12.6954 31.1969 12.1503 31.9551 12.3637L33.411 12.8708C33.4623 12.5879 33.513 12.3002 33.5622 12.0101L31.8129 11.4393C31.8129 11.4393 31.1969 11.1786 31.3863 10.7047C31.3863 10.7047 31.4812 10.1596 32.2395 10.3728L33.7406 10.8957C33.7867 10.5881 33.8296 10.2819 33.8687 9.98021L32.2395 9.44856C32.2395 9.44856 31.6235 9.18787 31.8129 8.71396C31.8129 8.71396 31.9077 8.16884 32.6661 8.38205L33.9961 8.84538C34.118 7.53671 34.1245 6.40725 33.9106 5.76226C33.3375 4.03207 31.5273 2.95086 29.9876 2.01117C28.0462 0.826417 25.7981 0.375949 23.6125 0.0872269C21.5269 -0.197053 17.64 0.134709 16.4548 2.22025C16.1719 2.7182 15.8619 3.73018 15.547 5.02062C17.2072 4.76789 22.7045 4.2462 29.2532 7.00767C29.2532 7.00767 30.1539 7.2921 29.917 7.9083C29.917 7.9083 29.822 8.47717 29.0161 8.19273C29.0161 8.19273 23.2516 5.49713 15.2678 6.22743C15.201 6.5304 15.1343 6.84225 15.068 7.16176C16.6624 6.91255 22.2076 6.34966 28.8267 9.14069C28.8267 9.14069 29.7273 9.42512 29.4904 10.0413C29.4904 10.0413 29.3954 10.61 28.5895 10.3258C28.5895 10.3258 22.8315 7.49383 14.8545 8.21709C14.7938 8.52373 14.7338 8.83435 14.6744 9.14743C16.3104 8.89593 21.8253 8.35907 28.4001 11.1316C28.4001 11.1316 29.3007 11.416 29.0638 12.0322C29.0638 12.0322 28.9688 12.6009 28.163 12.3165C28.163 12.3165 22.4286 9.49604 14.4771 10.2034C14.4196 10.516 14.3631 10.8291 14.3074 11.1408C16.0149 10.9199 21.4769 10.5252 27.9735 13.2646C27.9735 13.2646 28.8741 13.549 28.6372 14.1652C28.6372 14.1652 28.5422 14.7339 27.7364 14.4495C27.7364 14.4495 22.0366 11.5078 14.1226 12.1875C14.0663 12.5104 14.0113 12.8296 13.9574 13.1436C15.5327 12.9452 20.7834 12.5715 27.689 15.113C27.689 15.113 28.5897 15.3975 28.3526 16.0137C28.3526 16.0137 28.2576 16.5824 27.4519 16.2981C27.4519 16.2981 21.9627 13.7858 13.7553 14.3348C13.7 14.6636 13.6467 14.9825 13.5956 15.289C15.2967 15.1365 20.7337 14.9049 27.2625 17.246C27.2625 17.246 28.1631 17.5305 27.926 18.1467C27.926 18.1467 27.831 18.7154 27.0253 18.4311C27.0253 18.4311 21.3323 15.6306 13.4257 16.3099C13.3684 16.6553 13.3146 16.9766 13.2658 17.267C15.0622 17.1053 20.3905 16.9029 26.8359 19.2369C26.8359 19.2369 27.7365 19.5214 27.4994 20.1376C27.4994 20.1376 27.4044 20.7063 26.5988 20.422C26.5988 20.422 21.1427 17.9816 13.0844 18.3144C13.025 18.6175 12.9672 18.9114 12.9144 19.1985C14.9001 19.2469 20.6621 19.5477 26.4093 21.3699C26.4093 21.3699 27.3099 21.6544 27.0728 22.2706C27.0728 22.2706 26.9779 22.8394 26.1722 22.555C26.1722 22.555 21.16 20.7436 12.7677 20.0867C12.5408 21.6968 12.6085 23.1259 13.6582 24.7354C14.5331 26.077 16.1128 26.7682 17.5534 27.3478C17.7414 27.4235 17.9293 27.4971 18.116 27.57C20.0556 28.3281 22.1304 28.8854 24.2289 28.8118C26.9308 28.717 29.7748 27.8638 30.7703 25.1619C30.9233 24.7335 31.0601 24.3037 31.1863 23.8729L29.2532 23.2418Z" fill="white"/>
</mask>
<g mask="url(#mask7_355_68886)">
<path d="M14.4378 25.9665C13.9164 25.3741 13.5134 24.5208 13.3239 23.7624C13.2291 23.3358 13.158 22.8618 13.1817 22.4116C13.2055 22.0561 13.5372 21.0844 13.8928 21.7479C14.0351 22.0324 13.9402 22.6484 13.9402 22.9568C13.964 23.4069 14.0113 23.8336 14.0825 24.2602C14.2247 25.0896 14.5802 25.7058 14.9832 26.4168L14.4378 25.9665Z" fill="#383434"/>
</g>
<mask id="mask8_355_68886" style="mask-type:luminance" maskUnits="userSpaceOnUse" x="12" y="-1" width="23" height="30">
<path d="M29.2532 23.2418C29.2532 23.2418 28.6372 22.9811 28.8267 22.5072C28.8267 22.5072 28.9215 21.9621 29.6798 22.1755L31.4763 22.8013C31.5433 22.5331 31.6068 22.2646 31.6668 21.9955L29.822 21.3934C29.822 21.3934 29.2058 21.1327 29.3954 20.6588C29.3954 20.6588 29.4902 20.1137 30.2486 20.3269L31.8963 20.9008C31.9554 20.5997 32.0121 20.2982 32.0667 19.9959L30.2486 19.4025C30.2486 19.4025 29.6324 19.1418 29.822 18.6679C29.822 18.6679 29.9168 18.1228 30.6752 18.336L32.2607 18.8883C32.3121 18.586 32.3633 18.2828 32.4144 17.9793L30.6753 17.4118C30.6753 17.4118 30.0591 17.1511 30.2487 16.6772C30.2487 16.6772 30.3435 16.1321 31.1019 16.3453L32.6091 16.8703C32.6572 16.6374 32.7217 16.333 32.7971 15.9741L31.1021 15.4209C31.1021 15.4209 30.4857 15.1602 30.6755 14.6863C30.6755 14.6863 30.7703 14.1412 31.5285 14.3545L33.0241 14.8755C33.0818 14.5906 33.142 14.2894 33.2028 13.9765L31.5285 13.4302C31.5285 13.4302 30.9124 13.1695 31.1021 12.6954C31.1021 12.6954 31.1969 12.1503 31.9551 12.3637L33.411 12.8708C33.4623 12.5879 33.513 12.3002 33.5622 12.0101L31.8129 11.4393C31.8129 11.4393 31.1969 11.1786 31.3863 10.7047C31.3863 10.7047 31.4812 10.1596 32.2395 10.3728L33.7406 10.8957C33.7867 10.5881 33.8296 10.2819 33.8687 9.98021L32.2395 9.44856C32.2395 9.44856 31.6235 9.18787 31.8129 8.71396C31.8129 8.71396 31.9077 8.16884 32.6661 8.38205L33.9961 8.84538C34.118 7.53671 34.1245 6.40725 33.9106 5.76226C33.3375 4.03207 31.5273 2.95086 29.9876 2.01117C28.0462 0.826417 25.7981 0.375949 23.6125 0.0872269C21.5269 -0.197053 17.64 0.134709 16.4548 2.22025C16.1719 2.7182 15.8619 3.73018 15.547 5.02062C17.2072 4.76789 22.7045 4.2462 29.2532 7.00767C29.2532 7.00767 30.1539 7.2921 29.917 7.9083C29.917 7.9083 29.822 8.47717 29.0161 8.19273C29.0161 8.19273 23.2516 5.49713 15.2678 6.22743C15.201 6.5304 15.1343 6.84225 15.068 7.16176C16.6624 6.91255 22.2076 6.34966 28.8267 9.14069C28.8267 9.14069 29.7273 9.42512 29.4904 10.0413C29.4904 10.0413 29.3954 10.61 28.5895 10.3258C28.5895 10.3258 22.8315 7.49383 14.8545 8.21709C14.7938 8.52373 14.7338 8.83435 14.6744 9.14743C16.3104 8.89593 21.8253 8.35907 28.4001 11.1316C28.4001 11.1316 29.3007 11.416 29.0638 12.0322C29.0638 12.0322 28.9688 12.6009 28.163 12.3165C28.163 12.3165 22.4286 9.49604 14.4771 10.2034C14.4196 10.516 14.3631 10.8291 14.3074 11.1408C16.0149 10.9199 21.4769 10.5252 27.9735 13.2646C27.9735 13.2646 28.8741 13.549 28.6372 14.1652C28.6372 14.1652 28.5422 14.7339 27.7364 14.4495C27.7364 14.4495 22.0366 11.5078 14.1226 12.1875C14.0663 12.5104 14.0113 12.8296 13.9574 13.1436C15.5327 12.9452 20.7834 12.5715 27.689 15.113C27.689 15.113 28.5897 15.3975 28.3526 16.0137C28.3526 16.0137 28.2576 16.5824 27.4519 16.2981C27.4519 16.2981 21.9627 13.7858 13.7553 14.3348C13.7 14.6636 13.6467 14.9825 13.5956 15.289C15.2967 15.1365 20.7337 14.9049 27.2625 17.246C27.2625 17.246 28.1631 17.5305 27.926 18.1467C27.926 18.1467 27.831 18.7154 27.0253 18.4311C27.0253 18.4311 21.3323 15.6306 13.4257 16.3099C13.3684 16.6553 13.3146 16.9766 13.2658 17.267C15.0622 17.1053 20.3905 16.9029 26.8359 19.2369C26.8359 19.2369 27.7365 19.5214 27.4994 20.1376C27.4994 20.1376 27.4044 20.7063 26.5988 20.422C26.5988 20.422 21.1427 17.9816 13.0844 18.3144C13.025 18.6175 12.9672 18.9114 12.9144 19.1985C14.9001 19.2469 20.6621 19.5477 26.4093 21.3699C26.4093 21.3699 27.3099 21.6544 27.0728 22.2706C27.0728 22.2706 26.9779 22.8394 26.1722 22.555C26.1722 22.555 21.16 20.7436 12.7677 20.0867C12.5408 21.6968 12.6085 23.1259 13.6582 24.7354C14.5331 26.077 16.1128 26.7682 17.5534 27.3478C17.7414 27.4235 17.9293 27.4971 18.116 27.57C20.0556 28.3281 22.1304 28.8854 24.2289 28.8118C26.9308 28.717 29.7748 27.8638 30.7703 25.1619C30.9233 24.7335 31.0601 24.3037 31.1863 23.8729L29.2532 23.2418Z" fill="white"/>
</mask>
<g mask="url(#mask8_355_68886)">
<path d="M16.5268 27.0111C15.9579 26.5134 15.3418 26.1342 15.0337 25.3759C14.6544 24.4752 14.5122 23.3377 14.6308 22.3422C14.7019 21.6312 15.3418 21.6549 15.4131 22.366C15.4604 22.8873 15.4131 23.4325 15.4367 23.9774C15.5077 25.2098 15.8396 26.0394 16.8587 26.7977C17.2616 27.1059 17.6644 27.3666 17.9963 27.6982L16.5268 27.0111Z" fill="#383434"/>
</g>
<mask id="mask9_355_68886" style="mask-type:luminance" maskUnits="userSpaceOnUse" x="12" y="-1" width="23" height="30">
<path d="M29.2532 23.2418C29.2532 23.2418 28.6372 22.9811 28.8267 22.5072C28.8267 22.5072 28.9215 21.9621 29.6798 22.1755L31.4763 22.8013C31.5433 22.5331 31.6068 22.2646 31.6668 21.9955L29.822 21.3934C29.822 21.3934 29.2058 21.1327 29.3954 20.6588C29.3954 20.6588 29.4902 20.1137 30.2486 20.3269L31.8963 20.9008C31.9554 20.5997 32.0121 20.2982 32.0667 19.9959L30.2486 19.4025C30.2486 19.4025 29.6324 19.1418 29.822 18.6679C29.822 18.6679 29.9168 18.1228 30.6752 18.336L32.2607 18.8883C32.3121 18.586 32.3633 18.2828 32.4144 17.9793L30.6753 17.4118C30.6753 17.4118 30.0591 17.1511 30.2487 16.6772C30.2487 16.6772 30.3435 16.1321 31.1019 16.3453L32.6091 16.8703C32.6572 16.6374 32.7217 16.333 32.7971 15.9741L31.1021 15.4209C31.1021 15.4209 30.4857 15.1602 30.6755 14.6863C30.6755 14.6863 30.7703 14.1412 31.5285 14.3545L33.0241 14.8755C33.0818 14.5906 33.142 14.2894 33.2028 13.9765L31.5285 13.4302C31.5285 13.4302 30.9124 13.1695 31.1021 12.6954C31.1021 12.6954 31.1969 12.1503 31.9551 12.3637L33.411 12.8708C33.4623 12.5879 33.513 12.3002 33.5622 12.0101L31.8129 11.4393C31.8129 11.4393 31.1969 11.1786 31.3863 10.7047C31.3863 10.7047 31.4812 10.1596 32.2395 10.3728L33.7406 10.8957C33.7867 10.5881 33.8296 10.2819 33.8687 9.98021L32.2395 9.44856C32.2395 9.44856 31.6235 9.18787 31.8129 8.71396C31.8129 8.71396 31.9077 8.16884 32.6661 8.38205L33.9961 8.84538C34.118 7.53671 34.1245 6.40725 33.9106 5.76226C33.3375 4.03207 31.5273 2.95086 29.9876 2.01117C28.0462 0.826417 25.7981 0.375949 23.6125 0.0872269C21.5269 -0.197053 17.64 0.134709 16.4548 2.22025C16.1719 2.7182 15.8619 3.73018 15.547 5.02062C17.2072 4.76789 22.7045 4.2462 29.2532 7.00767C29.2532 7.00767 30.1539 7.2921 29.917 7.9083C29.917 7.9083 29.822 8.47717 29.0161 8.19273C29.0161 8.19273 23.2516 5.49713 15.2678 6.22743C15.201 6.5304 15.1343 6.84225 15.068 7.16176C16.6624 6.91255 22.2076 6.34966 28.8267 9.14069C28.8267 9.14069 29.7273 9.42512 29.4904 10.0413C29.4904 10.0413 29.3954 10.61 28.5895 10.3258C28.5895 10.3258 22.8315 7.49383 14.8545 8.21709C14.7938 8.52373 14.7338 8.83435 14.6744 9.14743C16.3104 8.89593 21.8253 8.35907 28.4001 11.1316C28.4001 11.1316 29.3007 11.416 29.0638 12.0322C29.0638 12.0322 28.9688 12.6009 28.163 12.3165C28.163 12.3165 22.4286 9.49604 14.4771 10.2034C14.4196 10.516 14.3631 10.8291 14.3074 11.1408C16.0149 10.9199 21.4769 10.5252 27.9735 13.2646C27.9735 13.2646 28.8741 13.549 28.6372 14.1652C28.6372 14.1652 28.5422 14.7339 27.7364 14.4495C27.7364 14.4495 22.0366 11.5078 14.1226 12.1875C14.0663 12.5104 14.0113 12.8296 13.9574 13.1436C15.5327 12.9452 20.7834 12.5715 27.689 15.113C27.689 15.113 28.5897 15.3975 28.3526 16.0137C28.3526 16.0137 28.2576 16.5824 27.4519 16.2981C27.4519 16.2981 21.9627 13.7858 13.7553 14.3348C13.7 14.6636 13.6467 14.9825 13.5956 15.289C15.2967 15.1365 20.7337 14.9049 27.2625 17.246C27.2625 17.246 28.1631 17.5305 27.926 18.1467C27.926 18.1467 27.831 18.7154 27.0253 18.4311C27.0253 18.4311 21.3323 15.6306 13.4257 16.3099C13.3684 16.6553 13.3146 16.9766 13.2658 17.267C15.0622 17.1053 20.3905 16.9029 26.8359 19.2369C26.8359 19.2369 27.7365 19.5214 27.4994 20.1376C27.4994 20.1376 27.4044 20.7063 26.5988 20.422C26.5988 20.422 21.1427 17.9816 13.0844 18.3144C13.025 18.6175 12.9672 18.9114 12.9144 19.1985C14.9001 19.2469 20.6621 19.5477 26.4093 21.3699C26.4093 21.3699 27.3099 21.6544 27.0728 22.2706C27.0728 22.2706 26.9779 22.8394 26.1722 22.555C26.1722 22.555 21.16 20.7436 12.7677 20.0867C12.5408 21.6968 12.6085 23.1259 13.6582 24.7354C14.5331 26.077 16.1128 26.7682 17.5534 27.3478C17.7414 27.4235 17.9293 27.4971 18.116 27.57C20.0556 28.3281 22.1304 28.8854 24.2289 28.8118C26.9308 28.717 29.7748 27.8638 30.7703 25.1619C30.9233 24.7335 31.0601 24.3037 31.1863 23.8729L29.2532 23.2418Z" fill="white"/>
</mask>
<g mask="url(#mask9_355_68886)">
<path d="M20.1538 28.3375C19.3954 27.8161 18.6844 27.3659 18.0445 26.6549C17.2861 25.8254 17.049 24.5692 17.049 23.4554C17.049 23.0999 17.1911 22.1282 16.7645 21.9623C16.1246 21.7254 16.1483 22.9577 16.1958 23.2658C16.3379 24.4744 16.2906 25.4697 17.0727 26.4178C17.6415 27.0813 18.708 27.745 19.419 28.2191L20.1538 28.3375Z" fill="#383434"/>
</g>
<mask id="mask10_355_68886" style="mask-type:luminance" maskUnits="userSpaceOnUse" x="12" y="-1" width="23" height="30">
<path d="M29.2532 23.2418C29.2532 23.2418 28.6372 22.9811 28.8267 22.5072C28.8267 22.5072 28.9215 21.9621 29.6798 22.1755L31.4763 22.8013C31.5433 22.5331 31.6068 22.2646 31.6668 21.9955L29.822 21.3934C29.822 21.3934 29.2058 21.1327 29.3954 20.6588C29.3954 20.6588 29.4902 20.1137 30.2486 20.3269L31.8963 20.9008C31.9554 20.5997 32.0121 20.2982 32.0667 19.9959L30.2486 19.4025C30.2486 19.4025 29.6324 19.1418 29.822 18.6679C29.822 18.6679 29.9168 18.1228 30.6752 18.336L32.2607 18.8883C32.3121 18.586 32.3633 18.2828 32.4144 17.9793L30.6753 17.4118C30.6753 17.4118 30.0591 17.1511 30.2487 16.6772C30.2487 16.6772 30.3435 16.1321 31.1019 16.3453L32.6091 16.8703C32.6572 16.6374 32.7217 16.333 32.7971 15.9741L31.1021 15.4209C31.1021 15.4209 30.4857 15.1602 30.6755 14.6863C30.6755 14.6863 30.7703 14.1412 31.5285 14.3545L33.0241 14.8755C33.0818 14.5906 33.142 14.2894 33.2028 13.9765L31.5285 13.4302C31.5285 13.4302 30.9124 13.1695 31.1021 12.6954C31.1021 12.6954 31.1969 12.1503 31.9551 12.3637L33.411 12.8708C33.4623 12.5879 33.513 12.3002 33.5622 12.0101L31.8129 11.4393C31.8129 11.4393 31.1969 11.1786 31.3863 10.7047C31.3863 10.7047 31.4812 10.1596 32.2395 10.3728L33.7406 10.8957C33.7867 10.5881 33.8296 10.2819 33.8687 9.98021L32.2395 9.44856C32.2395 9.44856 31.6235 9.18787 31.8129 8.71396C31.8129 8.71396 31.9077 8.16884 32.6661 8.38205L33.9961 8.84538C34.118 7.53671 34.1245 6.40725 33.9106 5.76226C33.3375 4.03207 31.5273 2.95086 29.9876 2.01117C28.0462 0.826417 25.7981 0.375949 23.6125 0.0872269C21.5269 -0.197053 17.64 0.134709 16.4548 2.22025C16.1719 2.7182 15.8619 3.73018 15.547 5.02062C17.2072 4.76789 22.7045 4.2462 29.2532 7.00767C29.2532 7.00767 30.1539 7.2921 29.917 7.9083C29.917 7.9083 29.822 8.47717 29.0161 8.19273C29.0161 8.19273 23.2516 5.49713 15.2678 6.22743C15.201 6.5304 15.1343 6.84225 15.068 7.16176C16.6624 6.91255 22.2076 6.34966 28.8267 9.14069C28.8267 9.14069 29.7273 9.42512 29.4904 10.0413C29.4904 10.0413 29.3954 10.61 28.5895 10.3258C28.5895 10.3258 22.8315 7.49383 14.8545 8.21709C14.7938 8.52373 14.7338 8.83435 14.6744 9.14743C16.3104 8.89593 21.8253 8.35907 28.4001 11.1316C28.4001 11.1316 29.3007 11.416 29.0638 12.0322C29.0638 12.0322 28.9688 12.6009 28.163 12.3165C28.163 12.3165 22.4286 9.49604 14.4771 10.2034C14.4196 10.516 14.3631 10.8291 14.3074 11.1408C16.0149 10.9199 21.4769 10.5252 27.9735 13.2646C27.9735 13.2646 28.8741 13.549 28.6372 14.1652C28.6372 14.1652 28.5422 14.7339 27.7364 14.4495C27.7364 14.4495 22.0366 11.5078 14.1226 12.1875C14.0663 12.5104 14.0113 12.8296 13.9574 13.1436C15.5327 12.9452 20.7834 12.5715 27.689 15.113C27.689 15.113 28.5897 15.3975 28.3526 16.0137C28.3526 16.0137 28.2576 16.5824 27.4519 16.2981C27.4519 16.2981 21.9627 13.7858 13.7553 14.3348C13.7 14.6636 13.6467 14.9825 13.5956 15.289C15.2967 15.1365 20.7337 14.9049 27.2625 17.246C27.2625 17.246 28.1631 17.5305 27.926 18.1467C27.926 18.1467 27.831 18.7154 27.0253 18.4311C27.0253 18.4311 21.3323 15.6306 13.4257 16.3099C13.3684 16.6553 13.3146 16.9766 13.2658 17.267C15.0622 17.1053 20.3905 16.9029 26.8359 19.2369C26.8359 19.2369 27.7365 19.5214 27.4994 20.1376C27.4994 20.1376 27.4044 20.7063 26.5988 20.422C26.5988 20.422 21.1427 17.9816 13.0844 18.3144C13.025 18.6175 12.9672 18.9114 12.9144 19.1985C14.9001 19.2469 20.6621 19.5477 26.4093 21.3699C26.4093 21.3699 27.3099 21.6544 27.0728 22.2706C27.0728 22.2706 26.9779 22.8394 26.1722 22.555C26.1722 22.555 21.16 20.7436 12.7677 20.0867C12.5408 21.6968 12.6085 23.1259 13.6582 24.7354C14.5331 26.077 16.1128 26.7682 17.5534 27.3478C17.7414 27.4235 17.9293 27.4971 18.116 27.57C20.0556 28.3281 22.1304 28.8854 24.2289 28.8118C26.9308 28.717 29.7748 27.8638 30.7703 25.1619C30.9233 24.7335 31.0601 24.3037 31.1863 23.8729L29.2532 23.2418Z" fill="white"/>
</mask>
<g mask="url(#mask10_355_68886)">
<path d="M21.8118 28.694C20.1765 27.8881 18.3752 26.6322 17.9249 24.7123C17.8063 24.2383 17.8063 23.6933 17.83 23.1955C17.83 22.9822 17.83 22.6268 17.9959 22.4609C18.2329 22.2002 18.5173 22.3188 18.6595 22.6031C18.8491 23.0296 18.707 23.7406 18.7305 24.2146C18.778 24.7359 18.9202 25.2811 19.1571 25.7551C19.9156 27.2245 21.5747 28.0778 22.9257 28.8124L21.8118 28.694Z" fill="#383434"/>
</g>
<mask id="mask11_355_68886" style="mask-type:luminance" maskUnits="userSpaceOnUse" x="12" y="-1" width="23" height="30">
<path d="M29.2532 23.2418C29.2532 23.2418 28.6372 22.9811 28.8267 22.5072C28.8267 22.5072 28.9215 21.9621 29.6798 22.1755L31.4763 22.8013C31.5433 22.5331 31.6068 22.2646 31.6668 21.9955L29.822 21.3934C29.822 21.3934 29.2058 21.1327 29.3954 20.6588C29.3954 20.6588 29.4902 20.1137 30.2486 20.3269L31.8963 20.9008C31.9554 20.5997 32.0121 20.2982 32.0667 19.9959L30.2486 19.4025C30.2486 19.4025 29.6324 19.1418 29.822 18.6679C29.822 18.6679 29.9168 18.1228 30.6752 18.336L32.2607 18.8883C32.3121 18.586 32.3633 18.2828 32.4144 17.9793L30.6753 17.4118C30.6753 17.4118 30.0591 17.1511 30.2487 16.6772C30.2487 16.6772 30.3435 16.1321 31.1019 16.3453L32.6091 16.8703C32.6572 16.6374 32.7217 16.333 32.7971 15.9741L31.1021 15.4209C31.1021 15.4209 30.4857 15.1602 30.6755 14.6863C30.6755 14.6863 30.7703 14.1412 31.5285 14.3545L33.0241 14.8755C33.0818 14.5906 33.142 14.2894 33.2028 13.9765L31.5285 13.4302C31.5285 13.4302 30.9124 13.1695 31.1021 12.6954C31.1021 12.6954 31.1969 12.1503 31.9551 12.3637L33.411 12.8708C33.4623 12.5879 33.513 12.3002 33.5622 12.0101L31.8129 11.4393C31.8129 11.4393 31.1969 11.1786 31.3863 10.7047C31.3863 10.7047 31.4812 10.1596 32.2395 10.3728L33.7406 10.8957C33.7867 10.5881 33.8296 10.2819 33.8687 9.98021L32.2395 9.44856C32.2395 9.44856 31.6235 9.18787 31.8129 8.71396C31.8129 8.71396 31.9077 8.16884 32.6661 8.38205L33.9961 8.84538C34.118 7.53671 34.1245 6.40725 33.9106 5.76226C33.3375 4.03207 31.5273 2.95086 29.9876 2.01117C28.0462 0.826417 25.7981 0.375949 23.6125 0.0872269C21.5269 -0.197053 17.64 0.134709 16.4548 2.22025C16.1719 2.7182 15.8619 3.73018 15.547 5.02062C17.2072 4.76789 22.7045 4.2462 29.2532 7.00767C29.2532 7.00767 30.1539 7.2921 29.917 7.9083C29.917 7.9083 29.822 8.47717 29.0161 8.19273C29.0161 8.19273 23.2516 5.49713 15.2678 6.22743C15.201 6.5304 15.1343 6.84225 15.068 7.16176C16.6624 6.91255 22.2076 6.34966 28.8267 9.14069C28.8267 9.14069 29.7273 9.42512 29.4904 10.0413C29.4904 10.0413 29.3954 10.61 28.5895 10.3258C28.5895 10.3258 22.8315 7.49383 14.8545 8.21709C14.7938 8.52373 14.7338 8.83435 14.6744 9.14743C16.3104 8.89593 21.8253 8.35907 28.4001 11.1316C28.4001 11.1316 29.3007 11.416 29.0638 12.0322C29.0638 12.0322 28.9688 12.6009 28.163 12.3165C28.163 12.3165 22.4286 9.49604 14.4771 10.2034C14.4196 10.516 14.3631 10.8291 14.3074 11.1408C16.0149 10.9199 21.4769 10.5252 27.9735 13.2646C27.9735 13.2646 28.8741 13.549 28.6372 14.1652C28.6372 14.1652 28.5422 14.7339 27.7364 14.4495C27.7364 14.4495 22.0366 11.5078 14.1226 12.1875C14.0663 12.5104 14.0113 12.8296 13.9574 13.1436C15.5327 12.9452 20.7834 12.5715 27.689 15.113C27.689 15.113 28.5897 15.3975 28.3526 16.0137C28.3526 16.0137 28.2576 16.5824 27.4519 16.2981C27.4519 16.2981 21.9627 13.7858 13.7553 14.3348C13.7 14.6636 13.6467 14.9825 13.5956 15.289C15.2967 15.1365 20.7337 14.9049 27.2625 17.246C27.2625 17.246 28.1631 17.5305 27.926 18.1467C27.926 18.1467 27.831 18.7154 27.0253 18.4311C27.0253 18.4311 21.3323 15.6306 13.4257 16.3099C13.3684 16.6553 13.3146 16.9766 13.2658 17.267C15.0622 17.1053 20.3905 16.9029 26.8359 19.2369C26.8359 19.2369 27.7365 19.5214 27.4994 20.1376C27.4994 20.1376 27.4044 20.7063 26.5988 20.422C26.5988 20.422 21.1427 17.9816 13.0844 18.3144C13.025 18.6175 12.9672 18.9114 12.9144 19.1985C14.9001 19.2469 20.6621 19.5477 26.4093 21.3699C26.4093 21.3699 27.3099 21.6544 27.0728 22.2706C27.0728 22.2706 26.9779 22.8394 26.1722 22.555C26.1722 22.555 21.16 20.7436 12.7677 20.0867C12.5408 21.6968 12.6085 23.1259 13.6582 24.7354C14.5331 26.077 16.1128 26.7682 17.5534 27.3478C17.7414 27.4235 17.9293 27.4971 18.116 27.57C20.0556 28.3281 22.1304 28.8854 24.2289 28.8118C26.9308 28.717 29.7748 27.8638 30.7703 25.1619C30.9233 24.7335 31.0601 24.3037 31.1863 23.8729L29.2532 23.2418Z" fill="white"/>
</mask>
<g mask="url(#mask11_355_68886)">
<path d="M25.1775 28.8802C24.3481 28.7144 23.4473 28.2878 22.7127 27.885C21.812 27.3873 20.5085 26.534 20.1056 25.5623C19.8685 25.0172 19.4657 23.0027 20.2478 22.742C21.1958 22.4101 20.9351 24.6854 21.101 25.1831C21.4565 26.2496 22.4282 26.8895 23.3051 27.4818C24.0871 28.0269 24.7983 28.4062 25.6514 28.7854L25.1775 28.8802Z" fill="#383434"/>
</g>
<path d="M18.584 10.7078C19.2467 7.35107 19.8088 4.48376 19.8088 4.48376H18.7778C18.5298 5.20029 17.9828 7.79649 17.4057 10.7078C17.0644 11.4926 15.8804 12.0925 15.8804 12.0925L15.8096 13.0099C16.7876 13.3064 16.672 14.4817 16.672 14.4817C16.0331 17.8223 15.5071 20.6943 15.5071 20.6943L16.5381 20.9077C16.7176 20.0928 17.2514 17.4315 17.8372 14.4818C18.3186 13.2817 19.4649 13.1618 19.4649 13.1618L19.7238 12.2695C18.8747 11.9498 18.584 10.7078 18.584 10.7078Z" fill="#A0A0A0"/>
<path d="M18.5676 12.5393C18.5676 13.1146 18.0914 13.581 17.5038 13.581C16.9164 13.581 16.4402 13.1146 16.4402 12.5393C16.4402 11.9638 16.9164 11.4974 17.5038 11.4974C18.0912 11.4974 18.5676 11.9638 18.5676 12.5393Z" fill="#777777"/>
<path d="M18.8531 12.6817C18.8531 13.257 18.3769 13.7236 17.7895 13.7236C17.2019 13.7236 16.7258 13.2572 16.7258 12.6817C16.7258 12.1064 17.202 11.64 17.7895 11.64C18.3769 11.64 18.8531 12.1064 18.8531 12.6817Z" fill="#A0A0A0"/>
<path d="M21.2466 39.2239C21.2466 39.2239 17.8215 38.1392 17.844 38.8238L17.5507 48.185C17.5507 48.185 20.0524 48.9199 20.5712 49.1229C20.9096 49.2583 20.9546 49.2583 21.2705 49.1904V39.221L21.2466 39.2239Z" fill="#6B6B6B"/>
<path d="M24.0913 39.1969C24.0235 38.8362 23.9558 38.9261 23.5723 38.9488L21.2715 39.2202V49.1896C21.4971 49.1446 24.6326 48.3518 24.7905 48.036C24.9034 47.8782 24.1815 39.5353 24.0913 39.1969Z" fill="#464A4C"/>
<path d="M18.2724 38.9222L18.0172 47.8899L20.8763 48.7319V39.5423C20.8763 39.5423 19.2936 39.0171 18.2724 38.9222Z" fill="#F3FAFF"/>
<mask id="mask12_355_68886" style="mask-type:luminance" maskUnits="userSpaceOnUse" x="15" y="41" width="6" height="4">
<path d="M18.8262 41.2461L20.1302 41.6417V44.8946L18.761 44.4989L16.4026 44.7184L15.5027 41.3487L18.8262 41.2461Z" fill="white"/>
</mask>
<g mask="url(#mask12_355_68886)">
<path d="M18.8289 41.2458L20.1329 41.6415V44.8943L18.7637 44.4987L18.8289 41.2458Z" fill="#383434"/>
</g>
<mask id="mask13_355_68886" style="mask-type:luminance" maskUnits="userSpaceOnUse" x="15" y="41" width="6" height="4">
<path d="M18.8262 41.2461L20.1302 41.6417V44.8946L18.761 44.4989L16.4026 44.7184L15.5027 41.3487L18.8262 41.2461Z" fill="white"/>
</mask>
<g mask="url(#mask13_355_68886)">
<path d="M20.1029 41.0984C19.4875 41.2448 18.8867 41.4793 18.2861 41.6991C17.9931 41.8016 17.6122 41.9042 17.4363 42.168C17.275 42.4172 17.2605 42.7979 17.2605 43.091C17.2312 43.853 17.9718 44.5122 18.7631 44.4976C19.4516 44.4829 20.1529 44.3907 20.7245 44.0391C20.8562 43.9513 21.2309 43.7261 21.3479 43.6529L20.1029 41.0984Z" fill="#A0A0A0"/>
<path d="M21.1748 41.2524C20.5594 41.3989 19.9586 41.6334 19.358 41.8532C19.065 41.9556 18.6841 42.0583 18.5082 42.322C18.3469 42.5712 18.3324 42.952 18.3324 43.245C18.3031 44.007 18.7133 44.4759 19.5046 44.4612C20.1931 44.4465 20.8671 43.9482 21.4388 43.5965C21.5705 43.5088 21.7318 43.4208 21.8489 43.3475L21.1748 41.2524Z" fill="#777777"/>
</g>
<defs>
<linearGradient id="paint0_linear_355_68886" x1="22.6439" y1="12.5634" x2="31.4575" y2="15.7714" gradientUnits="userSpaceOnUse">
<stop stop-color="white"/>
<stop offset="0.1341" stop-color="white" stop-opacity="0.8659"/>
<stop offset="1" stop-color="white" stop-opacity="0"/>
</linearGradient>
</defs>
</svg>
