<svg width="68" height="56" viewBox="0 0 68 56" fill="none" xmlns="http://www.w3.org/2000/svg">
<path d="M51.1657 43.6129C44.0322 43.6129 37.9677 45.3473 35.7421 47.7645C32.0994 46.7983 26.9418 45.9003 21.1885 45.3106C9.9425 44.1575 0.680849 44.6171 0.50261 46.337C0.324371 48.057 9.29688 50.3854 20.5429 51.5385C26.6315 52.1628 32.1377 52.3144 35.9368 52.0493C38.3063 54.3613 44.2312 56 51.1656 56C60.1865 56 67.5 53.2273 67.5 49.8068C67.5002 46.386 60.1867 43.6129 51.1657 43.6129Z" fill="#C1C3C3"/>
<path d="M25.5121 37.1178C25.9793 42.6029 26.3818 47.3968 26.3818 47.9142C26.3818 49.503 29.6868 50.7908 33.7639 50.7908C37.841 50.7908 41.146 49.503 41.146 47.9142C41.146 47.3968 41.5485 42.6029 42.0157 37.1178H25.5121Z" fill="#E6E7E8"/>
<path d="M44.5415 14.6347C44.5415 12.8634 39.7164 11.4276 33.764 11.4276C27.8117 11.4276 22.9865 12.8634 22.9865 14.6347C22.9865 16.1075 25.5323 44.5214 25.5323 45.8956C25.5323 47.6671 29.2177 49.1027 33.764 49.1027C38.3103 49.1027 41.996 47.6673 41.996 45.8956C41.996 44.5215 44.5415 16.1075 44.5415 14.6347Z" fill="#C02D33"/>
<path d="M33.6071 38.7781C30.4382 34.6333 29.3721 28.4273 29.3819 23.3377C29.3899 19.3791 29.9442 15.4089 30.954 11.5411C26.3666 11.9096 22.9861 13.153 22.9861 14.6344C22.9861 16.1071 25.532 44.521 25.532 45.8953C25.532 47.6668 29.2173 49.1024 33.7636 49.1024C38.3099 49.1024 41.9956 47.667 41.9956 45.8953C41.9956 45.7844 42.0122 45.4936 42.043 45.0573C38.6647 44.1322 35.5826 41.3623 33.6071 38.7781Z" fill="#D1BCC7"/>
<path d="M31.8829 44.6637C27.9587 40.9135 26.3949 34.9947 25.7945 29.7776C25.1199 23.9135 25.7506 17.8405 27.3985 12.0533C24.7272 12.6362 22.9865 13.5735 22.9865 14.6349C22.9865 16.1076 25.5323 44.5215 25.5323 45.8957C25.5323 47.6673 29.2177 49.1029 33.764 49.1029C35.9642 49.1029 37.9576 48.7648 39.4348 48.2167C36.6347 47.6917 33.9815 46.6695 31.8829 44.6637Z" fill="#D1BCC7"/>
<path d="M45.1781 14.6346C45.1781 16.5104 40.0676 18.0311 33.7638 18.0311C27.4601 18.0311 22.3499 16.5104 22.3499 14.6346C22.3499 14.2457 22.3499 11.4274 22.3499 11.4274C22.3499 11.4274 28.7661 11.2382 33.7638 11.2382C38.8484 11.2382 45.1781 11.4274 45.1781 11.4274C45.1781 11.4274 45.1781 14.2718 45.1781 14.6346Z" fill="#DEDFE0"/>
<path d="M45.1781 11.4273C45.1781 13.3033 40.0676 14.824 33.7638 14.824C27.4601 14.824 22.3499 13.3033 22.3499 11.4273C22.3499 9.55163 27.4601 8.03088 33.7638 8.03088C40.0676 8.03088 45.1781 9.55163 45.1781 11.4273Z" fill="white"/>
<path d="M43.4595 11.4274C43.4595 13.0213 39.1187 14.3128 33.764 14.3128C28.4093 14.3128 24.0687 13.0213 24.0687 11.4274C24.0687 9.83387 28.4093 8.54236 33.764 8.54236C39.1187 8.54236 43.4595 9.83406 43.4595 11.4274Z" stroke="#DADBDC" stroke-width="2.6996" stroke-miterlimit="10"/>
<path d="M36.9673 11.4274C36.9673 11.9541 35.533 12.3808 33.7637 12.3808C31.9945 12.3808 30.5597 11.9541 30.5597 11.4274C30.5597 10.901 31.9945 10.4742 33.7637 10.4742C35.533 10.4744 36.9673 10.901 36.9673 11.4274Z" fill="#DADBDC"/>
<path d="M33.7637 10.9805C35.238 10.9805 36.4763 11.2773 36.8494 11.6806C36.9242 11.5999 36.9673 11.5151 36.9673 11.4274C36.9673 10.901 35.533 10.4742 33.7637 10.4742C31.9945 10.4742 30.5597 10.9008 30.5597 11.4274C30.5597 11.5151 30.6031 11.5999 30.678 11.6806C31.0512 11.2775 32.2896 10.9805 33.7637 10.9805Z" fill="#C4C6C8"/>
<path d="M35.1534 0.508165C35.1534 0.227539 34.5314 0 33.7637 0C32.9961 0 32.374 0.227352 32.374 0.508165C32.374 0.752587 32.374 11.183 32.374 11.4274C32.374 11.7082 32.9961 11.9356 33.7637 11.9356C34.5314 11.9356 35.1534 11.7082 35.1534 11.4274C35.1534 11.183 35.1534 0.752774 35.1534 0.508165Z" fill="white"/>
<path d="M41.317 43.532C39.4379 41.8841 37.1236 40.7794 35.5511 38.7687C30.56 32.3873 30.2688 20.4465 31.1383 19.7743C32.1408 18.9998 33.9883 19.45 35.2071 19.3937C37.6113 19.2823 41.2781 19.746 43.4595 18.8672C43.6543 20.6562 41.317 43.532 41.317 43.532Z" fill="#DE2F35"/>
<path d="M32.6187 0.221376V11.715C32.6896 11.7531 32.7771 11.7854 32.8733 11.8152V0.121582C32.7771 0.150845 32.6894 0.183297 32.6187 0.221376Z" fill="#DE2F35"/>
<path d="M33.3186 0.0292724V11.9067C33.4005 11.9172 33.4851 11.9245 33.573 11.929V0.00732422C33.485 0.0118262 33.4005 0.0191428 33.3186 0.0292724Z" fill="#DE2F35"/>
<path d="M34.655 0.121582V11.815C34.751 11.7852 34.8385 11.7527 34.9095 11.7148V0.221376C34.8385 0.183297 34.751 0.150845 34.655 0.121582Z" fill="#DE2F35"/>
<path d="M33.9872 0.00842285V11.9281C34.0751 11.923 34.1598 11.9146 34.2416 11.9035V0.0328082C34.1598 0.022116 34.0751 0.0138628 33.9872 0.00842285Z" fill="#DE2F35"/>
<path d="M33.2729 8.67211C32.9945 6.82722 33.3084 5.16636 33.3405 3.32222C33.3595 2.2121 33.3574 1.1061 33.4825 0.0109863C32.8501 0.0586326 32.3744 0.263099 32.3744 0.508271V11.4275C32.3744 11.7083 32.9964 11.9357 33.7641 11.9357C34.5317 11.9357 35.1538 11.7083 35.1538 11.4275V11.0951C34.1947 10.5939 33.437 9.75841 33.2729 8.67211Z" fill="#C0C2C4"/>
<path d="M26.3973 25.2782C24.1036 24.1455 24.8537 24.4444 18.0764 23.4905C12.3183 22.6799 10.8784 22.1958 10.8784 22.1958L7.09729 17.1668C7.09729 17.1668 11.952 14.9211 19.3601 16.5178C26.8847 18.1402 29.7393 21.9257 29.7393 21.9257C29.7393 21.9257 27.2223 24.8961 26.3973 25.2782Z" fill="#D58621"/>
<path d="M25.5648 24.791C23.511 23.777 24.1825 24.0443 18.1124 23.1898C12.9542 22.4639 11.6648 22.0302 11.6648 22.0302L8.27808 17.5255C8.27808 17.5255 12.6264 15.5141 19.2614 16.9442C26.0017 18.3974 28.5581 21.788 28.5581 21.788C28.5581 21.788 26.3046 24.4494 25.5648 24.791Z" fill="#C9751F"/>
<path d="M8.01916 19.424C8.07631 18.8447 7.60025 17.4512 8.81869 17.1533C9.42772 17.0045 10.1756 16.7774 10.5973 16.2666C11.0832 15.6779 11.3033 15.2171 12.0934 14.995C13.7479 14.5299 16.3195 15.5138 16.502 17.3921C16.5837 18.2343 16.0271 18.7753 15.502 19.336C15.2106 19.647 14.8396 19.9459 14.6415 20.3283C14.4235 20.7478 14.4758 21.2514 14.3501 21.7037C13.8828 23.3848 11.6879 24.0252 10.4706 22.729C9.94999 22.1745 10.1443 21.6606 9.3602 21.4242C8.85151 21.2706 8.15119 21.5429 7.78132 21.0417C7.41107 20.5405 7.96239 20.0027 8.01916 19.424Z" fill="#FFDF9B"/>
<path opacity="0.5" d="M8.85142 18.6933C8.89292 18.2716 8.54625 17.2562 9.43386 17.0393C9.87748 16.9305 10.4139 16.682 10.7206 16.3094C11.0746 15.881 11.306 15.4139 11.8817 15.252C13.0865 14.9134 15.0587 15.1545 15.1918 16.5235C15.2514 17.1365 15.252 17.7923 14.3582 18.3445C14.0939 18.5081 13.8199 19.0733 13.6752 19.3522C13.5166 19.658 13.5545 20.0245 13.463 20.3536C13.1227 21.5787 11.5237 22.045 10.6368 21.1011C10.2575 20.6972 10.3992 20.3228 9.82806 20.1508C9.45744 20.0384 8.94761 20.2373 8.67809 19.8718C8.40856 19.5064 8.80955 19.1149 8.85142 18.6933Z" fill="white"/>
<path d="M7.97637 18.3127C7.96619 18.6166 8.00618 18.9254 8.01957 19.1724C8.03673 18.959 7.98807 18.6431 7.97637 18.3127Z" fill="#E7B57C"/>
<path d="M15.5019 19.1036C15.2104 19.4146 14.8394 19.7135 14.6414 20.0961C14.4234 20.5156 14.4756 21.0187 14.35 21.4713C13.8826 23.1524 11.6877 23.7928 10.4704 22.4968C9.94984 21.9423 10.1441 21.4285 9.36005 21.1924C8.85136 21.0387 8.15104 21.3105 7.78117 20.8095C7.71591 20.7208 7.68026 20.6311 7.66461 20.5405C7.63895 20.7116 7.66065 20.8789 7.78117 21.0421C8.15104 21.5433 8.85117 21.271 9.36005 21.4246C10.1439 21.661 9.94965 22.1751 10.4704 22.7294C11.6877 24.0254 13.8826 23.3852 14.35 21.7041C14.4756 21.252 14.4234 20.7484 14.6414 20.3287C14.8394 19.9462 15.2104 19.6474 15.5019 19.3364C16.0156 18.7875 16.5579 18.2569 16.5045 17.4452C16.4523 18.1293 15.9653 18.6088 15.5019 19.1036Z" fill="#E7B57C"/>
<path d="M9.87705 18.4169C9.71221 18.4169 9.71221 18.6716 9.87705 18.6716C10.0423 18.6716 10.0423 18.4169 9.87705 18.4169Z" fill="#E7B57C"/>
<path d="M9.75826 19.0314C9.7543 19.0121 9.74487 18.9994 9.73299 18.9842C9.70545 18.9517 9.64151 18.9517 9.61435 18.9842C9.6019 18.9994 9.59285 19.0121 9.58927 19.0314C9.57701 19.0866 9.61379 19.1417 9.67339 19.1417C9.73337 19.1417 9.76996 19.0866 9.75826 19.0314Z" fill="#E7B57C"/>
<path d="M9.97134 19.1982C9.86893 19.1982 9.86893 19.356 9.97134 19.356C10.0736 19.3558 10.0736 19.1982 9.97134 19.1982Z" fill="#E7B57C"/>
<path d="M10.2537 18.7506C10.1373 18.7506 10.1373 18.9305 10.2537 18.9305C10.37 18.9305 10.37 18.7506 10.2537 18.7506Z" fill="#E7B57C"/>
<path d="M10.5355 19.2361C10.4416 19.2361 10.4416 19.3803 10.5355 19.3803C10.6293 19.3803 10.6293 19.2361 10.5355 19.2361Z" fill="#E7B57C"/>
<path d="M10.285 20.1765C10.279 20.1765 10.279 20.1857 10.285 20.1857C10.2913 20.1857 10.2913 20.1765 10.285 20.1765Z" fill="#E7B57C"/>
<path d="M10.1124 20.0348C10.0439 20.0348 10.0439 20.14 10.1124 20.14C10.1805 20.14 10.1805 20.0348 10.1124 20.0348Z" fill="#E7B57C"/>
<path d="M9.72015 19.8164C9.67206 19.8164 9.67206 19.8911 9.72015 19.8911C9.76863 19.8913 9.76863 19.8164 9.72015 19.8164Z" fill="#E7B57C"/>
<path d="M9.18785 19.0686C9.06808 19.0686 9.06808 19.2536 9.18785 19.2536C9.30781 19.2536 9.30781 19.0686 9.18785 19.0686Z" fill="#E7B57C"/>
<path d="M8.88959 18.5209C8.79868 18.5209 8.79868 18.6612 8.88959 18.6612C8.98069 18.6612 8.98069 18.5209 8.88959 18.5209Z" fill="#E7B57C"/>
<path d="M10.2158 18.25C10.2132 18.2496 10.2104 18.2492 10.2079 18.2487C10.1996 18.2455 10.1894 18.2438 10.1768 18.246C10.1759 18.2464 10.1743 18.2468 10.173 18.247C10.1451 18.2522 10.1355 18.2734 10.1379 18.2948C10.1355 18.316 10.1451 18.3374 10.173 18.3426C10.1742 18.3432 10.1759 18.3432 10.1768 18.3432C10.1894 18.3458 10.1996 18.3439 10.2079 18.3408C10.2104 18.3402 10.213 18.3402 10.2158 18.3393C10.2605 18.331 10.2605 18.2588 10.2158 18.25Z" fill="#E7B57C"/>
<path d="M10.8024 20.1135C10.6941 20.1135 10.6941 20.2797 10.8024 20.2797C10.9101 20.2797 10.9101 20.1135 10.8024 20.1135Z" fill="#E7B57C"/>
<path d="M9.10912 20.4674C8.9952 20.4674 8.9952 20.643 9.10912 20.643C9.22267 20.643 9.22267 20.4674 9.10912 20.4674Z" fill="#E7B57C"/>
<path d="M8.67021 20.1271C8.55931 20.1271 8.55931 20.2978 8.67021 20.2978C8.78074 20.2978 8.78074 20.1271 8.67021 20.1271Z" fill="#E7B57C"/>
<path d="M9.1717 20.0894C9.05231 20.0894 9.05231 20.2734 9.1717 20.2734C9.29109 20.2734 9.29109 20.0894 9.1717 20.0894Z" fill="#E7B57C"/>
<path d="M8.95266 19.7236C8.82421 19.7236 8.82421 19.921 8.95266 19.921C9.08016 19.921 9.08016 19.7236 8.95266 19.7236Z" fill="#E7B57C"/>
<path d="M8.60764 19.676C8.55917 19.676 8.55917 19.7509 8.60764 19.7509C8.65574 19.7509 8.65574 19.676 8.60764 19.676Z" fill="#E7B57C"/>
<path d="M8.32564 19.4675C8.22869 19.4675 8.22869 19.6168 8.32564 19.6168C8.42202 19.6168 8.42202 19.4675 8.32564 19.4675Z" fill="#E7B57C"/>
<path d="M8.12183 19.8798C8.01375 19.8798 8.01375 20.046 8.12183 20.046C8.22971 20.0461 8.22971 19.8798 8.12183 19.8798Z" fill="#E7B57C"/>
<path d="M13.018 15.5845C12.8534 15.5845 12.8534 15.8386 13.018 15.8386C13.1829 15.8386 13.1829 15.5845 13.018 15.5845Z" fill="#E7B57C"/>
<path d="M12.8991 16.1987C12.8949 16.1796 12.8861 16.1668 12.8738 16.152C12.8464 16.1188 12.7825 16.1188 12.7552 16.152C12.7427 16.167 12.7335 16.1797 12.7295 16.1987C12.7176 16.2542 12.7548 16.3095 12.8146 16.3095C12.8744 16.3095 12.9108 16.2542 12.8991 16.1987Z" fill="#E7B57C"/>
<path d="M13.112 16.3655C13.0102 16.3655 13.0102 16.5234 13.112 16.5234C13.2146 16.5234 13.2146 16.3655 13.112 16.3655Z" fill="#E7B57C"/>
<path d="M13.3944 15.9182C13.278 15.9182 13.278 16.0983 13.3944 16.0983C13.5112 16.0983 13.5112 15.9182 13.3944 15.9182Z" fill="#E7B57C"/>
<path d="M13.6765 16.4037C13.5828 16.4037 13.5828 16.5481 13.6765 16.5481C13.7706 16.5481 13.7706 16.4037 13.6765 16.4037Z" fill="#E7B57C"/>
<path d="M13.4253 17.3441C13.4194 17.3441 13.4194 17.3537 13.4253 17.3537C13.4317 17.3535 13.4317 17.3441 13.4253 17.3441Z" fill="#E7B57C"/>
<path d="M13.2533 17.2028C13.1846 17.2028 13.1846 17.3078 13.2533 17.3078C13.3216 17.3076 13.3216 17.2028 13.2533 17.2028Z" fill="#E7B57C"/>
<path d="M12.8612 16.984C12.8127 16.984 12.8127 17.0587 12.8612 17.0587C12.9095 17.0587 12.9095 16.984 12.8612 16.984Z" fill="#E7B57C"/>
<path d="M12.3283 16.2362C12.2089 16.2362 12.2089 16.4212 12.3283 16.4212C12.4485 16.421 12.4485 16.2362 12.3283 16.2362Z" fill="#E7B57C"/>
<path d="M12.0306 15.6885C11.9398 15.6885 11.9398 15.8288 12.0306 15.8288C12.1217 15.8288 12.1217 15.6885 12.0306 15.6885Z" fill="#E7B57C"/>
<path d="M13.3563 15.4177C13.3537 15.417 13.3514 15.4168 13.349 15.4161C13.3401 15.4129 13.3303 15.4114 13.3179 15.4138C13.3164 15.4138 13.3149 15.414 13.3139 15.4144C13.2862 15.4196 13.2764 15.4408 13.2786 15.4622C13.2764 15.4834 13.286 15.5046 13.3139 15.5098C13.3149 15.5104 13.3164 15.5104 13.3179 15.5106C13.3301 15.513 13.3399 15.5115 13.349 15.5083C13.3514 15.5076 13.3537 15.5076 13.3563 15.5067C13.4012 15.4988 13.4012 15.426 13.3563 15.4177Z" fill="#E7B57C"/>
<path d="M13.943 17.2811C13.8349 17.2811 13.8349 17.4475 13.943 17.4475C14.0507 17.4475 14.0507 17.2811 13.943 17.2811Z" fill="#E7B57C"/>
<path d="M12.2501 17.635C12.1364 17.635 12.1364 17.8106 12.2501 17.8106C12.3636 17.8106 12.3636 17.635 12.2501 17.635Z" fill="#E7B57C"/>
<path d="M11.8112 17.2943C11.7005 17.2943 11.7005 17.4654 11.8112 17.4654C11.9221 17.4654 11.9221 17.2943 11.8112 17.2943Z" fill="#E7B57C"/>
<path d="M12.3128 17.2566C12.1934 17.2566 12.1934 17.4406 12.3128 17.4406C12.4318 17.4406 12.4318 17.2566 12.3128 17.2566Z" fill="#E7B57C"/>
<path d="M12.093 16.8912C11.9651 16.8912 11.9651 17.0886 12.093 17.0886C12.2207 17.0886 12.2207 16.8912 12.093 16.8912Z" fill="#E7B57C"/>
<path d="M11.7485 16.8436C11.6999 16.8436 11.6999 16.9183 11.7485 16.9183C11.797 16.9183 11.797 16.8436 11.7485 16.8436Z" fill="#E7B57C"/>
<path d="M11.4659 16.6348C11.3691 16.6348 11.3691 16.7839 11.4659 16.7839C11.5628 16.7837 11.5628 16.6348 11.4659 16.6348Z" fill="#E7B57C"/>
<path d="M11.2627 17.0474C11.1545 17.0474 11.1545 17.2138 11.2627 17.2138C11.3706 17.2136 11.3706 17.0474 11.2627 17.0474Z" fill="#E7B57C"/>
<path d="M13.4335 18.2495C13.2686 18.2495 13.2686 18.5037 13.4335 18.5037C13.5983 18.5037 13.5983 18.2495 13.4335 18.2495Z" fill="#E7B57C"/>
<path d="M13.3145 18.8633C13.3106 18.8438 13.3017 18.8311 13.2891 18.8159C13.2621 18.7832 13.198 18.7832 13.1706 18.8159C13.1584 18.8311 13.1497 18.8438 13.1455 18.8633C13.1337 18.9183 13.1704 18.9738 13.23 18.9738C13.2896 18.9738 13.3266 18.9185 13.3145 18.8633Z" fill="#E7B57C"/>
<path d="M13.5279 19.0302C13.4251 19.0302 13.4251 19.1879 13.5279 19.1879C13.6298 19.1877 13.6298 19.0302 13.5279 19.0302Z" fill="#E7B57C"/>
<path d="M13.8097 18.5825C13.6933 18.5825 13.6933 18.7626 13.8097 18.7626C13.9261 18.7626 13.9261 18.5825 13.8097 18.5825Z" fill="#E7B57C"/>
<path d="M14.0919 19.0676C13.9985 19.0676 13.9985 19.2124 14.0919 19.2124C14.1858 19.2126 14.1858 19.0676 14.0919 19.0676Z" fill="#E7B57C"/>
<path d="M13.8412 20.0088C13.835 20.0088 13.835 20.0182 13.8412 20.0182C13.8474 20.0182 13.8474 20.0088 13.8412 20.0088Z" fill="#E7B57C"/>
<path d="M13.6689 19.8671C13.6008 19.8671 13.6008 19.9723 13.6689 19.9723C13.737 19.9723 13.737 19.8671 13.6689 19.8671Z" fill="#E7B57C"/>
<path d="M13.2767 19.6487C13.2284 19.6487 13.2284 19.7235 13.2767 19.7235C13.3252 19.7235 13.3252 19.6487 13.2767 19.6487Z" fill="#E7B57C"/>
<path d="M12.7442 18.9012C12.6245 18.9012 12.6245 19.086 12.7442 19.086C12.864 19.0858 12.864 18.9012 12.7442 18.9012Z" fill="#E7B57C"/>
<path d="M12.4457 18.3531C12.3552 18.3531 12.3552 18.4935 12.4457 18.4935C12.5368 18.4935 12.5368 18.3531 12.4457 18.3531Z" fill="#E7B57C"/>
<path d="M13.7721 18.082C13.7696 18.0816 13.767 18.081 13.7643 18.0808C13.7557 18.0777 13.7457 18.0762 13.7336 18.0782C13.7323 18.0788 13.7304 18.079 13.7291 18.0793C13.7015 18.0844 13.6919 18.1056 13.6946 18.127C13.6917 18.1484 13.7015 18.1694 13.7291 18.1746C13.7306 18.1748 13.7325 18.1748 13.7336 18.1754C13.7457 18.178 13.7555 18.1761 13.7643 18.1731C13.7668 18.1724 13.7696 18.172 13.7721 18.1713C13.817 18.163 13.817 18.091 13.7721 18.082Z" fill="#E7B57C"/>
<path d="M14.3584 19.9458C14.2507 19.9458 14.2507 20.112 14.3584 20.112C14.4664 20.112 14.4664 19.9458 14.3584 19.9458Z" fill="#E7B57C"/>
<path d="M12.6655 20.2997C12.5516 20.2997 12.5516 20.4751 12.6655 20.4751C12.7791 20.4751 12.7791 20.2997 12.6655 20.2997Z" fill="#E7B57C"/>
<path d="M12.2268 19.9586C12.1161 19.9586 12.1161 20.1299 12.2268 20.1299C12.3376 20.1299 12.3376 19.9586 12.2268 19.9586Z" fill="#E7B57C"/>
<path d="M12.7282 19.9209C12.6092 19.9209 12.6092 20.1053 12.7282 20.1053C12.8476 20.1051 12.8476 19.9209 12.7282 19.9209Z" fill="#E7B57C"/>
<path d="M12.5091 19.5559C12.3811 19.5559 12.3811 19.7532 12.5091 19.7532C12.6366 19.7532 12.6366 19.5559 12.5091 19.5559Z" fill="#E7B57C"/>
<path d="M12.1639 19.5079C12.1156 19.5079 12.1156 19.583 12.1639 19.583C12.2124 19.583 12.2124 19.5079 12.1639 19.5079Z" fill="#E7B57C"/>
<path d="M11.8817 19.2994C11.7847 19.2994 11.7847 19.4486 11.8817 19.4486C11.9786 19.4486 11.9786 19.2994 11.8817 19.2994Z" fill="#E7B57C"/>
<path d="M11.6779 19.712C11.5698 19.712 11.5698 19.8784 11.6779 19.8784C11.7865 19.8784 11.7865 19.712 11.6779 19.712Z" fill="#E7B57C"/>
<path d="M22.8935 21.477C22.9426 20.9828 22.5365 19.7937 23.5759 19.5397C24.0957 19.4127 24.7338 19.2187 25.0939 18.7826C25.5083 18.2804 25.6961 17.8872 26.3702 17.6974C27.7822 17.3007 29.9767 18.1399 30.1323 19.7432C30.2021 20.462 29.7273 20.9235 29.279 21.402C29.0304 21.6674 28.7143 21.9226 28.5444 22.2488C28.3586 22.6067 28.4031 23.0366 28.296 23.4221C27.8974 24.8571 26.0241 25.4037 24.9851 24.2976C24.5407 23.8247 24.7068 23.3861 24.038 23.1841C23.604 23.0529 23.0065 23.2855 22.6908 22.8575C22.375 22.43 22.8449 21.9711 22.8935 21.477Z" fill="#FFDF9B"/>
<path opacity="0.5" d="M23.6041 20.8536C23.6392 20.4938 23.3436 19.6272 24.1007 19.4422C24.4796 19.3495 24.937 19.137 25.199 18.8196C25.501 18.454 25.6982 18.0554 26.1898 17.9171C27.2177 17.6281 28.9011 17.8342 29.0146 19.0019C29.0656 19.5253 29.0661 20.085 28.3034 20.5561C28.0778 20.6958 27.8439 21.1781 27.7206 21.4161C27.5851 21.6771 27.6178 21.99 27.5395 22.2711C27.2492 23.3162 25.8848 23.7142 25.1277 22.9089C24.8042 22.564 24.9249 22.2443 24.4379 22.0974C24.1211 22.0022 23.6859 22.1714 23.456 21.8594C23.2257 21.5478 23.5682 21.2135 23.6041 20.8536Z" fill="white"/>
<path d="M22.8575 20.5291C22.8487 20.7883 22.8828 21.0518 22.8945 21.2629C22.9088 21.0805 22.8675 20.8114 22.8575 20.5291Z" fill="#E7B57C"/>
<path d="M29.279 21.2039C29.0304 21.4693 28.7143 21.7244 28.5443 22.0508C28.3586 22.4089 28.4031 22.8381 28.2959 23.224C27.8974 24.6586 26.0241 25.2051 24.985 24.0993C24.5406 23.626 24.7068 23.1874 24.038 22.9859C23.604 22.8548 23.0065 23.0871 22.6907 22.6592C22.6347 22.5838 22.6043 22.5069 22.591 22.4298C22.5689 22.5757 22.5879 22.7186 22.6907 22.8578C23.0065 23.2859 23.604 23.0533 24.038 23.1844C24.7068 23.3864 24.5406 23.825 24.985 24.2979C26.0241 25.4041 27.8972 24.8575 28.2959 23.4225C28.4031 23.0368 28.3586 22.607 28.5443 22.2491C28.7141 21.9229 29.0302 21.6678 29.279 21.4024C29.7175 20.9338 30.1806 20.4811 30.1345 19.7886C30.0902 20.3725 29.6743 20.782 29.279 21.2039Z" fill="#E7B57C"/>
<path d="M24.4791 20.6182C24.3388 20.6182 24.3388 20.8356 24.4791 20.8356C24.6199 20.8356 24.6199 20.6182 24.4791 20.6182Z" fill="#E7B57C"/>
<path d="M24.3776 21.1427C24.3738 21.126 24.3665 21.1151 24.3559 21.1024C24.3325 21.0746 24.278 21.0746 24.2546 21.1024C24.2441 21.1149 24.2363 21.126 24.2331 21.1427C24.2233 21.1894 24.2543 21.2371 24.3048 21.2371C24.3561 21.2371 24.3878 21.1894 24.3776 21.1427Z" fill="#E7B57C"/>
<path d="M24.5593 21.2849C24.4721 21.2849 24.4721 21.4196 24.5593 21.4196C24.6468 21.4194 24.6468 21.2849 24.5593 21.2849Z" fill="#E7B57C"/>
<path d="M24.8 20.9028C24.701 20.9028 24.701 21.0565 24.8 21.0565C24.8998 21.0565 24.8998 20.9028 24.8 20.9028Z" fill="#E7B57C"/>
<path d="M25.0411 21.3171C24.9609 21.3171 24.9609 21.4402 25.0411 21.4402C25.121 21.4402 25.121 21.3171 25.0411 21.3171Z" fill="#E7B57C"/>
<path d="M24.8271 22.1199C24.822 22.1199 24.822 22.1278 24.8271 22.1278C24.832 22.1278 24.832 22.1199 24.8271 22.1199Z" fill="#E7B57C"/>
<path d="M24.6797 21.999C24.6216 21.999 24.6216 22.0885 24.6797 22.0885C24.7376 22.0885 24.7376 21.999 24.6797 21.999Z" fill="#E7B57C"/>
<path d="M24.3457 21.8125C24.3042 21.8125 24.3042 21.8761 24.3457 21.8761C24.3866 21.8763 24.3866 21.8125 24.3457 21.8125Z" fill="#E7B57C"/>
<path d="M23.8909 21.1747C23.7887 21.1747 23.7887 21.3323 23.8909 21.3323C23.9931 21.3323 23.9931 21.1747 23.8909 21.1747Z" fill="#E7B57C"/>
<path d="M23.6365 20.7068C23.5587 20.7068 23.5587 20.8267 23.6365 20.8267C23.7139 20.8265 23.7139 20.7068 23.6365 20.7068Z" fill="#E7B57C"/>
<path d="M24.7679 20.4755C24.766 20.4755 24.7636 20.475 24.7617 20.4748C24.7543 20.4718 24.7459 20.4707 24.7353 20.4723C24.7342 20.4727 24.7328 20.4731 24.7319 20.4731C24.7081 20.4778 24.7 20.496 24.7021 20.5138C24.7 20.5318 24.7081 20.5504 24.7319 20.5547C24.7326 20.5549 24.7342 20.5554 24.7353 20.5554C24.7459 20.5577 24.7543 20.556 24.7617 20.5532C24.7636 20.553 24.766 20.5526 24.7679 20.5521C24.8062 20.5449 24.8062 20.483 24.7679 20.4755Z" fill="#E7B57C"/>
<path d="M25.2681 22.066C25.1761 22.066 25.1761 22.2082 25.2681 22.2082C25.3607 22.2082 25.3607 22.066 25.2681 22.066Z" fill="#E7B57C"/>
<path d="M23.8236 22.3679C23.7266 22.3679 23.7266 22.518 23.8236 22.518C23.9207 22.518 23.9207 22.3679 23.8236 22.3679Z" fill="#E7B57C"/>
<path d="M23.4494 22.0774C23.3549 22.0774 23.3549 22.2233 23.4494 22.2233C23.5437 22.2233 23.5437 22.0774 23.4494 22.0774Z" fill="#E7B57C"/>
<path d="M23.8772 22.0452C23.7751 22.0452 23.7751 22.2024 23.8772 22.2024C23.9789 22.2025 23.9789 22.0452 23.8772 22.0452Z" fill="#E7B57C"/>
<path d="M23.69 21.7334C23.5812 21.7334 23.5812 21.9018 23.69 21.9018C23.7992 21.9018 23.7992 21.7334 23.69 21.7334Z" fill="#E7B57C"/>
<path d="M23.396 21.6926C23.3545 21.6926 23.3545 21.7558 23.396 21.7558C23.4369 21.756 23.4369 21.6926 23.396 21.6926Z" fill="#E7B57C"/>
<path d="M23.1551 21.5146C23.0723 21.5146 23.0723 21.6422 23.1551 21.6422C23.2374 21.642 23.2374 21.5146 23.1551 21.5146Z" fill="#E7B57C"/>
<path d="M22.9811 21.8663C22.8886 21.8663 22.8886 22.0083 22.9811 22.0083C23.0731 22.0083 23.0731 21.8663 22.9811 21.8663Z" fill="#E7B57C"/>
<path d="M27.1599 18.2008C27.0191 18.2008 27.0191 18.4177 27.1599 18.4177C27.3004 18.4177 27.3004 18.2008 27.1599 18.2008Z" fill="#E7B57C"/>
<path d="M27.0583 18.725C27.0545 18.7083 27.0468 18.6972 27.0364 18.6846C27.0132 18.6569 26.9583 18.6569 26.9351 18.6846C26.9248 18.6972 26.9169 18.7083 26.9136 18.725C26.9035 18.7721 26.9351 18.8193 26.9857 18.8193C27.037 18.8193 27.0677 18.7721 27.0583 18.725Z" fill="#E7B57C"/>
<path d="M27.2403 18.8672C27.1528 18.8672 27.1528 19.0017 27.2403 19.0017C27.3273 19.0017 27.3273 18.8672 27.2403 18.8672Z" fill="#E7B57C"/>
<path d="M27.4807 18.4851C27.3813 18.4851 27.3813 18.6387 27.4807 18.6387C27.5803 18.6387 27.5803 18.4851 27.4807 18.4851Z" fill="#E7B57C"/>
<path d="M27.7218 18.8994C27.6412 18.8994 27.6412 19.0228 27.7218 19.0228C27.8016 19.0228 27.8016 18.8994 27.7218 18.8994Z" fill="#E7B57C"/>
<path d="M27.5077 19.7021C27.5028 19.7021 27.5028 19.7106 27.5077 19.7106C27.513 19.7106 27.513 19.7021 27.5077 19.7021Z" fill="#E7B57C"/>
<path d="M27.3605 19.582C27.3019 19.582 27.3019 19.6713 27.3605 19.6713C27.4184 19.6713 27.4184 19.582 27.3605 19.582Z" fill="#E7B57C"/>
<path d="M27.026 19.3948C26.9847 19.3948 26.9847 19.4584 27.026 19.4584C27.0671 19.4584 27.0671 19.3948 27.026 19.3948Z" fill="#E7B57C"/>
<path d="M26.5713 18.757C26.4692 18.757 26.4692 18.9142 26.5713 18.9142C26.6739 18.9142 26.6739 18.757 26.5713 18.757Z" fill="#E7B57C"/>
<path d="M26.3171 18.2894C26.239 18.2894 26.239 18.4091 26.3171 18.4091C26.3944 18.4091 26.3944 18.2894 26.3171 18.2894Z" fill="#E7B57C"/>
<path d="M27.4488 18.0583C27.4465 18.0581 27.4446 18.0573 27.4424 18.0571C27.4348 18.0543 27.4263 18.0532 27.4156 18.0553C27.4144 18.0553 27.4139 18.0556 27.4124 18.0558C27.3886 18.0603 27.3809 18.0783 27.3824 18.0963C27.3809 18.1143 27.3886 18.1327 27.4124 18.1372C27.4139 18.1376 27.4144 18.1376 27.4156 18.138C27.4263 18.14 27.4348 18.1384 27.4424 18.1361C27.4444 18.1354 27.4465 18.1352 27.4488 18.1344C27.4871 18.1271 27.4871 18.0654 27.4488 18.0583Z" fill="#E7B57C"/>
<path d="M27.9489 19.6483C27.8569 19.6483 27.8569 19.7905 27.9489 19.7905C28.0408 19.7905 28.0408 19.6483 27.9489 19.6483Z" fill="#E7B57C"/>
<path d="M26.5041 19.9506C26.4072 19.9506 26.4072 20.1001 26.5041 20.1001C26.6012 20.1001 26.6012 19.9506 26.5041 19.9506Z" fill="#E7B57C"/>
<path d="M26.1298 19.66C26.0353 19.66 26.0353 19.8058 26.1298 19.8058C26.2247 19.8058 26.2247 19.66 26.1298 19.66Z" fill="#E7B57C"/>
<path d="M26.5581 19.6274C26.4559 19.6274 26.4559 19.7848 26.5581 19.7848C26.6598 19.7848 26.6598 19.6274 26.5581 19.6274Z" fill="#E7B57C"/>
<path d="M26.3704 19.316C26.2612 19.316 26.2612 19.4845 26.3704 19.4845C26.4796 19.4845 26.4796 19.316 26.3704 19.316Z" fill="#E7B57C"/>
<path d="M26.0759 19.2749C26.0346 19.2749 26.0346 19.3387 26.0759 19.3387C26.1176 19.3387 26.1176 19.2749 26.0759 19.2749Z" fill="#E7B57C"/>
<path d="M25.8359 19.0969C25.7531 19.0969 25.7531 19.2245 25.8359 19.2245C25.9181 19.2243 25.9181 19.0969 25.8359 19.0969Z" fill="#E7B57C"/>
<path d="M25.6618 19.4493C25.5694 19.4493 25.5694 19.5915 25.6618 19.5915C25.7537 19.5913 25.7537 19.4493 25.6618 19.4493Z" fill="#E7B57C"/>
<path d="M27.5141 20.4749C27.3736 20.4749 27.3736 20.6919 27.5141 20.6919C27.6548 20.6919 27.6548 20.4749 27.5141 20.4749Z" fill="#E7B57C"/>
<path d="M27.4128 20.999C27.409 20.9825 27.4012 20.9713 27.3907 20.9583C27.3675 20.9306 27.3132 20.9306 27.2892 20.9583C27.2788 20.9713 27.2715 20.9825 27.2681 20.999C27.2577 21.0459 27.2892 21.093 27.3405 21.093C27.3912 21.0928 27.4226 21.0457 27.4128 20.999Z" fill="#E7B57C"/>
<path d="M27.5946 21.1409C27.5067 21.1409 27.5067 21.2757 27.5946 21.2757C27.6817 21.2759 27.6817 21.1409 27.5946 21.1409Z" fill="#E7B57C"/>
<path d="M27.835 20.7592C27.7356 20.7592 27.7356 20.9126 27.835 20.9126C27.9343 20.9128 27.9343 20.7592 27.835 20.7592Z" fill="#E7B57C"/>
<path d="M28.0762 21.1731C27.9961 21.1731 27.9961 21.2965 28.0762 21.2965C28.156 21.2967 28.156 21.1731 28.0762 21.1731Z" fill="#E7B57C"/>
<path d="M27.8624 21.9762C27.8571 21.9762 27.8571 21.9839 27.8624 21.9839C27.8673 21.9839 27.8673 21.9762 27.8624 21.9762Z" fill="#E7B57C"/>
<path d="M27.7147 21.8552C27.6568 21.8552 27.6568 21.9449 27.7147 21.9449C27.773 21.9449 27.773 21.8552 27.7147 21.8552Z" fill="#E7B57C"/>
<path d="M27.3806 21.6688C27.3395 21.6688 27.3395 21.7326 27.3806 21.7326C27.4221 21.7326 27.4221 21.6688 27.3806 21.6688Z" fill="#E7B57C"/>
<path d="M26.9253 21.031C26.8232 21.031 26.8232 21.1884 26.9253 21.1884C27.0281 21.1884 27.0281 21.031 26.9253 21.031Z" fill="#E7B57C"/>
<path d="M26.6714 20.5631C26.5939 20.5631 26.5939 20.6828 26.6714 20.6828C26.7489 20.6828 26.7489 20.5631 26.6714 20.5631Z" fill="#E7B57C"/>
<path d="M27.8029 20.3321C27.8012 20.3319 27.7985 20.3313 27.7964 20.3313C27.7891 20.3283 27.7808 20.3274 27.7704 20.3291C27.7693 20.3291 27.768 20.3296 27.7668 20.3296C27.7432 20.3345 27.7348 20.352 27.7374 20.3705C27.7348 20.3885 27.7432 20.4067 27.7668 20.4114C27.768 20.4116 27.7693 20.4116 27.7704 20.412C27.7808 20.4139 27.7891 20.4124 27.7964 20.4101C27.7985 20.4096 27.8012 20.4092 27.8029 20.4086C27.841 20.4011 27.841 20.3394 27.8029 20.3321Z" fill="#E7B57C"/>
<path d="M28.3033 21.922C28.2112 21.922 28.2112 22.0638 28.3033 22.0638C28.3951 22.064 28.3951 21.922 28.3033 21.922Z" fill="#E7B57C"/>
<path d="M26.8588 22.2246C26.7614 22.2246 26.7614 22.3741 26.8588 22.3741C26.9557 22.3741 26.9557 22.2246 26.8588 22.2246Z" fill="#E7B57C"/>
<path d="M26.4842 21.9337C26.3897 21.9337 26.3897 22.0798 26.4842 22.0798C26.5793 22.0797 26.5793 21.9337 26.4842 21.9337Z" fill="#E7B57C"/>
<path d="M26.9118 21.9011C26.8105 21.9011 26.8105 22.0581 26.9118 22.0581C27.014 22.0583 27.014 21.9011 26.9118 21.9011Z" fill="#E7B57C"/>
<path d="M26.725 21.5897C26.6159 21.5897 26.6159 21.758 26.725 21.758C26.8342 21.7582 26.8342 21.5897 26.725 21.5897Z" fill="#E7B57C"/>
<path d="M26.4305 21.549C26.3894 21.549 26.3894 21.6125 26.4305 21.6125C26.4716 21.6125 26.4716 21.549 26.4305 21.549Z" fill="#E7B57C"/>
<path d="M26.1901 21.371C26.1075 21.371 26.1075 21.498 26.1901 21.498C26.2726 21.498 26.2726 21.371 26.1901 21.371Z" fill="#E7B57C"/>
<path d="M26.0157 21.7227C25.9235 21.7227 25.9235 21.8645 26.0157 21.8645C26.1085 21.8645 26.1085 21.7227 26.0157 21.7227Z" fill="#E7B57C"/>
<path d="M14.3616 15.6832C14.7731 15.2701 15.2884 13.89 16.4226 14.4233C16.9893 14.6905 17.7136 14.9833 18.3649 14.8514C19.1148 14.7 19.5782 14.4807 20.3319 14.8039C21.9102 15.4811 23.2813 17.8582 22.2309 19.4303C21.7601 20.1347 20.9853 20.2054 20.2222 20.311C19.7985 20.3694 19.3213 20.3684 18.9247 20.5406C18.4898 20.7292 18.211 21.1527 17.8264 21.4245C16.3975 22.4356 14.2884 21.5551 14.166 19.7858C14.1139 19.0287 14.5909 18.7522 14.1326 18.0769C13.8352 17.6383 13.1199 17.4104 13.1509 16.7891C13.1818 16.1681 13.95 16.0968 14.3616 15.6832Z" fill="#FFDF9B"/>
<path opacity="0.5" d="M15.4708 15.6387C15.7709 15.3379 16.146 14.3326 16.9718 14.7209C17.385 14.9154 17.9592 15.0585 18.4337 14.9627C18.9799 14.8524 19.4558 14.6352 20.0051 14.8708C21.1547 15.3641 22.5315 16.7892 21.7665 17.9342C21.4238 18.4474 21.0083 18.9569 19.9643 18.8243C19.6554 18.7849 19.0843 19.0516 18.7955 19.1773C18.4782 19.3146 18.2751 19.623 17.9948 19.8209C16.9537 20.5574 15.4176 19.916 15.3282 18.6271C15.2905 18.076 15.6379 17.8742 15.3041 17.3821C15.0875 17.0629 14.566 16.8967 14.5885 16.4439C14.6115 15.992 15.1709 15.94 15.4708 15.6387Z" fill="white"/>
<path d="M15.0336 14.7946C14.833 15.0238 14.6679 15.2887 14.5214 15.489C14.6704 15.3339 14.833 15.0587 15.0336 14.7946Z" fill="#E7B57C"/>
<path d="M20.3698 20.1306C19.9464 20.1893 19.469 20.1884 19.0724 20.3604C18.6372 20.5491 18.3585 20.9725 17.9741 21.2443C16.5452 22.2556 14.4363 21.3748 14.3137 19.6057C14.2612 18.8485 14.7382 18.5722 14.2801 17.8967C13.983 17.4581 13.2672 17.2302 13.298 16.6089C13.3035 16.4994 13.3331 16.4071 13.3783 16.3271C13.2499 16.4436 13.1605 16.5871 13.1509 16.7894C13.1199 17.4106 13.835 17.6385 14.1326 18.0771C14.5909 18.7524 14.1139 19.0289 14.166 19.786C14.2884 21.5555 16.3977 22.4358 17.8264 21.4247C18.211 21.1529 18.4898 20.7294 18.9247 20.5408C19.3213 20.3685 19.7985 20.3696 20.2222 20.3112C20.9693 20.2077 21.7264 20.1366 22.2 19.4729C21.7252 19.9713 21.0432 20.0374 20.3698 20.1306Z" fill="#E7B57C"/>
<path d="M16.4417 16.0681C16.314 15.9647 16.1526 16.1626 16.2803 16.2658C16.408 16.3695 16.5696 16.1716 16.4417 16.0681Z" fill="#E7B57C"/>
<path d="M15.9596 16.4704C15.9685 16.4531 15.9702 16.4372 15.9702 16.4179C15.9698 16.3753 15.92 16.335 15.8781 16.3436C15.8587 16.3471 15.8432 16.3516 15.8283 16.364C15.7842 16.3989 15.7774 16.4653 15.8238 16.503C15.8702 16.5405 15.9336 16.5203 15.9596 16.4704Z" fill="#E7B57C"/>
<path d="M16.0191 16.7333C15.9397 16.6694 15.8395 16.7917 15.9193 16.8558C15.9987 16.92 16.0987 16.7977 16.0191 16.7333Z" fill="#E7B57C"/>
<path d="M16.5221 16.5635C16.4314 16.4902 16.3175 16.6298 16.4078 16.7027C16.4978 16.7759 16.6123 16.6365 16.5221 16.5635Z" fill="#E7B57C"/>
<path d="M16.4329 17.1167C16.3598 17.0578 16.2681 17.1703 16.3411 17.2288C16.4141 17.2876 16.5059 17.1754 16.4329 17.1167Z" fill="#E7B57C"/>
<path d="M15.6417 17.6893C15.6372 17.6853 15.6313 17.6923 15.636 17.696C15.6407 17.6996 15.6464 17.6928 15.6417 17.6893Z" fill="#E7B57C"/>
<path d="M15.5975 17.4712C15.5447 17.4283 15.4781 17.5099 15.5309 17.5527C15.5837 17.5954 15.6507 17.5138 15.5975 17.4712Z" fill="#E7B57C"/>
<path d="M15.4322 17.0554C15.3948 17.0252 15.3473 17.0834 15.385 17.1134C15.4224 17.144 15.4699 17.086 15.4322 17.0554Z" fill="#E7B57C"/>
<path d="M15.4933 16.1411C15.4007 16.066 15.283 16.2099 15.3763 16.2846C15.4689 16.3598 15.5865 16.2165 15.4933 16.1411Z" fill="#E7B57C"/>
<path d="M15.6099 15.5291C15.5392 15.4718 15.4501 15.581 15.5212 15.638C15.5914 15.6951 15.6804 15.5859 15.6099 15.5291Z" fill="#E7B57C"/>
<path d="M16.8106 16.1511C16.8087 16.1494 16.8072 16.1473 16.8051 16.1454C16.801 16.1374 16.794 16.1299 16.783 16.1241C16.7819 16.1235 16.7804 16.1228 16.7789 16.1224C16.7544 16.1091 16.7334 16.1194 16.7217 16.1376C16.7068 16.1524 16.7002 16.1749 16.7184 16.1963C16.7193 16.1976 16.7202 16.1987 16.7212 16.1995C16.7293 16.2092 16.738 16.2141 16.7466 16.2169C16.7491 16.2179 16.7512 16.2195 16.7536 16.2205C16.7936 16.2419 16.8394 16.186 16.8106 16.1511Z" fill="#E7B57C"/>
<path d="M16.0829 17.9647C15.9992 17.897 15.8934 18.0263 15.9775 18.094C16.0608 18.1619 16.1668 18.0325 16.0829 17.9647Z" fill="#E7B57C"/>
<path d="M14.545 17.1772C14.4567 17.1062 14.3455 17.2419 14.4336 17.3133C14.5216 17.3848 14.6335 17.2484 14.545 17.1772Z" fill="#E7B57C"/>
<path d="M14.4205 16.6375C14.3343 16.5681 14.2262 16.7005 14.3118 16.7703C14.3976 16.8395 14.5063 16.7072 14.4205 16.6375Z" fill="#E7B57C"/>
<path d="M14.8335 16.9229C14.7409 16.8481 14.6245 16.9908 14.7169 17.0659C14.8095 17.1409 14.9263 16.998 14.8335 16.9229Z" fill="#E7B57C"/>
<path d="M14.8952 16.5022C14.7959 16.4217 14.6705 16.5748 14.7701 16.6553C14.8689 16.7354 14.994 16.5823 14.8952 16.5022Z" fill="#E7B57C"/>
<path d="M14.6581 16.2482C14.6204 16.2182 14.573 16.2762 14.6108 16.3064C14.6481 16.3368 14.6956 16.2788 14.6581 16.2482Z" fill="#E7B57C"/>
<path d="M14.5717 15.9091C14.4962 15.8485 14.4015 15.9645 14.4768 16.0247C14.5518 16.086 14.6465 15.9701 14.5717 15.9091Z" fill="#E7B57C"/>
<path d="M14.1519 16.1015C14.0678 16.0334 13.9626 16.1628 14.0463 16.2304C14.1299 16.2981 14.2355 16.169 14.1519 16.1015Z" fill="#E7B57C"/>
<path d="M20.6751 15.8421C20.5472 15.739 20.3859 15.9359 20.5138 16.0397C20.6417 16.1428 20.803 15.9455 20.6751 15.8421Z" fill="#E7B57C"/>
<path d="M20.1935 16.2439C20.2021 16.2267 20.2033 16.2107 20.2033 16.1916C20.2029 16.1488 20.1531 16.1085 20.111 16.1173C20.092 16.1209 20.0767 16.1252 20.0616 16.1376C20.0175 16.1728 20.0109 16.2392 20.0573 16.2766C20.1035 16.3143 20.1674 16.294 20.1935 16.2439Z" fill="#E7B57C"/>
<path d="M20.253 16.5068C20.1738 16.4425 20.0733 16.5649 20.1529 16.6293C20.2321 16.6934 20.3322 16.5711 20.253 16.5068Z" fill="#E7B57C"/>
<path d="M20.7558 16.3366C20.6655 16.2638 20.551 16.4032 20.6417 16.4764C20.7319 16.5497 20.8462 16.4098 20.7558 16.3366Z" fill="#E7B57C"/>
<path d="M20.6665 16.8904C20.5939 16.8315 20.5019 16.9437 20.5747 17.0027C20.6475 17.0617 20.7392 16.9493 20.6665 16.8904Z" fill="#E7B57C"/>
<path d="M19.875 17.4628C19.8705 17.4591 19.8645 17.4666 19.8688 17.4703C19.8737 17.4739 19.8797 17.4669 19.875 17.4628Z" fill="#E7B57C"/>
<path d="M19.8313 17.245C19.7781 17.2019 19.7117 17.2833 19.7649 17.3266C19.8177 17.3692 19.8841 17.2876 19.8313 17.245Z" fill="#E7B57C"/>
<path d="M19.6661 16.8292C19.6288 16.7988 19.5816 16.857 19.6184 16.8872C19.6563 16.9174 19.7033 16.8596 19.6661 16.8292Z" fill="#E7B57C"/>
<path d="M19.7268 15.9153C19.6338 15.84 19.5167 15.9832 19.6095 16.0584C19.7027 16.1338 19.8198 15.9903 19.7268 15.9153Z" fill="#E7B57C"/>
<path d="M19.8436 15.3027C19.7727 15.2457 19.6839 15.3545 19.7542 15.4117C19.8253 15.4689 19.914 15.3601 19.8436 15.3027Z" fill="#E7B57C"/>
<path d="M21.0438 15.925C21.042 15.9228 21.0406 15.9211 21.0389 15.9188C21.034 15.9113 21.0276 15.9036 21.0163 15.8978C21.0154 15.8971 21.0142 15.8969 21.0125 15.8959C20.988 15.8828 20.9671 15.8931 20.9554 15.9111C20.9397 15.9263 20.9339 15.9486 20.952 15.9704C20.9527 15.9712 20.9537 15.9721 20.9546 15.9734C20.9626 15.983 20.9714 15.988 20.9799 15.9909C20.9824 15.9918 20.9844 15.9933 20.9869 15.9944C21.0272 16.016 21.0731 15.9592 21.0438 15.925Z" fill="#E7B57C"/>
<path d="M20.3167 17.7385C20.2328 17.6706 20.1273 17.7997 20.2111 17.8678C20.2946 17.9353 20.4004 17.8063 20.3167 17.7385Z" fill="#E7B57C"/>
<path d="M18.7787 16.9509C18.6899 16.879 18.5788 17.0154 18.6671 17.0867C18.7557 17.1585 18.867 17.0219 18.7787 16.9509Z" fill="#E7B57C"/>
<path d="M18.6539 16.4113C18.5675 16.3415 18.4594 16.4745 18.5454 16.5437C18.6318 16.6133 18.7401 16.4811 18.6539 16.4113Z" fill="#E7B57C"/>
<path d="M19.0672 16.6968C18.9744 16.6216 18.8578 16.7645 18.9504 16.8393C19.043 16.9144 19.1598 16.7716 19.0672 16.6968Z" fill="#E7B57C"/>
<path d="M19.129 16.2754C19.0298 16.1951 18.9045 16.3486 19.0036 16.4285C19.1026 16.5089 19.2282 16.3559 19.129 16.2754Z" fill="#E7B57C"/>
<path d="M18.8913 16.022C18.8536 15.9916 18.8067 16.0494 18.844 16.0798C18.8813 16.1102 18.9289 16.0524 18.8913 16.022Z" fill="#E7B57C"/>
<path d="M18.8051 15.683C18.7302 15.622 18.6353 15.7379 18.7104 15.7985C18.7855 15.8593 18.88 15.7434 18.8051 15.683Z" fill="#E7B57C"/>
<path d="M18.3855 15.8751C18.3015 15.8074 18.1959 15.936 18.2797 16.0045C18.3638 16.072 18.469 15.943 18.3855 15.8751Z" fill="#E7B57C"/>
<path d="M19.307 18.1698C19.1792 18.0664 19.0183 18.2634 19.146 18.3667C19.2739 18.4703 19.4347 18.2733 19.307 18.1698Z" fill="#E7B57C"/>
<path d="M18.8249 18.5717C18.8342 18.5539 18.8353 18.5383 18.8351 18.5188C18.8349 18.4762 18.7851 18.4361 18.7434 18.4443C18.724 18.4485 18.7086 18.4526 18.6933 18.4653C18.6493 18.5004 18.6427 18.5666 18.6893 18.6043C18.7355 18.6415 18.7991 18.6214 18.8249 18.5717Z" fill="#E7B57C"/>
<path d="M18.8849 18.8345C18.8055 18.7705 18.7053 18.8929 18.7845 18.9572C18.8641 19.0213 18.9641 18.8987 18.8849 18.8345Z" fill="#E7B57C"/>
<path d="M19.3872 18.6644C19.2969 18.591 19.1826 18.7308 19.2731 18.8041C19.3632 18.8773 19.4775 18.7375 19.3872 18.6644Z" fill="#E7B57C"/>
<path d="M19.2981 19.2178C19.2259 19.1591 19.1336 19.2713 19.2066 19.3304C19.2792 19.3893 19.3711 19.2767 19.2981 19.2178Z" fill="#E7B57C"/>
<path d="M18.5072 19.7904C18.5021 19.7866 18.4965 19.7937 18.5014 19.7975C18.5057 19.8014 18.5118 19.7943 18.5072 19.7904Z" fill="#E7B57C"/>
<path d="M18.4629 19.5726C18.4105 19.5302 18.3437 19.6114 18.3965 19.6545C18.4489 19.6969 18.5159 19.6157 18.4629 19.5726Z" fill="#E7B57C"/>
<path d="M18.2977 19.157C18.2605 19.1268 18.2128 19.1846 18.2501 19.2154C18.288 19.2456 18.3354 19.1871 18.2977 19.157Z" fill="#E7B57C"/>
<path d="M18.3585 18.2429C18.2653 18.1674 18.1484 18.3108 18.2416 18.3862C18.3342 18.4612 18.4515 18.3181 18.3585 18.2429Z" fill="#E7B57C"/>
<path d="M18.4752 17.6306C18.4047 17.5735 18.3157 17.6823 18.386 17.7394C18.457 17.7964 18.5458 17.6876 18.4752 17.6306Z" fill="#E7B57C"/>
<path d="M19.6758 18.2522C19.6737 18.2507 19.6724 18.2483 19.6705 18.2468C19.666 18.2387 19.659 18.2312 19.6482 18.2254C19.6471 18.2249 19.6456 18.2241 19.6443 18.2234C19.6198 18.2104 19.5986 18.2205 19.5869 18.2389C19.5717 18.2539 19.5658 18.2764 19.5835 18.298C19.5845 18.2993 19.5856 18.2997 19.5864 18.301C19.5943 18.3106 19.6032 18.3153 19.6115 18.3185C19.6139 18.3196 19.6162 18.3209 19.6186 18.3218C19.6592 18.343 19.7046 18.2871 19.6758 18.2522Z" fill="#E7B57C"/>
<path d="M18.9482 20.0663C18.8645 19.9986 18.7589 20.1275 18.8424 20.1952C18.9263 20.2631 19.032 20.1339 18.9482 20.0663Z" fill="#E7B57C"/>
<path d="M17.4105 19.2787C17.3222 19.207 17.2109 19.3428 17.2994 19.4145C17.3875 19.486 17.4989 19.35 17.4105 19.2787Z" fill="#E7B57C"/>
<path d="M17.286 18.7382C17.1999 18.669 17.0915 18.8016 17.1777 18.871C17.2637 18.941 17.3722 18.808 17.286 18.7382Z" fill="#E7B57C"/>
<path d="M17.6988 19.0245C17.6068 18.9496 17.4898 19.0926 17.5819 19.1674C17.6749 19.2421 17.7916 19.0991 17.6988 19.0245Z" fill="#E7B57C"/>
<path d="M17.7603 18.6033C17.6611 18.523 17.5359 18.6761 17.6353 18.7562C17.7347 18.8365 17.8595 18.6832 17.7603 18.6033Z" fill="#E7B57C"/>
<path d="M17.5235 18.3495C17.4858 18.3193 17.4382 18.3773 17.476 18.4075C17.5131 18.4381 17.561 18.3801 17.5235 18.3495Z" fill="#E7B57C"/>
<path d="M17.4367 18.0107C17.3618 17.9501 17.2671 18.0655 17.3424 18.1263C17.4173 18.1867 17.5116 18.0711 17.4367 18.0107Z" fill="#E7B57C"/>
<path d="M17.0174 18.2024C16.9333 18.1349 16.8277 18.2642 16.9116 18.3317C16.9955 18.3996 17.101 18.2705 17.0174 18.2024Z" fill="#E7B57C"/>
<path d="M18.2628 19.3762C18.6746 18.963 19.1893 17.5829 20.3236 18.1166C20.891 18.3834 21.6149 18.6765 22.2659 18.5445C23.0161 18.3931 23.4793 18.1736 24.2334 18.497C25.8119 19.1746 27.1829 21.5513 26.1327 23.1232C25.6619 23.828 24.8869 23.8981 24.1238 24.0037C23.7 24.0625 23.223 24.0615 22.8265 24.2337C22.391 24.4226 22.1122 24.8456 21.728 25.1176C20.2989 26.1289 18.19 25.2484 18.0672 23.4787C18.0152 22.7216 18.492 22.4453 18.034 21.77C17.7368 21.3312 17.0212 21.1031 17.0521 20.4819C17.0827 19.8611 17.8517 19.7897 18.2628 19.3762Z" fill="#FFDF9B"/>
<path opacity="0.5" d="M19.3723 19.3318C19.6716 19.0307 20.0469 18.0256 20.8731 18.4141C21.2863 18.6088 21.8599 18.7518 22.3348 18.6561C22.8814 18.5458 23.3567 18.3284 23.9061 18.564C25.0556 19.0575 26.4326 20.4824 25.668 21.6278C25.3247 22.1408 24.9092 22.6503 23.8658 22.5177C23.5568 22.4787 22.9855 22.7449 22.6966 22.8707C22.3793 23.0082 22.1762 23.3164 21.8963 23.5147C20.8551 24.2513 19.3189 23.6098 19.2297 22.3207C19.1916 21.7694 19.5394 21.5678 19.205 21.0757C18.9888 20.7559 18.4669 20.5904 18.4901 20.1376C18.5124 19.6846 19.0722 19.6328 19.3723 19.3318Z" fill="white"/>
<path d="M18.9349 18.488C18.734 18.7171 18.5691 18.9818 18.423 19.1821C18.5714 19.0268 18.7344 18.7518 18.9349 18.488Z" fill="#E7B57C"/>
<path d="M24.2711 23.8237C23.8477 23.8822 23.3707 23.8815 22.9742 24.0537C22.5387 24.2426 22.2599 24.6658 21.8753 24.9378C20.4462 25.9487 18.3377 25.0683 18.2151 23.2987C18.1625 22.542 18.6399 22.2655 18.1815 21.59C17.8841 21.1514 17.1683 20.9237 17.1996 20.3022C17.2049 20.1923 17.2347 20.1005 17.2798 20.0203C17.151 20.1369 17.0617 20.2803 17.0518 20.4825C17.0208 21.1037 17.7364 21.3317 18.0337 21.7706C18.4918 22.4459 18.0148 22.7222 18.0669 23.4793C18.1897 25.249 20.2983 26.1295 21.7277 25.1182C22.1119 24.846 22.3908 24.4232 22.8261 24.2343C23.2226 24.0621 23.6996 24.0629 24.1234 24.0044C24.8699 23.9016 25.6276 23.8299 26.101 23.1664C25.6265 23.6646 24.9443 23.7307 24.2711 23.8237Z" fill="#E7B57C"/>
<path d="M20.3432 19.7609C20.2151 19.6575 20.0539 19.8552 20.1816 19.9584C20.3094 20.0621 20.4713 19.8646 20.3432 19.7609Z" fill="#E7B57C"/>
<path d="M19.8613 20.163C19.8701 20.1452 19.8718 20.1298 19.8718 20.1107C19.8711 20.0681 19.8213 20.028 19.7796 20.0362C19.7603 20.04 19.7451 20.0445 19.73 20.0573C19.6858 20.092 19.6791 20.1584 19.7253 20.1957C19.7718 20.2332 19.8352 20.2129 19.8613 20.163Z" fill="#E7B57C"/>
<path d="M19.921 20.4262C19.8414 20.3619 19.7413 20.4846 19.8207 20.5483C19.9001 20.6127 20.0002 20.4906 19.921 20.4262Z" fill="#E7B57C"/>
<path d="M20.4235 20.2558C20.3332 20.1828 20.219 20.3222 20.3094 20.3955C20.3999 20.4689 20.5142 20.3287 20.4235 20.2558Z" fill="#E7B57C"/>
<path d="M20.3342 20.8095C20.2614 20.7505 20.1699 20.8626 20.2425 20.9213C20.3153 20.9806 20.4074 20.8684 20.3342 20.8095Z" fill="#E7B57C"/>
<path d="M19.5428 21.3819C19.5382 21.3782 19.5326 21.3851 19.5373 21.3887C19.5416 21.3928 19.5477 21.3857 19.5428 21.3819Z" fill="#E7B57C"/>
<path d="M19.499 21.164C19.4463 21.1211 19.3794 21.2025 19.432 21.2454C19.4854 21.2882 19.552 21.2068 19.499 21.164Z" fill="#E7B57C"/>
<path d="M19.3339 20.7485C19.2963 20.7185 19.249 20.7759 19.2869 20.8065C19.3241 20.8369 19.3714 20.7787 19.3339 20.7485Z" fill="#E7B57C"/>
<path d="M19.3949 19.8339C19.3021 19.7589 19.1846 19.9018 19.2772 19.9772C19.3705 20.0524 19.4878 19.9091 19.3949 19.8339Z" fill="#E7B57C"/>
<path d="M19.5112 19.2217C19.441 19.1648 19.3514 19.2736 19.4222 19.3306C19.4925 19.3879 19.5821 19.2787 19.5112 19.2217Z" fill="#E7B57C"/>
<path d="M20.7118 19.8436C20.7101 19.8421 20.7079 19.8397 20.7063 19.838C20.702 19.8299 20.6952 19.8224 20.6841 19.8162C20.6832 19.816 20.6815 19.8155 20.6801 19.8147C20.6558 19.8014 20.6345 19.8119 20.623 19.8299C20.6075 19.8447 20.6019 19.8672 20.6198 19.8888C20.6205 19.8901 20.6217 19.8911 20.6224 19.892C20.6303 19.9016 20.6394 19.9063 20.6481 19.9095C20.6505 19.9104 20.6526 19.9117 20.6547 19.9132C20.695 19.9346 20.7407 19.8785 20.7118 19.8436Z" fill="#E7B57C"/>
<path d="M19.9844 21.6575C19.9005 21.5898 19.7949 21.7187 19.8784 21.7866C19.9623 21.8543 20.068 21.7252 19.9844 21.6575Z" fill="#E7B57C"/>
<path d="M18.4466 20.8701C18.358 20.7987 18.2469 20.9348 18.3355 21.0061C18.4236 21.0772 18.5345 20.9416 18.4466 20.8701Z" fill="#E7B57C"/>
<path d="M18.3222 20.33C18.2362 20.2602 18.1276 20.393 18.2136 20.4628C18.2994 20.532 18.408 20.3992 18.3222 20.33Z" fill="#E7B57C"/>
<path d="M18.7351 20.6158C18.6423 20.5407 18.5257 20.6835 18.6181 20.7585C18.7109 20.8334 18.8277 20.6908 18.7351 20.6158Z" fill="#E7B57C"/>
<path d="M18.7969 20.1947C18.6979 20.1148 18.5723 20.2677 18.6715 20.3478C18.7707 20.4282 18.8959 20.275 18.7969 20.1947Z" fill="#E7B57C"/>
<path d="M18.5593 19.9412C18.5216 19.9108 18.4743 19.9686 18.512 19.9992C18.5494 20.029 18.5969 19.9716 18.5593 19.9412Z" fill="#E7B57C"/>
<path d="M18.4731 19.6019C18.3982 19.5413 18.3033 19.657 18.378 19.7178C18.4535 19.7786 18.548 19.6627 18.4731 19.6019Z" fill="#E7B57C"/>
<path d="M18.0535 19.7937C17.9695 19.726 17.8637 19.8553 17.9475 19.923C18.0314 19.9909 18.1372 19.8618 18.0535 19.7937Z" fill="#E7B57C"/>
<path d="M24.5767 19.5347C24.449 19.4311 24.2878 19.6285 24.4154 19.7316C24.5435 19.8352 24.7048 19.638 24.5767 19.5347Z" fill="#E7B57C"/>
<path d="M24.0953 19.9367C24.1038 19.9192 24.1055 19.9035 24.1055 19.8842C24.1049 19.8416 24.0549 19.8014 24.0135 19.8095C23.994 19.8135 23.9786 19.8178 23.9635 19.8301C23.9193 19.8656 23.9125 19.9318 23.9589 19.9693C24.0057 20.007 24.0691 19.9866 24.0953 19.9367Z" fill="#E7B57C"/>
<path d="M24.1547 20.1997C24.0751 20.1359 23.9753 20.258 24.0545 20.3224C24.1337 20.3863 24.2337 20.264 24.1547 20.1997Z" fill="#E7B57C"/>
<path d="M24.6575 20.0295C24.5671 19.9563 24.453 20.0961 24.5432 20.1691C24.6337 20.2422 24.7482 20.1027 24.6575 20.0295Z" fill="#E7B57C"/>
<path d="M24.5683 20.5828C24.4955 20.5239 24.4036 20.636 24.4765 20.6951C24.5493 20.754 24.6411 20.6417 24.5683 20.5828Z" fill="#E7B57C"/>
<path d="M23.7769 21.1557C23.7722 21.1517 23.766 21.1591 23.7707 21.1628C23.7756 21.1666 23.7817 21.1594 23.7769 21.1557Z" fill="#E7B57C"/>
<path d="M23.7327 20.9379C23.6793 20.8945 23.6133 20.9761 23.6661 21.0189C23.7191 21.0617 23.7857 20.9806 23.7327 20.9379Z" fill="#E7B57C"/>
<path d="M23.568 20.5219C23.5305 20.4917 23.4829 20.55 23.5206 20.58C23.5578 20.6106 23.6051 20.5524 23.568 20.5219Z" fill="#E7B57C"/>
<path d="M23.6285 19.6076C23.5356 19.5324 23.4182 19.6757 23.5114 19.7509C23.6046 19.826 23.7215 19.6829 23.6285 19.6076Z" fill="#E7B57C"/>
<path d="M23.7455 18.9957C23.675 18.9381 23.5858 19.0471 23.6565 19.1041C23.7272 19.1615 23.8161 19.0527 23.7455 18.9957Z" fill="#E7B57C"/>
<path d="M24.9453 19.6179C24.9436 19.6156 24.9421 19.6137 24.9406 19.6117C24.9359 19.6042 24.9291 19.5967 24.918 19.5912C24.9165 19.5901 24.9159 19.5897 24.9146 19.5892C24.8897 19.5753 24.8688 19.5858 24.8569 19.6038C24.8416 19.6188 24.8356 19.6413 24.8537 19.6627C24.8546 19.6638 24.8552 19.6647 24.8565 19.6662C24.8642 19.6756 24.8733 19.6805 24.8818 19.6839C24.8837 19.6846 24.8863 19.6861 24.8888 19.6873C24.9289 19.7088 24.975 19.6522 24.9453 19.6179Z" fill="#E7B57C"/>
<path d="M24.2184 21.4312C24.1345 21.3635 24.0289 21.4924 24.113 21.5605C24.1967 21.628 24.3022 21.4989 24.2184 21.4312Z" fill="#E7B57C"/>
<path d="M22.6803 20.6433C22.5922 20.5722 22.4809 20.7082 22.5692 20.7795C22.6572 20.8507 22.7685 20.7147 22.6803 20.6433Z" fill="#E7B57C"/>
<path d="M22.556 20.1039C22.4698 20.0344 22.3614 20.1672 22.4476 20.2364C22.5334 20.3062 22.642 20.1735 22.556 20.1039Z" fill="#E7B57C"/>
<path d="M22.9688 20.3889C22.8763 20.3141 22.7594 20.4574 22.8522 20.5319C22.9444 20.6065 23.0612 20.464 22.9688 20.3889Z" fill="#E7B57C"/>
<path d="M23.0305 19.9681C22.9309 19.8879 22.806 20.0413 22.9049 20.1214C23.0043 20.2017 23.1297 20.0486 23.0305 19.9681Z" fill="#E7B57C"/>
<path d="M22.7935 19.7145C22.7558 19.6841 22.7086 19.7419 22.7462 19.7725C22.7835 19.8031 22.8311 19.7449 22.7935 19.7145Z" fill="#E7B57C"/>
<path d="M22.7068 19.3758C22.6316 19.3148 22.5371 19.4304 22.6123 19.4913C22.687 19.5517 22.7819 19.4362 22.7068 19.3758Z" fill="#E7B57C"/>
<path d="M22.2871 19.568C22.2032 19.4997 22.0976 19.6292 22.1815 19.6971C22.2652 19.7646 22.3711 19.6356 22.2871 19.568Z" fill="#E7B57C"/>
<path d="M23.2084 21.8632C23.0809 21.76 22.9197 21.9568 23.0478 22.0601C23.1753 22.1639 23.3365 21.9663 23.2084 21.8632Z" fill="#E7B57C"/>
<path d="M22.7266 22.2648C22.736 22.2476 22.7372 22.2318 22.7368 22.2123C22.7362 22.1699 22.6868 22.1294 22.6451 22.1378C22.6257 22.1418 22.6106 22.1461 22.5949 22.1587C22.5508 22.1937 22.5444 22.26 22.591 22.2975C22.637 22.3352 22.7009 22.3149 22.7266 22.2648Z" fill="#E7B57C"/>
<path d="M22.7865 22.5278C22.7069 22.4634 22.607 22.5861 22.6862 22.6503C22.7656 22.7144 22.8657 22.5921 22.7865 22.5278Z" fill="#E7B57C"/>
<path d="M23.2887 22.3576C23.1984 22.2848 23.0843 22.4244 23.1746 22.4971C23.265 22.5705 23.3793 22.4311 23.2887 22.3576Z" fill="#E7B57C"/>
<path d="M23.1995 22.9109C23.1273 22.8522 23.0354 22.9646 23.1081 23.0235C23.1809 23.0824 23.2727 22.9698 23.1995 22.9109Z" fill="#E7B57C"/>
<path d="M22.4085 23.4835C22.4034 23.4797 22.3979 23.4867 22.4024 23.4908C22.4073 23.4948 22.4134 23.4876 22.4085 23.4835Z" fill="#E7B57C"/>
<path d="M22.3643 23.2659C22.3119 23.2229 22.2449 23.3047 22.2977 23.3473C22.3503 23.3903 22.4173 23.3085 22.3643 23.2659Z" fill="#E7B57C"/>
<path d="M22.1994 22.8501C22.1622 22.82 22.1147 22.878 22.1523 22.9082C22.1894 22.9386 22.2371 22.8806 22.1994 22.8501Z" fill="#E7B57C"/>
<path d="M22.26 21.9358C22.1672 21.8608 22.0502 22.0039 22.1429 22.0793C22.236 22.1545 22.3533 22.011 22.26 21.9358Z" fill="#E7B57C"/>
<path d="M22.3771 21.3235C22.3064 21.2669 22.2174 21.3755 22.2875 21.4327C22.3584 21.4897 22.4477 21.3809 22.3771 21.3235Z" fill="#E7B57C"/>
<path d="M23.5773 21.9453C23.5754 21.9435 23.5736 21.9414 23.5722 21.9397C23.5675 21.9316 23.5611 21.9241 23.55 21.9181C23.5488 21.9176 23.5471 21.9172 23.546 21.9161C23.5211 21.9031 23.5002 21.9134 23.4889 21.9315C23.4732 21.9463 23.4674 21.969 23.4853 21.9904C23.4862 21.9915 23.4874 21.9926 23.4879 21.9937C23.4958 22.0033 23.5049 22.0082 23.5134 22.0112C23.5153 22.0119 23.5179 22.0136 23.5204 22.0147C23.5604 22.0363 23.6064 21.9804 23.5773 21.9453Z" fill="#E7B57C"/>
<path d="M22.8501 23.759C22.7665 23.6915 22.6607 23.8205 22.7445 23.8884C22.8282 23.9561 22.9336 23.8271 22.8501 23.759Z" fill="#E7B57C"/>
<path d="M21.3122 22.9717C21.224 22.9002 21.1125 23.0362 21.201 23.1079C21.2892 23.1794 21.4003 23.0432 21.3122 22.9717Z" fill="#E7B57C"/>
<path d="M21.1877 22.4317C21.1017 22.3623 20.9933 22.4951 21.0791 22.5645C21.1655 22.6341 21.2741 22.5013 21.1877 22.4317Z" fill="#E7B57C"/>
<path d="M21.6004 22.7172C21.5082 22.6424 21.3915 22.7853 21.4835 22.8602C21.5759 22.9352 21.6932 22.7925 21.6004 22.7172Z" fill="#E7B57C"/>
<path d="M21.6621 22.2964C21.5625 22.2163 21.4375 22.3688 21.5369 22.4495C21.6359 22.5296 21.7613 22.3765 21.6621 22.2964Z" fill="#E7B57C"/>
<path d="M21.425 22.0431C21.3875 22.0127 21.3399 22.0708 21.3775 22.1014C21.4148 22.1311 21.4623 22.0737 21.425 22.0431Z" fill="#E7B57C"/>
<path d="M21.3386 21.7039C21.2637 21.6431 21.1692 21.759 21.2443 21.8196C21.3192 21.8798 21.4135 21.7643 21.3386 21.7039Z" fill="#E7B57C"/>
<path d="M20.9188 21.8957C20.8348 21.828 20.729 21.9568 20.8135 22.0247C20.8973 22.0927 21.0025 21.9638 20.9188 21.8957Z" fill="#E7B57C"/>
<path d="M25.1719 49.3679C25.1719 49.3679 21.2571 50.8279 14.7328 48.8812C9.16208 47.2193 2.74377 46.1235 2.74377 46.1235L4.53729 43.4491L24.3784 46.6626L25.1719 49.3679Z" fill="#E8A123"/>
<path d="M4.53742 43.4494C4.53742 43.4494 3.23316 41.6627 4.04854 37.3634C4.86429 33.0648 5.68023 30.9557 6.1693 28.2789C6.65856 25.6025 5.59818 25.44 5.843 23.0879C6.08744 20.7358 7.22968 19.3571 7.22968 19.3571C7.22968 19.3571 11.4665 21.7172 17.1462 22.6013C24.4382 23.7371 25.9088 21.8129 28.4988 23.4905C28.7606 25.0348 28.0078 26.3798 26.8847 31.4281C26.5606 32.8845 26.2405 38.3289 26.0689 40.2025C25.7428 43.7713 24.4604 46.6629 24.4604 46.6629C24.4604 46.6629 21.9762 47.646 14.9773 45.9613C7.97848 44.277 4.53742 43.4494 4.53742 43.4494Z" fill="#FFC421"/>
<path d="M6.16916 28.279C6.03242 29.0267 5.86964 29.7305 5.68933 30.4495C6.67842 32.5291 8.45496 34.503 9.90162 36.1194C11.8234 38.2671 13.8538 40.2834 16.365 41.7424C18.879 43.2032 21.4713 44.4558 24.3133 45.1263C24.5346 45.1784 24.756 45.2304 24.9775 45.2825C25.3724 44.1 25.8803 42.2669 26.0688 40.2028C26.1502 39.3157 26.2645 37.6272 26.3973 35.941C17.8594 34.2766 10.2196 28.7491 6.40153 20.8452C6.15992 21.437 5.93623 22.1911 5.84286 23.088C5.59804 25.4401 6.65842 25.6025 6.16916 28.279Z" fill="white"/>
<path d="M5.75249 43.6082L5.00049 45.2857L5.44411 43.5026L5.75249 43.6082Z" fill="#FFC421"/>
<path d="M8.73639 44.138L7.98401 45.8155L8.42781 44.0323L8.73639 44.138Z" fill="#FFC421"/>
<path d="M7.25152 43.857L6.49915 45.5343L6.94295 43.7513L7.25152 43.857Z" fill="#FFC421"/>
<path d="M11.6308 45.0033L10.8784 46.6807L11.3224 44.8977L11.6308 45.0033Z" fill="#FFC421"/>
<path d="M10.1849 44.7219L9.4325 46.3997L9.8763 44.6163L10.1849 44.7219Z" fill="#FFC421"/>
<path d="M14.8819 45.859L14.1298 47.5369L14.5734 45.7535L14.8819 45.859Z" fill="#FFC421"/>
<path d="M13.1698 45.3383L12.4172 47.0163L12.8612 45.2329L13.1698 45.3383Z" fill="#FFC421"/>
<path d="M17.3002 46.4525L16.5482 48.13L16.9918 46.347L17.3002 46.4525Z" fill="#FFC421"/>
<path d="M19.5232 46.3999L19.36 48.3678L19.1969 46.3999H19.5232Z" fill="#FFC421"/>
<path d="M22.1258 46.9264L22.1816 48.5571L21.8025 46.9695L22.1258 46.9264Z" fill="#FFC421"/>
<path d="M23.8671 46.5577L23.9233 48.1884L23.5438 46.6011L23.8671 46.5577Z" fill="#FFC421"/>
<path d="M15.0262 42.2777C13.0872 39.313 13.0133 34.9241 13.3049 31.5035C13.6635 27.2883 13.6223 25.6899 15.8057 22.3614C10.6555 21.4254 7.22968 19.3571 7.22968 19.3571C7.22968 19.3571 6.08763 20.7358 5.843 23.0879C5.59837 25.4402 6.65875 25.6027 6.1693 28.2789C5.68023 30.9557 4.86429 33.0647 4.04854 37.3634C3.23316 41.6627 4.53742 43.4494 4.53742 43.4494C4.53742 43.4494 7.97848 44.277 14.9771 45.9613C18.5336 46.8175 20.9219 46.9842 22.4138 46.9416C19.4782 46.239 16.6385 44.7437 15.0262 42.2777Z" fill="#EFE6DB"/>
<path d="M10.6 20.9119C8.47926 20.1093 7.22932 19.3567 7.22932 19.3567C7.22932 19.3567 6.08727 20.7354 5.84263 23.0875C5.598 25.4398 6.65839 25.6023 6.16894 28.2786C5.67986 30.9554 4.86392 33.0644 4.04817 37.3631C3.2328 41.6623 4.53706 43.449 4.53706 43.449C4.53706 43.449 6.99412 44.0401 11.9573 45.2343C7.7282 38.1087 8.31799 29.1561 10.6 20.9119Z" fill="#EFE6DB"/>
<path d="M28.4986 23.4902C26.2049 22.3576 23.3254 23.6905 16.5481 22.7365C10.7898 21.9259 7.22932 19.3568 7.22932 19.3568L7.09729 17.1667C7.09729 17.1667 12.8296 19.653 17.1458 20.3033C22.8882 21.1683 29.7391 21.9254 29.7391 21.9254C29.7391 21.9254 29.3242 23.1085 28.4986 23.4902Z" fill="#E8A123"/>
<path d="M7.9266 17.6533C7.9266 17.6533 7.97111 17.7762 8.00544 17.9615C8.02392 18.054 8.04014 18.1622 8.05222 18.2782C8.06598 18.3941 8.07145 18.5181 8.07768 18.6421C8.08409 18.8902 8.07127 19.1388 8.04543 19.3258C8.02185 19.5127 7.98432 19.638 7.98432 19.638C7.98432 19.638 7.93961 19.5151 7.9051 19.3299C7.86851 19.1448 7.84116 18.8972 7.83324 18.6492C7.83229 18.525 7.83041 18.401 7.83739 18.2844C7.84267 18.1679 7.85266 18.0589 7.86568 17.9655C7.88925 17.7786 7.9266 17.6533 7.9266 17.6533Z" fill="#FFC421"/>
<path d="M9.77974 18.3835C9.77974 18.3835 9.82426 18.515 9.85859 18.7128C9.87707 18.8116 9.8931 18.9272 9.90536 19.0513C9.91894 19.1751 9.92441 19.3076 9.93064 19.44C9.93705 19.7051 9.92403 19.9705 9.89819 20.1701C9.87462 20.3697 9.83689 20.5031 9.83689 20.5031C9.83689 20.5031 9.79219 20.3717 9.75787 20.1738C9.72146 19.9759 9.69412 19.7116 9.68619 19.4466C9.68525 19.314 9.68355 19.1815 9.69053 19.057C9.69581 18.9326 9.70581 18.8163 9.71882 18.7165C9.74259 18.5171 9.77974 18.3835 9.77974 18.3835Z" fill="#FFC421"/>
<path d="M12.082 19.3567C12.082 19.3567 12.115 19.485 12.1324 19.6752C12.1424 19.7705 12.1486 19.8814 12.1499 19.9995C12.153 20.1181 12.1471 20.244 12.1418 20.3698C12.1256 20.6212 12.0898 20.8714 12.0471 21.0581C12.0064 21.2449 11.9576 21.3682 11.9576 21.3682C11.9576 21.3682 11.9242 21.2398 11.9068 21.0496C11.8874 20.859 11.8829 20.6064 11.8978 20.355C11.9081 20.2293 11.9178 20.1038 11.9355 19.9866C11.9513 19.8692 11.9713 19.76 11.9928 19.6668C12.0334 19.4799 12.082 19.3567 12.082 19.3567Z" fill="#FFC421"/>
<path d="M15.0439 20.2327C15.0439 20.2327 15.0769 20.361 15.0942 20.5512C15.104 20.6465 15.1103 20.7573 15.1118 20.8757C15.1148 20.9943 15.1089 21.1201 15.1037 21.246C15.0874 21.4974 15.0518 21.7476 15.009 21.9342C14.9682 22.1211 14.9194 22.2443 14.9194 22.2443C14.9194 22.2443 14.886 22.116 14.8686 21.9258C14.8492 21.7352 14.8447 21.4825 14.8594 21.2312C14.8698 21.1057 14.8794 20.98 14.8971 20.8628C14.9132 20.7453 14.933 20.6362 14.9545 20.5429C14.9954 20.3559 15.0439 20.2327 15.0439 20.2327Z" fill="#FFC421"/>
<path d="M18.72 20.8448C18.72 20.8448 18.753 20.9732 18.7704 21.1636C18.7804 21.2588 18.7864 21.3697 18.7879 21.4879C18.7909 21.6064 18.7851 21.7323 18.7798 21.8582C18.7636 22.1095 18.7279 22.3598 18.6851 22.5466C18.6444 22.7334 18.5955 22.8567 18.5955 22.8567C18.5955 22.8567 18.5621 22.7284 18.5448 22.538C18.5254 22.3474 18.5208 22.0947 18.5356 21.8432C18.5459 21.7177 18.5554 21.592 18.5731 21.4748C18.5889 21.3573 18.6087 21.2482 18.6304 21.1547C18.6714 20.9681 18.72 20.8448 18.72 20.8448Z" fill="#FFC421"/>
<path d="M22.2036 21.2386C22.2036 21.2386 22.2366 21.3429 22.2539 21.4968C22.2637 21.5739 22.27 21.6633 22.2715 21.7586C22.2745 21.8543 22.2687 21.9554 22.2636 22.0567C22.2473 22.2589 22.2117 22.4596 22.1689 22.6089C22.1283 22.7585 22.0795 22.8564 22.0795 22.8564C22.0795 22.8564 22.0463 22.7521 22.0289 22.5983C22.0095 22.4442 22.005 22.2405 22.0197 22.0381C22.0301 21.9372 22.0397 21.8361 22.0572 21.7421C22.0733 21.648 22.0931 21.5605 22.1146 21.4859C22.1549 21.3368 22.2036 21.2386 22.2036 21.2386Z" fill="#FFC421"/>
<path d="M25.4166 21.5469C25.4166 21.5469 25.4279 21.6416 25.4139 21.7737C25.4081 21.8401 25.3964 21.9159 25.3787 21.9954C25.3626 22.0755 25.3368 22.158 25.3117 22.2407C25.2559 22.4043 25.1816 22.5617 25.1107 22.6746C25.0418 22.7883 24.975 22.8571 24.975 22.8571C24.975 22.8571 24.9635 22.7622 24.9775 22.6302C24.9894 22.4975 25.0254 22.3274 25.0799 22.1633C25.1099 22.0822 25.1395 22.001 25.175 21.9275C25.2091 21.8534 25.2455 21.786 25.2812 21.7296C25.3502 21.6159 25.4166 21.5469 25.4166 21.5469Z" fill="#FFC421"/>
<path d="M28.2707 22.0476C28.2707 22.0476 28.2592 22.1345 28.2153 22.2463C28.1945 22.3029 28.1656 22.3659 28.1308 22.4303C28.097 22.4957 28.0536 22.5601 28.0108 22.6252C27.9203 22.7516 27.8139 22.8668 27.7209 22.9441C27.6296 23.0225 27.5511 23.0622 27.5511 23.0622C27.5511 23.0622 27.5625 22.9752 27.6062 22.8634C27.6483 22.7505 27.7217 22.612 27.8111 22.4849C27.8582 22.423 27.9048 22.3605 27.9553 22.307C28.0046 22.2526 28.0547 22.2046 28.1013 22.166C28.1924 22.0876 28.2707 22.0476 28.2707 22.0476Z" fill="#FFC421"/>
<path d="M66.331 38.4691C65.2489 33.53 58.8438 31.3456 51.1782 31.3456C43.5128 31.3456 37.9347 33.6249 36.1325 38.5848C35.8349 39.4034 30.4227 53.1278 51.1782 53.1278C71.9343 53.1278 66.5175 39.3194 66.331 38.4691Z" fill="#DC8745"/>
<path d="M66.3313 38.469C66.1565 37.6703 65.8406 36.9449 65.4047 36.288C66.8919 41.6624 64.5154 48.3959 58.7204 50.2538C56.3358 51.0176 53.8093 51.0232 51.33 50.9831C48.7162 50.9409 46.1118 51.0396 43.5156 50.674C41.0566 50.3277 38.5039 49.2341 36.4167 47.6021C38.142 50.5727 42.2236 53.1277 51.1784 53.1277C71.9346 53.1277 66.5179 39.3193 66.3313 38.469Z" fill="#D16F34"/>
<path d="M66.0805 37.6137C66.6454 39.5698 65.9728 41.283 64.5806 41.6984C63.7254 41.9533 62.5753 40.1311 60.8559 40.8434C59.1369 41.5556 60.4741 46.0199 58.3728 46.922C56.272 47.8243 58.0863 43.9773 54.8395 43.9773C51.5922 43.9773 52.3721 47.6819 49.7296 47.7292C47.0877 47.777 47.2524 43.1889 45.0028 43.2178C44.1178 43.2294 42.147 45.3788 41.3258 45.3549C39.828 45.3116 39.354 42.5018 38.2223 42.2365C36.8694 41.9193 36.2834 43.5995 35.6776 42.8113C34.4367 41.1971 35.282 39.5366 36.2764 37.6137C38.0624 34.1624 42.9488 30.5853 51.1787 30.5853C59.4085 30.5855 65.0029 33.8831 66.0805 37.6137Z" fill="#754C29"/>
<path d="M66.0805 37.6138C65.7862 36.5956 65.1533 35.6104 64.2241 34.7147C65.1219 36.2208 63.8482 42.2367 51.4969 42.2367C39.1458 42.2367 36.8532 37.5506 37.5924 35.7044C37.0465 36.3298 36.6078 36.9745 36.276 37.614C35.2817 39.5369 34.4363 41.1974 35.6772 42.8116C36.283 43.5996 36.869 41.9194 38.222 42.2368C39.3538 42.5021 39.8276 45.3119 41.3254 45.3552C42.1466 45.3791 44.1174 43.2297 45.0024 43.2181C47.2522 43.1892 47.0873 47.7773 49.7292 47.7295C52.3719 47.6822 51.592 43.9776 54.8391 43.9776C58.0859 43.9776 56.2717 47.8246 58.3724 46.9223C60.4738 46.02 59.1365 41.5559 60.8555 40.8436C62.5749 40.1312 63.7251 41.9536 64.5802 41.6987C65.9728 41.2832 66.6454 39.57 66.0805 37.6138Z" fill="#6A3F22"/>
<path d="M51.3957 37.659C54.2233 37.659 56.5156 36.6466 56.5156 35.3977C56.5156 34.1488 54.2233 33.1364 51.3957 33.1364C48.568 33.1364 46.2758 34.1488 46.2758 35.3977C46.2758 36.6466 48.568 37.659 51.3957 37.659Z" fill="#573717"/>
<path d="M46.9666 36.5285C47.8519 37.2038 49.5015 37.6588 51.3958 37.6588C53.2894 37.6588 54.9394 37.2036 55.8248 36.5285C54.9396 35.8532 53.2896 35.3977 51.3958 35.3977C49.5015 35.3977 47.8519 35.8533 46.9666 36.5285Z" fill="#DC8745"/>
<path d="M57.8312 39.8937C57.8312 40.698 54.6244 41.3497 50.6686 41.3497C46.7125 41.3497 43.5055 40.698 43.5055 39.8937C43.5055 39.0895 46.7123 40.1473 50.6686 40.1473C54.6242 40.1473 57.8312 39.0895 57.8312 39.8937Z" fill="#82552F"/>
<path d="M40.1001 38.6273C39.3026 38.496 38.1602 37.5628 38.4041 36.0966C38.6485 34.6303 42.0401 33.0126 42.8382 33.1443C43.6356 33.2756 39.8421 34.8271 39.5976 36.2934C39.3526 37.7592 40.8983 38.7586 40.1001 38.6273Z" fill="#82552F"/>
<path d="M37.8488 42.5101C37.4851 42.5101 37.4851 43.0708 37.8488 43.0708C38.2124 43.0708 38.2124 42.5101 37.8488 42.5101Z" fill="#EFCEA5"/>
<path d="M37.7398 43.4816C37.7311 43.439 37.7109 43.4103 37.6834 43.3773C37.6236 43.3051 37.4819 43.3051 37.4219 43.3773C37.3948 43.4103 37.375 43.439 37.3657 43.4816C37.3399 43.6029 37.4212 43.7256 37.5527 43.7256C37.6847 43.7254 37.7654 43.6029 37.7398 43.4816Z" fill="#EFCEA5"/>
<path d="M38.2093 43.8492C37.9839 43.8492 37.9839 44.197 38.2093 44.197C38.4353 44.197 38.4353 43.8492 38.2093 43.8492Z" fill="#EFCEA5"/>
<path d="M38.8317 42.8622C38.5745 42.8622 38.5745 43.2585 38.8317 43.2585C39.0883 43.2585 39.0883 42.8622 38.8317 42.8622Z" fill="#EFCEA5"/>
<path d="M39.4541 43.932C39.2472 43.932 39.2472 44.2515 39.4541 44.2515C39.661 44.2515 39.661 43.932 39.4541 43.932Z" fill="#EFCEA5"/>
<path d="M38.9009 46.0068C38.888 46.0068 38.888 46.0273 38.9009 46.0273C38.9141 46.0273 38.9141 46.0068 38.9009 46.0068Z" fill="#EFCEA5"/>
<path d="M38.5208 45.6947C38.3707 45.6947 38.3707 45.9267 38.5208 45.9267C38.6713 45.9267 38.6713 45.6947 38.5208 45.6947Z" fill="#EFCEA5"/>
<path d="M37.6564 45.2125C37.5502 45.2125 37.5502 45.3768 37.6564 45.3768C37.763 45.3768 37.763 45.2125 37.6564 45.2125Z" fill="#EFCEA5"/>
<path d="M36.4816 43.5638C36.2174 43.5638 36.2174 43.9718 36.4816 43.9718C36.7457 43.9718 36.7457 43.5638 36.4816 43.5638Z" fill="#EFCEA5"/>
<path d="M35.5939 43.1036C35.3934 43.1036 35.3934 43.4133 35.5939 43.4133C35.7943 43.4133 35.7943 43.1036 35.5939 43.1036Z" fill="#EFCEA5"/>
<path d="M38.9397 44.9101C38.9338 44.9088 38.9285 44.908 38.9231 44.9069C38.9044 44.9001 38.8823 44.896 38.8552 44.9014C38.852 44.902 38.8486 44.9033 38.8457 44.9035C38.785 44.9148 38.7637 44.9622 38.769 45.0085C38.7637 45.0556 38.785 45.1023 38.8457 45.1142C38.8487 45.1155 38.8521 45.1158 38.8552 45.1164C38.8823 45.1215 38.9044 45.1183 38.9231 45.111C38.9285 45.1098 38.934 45.1087 38.9397 45.1078C39.0381 45.0886 39.0381 44.9292 38.9397 44.9101Z" fill="#EFCEA5"/>
<path d="M40.0418 45.8679C39.8034 45.8679 39.8034 46.235 40.0418 46.235C40.2801 46.235 40.2801 45.8679 40.0418 45.8679Z" fill="#EFCEA5"/>
<path d="M36.3082 46.649C36.0576 46.649 36.0576 47.036 36.3082 47.036C36.5583 47.0358 36.5583 46.649 36.3082 46.649Z" fill="#EFCEA5"/>
<path d="M36.4464 45.8137C36.1829 45.8137 36.1829 46.2198 36.4464 46.2198C36.7095 46.2198 36.7095 45.8137 36.4464 45.8137Z" fill="#EFCEA5"/>
<path d="M35.9626 45.0084C35.6806 45.0084 35.6806 45.444 35.9626 45.444C36.2444 45.4442 36.2444 45.0084 35.9626 45.0084Z" fill="#EFCEA5"/>
<path d="M35.6737 44.3611C35.5671 44.3611 35.5671 44.5254 35.6737 44.5254C35.7804 44.5254 35.7804 44.3611 35.6737 44.3611Z" fill="#EFCEA5"/>
<path d="M37.3608 46.814C37.1473 46.814 37.1473 47.143 37.3608 47.143C37.5741 47.143 37.5741 46.814 37.3608 46.814Z" fill="#EFCEA5"/>
<path d="M36.8582 44.641C36.6203 44.641 36.6203 45.0083 36.8582 45.0083C37.0968 45.0083 37.0968 44.641 36.8582 44.641Z" fill="#EFCEA5"/>
<path d="M45.1733 43.9554C44.8094 43.9554 44.8094 44.5163 45.1733 44.5163C45.5369 44.5163 45.5369 43.9554 45.1733 43.9554Z" fill="#EFCEA5"/>
<path d="M44.911 45.3103C44.9021 45.2677 44.8823 45.2392 44.8553 45.2061C44.7954 45.1339 44.6537 45.1339 44.5937 45.2061C44.566 45.2392 44.546 45.2677 44.537 45.3103C44.5117 45.4318 44.5924 45.5543 44.7239 45.5543C44.8563 45.5543 44.937 45.4318 44.911 45.3103Z" fill="#EFCEA5"/>
<path d="M45.3809 45.6781C45.1553 45.6781 45.1553 46.0257 45.3809 46.0257C45.6066 46.0255 45.6066 45.6781 45.3809 45.6781Z" fill="#EFCEA5"/>
<path d="M46.0033 44.6904C45.746 44.6904 45.746 45.0877 46.0033 45.0877C46.2598 45.0877 46.2598 44.6904 46.0033 44.6904Z" fill="#EFCEA5"/>
<path d="M46.6255 45.761C46.4186 45.761 46.4186 46.0799 46.6255 46.0799C46.8317 46.0799 46.8317 45.761 46.6255 45.761Z" fill="#EFCEA5"/>
<path d="M46.0722 47.8357C46.0584 47.8357 46.0584 47.8561 46.0722 47.8561C46.0858 47.8561 46.0858 47.8357 46.0722 47.8357Z" fill="#EFCEA5"/>
<path d="M45.6919 47.5236C45.5412 47.5236 45.5412 47.7556 45.6919 47.7556C45.8424 47.7556 45.8424 47.5236 45.6919 47.5236Z" fill="#EFCEA5"/>
<path d="M44.8275 47.041C44.7217 47.041 44.7217 47.2055 44.8275 47.2055C44.9347 47.2055 44.9347 47.041 44.8275 47.041Z" fill="#EFCEA5"/>
<path d="M43.6532 45.3927C43.3887 45.3927 43.3887 45.8001 43.6532 45.8001C43.9172 45.8001 43.9172 45.3927 43.6532 45.3927Z" fill="#EFCEA5"/>
<path d="M42.6953 45.1406C42.4948 45.1406 42.4948 45.4494 42.6953 45.4494C42.8964 45.4494 42.8964 45.1406 42.6953 45.1406Z" fill="#EFCEA5"/>
<path d="M44.2576 44.2626C44.2518 44.2615 44.2463 44.2606 44.2406 44.2593C44.2214 44.2525 44.2001 44.2486 44.1729 44.254C44.1699 44.2546 44.1669 44.2553 44.1641 44.2561C44.1028 44.2677 44.0818 44.3146 44.0869 44.3615C44.0818 44.408 44.1028 44.4551 44.1641 44.4669C44.1669 44.4675 44.1699 44.4681 44.1729 44.469C44.2003 44.4739 44.2214 44.4705 44.2406 44.4635C44.2463 44.4626 44.2518 44.4613 44.2576 44.4604C44.3561 44.4409 44.3561 44.2816 44.2576 44.2626Z" fill="#EFCEA5"/>
<path d="M47.2137 47.6965C46.9751 47.6965 46.9751 48.064 47.2137 48.064C47.4514 48.0638 47.4514 47.6965 47.2137 47.6965Z" fill="#EFCEA5"/>
<path d="M43.479 48.4773C43.2287 48.4773 43.2287 48.8645 43.479 48.8645C43.7306 48.8645 43.7306 48.4773 43.479 48.4773Z" fill="#EFCEA5"/>
<path d="M42.5119 47.7262C42.2675 47.7262 42.2675 48.1032 42.5119 48.1032C42.756 48.1031 42.756 47.7262 42.5119 47.7262Z" fill="#EFCEA5"/>
<path d="M43.6178 47.6427C43.3543 47.6427 43.3543 48.0486 43.6178 48.0486C43.8813 48.0486 43.8813 47.6427 43.6178 47.6427Z" fill="#EFCEA5"/>
<path d="M43.1339 46.8374C42.8515 46.8374 42.8515 47.2722 43.1339 47.2722C43.416 47.2724 43.416 46.8374 43.1339 46.8374Z" fill="#EFCEA5"/>
<path d="M42.373 46.7322C42.2668 46.7322 42.2668 46.8965 42.373 46.8965C42.4801 46.8965 42.4801 46.7322 42.373 46.7322Z" fill="#EFCEA5"/>
<path d="M41.751 46.2716C41.5384 46.2716 41.5384 46.6006 41.751 46.6006C41.9643 46.6006 41.9643 46.2716 41.751 46.2716Z" fill="#EFCEA5"/>
<path d="M41.3015 47.1807C41.0639 47.1807 41.0639 47.5483 41.3015 47.5483C41.5399 47.5483 41.5399 47.1807 41.3015 47.1807Z" fill="#EFCEA5"/>
<path d="M53.4174 47.1465C53.0539 47.1465 53.0539 47.7072 53.4174 47.7072C53.7814 47.7072 53.7814 47.1465 53.4174 47.1465Z" fill="#EFCEA5"/>
<path d="M53.1555 48.5014C53.1463 48.4585 53.1265 48.4307 53.0993 48.3973C53.039 48.3251 52.8983 48.3251 52.8377 48.3973C52.8102 48.4307 52.7908 48.4585 52.7815 48.5014C52.7557 48.623 52.837 48.7458 52.9688 48.7458C53.1001 48.7456 53.181 48.623 53.1555 48.5014Z" fill="#EFCEA5"/>
<path d="M53.6248 48.8689C53.3988 48.8689 53.3988 49.2169 53.6248 49.2169C53.8504 49.217 53.8504 48.8689 53.6248 48.8689Z" fill="#EFCEA5"/>
<path d="M54.2468 47.8822C53.9897 47.8822 53.9897 48.2784 54.2468 48.2784C54.504 48.2784 54.504 47.8822 54.2468 47.8822Z" fill="#EFCEA5"/>
<path d="M54.8695 48.9524C54.6626 48.9524 54.6626 49.2715 54.8695 49.2715C55.0768 49.2715 55.0768 48.9524 54.8695 48.9524Z" fill="#EFCEA5"/>
<path d="M54.3163 51.0269C54.3029 51.0269 54.3029 51.0475 54.3163 51.0475C54.3295 51.0477 54.3295 51.0269 54.3163 51.0269Z" fill="#EFCEA5"/>
<path d="M53.9356 50.7146C53.7858 50.7146 53.7858 50.9465 53.9356 50.9465C54.0868 50.9466 54.0868 50.7146 53.9356 50.7146Z" fill="#EFCEA5"/>
<path d="M53.0721 50.2329C52.9655 50.2329 52.9655 50.3976 53.0721 50.3976C53.1787 50.3976 53.1787 50.2329 53.0721 50.2329Z" fill="#EFCEA5"/>
<path d="M51.8969 48.5842C51.6328 48.5842 51.6328 48.9915 51.8969 48.9915C52.1611 48.9915 52.1611 48.5842 51.8969 48.5842Z" fill="#EFCEA5"/>
<path d="M51.2391 47.3751C51.0391 47.3751 51.0391 47.6846 51.2391 47.6846C51.4403 47.6848 51.4403 47.3751 51.2391 47.3751Z" fill="#EFCEA5"/>
<path d="M54.1636 46.7782C54.1583 46.7773 54.1523 46.7758 54.1468 46.7754C54.1281 46.7677 54.1066 46.7644 54.0791 46.7692C54.0757 46.7706 54.0732 46.7711 54.0695 46.7713C54.0091 46.7831 53.9878 46.8302 53.9933 46.8769C53.9878 46.9238 54.0093 46.9709 54.0695 46.9827C54.0732 46.9831 54.0757 46.9838 54.0791 46.9842C54.1066 46.9898 54.1283 46.9859 54.1468 46.9793C54.1523 46.978 54.1581 46.9771 54.1636 46.976C54.262 46.9566 54.262 46.7972 54.1636 46.7782Z" fill="#EFCEA5"/>
<path d="M55.457 50.8876C55.2189 50.8876 55.2189 51.2549 55.457 51.2549C55.6956 51.2549 55.6956 50.8876 55.457 50.8876Z" fill="#EFCEA5"/>
<path d="M51.7239 51.6691C51.4729 51.6691 51.4729 52.0553 51.7239 52.0553C51.9744 52.0553 51.9744 51.6691 51.7239 51.6691Z" fill="#EFCEA5"/>
<path d="M50.7559 50.9172C50.5111 50.9172 50.5111 51.2948 50.7559 51.2948C51.0003 51.2948 51.0003 50.9172 50.7559 50.9172Z" fill="#EFCEA5"/>
<path d="M51.862 50.8337C51.5987 50.8337 51.5987 51.2395 51.862 51.2395C52.1253 51.2395 52.1253 50.8337 51.862 50.8337Z" fill="#EFCEA5"/>
<path d="M51.3778 50.0281C51.0956 50.0281 51.0956 50.4635 51.3778 50.4635C51.6605 50.4635 51.6605 50.0281 51.3778 50.0281Z" fill="#EFCEA5"/>
<path d="M50.6176 49.9229C50.5111 49.9229 50.5111 50.0875 50.6176 50.0875C50.7238 50.0875 50.7238 49.9229 50.6176 49.9229Z" fill="#EFCEA5"/>
<path d="M49.9955 49.4631C49.7818 49.4631 49.7818 49.7918 49.9955 49.7918C50.2084 49.7918 50.2084 49.4631 49.9955 49.4631Z" fill="#EFCEA5"/>
<path d="M49.5459 50.3717C49.3073 50.3717 49.3073 50.7394 49.5459 50.7394C49.7841 50.7394 49.7841 50.3717 49.5459 50.3717Z" fill="#EFCEA5"/>
<path d="M60.9022 44.9138C60.5381 44.9138 60.5381 45.4743 60.9022 45.4743C61.2652 45.4745 61.2652 44.9138 60.9022 44.9138Z" fill="#EFCEA5"/>
<path d="M60.6398 46.2681C60.6307 46.2258 60.6101 46.1974 60.5834 46.1644C60.5232 46.092 60.3823 46.092 60.3218 46.1644C60.2948 46.1974 60.2752 46.2258 60.2656 46.2681C60.2401 46.3903 60.3206 46.5126 60.4528 46.5126C60.5845 46.5126 60.6656 46.3903 60.6398 46.2681Z" fill="#EFCEA5"/>
<path d="M61.1092 46.6359C60.8838 46.6359 60.8838 46.9838 61.1092 46.9838C61.3352 46.984 61.3352 46.6359 61.1092 46.6359Z" fill="#EFCEA5"/>
<path d="M61.7318 45.6495C61.4745 45.6495 61.4745 46.0457 61.7318 46.0457C61.9888 46.0459 61.9888 45.6495 61.7318 45.6495Z" fill="#EFCEA5"/>
<path d="M62.3538 46.719C62.1472 46.719 62.1472 47.0383 62.3538 47.0383C62.561 47.0384 62.561 46.719 62.3538 46.719Z" fill="#EFCEA5"/>
<path d="M61.801 48.7938C61.7874 48.7938 61.7874 48.8143 61.801 48.8143C61.8145 48.8143 61.8145 48.7938 61.801 48.7938Z" fill="#EFCEA5"/>
<path d="M61.4206 48.4819C61.2701 48.4819 61.2701 48.714 61.4206 48.714C61.5711 48.714 61.5711 48.4819 61.4206 48.4819Z" fill="#EFCEA5"/>
<path d="M60.5567 47.9999C60.4495 47.9999 60.4495 48.164 60.5567 48.164C60.6627 48.164 60.6627 47.9999 60.5567 47.9999Z" fill="#EFCEA5"/>
<path d="M59.3818 46.3516C59.1177 46.3516 59.1177 46.7588 59.3818 46.7588C59.646 46.7586 59.646 46.3516 59.3818 46.3516Z" fill="#EFCEA5"/>
<path d="M58.7238 45.1425C58.524 45.1425 58.524 45.452 58.7238 45.452C58.925 45.4522 58.925 45.1425 58.7238 45.1425Z" fill="#EFCEA5"/>
<path d="M61.6484 44.5456C61.6425 44.5443 61.6376 44.5432 61.6318 44.5421C61.6125 44.5353 61.591 44.5314 61.5639 44.537C61.561 44.5377 61.5576 44.5383 61.5548 44.5387C61.4933 44.5505 61.4726 44.5974 61.4777 44.6443C61.4726 44.691 61.4933 44.7379 61.5548 44.7497C61.5576 44.7503 61.561 44.7507 61.5639 44.7518C61.591 44.7567 61.6125 44.7533 61.6318 44.7463C61.6376 44.7452 61.6425 44.7441 61.6484 44.743C61.747 44.7242 61.747 44.5642 61.6484 44.5456Z" fill="#EFCEA5"/>
<path d="M62.9415 48.6549C62.7039 48.6549 62.7039 49.0222 62.9415 49.0222C63.1801 49.0222 63.1801 48.6549 62.9415 48.6549Z" fill="#EFCEA5"/>
<path d="M59.2083 49.436C58.9574 49.436 58.9574 49.8226 59.2083 49.8226C59.4584 49.8225 59.4584 49.436 59.2083 49.436Z" fill="#EFCEA5"/>
<path d="M58.2401 48.6842C57.9957 48.6842 57.9957 49.0616 58.2401 49.0616C58.4847 49.0616 58.4847 48.6842 58.2401 48.6842Z" fill="#EFCEA5"/>
<path d="M59.347 48.6011C59.0835 48.6011 59.0835 49.007 59.347 49.007C59.61 49.007 59.61 48.6011 59.347 48.6011Z" fill="#EFCEA5"/>
<path d="M58.8622 47.7958C58.5806 47.7958 58.5806 48.2308 58.8622 48.2308C59.1447 48.2308 59.1447 47.7958 58.8622 47.7958Z" fill="#EFCEA5"/>
<path d="M58.1023 47.6907C57.9955 47.6907 57.9955 47.8552 58.1023 47.8552C58.2085 47.8552 58.2085 47.6907 58.1023 47.6907Z" fill="#EFCEA5"/>
<path d="M57.4796 47.2301C57.2664 47.2301 57.2664 47.5589 57.4796 47.5589C57.6929 47.5589 57.6929 47.2301 57.4796 47.2301Z" fill="#EFCEA5"/>
<path d="M57.0302 48.1394C56.7923 48.1394 56.7923 48.5067 57.0302 48.5067C57.2688 48.5067 57.2688 48.1394 57.0302 48.1394Z" fill="#EFCEA5"/>
<path d="M59.7908 49.7181C59.4273 49.7181 59.4273 50.2792 59.7908 50.2792C60.1544 50.2792 60.1544 49.7181 59.7908 49.7181Z" fill="#EFCEA5"/>
<path d="M59.5284 51.0731C59.5197 51.0303 59.4995 51.0018 59.4718 50.9694C59.412 50.8966 59.2708 50.8966 59.2113 50.9694C59.1834 51.0018 59.1638 51.0303 59.1546 51.0731C59.1287 51.1945 59.2096 51.3168 59.3415 51.3168C59.4731 51.3168 59.5537 51.1947 59.5284 51.0731Z" fill="#EFCEA5"/>
<path d="M59.9981 51.4409C59.7723 51.4409 59.7723 51.7889 59.9981 51.7889C60.224 51.7891 60.224 51.4409 59.9981 51.4409Z" fill="#EFCEA5"/>
<path d="M60.6204 50.4542C60.3635 50.4542 60.3635 50.8506 60.6204 50.8506C60.8773 50.8506 60.8773 50.4542 60.6204 50.4542Z" fill="#EFCEA5"/>
<path d="M61.9247 50.3041C61.7176 50.3041 61.7176 50.6233 61.9247 50.6233C62.1315 50.6233 62.1315 50.3041 61.9247 50.3041Z" fill="#EFCEA5"/>
<path d="M60.6896 53.5985C60.6764 53.5985 60.6764 53.6195 60.6896 53.6195C60.703 53.6197 60.703 53.5985 60.6896 53.5985Z" fill="#EFCEA5"/>
<path d="M57.8315 51.9006C57.681 51.9006 57.681 52.1323 57.8315 52.1323C57.9818 52.1325 57.9818 51.9006 57.8315 51.9006Z" fill="#EFCEA5"/>
<path d="M56.911 51.0737C56.8041 51.0737 56.8041 51.2382 56.911 51.2382C57.0172 51.2382 57.0172 51.0737 56.911 51.0737Z" fill="#EFCEA5"/>
<path d="M58.2707 51.1562C58.0066 51.1562 58.0066 51.5635 58.2707 51.5635C58.5351 51.5635 58.5351 51.1562 58.2707 51.1562Z" fill="#EFCEA5"/>
<path d="M57.6124 49.9471C57.4123 49.9471 57.4123 50.2567 57.6124 50.2567C57.8132 50.2567 57.8132 49.9471 57.6124 49.9471Z" fill="#EFCEA5"/>
<path d="M60.5376 49.3501C60.5314 49.3491 60.5263 49.3482 60.5212 49.3473C60.5016 49.3398 60.4797 49.336 60.4527 49.3418C60.4497 49.3422 60.4463 49.3428 60.4435 49.3433C60.3824 49.3553 60.3616 49.4022 60.3665 49.4489C60.3616 49.496 60.3826 49.5429 60.4435 49.5547C60.4465 49.5553 60.4497 49.5557 60.4527 49.5562C60.4797 49.5617 60.5016 49.5583 60.5212 49.5512C60.5265 49.5502 60.5314 49.5487 60.5376 49.5478C60.6359 49.5289 60.6359 49.369 60.5376 49.3501Z" fill="#EFCEA5"/>
<path d="M56.9908 52.495C56.8841 52.495 56.8841 52.6593 56.9908 52.6593C57.0972 52.6591 57.0972 52.495 56.9908 52.495Z" fill="#EFCEA5"/>
<path d="M56.369 52.0352C56.1551 52.0352 56.1551 52.3636 56.369 52.3636C56.582 52.3636 56.582 52.0352 56.369 52.0352Z" fill="#EFCEA5"/>
<path d="M66.8434 43.9816C66.8847 43.9668 66.9101 43.9434 66.939 43.9119C67.0026 43.8426 66.983 43.7036 66.903 43.6547C66.866 43.6322 66.8351 43.6164 66.7921 43.6134C66.6666 43.6052 66.5559 43.7016 66.5744 43.8314C66.5925 43.9608 66.7257 44.0238 66.8434 43.9816Z" fill="#EFCEA5"/>
<path d="M66.5426 44.4949C66.5115 44.2726 66.1644 44.3208 66.1957 44.5429C66.227 44.7654 66.5735 44.7172 66.5426 44.4949Z" fill="#EFCEA5"/>
<path d="M66.6321 45.7325C66.6036 45.5288 66.2858 45.5731 66.3144 45.777C66.3433 45.9807 66.6606 45.9366 66.6321 45.7325Z" fill="#EFCEA5"/>
<path d="M64.4899 45.4758C64.4873 45.4625 64.4671 45.4655 64.469 45.4781C64.4707 45.4916 64.4916 45.4886 64.4899 45.4758Z" fill="#EFCEA5"/>
<path d="M64.7476 45.0572C64.7269 44.9096 64.4957 44.9415 64.5166 45.0895C64.5372 45.2378 64.7688 45.206 64.7476 45.0572Z" fill="#EFCEA5"/>
<path d="M65.1076 44.1396C65.0929 44.0343 64.929 44.0572 64.9435 44.1625C64.9592 44.2673 65.1225 44.2444 65.1076 44.1396Z" fill="#EFCEA5"/>
<path d="M66.5866 42.7537C66.55 42.4935 66.1445 42.5498 66.1813 42.8102C66.2175 43.0704 66.6238 43.0141 66.5866 42.7537Z" fill="#EFCEA5"/>
<path d="M66.5796 41.385C66.5796 41.3795 66.5803 41.3739 66.5803 41.3679C66.5847 41.3484 66.5854 41.3265 66.5762 41.3004C66.5752 41.2974 66.5743 41.2949 66.5728 41.2918C66.5534 41.233 66.5034 41.2188 66.4575 41.2304C66.4102 41.2319 66.3664 41.2589 66.3632 41.3208C66.3627 41.324 66.3627 41.3276 66.3627 41.3306C66.361 41.3582 66.3681 41.3788 66.3774 41.3966C66.3795 41.4021 66.381 41.4077 66.383 41.4126C66.4155 41.5065 66.5743 41.4848 66.5796 41.385Z" fill="#EFCEA5"/>
<path d="M64.7863 46.5796C64.7529 46.3451 64.3872 46.3956 64.4202 46.6305C64.453 46.8655 64.8191 46.8141 64.7863 46.5796Z" fill="#EFCEA5"/>
<path d="M63.4904 43.0108C63.4559 42.7638 63.0708 42.8172 63.1055 43.0641C63.14 43.3108 63.5255 43.2577 63.4904 43.0108Z" fill="#EFCEA5"/>
<path d="M64.1048 41.953C64.0712 41.7122 63.6955 41.7645 63.729 42.005C63.7634 42.2458 64.1393 42.1937 64.1048 41.953Z" fill="#EFCEA5"/>
<path d="M64.341 43.0306C64.305 42.7717 63.9004 42.8276 63.9366 43.087C63.9734 43.3463 64.3782 43.29 64.341 43.0306Z" fill="#EFCEA5"/>
<path d="M65.0764 42.4426C65.0368 42.165 64.6039 42.2252 64.643 42.5028C64.6818 42.7807 65.1153 42.7202 65.0764 42.4426Z" fill="#EFCEA5"/>
<path d="M65.0759 41.679C65.0606 41.5738 64.8974 41.5966 64.9123 41.7021C64.9269 41.8069 65.0904 41.784 65.0759 41.679Z" fill="#EFCEA5"/>
<path d="M64.0809 44.4963C64.0514 44.2862 63.7242 44.3322 63.7534 44.5421C63.7834 44.7518 64.1107 44.7064 64.0809 44.4963Z" fill="#EFCEA5"/>
<path d="M62.5368 42.1365C62.5036 41.9021 62.1387 41.9527 62.1711 42.1876C62.2047 42.4219 62.57 42.3714 62.5368 42.1365Z" fill="#EFCEA5"/>
<path d="M45.5846 48.9304C45.2213 48.9304 45.2213 49.4911 45.5846 49.4911C45.9484 49.4911 45.9484 48.9304 45.5846 48.9304Z" fill="#EFCEA5"/>
<path d="M45.3223 50.2855C45.3133 50.2425 45.2933 50.214 45.2657 50.1808C45.2057 50.1092 45.0648 50.1092 45.0047 50.1808C44.9773 50.214 44.9577 50.2423 44.9487 50.2855C44.9228 50.4069 45.0034 50.5295 45.1356 50.5295C45.267 50.5295 45.3481 50.407 45.3223 50.2855Z" fill="#EFCEA5"/>
<path d="M45.7922 50.6525C45.5667 50.6525 45.5667 51.001 45.7922 51.001C46.0172 51.0012 46.0172 50.6525 45.7922 50.6525Z" fill="#EFCEA5"/>
<path d="M46.4143 49.6658C46.1575 49.6658 46.1575 50.0623 46.4143 50.0623C46.6712 50.0625 46.6712 49.6658 46.4143 49.6658Z" fill="#EFCEA5"/>
<path d="M47.0367 50.7363C46.8297 50.7363 46.8297 51.0556 47.0367 51.0556C47.2436 51.0556 47.2436 50.7363 47.0367 50.7363Z" fill="#EFCEA5"/>
<path d="M46.4837 52.8104C46.4705 52.8104 46.4705 52.8312 46.4837 52.8312C46.497 52.8314 46.497 52.8104 46.4837 52.8104Z" fill="#EFCEA5"/>
<path d="M46.4049 51.9006C46.2545 51.9006 46.2545 52.1323 46.4049 52.1323C46.5556 52.1325 46.5556 51.9006 46.4049 51.9006Z" fill="#EFCEA5"/>
<path d="M45.2389 52.0168C45.1323 52.0168 45.1323 52.1808 45.2389 52.1808C45.3456 52.1808 45.3456 52.0168 45.2389 52.0168Z" fill="#EFCEA5"/>
<path d="M44.0634 50.3682C43.7995 50.3682 43.7995 50.7754 44.0634 50.7754C44.3284 50.7752 44.3284 50.3682 44.0634 50.3682Z" fill="#EFCEA5"/>
<path d="M43.4065 49.1591C43.2061 49.1591 43.2061 49.4686 43.4065 49.4686C43.6073 49.4688 43.6073 49.1591 43.4065 49.1591Z" fill="#EFCEA5"/>
<path d="M46.3314 48.5624C46.3256 48.5611 46.3203 48.5599 46.3144 48.5592C46.2956 48.5517 46.2739 48.5483 46.2465 48.5532C46.2437 48.5545 46.2403 48.5549 46.2373 48.5551C46.1762 48.5673 46.1551 48.614 46.1602 48.6609C46.1551 48.7078 46.1762 48.7545 46.2373 48.7667C46.2405 48.767 46.2439 48.7674 46.2465 48.7682C46.2739 48.7736 46.2958 48.7697 46.3144 48.7627C46.3203 48.7618 46.3256 48.7608 46.3314 48.7593C46.4297 48.7406 46.4297 48.5811 46.3314 48.5624Z" fill="#EFCEA5"/>
<path d="M47.8032 51.8329C47.565 51.8329 47.565 52.2004 47.8032 52.2004C48.0412 52.2004 48.0412 51.8329 47.8032 51.8329Z" fill="#EFCEA5"/>
<path d="M58.9633 33.5671C58.4776 33.617 58.2281 34.2458 58.703 34.5228C58.9767 34.6825 59.3379 34.8205 59.6391 34.9228C59.9513 35.0286 60.1246 35.197 60.4707 35.1306C60.5527 35.1147 60.6414 35.0291 60.6555 34.9464C60.7893 34.1833 59.6482 33.4968 58.9633 33.5671Z" fill="#A395C8"/>
<path d="M43.2889 37.6189C42.986 37.4915 42.7785 37.2809 42.4481 37.1867C42.151 37.1019 41.8781 36.9573 41.5822 36.8742C41.0838 36.7333 40.7598 37.3497 41.0938 37.7086C41.3439 37.9763 41.6925 38.1194 42.0265 38.2546C42.1799 38.3171 42.3523 38.4064 42.5228 38.4011C42.7189 38.3944 42.887 38.3586 43.0828 38.3745C43.4732 38.4064 43.662 37.7759 43.2889 37.6189Z" fill="#A395C8"/>
<path d="M50.101 31.2561C49.5146 30.932 48.7751 31.46 48.2424 31.717C47.6513 32.0023 48.0708 32.9997 48.6906 32.7753C48.9537 32.6801 49.2149 32.5814 49.4805 32.4934C49.8023 32.3872 50.1205 32.3156 50.2968 31.9995C50.439 31.7448 50.3653 31.402 50.101 31.2561Z" fill="#A395C8"/>
<path d="M56.6308 37.2259C56.052 37.3092 55.5067 37.587 54.9439 37.7542C54.3267 37.9371 54.4157 38.9911 55.1021 38.9121C55.683 38.8455 56.2564 38.7866 56.834 38.7206C57.9383 38.5953 57.7321 37.0678 56.6308 37.2259Z" fill="#A395C8"/>
<path d="M45.2942 34.802C45.2476 34.5742 45.2466 34.3309 45.1635 34.1137C44.989 33.6592 44.3275 33.6005 44.1766 34.1137C44.1034 34.3617 44.1308 34.6014 44.1606 34.8537C44.1981 35.1642 44.2536 35.4428 44.4799 35.6755C44.7481 35.9519 45.1599 35.7881 45.2812 35.4651C45.3621 35.2495 45.3387 35.0233 45.2942 34.802Z" fill="#FFC820"/>
<path d="M58.3253 35.1044C58.0292 35.2051 57.8598 35.4597 57.602 35.6099C57.4894 35.6756 57.3549 35.6917 57.2368 35.7521C57.0659 35.8403 56.9724 36.0669 57.0212 36.2492C57.2443 37.0795 58.6803 36.3644 58.9324 35.8887C59.1376 35.5013 58.7976 34.9433 58.3253 35.1044Z" fill="#FFC820"/>
<path d="M54.2011 32.2673C53.8408 32.1651 53.484 32.1968 53.1164 32.2322C52.9142 32.2519 52.7165 32.2971 52.6054 32.4864C52.5554 32.571 52.5185 32.6819 52.5679 32.7734C52.7137 33.0401 52.9078 33.0925 53.2126 33.1075C53.5015 33.1214 53.7875 33.1617 54.0753 33.1938C54.6219 33.2555 54.6998 32.4089 54.2011 32.2673Z" fill="#FFC820"/>
<path d="M49.1775 38.4513C48.9692 38.2941 48.672 38.2033 48.4357 38.0887C48.161 37.9548 47.8711 37.7201 47.5524 37.8156C47.3434 37.8782 47.25 38.0722 47.2891 38.2772C47.3434 38.565 47.6823 38.7571 47.8989 38.9298C48.1763 39.1519 48.553 39.4063 48.9261 39.371C49.44 39.3224 49.5753 38.752 49.1775 38.4513Z" fill="#FFC820"/>
<path d="M43.2262 34.9952C43.1728 34.8712 43.0765 34.7875 42.9569 34.7284C42.9201 34.7095 42.8848 34.689 42.8498 34.6669C42.7952 34.6279 42.7826 34.6194 42.8103 34.6418C42.6536 34.517 42.4175 34.3746 42.2115 34.3868C42.024 34.3977 41.8499 34.5076 41.8014 34.6973C41.6649 35.2291 42.3975 35.9202 42.9246 35.7324C43.2575 35.6142 43.3607 35.3064 43.2262 34.9952Z" fill="#D7DF23"/>
<path d="M45.7366 38.9771C45.6118 38.8101 45.5395 38.6786 45.3223 38.6336C45.2638 38.6212 45.2147 38.6421 45.1806 38.6908C44.9714 38.9947 45.1536 39.567 45.4562 39.7507C45.6665 39.8788 45.9622 39.7147 45.9547 39.4663C45.9481 39.2607 45.8553 39.1363 45.7366 38.9771Z" fill="#D7DF23"/>
<path d="M56.9408 32.0864C56.7446 32.2025 56.5775 32.4132 56.4523 32.6004C56.3536 32.748 56.3289 32.9204 56.2463 33.0714C56.1746 33.2033 56.2318 33.4064 56.3966 33.4376C56.6226 33.4805 56.8514 33.4743 57.0515 33.3464C57.2682 33.208 57.4895 32.9842 57.6202 32.7617C57.8699 32.3355 57.3708 31.8322 56.9408 32.0864Z" fill="#D7DF23"/>
<path d="M52.1108 31.4659C51.8213 31.1777 51.303 31.234 51.0998 31.5955C51.074 31.6411 51.047 31.6846 51.0182 31.7283C51.0278 31.7073 50.9429 31.812 50.9399 31.8148C50.7834 31.9727 50.6809 32.0975 50.6766 32.3353C50.673 32.5242 50.7828 32.7073 50.9454 32.8017C51.383 33.0547 51.8351 32.7007 52.1108 32.371C52.3353 32.1033 52.3756 31.7289 52.1108 31.4659Z" fill="#D7DF23"/>
<path d="M53.1613 38.5903C53.1383 38.5815 53.1317 38.5797 53.1224 38.5765C53.0751 38.5547 53.0291 38.5286 52.9832 38.5037C52.9325 38.4763 52.8812 38.4517 52.8312 38.4225C52.8342 38.4242 52.6922 38.3172 52.7586 38.3722C52.627 38.263 52.5366 38.1709 52.3699 38.1056C52.1845 38.0319 51.9355 38.134 51.842 38.3003C51.646 38.6461 51.8591 38.9471 52.0756 39.2124C52.2775 39.46 52.5564 39.6022 52.8522 39.7063C53.1517 39.8115 53.4884 39.5904 53.5683 39.3024C53.6566 38.9818 53.4604 38.6958 53.1613 38.5903Z" fill="#D7DF23"/>
<path d="M46.6583 32.5189C46.4282 32.3917 46.1662 32.3247 45.9231 32.227C45.6045 32.0993 45.2297 32.2683 45.1947 32.6219C45.1683 32.8993 45.3755 33.0739 45.5813 33.215C45.7824 33.3533 45.9842 33.4812 46.2168 33.5602C46.8379 33.7712 47.2202 32.8292 46.6583 32.5189Z" fill="#E36856"/>
<path d="M45.682 37.081C45.4665 37.0518 45.2177 36.9784 45.0028 37.0375C44.8105 37.0902 44.6309 37.2855 44.6654 37.4903C44.7295 37.8758 45.0988 37.9387 45.421 38.0233C45.6796 38.091 45.954 37.9405 46.0249 37.6819C46.0889 37.4508 45.948 37.1176 45.682 37.081Z" fill="#E36856"/>
<path d="M60.0005 36.3797C59.6931 36.3989 59.3532 36.4133 59.0541 36.4838C58.7587 36.5534 58.4177 36.8901 58.5722 37.2057C58.8191 37.7118 59.5151 37.6904 60.0005 37.632C60.341 37.5911 60.6298 37.3782 60.6298 37.0057C60.6299 36.6802 60.3433 36.3591 60.0005 36.3797Z" fill="#E36856"/>
<path d="M51.8595 40.3638C51.7867 40.2567 51.7139 40.1882 51.6104 40.1117C51.5123 40.0389 51.3373 40.0252 51.2211 39.9819C51.147 39.9536 51.0757 39.9003 51.0068 39.8603C50.8972 39.7969 50.7599 39.7947 50.6375 39.8042C50.5377 39.8119 50.4361 39.8688 50.4129 39.974C50.3374 40.3177 50.5327 40.5118 50.7867 40.7067C51.0549 40.9125 51.4118 41.0706 51.7266 40.8673C51.8873 40.7636 51.975 40.5364 51.8595 40.3638Z" fill="#E36856"/>
<path d="M54.827 31.3562C54.5471 31.2088 54.0586 31.1857 53.8202 31.4256C53.6925 31.5539 53.6881 31.7244 53.7611 31.8797C53.9111 32.1977 54.4132 32.2521 54.7148 32.2106C55.1265 32.1536 55.1593 31.5318 54.827 31.3562Z" fill="#E36856"/>
<path d="M59.3363 33.7396C59.2805 33.7147 59.2266 33.6922 59.1696 33.6723C58.9293 33.5886 58.8263 33.967 59.0647 34.0501C59.0885 34.0596 59.113 34.0686 59.1368 34.0778C59.3669 34.1806 59.5672 33.843 59.3363 33.7396Z" fill="white"/>
<path d="M60.1688 34.1946C60.0939 34.1006 60.016 34.0394 59.8962 34.0154C59.6699 33.9706 59.5616 34.2439 59.7438 34.3739C59.824 34.4315 59.9096 34.4495 60.0028 34.4787C60.182 34.5352 60.267 34.3159 60.1688 34.1946Z" fill="white"/>
<path d="M60.3851 34.5207C60.3352 34.4597 60.2972 34.453 60.2193 34.4449C60.2033 34.4426 60.1982 34.4616 60.2033 34.4734C60.2403 34.5559 60.2505 34.5784 60.3327 34.6101C60.3885 34.6315 60.4151 34.5574 60.3851 34.5207Z" fill="white"/>
<path d="M56.9126 32.2672C56.7924 32.3717 56.6911 32.495 56.6068 32.6297C56.4972 32.8043 56.7189 33.0378 56.8967 32.9178C57.0593 32.809 57.1108 32.6565 57.2221 32.5044C57.3615 32.3149 57.0712 32.1292 56.9126 32.2672Z" fill="white"/>
<path d="M57.791 35.6045C57.6993 35.6098 57.6573 35.6293 57.5884 35.6902C57.4745 35.7921 57.5962 35.9592 57.7291 35.9305C57.821 35.9103 57.8612 35.8829 57.9028 35.7983C57.943 35.7171 57.8961 35.5979 57.791 35.6045Z" fill="white"/>
<path d="M58.706 35.278C58.5911 35.0827 58.3391 35.1547 58.2771 35.3372C58.2067 35.328 58.1301 35.3566 58.0837 35.4216C58.0613 35.4515 58.0413 35.4828 58.0245 35.5164C57.8838 35.5623 57.9949 35.7679 58.1145 35.6713C58.1409 35.6803 58.1671 35.6914 58.1954 35.6936C58.2778 35.7055 58.3553 35.67 58.3972 35.6092C58.599 35.7143 58.8214 35.4732 58.706 35.278Z" fill="white"/>
<path d="M59.2726 36.6334C58.9653 36.6334 58.9653 37.1063 59.2726 37.1063C59.5794 37.1061 59.5794 36.6334 59.2726 36.6334Z" fill="white"/>
<path d="M60.2192 36.7029C60.1192 36.6926 60.0257 36.6697 59.9252 36.6787C59.7511 36.6937 59.7199 36.9166 59.8842 36.9768C59.9944 37.0167 60.1032 37.0126 60.219 37.0055C60.4178 36.9931 60.4123 36.7226 60.2192 36.7029Z" fill="white"/>
<path d="M54.2183 31.4393C54.1144 31.4393 54.1144 31.5997 54.2183 31.5997C54.3223 31.5997 54.3223 31.4393 54.2183 31.4393Z" fill="white"/>
<path d="M54.5688 31.3617C54.2692 31.3617 54.2692 31.8233 54.5688 31.8233C54.8677 31.8233 54.8677 31.3617 54.5688 31.3617Z" fill="white"/>
<path d="M53.7733 32.3294C53.752 32.3299 53.7306 32.3301 53.7095 32.3314C53.6584 32.3327 53.6186 32.347 53.5837 32.3663C53.546 32.3506 53.5017 32.3434 53.4451 32.3624C53.426 32.3686 53.4074 32.3749 53.3881 32.3811C53.2436 32.429 53.1829 32.6526 53.3421 32.7291C53.3596 32.7374 53.3768 32.7456 53.3936 32.7539C53.4605 32.7858 53.512 32.7861 53.5567 32.7754C53.5807 32.797 53.6088 32.8154 53.6416 32.8291C53.6618 32.8372 53.6814 32.8452 53.702 32.8537C54.0519 32.9975 54.1895 32.3179 53.7733 32.3294Z" fill="white"/>
<path d="M55.6477 37.9188C55.5994 37.7443 55.2914 37.7803 55.3242 37.9645C55.3657 38.1986 55.7094 38.1433 55.6477 37.9188Z" fill="white"/>
<path d="M56.606 37.4003C56.4751 37.4003 56.3848 37.4601 56.3288 37.5426C56.2782 37.4903 56.2077 37.4539 56.1134 37.4539C55.7088 37.4539 55.7088 38.0776 56.1134 38.0776C56.2116 38.0776 56.2856 38.0399 56.3361 37.9835C56.3936 38.0589 56.4817 38.1125 56.606 38.1125C57.0681 38.1125 57.0681 37.4003 56.606 37.4003Z" fill="white"/>
<path d="M53.0384 38.7627C52.9621 38.7136 52.9185 38.6637 52.8781 38.5869C52.8406 38.517 52.794 38.4978 52.7506 38.507C52.7404 38.4327 52.6923 38.366 52.5948 38.366C52.3766 38.366 52.3766 38.7025 52.5948 38.7025C52.6041 38.7025 52.6103 38.6987 52.6186 38.6972C52.6203 38.7561 52.6546 38.8047 52.754 38.8015C52.8478 38.7978 52.9315 38.8 53.0247 38.8124C53.0535 38.8158 53.0584 38.7751 53.0384 38.7627Z" fill="white"/>
<path d="M51.5214 40.3884C51.4728 40.2124 51.2806 40.197 51.167 40.2818C51.1433 40.2552 51.1214 40.2306 51.1004 40.2165C51.1067 40.1689 51.0953 40.1168 51.0525 40.0717L51.0114 40.0288C50.8162 39.8249 50.5331 40.1998 50.7794 40.328C50.797 40.3373 50.8147 40.346 50.8319 40.3554C50.9005 40.391 50.9694 40.3809 51.021 40.3465C51.0414 40.3578 51.0669 40.3668 51.0969 40.3769C51.0854 40.4096 51.0791 40.4456 51.0869 40.4878C51.1404 40.7817 51.6014 40.6774 51.5214 40.3884Z" fill="white"/>
<path d="M48.9339 31.6009C48.8945 31.5836 48.8511 31.5696 48.8015 31.5574C48.5518 31.494 48.3138 31.7211 48.3834 31.974C48.4575 32.2428 48.7572 32.273 48.952 32.1231C48.9862 32.0967 49.0141 32.0719 49.0403 32.0443C49.2815 31.9491 49.1797 31.554 48.9339 31.6009Z" fill="white"/>
<path d="M49.6812 31.5106C49.6201 31.4061 49.4403 31.4188 49.4132 31.5455C49.4039 31.5899 49.3998 31.6259 49.3796 31.6681C49.3728 31.6813 49.3811 31.6957 49.3958 31.6967C49.4358 31.7043 49.4758 31.7139 49.516 31.7252C49.6397 31.7584 49.7468 31.6218 49.6812 31.5106Z" fill="white"/>
<path d="M51.217 31.7532L51.145 31.9324C51.1384 31.9496 51.1378 31.965 51.135 31.9813C51.1153 31.9783 51.0974 31.9742 51.075 31.9742C50.9961 31.9742 50.913 32.0177 50.8752 32.0881C50.8692 32.0993 50.8634 32.1102 50.8573 32.1213C50.8205 32.1888 50.8194 32.2959 50.8869 32.3481C50.8945 32.3544 50.903 32.3608 50.9113 32.3672C50.9926 32.4297 51.0965 32.4638 51.1921 32.4034C51.2794 32.3481 51.3262 32.2772 51.3383 32.2094C51.4079 32.2175 51.4807 32.2042 51.5348 32.1579C51.5861 32.1141 51.6372 32.0703 51.6889 32.0265C52.0058 31.7545 51.4051 31.2867 51.217 31.7532Z" fill="white"/>
<path d="M46.6363 32.7799C46.5767 32.6576 46.4584 32.6101 46.3285 32.6002C46.2934 32.5968 46.2525 32.5882 46.2129 32.5831C46.21 32.5796 46.2085 32.5783 46.2055 32.5741C46.1727 32.5482 46.1389 32.5233 46.105 32.4985C45.8134 32.2877 45.4946 32.82 45.8222 32.9797C45.8828 33.0093 45.9345 33.0234 45.9897 33.0292C45.9971 33.0371 46.0112 33.0472 46.0342 33.0605C46.0672 33.0778 46.1006 33.0928 46.1351 33.1065C46.2909 33.1731 46.4782 33.2113 46.6001 33.0605C46.6704 32.9731 46.6863 32.8829 46.6363 32.7799Z" fill="white"/>
<path d="M44.9621 34.4334C44.8861 34.1368 44.4161 34.3244 44.5728 34.5966C44.6682 34.763 44.6624 34.9376 44.7082 35.1196C44.7739 35.3801 45.1733 35.3213 45.1733 35.0571C45.1731 34.8168 45.02 34.6576 44.9621 34.4334Z" fill="white"/>
<path d="M42.7053 34.7543C42.6094 34.6766 42.541 34.6416 42.4161 34.6322C42.2507 34.62 42.1355 34.8003 42.1749 34.9477C42.2062 35.0661 42.2624 35.1287 42.3667 35.1908C42.6334 35.3486 42.9567 34.9563 42.7053 34.7543Z" fill="white"/>
<path d="M42.572 37.4251C42.5516 37.4156 42.5325 37.4064 42.5124 37.3966C42.2113 37.2494 42.0686 37.7482 42.4084 37.7804C42.4296 37.7827 42.4516 37.7846 42.4728 37.7862C42.6655 37.8046 42.7413 37.5084 42.572 37.4251Z" fill="white"/>
<path d="M42.8698 37.6428C42.8451 37.6428 42.8451 37.6807 42.8698 37.6807C42.8946 37.6807 42.8946 37.6428 42.8698 37.6428Z" fill="white"/>
<path d="M41.8348 37.1559C41.5692 37.1559 41.5692 37.5656 41.8348 37.5656C42.1009 37.5656 42.1009 37.1559 41.8348 37.1559Z" fill="white"/>
<path d="M45.3943 37.3194C45.389 37.3143 45.3835 37.3094 45.3783 37.3042C45.3724 37.2982 45.3664 37.2982 45.3603 37.2967C45.3586 37.2916 45.3624 37.2867 45.3592 37.2817C45.3204 37.2267 45.2994 37.2081 45.24 37.1721C45.094 37.0853 44.9925 37.3443 45.1521 37.3788C45.2268 37.395 45.2506 37.3989 45.3215 37.3736C45.3268 37.3713 45.33 37.3652 45.3349 37.3616C45.3377 37.3646 45.3407 37.3668 45.3436 37.37C45.3766 37.4023 45.4269 37.3522 45.3943 37.3194Z" fill="white"/>
<path d="M45.7751 37.4201C45.7647 37.4049 45.7551 37.3895 45.7453 37.3749C45.5634 37.099 45.194 37.4743 45.4701 37.6484C45.4854 37.658 45.5008 37.6675 45.5161 37.6775C45.6738 37.7771 45.879 37.5781 45.7751 37.4201Z" fill="white"/>
<path d="M45.6432 39.2667C45.6374 39.2667 45.6334 39.2695 45.6276 39.2695C45.6651 39.2068 45.6397 39.1061 45.5435 39.1061C45.4114 39.1061 45.4092 39.2961 45.5297 39.3134C45.4441 39.4036 45.4814 39.5942 45.6434 39.5942C45.8552 39.5942 45.8552 39.2667 45.6432 39.2667Z" fill="white"/>
<path d="M48.8996 38.5684C48.9266 38.3476 48.7214 38.1966 48.508 38.1563C48.3919 37.9621 48.0846 37.8809 47.8947 37.9954C47.826 38.0364 47.7709 38.1276 47.7811 38.2086C47.806 38.4142 47.9737 38.5808 48.1695 38.6196C48.2883 38.8173 48.5744 38.9389 48.7646 38.8035C48.8913 38.8035 48.9341 38.6707 48.8996 38.5684Z" fill="white"/>
</svg>
