<svg width="521" height="384" viewBox="0 0 521 384" fill="none" xmlns="http://www.w3.org/2000/svg">
<path d="M521 -18H-0.000244141V387H521V-18Z" fill="#C2EEF2"/>
<path opacity="0.2" d="M520.999 386.536C518.822 357.033 516.533 332.696 507.077 305.464C497.621 278.232 479.636 253.807 456.219 247.211C420.98 237.285 384.295 269.112 349.247 258.2C330.621 252.401 315.705 235.291 303.538 216.957C291.371 198.622 280.955 178.323 266.785 162.327C252.614 146.331 233.367 134.832 214.481 139.162C193.996 143.858 179.184 165.361 166.782 186.01C154.381 206.659 141.28 229.094 121.555 237.367C104.947 244.332 86.525 239.864 69.4333 244.736C46.1981 251.36 28.0209 274.826 17.7028 301.343C7.38353 327.86 3.72748 357.448 0.194336 386.536" fill="#4EC7DF"/>
<path opacity="0.2" d="M0.194336 386.535C2.3713 365.046 4.66076 347.319 14.1165 327.485C23.5722 307.649 41.5577 289.86 64.9741 285.055C100.215 277.825 136.898 301.007 171.946 293.06C190.572 288.836 205.488 276.373 217.655 263.019C229.822 249.664 240.239 234.879 254.409 223.228C268.58 211.577 287.827 203.201 306.713 206.355C327.197 209.776 342.01 225.438 354.411 240.478C366.813 255.518 379.913 271.859 399.639 277.884C416.247 282.957 434.67 279.703 451.761 283.252C474.997 288.077 493.174 305.168 503.492 324.482C513.81 343.795 517.465 365.347 520.999 386.534" fill="#4EC7DF"/>
<path d="M474.705 200.735H351.689C356.353 192.571 365.435 187.754 374.792 188.691C380.266 189.239 385.666 191.625 391.084 190.668C401.363 188.853 406.504 176.236 416.445 173.053C423.662 170.742 432.783 172.619 437.719 178.371C441.851 183.186 445.098 187.639 452.137 190.447C455.459 191.773 463.441 192.967 466.783 194.244C470.125 195.522 473.003 197.588 474.705 200.735Z" fill="#F2F5E3"/>
<path d="M169.515 110.636H46.4988C51.1641 102.472 60.2449 97.6558 69.6017 98.5922C75.0753 99.1401 80.4761 101.526 85.8935 100.569C96.1731 98.7547 101.313 86.1377 111.255 82.9545C118.472 80.6432 127.593 82.5202 132.528 88.272C136.661 93.0873 139.908 97.5402 146.947 100.348C150.27 101.674 158.251 102.868 161.594 104.145C164.935 105.423 167.813 107.49 169.515 110.636Z" fill="#F2F5E3"/>
<path d="M423.352 138.11H98.1089V386.534H423.352V138.11Z" fill="#F26F5B"/>
<path d="M126.548 163.949C139.378 163.949 149.78 153.548 149.78 140.717H103.317C103.317 153.548 113.718 163.949 126.548 163.949Z" fill="#EA4E3D"/>
<path d="M173.014 163.947C185.844 163.947 196.245 153.545 196.245 140.715H149.781C149.781 153.545 160.183 163.947 173.014 163.947Z" fill="#EA4E3D"/>
<path d="M219.477 163.947C232.308 163.947 242.71 153.545 242.71 140.715H196.246C196.245 153.545 206.647 163.947 219.477 163.947Z" fill="#EA4E3D"/>
<path d="M265.942 163.947C278.773 163.947 289.174 153.545 289.174 140.715H242.711C242.71 153.545 253.112 163.947 265.942 163.947Z" fill="#EA4E3D"/>
<path d="M312.397 163.947C325.227 163.947 335.629 153.545 335.629 140.715H289.166C289.165 153.545 299.566 163.947 312.397 163.947Z" fill="#EA4E3D"/>
<path d="M358.862 163.947C371.692 163.947 382.094 153.545 382.094 140.715H335.631C335.631 153.545 346.031 163.947 358.862 163.947Z" fill="#EA4E3D"/>
<path d="M423.352 140.716V155.373C419.095 160.605 412.602 163.946 405.329 163.946C392.496 163.946 382.096 153.545 382.096 140.715H423.352V140.716Z" fill="#EA4E3D"/>
<path d="M98.1089 138.239L139.57 386.533H98.1089V138.239Z" fill="#EA4E3D"/>
<path d="M372.344 222.849H149.132C135.123 222.849 123.766 211.492 123.766 197.483C123.766 183.475 135.123 172.118 149.132 172.118H372.344C386.353 172.118 397.71 183.475 397.71 197.483C397.71 211.492 386.353 222.849 372.344 222.849Z" fill="#2C90CF"/>
<path d="M372.345 218.292H149.133C137.659 218.292 128.324 208.957 128.324 197.484C128.324 186.01 137.659 176.675 149.133 176.675H372.345C383.819 176.675 393.154 186.01 393.154 197.484C393.154 208.957 383.819 218.292 372.345 218.292ZM149.133 177.977C138.377 177.977 129.626 186.728 129.626 197.484C129.626 208.239 138.377 216.99 149.133 216.99H372.345C383.101 216.99 391.852 208.239 391.852 197.484C391.852 186.728 383.101 177.977 372.345 177.977H149.133Z" fill="#E6E6E6"/>
<path d="M144.59 203.118C147.703 203.118 150.227 200.595 150.227 197.482C150.227 194.369 147.703 191.846 144.59 191.846C141.478 191.846 138.954 194.369 138.954 197.482C138.954 200.595 141.478 203.118 144.59 203.118Z" fill="#F26F5B"/>
<path d="M382.532 197.482C382.532 200.595 380.008 203.118 376.895 203.118C373.783 203.118 371.258 200.594 371.258 197.482C371.258 194.37 373.782 191.846 376.895 191.846C380.009 191.846 382.532 194.368 382.532 197.482Z" fill="#F26F5B"/>
<path d="M145.246 138.111H143.944V197.352H145.246V138.111Z" fill="#1F2A31"/>
<path d="M377.531 138.111H376.229V197.352H377.531V138.111Z" fill="#1F2A31"/>
<path d="M423.361 239.667H317.637V313.101H423.361V239.667Z" fill="#4EC7DF"/>
<path opacity="0.2" d="M374.79 239.668L332.888 313.101H369.031L384.437 239.668H374.79Z" fill="#F2F2F2"/>
<path opacity="0.2" d="M405.253 239.797L379.343 313.101H396.89L412.296 239.797H405.253Z" fill="#F2F2F2"/>
<path d="M429.222 251.907V239.668L317.51 239.668V251.907L429.222 251.907Z" fill="#FFD255"/>
<path d="M429.213 245.138H317.5V246.44H429.213V245.138Z" fill="#F26F5B"/>
<path d="M203.836 239.667H98.1125V313.101H203.836V239.667Z" fill="#4EC7DF"/>
<path opacity="0.2" d="M140.017 239.668L98.1158 313.101H134.258L149.665 239.668H140.017Z" fill="#F2F2F2"/>
<path opacity="0.2" d="M170.48 239.797L144.57 313.101H162.117L177.525 239.797H170.48Z" fill="#F2F2F2"/>
<path d="M203.717 251.907V239.668L92.0039 239.668V251.907L203.717 251.907Z" fill="#FFD255"/>
<path d="M203.71 245.266H91.9976V246.568H203.71V245.266Z" fill="#F26F5B"/>
<path d="M144.58 138.111C144.58 150.942 134.178 161.343 121.348 161.343C108.517 161.343 98.1155 150.942 98.1155 138.111" fill="#FFD255"/>
<path d="M191.045 138.111C191.045 150.942 180.643 161.343 167.813 161.343C154.982 161.343 144.58 150.942 144.58 138.111" fill="#FDFFEE"/>
<path d="M237.51 138.111C237.51 150.942 227.108 161.343 214.277 161.343C201.447 161.343 191.045 150.942 191.045 138.111" fill="#FFD255"/>
<path d="M283.964 138.111C283.964 150.942 273.563 161.343 260.732 161.343C247.902 161.343 237.5 150.942 237.5 138.111" fill="#FDFFEE"/>
<path d="M330.429 138.111C330.429 150.942 320.027 161.343 307.197 161.343C294.366 161.343 283.965 150.942 283.965 138.111" fill="#FFD255"/>
<path d="M376.894 138.111C376.894 150.942 366.492 161.343 353.662 161.343C340.831 161.343 330.43 150.942 330.43 138.111" fill="#FDFFEE"/>
<path d="M423.358 138.111C423.358 150.942 412.956 161.343 400.126 161.343C387.295 161.343 376.895 150.942 376.895 138.111" fill="#FFD255"/>
<path d="M283.97 138.111H237.507L242.771 98.2695H278.707L283.97 138.111Z" fill="#F2F5E3"/>
<path d="M376.896 138.112H423.359L379.091 98.2705H345.759L376.896 138.112Z" fill="#F2C32E"/>
<path d="M330.427 138.112H376.89L345.753 98.2705H312.422L330.427 138.112Z" fill="#F2F5E3"/>
<path d="M283.965 138.112H330.429L312.424 98.2705H278.702L283.965 138.112Z" fill="#F2C32E"/>
<path d="M144.579 138.112H98.1155L142.384 98.2705H175.715L144.579 138.112Z" fill="#F2C32E"/>
<path d="M191.044 138.112H144.58L175.717 98.2705H209.049L191.044 138.112Z" fill="#F2F5E3"/>
<path d="M237.508 138.112H191.045L209.051 98.2705H242.773L237.508 138.112Z" fill="#F2C32E"/>
<path d="M299.136 239.796L317.494 386.533H299.136V239.796Z" fill="#EA4E3D"/>
<path d="M299.01 239.667H222.452V386.534H299.01V239.667Z" fill="#FFD255"/>
<path d="M290.741 249.562H230.714V308.571H290.741V249.562Z" fill="#F2F5E3"/>
<path d="M290.741 317.761H230.714V376.769H290.741V317.761Z" fill="#F2F5E3"/>
<path d="M254.348 302.061H230.714V308.571H254.348V302.061Z" fill="#1F2A31"/>
<path d="M290.734 278.413H230.707V279.715H290.734V278.413Z" fill="#FFD255"/>
<path d="M290.734 346.638H230.707V347.94H290.734V346.638Z" fill="#FFD255"/>
<path d="M282.734 278.986H281.432C281.432 267.571 272.145 258.284 260.73 258.284C249.315 258.284 240.028 267.571 240.028 278.986H238.726C238.726 266.854 248.597 256.982 260.73 256.982C272.863 256.982 282.734 266.854 282.734 278.986Z" fill="#FFD255"/>
<path d="M260.73 369.294C248.597 369.294 238.726 359.423 238.726 347.29H240.028C240.028 358.705 249.315 367.992 260.73 367.992C272.145 367.992 281.432 358.705 281.432 347.29H282.734C282.734 359.424 272.863 369.294 260.73 369.294Z" fill="#FFD255"/>
<path d="M429.217 345.651V333.412H317.504V345.651H429.217Z" fill="#2C90CF"/>
<path d="M354.603 292.269H342.364V386.534H354.603V292.269Z" fill="#2C90CF"/>
<path d="M329.735 292.269H317.496V386.534H329.735V292.269Z" fill="#2C90CF"/>
<path d="M404.34 292.269H392.101V386.534H404.34V292.269Z" fill="#2C90CF"/>
<path d="M429.208 292.269H416.969V386.534H429.208V292.269Z" fill="#2C90CF"/>
<path d="M379.471 292.269H367.232V386.534H379.471V292.269Z" fill="#2C90CF"/>
<path d="M166.799 386.533H91.9902L115.781 276.492H190.589L166.799 386.533Z" fill="#1F2A31"/>
<path d="M169.539 386.532H104.561C99.9915 380.819 95.9469 374.562 93.7262 367.594C91.5055 360.626 91.2243 352.858 94.021 346.1C96.0365 341.231 99.7936 336.995 104.448 334.622C106.249 333.7 108.189 333.056 110.213 332.768C118.15 331.63 126.134 335.96 131.206 342.173C136.277 348.383 138.76 356.082 140.649 363.875C142.487 359.462 144.836 355.171 148.271 351.843C151.703 348.517 156.341 346.228 161.119 346.387C169.402 346.661 176.082 354.478 177.1 362.704C178.116 370.929 174.549 379.932 169.539 386.532Z" fill="#FFD255"/>
<path d="M119.397 386.534H104.561C99.9915 380.821 95.9469 374.564 93.7262 367.595C91.5055 360.627 91.2243 352.86 94.021 346.102C96.0365 341.232 99.7936 336.996 104.448 334.623C100.382 344.046 100.911 355.333 104.713 364.988C107.925 373.144 113.204 380.271 119.397 386.534Z" fill="#F2C32E"/>
<path d="M117.78 387.13C113.459 385.229 109.196 381.289 106.083 376.32C103.178 371.685 101.402 365.955 101.079 360.186L101.911 359.524C106.161 360.768 110.241 364.506 113.103 369.78C115.328 373.879 116.944 379.398 118.146 384.211C122.102 371.882 122.199 358.032 118.362 345.858L119.604 345.467C123.745 358.605 123.398 373.653 118.654 386.755L117.78 387.13ZM102.446 361.081C102.891 366.303 104.559 371.436 107.186 375.63C109.868 379.91 113.42 383.382 117.085 385.345C115.883 380.428 114.242 374.61 111.959 370.402C109.468 365.812 106.042 362.469 102.446 361.081Z" fill="#1F2A31"/>
<path d="M115.887 351.021C118.294 352.4 121.614 351.921 123.535 349.919C125.456 347.917 125.796 344.582 124.32 342.233C122.844 339.885 119.69 338.746 117.054 339.609C111.936 341.285 111.236 348.359 115.887 351.021Z" fill="#F2F5E3"/>
<path d="M377.144 370.033C375.21 376.106 371.686 381.559 367.704 386.534H311.09C306.723 380.783 303.617 372.939 304.504 365.773C305.39 358.604 311.21 351.795 318.428 351.555C322.591 351.416 326.63 353.412 329.622 356.31C332.611 359.211 334.661 362.947 336.262 366.794C337.906 360.006 340.069 353.298 344.489 347.886C347.796 343.835 352.527 340.702 357.594 339.798C359.297 339.493 361.039 339.442 362.779 339.691C369.088 340.594 374.45 345.417 376.888 351.307C379.323 357.194 379.078 363.961 377.144 370.033Z" fill="#FFD255"/>
<path d="M377.148 370.032C375.213 376.104 371.69 381.557 367.707 386.533H363.987C366.992 379.111 368.839 371.221 369.419 363.235C369.697 359.387 369.682 355.465 368.721 351.725C367.757 347.986 365.778 344.417 362.697 342.087C361.206 340.957 359.435 340.161 357.599 339.796C359.302 339.491 361.043 339.44 362.784 339.689C369.093 340.592 374.455 345.414 376.892 351.305C379.327 357.193 379.082 363.959 377.148 370.032Z" fill="#F2C32E"/>
<path d="M421.621 386.535H360.601C360.601 386.535 375.045 357.486 392.157 355.044C401.835 353.665 412.369 360.8 421.621 386.535Z" fill="#F2F5E3"/>
<path d="M371.706 386.706C369.924 380.183 367.449 375.439 363.429 370.843C358.946 365.718 352.691 362.828 346.692 363.119C341.057 363.39 335.442 366.528 331.674 371.512C328.441 375.787 326.762 380.673 325.234 386.696L323.972 386.376C325.539 380.2 327.271 375.176 330.635 370.728C334.634 365.439 340.613 362.109 346.629 361.82C353.02 361.514 359.668 364.566 364.41 369.988C368.567 374.743 371.125 379.641 372.962 386.365L371.706 386.706Z" fill="#1F2A31"/>
<path d="M421.623 386.535H409.761C408.123 380.556 406.282 374.627 403.485 369.109C400.743 363.698 396.983 358.654 392.157 355.044C401.837 353.665 412.371 360.8 421.623 386.535Z" fill="#FDFFEE"/>
<path d="M393.126 386.904C387.729 379.043 385.12 368.871 386.146 359.695L387.439 359.84C386.52 368.07 388.625 377.13 393.102 384.472C393.812 371.029 396.863 357.608 401.967 345.53L403.166 346.036C397.865 358.582 394.804 372.593 394.313 386.559L393.126 386.904Z" fill="#1F2A31"/>
<path d="M399.464 350.5C401.871 351.878 405.191 351.4 407.111 349.398C409.031 347.396 409.372 344.061 407.896 341.712C406.42 339.363 403.266 338.225 400.63 339.087C395.513 340.763 394.813 347.838 399.464 350.5Z" fill="#FFD255"/>
<path d="M139.569 386.534H214.377L190.587 276.493H115.778L139.569 386.534Z" fill="#2C90CF"/>
<path d="M200.392 371.155C198.08 371.645 196.337 373.671 196.278 376.116H153.046C152.978 373.299 150.674 371.039 147.841 371.039C147.518 371.039 147.2 371.067 146.893 371.127L129.782 291.993C132.076 291.449 133.78 289.389 133.78 286.929V286.908H177.266V286.929C177.266 289.807 179.597 292.137 182.474 292.137C182.754 292.137 183.03 292.116 183.295 292.071L200.392 371.155Z" fill="#F2F5E3"/>
<path d="M166.522 324.698L160.026 319.346C159.467 318.883 159.015 318.487 158.669 318.158C158.323 317.829 158.058 317.526 157.873 317.248C157.696 316.96 157.568 316.652 157.487 316.323C157.35 315.767 157.37 315.289 157.546 314.888C157.72 314.477 158.019 314.163 158.442 313.947C158.874 313.721 159.391 313.608 159.995 313.608C160.535 313.608 161.066 313.7 161.588 313.886C162.108 314.06 162.567 314.333 162.965 314.703C163.363 315.073 163.633 315.546 163.775 316.122C163.897 316.616 163.886 317.068 163.744 317.479C163.61 317.88 163.378 318.251 163.048 318.59C162.73 318.929 162.353 319.248 161.918 319.546C161.6 319.762 161.319 319.973 161.073 320.179C160.835 320.374 160.658 320.58 160.542 320.795C160.436 321.011 160.415 321.248 160.478 321.505C160.531 321.721 160.649 321.942 160.832 322.168C161.023 322.384 161.263 322.564 161.553 322.708C161.853 322.852 162.183 322.924 162.543 322.924C162.946 322.924 163.324 322.826 163.678 322.631C164.03 322.425 164.323 322.132 164.558 321.752C164.803 321.371 164.954 320.909 165.01 320.364C165.077 319.819 165.026 319.202 164.856 318.513H166.905C167.161 319.551 167.222 320.466 167.089 321.258C166.956 322.05 166.68 322.713 166.261 323.248C165.852 323.783 165.342 324.184 164.73 324.451C164.118 324.718 163.457 324.852 162.748 324.852C161.932 324.852 161.194 324.693 160.533 324.374C159.87 324.045 159.323 323.628 158.891 323.124C158.468 322.61 158.186 322.065 158.044 321.49C157.9 320.903 157.912 320.394 158.081 319.963C158.247 319.52 158.497 319.135 158.829 318.806C159.171 318.477 159.519 318.189 159.871 317.942C160.255 317.654 160.574 317.423 160.828 317.248C161.079 317.063 161.258 316.888 161.366 316.724C161.474 316.559 161.501 316.369 161.448 316.153C161.392 315.927 161.268 315.747 161.076 315.613C160.895 315.479 160.683 315.413 160.439 315.413C160.27 315.413 160.127 315.454 160.009 315.536C159.889 315.608 159.807 315.706 159.764 315.829C159.728 315.942 159.729 316.076 159.767 316.23C159.802 316.374 159.879 316.513 159.997 316.646C160.122 316.77 160.316 316.934 160.579 317.14C160.852 317.346 161.228 317.649 161.708 318.05L169.858 324.698H166.522Z" fill="#F26F5B"/>
<path d="M144.806 304.425C144.744 304.377 144.636 304.311 144.482 304.229C144.334 304.147 144.156 304.068 143.946 303.992C143.744 303.917 143.526 303.852 143.294 303.797C143.06 303.735 142.829 303.704 142.603 303.704C142.207 303.704 141.925 303.776 141.755 303.92C141.593 304.064 141.544 304.267 141.608 304.528C141.657 304.727 141.759 304.884 141.915 305.001C142.071 305.118 142.287 305.217 142.561 305.3C142.836 305.382 143.176 305.471 143.581 305.567C144.105 305.684 144.568 305.828 144.971 306C145.379 306.164 145.712 306.384 145.97 306.659C146.234 306.926 146.421 307.283 146.531 307.729C146.627 308.12 146.636 308.457 146.557 308.738C146.476 309.012 146.326 309.235 146.107 309.407C145.887 309.579 145.622 309.706 145.31 309.788C144.996 309.863 144.652 309.901 144.278 309.901C143.903 309.901 143.519 309.863 143.126 309.788C142.733 309.712 142.346 309.606 141.966 309.469C141.584 309.325 141.224 309.153 140.885 308.954L141.23 307.729C141.309 307.791 141.442 307.873 141.63 307.976C141.816 308.072 142.039 308.172 142.297 308.275C142.554 308.371 142.829 308.453 143.122 308.522C143.414 308.59 143.702 308.625 143.984 308.625C144.38 308.625 144.665 308.559 144.837 308.429C145.01 308.299 145.067 308.113 145.008 307.873C144.954 307.654 144.83 307.482 144.637 307.359C144.444 307.235 144.192 307.129 143.88 307.039C143.567 306.943 143.199 306.84 142.776 306.731C142.27 306.6 141.839 306.456 141.482 306.298C141.123 306.134 140.836 305.928 140.62 305.681C140.403 305.433 140.25 305.125 140.158 304.754C140.035 304.253 140.052 303.834 140.21 303.498C140.372 303.155 140.641 302.898 141.016 302.726C141.389 302.548 141.83 302.458 142.339 302.458C142.692 302.458 143.034 302.496 143.363 302.572C143.7 302.647 144.021 302.747 144.327 302.87C144.633 302.994 144.914 303.128 145.168 303.272L144.806 304.425Z" fill="#1F2A31"/>
<path d="M152.288 303.756H149.881L151.374 309.819H149.922L148.429 303.756H146.022L145.715 302.51H151.981L152.288 303.756Z" fill="#1F2A31"/>
<path d="M154.257 302.51H155.742L160.308 309.819H158.803L157.655 307.997H155.025L154.785 309.819H153.279L154.257 302.51ZM157.144 306.998L155.362 303.982L155.023 306.998H157.144Z" fill="#1F2A31"/>
<path d="M161.441 305.125L162.597 309.819H161.134L159.334 302.51H160.5L165.577 307.328L164.394 302.52H165.857L167.654 309.819H166.435L161.441 305.125Z" fill="#1F2A31"/>
<path d="M169.22 309.819L167.42 302.51H170.155C170.975 302.51 171.701 302.675 172.334 303.004C172.964 303.327 173.486 303.766 173.898 304.322C174.309 304.871 174.597 305.482 174.763 306.154C174.946 306.895 174.953 307.54 174.784 308.089C174.615 308.638 174.289 309.064 173.805 309.366C173.328 309.668 172.711 309.819 171.955 309.819H169.22ZM173.289 306.154C173.173 305.681 172.982 305.265 172.718 304.908C172.451 304.545 172.128 304.263 171.747 304.064C171.364 303.858 170.935 303.756 170.462 303.756H169.19L170.376 308.573H171.648C172.129 308.573 172.51 308.47 172.791 308.264C173.071 308.052 173.251 307.763 173.331 307.4C173.417 307.029 173.403 306.614 173.289 306.154Z" fill="#1F2A31"/>
<path d="M147.958 345.638L146.159 338.329H148.894C149.714 338.329 150.44 338.494 151.072 338.823C151.703 339.146 152.225 339.585 152.637 340.141C153.048 340.69 153.336 341.3 153.502 341.973C153.684 342.714 153.691 343.359 153.523 343.908C153.354 344.457 153.027 344.883 152.543 345.185C152.066 345.487 151.45 345.638 150.694 345.638H147.958ZM152.028 341.973C151.912 341.499 151.721 341.084 151.456 340.727C151.19 340.364 150.866 340.082 150.485 339.883C150.102 339.677 149.674 339.574 149.201 339.574H147.928L149.115 344.392H150.387C150.868 344.392 151.249 344.289 151.53 344.083C151.81 343.871 151.99 343.582 152.07 343.219C152.155 342.848 152.141 342.433 152.028 341.973Z" fill="#1F2A31"/>
<path d="M155.389 345.638L154.061 340.244H155.481L156.809 345.638H155.389ZM153.875 339.492L153.538 338.123H154.959L155.296 339.492H153.875Z" fill="#1F2A31"/>
<path d="M160.162 345.741C159.689 345.741 159.218 345.665 158.75 345.514C158.281 345.363 157.855 345.14 157.472 344.845L157.76 343.949C158.156 344.21 158.529 344.402 158.877 344.526C159.233 344.649 159.559 344.711 159.856 344.711C160.132 344.711 160.339 344.663 160.478 344.567C160.624 344.471 160.673 344.327 160.626 344.135C160.594 344.004 160.523 343.905 160.414 343.836C160.304 343.761 160.154 343.696 159.963 343.641C159.78 343.586 159.556 343.524 159.292 343.455C158.85 343.325 158.476 343.198 158.17 343.074C157.864 342.951 157.617 342.797 157.431 342.611C157.249 342.419 157.122 342.175 157.049 341.88C156.961 341.524 156.978 341.218 157.099 340.964C157.226 340.703 157.437 340.501 157.734 340.357C158.038 340.213 158.416 340.141 158.868 340.141C159.264 340.141 159.654 340.202 160.038 340.326C160.42 340.443 160.789 340.635 161.144 340.902L160.787 341.777C160.452 341.565 160.146 341.41 159.868 341.314C159.588 341.211 159.317 341.16 159.056 341.16C158.907 341.16 158.77 341.177 158.644 341.211C158.525 341.246 158.434 341.304 158.369 341.386C158.31 341.462 158.298 341.572 158.334 341.716C158.366 341.846 158.427 341.949 158.516 342.024C158.61 342.093 158.739 342.155 158.901 342.21C159.07 342.265 159.272 342.326 159.508 342.395C159.984 342.519 160.39 342.646 160.726 342.776C161.069 342.906 161.342 343.068 161.545 343.26C161.746 343.445 161.887 343.702 161.968 344.032C162.1 344.567 162.001 344.986 161.673 345.288C161.344 345.59 160.841 345.741 160.162 345.741Z" fill="#1F2A31"/>
<path d="M166.684 345.741C166.253 345.741 165.848 345.648 165.47 345.463C165.098 345.271 164.78 345.013 164.517 344.691L165.29 347.83H163.87L162.001 340.244H163.242L163.47 341.17C163.604 340.854 163.812 340.607 164.093 340.429C164.373 340.244 164.721 340.151 165.138 340.151C165.512 340.151 165.873 340.223 166.219 340.367C166.573 340.511 166.898 340.714 167.196 340.974C167.492 341.228 167.745 341.524 167.955 341.86C168.17 342.189 168.325 342.546 168.42 342.93C168.548 343.452 168.559 343.925 168.451 344.351C168.351 344.776 168.149 345.116 167.844 345.37C167.544 345.617 167.157 345.741 166.684 345.741ZM165.918 344.567C166.137 344.567 166.324 344.523 166.479 344.433C166.633 344.344 166.756 344.224 166.846 344.073C166.941 343.915 166.997 343.74 167.013 343.548C167.035 343.349 167.02 343.143 166.967 342.93C166.911 342.704 166.821 342.495 166.696 342.302C166.578 342.11 166.431 341.942 166.254 341.798C166.075 341.647 165.88 341.53 165.669 341.448C165.465 341.366 165.254 341.324 165.035 341.324C164.9 341.324 164.768 341.349 164.639 341.397C164.515 341.438 164.399 341.499 164.292 341.582C164.185 341.664 164.096 341.76 164.024 341.87C163.959 341.98 163.922 342.1 163.911 342.23L164.223 343.497C164.357 343.696 164.515 343.877 164.697 344.042C164.886 344.207 165.087 344.337 165.302 344.433C165.515 344.523 165.72 344.567 165.918 344.567Z" fill="#1F2A31"/>
<path d="M168.188 338.123H169.608L171.033 343.908C171.094 344.155 171.178 344.324 171.284 344.413C171.39 344.495 171.516 344.536 171.665 344.536C171.778 344.536 171.891 344.523 172.004 344.495C172.118 344.468 172.215 344.433 172.297 344.392L172.746 345.442C172.578 345.531 172.372 345.6 172.129 345.648C171.887 345.696 171.663 345.72 171.458 345.72C171.013 345.72 170.638 345.607 170.335 345.38C170.038 345.147 169.836 344.818 169.732 344.392L168.188 338.123Z" fill="#1F2A31"/>
<path d="M172.639 344.042C172.553 343.692 172.577 343.387 172.71 343.126C172.849 342.858 173.081 342.652 173.406 342.508C173.731 342.364 174.127 342.292 174.593 342.292C174.827 342.292 175.068 342.309 175.316 342.344C175.565 342.378 175.787 342.433 175.983 342.508L175.912 342.22C175.827 341.877 175.656 341.613 175.398 341.427C175.148 341.242 174.817 341.149 174.408 341.149C174.104 341.149 173.827 341.201 173.576 341.304C173.326 341.407 173.073 341.558 172.818 341.757L172.139 340.851C172.45 340.618 172.781 340.443 173.134 340.326C173.494 340.209 173.886 340.151 174.31 340.151C175.102 340.151 175.764 340.343 176.297 340.727C176.837 341.112 177.194 341.661 177.37 342.374L177.794 344.094C177.829 344.238 177.879 344.341 177.944 344.402C178.016 344.464 178.113 344.502 178.237 344.516L178.513 345.638C178.391 345.658 178.278 345.675 178.176 345.689C178.08 345.703 177.997 345.71 177.926 345.71C177.644 345.71 177.413 345.648 177.234 345.524C177.062 345.401 176.937 345.25 176.858 345.072L176.757 344.794C176.591 345.096 176.348 345.329 176.029 345.494C175.709 345.658 175.361 345.741 174.987 345.741C174.619 345.741 174.269 345.669 173.937 345.524C173.61 345.374 173.331 345.171 173.098 344.917C172.872 344.656 172.718 344.365 172.639 344.042ZM176.164 344.32C176.221 344.238 176.264 344.155 176.294 344.073C176.323 343.991 176.329 343.915 176.312 343.847L176.178 343.301C175.991 343.232 175.795 343.181 175.588 343.147C175.38 343.105 175.188 343.085 175.011 343.085C174.644 343.085 174.359 343.164 174.158 343.322C173.962 343.473 173.895 343.675 173.958 343.929C173.991 344.066 174.062 344.197 174.171 344.32C174.279 344.444 174.416 344.543 174.583 344.619C174.75 344.694 174.936 344.732 175.141 344.732C175.353 344.732 175.552 344.694 175.739 344.619C175.924 344.536 176.065 344.437 176.164 344.32Z" fill="#1F2A31"/>
<path d="M179.669 346.688C179.803 346.715 179.926 346.739 180.037 346.76C180.155 346.78 180.253 346.791 180.331 346.791C180.465 346.791 180.566 346.756 180.634 346.688C180.711 346.626 180.77 346.509 180.813 346.338C180.857 346.173 180.888 345.94 180.906 345.638L177.383 340.244H178.856L181.332 344.227L181.666 340.244H183.023L182.282 346.708C182.257 346.949 182.179 347.165 182.05 347.357C181.929 347.556 181.752 347.71 181.517 347.82C181.292 347.937 181.02 347.995 180.702 347.995C180.589 347.995 180.473 347.985 180.355 347.964C180.238 347.95 180.108 347.923 179.963 347.882L179.669 346.688Z" fill="#1F2A31"/>
<path d="M157.361 359.195C157.462 359.607 157.438 359.953 157.288 360.235C157.137 360.509 156.892 360.719 156.552 360.863C156.22 361.007 155.835 361.079 155.397 361.079H151.761L149.961 353.77H153.99C154.343 353.77 154.67 353.863 154.97 354.048C155.275 354.226 155.531 354.46 155.736 354.748C155.946 355.029 156.09 355.325 156.166 355.633C156.252 355.983 156.242 356.316 156.136 356.632C156.03 356.948 155.819 357.181 155.503 357.332C155.964 357.455 156.358 357.678 156.685 358.001C157.019 358.324 157.244 358.722 157.361 359.195ZM155.821 358.927C155.776 358.742 155.696 358.577 155.583 358.433C155.468 358.282 155.333 358.166 155.179 358.083C155.03 357.994 154.87 357.95 154.701 357.95H152.453L152.927 359.875H155.1C155.277 359.875 155.426 359.833 155.547 359.751C155.674 359.662 155.761 359.545 155.811 359.401C155.86 359.257 155.864 359.099 155.821 358.927ZM151.723 354.985L152.177 356.827H154.128C154.29 356.827 154.429 356.79 154.545 356.714C154.661 356.639 154.74 356.532 154.784 356.395C154.835 356.258 154.837 356.093 154.79 355.901C154.744 355.716 154.666 355.554 154.554 355.417C154.45 355.28 154.325 355.174 154.179 355.098C154.04 355.023 153.893 354.985 153.737 354.985H151.723Z" fill="#1F2A31"/>
<path d="M158.966 361.079L157.167 353.77H160.496C160.842 353.77 161.177 353.839 161.501 353.976C161.831 354.113 162.131 354.299 162.401 354.532C162.677 354.765 162.908 355.026 163.092 355.314C163.283 355.602 163.416 355.898 163.49 356.2C163.566 356.508 163.583 356.807 163.541 357.095C163.504 357.376 163.409 357.624 163.257 357.836C163.104 358.049 162.904 358.214 162.658 358.33L165.052 361.079H163.44L161.289 358.629H159.826L160.43 361.079H158.966ZM159.52 357.383H161.354C161.537 357.383 161.687 357.332 161.803 357.229C161.918 357.119 161.995 356.975 162.036 356.797C162.077 356.618 162.07 356.419 162.016 356.2C161.959 355.966 161.859 355.764 161.718 355.592C161.575 355.414 161.414 355.273 161.233 355.17C161.059 355.067 160.884 355.016 160.707 355.016H158.936L159.52 357.383Z" fill="#1F2A31"/>
<path d="M166.263 353.77H167.748L172.314 361.079H170.809L169.661 359.257H167.031L166.791 361.079H165.285L166.263 353.77ZM169.15 358.258L167.368 355.242L167.029 358.258H169.15Z" fill="#1F2A31"/>
<path d="M173.447 356.385L174.603 361.079H173.14L171.34 353.77H172.506L177.583 358.588L176.4 353.78H177.863L179.66 361.079H178.441L173.447 356.385Z" fill="#1F2A31"/>
<path d="M181.226 361.079L179.426 353.77H182.161C182.981 353.77 183.707 353.935 184.34 354.264C184.97 354.587 185.492 355.026 185.904 355.582C186.315 356.131 186.604 356.742 186.769 357.414C186.952 358.155 186.959 358.8 186.79 359.35C186.621 359.899 186.295 360.324 185.811 360.626C185.334 360.928 184.717 361.079 183.961 361.079H181.226ZM185.296 357.414C185.179 356.941 184.988 356.525 184.724 356.169C184.458 355.805 184.134 355.524 183.753 355.325C183.37 355.119 182.942 355.016 182.468 355.016H181.196L182.382 359.833H183.654C184.135 359.833 184.516 359.73 184.797 359.525C185.077 359.312 185.257 359.024 185.337 358.66C185.423 358.289 185.409 357.874 185.296 357.414Z" fill="#1F2A31"/>
<path d="M214.042 191.718H211.002L210.462 193.998H213.062V196.378H209.882L209.022 199.958H206.462L207.342 196.378H205.522L204.642 199.958H202.082L202.982 196.378H200.722V193.998H203.542L204.082 191.718H201.702V189.518H204.622L205.542 185.758H208.102L207.162 189.518H209.002L209.922 185.758H212.482L211.542 189.518H214.042V191.718ZM207.922 193.998L208.462 191.718H206.622L206.082 193.998H207.922ZM219.708 185.758H223.248L228.128 199.958H224.768L223.668 196.778H219.248L218.168 199.958H214.808L219.708 185.758ZM223.128 194.518L221.468 189.058L219.768 194.518H223.128ZM232.806 191.838V199.958H229.526V185.758H232.126L238.706 194.118V185.758H241.986V199.958H239.306L232.806 191.838ZM248.282 185.758H251.822L256.702 199.958H253.342L252.242 196.778H247.822L246.742 199.958H243.382L248.282 185.758ZM251.702 194.518L250.042 189.058L248.342 194.518H251.702ZM263.754 200.078C262.687 200.078 261.721 199.878 260.854 199.478C260.001 199.065 259.261 198.518 258.634 197.838C258.021 197.145 257.547 196.371 257.214 195.518C256.881 194.651 256.714 193.758 256.714 192.838C256.714 191.891 256.887 190.991 257.234 190.138C257.594 189.285 258.087 188.525 258.714 187.858C259.354 187.178 260.107 186.645 260.974 186.258C261.841 185.871 262.787 185.678 263.814 185.678C264.867 185.678 265.821 185.885 266.674 186.298C267.541 186.698 268.281 187.245 268.894 187.938C269.521 188.631 270.001 189.411 270.334 190.278C270.667 191.131 270.834 192.005 270.834 192.898C270.834 193.845 270.661 194.745 270.314 195.598C269.967 196.451 269.474 197.218 268.834 197.898C268.194 198.565 267.441 199.098 266.574 199.498C265.721 199.885 264.781 200.078 263.754 200.078ZM260.054 192.878C260.054 193.425 260.134 193.958 260.294 194.478C260.454 194.985 260.687 195.438 260.994 195.838C261.314 196.238 261.707 196.558 262.174 196.798C262.641 197.038 263.174 197.158 263.774 197.158C264.401 197.158 264.947 197.038 265.414 196.798C265.881 196.545 266.267 196.211 266.574 195.798C266.881 195.385 267.107 194.925 267.254 194.418C267.414 193.898 267.494 193.371 267.494 192.838C267.494 192.291 267.414 191.765 267.254 191.258C267.094 190.751 266.854 190.298 266.534 189.898C266.214 189.485 265.821 189.165 265.354 188.938C264.887 188.711 264.361 188.598 263.774 188.598C263.147 188.598 262.601 188.718 262.134 188.958C261.681 189.198 261.294 189.525 260.974 189.938C260.667 190.338 260.434 190.798 260.274 191.318C260.127 191.825 260.054 192.345 260.054 192.878ZM275.743 185.758H279.283L284.163 199.958H280.803L279.703 196.778H275.283L274.203 199.958H270.843L275.743 185.758ZM279.163 194.518L277.503 189.058L275.803 194.518H279.163ZM291.095 200.078C289.962 200.078 288.995 199.891 288.195 199.518C287.395 199.131 286.742 198.611 286.235 197.958C285.742 197.291 285.375 196.538 285.135 195.698C284.908 194.845 284.795 193.951 284.795 193.018V185.758H288.075V193.018C288.075 193.551 288.128 194.071 288.235 194.578C288.342 195.071 288.515 195.511 288.755 195.898C288.995 196.285 289.302 196.591 289.675 196.818C290.062 197.045 290.535 197.158 291.095 197.158C291.668 197.158 292.148 197.045 292.535 196.818C292.922 196.578 293.228 196.265 293.455 195.878C293.682 195.478 293.848 195.031 293.955 194.538C294.062 194.045 294.115 193.538 294.115 193.018V185.758H297.395V193.018C297.395 194.005 297.268 194.925 297.015 195.778C296.775 196.631 296.402 197.385 295.895 198.038C295.388 198.678 294.735 199.178 293.935 199.538C293.148 199.898 292.202 200.078 291.095 200.078ZM299.276 199.958C299.276 199.331 299.323 198.771 299.416 198.278C299.523 197.785 299.69 197.338 299.916 196.938C300.156 196.525 300.47 196.145 300.856 195.798C301.256 195.438 301.756 195.098 302.356 194.778C302.983 194.445 303.503 194.165 303.916 193.938C304.343 193.698 304.683 193.498 304.936 193.338C305.19 193.178 305.363 193.025 305.456 192.878C305.563 192.718 305.616 192.545 305.616 192.358C305.616 192.105 305.556 191.885 305.436 191.698C305.316 191.511 305.143 191.371 304.916 191.278C304.69 191.171 304.41 191.118 304.076 191.118C303.81 191.118 303.556 191.151 303.316 191.218C303.076 191.285 302.843 191.385 302.616 191.518C302.403 191.651 302.196 191.811 301.996 191.998C301.796 192.171 301.596 192.371 301.396 192.598L299.376 190.238C299.603 190.011 299.89 189.785 300.236 189.558C300.596 189.331 301.003 189.131 301.456 188.958C301.91 188.771 302.403 188.625 302.936 188.518C303.483 188.398 304.05 188.338 304.636 188.338C305.596 188.338 306.403 188.485 307.056 188.778C307.723 189.058 308.23 189.458 308.576 189.978C308.923 190.498 309.096 191.111 309.096 191.818C309.096 192.271 309.023 192.671 308.876 193.018C308.743 193.351 308.563 193.651 308.336 193.918C308.11 194.185 307.85 194.425 307.556 194.638C307.276 194.851 306.996 195.045 306.716 195.218C306.396 195.378 306.096 195.538 305.816 195.698C305.536 195.845 305.276 195.991 305.036 196.138C304.796 196.271 304.57 196.418 304.356 196.578C304.156 196.725 303.963 196.891 303.776 197.078H309.316V199.958H299.276ZM315.398 202.938C314.371 202.938 313.445 202.725 312.618 202.298C311.791 201.885 311.158 201.311 310.718 200.578L312.498 198.598C312.885 199.078 313.331 199.458 313.838 199.738C314.358 200.005 314.885 200.138 315.418 200.138C315.831 200.138 316.191 200.058 316.498 199.898C316.805 199.725 317.045 199.491 317.218 199.198C317.391 198.905 317.478 198.558 317.478 198.158C317.478 197.785 317.398 197.451 317.238 197.158C317.078 196.865 316.858 196.645 316.578 196.498C316.298 196.338 315.971 196.258 315.598 196.258C315.238 196.258 314.898 196.338 314.578 196.498C314.271 196.658 314.031 196.885 313.858 197.178H311.078L312.738 188.538H319.798V191.458H315.058L314.658 193.878C314.738 193.785 314.891 193.705 315.118 193.638C315.358 193.558 315.671 193.518 316.058 193.518C316.978 193.518 317.791 193.711 318.498 194.098C319.205 194.485 319.758 195.025 320.158 195.718C320.558 196.411 320.758 197.205 320.758 198.098C320.758 199.058 320.525 199.898 320.058 200.618C319.605 201.351 318.978 201.918 318.178 202.318C317.378 202.731 316.451 202.938 315.398 202.938Z" fill="#F2F5E3"/>
</svg>
