<svg width="429" height="302" viewBox="0 0 429 302" fill="none" xmlns="http://www.w3.org/2000/svg">
<path d="M428.705 118.735H305.689C310.353 110.571 319.435 105.754 328.792 106.691C334.266 107.239 339.666 109.625 345.084 108.668C355.363 106.853 360.504 94.2363 370.445 91.0532C377.662 88.7418 386.783 90.6188 391.719 96.3706C395.851 101.186 399.098 105.639 406.137 108.447C409.459 109.773 417.441 110.967 420.783 112.244C424.125 113.522 427.003 115.588 428.705 118.735Z" fill="#F2F5E3"/>
<path d="M123.515 28.6364H0.498779C5.16415 20.4722 14.2449 15.6558 23.6017 16.5922C29.0753 17.1401 34.4761 19.5264 39.8935 18.5692C50.1731 16.7547 55.3135 4.1377 65.2546 0.954539C72.4719 -1.35679 81.5933 0.520183 86.5285 6.27195C90.6605 11.0873 93.9082 15.5402 100.947 18.3484C104.27 19.6743 112.251 20.868 115.594 22.145C118.935 23.4231 121.813 25.4897 123.515 28.6364Z" fill="#F2F5E3"/>
<path d="M377.352 56.1099H52.1089V304.534H377.352V56.1099Z" fill="#F26F5B"/>
<path d="M80.5476 81.9494C93.3781 81.9494 103.78 71.5478 103.78 58.7173H57.3165C57.3165 71.5478 67.718 81.9494 80.5476 81.9494Z" fill="#EA4E3D"/>
<path d="M127.014 81.9469C139.844 81.9469 150.245 71.5454 150.245 58.7148H103.781C103.781 71.5454 114.183 81.9469 127.014 81.9469Z" fill="#EA4E3D"/>
<path d="M173.477 81.9469C186.308 81.9469 196.71 71.5454 196.71 58.7148H150.246C150.245 71.5454 160.647 81.9469 173.477 81.9469Z" fill="#EA4E3D"/>
<path d="M219.942 81.9469C232.773 81.9469 243.174 71.5454 243.174 58.7148H196.711C196.71 71.5454 207.112 81.9469 219.942 81.9469Z" fill="#EA4E3D"/>
<path d="M266.397 81.9469C279.227 81.9469 289.629 71.5454 289.629 58.7148H243.166C243.165 71.5454 253.566 81.9469 266.397 81.9469Z" fill="#EA4E3D"/>
<path d="M312.862 81.9469C325.692 81.9469 336.094 71.5454 336.094 58.7148H289.631C289.631 71.5454 300.031 81.9469 312.862 81.9469Z" fill="#EA4E3D"/>
<path d="M377.352 58.7159V73.3734C373.095 78.6054 366.602 81.9459 359.329 81.9459C346.496 81.9459 336.096 71.5454 336.096 58.7148H377.352V58.7159Z" fill="#EA4E3D"/>
<path d="M52.1089 56.2393L93.5702 304.533H52.1089V56.2393Z" fill="#EA4E3D"/>
<path d="M326.344 140.849H103.132C89.1229 140.849 77.7662 129.492 77.7662 115.483C77.7662 101.475 89.1229 90.1182 103.132 90.1182H326.344C340.353 90.1182 351.71 101.475 351.71 115.483C351.71 129.492 340.353 140.849 326.344 140.849Z" fill="#2C90CF"/>
<path d="M326.345 136.292H103.133C91.6593 136.292 82.3243 126.957 82.3243 115.484C82.3243 104.01 91.6593 94.6753 103.133 94.6753H326.345C337.819 94.6753 347.154 104.01 347.154 115.484C347.154 126.957 337.819 136.292 326.345 136.292ZM103.133 95.9773C92.3769 95.9773 83.6264 104.728 83.6264 115.484C83.6264 126.239 92.3769 134.99 103.133 134.99H326.345C337.101 134.99 345.852 126.239 345.852 115.484C345.852 104.728 337.101 95.9773 326.345 95.9773H103.133Z" fill="#E6E6E6"/>
<path d="M98.5904 121.118C101.703 121.118 104.227 118.595 104.227 115.482C104.227 112.369 101.703 109.846 98.5904 109.846C95.4776 109.846 92.9542 112.369 92.9542 115.482C92.9542 118.595 95.4776 121.118 98.5904 121.118Z" fill="#F26F5B"/>
<path d="M336.532 115.482C336.532 118.595 334.008 121.118 330.895 121.118C327.783 121.118 325.258 118.594 325.258 115.482C325.258 112.37 327.782 109.846 330.895 109.846C334.009 109.846 336.532 112.368 336.532 115.482Z" fill="#F26F5B"/>
<path d="M99.2457 56.1108H97.9437V115.352H99.2457V56.1108Z" fill="#1F2A31"/>
<path d="M331.531 56.1108H330.229V115.352H331.531V56.1108Z" fill="#1F2A31"/>
<path d="M377.361 157.667H271.637V231.101H377.361V157.667Z" fill="#4EC7DF"/>
<path opacity="0.2" d="M328.79 157.668L286.888 231.101H323.031L338.437 157.668H328.79Z" fill="#F2F2F2"/>
<path opacity="0.2" d="M359.253 157.797L333.343 231.101H350.89L366.296 157.797H359.253Z" fill="#F2F2F2"/>
<path d="M383.222 169.907V157.668L271.51 157.668V169.907L383.222 169.907Z" fill="#FFD255"/>
<path d="M383.213 163.138H271.5V164.44H383.213V163.138Z" fill="#F26F5B"/>
<path d="M157.836 157.667H52.1125V231.101H157.836V157.667Z" fill="#4EC7DF"/>
<path opacity="0.2" d="M94.0167 157.668L52.1158 231.101H88.2576L103.665 157.668H94.0167Z" fill="#F2F2F2"/>
<path opacity="0.2" d="M124.48 157.797L98.5704 231.101H116.117L131.525 157.797H124.48Z" fill="#F2F2F2"/>
<path d="M157.717 169.907V157.668L46.0039 157.668V169.907L157.717 169.907Z" fill="#FFD255"/>
<path d="M157.71 163.266H45.9976V164.568H157.71V163.266Z" fill="#F26F5B"/>
<path d="M98.5796 56.1113C98.5796 68.9419 88.1781 79.3434 75.3475 79.3434C62.517 79.3434 52.1155 68.9419 52.1155 56.1113" fill="#FFD255"/>
<path d="M145.045 56.1113C145.045 68.9419 134.643 79.3434 121.813 79.3434C108.982 79.3434 98.5804 68.9419 98.5804 56.1113" fill="#FDFFEE"/>
<path d="M191.51 56.1113C191.51 68.9419 181.108 79.3434 168.277 79.3434C155.447 79.3434 145.045 68.9419 145.045 56.1113" fill="#FFD255"/>
<path d="M237.964 56.1113C237.964 68.9419 227.563 79.3434 214.732 79.3434C201.902 79.3434 191.5 68.9419 191.5 56.1113" fill="#FDFFEE"/>
<path d="M284.429 56.1113C284.429 68.9419 274.027 79.3434 261.197 79.3434C248.366 79.3434 237.965 68.9419 237.965 56.1113" fill="#FFD255"/>
<path d="M330.894 56.1113C330.894 68.9419 320.492 79.3434 307.662 79.3434C294.831 79.3434 284.43 68.9419 284.43 56.1113" fill="#FDFFEE"/>
<path d="M377.358 56.1113C377.358 68.9419 366.956 79.3434 354.126 79.3434C341.295 79.3434 330.895 68.9419 330.895 56.1113" fill="#FFD255"/>
<path d="M237.97 56.1111H191.507L196.771 16.2695H232.707L237.97 56.1111Z" fill="#F2F5E3"/>
<path d="M330.896 56.1121H377.359L333.091 16.2705H299.759L330.896 56.1121Z" fill="#F2C32E"/>
<path d="M284.427 56.1121H330.89L299.753 16.2705H266.422L284.427 56.1121Z" fill="#F2F5E3"/>
<path d="M237.965 56.1121H284.429L266.424 16.2705H232.702L237.965 56.1121Z" fill="#F2C32E"/>
<path d="M98.5786 56.1121H52.1155L96.3839 16.2705H129.715L98.5786 56.1121Z" fill="#F2C32E"/>
<path d="M145.044 56.1121H98.5804L129.717 16.2705H163.049L145.044 56.1121Z" fill="#F2F5E3"/>
<path d="M191.508 56.1121H145.045L163.051 16.2705H196.773L191.508 56.1121Z" fill="#F2C32E"/>
<path d="M253.136 157.796L271.494 304.533H253.136V157.796Z" fill="#EA4E3D"/>
<path d="M253.01 157.667H176.452V304.534H253.01V157.667Z" fill="#FFD255"/>
<path d="M244.741 167.562H184.714V226.571H244.741V167.562Z" fill="#F2F5E3"/>
<path d="M244.741 235.761H184.714V294.769H244.741V235.761Z" fill="#F2F5E3"/>
<path d="M208.348 220.061H184.714V226.571H208.348V220.061Z" fill="#1F2A31"/>
<path d="M244.734 196.413H184.707V197.715H244.734V196.413Z" fill="#FFD255"/>
<path d="M244.734 264.638H184.707V265.94H244.734V264.638Z" fill="#FFD255"/>
<path d="M236.734 196.986H235.432C235.432 185.571 226.145 176.284 214.73 176.284C203.315 176.284 194.028 185.571 194.028 196.986H192.726C192.726 184.854 202.597 174.982 214.73 174.982C226.863 174.982 236.734 184.854 236.734 196.986Z" fill="#FFD255"/>
<path d="M214.73 287.294C202.597 287.294 192.726 277.423 192.726 265.29H194.028C194.028 276.705 203.315 285.992 214.73 285.992C226.145 285.992 235.432 276.705 235.432 265.29H236.734C236.734 277.424 226.863 287.294 214.73 287.294Z" fill="#FFD255"/>
<path d="M383.217 263.651V251.412L271.504 251.412V263.651H383.217Z" fill="#2C90CF"/>
<path d="M308.603 210.269H296.364V304.534H308.603V210.269Z" fill="#2C90CF"/>
<path d="M283.735 210.269H271.496V304.534H283.735V210.269Z" fill="#2C90CF"/>
<path d="M358.34 210.269H346.101V304.534H358.34V210.269Z" fill="#2C90CF"/>
<path d="M383.208 210.269H370.969V304.534H383.208V210.269Z" fill="#2C90CF"/>
<path d="M333.471 210.269H321.232V304.534H333.471V210.269Z" fill="#2C90CF"/>
<path d="M120.799 304.533H45.9902L69.7806 194.492H144.589L120.799 304.533Z" fill="#1F2A31"/>
<path d="M123.539 304.532H58.561C53.9915 298.819 49.9469 292.562 47.7262 285.594C45.5055 278.626 45.2243 270.858 48.021 264.1C50.0365 259.231 53.7936 254.995 58.4475 252.622C60.2495 251.7 62.189 251.056 64.2128 250.768C72.1499 249.63 80.1338 253.96 85.2065 260.173C90.277 266.383 92.7602 274.082 94.6487 281.875C96.4871 277.462 98.8359 273.171 102.271 269.843C105.703 266.517 110.341 264.228 115.119 264.387C123.402 264.661 130.082 272.478 131.1 280.704C132.116 288.929 128.549 297.932 123.539 304.532Z" fill="#FFD255"/>
<path d="M73.3967 304.534H58.561C53.9915 298.821 49.9469 292.564 47.7262 285.595C45.5055 278.627 45.2243 270.86 48.021 264.102C50.0365 259.232 53.7936 254.996 58.4475 252.623C54.3821 262.046 54.9112 273.333 58.7131 282.988C61.9254 291.144 67.2043 298.271 73.3967 304.534Z" fill="#F2C32E"/>
<path d="M71.7798 305.13C67.4592 303.229 63.1959 299.289 60.0825 294.32C57.1785 289.685 55.4015 283.955 55.0786 278.186L55.9109 277.524C60.1606 278.768 64.2406 282.506 67.103 287.78C69.3278 291.879 70.9444 297.398 72.1464 302.211C76.1025 289.882 76.1993 276.032 72.362 263.858L73.6036 263.467C77.7451 276.605 77.3982 291.653 72.6537 304.755L71.7798 305.13ZM56.4463 279.081C56.891 284.303 58.5586 289.436 61.1856 293.63C63.8677 297.91 67.4196 301.382 71.085 303.345C69.883 298.428 68.2425 292.61 65.9593 288.402C63.4677 283.812 60.0419 280.469 56.4463 279.081Z" fill="#1F2A31"/>
<path d="M69.8873 269.021C72.2944 270.4 75.6141 269.921 77.5348 267.919C79.4555 265.917 79.7961 262.582 78.3202 260.233C76.8442 257.885 73.6902 256.746 71.0539 257.609C65.9365 259.285 65.2365 266.359 69.8873 269.021Z" fill="#F2F5E3"/>
<path d="M331.144 288.033C329.21 294.106 325.686 299.559 321.704 304.534H265.09C260.723 298.783 257.617 290.939 258.504 283.773C259.39 276.604 265.21 269.795 272.428 269.555C276.591 269.416 280.63 271.412 283.622 274.31C286.611 277.211 288.661 280.947 290.262 284.794C291.906 278.006 294.069 271.298 298.489 265.886C301.796 261.835 306.527 258.702 311.594 257.798C313.297 257.493 315.039 257.442 316.779 257.691C323.088 258.594 328.45 263.417 330.888 269.307C333.323 275.194 333.078 281.961 331.144 288.033Z" fill="#FFD255"/>
<path d="M331.148 288.032C329.213 294.104 325.69 299.557 321.707 304.533H317.987C320.992 297.111 322.839 289.221 323.419 281.235C323.697 277.387 323.682 273.465 322.721 269.725C321.757 265.986 319.778 262.417 316.697 260.087C315.206 258.957 313.435 258.161 311.599 257.796C313.302 257.491 315.043 257.44 316.784 257.689C323.093 258.592 328.455 263.414 330.892 269.305C333.327 275.193 333.082 281.959 331.148 288.032Z" fill="#F2C32E"/>
<path d="M375.621 304.535H314.601C314.601 304.535 329.045 275.486 346.157 273.044C355.835 271.665 366.369 278.8 375.621 304.535Z" fill="#F2F5E3"/>
<path d="M325.706 304.706C323.924 298.183 321.449 293.439 317.429 288.843C312.946 283.718 306.691 280.828 300.692 281.119C295.057 281.39 289.442 284.528 285.674 289.512C282.441 293.787 280.762 298.673 279.234 304.696L277.972 304.376C279.539 298.2 281.271 293.176 284.635 288.728C288.634 283.439 294.613 280.109 300.629 279.82C307.02 279.514 313.668 282.566 318.41 287.988C322.567 292.743 325.125 297.641 326.962 304.365L325.706 304.706Z" fill="#1F2A31"/>
<path d="M375.623 304.535H363.761C362.123 298.556 360.282 292.627 357.485 287.109C354.743 281.698 350.983 276.654 346.157 273.044C355.837 271.665 366.371 278.8 375.623 304.535Z" fill="#FDFFEE"/>
<path d="M347.126 304.904C341.729 297.043 339.12 286.871 340.146 277.695L341.439 277.84C340.52 286.07 342.625 295.13 347.102 302.472C347.812 289.029 350.863 275.608 355.967 263.53L357.166 264.036C351.865 276.582 348.804 290.593 348.313 304.559L347.126 304.904Z" fill="#1F2A31"/>
<path d="M353.464 268.5C355.871 269.878 359.191 269.4 361.111 267.398C363.031 265.396 363.372 262.061 361.896 259.712C360.42 257.363 357.266 256.225 354.63 257.087C349.513 258.763 348.813 265.838 353.464 268.5Z" fill="#FFD255"/>
<path d="M93.5686 304.534H168.377L144.587 194.493H69.7782L93.5686 304.534Z" fill="#2C90CF"/>
<path d="M154.392 289.155C152.08 289.645 150.337 291.671 150.278 294.116H107.046C106.978 291.299 104.674 289.039 101.841 289.039C101.518 289.039 101.2 289.067 100.893 289.127L83.7825 209.993C86.0761 209.449 87.7802 207.389 87.7802 204.929V204.908H131.266V204.929C131.266 207.807 133.597 210.137 136.474 210.137C136.754 210.137 137.03 210.116 137.295 210.071L154.392 289.155Z" fill="#F2F5E3"/>
<path d="M120.522 242.698L114.026 237.346C113.467 236.883 113.015 236.487 112.669 236.158C112.323 235.829 112.058 235.526 111.873 235.248C111.696 234.96 111.568 234.652 111.487 234.323C111.35 233.767 111.37 233.289 111.546 232.888C111.72 232.477 112.019 232.163 112.442 231.947C112.874 231.721 113.391 231.608 113.995 231.608C114.535 231.608 115.066 231.7 115.588 231.886C116.108 232.06 116.567 232.333 116.965 232.703C117.363 233.073 117.633 233.546 117.775 234.122C117.897 234.616 117.886 235.068 117.744 235.479C117.61 235.88 117.378 236.251 117.048 236.59C116.73 236.929 116.353 237.248 115.918 237.546C115.6 237.762 115.319 237.973 115.073 238.179C114.835 238.374 114.658 238.58 114.542 238.795C114.436 239.011 114.415 239.248 114.478 239.505C114.531 239.721 114.649 239.942 114.832 240.168C115.023 240.384 115.263 240.564 115.553 240.708C115.853 240.852 116.183 240.924 116.543 240.924C116.946 240.924 117.324 240.826 117.678 240.631C118.03 240.425 118.323 240.132 118.558 239.752C118.803 239.371 118.954 238.909 119.01 238.364C119.077 237.819 119.026 237.202 118.856 236.513H120.905C121.161 237.551 121.222 238.466 121.089 239.258C120.956 240.05 120.68 240.713 120.261 241.248C119.852 241.783 119.342 242.184 118.73 242.451C118.118 242.718 117.457 242.852 116.748 242.852C115.932 242.852 115.194 242.693 114.533 242.374C113.87 242.045 113.323 241.628 112.891 241.124C112.468 240.61 112.186 240.065 112.044 239.49C111.9 238.903 111.912 238.394 112.081 237.963C112.247 237.52 112.497 237.135 112.829 236.806C113.171 236.477 113.519 236.189 113.871 235.942C114.255 235.654 114.574 235.423 114.828 235.248C115.079 235.063 115.258 234.888 115.366 234.724C115.474 234.559 115.501 234.369 115.448 234.153C115.392 233.927 115.268 233.747 115.076 233.613C114.895 233.479 114.683 233.413 114.439 233.413C114.27 233.413 114.127 233.454 114.009 233.536C113.889 233.608 113.807 233.706 113.764 233.829C113.728 233.942 113.729 234.076 113.767 234.23C113.802 234.374 113.879 234.513 113.997 234.646C114.122 234.77 114.316 234.934 114.579 235.14C114.852 235.346 115.228 235.649 115.708 236.05L123.858 242.698H120.522Z" fill="#F26F5B"/>
<path d="M98.8055 222.425C98.7442 222.377 98.6363 222.311 98.4817 222.229C98.3342 222.147 98.1558 222.068 97.9463 221.992C97.744 221.917 97.5265 221.852 97.2939 221.797C97.0596 221.735 96.8293 221.704 96.6032 221.704C96.2074 221.704 95.9247 221.776 95.7553 221.92C95.5928 222.064 95.5438 222.267 95.608 222.528C95.657 222.727 95.7595 222.884 95.9154 223.001C96.0713 223.118 96.2867 223.217 96.5614 223.3C96.8361 223.382 97.1761 223.471 97.5814 223.567C98.1049 223.684 98.568 223.828 98.9707 224C99.3788 224.164 99.712 224.384 99.9705 224.659C100.234 224.926 100.421 225.283 100.531 225.729C100.627 226.12 100.636 226.457 100.557 226.738C100.476 227.012 100.326 227.235 100.107 227.407C99.8873 227.579 99.6217 227.706 99.3098 227.788C98.9962 227.863 98.6521 227.901 98.2776 227.901C97.903 227.901 97.5191 227.863 97.1259 227.788C96.7327 227.712 96.3461 227.606 95.966 227.469C95.5841 227.325 95.2239 227.153 94.8851 226.954L95.2301 225.729C95.3089 225.791 95.4423 225.873 95.6302 225.976C95.8164 226.072 96.0388 226.172 96.2974 226.275C96.5543 226.371 96.829 226.453 97.1216 226.522C97.4141 226.59 97.7017 226.625 97.9844 226.625C98.3802 226.625 98.6646 226.559 98.8374 226.429C99.0103 226.299 99.0671 226.113 99.008 225.873C98.9539 225.654 98.8304 225.482 98.6374 225.359C98.4444 225.235 98.1921 225.129 97.8803 225.039C97.5669 224.943 97.1988 224.84 96.7759 224.731C96.2703 224.6 95.839 224.456 95.4821 224.298C95.1235 224.134 94.836 223.928 94.6197 223.681C94.4033 223.433 94.2496 223.125 94.1583 222.754C94.0349 222.253 94.052 221.834 94.2095 221.498C94.3724 221.155 94.6412 220.898 95.0159 220.726C95.389 220.548 95.83 220.458 96.3389 220.458C96.6922 220.458 97.0337 220.496 97.3633 220.572C97.6999 220.647 98.0213 220.747 98.3273 220.87C98.6334 220.994 98.9137 221.128 99.1683 221.272L98.8055 222.425Z" fill="#1F2A31"/>
<path d="M106.288 221.756H103.881L105.374 227.819H103.922L102.429 221.756H100.022L99.7152 220.51H105.981L106.288 221.756Z" fill="#1F2A31"/>
<path d="M108.257 220.51H109.742L114.308 227.819H112.803L111.655 225.997H109.025L108.785 227.819H107.279L108.257 220.51ZM111.144 224.998L109.362 221.982L109.023 224.998H111.144Z" fill="#1F2A31"/>
<path d="M115.441 223.125L116.597 227.819H115.134L113.334 220.51H114.5L119.577 225.328L118.394 220.52H119.857L121.654 227.819H120.435L115.441 223.125Z" fill="#1F2A31"/>
<path d="M123.22 227.819L121.42 220.51H124.155C124.975 220.51 125.701 220.675 126.334 221.004C126.964 221.327 127.486 221.766 127.898 222.322C128.309 222.871 128.597 223.482 128.763 224.154C128.946 224.895 128.953 225.54 128.784 226.089C128.615 226.638 128.289 227.064 127.805 227.366C127.328 227.668 126.711 227.819 125.955 227.819H123.22ZM127.289 224.154C127.173 223.681 126.982 223.265 126.718 222.908C126.451 222.545 126.128 222.263 125.747 222.064C125.364 221.858 124.935 221.756 124.462 221.756H123.19L124.376 226.573H125.648C126.129 226.573 126.51 226.47 126.791 226.264C127.071 226.052 127.251 225.763 127.331 225.4C127.417 225.029 127.403 224.614 127.289 224.154Z" fill="#1F2A31"/>
<path d="M101.958 263.638L100.159 256.329H102.894C103.714 256.329 104.44 256.494 105.072 256.823C105.703 257.146 106.225 257.585 106.637 258.141C107.048 258.69 107.336 259.3 107.502 259.973C107.684 260.714 107.691 261.359 107.523 261.908C107.354 262.457 107.027 262.883 106.543 263.185C106.066 263.487 105.45 263.638 104.694 263.638H101.958ZM106.028 259.973C105.912 259.499 105.721 259.084 105.456 258.727C105.19 258.364 104.866 258.082 104.485 257.883C104.102 257.677 103.674 257.574 103.201 257.574H101.928L103.115 262.392H104.387C104.868 262.392 105.249 262.289 105.53 262.083C105.81 261.871 105.99 261.582 106.07 261.219C106.155 260.848 106.141 260.433 106.028 259.973Z" fill="#1F2A31"/>
<path d="M109.389 263.638L108.061 258.244H109.481L110.809 263.638H109.389ZM107.875 257.492L107.538 256.123H108.959L109.296 257.492H107.875Z" fill="#1F2A31"/>
<path d="M114.162 263.741C113.689 263.741 113.218 263.665 112.75 263.514C112.281 263.363 111.855 263.14 111.472 262.845L111.76 261.949C112.156 262.21 112.529 262.402 112.877 262.526C113.233 262.649 113.559 262.711 113.856 262.711C114.132 262.711 114.339 262.663 114.478 262.567C114.624 262.471 114.673 262.327 114.626 262.135C114.594 262.004 114.523 261.905 114.414 261.836C114.304 261.761 114.154 261.696 113.963 261.641C113.78 261.586 113.556 261.524 113.292 261.455C112.85 261.325 112.476 261.198 112.17 261.074C111.864 260.951 111.617 260.797 111.431 260.611C111.249 260.419 111.122 260.175 111.049 259.88C110.961 259.524 110.978 259.218 111.099 258.964C111.226 258.703 111.437 258.501 111.734 258.357C112.038 258.213 112.416 258.141 112.868 258.141C113.264 258.141 113.654 258.202 114.038 258.326C114.42 258.443 114.789 258.635 115.144 258.902L114.787 259.777C114.452 259.565 114.146 259.41 113.868 259.314C113.588 259.211 113.317 259.16 113.056 259.16C112.907 259.16 112.77 259.177 112.644 259.211C112.525 259.246 112.434 259.304 112.369 259.386C112.31 259.462 112.298 259.572 112.334 259.716C112.366 259.846 112.427 259.949 112.516 260.024C112.61 260.093 112.739 260.155 112.901 260.21C113.07 260.265 113.272 260.326 113.508 260.395C113.984 260.519 114.39 260.646 114.726 260.776C115.069 260.906 115.342 261.068 115.545 261.26C115.746 261.445 115.887 261.702 115.968 262.032C116.1 262.567 116.001 262.986 115.673 263.288C115.344 263.59 114.841 263.741 114.162 263.741Z" fill="#1F2A31"/>
<path d="M120.684 263.741C120.253 263.741 119.848 263.648 119.47 263.463C119.098 263.271 118.78 263.013 118.517 262.691L119.29 265.83H117.87L116.001 258.244H117.242L117.47 259.17C117.604 258.854 117.812 258.607 118.093 258.429C118.373 258.244 118.721 258.151 119.138 258.151C119.512 258.151 119.873 258.223 120.219 258.367C120.573 258.511 120.898 258.714 121.196 258.974C121.492 259.228 121.745 259.524 121.955 259.86C122.17 260.189 122.325 260.546 122.42 260.93C122.548 261.452 122.559 261.925 122.451 262.351C122.351 262.776 122.149 263.116 121.844 263.37C121.544 263.617 121.157 263.741 120.684 263.741ZM119.918 262.567C120.137 262.567 120.324 262.523 120.479 262.433C120.633 262.344 120.756 262.224 120.846 262.073C120.941 261.915 120.997 261.74 121.013 261.548C121.035 261.349 121.02 261.143 120.967 260.93C120.911 260.704 120.821 260.495 120.696 260.302C120.578 260.11 120.431 259.942 120.254 259.798C120.075 259.647 119.88 259.53 119.669 259.448C119.465 259.366 119.254 259.324 119.035 259.324C118.9 259.324 118.768 259.349 118.639 259.397C118.515 259.438 118.399 259.499 118.292 259.582C118.185 259.664 118.096 259.76 118.024 259.87C117.959 259.98 117.922 260.1 117.911 260.23L118.223 261.497C118.357 261.696 118.515 261.877 118.697 262.042C118.886 262.207 119.087 262.337 119.302 262.433C119.515 262.523 119.72 262.567 119.918 262.567Z" fill="#1F2A31"/>
<path d="M122.188 256.123H123.608L125.033 261.908C125.094 262.155 125.178 262.324 125.284 262.413C125.39 262.495 125.516 262.536 125.665 262.536C125.778 262.536 125.891 262.523 126.004 262.495C126.118 262.468 126.215 262.433 126.297 262.392L126.746 263.442C126.578 263.531 126.372 263.6 126.129 263.648C125.887 263.696 125.663 263.72 125.458 263.72C125.013 263.72 124.638 263.607 124.335 263.38C124.038 263.147 123.836 262.818 123.732 262.392L122.188 256.123Z" fill="#1F2A31"/>
<path d="M126.639 262.042C126.553 261.692 126.577 261.387 126.71 261.126C126.849 260.858 127.081 260.652 127.406 260.508C127.731 260.364 128.127 260.292 128.593 260.292C128.827 260.292 129.068 260.309 129.316 260.344C129.565 260.378 129.787 260.433 129.983 260.508L129.912 260.22C129.827 259.877 129.656 259.613 129.398 259.427C129.148 259.242 128.817 259.149 128.408 259.149C128.104 259.149 127.827 259.201 127.576 259.304C127.326 259.407 127.073 259.558 126.818 259.757L126.139 258.851C126.45 258.618 126.781 258.443 127.134 258.326C127.494 258.209 127.886 258.151 128.31 258.151C129.102 258.151 129.764 258.343 130.297 258.727C130.837 259.112 131.194 259.661 131.37 260.374L131.794 262.094C131.829 262.238 131.879 262.341 131.944 262.402C132.016 262.464 132.113 262.502 132.237 262.516L132.513 263.638C132.391 263.658 132.278 263.675 132.176 263.689C132.08 263.703 131.997 263.71 131.926 263.71C131.644 263.71 131.413 263.648 131.234 263.524C131.062 263.401 130.937 263.25 130.858 263.072L130.757 262.794C130.591 263.096 130.348 263.329 130.029 263.494C129.709 263.658 129.361 263.741 128.987 263.741C128.619 263.741 128.269 263.669 127.937 263.524C127.61 263.374 127.331 263.171 127.098 262.917C126.872 262.656 126.718 262.365 126.639 262.042ZM130.164 262.32C130.221 262.238 130.264 262.155 130.294 262.073C130.323 261.991 130.329 261.915 130.312 261.847L130.178 261.301C129.991 261.232 129.795 261.181 129.588 261.147C129.38 261.105 129.188 261.085 129.011 261.085C128.644 261.085 128.359 261.164 128.158 261.322C127.962 261.473 127.895 261.675 127.958 261.929C127.991 262.066 128.062 262.197 128.171 262.32C128.279 262.444 128.416 262.543 128.583 262.619C128.75 262.694 128.936 262.732 129.141 262.732C129.353 262.732 129.552 262.694 129.739 262.619C129.924 262.536 130.065 262.437 130.164 262.32Z" fill="#1F2A31"/>
<path d="M133.669 264.688C133.803 264.715 133.926 264.739 134.037 264.76C134.155 264.78 134.253 264.791 134.331 264.791C134.465 264.791 134.566 264.756 134.634 264.688C134.711 264.626 134.77 264.509 134.813 264.338C134.857 264.173 134.888 263.94 134.906 263.638L131.383 258.244H132.856L135.332 262.227L135.666 258.244H137.023L136.282 264.708C136.257 264.949 136.179 265.165 136.05 265.357C135.929 265.556 135.752 265.71 135.517 265.82C135.292 265.937 135.02 265.995 134.702 265.995C134.589 265.995 134.473 265.985 134.355 265.964C134.238 265.95 134.108 265.923 133.963 265.882L133.669 264.688Z" fill="#1F2A31"/>
<path d="M111.361 277.195C111.462 277.607 111.438 277.953 111.288 278.235C111.137 278.509 110.892 278.719 110.552 278.863C110.22 279.007 109.835 279.079 109.397 279.079H105.761L103.961 271.77H107.99C108.343 271.77 108.67 271.863 108.97 272.048C109.275 272.226 109.531 272.46 109.736 272.748C109.946 273.029 110.09 273.325 110.166 273.633C110.252 273.983 110.242 274.316 110.136 274.632C110.03 274.948 109.819 275.181 109.503 275.332C109.964 275.455 110.358 275.678 110.685 276.001C111.019 276.324 111.244 276.722 111.361 277.195ZM109.821 276.927C109.776 276.742 109.696 276.577 109.583 276.433C109.468 276.282 109.333 276.166 109.179 276.083C109.03 275.994 108.87 275.95 108.701 275.95H106.453L106.927 277.875H109.1C109.277 277.875 109.426 277.833 109.547 277.751C109.674 277.662 109.761 277.545 109.811 277.401C109.86 277.257 109.864 277.099 109.821 276.927ZM105.723 272.985L106.177 274.827H108.128C108.29 274.827 108.429 274.79 108.545 274.714C108.661 274.639 108.74 274.532 108.784 274.395C108.835 274.258 108.837 274.093 108.79 273.901C108.744 273.716 108.666 273.554 108.554 273.417C108.45 273.28 108.325 273.174 108.179 273.098C108.04 273.023 107.893 272.985 107.737 272.985H105.723Z" fill="#1F2A31"/>
<path d="M112.966 279.079L111.167 271.77H114.496C114.842 271.77 115.177 271.839 115.501 271.976C115.831 272.113 116.131 272.299 116.401 272.532C116.677 272.765 116.908 273.026 117.092 273.314C117.283 273.602 117.416 273.898 117.49 274.2C117.566 274.508 117.583 274.807 117.541 275.095C117.504 275.376 117.409 275.624 117.257 275.836C117.104 276.049 116.904 276.214 116.658 276.33L119.052 279.079H117.44L115.289 276.629H113.826L114.43 279.079H112.966ZM113.52 275.383H115.354C115.537 275.383 115.687 275.332 115.803 275.229C115.918 275.119 115.995 274.975 116.036 274.797C116.077 274.618 116.07 274.419 116.016 274.2C115.959 273.966 115.859 273.764 115.718 273.592C115.575 273.414 115.414 273.273 115.233 273.17C115.059 273.067 114.884 273.016 114.707 273.016H112.936L113.52 275.383Z" fill="#1F2A31"/>
<path d="M120.263 271.77H121.748L126.314 279.079H124.809L123.661 277.257H121.031L120.791 279.079H119.285L120.263 271.77ZM123.15 276.258L121.368 273.242L121.029 276.258H123.15Z" fill="#1F2A31"/>
<path d="M127.447 274.385L128.603 279.079H127.14L125.34 271.77H126.506L131.583 276.588L130.4 271.78H131.863L133.66 279.079H132.441L127.447 274.385Z" fill="#1F2A31"/>
<path d="M135.226 279.079L133.426 271.77H136.161C136.981 271.77 137.707 271.935 138.34 272.264C138.97 272.587 139.492 273.026 139.904 273.582C140.315 274.131 140.604 274.742 140.769 275.414C140.952 276.155 140.959 276.8 140.79 277.35C140.621 277.899 140.295 278.324 139.811 278.626C139.334 278.928 138.717 279.079 137.961 279.079H135.226ZM139.296 275.414C139.179 274.941 138.988 274.525 138.724 274.169C138.458 273.805 138.134 273.524 137.753 273.325C137.37 273.119 136.942 273.016 136.468 273.016H135.196L136.382 277.833H137.654C138.135 277.833 138.516 277.73 138.797 277.525C139.077 277.312 139.257 277.024 139.337 276.66C139.423 276.289 139.409 275.874 139.296 275.414Z" fill="#1F2A31"/>
<path d="M168.042 109.718H165.002L164.462 111.998H167.062V114.378H163.882L163.022 117.958H160.462L161.342 114.378H159.522L158.642 117.958H156.082L156.982 114.378H154.722V111.998H157.542L158.082 109.718H155.702V107.518H158.622L159.542 103.758H162.102L161.162 107.518H163.002L163.922 103.758H166.482L165.542 107.518H168.042V109.718ZM161.922 111.998L162.462 109.718H160.622L160.082 111.998H161.922ZM173.708 103.758H177.248L182.128 117.958H178.768L177.668 114.778H173.248L172.168 117.958H168.808L173.708 103.758ZM177.128 112.518L175.468 107.058L173.768 112.518H177.128ZM186.806 109.838V117.958H183.526V103.758H186.126L192.706 112.118V103.758H195.986V117.958H193.306L186.806 109.838ZM202.282 103.758H205.822L210.702 117.958H207.342L206.242 114.778H201.822L200.742 117.958H197.382L202.282 103.758ZM205.702 112.518L204.042 107.058L202.342 112.518H205.702ZM217.754 118.078C216.687 118.078 215.721 117.878 214.854 117.478C214.001 117.065 213.261 116.518 212.634 115.838C212.021 115.145 211.547 114.371 211.214 113.518C210.881 112.651 210.714 111.758 210.714 110.838C210.714 109.891 210.887 108.991 211.234 108.138C211.594 107.285 212.087 106.525 212.714 105.858C213.354 105.178 214.107 104.645 214.974 104.258C215.841 103.871 216.787 103.678 217.814 103.678C218.867 103.678 219.821 103.885 220.674 104.298C221.541 104.698 222.281 105.245 222.894 105.938C223.521 106.631 224.001 107.411 224.334 108.278C224.667 109.131 224.834 110.005 224.834 110.898C224.834 111.845 224.661 112.745 224.314 113.598C223.967 114.451 223.474 115.218 222.834 115.898C222.194 116.565 221.441 117.098 220.574 117.498C219.721 117.885 218.781 118.078 217.754 118.078ZM214.054 110.878C214.054 111.425 214.134 111.958 214.294 112.478C214.454 112.985 214.687 113.438 214.994 113.838C215.314 114.238 215.707 114.558 216.174 114.798C216.641 115.038 217.174 115.158 217.774 115.158C218.401 115.158 218.947 115.038 219.414 114.798C219.881 114.545 220.267 114.211 220.574 113.798C220.881 113.385 221.107 112.925 221.254 112.418C221.414 111.898 221.494 111.371 221.494 110.838C221.494 110.291 221.414 109.765 221.254 109.258C221.094 108.751 220.854 108.298 220.534 107.898C220.214 107.485 219.821 107.165 219.354 106.938C218.887 106.711 218.361 106.598 217.774 106.598C217.147 106.598 216.601 106.718 216.134 106.958C215.681 107.198 215.294 107.525 214.974 107.938C214.667 108.338 214.434 108.798 214.274 109.318C214.127 109.825 214.054 110.345 214.054 110.878ZM229.743 103.758H233.283L238.163 117.958H234.803L233.703 114.778H229.283L228.203 117.958H224.843L229.743 103.758ZM233.163 112.518L231.503 107.058L229.803 112.518H233.163ZM245.095 118.078C243.962 118.078 242.995 117.891 242.195 117.518C241.395 117.131 240.742 116.611 240.235 115.958C239.742 115.291 239.375 114.538 239.135 113.698C238.908 112.845 238.795 111.951 238.795 111.018V103.758H242.075V111.018C242.075 111.551 242.128 112.071 242.235 112.578C242.342 113.071 242.515 113.511 242.755 113.898C242.995 114.285 243.302 114.591 243.675 114.818C244.062 115.045 244.535 115.158 245.095 115.158C245.668 115.158 246.148 115.045 246.535 114.818C246.922 114.578 247.228 114.265 247.455 113.878C247.682 113.478 247.848 113.031 247.955 112.538C248.062 112.045 248.115 111.538 248.115 111.018V103.758H251.395V111.018C251.395 112.005 251.268 112.925 251.015 113.778C250.775 114.631 250.402 115.385 249.895 116.038C249.388 116.678 248.735 117.178 247.935 117.538C247.148 117.898 246.202 118.078 245.095 118.078ZM253.276 117.958C253.276 117.331 253.323 116.771 253.416 116.278C253.523 115.785 253.69 115.338 253.916 114.938C254.156 114.525 254.47 114.145 254.856 113.798C255.256 113.438 255.756 113.098 256.356 112.778C256.983 112.445 257.503 112.165 257.916 111.938C258.343 111.698 258.683 111.498 258.936 111.338C259.19 111.178 259.363 111.025 259.456 110.878C259.563 110.718 259.616 110.545 259.616 110.358C259.616 110.105 259.556 109.885 259.436 109.698C259.316 109.511 259.143 109.371 258.916 109.278C258.69 109.171 258.41 109.118 258.076 109.118C257.81 109.118 257.556 109.151 257.316 109.218C257.076 109.285 256.843 109.385 256.616 109.518C256.403 109.651 256.196 109.811 255.996 109.998C255.796 110.171 255.596 110.371 255.396 110.598L253.376 108.238C253.603 108.011 253.89 107.785 254.236 107.558C254.596 107.331 255.003 107.131 255.456 106.958C255.91 106.771 256.403 106.625 256.936 106.518C257.483 106.398 258.05 106.338 258.636 106.338C259.596 106.338 260.403 106.485 261.056 106.778C261.723 107.058 262.23 107.458 262.576 107.978C262.923 108.498 263.096 109.111 263.096 109.818C263.096 110.271 263.023 110.671 262.876 111.018C262.743 111.351 262.563 111.651 262.336 111.918C262.11 112.185 261.85 112.425 261.556 112.638C261.276 112.851 260.996 113.045 260.716 113.218C260.396 113.378 260.096 113.538 259.816 113.698C259.536 113.845 259.276 113.991 259.036 114.138C258.796 114.271 258.57 114.418 258.356 114.578C258.156 114.725 257.963 114.891 257.776 115.078H263.316V117.958H253.276ZM269.398 120.938C268.371 120.938 267.445 120.725 266.618 120.298C265.791 119.885 265.158 119.311 264.718 118.578L266.498 116.598C266.885 117.078 267.331 117.458 267.838 117.738C268.358 118.005 268.885 118.138 269.418 118.138C269.831 118.138 270.191 118.058 270.498 117.898C270.805 117.725 271.045 117.491 271.218 117.198C271.391 116.905 271.478 116.558 271.478 116.158C271.478 115.785 271.398 115.451 271.238 115.158C271.078 114.865 270.858 114.645 270.578 114.498C270.298 114.338 269.971 114.258 269.598 114.258C269.238 114.258 268.898 114.338 268.578 114.498C268.271 114.658 268.031 114.885 267.858 115.178H265.078L266.738 106.538H273.798V109.458H269.058L268.658 111.878C268.738 111.785 268.891 111.705 269.118 111.638C269.358 111.558 269.671 111.518 270.058 111.518C270.978 111.518 271.791 111.711 272.498 112.098C273.205 112.485 273.758 113.025 274.158 113.718C274.558 114.411 274.758 115.205 274.758 116.098C274.758 117.058 274.525 117.898 274.058 118.618C273.605 119.351 272.978 119.918 272.178 120.318C271.378 120.731 270.451 120.938 269.398 120.938Z" fill="#F2F5E3"/>
</svg>
