<svg width="233" height="112" viewBox="0 0 233 112" fill="none" xmlns="http://www.w3.org/2000/svg">
<path d="M130.622 40.7127L117.924 0L112.929 6.94209L95.235 40.7127L61.0805 41.4179L57.8584 47.0225L61.1443 50.6932C75.6221 66.8686 81.4468 73.02 84.1443 75.3578L78.5329 111.997L112.929 95.0547L147.133 111.997L153.28 108.594L141.556 74.2969L168.273 47.0691L130.622 40.7127Z" fill="#EE920F"/>
<path d="M117.926 91.078L82.5686 108.592L88.1707 70.724C85.0373 67.9015 78.3596 60.7187 65.4649 46.311L61.0831 41.4179L99.6365 34.9077L117.926 0L136.215 34.9077L175.135 41.4785L147.518 69.6243L153.282 108.594L117.926 91.078Z" fill="#FFFF5A"/>
<path d="M117.922 90.0677L83.7163 107.01L89.1363 70.3708C86.4387 68.0329 80.614 61.8831 66.1363 45.7061L62.8503 42.0355L100.227 35.7241L117.921 1.95349L135.614 35.7241L173.266 42.0805L146.549 69.3082L152.126 107.007L117.922 90.0677Z" fill="#FFE52A"/>
<path d="M124.165 19.7333L117.924 7.8219L110.559 21.8816L124.165 19.7333Z" fill="#FFB40F"/>
<path d="M126.868 24.8966L106.393 29.8255L102.016 38.1796L68.168 43.893C68.168 43.893 77.7845 54.6362 84.7704 62.0908L133.824 38.1796L126.868 24.8966Z" fill="#FFFF5A"/>
<path d="M156.258 41.9677L87.1774 102.262L117.924 87.0298L148.673 102.262L143.659 68.3721L167.677 43.8954L156.258 41.9677Z" fill="#FFB40F"/>
<path d="M45.0026 68.4022L37.2368 43.5015L34.1813 47.7469L23.3599 68.4022L2.47063 68.8341L0.5 72.2624L2.50954 74.507C11.3634 84.4005 14.9264 88.1628 16.5763 89.5919L13.1441 112.001L34.1813 101.638L55.1017 112.001L58.8608 109.92L51.6897 88.9426L68.0306 72.2888L45.0026 68.4022Z" fill="#EE920F"/>
<path d="M37.2371 99.2062L15.6116 109.918L19.0376 86.7574C17.1214 85.0316 13.037 80.637 5.14979 71.8262L2.46936 68.8329L26.05 64.8516L37.2355 43.5018L48.4211 64.8516L72.2259 68.8701L55.3355 86.0832L58.8611 109.918L37.2371 99.2062Z" fill="#FFFF5A"/>
<path d="M37.2363 98.5872L16.3159 108.95L19.6314 86.5408C17.9814 85.1116 14.42 81.3493 5.5646 71.4558L3.55505 69.2112L26.415 65.351L37.2363 44.6957L48.0576 65.351L71.0857 69.2392L54.7447 85.893L58.1552 108.951L37.2363 98.5872Z" fill="#FFE52A"/>
<path d="M41.0486 55.5691L37.2319 48.2837L32.7272 56.8832L41.0486 55.5691Z" fill="#FFB40F"/>
<path d="M42.7057 58.7292L30.1831 61.7444L27.5057 66.8534L6.80481 70.3486C6.80481 70.3486 12.6856 76.9194 16.9599 81.4785L46.963 66.8534L42.7057 58.7292Z" fill="#FFFF5A"/>
<path d="M60.6784 69.1694L18.4266 106.047L37.2332 96.7311L56.0398 106.047L52.9733 85.3184L67.6628 70.3484L60.6784 69.1694Z" fill="#FFB40F"/>
<path d="M205.277 68.4022L197.512 43.5015L194.456 47.7469L183.635 68.4022L162.746 68.8341L160.775 72.2624L162.784 74.507C171.64 84.4005 175.201 88.1628 176.851 89.5919L173.419 112.001L194.456 101.638L215.377 112.001L219.136 109.92L211.965 88.9426L228.306 72.2888L205.277 68.4022Z" fill="#EE920F"/>
<path d="M197.513 99.2062L175.888 109.918L179.314 86.7574C177.398 85.0316 173.313 80.637 165.426 71.8262L162.746 68.8329L186.326 64.8516L197.512 43.5018L208.698 64.8516L232.501 68.8701L215.61 86.0848L219.136 109.92L197.513 99.2062Z" fill="#FFFF5A"/>
<path d="M197.514 98.5872L176.594 108.95L179.909 86.5408C178.26 85.1116 174.698 81.3493 165.843 71.4558L163.833 69.2112L186.693 65.351L197.514 44.6957L208.336 65.351L231.364 69.2392L215.023 85.893L218.433 108.951L197.514 98.5872Z" fill="#FFE52A"/>
<path d="M201.326 55.5691L197.509 48.2837L193.005 56.8832L201.326 55.5691Z" fill="#FFB40F"/>
<path d="M202.978 58.7292L190.455 61.7444L187.778 66.8534L167.077 70.3486C167.077 70.3486 172.958 76.9194 177.232 81.4785L207.235 66.8534L202.978 58.7292Z" fill="#FFFF5A"/>
<path d="M220.957 69.1694L178.704 106.047L197.511 96.7311L216.317 106.047L213.251 85.3184L227.94 70.3484L220.957 69.1694Z" fill="#FFB40F"/>
</svg>
