<svg width="194" height="193" viewBox="0 0 194 193" fill="none" xmlns="http://www.w3.org/2000/svg">
<g filter="url(#filter0_d_201_583)">
<mask id="path-1-inside-1_201_583" fill="white">
<path d="M19.7782 42.6049C21.5212 47.3936 26.8165 49.8627 31.6053 48.1199C36.2445 46.4314 38.707 41.4089 37.2716 36.7429L37.1203 36.2929L136.837 -0.000995897L139.993 8.67005C137.599 9.54152 136.363 12.1889 137.235 14.5833C138.079 16.9029 140.591 18.1345 142.924 17.4168L143.149 17.3411L145.779 24.5668C143.385 25.4383 142.149 28.0857 143.021 30.4801C143.865 32.7997 146.377 34.0313 148.71 33.3135L148.935 33.2379L151.565 40.4636C149.171 41.3351 147.935 43.9825 148.807 46.3768C149.651 48.6965 152.163 49.9281 154.496 49.2103L154.721 49.1347L157.351 56.3604C154.956 57.2318 153.721 59.8793 154.593 62.2736C155.437 64.5933 157.949 65.8248 160.282 65.1071L160.507 65.0314L163.137 72.2571C160.742 73.1286 159.507 75.7761 160.379 78.1704C161.223 80.49 163.735 81.7216 166.068 81.0039L166.293 80.9282L169.449 89.5992L69.7321 125.893C67.9891 121.104 62.6939 118.635 57.9051 120.378C53.1164 122.121 50.6471 127.416 52.39 132.205L-47.3257 168.499L-50.4817 159.828C-48.0874 158.956 -46.8533 156.308 -47.7248 153.914C-48.5692 151.594 -51.0798 150.363 -53.4127 151.081L-53.6377 151.157L-56.2676 143.931C-53.8733 143.059 -52.6393 140.411 -53.5107 138.017C-54.3551 135.698 -56.8658 134.467 -59.1986 135.184L-59.4236 135.26L-62.0536 128.034C-59.6593 127.163 -58.4252 124.515 -59.2967 122.12C-60.1411 119.801 -62.6517 118.57 -64.9846 119.287L-65.2096 119.363L-67.8395 112.137C-65.4452 111.266 -64.2112 108.618 -65.0826 106.223C-65.927 103.904 -68.4377 102.673 -70.7705 103.391L-70.9955 103.466L-73.6255 96.2405C-71.2312 95.369 -69.9971 92.7211 -70.8686 90.3267C-71.7129 88.0073 -74.2236 86.7763 -76.5565 87.4938L-76.7815 87.5695L-79.9375 78.8984L19.7782 42.6049Z"/>
</mask>
<path d="M19.7782 42.6049C21.5212 47.3936 26.8165 49.8627 31.6053 48.1199C36.2445 46.4314 38.707 41.4089 37.2716 36.7429L37.1203 36.2929L136.837 -0.000995897L139.993 8.67005C137.599 9.54152 136.363 12.1889 137.235 14.5833C138.079 16.9029 140.591 18.1345 142.924 17.4168L143.149 17.3411L145.779 24.5668C143.385 25.4383 142.149 28.0857 143.021 30.4801C143.865 32.7997 146.377 34.0313 148.71 33.3135L148.935 33.2379L151.565 40.4636C149.171 41.3351 147.935 43.9825 148.807 46.3768C149.651 48.6965 152.163 49.9281 154.496 49.2103L154.721 49.1347L157.351 56.3604C154.956 57.2318 153.721 59.8793 154.593 62.2736C155.437 64.5933 157.949 65.8248 160.282 65.1071L160.507 65.0314L163.137 72.2571C160.742 73.1286 159.507 75.7761 160.379 78.1704C161.223 80.49 163.735 81.7216 166.068 81.0039L166.293 80.9282L169.449 89.5992L69.7321 125.893C67.9891 121.104 62.6939 118.635 57.9051 120.378C53.1164 122.121 50.6471 127.416 52.39 132.205L-47.3257 168.499L-50.4817 159.828C-48.0874 158.956 -46.8533 156.308 -47.7248 153.914C-48.5692 151.594 -51.0798 150.363 -53.4127 151.081L-53.6377 151.157L-56.2676 143.931C-53.8733 143.059 -52.6393 140.411 -53.5107 138.017C-54.3551 135.698 -56.8658 134.467 -59.1986 135.184L-59.4236 135.26L-62.0536 128.034C-59.6593 127.163 -58.4252 124.515 -59.2967 122.12C-60.1411 119.801 -62.6517 118.57 -64.9846 119.287L-65.2096 119.363L-67.8395 112.137C-65.4452 111.266 -64.2112 108.618 -65.0826 106.223C-65.927 103.904 -68.4377 102.673 -70.7705 103.391L-70.9955 103.466L-73.6255 96.2405C-71.2312 95.369 -69.9971 92.7211 -70.8686 90.3267C-71.7129 88.0073 -74.2236 86.7763 -76.5565 87.4938L-76.7815 87.5695L-79.9375 78.8984L19.7782 42.6049Z" fill="#410173"/>
<path d="M19.7782 42.6049L20.5008 42.3419L20.2378 41.6193L19.5152 41.8823L19.7782 42.6049ZM31.6053 48.1199L31.8682 48.8425L31.8683 48.8425L31.6053 48.1199ZM37.2716 36.7429L38.0066 36.5168L38.0036 36.5073L38.0005 36.4978L37.2716 36.7429ZM37.1203 36.2929L36.8573 35.5703L36.1523 35.8269L36.3914 36.538L37.1203 36.2929ZM136.837 -0.000995897L137.56 -0.263994L137.297 -0.986576L136.574 -0.723578L136.837 -0.000995897ZM139.993 8.67005L140.256 9.39264L140.979 9.12964L140.716 8.40706L139.993 8.67005ZM137.235 14.5833L136.512 14.8462L136.512 14.8463L137.235 14.5833ZM142.924 17.4168L143.15 18.1517L143.16 18.1488L143.169 18.1456L142.924 17.4168ZM143.149 17.3411L143.872 17.0781L143.615 16.3731L142.904 16.6123L143.149 17.3411ZM145.779 24.5668L146.042 25.2894L146.764 25.0264L146.501 24.3038L145.779 24.5668ZM143.021 30.4801L142.298 30.743L142.298 30.7431L143.021 30.4801ZM148.71 33.3135L148.936 34.0485L148.946 34.0456L148.955 34.0424L148.71 33.3135ZM148.935 33.2379L149.657 32.9749L149.401 32.2699L148.69 32.509L148.935 33.2379ZM151.565 40.4636L151.828 41.1862L152.55 40.9232L152.287 40.2006L151.565 40.4636ZM148.807 46.3768L148.084 46.6398L148.084 46.6398L148.807 46.3768ZM154.496 49.2103L154.722 49.9453L154.731 49.9423L154.741 49.9392L154.496 49.2103ZM154.721 49.1347L155.443 48.8717L155.187 48.1667L154.476 48.4058L154.721 49.1347ZM157.351 56.3604L157.614 57.083L158.336 56.82L158.073 56.0974L157.351 56.3604ZM154.593 62.2736L153.87 62.5365L153.87 62.5366L154.593 62.2736ZM160.282 65.1071L160.508 65.842L160.517 65.8391L160.527 65.8359L160.282 65.1071ZM160.507 65.0314L161.229 64.7684L160.973 64.0635L160.262 64.3026L160.507 65.0314ZM163.137 72.2571L163.4 72.9797L164.122 72.7167L163.859 71.9941L163.137 72.2571ZM160.379 78.1704L159.656 78.4333L159.656 78.4334L160.379 78.1704ZM166.068 81.0039L166.294 81.7388L166.303 81.7359L166.313 81.7327L166.068 81.0039ZM166.293 80.9282L167.015 80.6652L166.759 79.9602L166.048 80.1993L166.293 80.9282ZM169.449 89.5992L169.712 90.3218L170.434 90.0588L170.171 89.3362L169.449 89.5992ZM69.7321 125.893L69.0095 126.156L69.2725 126.879L69.9951 126.616L69.7321 125.893ZM57.9051 120.378L57.6421 119.655L57.642 119.656L57.9051 120.378ZM52.39 132.205L52.653 132.928L53.3756 132.665L53.1126 131.942L52.39 132.205ZM-47.3257 168.499L-48.0483 168.762L-47.7853 169.484L-47.0627 169.221L-47.3257 168.499ZM-50.4817 159.828L-50.7447 159.105L-51.4673 159.368L-51.2043 160.091L-50.4817 159.828ZM-47.7248 153.914L-47.0022 153.651L-47.0022 153.651L-47.7248 153.914ZM-53.4127 151.081L-53.6388 150.346L-53.6483 150.349L-53.6578 150.352L-53.4127 151.081ZM-53.6377 151.157L-54.3603 151.42L-54.1037 152.125L-53.3926 151.885L-53.6377 151.157ZM-56.2676 143.931L-56.5307 143.208L-57.2532 143.471L-56.9902 144.194L-56.2676 143.931ZM-53.5107 138.017L-52.7882 137.754L-52.7882 137.754L-53.5107 138.017ZM-59.1986 135.184L-59.4247 134.449L-59.4343 134.452L-59.4437 134.455L-59.1986 135.184ZM-59.4236 135.26L-60.1462 135.523L-59.8896 136.228L-59.1786 135.989L-59.4236 135.26ZM-62.0536 128.034L-62.3166 127.312L-63.0392 127.575L-62.7762 128.297L-62.0536 128.034ZM-59.2967 122.12L-58.5741 121.857L-58.5741 121.857L-59.2967 122.12ZM-64.9846 119.287L-65.2107 118.552L-65.2202 118.555L-65.2297 118.559L-64.9846 119.287ZM-65.2096 119.363L-65.9322 119.626L-65.6756 120.331L-64.9645 120.092L-65.2096 119.363ZM-67.8395 112.137L-68.1026 111.415L-68.8251 111.678L-68.5621 112.4L-67.8395 112.137ZM-65.0826 106.223L-64.3601 105.96L-64.3601 105.96L-65.0826 106.223ZM-70.7705 103.391L-70.9966 102.656L-71.0062 102.659L-71.0156 102.662L-70.7705 103.391ZM-70.9955 103.466L-71.7181 103.729L-71.4615 104.434L-70.7505 104.195L-70.9955 103.466ZM-73.6255 96.2405L-73.8885 95.518L-74.6111 95.781L-74.3481 96.5035L-73.6255 96.2405ZM-70.8686 90.3267L-70.146 90.0637L-70.146 90.0637L-70.8686 90.3267ZM-76.5565 87.4938L-76.7826 86.7589L-76.7921 86.7618L-76.8016 86.765L-76.5565 87.4938ZM-76.7815 87.5695L-77.5041 87.8325L-77.2475 88.5374L-76.5364 88.2983L-76.7815 87.5695ZM-79.9375 78.8984L-80.2005 78.1759L-80.9231 78.4389L-80.6601 79.1614L-79.9375 78.8984ZM19.7782 42.6049L19.0556 42.8679C20.9439 48.0557 26.6805 50.7305 31.8682 48.8425L31.6053 48.1199L31.3423 47.3973C26.9526 48.9949 22.0985 46.7315 20.5008 42.3419L19.7782 42.6049ZM31.6053 48.1199L31.8683 48.8425C36.8943 47.0132 39.5618 41.5723 38.0066 36.5168L37.2716 36.7429L36.5367 36.969C37.8522 41.2456 35.5947 45.8496 31.3423 47.3974L31.6053 48.1199ZM37.2716 36.7429L38.0005 36.4978L37.8492 36.0478L37.1203 36.2929L36.3914 36.538L36.5428 36.988L37.2716 36.7429ZM37.1203 36.2929L37.3833 37.0155L137.1 0.721586L136.837 -0.000995897L136.574 -0.723578L36.8573 35.5703L37.1203 36.2929ZM136.837 -0.000995897L136.114 0.262002L139.27 8.93305L139.993 8.67005L140.716 8.40706L137.56 -0.263994L136.837 -0.000995897ZM139.993 8.67005L139.73 7.94747C136.937 8.96413 135.496 12.0527 136.512 14.8462L137.235 14.5833L137.957 14.3203C137.231 12.3252 138.261 10.1189 140.256 9.39264L139.993 8.67005ZM137.235 14.5833L136.512 14.8463C137.497 17.5527 140.427 18.9893 143.15 18.1517L142.924 17.4168L142.698 16.6818C140.754 17.2797 138.661 16.2532 137.957 14.3203L137.235 14.5833ZM142.924 17.4168L143.169 18.1456L143.394 18.07L143.149 17.3411L142.904 16.6123L142.679 16.6879L142.924 17.4168ZM143.149 17.3411L142.426 17.6041L145.056 24.8298L145.779 24.5668L146.501 24.3038L143.872 17.0781L143.149 17.3411ZM145.779 24.5668L145.516 23.8442C142.723 24.8609 141.282 27.9495 142.298 30.743L143.021 30.4801L143.743 30.2171C143.017 28.222 144.046 26.0157 146.042 25.2894L145.779 24.5668ZM143.021 30.4801L142.298 30.7431C143.283 33.4495 146.213 34.8861 148.936 34.0485L148.71 33.3135L148.484 32.5786C146.54 33.1765 144.447 32.1499 143.743 30.2171L143.021 30.4801ZM148.71 33.3135L148.955 34.0424L149.18 33.9667L148.935 33.2379L148.69 32.509L148.465 32.5847L148.71 33.3135ZM148.935 33.2379L148.212 33.5009L150.842 40.7266L151.565 40.4636L152.287 40.2006L149.657 32.9749L148.935 33.2379ZM151.565 40.4636L151.302 39.741C148.509 40.7577 147.068 43.8463 148.084 46.6398L148.807 46.3768L149.529 46.1139C148.803 44.1187 149.832 41.9124 151.828 41.1862L151.565 40.4636ZM148.807 46.3768L148.084 46.6398C149.069 49.3463 151.999 50.7829 154.722 49.9453L154.496 49.2103L154.27 48.4753C152.326 49.0733 150.233 48.0467 149.529 46.1138L148.807 46.3768ZM154.496 49.2103L154.741 49.9392L154.966 49.8635L154.721 49.1347L154.476 48.4058L154.251 48.4815L154.496 49.2103ZM154.721 49.1347L153.998 49.3976L156.628 56.6234L157.351 56.3604L158.073 56.0974L155.443 48.8717L154.721 49.1347ZM157.351 56.3604L157.088 55.6378C154.295 56.6544 152.854 59.743 153.87 62.5365L154.593 62.2736L155.315 62.0107C154.589 60.0155 155.618 57.8092 157.614 57.083L157.351 56.3604ZM154.593 62.2736L153.87 62.5366C154.855 65.2431 157.785 66.6796 160.508 65.842L160.282 65.1071L160.056 64.3721C158.112 64.9701 156.019 63.9435 155.315 62.0106L154.593 62.2736ZM160.282 65.1071L160.527 65.8359L160.752 65.7603L160.507 65.0314L160.262 64.3026L160.037 64.3782L160.282 65.1071ZM160.507 65.0314L159.784 65.2944L162.414 72.5201L163.137 72.2571L163.859 71.9941L161.229 64.7684L160.507 65.0314ZM163.137 72.2571L162.874 71.5346C160.081 72.5512 158.64 75.6398 159.656 78.4333L160.379 78.1704L161.101 77.9074C160.375 75.9123 161.404 73.706 163.4 72.9797L163.137 72.2571ZM160.379 78.1704L159.656 78.4334C160.641 81.1398 163.571 82.5764 166.294 81.7388L166.068 81.0039L165.842 80.2689C163.898 80.8668 161.805 79.8402 161.101 77.9074L160.379 78.1704ZM166.068 81.0039L166.313 81.7327L166.538 81.657L166.293 80.9282L166.048 80.1993L165.823 80.275L166.068 81.0039ZM166.293 80.9282L165.57 81.1912L168.726 89.8622L169.449 89.5992L170.171 89.3362L167.015 80.6652L166.293 80.9282ZM169.449 89.5992L169.186 88.8767L69.4691 125.171L69.7321 125.893L69.9951 126.616L169.712 90.3218L169.449 89.5992ZM69.7321 125.893L70.4547 125.63C68.5665 120.442 62.83 117.767 57.6421 119.655L57.9051 120.378L58.1681 121.101C62.5578 119.503 67.4118 121.766 69.0095 126.156L69.7321 125.893ZM57.9051 120.378L57.642 119.656C52.4544 121.544 49.7792 127.28 51.6674 132.468L52.39 132.205L53.1126 131.942C51.5149 127.552 53.7785 122.699 58.1681 121.101L57.9051 120.378ZM52.39 132.205L52.127 131.483L-47.5887 167.776L-47.3257 168.499L-47.0627 169.221L52.653 132.928L52.39 132.205ZM-47.3257 168.499L-46.6031 168.236L-49.7591 159.565L-50.4817 159.828L-51.2043 160.091L-48.0483 168.762L-47.3257 168.499ZM-50.4817 159.828L-50.2187 160.55C-47.4252 159.533 -45.9855 156.444 -47.0022 153.651L-47.7248 153.914L-48.4474 154.177C-47.7211 156.172 -48.7496 158.379 -50.7447 159.105L-50.4817 159.828ZM-47.7248 153.914L-47.0022 153.651C-47.9874 150.945 -50.9164 149.509 -53.6388 150.346L-53.4127 151.081L-53.1866 151.816C-51.2433 151.218 -49.151 152.244 -48.4473 154.177L-47.7248 153.914ZM-53.4127 151.081L-53.6578 150.352L-53.8828 150.428L-53.6377 151.157L-53.3926 151.885L-53.1676 151.81L-53.4127 151.081ZM-53.6377 151.157L-52.9151 150.894L-55.5451 143.668L-56.2676 143.931L-56.9902 144.194L-54.3603 151.42L-53.6377 151.157ZM-56.2676 143.931L-56.0046 144.653C-53.2111 143.637 -51.7715 140.547 -52.7882 137.754L-53.5107 138.017L-54.2333 138.28C-53.507 140.275 -54.5356 142.482 -56.5307 143.208L-56.2676 143.931ZM-53.5107 138.017L-52.7882 137.754C-53.7733 135.048 -56.7024 133.612 -59.4247 134.449L-59.1986 135.184L-58.9726 135.919C-57.0292 135.321 -54.9369 136.347 -54.2333 138.28L-53.5107 138.017ZM-59.1986 135.184L-59.4437 134.455L-59.6687 134.531L-59.4236 135.26L-59.1786 135.989L-58.9536 135.913L-59.1986 135.184ZM-59.4236 135.26L-58.7011 134.997L-61.331 127.771L-62.0536 128.034L-62.7762 128.297L-60.1462 135.523L-59.4236 135.26ZM-62.0536 128.034L-61.7906 128.757C-58.9971 127.74 -57.5574 124.651 -58.5741 121.857L-59.2967 122.12L-60.0193 122.383C-59.293 124.379 -60.3215 126.585 -62.3166 127.312L-62.0536 128.034ZM-59.2967 122.12L-58.5741 121.857C-59.5593 119.151 -62.4883 117.715 -65.2107 118.552L-64.9846 119.287L-64.7585 120.022C-62.8151 119.425 -60.7228 120.451 -60.0193 122.383L-59.2967 122.12ZM-64.9846 119.287L-65.2297 118.559L-65.4547 118.634L-65.2096 119.363L-64.9645 120.092L-64.7395 120.016L-64.9846 119.287ZM-65.2096 119.363L-64.487 119.1L-67.117 111.874L-67.8395 112.137L-68.5621 112.4L-65.9322 119.626L-65.2096 119.363ZM-67.8395 112.137L-67.5765 112.86C-64.783 111.843 -63.3434 108.754 -64.3601 105.96L-65.0826 106.223L-65.8052 106.486C-65.0789 108.482 -66.1075 110.688 -68.1026 111.415L-67.8395 112.137ZM-65.0826 106.223L-64.3601 105.96C-65.3452 103.254 -68.2743 101.818 -70.9966 102.656L-70.7705 103.391L-70.5445 104.126C-68.6011 103.528 -66.5088 104.554 -65.8052 106.487L-65.0826 106.223ZM-70.7705 103.391L-71.0156 102.662L-71.2406 102.737L-70.9955 103.466L-70.7505 104.195L-70.5255 104.119L-70.7705 103.391ZM-70.9955 103.466L-70.273 103.203L-72.9029 95.9775L-73.6255 96.2405L-74.3481 96.5035L-71.7181 103.729L-70.9955 103.466ZM-73.6255 96.2405L-73.3625 96.9631C-70.569 95.9462 -69.1293 92.857 -70.146 90.0637L-70.8686 90.3267L-71.5912 90.5897C-70.8649 92.5852 -71.8934 94.7917 -73.8885 95.518L-73.6255 96.2405ZM-70.8686 90.3267L-70.146 90.0637C-71.1312 87.3575 -74.0602 85.9215 -76.7826 86.7589L-76.5565 87.4938L-76.3304 88.2288C-74.387 87.631 -72.2947 88.6571 -71.5912 90.5898L-70.8686 90.3267ZM-76.5565 87.4938L-76.8016 86.765L-77.0266 86.8406L-76.7815 87.5695L-76.5364 88.2983L-76.3114 88.2227L-76.5565 87.4938ZM-76.7815 87.5695L-76.0589 87.3065L-79.2149 78.6354L-79.9375 78.8984L-80.6601 79.1614L-77.5041 87.8325L-76.7815 87.5695ZM-79.9375 78.8984L-79.6745 79.621L20.0412 43.3275L19.7782 42.6049L19.5152 41.8823L-80.2005 78.1759L-79.9375 78.8984Z" fill="black" mask="url(#path-1-inside-1_201_583)"/>
<g clip-path="url(#clip0_201_583)">
<rect x="-56.2852" y="89.9297" width="193.777" height="58.4406" transform="rotate(-20 -56.2852 89.9297)" fill="#410173"/>
<line x1="33.28" y1="51.6021" x2="59.5798" y2="123.86" stroke="#C2C2C2" stroke-width="0.768956" stroke-dasharray="3.08 3.08"/>
<path d="M-41.6659 100.182C-42.1083 100.343 -42.5232 100.389 -42.9109 100.32C-43.2958 100.245 -43.6383 100.065 -43.9383 99.778C-44.2398 99.487 -44.481 99.093 -44.662 98.5959C-44.8414 98.103 -44.9104 97.651 -44.8692 97.2401C-44.8295 96.8249 -44.6861 96.465 -44.4392 96.1604C-44.188 95.8543 -43.8371 95.6192 -43.3863 95.4551C-42.9397 95.2926 -42.5227 95.2458 -42.135 95.3146C-41.7474 95.3834 -41.4028 95.5633 -41.1013 95.8543C-40.8013 96.1411 -40.5609 96.5331 -40.3799 97.0302C-40.2005 97.5231 -40.1307 97.9771 -40.1704 98.3923C-40.2101 98.8075 -40.3556 99.1682 -40.6067 99.4743C-40.8579 99.7804 -41.211 100.016 -41.6659 100.182ZM-41.9143 99.4994C-41.4888 99.3445 -41.2087 99.0851 -41.074 98.7212C-40.9366 98.3516 -40.9699 97.8866 -41.1738 97.3263C-41.367 96.7955 -41.631 96.424 -41.9659 96.2119C-42.3022 95.9956 -42.6937 95.9688 -43.1402 96.1313C-43.5573 96.2831 -43.8345 96.5438 -43.9719 96.9135C-44.1108 97.2789 -44.0783 97.7418 -43.8744 98.3021C-43.6827 98.8286 -43.4187 99.2001 -43.0824 99.4164C-42.746 99.6327 -42.3567 99.6603 -41.9143 99.4994ZM-38.9248 99.1126L-38.7626 93.8367L-37.8906 93.5193L-34.3751 97.4566L-35.1713 97.7464L-36.0144 96.7866L-38.1187 97.5525L-38.1476 98.8297L-38.9248 99.1126ZM-38.059 95.1406L-38.0982 96.8223L-36.4931 96.2381L-37.5978 94.9727C-37.7426 94.8108 -37.8987 94.6243 -38.0662 94.4133C-38.0561 94.6768 -38.0537 94.9193 -38.059 95.1406ZM-34.211 95.5291L-35.2874 92.5718L-34.5354 92.2981L-33.4775 95.2049C-33.3364 95.5924 -33.1257 95.8306 -32.8453 95.9194C-32.5664 96.004 -32.2458 95.9803 -31.8835 95.8484C-31.4665 95.6966 -31.2005 95.4901 -31.0857 95.2289C-30.9667 94.9661 -30.9677 94.6683 -31.0888 94.3355L-32.1468 91.4287L-31.4012 91.1573L-30.3248 94.1146C-30.1991 94.4601 -30.1632 94.7881 -30.2171 95.0988C-30.2725 95.4052 -30.4195 95.6829 -30.6581 95.932C-30.8924 96.1795 -31.2223 96.3806 -31.6478 96.5355C-32.2502 96.7548 -32.7778 96.7798 -33.2306 96.6107C-33.6849 96.4373 -34.0117 96.0768 -34.211 95.5291ZM-24.5063 93.9362C-24.9571 94.1003 -25.3757 94.1429 -25.7622 94.0641C-26.1487 93.9854 -26.4906 93.7997 -26.7879 93.5072C-27.0852 93.2146 -27.322 92.8261 -27.4983 92.3417C-27.6793 91.8446 -27.7449 91.389 -27.6952 90.9749C-27.6471 90.5567 -27.4967 90.1966 -27.244 89.8947C-26.9871 89.5913 -26.6396 89.3598 -26.2014 89.2004C-25.8223 89.0624 -25.4671 89.0094 -25.1357 89.0415C-24.8017 89.0678 -24.5076 89.1683 -24.2532 89.3428C-23.9946 89.5159 -23.7867 89.7527 -23.6296 90.0533L-24.3488 90.4368C-24.5304 90.1212 -24.7636 89.9198 -25.0482 89.8326C-25.3286 89.7438 -25.6331 89.7592 -25.9617 89.8788C-26.4166 90.0444 -26.7027 90.3203 -26.8197 90.7064C-26.9342 91.0867 -26.8971 91.536 -26.7085 92.0542C-26.503 92.6187 -26.2267 92.9976 -25.8797 93.1909C-25.5341 93.38 -25.1549 93.3994 -24.7421 93.2492C-24.3756 93.1158 -24.12 92.9202 -23.9753 92.6624C-23.8279 92.3988 -23.7836 92.1012 -23.8423 91.7695L-23.0604 91.578C-22.9768 91.9387 -22.984 92.2729 -23.0819 92.5805C-23.1757 92.8866 -23.3449 93.1557 -23.5896 93.3879C-23.8342 93.62 -24.1398 93.8028 -24.5063 93.9362ZM-21.8515 92.8984L-21.6893 87.6225L-20.8173 87.3051L-17.3017 91.2424L-18.098 91.5322L-18.9411 90.5724L-21.0453 91.3383L-21.0742 92.6155L-21.8515 92.8984ZM-20.9857 88.9264L-21.0248 90.6081L-19.4198 90.0239L-20.5244 88.7586C-20.6692 88.5966 -20.8254 88.4101 -20.9928 88.1991C-20.9828 88.4626 -20.9804 88.7051 -20.9857 88.9264ZM-16.3079 90.8807L-17.9845 86.2741L-16.7776 85.8348L-14.2879 88.9003L-14.3384 84.947L-13.1568 84.5169L-11.4801 89.1235L-12.2194 89.3926L-13.6276 85.4254L-13.5844 89.8894L-14.2226 90.1217L-17.025 86.6691L-15.5875 90.6185L-16.3079 90.8807ZM-9.99695 88.5837L-11.6736 83.9771L-9.56304 83.2089C-9.05752 83.0249 -8.61897 83.0108 -8.2474 83.1666C-7.87162 83.3208 -7.60553 83.6128 -7.44913 84.0425C-7.2912 84.4764 -7.3087 84.874 -7.50163 85.2352C-7.69189 85.5907 -8.03978 85.8604 -8.5453 86.0444L-9.89127 86.5343L-9.24498 88.31L-9.99695 88.5837ZM-9.29627 83.8632L-10.6801 84.3669L-10.1282 85.8835L-8.74428 85.3798C-8.50837 85.2939 -8.33893 85.1631 -8.23595 84.9872C-8.1345 84.8072 -8.13054 84.5887 -8.22408 84.3317C-8.31607 84.0789 -8.45669 83.9154 -8.64592 83.8412C-8.83515 83.7669 -9.05194 83.7743 -9.29627 83.8632ZM-5.76236 85.1747L-6.83874 82.2173L-6.08677 81.9436L-5.02879 84.8504C-4.88772 85.238 -4.677 85.4762 -4.3966 85.5649C-4.11774 85.6495 -3.79717 85.6258 -3.43487 85.494C-3.01781 85.3422 -2.75187 85.1357 -2.63704 84.8744C-2.518 84.6116 -2.51905 84.3138 -2.64018 83.981L-3.69816 81.0743L-2.95251 80.8029L-1.87613 83.7602C-1.7504 84.1056 -1.71449 84.4337 -1.7684 84.7443C-1.82385 85.0507 -1.97084 85.3285 -2.20939 85.5775C-2.44372 85.825 -2.77363 86.0262 -3.19911 86.181C-3.80153 86.4003 -4.32913 86.4254 -4.7819 86.2562C-5.23621 86.0828 -5.56303 85.7223 -5.76236 85.1747ZM1.48647 80.7759C1.37264 80.5024 1.20119 80.3263 0.97212 80.2475C0.743054 80.1686 0.483182 80.1821 0.192505 80.2879C-0.0855345 80.3891 -0.277577 80.5234 -0.383623 80.6908C-0.485456 80.8567 -0.50264 81.0323 -0.435175 81.2177C-0.376909 81.3778 -0.282464 81.4865 -0.151839 81.5439C-0.0212136 81.6013 0.145405 81.6266 0.348018 81.6196C0.550632 81.6127 0.783307 81.59 1.04604 81.5516C1.32142 81.5086 1.58838 81.495 1.84692 81.5106C2.10546 81.5262 2.33433 81.598 2.53354 81.7258C2.73695 81.8522 2.89309 82.0649 3.00196 82.364C3.15222 82.7768 3.11748 83.1664 2.89774 83.5326C2.68221 83.8973 2.29219 84.1824 1.72769 84.3878C1.35697 84.5228 1.0138 84.5761 0.698192 84.5478C0.386792 84.5181 0.116736 84.4184 -0.111974 84.2488C-0.338004 84.0734 -0.507558 83.8369 -0.620636 83.5394L0.0778776 83.1778C0.20858 83.4976 0.398617 83.7051 0.647988 83.8004C0.901572 83.8942 1.19055 83.882 1.51493 83.764C1.80561 83.6582 2.01948 83.5183 2.15655 83.3444C2.29362 83.1704 2.31615 82.9571 2.22416 82.7043C2.15976 82.5274 2.06224 82.4102 1.93162 82.3528C1.80521 82.2939 1.65563 82.2696 1.4829 82.28C1.30863 82.2862 1.12114 82.3019 0.920452 82.3273C0.553156 82.3798 0.228173 82.3979 -0.0544974 82.3815C-0.334488 82.3594 -0.569107 82.285 -0.758354 82.1583C-0.947601 82.0315 -1.09206 81.8313 -1.19172 81.5574C-1.28372 81.3047 -1.29758 81.0569 -1.23331 80.814C-1.17056 80.567 -1.03696 80.3442 -0.832486 80.1457C-0.628014 79.9473 -0.361483 79.7882 -0.0328908 79.6686C0.502124 79.4739 0.965182 79.4485 1.35628 79.5924C1.74585 79.7321 2.02706 80.0066 2.19993 80.416L1.48647 80.7759ZM4.63347 84.2891L4.49317 83.9037L4.61323 83.86C4.72698 83.8186 4.79494 83.7628 4.81714 83.6927C4.84087 83.6268 4.83663 83.5497 4.80443 83.4612L4.71933 83.2274L4.35914 83.3585L4.07625 82.5812L4.80926 82.3145L5.20256 83.395C5.27769 83.6014 5.27391 83.7746 5.19122 83.9144C5.11006 84.0584 4.97259 84.1657 4.77881 84.2362L4.63347 84.2891ZM9.04824 81.6518L8.29627 81.9255L6.61961 77.3189L7.37158 77.0452L9.04824 81.6518ZM10.5282 81.1131L8.85152 76.5065L9.60349 76.2328L11.0433 80.1886L13.533 79.2824L13.7699 79.9333L10.5282 81.1131ZM14.7163 79.5888L13.0396 74.9822L16.3382 73.7816L16.5728 74.4262L14.0262 75.353L14.4977 76.6485L16.7789 75.8182L17.0066 76.4438L14.7254 77.274L15.2314 78.6642L17.9675 77.6684L18.2044 78.3192L14.7163 79.5888ZM18.2831 76.3441L18.0439 75.6869L20.2682 74.8773L20.5074 75.5345L18.2831 76.3441ZM23.0238 76.5651L22.2718 76.8388L20.5951 72.2322L21.3471 71.9585L23.0238 76.5651ZM24.5037 76.0265L22.827 71.4199L26.0814 70.2354L26.3183 70.8863L23.8159 71.797L24.3035 73.1367L26.5025 72.3363L26.7371 72.9808L24.5381 73.7812L25.2557 75.7528L24.5037 76.0265ZM28.8276 74.4527L27.1509 69.8461L30.4495 68.6455L30.6841 69.2901L28.1375 70.217L28.609 71.5124L30.8902 70.6821L31.1179 71.3077L28.8367 72.138L29.3427 73.5282L32.0788 72.5323L32.3157 73.1831L28.8276 74.4527Z" fill="white"/>
<path d="M-36.4058 118.544L-39.8988 108.947L-35.6598 107.404C-34.7207 107.062 -33.9136 107.027 -33.2384 107.298C-32.5633 107.569 -32.0963 108.06 -31.8376 108.771C-31.6555 109.271 -31.6314 109.774 -31.7653 110.28C-31.9024 110.777 -32.2534 111.233 -32.8182 111.647C-32.0259 111.558 -31.3951 111.666 -30.9258 111.972C-30.4565 112.278 -30.1244 112.699 -29.9296 113.235C-29.6389 114.033 -29.6969 114.775 -30.1037 115.46C-30.5048 116.133 -31.2013 116.649 -32.193 117.01L-36.4058 118.544ZM-35.3627 108.22L-38.746 109.451L-37.4811 112.927L-34.0977 111.695C-33.4219 111.449 -32.9704 111.106 -32.7431 110.666C-32.5102 110.213 -32.4864 109.732 -32.6717 109.223C-32.873 108.67 -33.2182 108.309 -33.7074 108.139C-34.1966 107.969 -34.7483 107.996 -35.3627 108.22ZM-33.7659 112.484L-37.1888 113.73L-35.8519 117.403L-32.4291 116.157C-31.885 115.959 -31.4809 115.717 -31.2168 115.433C-30.944 115.144 -30.7869 114.839 -30.7455 114.516C-30.6985 114.18 -30.7373 113.842 -30.8619 113.499C-31.0791 112.903 -31.4411 112.522 -31.9479 112.359C-32.4578 112.187 -33.0638 112.229 -33.7659 112.484ZM-23.2591 113.908C-24.1894 114.246 -25.0544 114.328 -25.854 114.152C-26.6536 113.975 -27.3587 113.581 -27.9693 112.968C-28.5711 112.353 -29.0509 111.553 -29.4087 110.57C-29.792 109.517 -29.9364 108.561 -29.8417 107.701C-29.7414 106.83 -29.4352 106.087 -28.9231 105.474C-28.4054 104.848 -27.7121 104.377 -26.8432 104.061C-25.9129 103.722 -25.048 103.641 -24.2484 103.817C-23.452 103.984 -22.7485 104.374 -22.1379 104.987C-21.5272 105.599 -21.0431 106.397 -20.6853 107.38C-20.302 108.433 -20.1604 109.396 -20.2607 110.267C-20.3554 111.126 -20.6616 111.869 -21.1793 112.495C-21.6882 113.117 -22.3815 113.588 -23.2591 113.908ZM-23.5562 113.092C-22.4504 112.689 -21.7284 112.024 -21.3904 111.096C-21.0435 110.164 -21.1081 109.045 -21.5841 107.737C-22.0632 106.421 -22.735 105.517 -23.5993 105.027C-24.458 104.524 -25.4403 104.474 -26.5462 104.877C-27.652 105.279 -28.3739 105.945 -28.712 106.873C-29.0501 107.801 -28.9795 108.923 -28.5004 110.24C-28.0212 111.556 -27.3538 112.461 -26.4983 112.955C-25.6427 113.448 -24.6621 113.494 -23.5562 113.092ZM-13.2313 110.258C-14.1616 110.597 -15.0266 110.678 -15.8262 110.502C-16.6258 110.326 -17.3309 109.931 -17.9415 109.319C-18.5433 108.703 -19.0231 107.903 -19.3809 106.92C-19.7642 105.867 -19.9085 104.911 -19.8138 104.051C-19.7135 103.18 -19.4073 102.437 -18.8952 101.824C-18.3776 101.198 -17.6843 100.727 -16.8154 100.411C-15.8851 100.072 -15.0201 99.9909 -14.2206 100.167C-13.4242 100.334 -12.7206 100.724 -12.11 101.337C-11.4994 101.95 -11.0152 102.747 -10.6575 103.73C-10.2741 104.784 -10.1326 105.746 -10.2329 106.617C-10.3276 107.477 -10.6338 108.219 -11.1515 108.845C-11.6604 109.468 -12.3537 109.939 -13.2313 110.258ZM-13.5284 109.442C-12.4226 109.039 -11.7006 108.374 -11.3625 107.446C-11.0157 106.515 -11.0803 105.395 -11.5562 104.087C-12.0354 102.771 -12.7071 101.867 -13.5715 101.377C-14.4302 100.874 -15.4125 100.824 -16.5183 101.227C-17.6242 101.629 -18.3461 102.295 -18.6842 103.223C-19.0222 104.151 -18.9517 105.273 -18.4725 106.59C-17.9934 107.906 -17.326 108.811 -16.4705 109.305C-15.6149 109.799 -14.6342 109.844 -13.5284 109.442ZM-3.20349 106.608C-4.1338 106.947 -4.99875 107.028 -5.79834 106.852C-6.59794 106.676 -7.30304 106.281 -7.91366 105.669C-8.51549 105.053 -8.99529 104.253 -9.35306 103.271C-9.73639 102.217 -9.8807 101.261 -9.786 100.402C-9.68571 99.5302 -9.37952 98.7876 -8.86742 98.1739C-8.34973 97.5481 -7.65646 97.0771 -6.78758 96.7609C-5.61153 96.3328 -4.58898 96.2886 -3.71991 96.6283C-2.84526 96.956 -2.15366 97.5591 -1.64511 98.4375L-2.46248 98.8542C-2.97501 98.0469 -3.5792 97.5611 -4.27505 97.3969C-4.97411 97.224 -5.71419 97.2796 -6.4953 97.5639C-7.60114 97.9664 -8.32308 98.6317 -8.66114 99.5598C-8.9992 100.488 -8.92865 101.61 -8.44949 102.927C-7.97033 104.243 -7.30138 105.153 -6.44264 105.655C-5.5839 106.158 -4.60161 106.208 -3.49577 105.805C-2.53036 105.454 -1.88337 104.965 -1.5548 104.338C-1.22064 103.7 -1.11912 102.982 -1.25022 102.185L-0.356176 101.979C-0.20675 102.69 -0.230095 103.349 -0.426211 103.957C-0.613551 104.562 -0.947735 105.091 -1.42876 105.545C-1.90102 105.995 -2.49259 106.349 -3.20349 106.608ZM4.78546 103.551L1.29241 93.9542L2.14812 93.6427L3.70538 97.9213L9.85331 95.6836L8.29605 91.4051L9.13859 91.0984L12.6316 100.696L11.7891 101.002L10.136 96.4603L3.98808 98.698L5.64117 103.24L4.78546 103.551ZM13.7497 100.289L14.2456 89.2396L15.2988 88.8563L22.7807 97.0015L21.8855 97.3274L19.7519 94.988L14.7757 96.7992L14.6449 99.9627L13.7497 100.289ZM15.0002 91.0671L14.8101 95.9518L19.1676 94.3658L15.8691 90.7509C15.735 90.6009 15.5965 90.4525 15.4536 90.3057C15.3195 90.1557 15.1822 89.997 15.0417 89.8295C15.0418 90.0481 15.0343 90.2596 15.0192 90.4638C15.0128 90.6649 15.0065 90.866 15.0002 91.0671ZM23.9026 96.5932L20.4096 86.9961L21.2653 86.6847L24.4708 95.4919L30.2502 93.3884L30.5376 94.1783L23.9026 96.5932ZM31.6163 93.7856L28.1233 84.1885L28.979 83.8771L32.1845 92.6843L37.9639 90.5808L38.2514 91.3707L31.6163 93.7856Z" fill="#C2C2C2"/>
<path d="M-31.081 131.633L-32.484 127.778L-33.8347 128.27L-34.0762 127.606L-33.9182 127.549C-33.518 127.403 -33.238 127.173 -33.0782 126.858C-32.9131 126.542 -32.867 126.185 -32.9399 125.788L-32.2606 125.541L-30.1648 131.299L-31.081 131.633ZM-26.2971 129.981C-26.8079 130.167 -27.2663 130.193 -27.6723 130.061C-28.0731 129.927 -28.4277 129.665 -28.7361 129.276C-29.0412 128.88 -29.3011 128.388 -29.5157 127.798C-29.7668 127.108 -29.8841 126.516 -29.8674 126.021C-29.8528 125.52 -29.7222 125.109 -29.4757 124.787C-29.2292 124.464 -28.8875 124.224 -28.4504 124.065C-27.9396 123.879 -27.4812 123.852 -27.0752 123.984C-26.6691 124.117 -26.3145 124.378 -26.0113 124.769C-25.7029 125.158 -25.4413 125.647 -25.2267 126.237C-24.9756 126.927 -24.86 127.523 -24.88 128.025C-24.8947 128.525 -25.0253 128.936 -25.2717 129.259C-25.5182 129.581 -25.86 129.822 -26.2971 129.981ZM-26.5932 129.167C-26.1561 129.008 -25.9171 128.706 -25.876 128.262C-25.8316 127.811 -25.9311 127.251 -26.1745 126.582C-26.3739 126.034 -26.5827 125.624 -26.8011 125.352C-27.0143 125.077 -27.2334 124.91 -27.4584 124.849C-27.6853 124.782 -27.9173 124.792 -28.1543 124.878C-28.5913 125.037 -28.8304 125.339 -28.8714 125.783C-28.9125 126.228 -28.8113 126.784 -28.5679 127.453C-28.3686 128.001 -28.1614 128.414 -27.9463 128.694C-27.7332 128.968 -27.5131 129.138 -27.2862 129.205C-27.0559 129.264 -26.8249 129.252 -26.5932 129.167ZM-23.3386 128.815L-23.1358 122.22L-22.0458 121.823L-17.6514 126.745L-18.6467 127.107L-19.7005 125.907L-22.3309 126.864L-22.367 128.461L-23.3386 128.815ZM-22.2563 123.85L-22.3053 125.952L-20.299 125.221L-21.6797 123.64C-21.8608 123.437 -22.0559 123.204 -22.2652 122.94C-22.2527 123.27 -22.2497 123.573 -22.2563 123.85ZM-16.4091 126.292L-18.5049 120.534L-16.9962 119.985L-13.884 123.817L-13.9473 118.875L-12.4702 118.338L-10.3743 124.096L-11.2985 124.432L-13.0587 119.473L-13.0047 125.053L-13.8024 125.344L-17.3054 121.028L-15.5086 125.965L-16.4091 126.292ZM-8.63761 124.752L-8.81298 124.27L-8.6629 124.215C-8.52072 124.164 -8.43576 124.094 -8.40802 124.006C-8.37836 123.924 -8.38365 123.828 -8.4239 123.717L-8.53027 123.425L-8.98051 123.589L-9.33413 122.617L-8.41786 122.284L-7.92625 123.634C-7.83233 123.892 -7.83705 124.109 -7.94042 124.284C-8.04186 124.464 -8.2137 124.598 -8.45593 124.686L-8.63761 124.752ZM-2.12673 121.184C-2.7955 121.427 -3.35996 121.433 -3.82013 121.201C-4.27503 120.967 -4.60693 120.563 -4.81585 119.989L-5.14359 119.088L-4.20363 118.746L-3.86726 119.67C-3.72351 120.065 -3.52906 120.304 -3.28391 120.388C-3.0354 120.465 -2.75318 120.445 -2.43722 120.33C-2.03701 120.185 -1.79505 119.989 -1.71134 119.744C-1.62763 119.499 -1.64327 119.219 -1.75827 118.903L-3.19287 114.961L-2.2529 114.619L-0.826932 118.537C-0.591187 119.184 -0.600121 119.733 -0.853736 120.183C-1.10209 120.632 -1.52642 120.965 -2.12673 121.184ZM0.817601 117.688L-0.527873 113.991L0.412089 113.649L1.73456 117.282C1.91089 117.767 2.1743 118.065 2.5248 118.176C2.87337 118.281 3.27409 118.252 3.72696 118.087C4.24828 117.897 4.58071 117.639 4.72425 117.312C4.87305 116.984 4.87174 116.612 4.72033 116.196L3.39785 112.562L4.32991 112.223L5.67539 115.92C5.83255 116.351 5.87744 116.761 5.81005 117.15C5.74074 117.533 5.55699 117.88 5.25881 118.191C4.9659 118.501 4.55351 118.752 4.02165 118.946C3.26863 119.22 2.60914 119.251 2.04317 119.04C1.47529 118.823 1.06676 118.372 0.817601 117.688ZM8.21619 117.33L6.12036 111.571L7.33678 111.129L11.8406 114.508L10.2278 110.076L11.1519 109.74L13.2478 115.498L12.1419 115.901L7.49804 112.456L9.14826 116.99L8.21619 117.33ZM15.0944 114.826L12.9985 109.068L17.1217 107.567L17.415 108.373L14.2317 109.531L14.8211 111.151L17.6726 110.113L17.9572 110.895L15.1057 111.933L15.7382 113.67L19.1584 112.426L19.4545 113.239L15.0944 114.826ZM24.2454 111.495L22.8424 107.641L21.4917 108.132L21.2502 107.469L21.4082 107.411C21.8084 107.266 22.0884 107.036 22.2483 106.721C22.4133 106.404 22.4594 106.048 22.3865 105.651L23.0658 105.404L25.1617 111.162L24.2454 111.495ZM29.5567 109.562L29.1168 108.354L26.2417 109.4L25.9657 108.642L27.453 103.807L28.385 103.468L29.7564 107.235L30.6411 106.913L30.9257 107.695L30.041 108.017L30.4809 109.226L29.5567 109.562ZM26.9365 108.262L28.8322 107.572L27.9007 105.013L26.9365 108.262ZM33.8595 107.996L32.0598 103.051L30.1009 103.764L29.8048 102.951L34.6389 101.191L34.935 102.005L32.9998 102.709L34.7995 107.654L33.8595 107.996ZM37.93 106.515L35.8342 100.756L36.7742 100.414L37.651 102.823L40.6368 101.737L39.7599 99.3275L40.6841 98.9911L42.7799 104.749L41.8558 105.086L40.93 102.542L37.9443 103.629L38.87 106.172L37.93 106.515Z" fill="white"/>
<g clip-path="url(#clip1_201_583)">
<rect x="81.2375" y="48.4675" width="42.2926" height="42.2926" rx="2.19702" transform="rotate(-20 81.2375 48.4675)" fill="white"/>
<g clip-path="url(#clip2_201_583)">
<path d="M118.538 40.15L87.5701 51.4214L98.8414 82.3892L129.809 71.1178L118.538 40.15Z" fill="white"/>
<path d="M91.3272 61.744L92.2656 61.4024L92.6072 62.3408L93.5456 61.9993L93.8871 62.9377L92.9487 63.2793L93.2903 64.2177L93.6318 65.1561L94.5702 64.8145L94.9118 65.753L93.9734 66.0945L94.3149 67.0329L94.6565 67.9714L94.9981 68.9098L94.0596 69.2513L93.7181 68.3129L93.3765 67.3745L93.035 66.4361L92.6934 65.4977L92.3519 64.5592L92.0103 63.6208L91.6687 62.6824L91.3272 61.744ZM95.0843 72.0666L96.0227 71.725L96.3643 72.6634L95.4259 73.005L95.0843 72.0666ZM95.7674 73.9434L96.7058 73.6019L97.0474 74.5403L96.109 74.8818L95.7674 73.9434ZM95.3396 69.8482L96.278 69.5066L96.6196 70.4451L97.558 70.1035L97.2164 69.1651L98.1549 68.8235L97.8133 67.8851L97.4718 66.9467L96.5333 67.2882L96.1918 66.3498L95.2534 66.6914L94.9118 65.753L95.8502 65.4114L95.5087 64.473L94.5702 64.8145L94.2287 63.8761L95.1671 63.5346L96.1055 63.193L96.4471 64.1314L96.7886 65.0698L97.7271 64.7283L97.3855 63.7899L98.3239 63.4483L98.6655 64.3867L99.6039 64.0452L99.2623 63.1068L98.3239 63.4483L97.9824 62.5099L98.9208 62.1683L98.5792 61.2299L99.5176 60.8884L99.8592 61.8268L100.201 62.7652L100.542 63.7036L101.481 63.3621L101.822 64.3005L102.164 65.2389L102.505 66.1773L103.444 65.8358L103.785 66.7742L102.847 67.1157L103.189 68.0542L102.25 68.3957L102.592 69.3341L101.653 69.6757L101.312 68.7373L100.373 69.0788L100.032 68.1404L100.97 67.7989L100.629 66.8604L99.6901 67.202L98.7517 67.5435L99.0933 68.482L99.4348 69.4204L99.7764 70.3588L100.118 71.2972L99.1795 71.6388L98.2411 71.9803L97.8996 71.0419L96.9611 71.3835L96.0227 71.725L95.6812 70.7866L95.3396 69.8482ZM96.3643 72.6634L97.3027 72.3219L98.2411 71.9803L98.5827 72.9188L99.5211 72.5772L100.46 72.2356L100.801 73.1741L99.8626 73.5156L98.9242 73.8572L97.9858 74.1987L97.6443 73.2603L96.7058 73.6019L96.3643 72.6634ZM92.1794 58.2456L93.1178 57.9041L93.4593 58.8425L94.3977 58.5009L94.0562 57.5625L94.9946 57.2209L95.933 56.8794L96.8714 56.5378L97.213 57.4763L96.2746 57.8178L96.6161 58.7562L97.5546 58.4147L98.493 58.0731L98.1514 57.1347L97.8099 56.1963L98.7483 55.8547L99.6867 55.5132L100.028 56.4516L100.967 56.11L100.625 55.1716L101.564 54.8301L102.502 54.4885L102.844 55.4269L101.905 55.7685L102.247 56.7069L102.588 57.6453L101.65 57.9869L101.991 58.9253L101.053 59.2668L101.394 60.2053L100.456 60.5468L99.5176 60.8884L99.1761 59.95L98.8345 59.0115L97.8961 59.3531L96.9577 59.6946L96.0193 60.0362L95.6777 59.0978L94.7393 59.4393L93.8009 59.7809L94.1424 60.7193L94.484 61.6577L93.5456 61.9993L93.204 61.0609L92.8625 60.1225L92.5209 59.184L92.1794 58.2456ZM95.5949 67.6298L96.5333 67.2882L96.8749 68.2267L95.9365 68.5682L95.5949 67.6298ZM95.0809 60.3778L96.0193 60.0362L96.3608 60.9746L95.4224 61.3162L95.0809 60.3778ZM95.764 62.2546L96.7024 61.913L97.6408 61.5715L97.9824 62.5099L97.0439 62.8515L96.1055 63.193L95.764 62.2546ZM99.007 65.3252L99.3486 66.2636L100.287 65.922L101.225 65.5805L100.884 64.642L99.9454 64.9836L99.007 65.3252ZM97.2993 60.6331L98.2377 60.2915L98.5792 61.2299L97.6408 61.5715L97.2993 60.6331ZM100.715 70.0172L101.653 69.6757L101.995 70.6141L101.056 70.9557L100.715 70.0172ZM101.398 71.8941L102.336 71.5525L103.275 71.211L103.616 72.1494L102.678 72.4909L101.739 72.8325L101.398 71.8941ZM95.0774 48.6889L96.0158 48.3474L96.9542 48.0058L97.2958 48.9442L98.2342 48.6027L98.5758 49.5411L97.6374 49.8827L97.9789 50.8211L97.0405 51.1626L96.6989 50.2242L96.3574 49.2858L95.419 49.6274L95.0774 48.6889ZM96.1021 51.5042L97.0405 51.1626L97.3821 52.1011L96.4436 52.4426L96.1021 51.5042ZM97.1267 54.3194L98.0652 53.9779L98.4067 54.9163L97.4683 55.2579L97.1267 54.3194ZM102.592 69.3341L103.53 68.9926L103.189 68.0542L104.127 67.7126L103.785 66.7742L104.724 66.4326L105.065 67.371L105.407 68.3095L106.345 67.9679L106.004 67.0295L105.662 66.0911L106.601 65.7495L106.259 64.8111L105.918 63.8727L104.979 64.2142L104.638 63.2758L103.699 63.6174L103.358 62.679L104.296 62.3374L105.234 61.9958L106.173 61.6543L107.111 61.3127L106.77 60.3743L107.708 60.0328L108.05 60.9712L108.391 61.9096L107.453 62.2511L106.514 62.5927L106.856 63.5311L107.197 64.4695L107.539 65.408L108.477 65.0664L108.136 64.128L107.794 63.1896L108.733 62.848L109.074 63.7864L109.416 64.7248L109.757 65.6633L108.819 66.0048L107.881 66.3464L106.942 66.6879L107.284 67.6264L107.625 68.5648L106.687 68.9063L105.748 69.2479L104.81 69.5894L105.152 70.5279L106.09 70.1863L106.432 71.1247L106.773 72.0631L107.115 73.0016L106.176 73.3431L106.518 74.2815L106.859 75.2199L105.921 75.5615L104.983 75.9031L104.641 74.9646L104.299 74.0262L105.238 73.6847L104.896 72.7462L105.835 72.4047L105.493 71.4663L104.555 71.8078L104.213 70.8694L103.275 71.211L102.933 70.2726L102.592 69.3341ZM103.616 72.1494L104.555 71.8078L104.896 72.7462L103.958 73.0878L103.616 72.1494ZM105.324 76.8415L106.263 76.4999L107.201 76.1584L107.542 77.0968L106.604 77.4383L105.666 77.7799L105.324 76.8415ZM97.3821 52.1011L98.3205 51.7595L99.2589 51.4179L99.6004 52.3564L98.662 52.6979L99.0036 53.6363L98.0652 53.9779L97.7236 53.0395L97.3821 52.1011ZM100.798 61.4852L101.736 61.1437L102.078 62.0821L101.139 62.4237L100.798 61.4852ZM106.946 78.3768L107.884 78.0352L108.822 77.6936L109.164 78.6321L108.226 78.9736L107.287 79.3152L106.946 78.3768ZM99.0036 53.6363L99.942 53.2948L100.284 54.2332L100.625 55.1716L99.6867 55.5132L99.3451 54.5748L99.0036 53.6363ZM101.394 60.2053L102.333 59.8637L101.991 58.9253L102.93 58.5837L102.588 57.6453L103.527 57.3038L103.185 56.3653L104.123 56.0238L104.465 56.9622L105.403 56.6206L105.062 55.6822L106 55.3407L106.342 56.2791L107.28 55.9375L107.622 56.8759L106.683 57.2175L105.745 57.5591L104.807 57.9006L103.868 58.2422L104.21 59.1806L105.148 58.839L106.087 58.4975L107.025 58.1559L107.367 59.0943L106.428 59.4359L106.77 60.3743L105.831 60.7159L105.49 59.7775L104.551 60.119L104.893 61.0574L103.954 61.399L103.613 60.4606L102.674 60.8021L101.736 61.1437L101.394 60.2053ZM102.078 62.0821L103.016 61.7405L103.358 62.679L102.419 63.0205L102.078 62.0821ZM98.5758 49.5411L99.5142 49.1995L99.1726 48.2611L100.111 47.9196L100.453 48.858L101.391 48.5164L102.329 48.1749L103.268 47.8333L103.609 48.7717L102.671 49.1133L103.013 50.0517L103.354 50.9901L102.416 51.3317L101.477 51.6732L100.539 52.0148L100.197 51.0764L101.136 50.7348L102.074 50.3933L101.733 49.4549L100.794 49.7964L99.8558 50.138L100.197 51.0764L99.2589 51.4179L98.9173 50.4795L98.5758 49.5411ZM99.6004 52.3564L100.539 52.0148L100.88 52.9532L99.942 53.2948L99.6004 52.3564ZM104.041 64.5558L104.979 64.2142L105.321 65.1527L105.662 66.0911L104.724 66.4326L104.382 65.4942L104.041 64.5558ZM107.115 73.0016L108.053 72.66L108.395 73.5984L107.456 73.94L107.115 73.0016ZM107.798 74.8784L108.736 74.5368L108.395 73.5984L109.333 73.2569L108.992 72.3184L109.93 71.9769L110.271 72.9153L111.21 72.5737L111.551 73.5122L112.49 73.1706L112.831 74.109L111.893 74.4506L112.235 75.389L112.576 76.3274L111.638 76.669L111.296 75.7306L110.955 74.7921L110.016 75.1337L109.078 75.4753L109.419 76.4137L108.481 76.7552L108.139 75.8168L107.798 74.8784ZM100.88 52.9532L101.819 52.6117L102.16 53.5501L101.222 53.8916L100.88 52.9532ZM107.028 69.8447L107.967 69.5032L108.308 70.4416L109.247 70.1L110.185 69.7585L109.844 68.8201L109.502 67.8817L110.441 67.5401L111.379 67.1985L111.721 68.137L110.782 68.4785L111.124 69.4169L111.465 70.3554L111.807 71.2938L110.868 71.6353L109.93 71.9769L109.588 71.0385L108.65 71.38L107.712 71.7216L107.37 70.7832L107.028 69.8447ZM102.16 53.5501L103.099 53.2085L102.757 52.2701L103.696 51.9286L104.037 52.867L104.379 53.8054L105.317 53.4638L106.256 53.1223L106.597 54.0607L105.659 54.4022L104.72 54.7438L105.062 55.6822L104.123 56.0238L103.782 55.0854L103.44 54.1469L102.502 54.4885L102.16 53.5501ZM110.699 77.0105L111.638 76.669L111.979 77.6074L111.041 77.9489L110.699 77.0105ZM103.354 50.9901L104.293 50.6486L104.634 51.587L103.696 51.9286L103.354 50.9901ZM112.576 76.3274L113.515 75.9859L113.173 75.0474L112.831 74.109L113.77 73.7675L113.428 72.8291L114.367 72.4875L114.708 73.4259L115.05 74.3643L115.391 75.3028L114.453 75.6443L114.795 76.5827L113.856 76.9243L112.918 77.2658L112.576 76.3274ZM102.585 45.9565L103.523 45.6149L104.462 45.2734L105.4 44.9318L106.338 44.5903L106.68 45.5287L107.022 46.4671L106.083 46.8087L105.742 45.8702L104.803 46.2118L103.865 46.5533L104.206 47.4918L103.268 47.8333L102.926 46.8949L102.585 45.9565ZM103.951 49.7102L104.889 49.3686L104.548 48.4302L104.206 47.4918L105.145 47.1502L105.486 48.0886L106.425 47.7471L107.363 47.4055L107.705 48.3439L108.046 49.2824L107.108 49.6239L106.766 48.6855L105.828 49.027L106.169 49.9655L107.108 49.6239L107.449 50.5623L107.791 51.5007L106.852 51.8423L106.511 50.9039L105.573 51.2454L105.231 50.307L104.293 50.6486L103.951 49.7102ZM104.634 51.587L105.573 51.2454L105.914 52.1839L104.976 52.5254L104.634 51.587ZM111.807 71.2938L112.745 70.9522L113.087 71.8906L113.428 72.8291L112.49 73.1706L112.148 72.2322L111.807 71.2938ZM105.914 52.1839L106.852 51.8423L107.194 52.7807L106.256 53.1223L105.914 52.1839ZM106.939 54.9991L107.877 54.6576L107.536 53.7191L107.194 52.7807L108.132 52.4392L108.474 53.3776L108.816 54.316L109.754 53.9744L109.412 53.036L109.071 52.0976L108.729 51.1592L108.388 50.2208L108.046 49.2824L108.985 48.9408L109.326 49.8792L109.668 50.8176L110.606 50.4761L110.265 49.5377L109.923 48.5992L108.985 48.9408L108.643 48.0024L108.302 47.064L109.24 46.7224L110.178 46.3808L110.52 47.3193L111.458 46.9777L111.8 47.9161L112.738 47.5746L113.08 48.513L113.421 49.4514L113.763 50.3898L112.825 50.7314L113.166 51.6698L114.105 51.3282L114.446 52.2667L113.508 52.6082L112.569 52.9498L112.911 53.8882L113.849 53.5466L114.788 53.2051L114.446 52.2667L115.384 51.9251L115.726 52.8635L116.664 52.522L117.006 53.4604L117.944 53.1188L118.286 54.0572L118.628 54.9957L118.969 55.9341L119.311 56.8725L118.372 57.2141L118.031 56.2756L117.689 55.3372L116.751 55.6788L117.092 56.6172L117.434 57.5556L118.372 57.2141L118.714 58.1525L117.775 58.494L116.837 58.8356L116.495 57.8972L116.154 56.9588L115.812 56.0203L115.471 55.0819L114.532 55.4235L114.191 54.4851L113.252 54.8266L112.314 55.1682L112.655 56.1066L111.717 56.4481L110.779 56.7897L109.84 57.1313L109.499 56.1928L109.157 55.2544L108.219 55.596L107.28 55.9375L106.939 54.9991ZM107.622 56.8759L108.56 56.5344L108.902 57.4728L109.84 57.1313L110.182 58.0697L109.243 58.4112L108.305 58.7528L107.963 57.8144L107.622 56.8759ZM108.647 59.6912L109.585 59.3496L109.926 60.2881L110.865 59.9465L110.523 59.0081L111.462 58.6665L111.803 59.605L112.742 59.2634L112.4 58.325L112.059 57.3866L112.997 57.045L113.339 57.9834L114.277 57.6419L115.215 57.3003L115.557 58.2387L115.899 59.1771L114.96 59.5187L114.022 59.8603L114.363 60.7987L113.425 61.1402L113.083 60.2018L112.145 60.5434L111.206 60.8849L110.268 61.2265L110.61 62.1649L109.671 62.5065L109.33 61.568L108.988 60.6296L108.647 59.6912ZM110.013 63.4449L110.951 63.1033L111.293 64.0417L112.231 63.7002L111.89 62.7618L110.951 63.1033L110.61 62.1649L111.548 61.8233L112.486 61.4818L112.828 62.4202L113.17 63.3586L114.108 63.0171L114.45 63.9555L115.388 63.6139L115.73 64.5523L116.668 64.2108L117.009 65.1492L117.351 66.0876L116.413 66.4292L115.474 66.7707L115.133 65.8323L114.791 64.8939L113.853 65.2355L113.511 64.297L112.573 64.6386L111.634 64.9802L111.976 65.9186L111.037 66.2601L110.696 65.3217L110.354 64.3833L110.013 63.4449ZM112.062 69.0754L113 68.7338L113.342 69.6722L114.28 69.3307L113.939 68.3923L114.877 68.0507L115.219 68.9891L115.56 69.9275L114.622 70.2691L114.964 71.2075L114.025 71.5491L113.684 70.6107L112.745 70.9522L112.404 70.0138L112.062 69.0754ZM111.976 65.9186L112.914 65.577L113.256 66.5154L113.597 67.4539L112.659 67.7954L112.317 66.857L111.976 65.9186ZM115.391 75.3028L116.33 74.9612L115.988 74.0228L115.647 73.0844L115.305 72.1459L116.244 71.8044L116.585 72.7428L116.927 73.6812L117.268 74.6196L118.207 74.2781L117.865 73.3397L117.524 72.4012L117.182 71.4628L118.12 71.1213L118.462 72.0597L118.804 72.9981L119.145 73.9365L119.487 74.8749L118.548 75.2165L117.61 75.5581L116.671 75.8996L115.733 76.2412L115.391 75.3028ZM107.022 46.4671L107.96 46.1255L108.302 47.064L107.363 47.4055L107.022 46.4671ZM110.009 51.7561L110.351 52.6945L111.289 52.3529L112.228 52.0114L111.886 51.0729L110.948 51.4145L110.009 51.7561ZM110.692 53.6329L111.034 54.5713L111.972 54.2297L111.631 53.2913L110.692 53.6329ZM114.536 67.1123L115.474 66.7707L115.816 67.7092L114.877 68.0507L114.536 67.1123ZM107.277 44.2487L108.215 43.9072L109.154 43.5656L110.092 43.224L111.031 42.8825L111.372 43.8209L110.434 44.1625L110.775 45.1009L111.714 44.7593L112.055 45.6977L112.397 46.6362L111.458 46.9777L111.117 46.0393L110.178 46.3808L109.837 45.4424L108.898 45.784L108.557 44.8456L107.618 45.1871L107.277 44.2487ZM113.766 62.0786L114.705 61.7371L114.363 60.7987L115.302 60.4571L115.643 61.3955L115.985 62.334L115.046 62.6755L114.108 63.0171L113.766 62.0786ZM115.816 67.7092L116.754 67.3676L117.096 68.306L118.034 67.9645L118.376 68.9029L117.437 69.2444L117.779 70.1829L116.84 70.5244L116.499 69.586L116.157 68.6476L115.816 67.7092ZM111.203 49.1961L111.545 50.1345L112.483 49.793L112.141 48.8545L111.203 49.1961ZM112.655 56.1066L113.594 55.765L113.935 56.7034L112.997 57.045L112.655 56.1066ZM117.779 70.1829L118.717 69.8413L119.059 70.7797L118.12 71.1213L117.779 70.1829ZM117.693 67.026L118.631 66.6845L118.289 65.7461L119.228 65.4045L118.886 64.4661L119.825 64.1245L120.166 65.063L121.105 64.7214L122.043 64.3798L122.982 64.0383L123.92 63.6967L124.262 64.6352L123.323 64.9767L123.665 65.9151L124.603 65.5736L124.945 66.512L124.006 66.8535L124.348 67.792L124.689 68.7304L125.031 69.6688L124.092 70.0104L123.751 69.0719L122.812 69.4135L121.874 69.755L120.936 70.0966L119.997 70.4382L119.656 69.4997L119.314 68.5613L118.973 67.6229L118.034 67.9645L117.693 67.026ZM119.4 71.7181L120.339 71.3766L121.277 71.035L122.216 70.6935L122.557 71.6319L121.619 71.9734L121.96 72.9119L122.302 73.8503L121.363 74.1918L120.425 74.5334L120.083 73.595L121.022 73.2534L120.68 72.315L119.742 72.6566L119.4 71.7181ZM117.606 63.8692L118.545 63.5277L118.886 64.4661L117.948 64.8077L117.606 63.8692ZM119.569 66.3429L119.911 67.2813L120.253 68.2198L120.594 69.1582L121.533 68.8166L122.471 68.4751L123.409 68.1335L123.068 67.1951L122.726 66.2567L122.385 65.3183L121.446 65.6598L120.508 66.0014L119.569 66.3429ZM113.763 50.3898L114.701 50.0483L115.043 50.9867L114.105 51.3282L113.763 50.3898ZM117.179 59.774L118.117 59.4324L118.459 60.3709L117.52 60.7124L117.179 59.774ZM117.862 61.6508L118.8 61.3093L118.459 60.3709L119.397 60.0293L120.335 59.6878L120.677 60.6262L119.738 60.9677L120.08 61.9061L121.018 61.5646L121.36 62.503L120.422 62.8446L120.763 63.783L119.825 64.1245L119.483 63.1861L119.142 62.2477L118.203 62.5893L117.862 61.6508ZM115.043 50.9867L115.981 50.6451L116.323 51.5835L115.384 51.9251L115.043 50.9867ZM120.849 66.9398L121.788 66.5982L122.129 67.5367L121.191 67.8782L120.849 66.9398ZM122.557 71.6319L123.496 71.2903L123.154 70.3519L124.092 70.0104L124.434 70.9488L124.776 71.8872L125.117 72.8256L124.179 73.1672L123.24 73.5087L122.899 72.5703L122.557 71.6319ZM117.261 51.242L118.2 50.9004L118.541 51.8389L117.603 52.1804L117.261 51.242ZM119.311 56.8725L120.249 56.5309L120.591 57.4694L119.652 57.8109L119.311 56.8725ZM121.36 62.503L122.298 62.1615L121.957 61.223L121.615 60.2846L122.554 59.9431L122.895 60.8815L123.834 60.5399L124.772 60.1984L125.114 61.1368L126.052 60.7952L126.394 61.7336L126.735 62.6721L127.077 63.6105L127.418 64.5489L127.76 65.4873L128.101 66.4257L127.163 66.7673L126.821 65.8289L125.883 66.1704L125.541 65.232L124.603 65.5736L124.262 64.6352L125.2 64.2936L126.138 63.952L125.797 63.0136L125.455 62.0752L124.517 62.4168L123.578 62.7583L122.64 63.0999L121.702 63.4414L121.36 62.503ZM117.517 49.0236L118.455 48.682L118.797 49.6205L117.858 49.962L117.517 49.0236ZM118.883 52.7773L119.821 52.4357L120.76 52.0942L121.101 53.0326L122.04 52.691L121.698 51.7526L120.76 52.0942L120.418 51.1557L120.077 50.2173L119.138 50.5589L118.797 49.6205L119.735 49.2789L120.673 48.9374L120.332 47.9989L121.27 47.6574L121.612 48.5958L121.953 49.5342L122.295 50.4726L122.637 51.411L122.978 52.3495L123.32 53.2879L123.661 54.2263L124.003 55.1647L124.344 56.1031L123.406 56.4447L123.064 55.5063L122.126 55.8478L121.784 54.9094L120.846 55.251L120.504 54.3126L120.163 53.3741L119.224 53.7157L118.883 52.7773ZM120.591 57.4694L121.529 57.1278L121.188 56.1894L122.126 55.8478L122.467 56.7863L123.406 56.4447L123.747 57.3831L124.686 57.0416L125.027 57.98L124.089 58.3215L123.151 58.6631L122.212 59.0046L121.871 58.0662L120.932 58.4078L120.591 57.4694ZM125.286 67.4504L126.225 67.1088L127.163 66.7673L127.505 67.7057L128.443 67.3642L128.785 68.3026L127.846 68.6441L126.908 68.9857L126.566 68.0473L125.628 68.3888L125.286 67.4504ZM124.431 59.2599L125.369 58.9184L125.711 59.8568L124.772 60.1984L124.431 59.2599Z" fill="black"/>
<path d="M125.879 71.513C126.07 71.4398 126.032 71.24 125.992 71.1283C125.931 70.963 125.826 70.936 125.72 70.9629C125.614 71.0648 125.556 71.1938 125.598 71.345C125.605 71.3699 125.616 71.4024 125.632 71.4395C125.674 71.5383 125.764 71.5571 125.879 71.513ZM126.955 71.3812C126.818 71.4311 126.643 71.3992 126.578 71.2438C126.482 71.4658 126.27 71.6321 125.963 71.7439C125.653 71.8567 125.447 71.6925 125.387 71.5279C125.195 70.9764 125.108 70.7754 125.09 70.7342C125.088 70.7305 125.087 70.7281 125.087 70.7268L125.086 70.7254C125.078 70.7049 125.065 70.6741 125.045 70.6792C125.032 70.6824 125.025 70.689 125.017 70.7118C125.006 70.7478 124.968 70.7746 124.936 70.769C124.898 70.7622 124.877 70.7241 124.88 70.6812C124.888 70.5664 124.943 70.4968 125.039 70.4634C125.205 70.4056 125.292 70.4963 125.341 70.6311C125.341 70.6311 125.408 70.8266 125.448 70.936C125.489 70.8671 125.556 70.7847 125.7 70.7325C125.998 70.6238 126.323 70.9246 126.257 71.3492C126.464 71.1432 126.444 70.9258 126.382 70.7253L126.357 70.6592C126.33 70.5846 126.355 70.504 126.43 70.4767C126.505 70.4495 126.579 70.4988 126.602 70.571C126.681 70.814 126.734 70.9731 126.765 71.0566C126.782 71.1049 126.836 71.1694 126.914 71.141C127.067 71.0854 127.073 70.9473 126.983 70.6616C126.945 70.5564 126.914 70.4685 126.914 70.4685C126.844 70.4937 126.797 70.4697 126.781 70.4243C126.764 70.3788 126.785 70.3236 126.844 70.302C126.844 70.302 126.787 70.1439 126.763 70.0784C126.736 70.0038 126.771 69.9209 126.846 69.8937C126.921 69.8664 127.003 69.9066 127.03 69.9812C127.039 70.006 127.048 70.0351 127.059 70.0674C127.072 70.1086 127.088 70.1549 127.105 70.2032L127.116 70.1992C127.136 70.1917 127.182 70.1748 127.243 70.1519C127.316 70.1245 127.36 70.1544 127.379 70.2053C127.397 70.2562 127.371 70.306 127.32 70.3248C127.273 70.3423 127.168 70.3798 127.168 70.3798C127.218 70.5323 127.28 70.7158 127.332 70.8612C127.352 70.9137 127.41 70.9605 127.497 70.9286C127.674 70.8643 127.683 70.6831 127.588 70.3801C127.511 70.1729 127.465 70.0536 127.43 69.9636C127.405 69.9005 127.387 69.8519 127.367 69.7976C127.34 69.7231 127.378 69.6338 127.452 69.6066C127.527 69.5793 127.604 69.6191 127.631 69.6936C127.652 69.7511 127.675 69.8191 127.705 69.9118C127.756 70.0686 127.83 70.2962 127.96 70.6632C127.977 70.712 128.014 70.7377 128.077 70.7147C128.245 70.6533 128.226 70.4537 128.148 70.1932C128.143 70.1809 128.139 70.1689 128.135 70.157C128.126 70.1327 128.118 70.1093 128.11 70.0865C128.082 70.0119 128.11 69.9335 128.185 69.9063C128.26 69.879 128.326 69.9248 128.354 69.9994C128.373 70.0525 128.389 70.1028 128.406 70.1547C128.421 70.2006 128.436 70.2476 128.454 70.299C128.501 70.4311 128.588 70.5307 128.698 70.4905C128.803 70.4519 128.902 70.3656 128.823 70.1391C128.801 70.0761 128.782 70.0283 128.764 69.9801C128.75 69.9443 128.736 69.9083 128.721 69.8658C128.693 69.7912 128.723 69.7105 128.798 69.6832C128.873 69.656 128.947 69.6989 128.974 69.7734C128.991 69.818 129.005 69.863 129.021 69.9129C129.041 69.9749 129.064 70.0444 129.095 70.1301C129.095 70.1301 129.204 70.4441 129.24 70.5092C129.27 70.4853 129.308 70.4337 129.33 70.3332C129.344 70.2725 129.401 70.24 129.446 70.2481C129.509 70.2594 129.528 70.3186 129.524 70.3683C129.515 70.4967 129.475 70.5878 129.332 70.7031C129.401 70.8901 129.488 71.1711 129.16 71.347C128.88 71.4976 128.683 71.3745 128.629 71.2284C128.544 70.9977 128.751 70.8464 129.053 70.6412L129.001 70.5306C129.001 70.5306 128.962 70.6549 128.773 70.7187C128.626 70.7678 128.501 70.7357 128.406 70.661C128.378 70.801 128.288 70.8963 128.124 70.9563C128.015 70.9958 127.891 70.9761 127.809 70.9116C127.766 71.0296 127.679 71.1168 127.537 71.1684C127.414 71.2133 127.307 71.2039 127.228 71.1572C127.187 71.2616 127.096 71.3296 126.955 71.3812ZM129.142 70.8176C128.987 70.9152 128.795 71.0451 128.836 71.1479C128.873 71.2443 128.98 71.2255 129.058 71.1777C129.218 71.0785 129.201 70.9665 129.142 70.8176ZM126.478 70.1827C126.45 70.1074 126.367 70.0688 126.291 70.0963C126.216 70.1238 126.177 70.2069 126.204 70.2822C126.232 70.3574 126.315 70.3961 126.39 70.3686C126.466 70.3411 126.505 70.2579 126.478 70.1827Z" fill="black"/>
<path d="M87.5701 51.4214L88.5085 51.0798L89.4469 50.7383L90.3853 50.3967L91.3237 50.0552L92.2622 49.7136L93.2006 49.372L94.139 49.0305L94.4806 49.9689L94.8221 50.9073L95.1637 51.8457L95.5052 52.7842L95.8468 53.7226L96.1883 54.661L96.5299 55.5994L95.5915 55.941L94.6531 56.2825L93.7146 56.6241L92.7762 56.9656L91.8378 57.3072L90.8994 57.6488L89.961 57.9903L89.6194 57.0519L89.2778 56.1135L88.9363 55.1751L88.5947 54.2366L88.2532 53.2982L87.9116 52.3598L87.5701 51.4214ZM88.85 52.0182L89.1916 52.9567L89.5332 53.8951L89.8747 54.8335L90.2163 55.7719L90.5578 56.7103L91.4962 56.3688L92.4347 56.0272L93.3731 55.6857L94.3115 55.3441L95.2499 55.0026L94.9084 54.0641L94.5668 53.1257L94.2252 52.1873L93.8837 51.2489L93.5421 50.3105L92.6037 50.652L91.6653 50.9936L90.7269 51.3351L89.7885 51.6767L88.85 52.0182Z" fill="black"/>
<path d="M90.1343 52.6177L91.0727 52.2761L92.0111 51.9346L92.9495 51.593L93.2911 52.5314L93.6326 53.4698L93.9742 54.4083L93.0358 54.7498L92.0974 55.0914L91.1589 55.4329L90.8174 54.4945L90.4758 53.5561L90.1343 52.6177Z" fill="black"/>
<path d="M111.968 42.5417L112.906 42.2002L113.844 41.8586L114.783 41.5171L115.721 41.1755L116.66 40.834L117.598 40.4924L118.536 40.1509L118.878 41.0893L119.22 42.0277L119.561 42.9661L119.903 43.9045L120.244 44.8429L120.586 45.7814L120.927 46.7198L119.989 47.0613L119.051 47.4029L118.112 47.7445L117.174 48.086L116.235 48.4276L115.297 48.7691L114.358 49.1107L114.017 48.1723L113.675 47.2338L113.334 46.2954L112.992 45.357L112.651 44.4186L112.309 43.4802L111.968 42.5417ZM113.248 43.1386L113.589 44.077L113.931 45.0154L114.272 45.9539L114.614 46.8923L114.955 47.8307L115.894 47.4891L116.832 47.1476L117.771 46.806L118.709 46.4645L119.647 46.1229L119.306 45.1845L118.964 44.2461L118.623 43.3077L118.281 42.3692L117.94 41.4308L117.001 41.7724L116.063 42.1139L115.124 42.4555L114.186 42.7971L113.248 43.1386Z" fill="black"/>
<path d="M114.532 43.7363L115.47 43.3948L116.409 43.0532L117.347 42.7117L117.689 43.6501L118.03 44.5885L118.372 45.5269L117.433 45.8685L116.495 46.21L115.556 46.5516L115.215 45.6132L114.873 44.6747L114.532 43.7363Z" fill="black"/>
<path d="M96.4502 75.8208L97.3886 75.4792L98.327 75.1377L99.2655 74.7961L100.204 74.4546L101.142 74.113L102.081 73.7715L103.019 73.4299L103.361 74.3683L103.702 75.3067L104.044 76.2452L104.385 77.1836L104.727 78.122L105.068 79.0604L105.41 79.9988L104.472 80.3404L103.533 80.6819L102.595 81.0235L101.656 81.3651L100.718 81.7066L99.7795 82.0482L98.8411 82.3897L98.4995 81.4513L98.158 80.5129L97.8164 79.5745L97.4749 78.6361L97.1333 77.6976L96.7918 76.7592L96.4502 75.8208ZM97.7302 76.4177L98.0717 77.3561L98.4133 78.2945L98.7548 79.2329L99.0964 80.1713L99.438 81.1098L100.376 80.7682L101.315 80.4266L102.253 80.0851L103.192 79.7435L104.13 79.402L103.788 78.4636L103.447 77.5251L103.105 76.5867L102.764 75.6483L102.422 74.7099L101.484 75.0514L100.545 75.393L99.607 75.7346L98.6686 76.0761L97.7302 76.4177Z" fill="black"/>
<path d="M99.0142 77.0149L99.9526 76.6733L100.891 76.3318L101.829 75.9902L102.171 76.9286L102.513 77.8671L102.854 78.8055L101.916 79.147L100.977 79.4886L100.039 79.8301L99.6973 78.8917L99.3557 77.9533L99.0142 77.0149Z" fill="black"/>
</g>
</g>
<rect x="49.2141" y="60.5322" width="23.0687" height="4.61373" transform="rotate(-20 49.2141 60.5322)" fill="#D9D9D9"/>
<rect x="51.5811" y="67.0354" width="23.0687" height="0.768956" transform="rotate(-20 51.5811 67.0354)" fill="#D9D9D9"/>
<rect x="52.6331" y="69.9258" width="23.0687" height="4.61373" transform="rotate(-20 52.6331 69.9258)" fill="#D9D9D9"/>
<rect x="55" y="76.429" width="23.0687" height="0.768956" transform="rotate(-20 55 76.429)" fill="#D9D9D9"/>
<rect x="56.052" y="79.3193" width="23.0687" height="3.07582" transform="rotate(-20 56.052 79.3193)" fill="#D9D9D9"/>
<rect x="57.8931" y="84.3774" width="23.0687" height="3.07582" transform="rotate(-20 57.8931 84.3774)" fill="#D9D9D9"/>
<rect x="59.7341" y="89.4355" width="23.0687" height="4.61373" transform="rotate(-20 59.7341 89.4355)" fill="#D9D9D9"/>
<rect x="62.1011" y="95.9387" width="23.0687" height="2.30687" transform="rotate(-20 62.1011 95.9387)" fill="#D9D9D9"/>
</g>
<rect x="-56.2852" y="89.9297" width="193.777" height="58.4406" transform="rotate(-20 -56.2852 89.9297)" stroke="#C2C2C2" stroke-width="0.768956" stroke-dasharray="3.08 3.08"/>
</g>
<defs>
<filter id="filter0_d_201_583" x="-79.9414" y="-0.000976562" width="273.39" height="192.501" filterUnits="userSpaceOnUse" color-interpolation-filters="sRGB">
<feFlood flood-opacity="0" result="BackgroundImageFix"/>
<feColorMatrix in="SourceAlpha" type="matrix" values="0 0 0 0 0 0 0 0 0 0 0 0 0 0 0 0 0 0 127 0" result="hardAlpha"/>
<feOffset dx="24" dy="24"/>
<feComposite in2="hardAlpha" operator="out"/>
<feColorMatrix type="matrix" values="0 0 0 0 0 0 0 0 0 0 0 0 0 0 0 0 0 0 1 0"/>
<feBlend mode="normal" in2="BackgroundImageFix" result="effect1_dropShadow_201_583"/>
<feBlend mode="normal" in="SourceGraphic" in2="effect1_dropShadow_201_583" result="shape"/>
</filter>
<clipPath id="clip0_201_583">
<rect x="-56.2852" y="89.9297" width="193.777" height="58.4406" transform="rotate(-20 -56.2852 89.9297)" fill="white"/>
</clipPath>
<clipPath id="clip1_201_583">
<rect x="81.2375" y="48.4675" width="42.2926" height="42.2926" rx="2.19702" transform="rotate(-20 81.2375 48.4675)" fill="white"/>
</clipPath>
<clipPath id="clip2_201_583">
<rect width="32.9552" height="32.9552" fill="white" transform="translate(87.5708 51.4219) rotate(-20)"/>
</clipPath>
</defs>
</svg>
