<svg width="272" height="223" viewBox="0 0 272 223" fill="none" xmlns="http://www.w3.org/2000/svg">
<g filter="url(#filter0_d_1_5494)">
<mask id="path-1-inside-1_1_5494" fill="white">
<path d="M139.578 53.2302C137.03 57.6435 138.543 63.2871 142.956 65.8353C147.231 68.3038 152.662 66.9618 155.313 62.8629L155.561 62.4578L247.46 115.516L242.846 123.507C240.64 122.233 237.818 122.989 236.544 125.195C235.309 127.333 235.981 130.049 238.03 131.375L238.233 131.498L234.388 138.158C232.181 136.884 229.359 137.639 228.085 139.846C226.851 141.984 227.522 144.699 229.572 146.025L229.774 146.149L225.929 152.808C223.723 151.534 220.901 152.29 219.627 154.496C218.392 156.634 219.064 159.35 221.113 160.676L221.316 160.8L217.471 167.459C215.264 166.185 212.442 166.94 211.168 169.147C209.934 171.285 210.605 174 212.655 175.326L212.857 175.45L209.012 182.109C206.806 180.835 203.984 181.591 202.71 183.797C201.475 185.935 202.147 188.651 204.196 189.977L204.399 190.101L199.785 198.092L107.886 145.034C110.434 140.62 108.921 134.977 104.508 132.429C100.095 129.881 94.451 131.393 91.903 135.806L0.0045166 82.7486L4.61829 74.7574C6.82497 76.0312 9.64662 75.2746 10.9206 73.0679C12.1546 70.9303 11.4838 68.2156 9.43464 66.8898L9.23206 66.7661L13.0768 60.1068C15.2835 61.3807 18.1051 60.624 19.3791 58.4174C20.6131 56.2797 19.9423 53.5651 17.8931 52.2393L17.6906 52.1155L21.5353 45.4563C23.742 46.7302 26.5636 45.9735 27.8376 43.7668C29.0716 41.6292 28.4008 38.9146 26.3516 37.5887L26.149 37.465L29.9938 30.8057C32.2005 32.0796 35.0221 31.3229 36.2961 29.1163C37.5301 26.9786 36.8593 24.264 34.8101 22.9382L34.6075 22.8144L38.4523 16.1552C40.659 17.4291 43.4806 16.6724 44.7546 14.4657C45.9886 12.3281 45.3178 9.61348 43.2686 8.28762L43.066 8.16389L47.6798 0.172607L139.578 53.2302Z"/>
</mask>
<path d="M139.578 53.2302C137.03 57.6435 138.543 63.2871 142.956 65.8353C147.231 68.3038 152.662 66.9618 155.313 62.8629L155.561 62.4578L247.46 115.516L242.846 123.507C240.64 122.233 237.818 122.989 236.544 125.195C235.309 127.333 235.981 130.049 238.03 131.375L238.233 131.498L234.388 138.158C232.181 136.884 229.359 137.639 228.085 139.846C226.851 141.984 227.522 144.699 229.572 146.025L229.774 146.149L225.929 152.808C223.723 151.534 220.901 152.29 219.627 154.496C218.392 156.634 219.064 159.35 221.113 160.676L221.316 160.8L217.471 167.459C215.264 166.185 212.442 166.94 211.168 169.147C209.934 171.285 210.605 174 212.655 175.326L212.857 175.45L209.012 182.109C206.806 180.835 203.984 181.591 202.71 183.797C201.475 185.935 202.147 188.651 204.196 189.977L204.399 190.101L199.785 198.092L107.886 145.034C110.434 140.62 108.921 134.977 104.508 132.429C100.095 129.881 94.451 131.393 91.903 135.806L0.0045166 82.7486L4.61829 74.7574C6.82497 76.0312 9.64662 75.2746 10.9206 73.0679C12.1546 70.9303 11.4838 68.2156 9.43464 66.8898L9.23206 66.7661L13.0768 60.1068C15.2835 61.3807 18.1051 60.624 19.3791 58.4174C20.6131 56.2797 19.9423 53.5651 17.8931 52.2393L17.6906 52.1155L21.5353 45.4563C23.742 46.7302 26.5636 45.9735 27.8376 43.7668C29.0716 41.6292 28.4008 38.9146 26.3516 37.5887L26.149 37.465L29.9938 30.8057C32.2005 32.0796 35.0221 31.3229 36.2961 29.1163C37.5301 26.9786 36.8593 24.264 34.8101 22.9382L34.6075 22.8144L38.4523 16.1552C40.659 17.4291 43.4806 16.6724 44.7546 14.4657C45.9886 12.3281 45.3178 9.61348 43.2686 8.28762L43.066 8.16389L47.6798 0.172607L139.578 53.2302Z" fill="#072422"/>
<path d="M139.578 53.2302L140.244 53.6147L140.629 52.9488L139.963 52.5643L139.578 53.2302ZM142.956 65.8353L142.571 66.5012L142.571 66.5012L142.956 65.8353ZM155.313 62.8629L155.959 63.2806L155.964 63.2722L155.97 63.2637L155.313 62.8629ZM155.561 62.4578L155.945 61.7918L155.296 61.4167L154.905 62.057L155.561 62.4578ZM247.46 115.516L248.126 115.9L248.511 115.234L247.845 114.85L247.46 115.516ZM242.846 123.507L242.462 124.173L243.128 124.558L243.512 123.892L242.846 123.507ZM236.544 125.195L235.878 124.811L235.878 124.811L236.544 125.195ZM238.03 131.375L237.612 132.02L237.621 132.026L237.629 132.031L238.03 131.375ZM238.233 131.498L238.899 131.883L239.274 131.233L238.633 130.842L238.233 131.498ZM234.388 138.158L234.003 138.824L234.669 139.208L235.054 138.542L234.388 138.158ZM228.085 139.846L227.419 139.461L227.419 139.461L228.085 139.846ZM229.572 146.025L229.154 146.671L229.162 146.676L229.171 146.681L229.572 146.025ZM229.774 146.149L230.44 146.533L230.815 145.884L230.175 145.493L229.774 146.149ZM225.929 152.808L225.545 153.474L226.211 153.859L226.595 153.193L225.929 152.808ZM219.627 154.496L218.961 154.112L218.961 154.112L219.627 154.496ZM221.113 160.676L220.695 161.321L220.704 161.327L220.712 161.332L221.113 160.676ZM221.316 160.8L221.982 161.184L222.357 160.534L221.716 160.143L221.316 160.8ZM217.471 167.459L217.086 168.125L217.752 168.509L218.137 167.843L217.471 167.459ZM211.168 169.147L210.502 168.762L210.502 168.762L211.168 169.147ZM212.655 175.326L212.237 175.972L212.245 175.977L212.254 175.983L212.655 175.326ZM212.857 175.45L213.523 175.835L213.898 175.185L213.258 174.794L212.857 175.45ZM209.012 182.109L208.628 182.775L209.294 183.16L209.678 182.494L209.012 182.109ZM202.71 183.797L202.044 183.413L202.044 183.413L202.71 183.797ZM204.196 189.977L203.778 190.623L203.787 190.628L203.795 190.633L204.196 189.977ZM204.399 190.101L205.065 190.485L205.44 189.835L204.799 189.444L204.399 190.101ZM199.785 198.092L199.4 198.758L200.066 199.142L200.451 198.476L199.785 198.092ZM107.886 145.034L107.22 144.649L106.835 145.315L107.501 145.7L107.886 145.034ZM104.508 132.429L104.893 131.763L104.893 131.763L104.508 132.429ZM91.903 135.806L91.5185 136.472L92.1845 136.857L92.5689 136.191L91.903 135.806ZM0.0045166 82.7486L-0.661419 82.3642L-1.0459 83.0301L-0.379963 83.4146L0.0045166 82.7486ZM4.61829 74.7574L5.00273 74.0914L4.33681 73.707L3.95235 74.3729L4.61829 74.7574ZM10.9206 73.0679L11.5866 73.4524L11.5866 73.4523L10.9206 73.0679ZM9.43464 66.8898L9.85235 66.2442L9.84396 66.2388L9.83544 66.2336L9.43464 66.8898ZM9.23206 66.7661L8.56612 66.3816L8.19102 67.0313L8.83126 67.4223L9.23206 66.7661ZM13.0768 60.1068L13.4612 59.4409L12.7953 59.0564L12.4108 59.7223L13.0768 60.1068ZM19.3791 58.4174L20.0451 58.8019L20.0451 58.8018L19.3791 58.4174ZM17.8931 52.2393L18.3108 51.5936L18.3025 51.5882L18.2939 51.583L17.8931 52.2393ZM17.6906 52.1155L17.0246 51.731L16.6495 52.3807L17.2898 52.7718L17.6906 52.1155ZM21.5353 45.4563L21.9197 44.7903L21.2538 44.4059L20.8693 45.0718L21.5353 45.4563ZM27.8376 43.7668L28.5036 44.1513L28.5036 44.1513L27.8376 43.7668ZM26.3516 37.5887L26.7693 36.9431L26.761 36.9377L26.7524 36.9325L26.3516 37.5887ZM26.149 37.465L25.4831 37.0805L25.108 37.7302L25.7482 38.1212L26.149 37.465ZM29.9938 30.8057L30.3782 30.1398L29.7123 29.7553L29.3278 30.4212L29.9938 30.8057ZM36.2961 29.1163L36.9621 29.5008L36.9621 29.5007L36.2961 29.1163ZM34.8101 22.9382L35.2278 22.2926L35.2195 22.2871L35.2109 22.2819L34.8101 22.9382ZM34.6075 22.8144L33.9416 22.43L33.5665 23.0797L34.2067 23.4707L34.6075 22.8144ZM38.4523 16.1552L38.8367 15.4892L38.1708 15.1048L37.7863 15.7707L38.4523 16.1552ZM44.7546 14.4657L45.4206 14.8502L45.4206 14.8502L44.7546 14.4657ZM43.2686 8.28762L43.6863 7.64201L43.6779 7.63658L43.6694 7.63138L43.2686 8.28762ZM43.066 8.16389L42.4001 7.77941L42.025 8.42911L42.6652 8.82013L43.066 8.16389ZM47.6798 0.172607L48.0643 -0.493328L47.3984 -0.877806L47.0139 -0.21187L47.6798 0.172607ZM139.578 53.2302L138.912 52.8458C136.152 57.6269 137.79 63.7407 142.571 66.5012L142.956 65.8353L143.34 65.1694C139.295 62.8335 137.909 57.6602 140.244 53.6147L139.578 53.2302ZM142.956 65.8353L142.571 66.5012C147.203 69.1755 153.086 67.7216 155.959 63.2806L155.313 62.8629L154.668 62.4452C152.237 66.202 147.259 67.432 143.34 65.1693L142.956 65.8353ZM155.313 62.8629L155.97 63.2637L156.217 62.8586L155.561 62.4578L154.905 62.057L154.657 62.4621L155.313 62.8629ZM155.561 62.4578L155.176 63.1237L247.076 116.182L247.46 115.516L247.845 114.85L155.945 61.7918L155.561 62.4578ZM247.46 115.516L246.794 115.131L242.18 123.123L242.846 123.507L243.512 123.892L248.126 115.9L247.46 115.516ZM242.846 123.507L243.231 122.841C240.657 121.355 237.364 122.236 235.878 124.811L236.544 125.195L237.21 125.58C238.271 123.741 240.623 123.111 242.462 124.173L242.846 123.507ZM236.544 125.195L235.878 124.811C234.438 127.305 235.221 130.473 237.612 132.02L238.03 131.375L238.448 130.729C236.74 129.625 236.181 127.361 237.21 125.58L236.544 125.195ZM238.03 131.375L237.629 132.031L237.832 132.155L238.233 131.498L238.633 130.842L238.431 130.718L238.03 131.375ZM238.233 131.498L237.567 131.114L233.722 137.773L234.388 138.158L235.054 138.542L238.899 131.883L238.233 131.498ZM234.388 138.158L234.772 137.492C232.198 136.006 228.906 136.887 227.419 139.461L228.085 139.846L228.751 140.23C229.813 138.392 232.164 137.762 234.003 138.824L234.388 138.158ZM228.085 139.846L227.419 139.461C225.979 141.956 226.762 145.124 229.154 146.671L229.572 146.025L229.989 145.38C228.282 144.275 227.723 142.012 228.751 140.23L228.085 139.846ZM229.572 146.025L229.171 146.681L229.373 146.805L229.774 146.149L230.175 145.493L229.972 145.369L229.572 146.025ZM229.774 146.149L229.108 145.765L225.264 152.424L225.929 152.808L226.595 153.193L230.44 146.533L229.774 146.149ZM225.929 152.808L226.314 152.142C223.74 150.656 220.447 151.537 218.961 154.112L219.627 154.496L220.293 154.881C221.354 153.042 223.706 152.412 225.545 153.474L225.929 152.808ZM219.627 154.496L218.961 154.112C217.521 156.606 218.304 159.774 220.695 161.321L221.113 160.676L221.531 160.03C219.823 158.926 219.264 156.662 220.293 154.881L219.627 154.496ZM221.113 160.676L220.712 161.332L220.915 161.456L221.316 160.8L221.716 160.143L221.514 160.02L221.113 160.676ZM221.316 160.8L220.65 160.415L216.805 167.074L217.471 167.459L218.137 167.843L221.982 161.184L221.316 160.8ZM217.471 167.459L217.855 166.793C215.281 165.307 211.989 166.188 210.502 168.762L211.168 169.147L211.834 169.531C212.896 167.693 215.248 167.063 217.086 168.125L217.471 167.459ZM211.168 169.147L210.502 168.762C209.062 171.257 209.845 174.425 212.237 175.972L212.655 175.326L213.072 174.681C211.365 173.576 210.806 171.313 211.834 169.531L211.168 169.147ZM212.655 175.326L212.254 175.983L212.456 176.106L212.857 175.45L213.258 174.794L213.055 174.67L212.655 175.326ZM212.857 175.45L212.191 175.066L208.347 181.725L209.012 182.109L209.678 182.494L213.523 175.835L212.857 175.45ZM209.012 182.109L209.397 181.443C206.823 179.957 203.53 180.839 202.044 183.413L202.71 183.797L203.376 184.182C204.437 182.343 206.789 181.714 208.628 182.775L209.012 182.109ZM202.71 183.797L202.044 183.413C200.604 185.907 201.387 189.075 203.778 190.623L204.196 189.977L204.614 189.331C202.906 188.227 202.347 185.963 203.376 184.182L202.71 183.797ZM204.196 189.977L203.795 190.633L203.998 190.757L204.399 190.101L204.799 189.444L204.597 189.321L204.196 189.977ZM204.399 190.101L203.733 189.716L199.119 197.707L199.785 198.092L200.451 198.476L205.065 190.485L204.399 190.101ZM199.785 198.092L200.169 197.426L108.27 144.368L107.886 145.034L107.501 145.7L199.4 198.758L199.785 198.092ZM107.886 145.034L108.552 145.418C111.312 140.637 109.674 134.523 104.893 131.763L104.508 132.429L104.124 133.095C108.169 135.43 109.555 140.604 107.22 144.649L107.886 145.034ZM104.508 132.429L104.893 131.763C100.111 129.003 93.9975 130.641 91.2371 135.422L91.903 135.806L92.5689 136.191C94.9046 132.145 100.078 130.759 104.124 133.095L104.508 132.429ZM91.903 135.806L92.2875 135.14L0.388996 82.0827L0.0045166 82.7486L-0.379963 83.4146L91.5185 136.472L91.903 135.806ZM0.0045166 82.7486L0.670452 83.1331L5.28422 75.1418L4.61829 74.7574L3.95235 74.3729L-0.661419 82.3642L0.0045166 82.7486ZM4.61829 74.7574L4.23384 75.4233C6.80845 76.9096 10.1003 76.0267 11.5866 73.4524L10.9206 73.0679L10.2547 72.6835C9.19294 74.5225 6.8415 75.1529 5.00273 74.0914L4.61829 74.7574ZM10.9206 73.0679L11.5866 73.4523C13.0263 70.9583 12.2437 67.7914 9.85235 66.2442L9.43464 66.8898L9.01693 67.5354C10.724 68.6399 11.2829 70.9023 10.2547 72.6835L10.9206 73.0679ZM9.43464 66.8898L9.83544 66.2336L9.63285 66.1098L9.23206 66.7661L8.83126 67.4223L9.03384 67.546L9.43464 66.8898ZM9.23206 66.7661L9.89799 67.1505L13.7427 60.4913L13.0768 60.1068L12.4108 59.7223L8.56612 66.3816L9.23206 66.7661ZM13.0768 60.1068L12.6923 60.7728C15.2669 62.2591 18.5588 61.3761 20.0451 58.8019L19.3791 58.4174L18.7132 58.0329C17.6514 59.8719 15.3 60.5023 13.4612 59.4409L13.0768 60.1068ZM19.3791 58.4174L20.0451 58.8018C21.4848 56.3077 20.7022 53.1408 18.3108 51.5936L17.8931 52.2393L17.4754 52.8849C19.1825 53.9893 19.7414 56.2517 18.7132 58.033L19.3791 58.4174ZM17.8931 52.2393L18.2939 51.583L18.0914 51.4593L17.6906 52.1155L17.2898 52.7718L17.4923 52.8955L17.8931 52.2393ZM17.6906 52.1155L18.3565 52.5L22.2012 45.8407L21.5353 45.4563L20.8693 45.0718L17.0246 51.731L17.6906 52.1155ZM21.5353 45.4563L21.1508 46.1222C23.7254 47.6085 27.0173 46.7256 28.5036 44.1513L27.8376 43.7668L27.1717 43.3824C26.1099 45.2214 23.7585 45.8518 21.9197 44.7903L21.5353 45.4563ZM27.8376 43.7668L28.5036 44.1513C29.9433 41.6572 29.1607 38.4903 26.7693 36.9431L26.3516 37.5887L25.9339 38.2343C27.641 39.3388 28.1999 41.6012 27.1717 43.3824L27.8376 43.7668ZM26.3516 37.5887L26.7524 36.9325L26.5498 36.8087L26.149 37.465L25.7482 38.1212L25.9508 38.2449L26.3516 37.5887ZM26.149 37.465L26.815 37.8495L30.6597 31.1902L29.9938 30.8057L29.3278 30.4212L25.4831 37.0805L26.149 37.465ZM29.9938 30.8057L29.6093 31.4717C32.1839 32.958 35.4758 32.0751 36.9621 29.5008L36.2961 29.1163L35.6302 28.7318C34.5684 30.5708 32.217 31.2013 30.3782 30.1398L29.9938 30.8057ZM36.2961 29.1163L36.9621 29.5007C38.4018 27.0066 37.6192 23.8398 35.2278 22.2926L34.8101 22.9382L34.3924 23.5838C36.0995 24.6883 36.6584 26.9506 35.6302 28.7319L36.2961 29.1163ZM34.8101 22.9382L35.2109 22.2819L35.0083 22.1582L34.6075 22.8144L34.2067 23.4707L34.4093 23.5944L34.8101 22.9382ZM34.6075 22.8144L35.2735 23.1989L39.1182 16.5397L38.4523 16.1552L37.7863 15.7707L33.9416 22.43L34.6075 22.8144ZM38.4523 16.1552L38.0678 16.8211C40.6424 18.3074 43.9343 17.4245 45.4206 14.8502L44.7546 14.4657L44.0887 14.0813C43.0269 15.9203 40.6755 16.5507 38.8367 15.4892L38.4523 16.1552ZM44.7546 14.4657L45.4206 14.8502C46.8604 12.3561 46.0777 9.18923 43.6863 7.64201L43.2686 8.28762L42.8509 8.93323C44.558 10.0377 45.1169 12.3001 44.0887 14.0813L44.7546 14.4657ZM43.2686 8.28762L43.6694 7.63138L43.4668 7.50765L43.066 8.16389L42.6652 8.82013L42.8678 8.94386L43.2686 8.28762ZM43.066 8.16389L43.732 8.54837L48.3457 0.557085L47.6798 0.172607L47.0139 -0.21187L42.4001 7.77941L43.066 8.16389ZM47.6798 0.172607L47.2953 0.838543L139.194 53.8962L139.578 53.2302L139.963 52.5643L48.0643 -0.493328L47.6798 0.172607Z" fill="black" mask="url(#path-1-inside-1_1_5494)"/>
<g clip-path="url(#clip0_1_5494)">
<rect x="54.4328" y="25.3821" width="193.777" height="58.4406" transform="rotate(30 54.4328 25.3821)" fill="#072422"/>
<line x1="141.365" y1="69.3565" x2="102.917" y2="135.95" stroke="#C2C2C2" stroke-width="0.768956" stroke-dasharray="3.08 3.08"/>
<path d="M55.9763 43.1709C55.5686 42.9355 55.2666 42.6473 55.0701 42.3061C54.8798 41.9633 54.7981 41.5848 54.8249 41.1706C54.8541 40.7526 55.0009 40.3145 55.2654 39.8564C55.5276 39.4021 55.8294 39.0587 56.1708 38.8261C56.5144 38.5897 56.8822 38.4681 57.2742 38.4616C57.6702 38.4572 58.0758 38.5749 58.4913 38.8148C58.9028 39.0524 59.2068 39.3418 59.4032 39.683C59.5997 40.0242 59.6833 40.4038 59.6542 40.8218C59.6274 41.2359 59.4817 41.6721 59.2172 42.1302C58.9549 42.5845 58.652 42.9298 58.3084 43.1663C57.9648 43.4027 57.5951 43.5232 57.1991 43.5275C56.8032 43.5319 56.3956 43.413 55.9763 43.1709ZM56.3394 42.5419C56.7315 42.7683 57.1103 42.8162 57.4756 42.6855C57.8471 42.5531 58.1819 42.2287 58.48 41.7124C58.7625 41.2232 58.8773 40.7822 58.8246 40.3894C58.7741 39.9927 58.543 39.6755 58.1315 39.4379C57.7471 39.216 57.3692 39.1712 56.9977 39.3036C56.6285 39.4321 56.2948 39.7545 55.9967 40.2709C55.7165 40.7562 55.6016 41.1972 55.6522 41.5939C55.7027 41.9906 55.9317 42.3066 56.3394 42.5419ZM58.5573 44.5834L62.7031 41.3164L63.5068 41.7804L62.7504 47.0043L62.0166 46.5806L62.2099 45.3178L60.2706 44.1982L59.2736 44.997L58.5573 44.5834ZM62.1565 42.6935L60.8431 43.7445L62.3223 44.5985L62.5816 42.939C62.6126 42.7239 62.6551 42.4845 62.7091 42.2206C62.5137 42.3976 62.3295 42.5553 62.1565 42.6935ZM64.3324 45.891L65.9059 43.1655L66.5989 43.5656L65.0523 46.2445C64.8461 46.6017 64.7991 46.9162 64.9113 47.1881C65.0257 47.4561 65.2499 47.6864 65.5838 47.8792C65.9682 48.1011 66.2973 48.1721 66.5713 48.0921C66.8491 48.0144 67.0765 47.8222 67.2536 47.5155L68.8003 44.8366L69.4875 45.2333L67.9139 47.9588C67.7301 48.2772 67.5019 48.5156 67.2293 48.6739C66.9589 48.8284 66.6517 48.8943 66.3076 48.8717C65.9673 48.8513 65.6012 48.7279 65.209 48.5015C64.6538 48.1809 64.2955 47.7929 64.1341 47.3373C63.9749 46.8778 64.041 46.3957 64.3324 45.891ZM71.7906 52.3013C71.3752 52.0615 71.0735 51.7682 70.8854 51.4215C70.6973 51.0748 70.6198 50.6935 70.6528 50.2778C70.6858 49.862 70.8311 49.4308 71.0889 48.9844C71.3534 48.5262 71.6602 48.1831 72.0093 47.955C72.3607 47.723 72.7332 47.6068 73.1269 47.6063C73.5245 47.6081 73.9252 47.7255 74.3289 47.9587C74.6784 48.1604 74.9473 48.3985 75.1357 48.6729C75.3302 48.9457 75.4423 49.2356 75.4721 49.5427C75.5057 49.852 75.4579 50.1635 75.3286 50.4771L74.5726 50.1726C74.6976 49.8306 74.702 49.5226 74.5859 49.2485C74.4737 48.9766 74.2662 48.7533 73.9633 48.5784C73.544 48.3364 73.1489 48.2946 72.7778 48.453C72.4129 48.6099 72.0926 48.9271 71.8169 49.4046C71.5165 49.9249 71.4038 50.3801 71.4788 50.7702C71.5561 51.1565 71.7849 51.4594 72.1654 51.6791C72.5032 51.8741 72.8173 51.9442 73.1078 51.8893C73.4045 51.8328 73.661 51.6755 73.8773 51.4173L74.5266 51.8931C74.304 52.1891 74.0434 52.3984 73.7448 52.5211C73.4501 52.646 73.1351 52.6893 72.8 52.6511C72.4649 52.613 72.1284 52.4963 71.7906 52.3013ZM74.2922 53.668L78.438 50.4009L79.2417 50.8649L78.4852 56.0888L77.7514 55.6652L77.9447 54.4024L76.0055 53.2827L75.0085 54.0815L74.2922 53.668ZM77.8914 51.7781L76.578 52.829L78.0572 53.6831L78.3165 52.0235C78.3475 51.8085 78.39 51.569 78.444 51.3051C78.2486 51.4822 78.0644 51.6398 77.8914 51.7781ZM79.4012 56.6176L81.8523 52.3722L82.9646 53.0144L82.2167 56.8921L85.2126 54.3122L86.3016 54.941L83.8505 59.1865L83.1691 58.7931L85.303 55.1642L81.9112 58.0668L81.323 57.7272L82.1665 53.3611L80.0651 57.001L79.4012 56.6176ZM85.2174 59.9756L87.6685 55.7302L89.6136 56.8532C90.0795 57.1221 90.3722 57.449 90.4917 57.8338C90.6151 58.2208 90.5625 58.6123 90.3338 59.0083C90.103 59.4082 89.7872 59.6504 89.3864 59.7348C88.9918 59.8175 88.5615 59.7244 88.0956 59.4555L86.8552 58.7393L85.9104 60.3757L85.2174 59.9756ZM89.2839 57.4781L88.0085 56.7418L87.2015 58.1394L88.4769 58.8758C88.6943 59.0013 88.9035 59.047 89.1044 59.0129C89.3075 58.9748 89.4774 58.8374 89.6142 58.6006C89.7487 58.3676 89.7835 58.1548 89.7188 57.9621C89.654 57.7695 89.509 57.6081 89.2839 57.4781ZM90.5508 61.0282L92.1243 58.3027L92.8174 58.7029L91.2707 61.3817C91.0645 61.7389 91.0175 62.0535 91.1297 62.3253C91.2442 62.5933 91.4684 62.8237 91.8022 63.0164C92.1866 63.2384 92.5158 63.3093 92.7897 63.2294C93.0675 63.1516 93.295 62.9594 93.4721 62.6527L95.0187 59.9738L95.7059 60.3706L94.1324 63.096C93.9485 63.4144 93.7203 63.6528 93.4477 63.8112C93.1773 63.9656 92.8701 64.0316 92.526 64.0089C92.1858 63.9885 91.8196 63.8651 91.4275 63.6387C90.8723 63.3181 90.514 62.9301 90.3525 62.4745C90.1933 62.015 90.2594 61.5329 90.5508 61.0282ZM98.5799 63.7537C98.7162 63.4907 98.7409 63.2461 98.6541 63.02C98.5672 62.7938 98.3899 62.6034 98.122 62.4488C97.8657 62.3008 97.6394 62.24 97.443 62.2664C97.2505 62.295 97.1049 62.3948 97.0063 62.5656C96.9211 62.7131 96.8985 62.8554 96.9385 62.9923C96.9784 63.1293 97.0662 63.2732 97.2018 63.4239C97.3373 63.5746 97.5043 63.7383 97.7026 63.9149C97.9125 64.0982 98.0946 64.2939 98.2488 64.502C98.403 64.7101 98.4951 64.9316 98.5252 65.1664C98.5592 65.4034 98.4966 65.6598 98.3375 65.9354C98.1178 66.3159 97.7971 66.5397 97.3753 66.6067C96.9574 66.6761 96.4883 66.5605 95.968 66.2602C95.6264 66.0629 95.3649 65.8343 95.1837 65.5744C95.0064 65.3167 94.9091 65.0457 94.8921 64.7615C94.8811 64.4757 94.9533 64.1938 95.1085 63.9159L95.8345 64.2185C95.6735 64.5242 95.6367 64.8032 95.724 65.0555C95.8152 65.31 96.0102 65.5236 96.3092 65.6962C96.5771 65.8508 96.8217 65.9248 97.043 65.918C97.2644 65.9112 97.4423 65.7913 97.5768 65.5584C97.6709 65.3953 97.698 65.2453 97.658 65.1083C97.6219 64.9736 97.5444 64.8434 97.4254 64.7177C97.3086 64.5882 97.1761 64.4547 97.0276 64.3173C96.7513 64.0697 96.5285 63.8324 96.3594 63.6053C96.1964 63.3766 96.1026 63.149 96.078 62.9226C96.0534 62.6962 96.114 62.4568 96.2597 62.2044C96.3942 61.9715 96.5751 61.8016 96.8024 61.6947C97.032 61.584 97.2886 61.5431 97.572 61.5722C97.8555 61.6013 98.1486 61.7032 98.4515 61.8781C98.9445 62.1627 99.2617 62.5011 99.4028 62.8932C99.5462 63.2814 99.5167 63.6733 99.3142 64.0689L98.5799 63.7537ZM97.9114 68.4227L98.1165 68.0674L98.2272 68.1313C98.332 68.1919 98.4184 68.2081 98.4864 68.18C98.5521 68.1559 98.6085 68.103 98.6556 68.0215L98.78 67.806L98.448 67.6143L98.8616 66.898L99.5371 67.2881L98.9622 68.2839C98.8523 68.4741 98.7173 68.5825 98.557 68.6091C98.3945 68.6395 98.224 68.6031 98.0454 68.5L97.9114 68.4227ZM102.77 70.1094L102.076 69.7092L104.528 65.4638L105.221 65.8639L102.77 70.1094ZM104.133 70.8968L106.585 66.6514L107.278 67.0515L105.173 70.6971L107.467 72.0218L107.121 72.6217L104.133 70.8968ZM107.993 73.1253L110.444 68.8798L113.484 70.6349L113.141 71.2289L110.794 69.8739L110.105 71.0678L112.207 72.2816L111.875 72.8581L109.772 71.6443L109.033 72.9255L111.554 74.3814L111.208 74.9813L107.993 73.1253ZM112.771 73.7719L113.121 73.1663L115.171 74.3498L114.821 74.9555L112.771 73.7719ZM115.649 77.5456L114.956 77.1455L117.408 72.9L118.101 73.3001L115.649 77.5456ZM117.013 78.333L119.464 74.0876L122.464 75.8192L122.117 76.419L119.811 75.0875L119.098 76.3221L121.125 77.4922L120.782 78.0862L118.755 76.9162L117.706 78.7332L117.013 78.333ZM120.998 80.6337L123.449 76.3883L126.489 78.1434L126.146 78.7374L123.799 77.3824L123.11 78.5762L125.213 79.79L124.88 80.3666L122.777 79.1528L122.038 80.434L124.559 81.8899L124.213 82.4897L120.998 80.6337Z" fill="white"/>
<path d="M45.2916 59.0033L50.3981 50.1585L54.3048 52.4141C55.1703 52.9137 55.7162 53.5093 55.9425 54.2008C56.1688 54.8922 56.0928 55.5655 55.7145 56.2207C55.4483 56.6817 55.0784 57.0236 54.6048 57.2462C54.1358 57.4608 53.5611 57.4848 52.8807 57.3185C53.4586 57.8678 53.7811 58.4207 53.8481 58.9771C53.9151 59.5334 53.8062 60.0583 53.5214 60.5517C53.0964 61.2877 52.4909 61.7201 51.7049 61.8486C50.9317 61.9738 50.088 61.7725 49.174 61.2448L45.2916 59.0033ZM53.8705 53.1663L50.7524 51.3661L48.9031 54.5691L52.0212 56.3693C52.6441 56.7289 53.1972 56.8542 53.6808 56.7451C54.1771 56.6326 54.5607 56.3418 54.8316 55.8727C55.1258 55.3631 55.1807 54.8664 54.9963 54.3825C54.812 53.8986 54.4367 53.4932 53.8705 53.1663ZM51.6303 57.1304L48.4758 55.3092L46.5215 58.6942L49.676 60.5155C50.1775 60.805 50.6222 60.9593 51.0102 60.9784C51.4063 61.0022 51.7415 60.9261 52.0156 60.75C52.3026 60.5706 52.5371 60.3231 52.7192 60.0077C53.0368 59.4577 53.0953 58.9361 52.8948 58.4428C52.6989 57.9415 52.2774 57.504 51.6303 57.1304ZM57.2934 66.0943C56.436 65.5993 55.8178 64.9889 55.4387 64.2632C55.0596 63.5374 54.9085 62.7438 54.9853 61.8822C55.0703 61.0253 55.3742 60.1439 55.8972 59.238C56.4576 58.2674 57.0974 57.5422 57.8167 57.0623C58.5486 56.579 59.3143 56.3362 60.1137 56.334C60.9258 56.3284 61.7322 56.5567 62.533 57.019C63.3903 57.514 64.0086 58.1244 64.3876 58.8501C64.7714 59.5677 64.9248 60.3573 64.848 61.2189C64.7712 62.0805 64.4712 62.9642 63.9482 63.8701C63.3878 64.8407 62.7417 65.5677 62.0097 66.051C61.2904 66.5308 60.5248 66.7736 59.7127 66.7793C58.9086 66.7896 58.1022 66.5612 57.2934 66.0943ZM57.7277 65.342C58.7468 65.9304 59.7205 66.0558 60.6488 65.7182C61.5852 65.3853 62.4012 64.6162 63.0971 63.411C63.7975 62.1978 64.0579 61.1024 63.878 60.125C63.7109 59.1442 63.1178 58.3596 62.0987 57.7712C61.0795 57.1828 60.1058 57.0574 59.1775 57.395C58.2493 57.7327 57.4349 58.5081 56.7344 59.7214C56.0339 60.9346 55.7696 62.0276 55.9413 63.0003C56.1131 63.9731 56.7085 64.7536 57.7277 65.342ZM66.5351 71.43C65.6777 70.9349 65.0595 70.3246 64.6804 69.5989C64.3013 68.8731 64.1502 68.0795 64.227 67.2179C64.3119 66.361 64.6159 65.4796 65.1389 64.5737C65.6993 63.6031 66.3391 62.8779 67.0584 62.398C67.7903 61.9147 68.556 61.6719 69.3554 61.6697C70.1675 61.6641 70.9739 61.8924 71.7747 62.3547C72.632 62.8497 73.2503 63.4601 73.6293 64.1858C74.013 64.9034 74.1665 65.693 74.0897 66.5546C74.0129 67.4162 73.7129 68.2999 73.1899 69.2058C72.6295 70.1764 71.9833 70.9034 71.2514 71.3867C70.5321 71.8665 69.7665 72.1093 68.9544 72.115C68.1503 72.1253 67.3439 71.8969 66.5351 71.43ZM66.9694 70.6777C67.9885 71.2661 68.9622 71.3915 69.8905 71.0539C70.8269 70.721 71.6429 69.9519 72.3388 68.7467C73.0392 67.5335 73.2996 66.4381 73.1197 65.4607C72.9526 64.4799 72.3595 63.6953 71.3404 63.1069C70.3212 62.5185 69.3475 62.3931 68.4192 62.7307C67.491 63.0684 66.6766 63.8438 65.9761 65.0571C65.2756 66.2703 65.0113 67.3633 65.183 68.336C65.3548 69.3088 65.9502 70.0893 66.9694 70.6777ZM75.7768 76.7656C74.9194 76.2706 74.3012 75.6603 73.9221 74.9345C73.543 74.2088 73.3919 73.4152 73.4687 72.5536C73.5536 71.6967 73.8576 70.8153 74.3806 69.9094C74.941 68.9388 75.5808 68.2136 76.3001 67.7337C77.032 67.2504 77.7977 67.0076 78.5971 67.0054C79.4092 66.9997 80.2156 67.2281 81.0164 67.6904C82.1002 68.3162 82.7913 69.0711 83.0898 69.9552C83.401 70.8358 83.3835 71.7532 83.0375 72.7074L82.1929 72.3492C82.4819 71.4376 82.4657 70.6625 82.1442 70.0239C81.8273 69.3773 81.3089 68.8461 80.5891 68.4305C79.5699 67.8421 78.5962 67.7167 77.6679 68.0543C76.7397 68.3919 75.9253 69.1674 75.2248 70.3806C74.5243 71.5939 74.2576 72.6909 74.4247 73.6717C74.5918 74.6525 75.1849 75.4371 76.204 76.0256C77.0938 76.5392 77.8842 76.7206 78.5753 76.5696C79.2792 76.4152 79.8943 76.0316 80.4207 75.4188L81.1533 75.9711C80.7047 76.5426 80.1845 76.9486 79.5926 77.1893C79.0088 77.4346 78.3886 77.5187 77.7321 77.4416C77.0837 77.3692 76.4319 77.1439 75.7768 76.7656ZM83.2536 80.9206L88.3601 72.0759L89.1488 72.5312L86.8722 76.4744L92.5382 79.7456L94.8147 75.8025L95.5912 76.2508L90.4847 85.0955L89.7082 84.6472L92.1249 80.4614L86.4589 77.1902L84.0422 81.376L83.2536 80.9206ZM91.5151 85.6904L100.298 78.9682L101.268 79.5285L99.8382 90.4957L99.0131 90.0194L99.4337 86.8813L94.8476 84.2334L92.3402 86.1668L91.5151 85.6904ZM99.383 80.7209L95.5189 83.7151L99.5348 86.0337L100.184 81.1832C100.212 80.9841 100.237 80.7826 100.258 80.5788C100.286 80.3797 100.32 80.1725 100.358 79.9572C100.19 80.0978 100.023 80.2279 99.8573 80.3477C99.6992 80.4721 99.5411 80.5965 99.383 80.7209ZM100.872 91.0927L105.979 82.2479L106.767 82.7033L102.081 90.82L107.407 93.8951L106.987 94.6231L100.872 91.0927ZM107.981 95.1971L113.088 86.3523L113.876 86.8076L109.19 94.9244L114.516 97.9995L114.096 98.7275L107.981 95.1971Z" fill="#C2C2C2"/>
<path d="M38.6873 71.4955L40.7384 67.943L39.4935 67.2243L39.8466 66.6128L39.9922 66.6969C40.361 66.9098 40.7173 66.9764 41.061 66.8966C41.4096 66.8196 41.7125 66.6257 41.9696 66.3147L42.5957 66.6762L39.5318 71.983L38.6873 71.4955ZM43.0278 74.0985C42.557 73.8267 42.2419 73.4927 42.0824 73.0965C41.9278 72.7031 41.9002 72.2633 41.9996 71.7772C42.1068 71.289 42.3172 70.7732 42.6311 70.2296C42.9981 69.5939 43.3766 69.1233 43.7665 68.8178C44.1592 68.5074 44.5582 68.3431 44.9635 68.3247C45.3689 68.3064 45.7729 68.4135 46.1757 68.646C46.6465 68.9178 46.9616 69.2518 47.1211 69.648C47.2806 70.0442 47.3082 70.484 47.2038 70.9673C47.1044 71.4534 46.8977 71.9683 46.5839 72.5118C46.2168 73.1476 45.8345 73.6192 45.437 73.9267C45.0443 74.2371 44.6452 74.4014 44.2399 74.4198C43.8346 74.4381 43.4306 74.331 43.0278 74.0985ZM43.4607 73.3487C43.8635 73.5812 44.2482 73.5704 44.615 73.3163C44.9894 73.0601 45.3545 72.6238 45.7103 72.0075C46.0017 71.5027 46.1816 71.0792 46.2498 70.7368C46.3229 70.3973 46.3106 70.1216 46.2128 69.9099C46.1179 69.6933 45.9612 69.5219 45.7428 69.3958C45.34 69.1633 44.9552 69.1741 44.5885 69.4282C44.2218 69.6824 43.8605 70.1176 43.5046 70.734C43.2132 71.2387 43.0296 71.6633 42.9537 72.0077C42.8806 72.3473 42.8915 72.6253 42.9864 72.8419C43.089 73.0565 43.2471 73.2254 43.4607 73.3487ZM45.8228 75.6152L51.0051 71.5314L52.0097 72.1114L51.0642 78.6412L50.1469 78.1117L50.3885 76.5332L47.9644 75.1336L46.7182 76.1321L45.8228 75.6152ZM50.3218 73.2528L48.6801 74.5665L50.5291 75.634L50.8532 73.5596C50.892 73.2908 50.9451 72.9914 51.0126 72.6616C50.7683 72.8829 50.5381 73.08 50.3218 73.2528ZM52.2091 79.3023L55.273 73.9954L56.6634 74.7982L55.7285 79.6453L59.4733 76.4205L60.8346 77.2064L57.7707 82.5133L56.919 82.0215L59.5864 77.4855L55.3466 81.1137L54.6114 80.6892L55.6658 75.2316L53.039 79.7814L52.2091 79.3023ZM58.3846 84.2654L58.6409 83.8213L58.7793 83.9012C58.9103 83.9768 59.0183 83.9971 59.1032 83.962C59.1854 83.9318 59.2559 83.8657 59.3147 83.7638L59.4702 83.4945L59.0553 83.2549L59.5723 82.3595L60.4167 82.8471L59.698 84.0919C59.5607 84.3297 59.3919 84.4652 59.1916 84.4983C58.9884 84.5363 58.7752 84.4909 58.552 84.362L58.3846 84.2654ZM65.3033 86.9592C64.6869 86.6034 64.3197 86.1746 64.2017 85.673C64.0886 85.1741 64.1847 84.6601 64.4901 84.1312L64.9692 83.3013L65.8355 83.8014L65.3438 84.6531C65.1336 85.0171 65.0753 85.3199 65.1687 85.5615C65.2698 85.8011 65.466 86.0049 65.7572 86.173C66.126 86.386 66.4312 86.4457 66.6728 86.3523C66.9144 86.2588 67.1193 86.0665 67.2874 85.7753L69.3847 82.1428L70.2509 82.6429L68.1663 86.2536C67.8217 86.8505 67.3954 87.1965 66.8876 87.2916C66.3846 87.3894 65.8565 87.2787 65.3033 86.9592ZM69.8738 86.9677L71.8407 83.5608L72.707 84.0609L70.7737 87.4096C70.5159 87.8561 70.4571 88.2492 70.5974 88.589C70.7405 88.924 71.0207 89.212 71.4381 89.4529C71.9186 89.7303 72.33 89.819 72.6724 89.7191C73.0197 89.6219 73.304 89.3817 73.5254 88.9983L75.4587 85.6496L76.3177 86.1456L74.3507 89.5524C74.121 89.9504 73.8357 90.2483 73.4949 90.4463C73.157 90.6394 72.7729 90.7218 72.3428 90.6935C71.9175 90.668 71.4598 90.5137 70.9696 90.2307C70.2756 89.83 69.8277 89.345 69.6259 88.7755C69.4269 88.2012 69.5095 87.5986 69.8738 86.9677ZM74.9039 92.4051L77.9678 87.0983L79.0888 87.7455L79.3953 93.3676L81.7532 89.2838L82.6049 89.7755L79.541 95.0823L78.5218 94.4939L78.1753 88.7225L75.7629 92.901L74.9039 92.4051ZM81.2428 96.0649L84.3067 90.758L88.1067 92.952L87.678 93.6945L84.7443 92.0007L83.8827 93.493L86.5106 95.0103L86.0946 95.731L83.4666 94.2137L82.542 95.8152L85.6941 97.6351L85.2612 98.3849L81.2428 96.0649ZM89.6765 100.934L91.7275 97.3816L90.4827 96.6629L90.8357 96.0514L90.9813 96.1355C91.3501 96.3484 91.7064 96.415 92.0501 96.3352C92.3987 96.2582 92.7016 96.0643 92.9588 95.7533L93.5848 96.1148L90.5209 101.422L89.6765 100.934ZM94.5714 103.76L95.2144 102.646L92.5646 101.117L92.9681 100.418L97.628 98.4491L98.487 98.945L96.4822 102.417L97.2975 102.888L96.8815 103.609L96.0661 103.138L95.4231 104.252L94.5714 103.76ZM93.8834 100.917L95.6305 101.926L96.9922 99.5671L93.8834 100.917ZM98.5369 106.05L101.168 101.493L99.3626 100.45L99.7955 99.7005L104.251 102.273L103.818 103.022L102.034 101.993L99.4032 106.55L98.5369 106.05ZM102.288 108.215L105.352 102.909L106.218 103.409L104.937 105.629L107.688 107.218L108.97 104.997L109.822 105.489L106.758 110.796L105.906 110.304L107.26 107.96L104.508 106.372L103.155 108.716L102.288 108.215Z" fill="white"/>
<g clip-path="url(#clip1_1_5494)">
<rect x="174.592" y="104.079" width="42.2926" height="42.2926" rx="2.19702" transform="rotate(30 174.592 104.079)" fill="white"/>
<g clip-path="url(#clip2_1_5494)">
<path d="M204.94 127.306L176.4 110.829L159.922 139.369L188.462 155.846L204.94 127.306Z" fill="white"/>
<path d="M170.907 120.342L171.772 120.841L171.273 121.706L172.138 122.205L171.639 123.07L170.774 122.571L170.274 123.436L169.775 124.301L170.64 124.8L170.141 125.665L169.276 125.166L168.776 126.03L168.277 126.895L167.778 127.76L166.913 127.261L167.412 126.396L167.912 125.531L168.411 124.666L168.91 123.801L169.41 122.937L169.909 122.072L170.408 121.207L170.907 120.342ZM165.415 129.855L166.28 130.355L165.78 131.22L164.916 130.72L165.415 129.855ZM164.416 131.585L165.281 132.084L164.782 132.949L163.917 132.45L164.416 131.585ZM167.278 128.625L168.143 129.124L167.644 129.989L168.509 130.488L169.008 129.624L169.873 130.123L170.372 129.258L170.872 128.393L170.007 127.894L170.506 127.029L169.641 126.53L170.141 125.665L171.005 126.164L171.505 125.299L170.64 124.8L171.139 123.935L172.004 124.434L172.869 124.934L172.37 125.799L171.87 126.664L172.735 127.163L173.234 126.298L174.099 126.797L173.6 127.662L174.465 128.161L174.964 127.297L174.099 126.797L174.599 125.932L175.463 126.432L175.963 125.567L176.828 126.066L176.328 126.931L175.829 127.796L175.33 128.661L176.195 129.16L175.695 130.025L175.196 130.89L174.697 131.755L175.561 132.254L175.062 133.119L174.197 132.62L173.698 133.484L172.833 132.985L172.334 133.85L171.469 133.351L171.968 132.486L171.103 131.986L171.603 131.122L172.468 131.621L172.967 130.756L172.102 130.257L171.237 129.757L170.738 130.622L170.239 131.487L169.739 132.352L169.24 133.217L168.375 132.717L167.51 132.218L168.009 131.353L167.145 130.854L166.28 130.355L166.779 129.49L167.278 128.625ZM165.78 131.22L166.645 131.719L167.51 132.218L167.011 133.083L167.876 133.582L168.741 134.082L168.241 134.946L167.376 134.447L166.512 133.948L165.647 133.449L166.146 132.584L165.281 132.084L165.78 131.22ZM174.135 118.746L175 119.245L174.501 120.11L175.366 120.61L175.865 119.745L176.73 120.244L177.595 120.743L178.459 121.243L177.96 122.108L177.095 121.608L176.596 122.473L177.461 122.972L178.326 123.472L178.825 122.607L179.324 121.742L180.189 122.241L181.054 122.741L180.555 123.605L181.419 124.105L181.919 123.24L182.784 123.739L183.649 124.239L183.149 125.103L182.284 124.604L181.785 125.469L181.286 126.334L180.421 125.835L179.922 126.699L179.057 126.2L178.557 127.065L177.692 126.566L176.828 126.066L177.327 125.201L177.826 124.337L176.961 123.837L176.097 123.338L175.232 122.839L175.731 121.974L174.866 121.474L174.001 120.975L173.502 121.84L173.003 122.705L172.138 122.205L172.637 121.341L173.137 120.476L173.636 119.611L174.135 118.746ZM169.142 127.395L170.007 127.894L169.507 128.759L168.643 128.259L169.142 127.395ZM174.367 122.339L175.232 122.839L174.732 123.703L173.868 123.204L174.367 122.339ZM173.368 124.069L174.233 124.568L175.098 125.068L174.599 125.932L173.734 125.433L172.869 124.934L173.368 124.069ZM173.101 128.527L172.601 129.392L173.466 129.891L174.331 130.39L174.83 129.526L173.966 129.026L173.101 128.527ZM175.597 124.203L176.462 124.702L175.963 125.567L175.098 125.068L175.597 124.203ZM170.604 132.851L171.469 133.351L170.97 134.215L170.105 133.716L170.604 132.851ZM169.605 134.581L170.47 135.08L171.335 135.58L170.836 136.444L169.971 135.945L169.106 135.446L169.605 134.581ZM183.319 114.823L184.184 115.323L185.049 115.822L184.549 116.687L185.414 117.186L184.915 118.051L184.05 117.552L183.551 118.416L182.686 117.917L183.185 117.052L183.684 116.187L182.82 115.688L183.319 114.823ZM181.821 117.418L182.686 117.917L182.186 118.782L181.322 118.283L181.821 117.418ZM180.323 120.012L181.188 120.512L180.688 121.376L179.824 120.877L180.323 120.012ZM172.334 133.85L173.199 134.349L173.698 133.484L174.563 133.984L175.062 133.119L175.927 133.618L175.428 134.483L174.928 135.348L175.793 135.847L176.292 134.982L176.792 134.117L177.657 134.617L178.156 133.752L178.655 132.887L177.79 132.388L178.29 131.523L177.425 131.024L177.924 130.159L178.789 130.658L179.654 131.157L180.519 131.657L181.384 132.156L181.883 131.291L182.748 131.791L182.248 132.655L181.749 133.52L180.884 133.021L180.019 132.522L179.52 133.386L179.021 134.251L178.521 135.116L179.386 135.615L179.886 134.751L180.385 133.886L181.25 134.385L180.751 135.25L180.251 136.115L179.752 136.98L178.887 136.48L178.022 135.981L177.157 135.482L176.658 136.347L176.159 137.211L175.294 136.712L174.429 136.213L173.564 135.713L173.065 136.578L173.93 137.078L173.43 137.942L172.931 138.807L172.432 139.672L171.567 139.173L171.068 140.038L170.568 140.903L169.703 140.403L168.838 139.904L169.338 139.039L169.837 138.174L170.702 138.673L171.201 137.809L172.066 138.308L172.565 137.443L171.701 136.944L172.2 136.079L171.335 135.58L171.834 134.715L172.334 133.85ZM170.836 136.444L171.701 136.944L171.201 137.809L170.336 137.309L170.836 136.444ZM168.339 140.769L169.204 141.268L170.069 141.767L169.57 142.632L168.705 142.133L167.84 141.634L168.339 140.769ZM182.186 118.782L183.051 119.281L183.916 119.781L183.417 120.645L182.552 120.146L182.053 121.011L181.188 120.512L181.687 119.647L182.186 118.782ZM177.193 127.43L178.058 127.93L177.559 128.795L176.694 128.295L177.193 127.43ZM168.205 142.998L169.07 143.497L169.935 143.996L169.436 144.861L168.571 144.362L167.706 143.863L168.205 142.998ZM182.053 121.011L182.917 121.51L182.418 122.375L181.919 123.24L181.054 122.741L181.553 121.876L182.053 121.011ZM178.557 127.065L179.422 127.564L179.922 126.699L180.786 127.199L181.286 126.334L182.151 126.833L182.65 125.968L183.515 126.468L183.015 127.332L183.88 127.832L184.38 126.967L185.244 127.466L184.745 128.331L185.61 128.83L185.111 129.695L184.246 129.196L183.381 128.697L182.516 128.197L181.651 127.698L181.152 128.563L182.017 129.062L182.882 129.561L183.746 130.061L183.247 130.926L182.382 130.426L181.883 131.291L181.018 130.792L181.517 129.927L180.653 129.428L180.153 130.293L179.288 129.793L179.788 128.928L178.923 128.429L178.058 127.93L178.557 127.065ZM177.559 128.795L178.424 129.294L177.924 130.159L177.059 129.659L177.559 128.795ZM184.915 118.051L185.78 118.55L186.279 117.685L187.144 118.185L186.644 119.049L187.509 119.549L188.374 120.048L189.239 120.547L188.74 121.412L187.875 120.913L187.375 121.778L186.876 122.643L186.011 122.143L185.146 121.644L184.282 121.145L184.781 120.28L185.646 120.779L186.511 121.279L187.01 120.414L186.145 119.914L185.28 119.415L184.781 120.28L183.916 119.781L184.415 118.916L184.915 118.051ZM183.417 120.645L184.282 121.145L183.782 122.01L182.917 121.51L183.417 120.645ZM176.926 131.888L177.79 132.388L177.291 133.253L176.792 134.117L175.927 133.618L176.426 132.753L176.926 131.888ZM172.432 139.672L173.297 140.171L172.797 141.036L171.932 140.537L172.432 139.672ZM171.433 141.402L172.298 141.901L172.797 141.036L173.662 141.536L174.161 140.671L175.026 141.17L174.527 142.035L175.392 142.534L174.892 143.399L175.757 143.898L175.258 144.763L174.393 144.264L173.894 145.129L173.394 145.994L172.53 145.494L173.029 144.629L173.528 143.765L172.663 143.265L171.799 142.766L171.299 143.631L170.434 143.132L170.934 142.267L171.433 141.402ZM183.782 122.01L184.647 122.509L184.148 123.374L183.283 122.874L183.782 122.01ZM174.795 137.577L175.659 138.076L175.16 138.941L176.025 139.44L176.89 139.94L177.389 139.075L177.888 138.21L178.753 138.709L179.618 139.209L179.119 140.073L178.254 139.574L177.755 140.439L177.255 141.304L176.756 142.169L175.891 141.669L175.026 141.17L175.526 140.305L174.661 139.806L173.796 139.307L174.295 138.442L174.795 137.577ZM184.148 123.374L185.013 123.873L185.512 123.008L186.377 123.508L185.878 124.372L185.378 125.237L186.243 125.737L187.108 126.236L186.609 127.101L185.744 126.601L184.879 126.102L184.38 126.967L183.515 126.468L184.014 125.603L184.513 124.738L183.649 124.239L184.148 123.374ZM171.665 144.995L172.53 145.494L172.03 146.359L171.165 145.86L171.665 144.995ZM186.876 122.643L187.741 123.142L187.242 124.007L186.377 123.508L186.876 122.643ZM173.394 145.994L174.259 146.493L174.759 145.628L175.258 144.763L176.123 145.263L176.622 144.398L177.487 144.897L176.988 145.762L176.488 146.627L175.989 147.492L175.124 146.992L174.625 147.857L173.76 147.358L172.895 146.859L173.394 145.994ZM190.238 118.818L191.102 119.317L191.967 119.816L192.832 120.316L193.697 120.815L193.198 121.68L192.698 122.545L191.834 122.045L192.333 121.181L191.468 120.681L190.603 120.182L190.104 121.047L189.239 120.547L189.738 119.683L190.238 118.818ZM188.24 122.277L189.105 122.776L189.605 121.912L190.104 121.047L190.969 121.546L190.469 122.411L191.334 122.91L192.199 123.41L191.7 124.274L191.2 125.139L190.336 124.64L190.835 123.775L189.97 123.276L189.471 124.141L190.336 124.64L189.836 125.505L189.337 126.37L188.472 125.87L188.971 125.006L188.107 124.506L188.606 123.641L187.741 123.142L188.24 122.277ZM187.242 124.007L188.107 124.506L187.607 125.371L186.742 124.872L187.242 124.007ZM176.756 142.169L177.621 142.668L177.121 143.533L176.622 144.398L175.757 143.898L176.257 143.034L176.756 142.169ZM187.607 125.371L188.472 125.87L187.973 126.735L187.108 126.236L187.607 125.371ZM186.109 127.966L186.974 128.465L187.473 127.6L187.973 126.735L188.838 127.235L188.338 128.099L187.839 128.964L188.704 129.464L189.203 128.599L189.702 127.734L190.202 126.869L190.701 126.004L191.2 125.139L192.065 125.639L191.566 126.503L191.067 127.368L191.931 127.868L192.431 127.003L192.93 126.138L192.065 125.639L192.565 124.774L193.064 123.909L193.929 124.408L194.794 124.908L194.294 125.772L195.159 126.272L194.66 127.137L195.525 127.636L195.025 128.501L194.526 129.366L194.027 130.23L193.162 129.731L192.663 130.596L193.527 131.095L193.028 131.96L192.163 131.461L191.298 130.962L190.799 131.826L191.664 132.326L192.529 132.825L193.028 131.96L193.893 132.459L193.394 133.324L194.258 133.824L193.759 134.689L194.624 135.188L194.125 136.053L193.625 136.918L193.126 137.782L192.627 138.647L191.762 138.148L192.261 137.283L192.76 136.418L191.896 135.919L191.396 136.784L190.897 137.649L191.762 138.148L191.263 139.013L190.398 138.513L189.533 138.014L190.032 137.149L190.531 136.284L191.031 135.42L191.53 134.555L190.665 134.055L191.165 133.191L190.3 132.691L189.435 132.192L188.936 133.057L188.071 132.557L187.206 132.058L186.341 131.559L186.84 130.694L187.34 129.829L186.475 129.33L185.61 128.83L186.109 127.966ZM185.111 129.695L185.975 130.195L185.476 131.059L186.341 131.559L185.842 132.424L184.977 131.924L184.112 131.425L184.611 130.56L185.111 129.695ZM183.613 132.29L184.478 132.789L183.978 133.654L184.843 134.153L185.342 133.288L186.207 133.788L185.708 134.653L186.573 135.152L187.072 134.287L187.571 133.422L188.436 133.922L187.937 134.786L188.802 135.286L189.667 135.785L189.167 136.65L188.668 137.515L187.803 137.015L186.938 136.516L186.439 137.381L185.574 136.882L186.073 136.017L185.209 135.518L184.344 135.018L183.479 134.519L182.98 135.384L182.115 134.884L182.614 134.02L183.113 133.155L183.613 132.29ZM181.615 135.749L182.48 136.249L181.981 137.113L182.846 137.613L183.345 136.748L182.48 136.249L182.98 135.384L183.844 135.883L184.709 136.382L184.21 137.247L183.711 138.112L184.575 138.611L184.076 139.476L184.941 139.976L184.442 140.84L185.307 141.34L184.807 142.205L184.308 143.069L183.443 142.57L182.578 142.071L183.077 141.206L183.577 140.341L182.712 139.842L183.211 138.977L182.346 138.478L181.482 137.978L180.982 138.843L180.117 138.344L180.617 137.479L181.116 136.614L181.615 135.749ZM178.619 140.938L179.484 141.438L178.985 142.303L179.85 142.802L180.349 141.937L181.214 142.436L180.715 143.301L180.215 144.166L179.35 143.667L178.851 144.532L177.986 144.032L178.486 143.167L177.621 142.668L178.12 141.803L178.619 140.938ZM180.982 138.843L181.847 139.342L181.348 140.207L180.848 141.072L179.984 140.573L180.483 139.708L180.982 138.843ZM175.989 147.492L176.854 147.991L177.353 147.126L177.853 146.261L178.352 145.396L179.217 145.896L178.717 146.761L178.218 147.625L177.719 148.49L178.584 148.99L179.083 148.125L179.582 147.26L180.082 146.395L180.946 146.894L180.447 147.759L179.948 148.624L179.448 149.489L178.949 150.354L178.084 149.854L177.219 149.355L176.355 148.856L175.49 148.356L175.989 147.492ZM192.698 122.545L193.563 123.044L193.064 123.909L192.199 123.41L192.698 122.545ZM190.567 128.233L190.068 129.098L190.933 129.597L191.798 130.097L192.297 129.232L191.432 128.732L190.567 128.233ZM189.569 129.963L189.069 130.828L189.934 131.327L190.434 130.462L189.569 129.963ZM181.713 141.571L182.578 142.071L182.079 142.936L181.214 142.436L181.713 141.571ZM194.562 121.314L195.427 121.814L196.292 122.313L197.156 122.812L198.021 123.312L197.522 124.177L196.657 123.677L196.158 124.542L197.023 125.041L196.523 125.906L196.024 126.771L195.159 126.272L195.658 125.407L194.794 124.908L195.293 124.043L194.428 123.543L194.927 122.679L194.063 122.179L194.562 121.314ZM185.075 137.747L185.94 138.246L186.439 137.381L187.304 137.88L186.804 138.745L186.305 139.61L185.44 139.111L184.575 138.611L185.075 137.747ZM182.079 142.936L182.944 143.435L182.444 144.3L183.309 144.799L182.81 145.664L181.945 145.165L181.446 146.03L180.581 145.53L181.08 144.665L181.58 143.8L182.079 142.936ZM193.296 127.502L192.796 128.367L193.661 128.866L194.161 128.001L193.296 127.502ZM188.936 133.057L189.8 133.556L189.301 134.421L188.436 133.922L188.936 133.057ZM181.446 146.03L182.311 146.529L181.811 147.394L180.946 146.894L181.446 146.03ZM183.809 143.934L184.673 144.434L185.173 143.569L186.038 144.068L186.537 143.203L187.402 143.703L186.902 144.567L187.767 145.067L188.632 145.566L189.497 146.065L190.362 146.565L189.863 147.43L188.998 146.93L188.498 147.795L189.363 148.294L188.864 149.159L187.999 148.66L187.5 149.525L187 150.39L186.501 151.254L185.636 150.755L186.136 149.89L185.271 149.391L184.406 148.892L183.541 148.392L182.676 147.893L183.175 147.028L183.675 146.163L184.174 145.298L183.309 144.799L183.809 143.934ZM181.312 148.259L182.177 148.758L183.042 149.257L183.906 149.757L183.407 150.621L182.542 150.122L182.043 150.987L181.544 151.852L180.679 151.352L179.814 150.853L180.313 149.988L181.178 150.488L181.677 149.623L180.813 149.123L181.312 148.259ZM186.171 141.839L187.036 142.338L186.537 143.203L185.672 142.704L186.171 141.839ZM185.538 144.933L185.039 145.798L184.54 146.663L184.04 147.527L184.905 148.027L185.77 148.526L186.635 149.025L187.134 148.161L187.633 147.296L188.133 146.431L187.268 145.932L186.403 145.432L185.538 144.933ZM194.027 130.23L194.892 130.73L194.392 131.595L193.527 131.095L194.027 130.23ZM189.033 138.879L189.898 139.378L189.399 140.243L188.534 139.744L189.033 138.879ZM188.035 140.609L188.9 141.108L189.399 140.243L190.264 140.742L191.129 141.242L190.629 142.107L189.765 141.607L189.265 142.472L190.13 142.971L189.631 143.836L188.766 143.337L188.267 144.202L187.402 143.703L187.901 142.838L188.4 141.973L187.536 141.474L188.035 140.609ZM194.392 131.595L195.257 132.094L194.758 132.959L193.893 132.459L194.392 131.595ZM185.904 146.297L186.769 146.796L186.269 147.661L185.404 147.162L185.904 146.297ZM183.407 150.621L184.272 151.121L184.771 150.256L185.636 150.755L185.137 151.62L184.638 152.485L184.138 153.35L183.273 152.85L182.409 152.351L182.908 151.486L183.407 150.621ZM195.623 133.458L196.487 133.957L195.988 134.822L195.123 134.323L195.623 133.458ZM192.627 138.647L193.492 139.147L192.992 140.011L192.127 139.512L192.627 138.647ZM189.631 143.836L190.496 144.336L190.995 143.471L191.494 142.606L192.359 143.105L191.86 143.97L192.725 144.469L193.589 144.969L193.09 145.834L193.955 146.333L193.456 147.198L192.956 148.063L192.457 148.927L191.958 149.792L191.458 150.657L190.959 151.522L190.094 151.023L190.594 150.158L189.729 149.659L190.228 148.794L189.363 148.294L189.863 147.43L190.727 147.929L191.592 148.428L192.092 147.563L192.591 146.698L191.726 146.199L190.861 145.7L189.996 145.201L189.131 144.701L189.631 143.836ZM197.486 132.228L198.351 132.727L197.852 133.592L196.987 133.093L197.486 132.228ZM195.489 135.687L196.354 136.186L197.219 136.686L196.719 137.551L197.584 138.05L198.083 137.185L197.219 136.686L197.718 135.821L198.217 134.956L197.352 134.457L197.852 133.592L198.716 134.091L199.581 134.591L200.081 133.726L200.946 134.225L200.446 135.09L199.947 135.955L199.448 136.82L198.948 137.684L198.449 138.549L197.95 139.414L197.45 140.279L196.951 141.144L196.452 142.009L195.587 141.509L196.086 140.645L195.221 140.145L195.721 139.28L194.856 138.781L195.355 137.916L195.854 137.051L194.99 136.552L195.489 135.687ZM192.992 140.011L193.857 140.511L194.356 139.646L195.221 140.145L194.722 141.01L195.587 141.509L195.087 142.374L195.952 142.874L195.453 143.738L194.588 143.239L193.723 142.74L192.858 142.24L193.358 141.376L192.493 140.876L192.992 140.011ZM188.365 150.024L189.229 150.523L190.094 151.023L189.595 151.888L190.46 152.387L189.96 153.252L189.096 152.752L188.231 152.253L188.73 151.388L187.865 150.889L188.365 150.024ZM194.089 144.104L194.954 144.603L194.454 145.468L193.589 144.969L194.089 144.104Z" fill="black"/>
<path d="M185.633 153.09C185.812 153.189 185.941 153.031 186 152.928C186.088 152.776 186.041 152.678 185.952 152.614C185.806 152.598 185.67 152.637 185.582 152.766C185.567 152.788 185.549 152.817 185.531 152.853C185.482 152.949 185.526 153.03 185.633 153.09ZM186.426 153.829C186.299 153.756 186.211 153.601 186.289 153.452C186.057 153.521 185.794 153.466 185.511 153.302C185.225 153.137 185.218 152.874 185.306 152.722C185.605 152.221 185.703 152.025 185.723 151.984C185.724 151.981 185.726 151.978 185.726 151.977L185.727 151.976C185.737 151.956 185.753 151.927 185.736 151.914C185.725 151.907 185.716 151.906 185.693 151.914C185.659 151.929 185.613 151.917 185.597 151.889C185.578 151.855 185.594 151.815 185.628 151.789C185.722 151.722 185.81 151.719 185.898 151.772C186.049 151.862 186.035 151.986 185.963 152.111C185.963 152.111 185.856 152.288 185.798 152.388C185.878 152.376 185.984 152.374 186.116 152.451C186.391 152.609 186.369 153.051 186.001 153.273C186.293 153.3 186.447 153.145 186.56 152.969L186.595 152.907C186.634 152.838 186.712 152.806 186.781 152.846C186.85 152.885 186.86 152.974 186.82 153.038C186.684 153.254 186.597 153.398 186.552 153.475C186.527 153.519 186.512 153.602 186.584 153.643C186.724 153.724 186.834 153.641 186.995 153.388C187.051 153.291 187.099 153.211 187.099 153.211C187.035 153.174 187.023 153.122 187.047 153.08C187.071 153.038 187.127 153.019 187.181 153.05C187.181 153.05 187.266 152.905 187.3 152.844C187.34 152.776 187.426 152.75 187.495 152.789C187.564 152.829 187.586 152.918 187.547 152.987C187.533 153.009 187.517 153.035 187.499 153.064C187.476 153.101 187.451 153.142 187.425 153.187L187.435 153.193C187.454 153.203 187.496 153.228 187.553 153.26C187.62 153.298 187.626 153.351 187.599 153.398C187.572 153.445 187.517 153.457 187.47 153.43C187.426 153.405 187.33 153.348 187.33 153.348C187.245 153.485 187.144 153.65 187.067 153.784C187.039 153.832 187.04 153.907 187.121 153.954C187.284 154.048 187.429 153.938 187.599 153.67C187.709 153.478 187.771 153.366 187.817 153.282C187.85 153.222 187.875 153.177 187.904 153.127C187.943 153.058 188.036 153.03 188.105 153.069C188.174 153.109 188.193 153.194 188.154 153.263C188.123 153.315 188.085 153.376 188.034 153.459C187.946 153.599 187.819 153.802 187.622 154.137C187.596 154.182 187.599 154.226 187.658 154.26C187.813 154.35 187.953 154.206 188.103 153.979C188.109 153.968 188.116 153.957 188.122 153.946C188.135 153.924 188.148 153.902 188.16 153.881C188.2 153.813 188.277 153.783 188.346 153.823C188.415 153.863 188.423 153.943 188.383 154.012C188.355 154.061 188.327 154.106 188.298 154.152C188.273 154.193 188.246 154.235 188.219 154.282C188.148 154.403 188.127 154.533 188.228 154.591C188.325 154.647 188.456 154.668 188.578 154.461C188.612 154.404 188.637 154.359 188.662 154.314C188.68 154.281 188.699 154.247 188.722 154.208C188.761 154.139 188.842 154.109 188.911 154.149C188.98 154.189 188.995 154.274 188.956 154.343C188.932 154.384 188.907 154.424 188.879 154.468C188.844 154.523 188.805 154.585 188.76 154.664C188.76 154.664 188.589 154.95 188.563 155.019C188.601 155.027 188.664 155.022 188.756 154.975C188.811 154.947 188.872 154.969 188.895 155.009C188.927 155.064 188.894 155.117 188.853 155.146C188.749 155.222 188.654 155.25 188.474 155.214C188.374 155.387 188.215 155.635 187.87 155.497C187.574 155.378 187.542 155.148 187.619 155.013C187.741 154.8 187.99 154.861 188.342 154.961L188.393 154.85C188.393 154.85 188.273 154.9 188.102 154.796C187.97 154.715 187.915 154.599 187.91 154.477C187.785 154.546 187.655 154.539 187.503 154.451C187.403 154.393 187.338 154.285 187.335 154.182C187.217 154.225 187.094 154.214 186.963 154.138C186.85 154.073 186.788 153.985 186.773 153.895C186.666 153.93 186.556 153.904 186.426 153.829ZM188.264 155.142C188.089 155.086 187.866 155.023 187.814 155.12C187.764 155.211 187.847 155.28 187.933 155.309C188.113 155.368 188.187 155.283 188.264 155.142ZM187.037 152.693C187.077 152.624 187.053 152.535 186.984 152.495C186.914 152.455 186.825 152.478 186.785 152.547C186.745 152.617 186.769 152.705 186.839 152.746C186.908 152.786 186.997 152.762 187.037 152.693Z" fill="black"/>
<path d="M176.4 110.829L177.265 111.328L178.13 111.827L178.995 112.327L179.859 112.826L180.724 113.325L181.589 113.825L182.454 114.324L181.955 115.189L181.455 116.054L180.956 116.918L180.457 117.783L179.957 118.648L179.458 119.513L178.959 120.378L178.094 119.879L177.229 119.379L176.364 118.88L175.499 118.381L174.634 117.881L173.77 117.382L172.905 116.883L173.404 116.018L173.903 115.153L174.403 114.288L174.902 113.423L175.401 112.558L175.901 111.693L176.4 110.829ZM176.766 112.193L176.266 113.058L175.767 113.922L175.268 114.787L174.768 115.652L174.269 116.517L175.134 117.016L175.999 117.516L176.863 118.015L177.728 118.514L178.593 119.014L179.093 118.149L179.592 117.284L180.091 116.419L180.59 115.554L181.09 114.689L180.225 114.19L179.36 113.691L178.495 113.191L177.63 112.692L176.766 112.193Z" fill="black"/>
<path d="M177.132 113.562L177.997 114.061L178.862 114.561L179.726 115.06L179.227 115.925L178.728 116.79L178.228 117.655L177.364 117.155L176.499 116.656L175.634 116.157L176.133 115.292L176.633 114.427L177.132 113.562Z" fill="black"/>
<path d="M198.885 123.811L199.749 124.31L200.614 124.809L201.479 125.309L202.344 125.808L203.209 126.307L204.074 126.806L204.939 127.306L204.439 128.171L203.94 129.036L203.441 129.9L202.941 130.765L202.442 131.63L201.943 132.495L201.443 133.36L200.578 132.86L199.714 132.361L198.849 131.862L197.984 131.362L197.119 130.863L196.254 130.364L195.389 129.865L195.889 129L196.388 128.135L196.887 127.27L197.387 126.405L197.886 125.54L198.385 124.675L198.885 123.811ZM199.25 125.175L198.751 126.04L198.252 126.904L197.752 127.769L197.253 128.634L196.754 129.499L197.618 129.998L198.483 130.498L199.348 130.997L200.213 131.496L201.078 131.996L201.577 131.131L202.076 130.266L202.576 129.401L203.075 128.536L203.574 127.671L202.71 127.172L201.845 126.673L200.98 126.173L200.115 125.674L199.25 125.175Z" fill="black"/>
<path d="M199.618 126.543L200.483 127.042L201.347 127.541L202.212 128.041L201.713 128.906L201.214 129.77L200.714 130.635L199.85 130.136L198.985 129.637L198.12 129.137L198.619 128.272L199.118 127.408L199.618 126.543Z" fill="black"/>
<path d="M163.417 133.315L164.282 133.814L165.147 134.314L166.012 134.813L166.877 135.312L167.742 135.812L168.606 136.311L169.471 136.81L168.972 137.675L168.473 138.54L167.973 139.405L167.474 140.27L166.975 141.134L166.475 141.999L165.976 142.864L165.111 142.365L164.246 141.866L163.381 141.366L162.517 140.867L161.652 140.368L160.787 139.868L159.922 139.369L160.421 138.504L160.921 137.639L161.42 136.774L161.919 135.909L162.419 135.045L162.918 134.18L163.417 133.315ZM163.783 134.679L163.284 135.544L162.784 136.409L162.285 137.274L161.786 138.139L161.286 139.003L162.151 139.503L163.016 140.002L163.881 140.501L164.746 141.001L165.61 141.5L166.11 140.635L166.609 139.77L167.108 138.905L167.608 138.041L168.107 137.176L167.242 136.676L166.377 136.177L165.513 135.678L164.648 135.178L163.783 134.679Z" fill="black"/>
<path d="M164.151 136.047L165.015 136.546L165.88 137.045L166.745 137.545L166.246 138.409L165.746 139.274L165.247 140.139L164.382 139.64L163.517 139.141L162.653 138.641L163.152 137.776L163.651 136.911L164.151 136.047Z" fill="black"/>
</g>
</g>
<rect x="144.766" y="87.3027" width="23.0687" height="4.61373" transform="rotate(30 144.766 87.3027)" fill="#D9D9D9"/>
<rect x="141.306" y="93.2961" width="23.0687" height="0.768956" transform="rotate(30 141.306 93.2961)" fill="#D9D9D9"/>
<rect x="139.768" y="95.96" width="23.0687" height="4.61373" transform="rotate(30 139.768 95.96)" fill="#D9D9D9"/>
<rect x="136.308" y="101.953" width="23.0687" height="0.768956" transform="rotate(30 136.308 101.953)" fill="#D9D9D9"/>
<rect x="134.77" y="104.617" width="23.0687" height="3.07582" transform="rotate(30 134.77 104.617)" fill="#D9D9D9"/>
<rect x="132.078" y="109.279" width="23.0687" height="3.07582" transform="rotate(30 132.078 109.279)" fill="#D9D9D9"/>
<rect x="129.387" y="113.94" width="23.0687" height="4.61373" transform="rotate(30 129.387 113.94)" fill="#D9D9D9"/>
<rect x="125.927" y="119.934" width="23.0687" height="2.30687" transform="rotate(30 125.927 119.934)" fill="#D9D9D9"/>
</g>
<rect x="54.4328" y="25.3821" width="193.777" height="58.4406" transform="rotate(30 54.4328 25.3821)" stroke="#C2C2C2" stroke-width="0.768956" stroke-dasharray="3.08 3.08"/>
</g>
<defs>
<filter id="filter0_d_1_5494" x="0.000549316" y="0.170898" width="271.46" height="221.921" filterUnits="userSpaceOnUse" color-interpolation-filters="sRGB">
<feFlood flood-opacity="0" result="BackgroundImageFix"/>
<feColorMatrix in="SourceAlpha" type="matrix" values="0 0 0 0 0 0 0 0 0 0 0 0 0 0 0 0 0 0 127 0" result="hardAlpha"/>
<feOffset dx="24" dy="24"/>
<feComposite in2="hardAlpha" operator="out"/>
<feColorMatrix type="matrix" values="0 0 0 0 0 0 0 0 0 0 0 0 0 0 0 0 0 0 1 0"/>
<feBlend mode="normal" in2="BackgroundImageFix" result="effect1_dropShadow_1_5494"/>
<feBlend mode="normal" in="SourceGraphic" in2="effect1_dropShadow_1_5494" result="shape"/>
</filter>
<clipPath id="clip0_1_5494">
<rect x="54.4328" y="25.3821" width="193.777" height="58.4406" transform="rotate(30 54.4328 25.3821)" fill="white"/>
</clipPath>
<clipPath id="clip1_1_5494">
<rect x="174.592" y="104.079" width="42.2926" height="42.2926" rx="2.19702" transform="rotate(30 174.592 104.079)" fill="white"/>
</clipPath>
<clipPath id="clip2_1_5494">
<rect width="32.9552" height="32.9552" fill="white" transform="translate(176.4 110.83) rotate(30)"/>
</clipPath>
</defs>
</svg>
