<svg width="268" height="155" viewBox="0 0 268 155" fill="none" xmlns="http://www.w3.org/2000/svg">
<g filter="url(#filter0_d_1_5641)">
<mask id="path-1-inside-1_1_5641" fill="white">
<path d="M105.657 19.4856C106.454 24.5189 111.181 27.953 116.214 27.156C121.09 26.3837 124.466 21.9234 123.947 17.0692L123.885 16.5986L228.694 -0.0016287L230.138 9.1123C227.621 9.5109 225.904 11.874 226.302 14.3906C226.688 16.8288 228.919 18.517 231.346 18.2576L231.581 18.2262L232.784 25.821C230.268 26.2196 228.55 28.5827 228.948 31.0993C229.335 33.5375 231.565 35.2257 233.992 34.9663L234.228 34.935L235.431 42.5297C232.914 42.9283 231.197 45.2915 231.595 47.8081C231.981 50.2462 234.212 51.9344 236.639 51.675L236.874 51.6437L238.077 59.2385C235.56 59.637 233.843 62.0002 234.241 64.5168C234.627 66.9549 236.858 68.6431 239.285 68.3837L239.521 68.3524L240.723 75.9472C238.207 76.3458 236.489 78.7089 236.888 81.2255C237.274 83.6636 239.505 85.3518 241.932 85.0924L242.167 85.0611L243.61 94.175L138.801 110.775C138.004 105.742 133.277 102.308 128.243 103.105C123.21 103.902 119.776 108.629 120.573 113.662L15.7641 130.262L14.3206 121.148C16.8372 120.75 18.5538 118.386 18.1552 115.869C17.7689 113.431 15.5393 111.744 13.1124 112.003L12.8771 112.034L11.6742 104.44C14.1908 104.041 15.9074 101.677 15.5088 99.1606C15.1225 96.7227 12.8929 95.0352 10.466 95.2944L10.2307 95.3258L9.02777 87.731C11.5444 87.3323 13.261 84.9685 12.8624 82.4519C12.4761 80.014 10.2465 78.3265 7.81957 78.5857L7.58427 78.6171L6.38137 71.0223C8.89798 70.6236 10.6146 68.2598 10.216 65.7432C9.82974 63.3053 7.6001 61.6178 5.17317 61.877L4.93787 61.9083L3.73497 54.3136C6.25158 53.9148 7.96823 51.5511 7.56963 49.0344C7.18335 46.5965 4.95371 44.9091 2.52677 45.1683L2.29147 45.1996L0.847961 36.0857L105.657 19.4856Z"/>
</mask>
<path d="M105.657 19.4856C106.454 24.5189 111.181 27.953 116.214 27.156C121.09 26.3837 124.466 21.9234 123.947 17.0692L123.885 16.5986L228.694 -0.0016287L230.138 9.1123C227.621 9.5109 225.904 11.874 226.302 14.3906C226.688 16.8288 228.919 18.517 231.346 18.2576L231.581 18.2262L232.784 25.821C230.268 26.2196 228.55 28.5827 228.948 31.0993C229.335 33.5375 231.565 35.2257 233.992 34.9663L234.228 34.935L235.431 42.5297C232.914 42.9283 231.197 45.2915 231.595 47.8081C231.981 50.2462 234.212 51.9344 236.639 51.675L236.874 51.6437L238.077 59.2385C235.56 59.637 233.843 62.0002 234.241 64.5168C234.627 66.9549 236.858 68.6431 239.285 68.3837L239.521 68.3524L240.723 75.9472C238.207 76.3458 236.489 78.7089 236.888 81.2255C237.274 83.6636 239.505 85.3518 241.932 85.0924L242.167 85.0611L243.61 94.175L138.801 110.775C138.004 105.742 133.277 102.308 128.243 103.105C123.21 103.902 119.776 108.629 120.573 113.662L15.7641 130.262L14.3206 121.148C16.8372 120.75 18.5538 118.386 18.1552 115.869C17.7689 113.431 15.5393 111.744 13.1124 112.003L12.8771 112.034L11.6742 104.44C14.1908 104.041 15.9074 101.677 15.5088 99.1606C15.1225 96.7227 12.8929 95.0352 10.466 95.2944L10.2307 95.3258L9.02777 87.731C11.5444 87.3323 13.261 84.9685 12.8624 82.4519C12.4761 80.014 10.2465 78.3265 7.81957 78.5857L7.58427 78.6171L6.38137 71.0223C8.89798 70.6236 10.6146 68.2598 10.216 65.7432C9.82974 63.3053 7.6001 61.6178 5.17317 61.877L4.93787 61.9083L3.73497 54.3136C6.25158 53.9148 7.96823 51.5511 7.56963 49.0344C7.18335 46.5965 4.95371 44.9091 2.52677 45.1683L2.29147 45.1996L0.847961 36.0857L105.657 19.4856Z" fill="#063550"/>
<path d="M105.657 19.4856L106.416 19.3653L106.296 18.6058L105.536 18.7261L105.657 19.4856ZM116.214 27.156L116.334 27.9155L116.334 27.9155L116.214 27.156ZM123.947 17.0692L124.712 16.9875L124.711 16.9776L124.71 16.9677L123.947 17.0692ZM123.885 16.5986L123.764 15.8391L123.023 15.9565L123.122 16.7001L123.885 16.5986ZM228.694 -0.0016287L229.454 -0.121919L229.334 -0.881408L228.574 -0.761117L228.694 -0.0016287ZM230.138 9.1123L230.258 9.87179L231.018 9.7515L230.897 8.99201L230.138 9.1123ZM226.302 14.3906L225.543 14.5109L225.543 14.5109L226.302 14.3906ZM231.346 18.2576L231.428 19.0222L231.438 19.0211L231.448 19.0198L231.346 18.2576ZM231.581 18.2262L232.341 18.1059L232.223 17.365L231.48 17.464L231.581 18.2262ZM232.784 25.821L232.905 26.5805L233.664 26.4602L233.544 25.7007L232.784 25.821ZM228.948 31.0993L228.189 31.2196L228.189 31.2196L228.948 31.0993ZM233.992 34.9663L234.074 35.7309L234.084 35.7298L234.094 35.7285L233.992 34.9663ZM234.228 34.935L234.987 34.8147L234.87 34.0737L234.126 34.1727L234.228 34.935ZM235.431 42.5297L235.551 43.2892L236.31 43.1689L236.19 42.4094L235.431 42.5297ZM231.595 47.8081L230.835 47.9283L230.835 47.9283L231.595 47.8081ZM236.639 51.675L236.721 52.4396L236.73 52.4385L236.74 52.4372L236.639 51.675ZM236.874 51.6437L237.634 51.5234L237.516 50.7824L236.773 50.8814L236.874 51.6437ZM238.077 59.2385L238.197 59.9979L238.957 59.8777L238.837 59.1182L238.077 59.2385ZM234.241 64.5168L233.482 64.637L233.482 64.6371L234.241 64.5168ZM239.285 68.3837L239.367 69.1483L239.377 69.1473L239.387 69.1459L239.285 68.3837ZM239.521 68.3524L240.28 68.2321L240.163 67.4911L239.419 67.5902L239.521 68.3524ZM240.723 75.9472L240.844 76.7067L241.603 76.5864L241.483 75.8269L240.723 75.9472ZM236.888 81.2255L236.128 81.3457L236.128 81.3458L236.888 81.2255ZM241.932 85.0924L242.013 85.857L242.023 85.856L242.033 85.8547L241.932 85.0924ZM242.167 85.0611L242.926 84.9408L242.809 84.1998L242.065 84.2989L242.167 85.0611ZM243.61 94.175L243.731 94.9345L244.49 94.8142L244.37 94.0547L243.61 94.175ZM138.801 110.775L138.041 110.896L138.162 111.655L138.921 111.535L138.801 110.775ZM128.243 103.105L128.123 102.345L128.123 102.345L128.243 103.105ZM120.573 113.662L120.693 114.422L121.453 114.301L121.332 113.542L120.573 113.662ZM15.7641 130.262L15.0046 130.383L15.1249 131.142L15.8844 131.022L15.7641 130.262ZM14.3206 121.148L14.2002 120.389L13.4408 120.509L13.5611 121.269L14.3206 121.148ZM18.1552 115.869L18.9147 115.749L18.9147 115.749L18.1552 115.869ZM13.1124 112.003L13.0307 111.239L13.0208 111.24L13.0109 111.241L13.1124 112.003ZM12.8771 112.034L12.1176 112.155L12.2349 112.896L12.9786 112.797L12.8771 112.034ZM11.6742 104.44L11.5538 103.68L10.7944 103.801L10.9147 104.56L11.6742 104.44ZM15.5088 99.1606L16.2683 99.0403L16.2683 99.0402L15.5088 99.1606ZM10.466 95.2944L10.3843 94.5298L10.3744 94.5309L10.3645 94.5322L10.466 95.2944ZM10.2307 95.3258L9.47118 95.4461L9.58854 96.187L10.3322 96.088L10.2307 95.3258ZM9.02777 87.731L8.90745 86.9715L8.148 87.0918L8.26828 87.8513L9.02777 87.731ZM12.8624 82.4519L13.6219 82.3316L13.6219 82.3315L12.8624 82.4519ZM7.81957 78.5857L7.7379 77.8211L7.72796 77.8222L7.71806 77.8235L7.81957 78.5857ZM7.58427 78.6171L6.82478 78.7374L6.94214 79.4783L7.68578 79.3793L7.58427 78.6171ZM6.38137 71.0223L6.26105 70.2628L5.5016 70.3831L5.62188 71.1426L6.38137 71.0223ZM10.216 65.7432L10.9755 65.6229L10.9755 65.6228L10.216 65.7432ZM5.17317 61.877L5.0915 61.1124L5.08156 61.1135L5.07166 61.1148L5.17317 61.877ZM4.93787 61.9083L4.17838 62.0286L4.29574 62.7696L5.03937 62.6706L4.93787 61.9083ZM3.73497 54.3136L3.61465 53.5541L2.8552 53.6744L2.97548 54.4339L3.73497 54.3136ZM7.56963 49.0344L8.32912 48.9141L8.32911 48.9141L7.56963 49.0344ZM2.52677 45.1683L2.4451 44.4037L2.43516 44.4047L2.42526 44.4061L2.52677 45.1683ZM2.29147 45.1996L1.53198 45.3199L1.64934 46.0609L2.39297 45.9619L2.29147 45.1996ZM0.847961 36.0857L0.72767 35.3262L-0.0318183 35.4465L0.0884729 36.206L0.847961 36.0857ZM105.657 19.4856L104.897 19.6059C105.761 25.0587 110.882 28.7789 116.334 27.9155L116.214 27.156L116.094 26.3965C111.48 27.1271 107.147 23.9791 106.416 19.3653L105.657 19.4856ZM116.214 27.156L116.334 27.9155C121.617 27.0788 125.274 22.2469 124.712 16.9875L123.947 17.0692L123.183 17.1509C123.658 21.5999 120.564 25.6886 116.094 26.3966L116.214 27.156ZM123.947 17.0692L124.71 16.9677L124.647 16.4971L123.885 16.5986L123.122 16.7001L123.185 17.1707L123.947 17.0692ZM123.885 16.5986L124.005 17.3581L228.815 0.75786L228.694 -0.0016287L228.574 -0.761117L123.764 15.8391L123.885 16.5986ZM228.694 -0.0016287L227.935 0.118662L229.378 9.23259L230.138 9.1123L230.897 8.99201L229.454 -0.121919L228.694 -0.0016287ZM230.138 9.1123L230.018 8.35282C227.082 8.81782 225.078 11.5747 225.543 14.5109L226.302 14.3906L227.062 14.2704C226.73 12.1733 228.161 10.204 230.258 9.87179L230.138 9.1123ZM226.302 14.3906L225.543 14.5109C225.993 17.3556 228.595 19.3249 231.428 19.0222L231.346 18.2576L231.264 17.493C229.242 17.7091 227.383 16.3019 227.062 14.2703L226.302 14.3906ZM231.346 18.2576L231.448 19.0198L231.683 18.9885L231.581 18.2262L231.48 17.464L231.245 17.4953L231.346 18.2576ZM231.581 18.2262L230.822 18.3465L232.025 25.9413L232.784 25.821L233.544 25.7007L232.341 18.1059L231.581 18.2262ZM232.784 25.821L232.664 25.0615C229.728 25.5265 227.724 28.2834 228.189 31.2196L228.948 31.0993L229.708 30.9791C229.376 28.8821 230.807 26.9127 232.905 26.5805L232.784 25.821ZM228.948 31.0993L228.189 31.2196C228.64 34.0643 231.242 36.0336 234.074 35.7309L233.992 34.9663L233.911 34.2017C231.889 34.4178 230.03 33.0106 229.708 30.979L228.948 31.0993ZM233.992 34.9663L234.094 35.7285L234.329 35.6972L234.228 34.935L234.126 34.1727L233.891 34.2041L233.992 34.9663ZM234.228 34.935L233.468 35.0552L234.671 42.65L235.431 42.5297L236.19 42.4094L234.987 34.8147L234.228 34.935ZM235.431 42.5297L235.31 41.7702C232.374 42.2353 230.371 44.9921 230.835 47.9283L231.595 47.8081L232.354 47.6878C232.022 45.5908 233.454 43.6214 235.551 43.2892L235.431 42.5297ZM231.595 47.8081L230.835 47.9283C231.286 50.773 233.888 52.7423 236.721 52.4396L236.639 51.675L236.557 50.9104C234.535 51.1265 232.676 49.7194 232.354 47.6878L231.595 47.8081ZM236.639 51.675L236.74 52.4372L236.976 52.4059L236.874 51.6437L236.773 50.8814L236.537 50.9128L236.639 51.675ZM236.874 51.6437L236.115 51.764L237.318 59.3587L238.077 59.2385L238.837 59.1182L237.634 51.5234L236.874 51.6437ZM238.077 59.2385L237.957 58.479C235.021 58.944 233.017 61.7009 233.482 64.637L234.241 64.5168L235.001 64.3965C234.669 62.2995 236.1 60.3301 238.197 59.9979L238.077 59.2385ZM234.241 64.5168L233.482 64.6371C233.932 67.4817 236.535 69.451 239.367 69.1483L239.285 68.3837L239.204 67.6191C237.182 67.8352 235.323 66.4281 235.001 64.3965L234.241 64.5168ZM239.285 68.3837L239.387 69.1459L239.622 69.1146L239.521 68.3524L239.419 67.5902L239.184 67.6215L239.285 68.3837ZM239.521 68.3524L238.761 68.4727L239.964 76.0675L240.723 75.9472L241.483 75.8269L240.28 68.2321L239.521 68.3524ZM240.723 75.9472L240.603 75.1877C237.667 75.6527 235.663 78.4096 236.128 81.3457L236.888 81.2255L237.647 81.1053C237.315 79.0082 238.746 77.0388 240.844 76.7067L240.723 75.9472ZM236.888 81.2255L236.128 81.3458C236.579 84.1905 239.181 86.1597 242.013 85.857L241.932 85.0924L241.85 84.3278C239.828 84.5439 237.969 83.1368 237.647 81.1052L236.888 81.2255ZM241.932 85.0924L242.033 85.8547L242.268 85.8233L242.167 85.0611L242.065 84.2989L241.83 84.3302L241.932 85.0924ZM242.167 85.0611L241.407 85.1814L242.851 94.2953L243.61 94.175L244.37 94.0547L242.926 84.9408L242.167 85.0611ZM243.61 94.175L243.49 93.4155L138.68 110.016L138.801 110.775L138.921 111.535L243.731 94.9345L243.61 94.175ZM138.801 110.775L139.56 110.655C138.697 105.202 133.576 101.482 128.123 102.345L128.243 103.105L128.364 103.864C132.978 103.134 137.31 106.282 138.041 110.896L138.801 110.775ZM128.243 103.105L128.123 102.345C122.67 103.209 118.95 108.33 119.813 113.783L120.573 113.662L121.332 113.542C120.602 108.928 123.75 104.595 128.364 103.864L128.243 103.105ZM120.573 113.662L120.453 112.903L15.6438 129.503L15.7641 130.262L15.8844 131.022L120.693 114.422L120.573 113.662ZM15.7641 130.262L16.5236 130.142L15.0801 121.028L14.3206 121.148L13.5611 121.269L15.0046 130.383L15.7641 130.262ZM14.3206 121.148L14.4409 121.908C17.3771 121.443 19.3797 118.685 18.9147 115.749L18.1552 115.869L17.3957 115.99C17.7279 118.087 16.2973 120.057 14.2002 120.389L14.3206 121.148ZM18.1552 115.869L18.9147 115.749C18.464 112.905 15.8628 110.936 13.0307 111.239L13.1124 112.003L13.194 112.768C15.2157 112.552 17.0738 113.958 17.3958 115.99L18.1552 115.869ZM13.1124 112.003L13.0109 111.241L12.7756 111.272L12.8771 112.034L12.9786 112.797L13.2139 112.765L13.1124 112.003ZM12.8771 112.034L13.6366 111.914L12.4337 104.319L11.6742 104.44L10.9147 104.56L12.1176 112.155L12.8771 112.034ZM11.6742 104.44L11.7945 105.199C14.7307 104.734 16.7333 101.976 16.2683 99.0403L15.5088 99.1606L14.7493 99.2809C15.0815 101.378 13.6509 103.348 11.5538 103.68L11.6742 104.44ZM15.5088 99.1606L16.2683 99.0402C15.8176 96.1959 13.2164 94.2273 10.3843 94.5298L10.466 95.2944L10.5476 96.059C12.5694 95.8431 14.4274 97.2496 14.7493 99.2809L15.5088 99.1606ZM10.466 95.2944L10.3645 94.5322L10.1292 94.5635L10.2307 95.3258L10.3322 96.088L10.5675 96.0567L10.466 95.2944ZM10.2307 95.3258L10.9902 95.2055L9.78726 87.6107L9.02777 87.731L8.26828 87.8513L9.47118 95.4461L10.2307 95.3258ZM9.02777 87.731L9.1481 88.4905C12.0843 88.0253 14.0869 85.2675 13.6219 82.3316L12.8624 82.4519L12.1029 82.5722C12.4351 84.6695 11.0045 86.6393 8.90745 86.9715L9.02777 87.731ZM12.8624 82.4519L13.6219 82.3315C13.1712 79.4872 10.57 77.5186 7.7379 77.8211L7.81957 78.5857L7.90124 79.3503C9.92297 79.1344 11.7811 80.5408 12.1029 82.5722L12.8624 82.4519ZM7.81957 78.5857L7.71806 77.8235L7.48276 77.8548L7.58427 78.6171L7.68578 79.3793L7.92107 79.348L7.81957 78.5857ZM7.58427 78.6171L8.34376 78.4968L7.14086 70.902L6.38137 71.0223L5.62188 71.1426L6.82478 78.7374L7.58427 78.6171ZM6.38137 71.0223L6.5017 71.7818C9.4379 71.3166 11.4405 68.5588 10.9755 65.6229L10.216 65.7432L9.45654 65.8634C9.78873 67.9608 8.35805 69.9306 6.26105 70.2628L6.38137 71.0223ZM10.216 65.7432L10.9755 65.6228C10.5248 62.7784 7.92361 60.8099 5.0915 61.1124L5.17317 61.877L5.25484 62.6416C7.27659 62.4257 9.13467 63.8321 9.45655 65.8635L10.216 65.7432ZM5.17317 61.877L5.07166 61.1148L4.83636 61.1461L4.93787 61.9083L5.03937 62.6706L5.27467 62.6392L5.17317 61.877ZM4.93787 61.9083L5.69736 61.7881L4.49446 54.1933L3.73497 54.3136L2.97548 54.4339L4.17838 62.0286L4.93787 61.9083ZM3.73497 54.3136L3.8553 55.073C6.7915 54.6079 8.79412 51.8501 8.32912 48.9141L7.56963 49.0344L6.81014 49.1547C7.14233 51.2521 5.71165 53.2218 3.61465 53.5541L3.73497 54.3136ZM7.56963 49.0344L8.32911 48.9141C7.87842 46.0697 5.27722 44.1012 2.4451 44.4037L2.52677 45.1683L2.60844 45.9329C4.6302 45.7169 6.48828 47.1234 6.81015 49.1548L7.56963 49.0344ZM2.52677 45.1683L2.42526 44.4061L2.18996 44.4374L2.29147 45.1996L2.39297 45.9619L2.62827 45.9305L2.52677 45.1683ZM2.29147 45.1996L3.05096 45.0793L1.60745 35.9654L0.847961 36.0857L0.0884729 36.206L1.53198 45.3199L2.29147 45.1996ZM0.847961 36.0857L0.968253 36.8452L105.777 20.2451L105.657 19.4856L105.536 18.7261L0.72767 35.3262L0.847961 36.0857Z" fill="black" mask="url(#path-1-inside-1_1_5641)"/>
<g clip-path="url(#clip0_1_5641)">
<rect x="21.9609" y="51.4275" width="193.777" height="58.4406" transform="rotate(-9 21.9609 51.4275)" fill="#063550"/>
<line x1="117.194" y1="30.894" x2="129.223" y2="106.843" stroke="#C2C2C2" stroke-width="0.768956" stroke-dasharray="3.08 3.08"/>
<path d="M34.3552 64.2808C33.8903 64.3545 33.4742 64.3205 33.1068 64.179C32.7431 64.0323 32.4414 63.7896 32.2017 63.4509C31.9612 63.1077 31.7996 62.6748 31.7169 62.1524C31.6348 61.6343 31.6532 61.1775 31.7722 60.7819C31.8904 60.3819 32.0997 60.056 32.4003 59.8041C32.7052 59.5516 33.0946 59.3878 33.5684 59.3128C34.0377 59.2384 34.4561 59.272 34.8235 59.4135C35.1909 59.5551 35.4948 59.7974 35.7352 60.1406C35.975 60.4794 36.1362 60.91 36.219 61.4325C36.301 61.9505 36.283 62.4096 36.1648 62.8096C36.0465 63.2096 35.835 63.5358 35.53 63.7884C35.225 64.0409 34.8335 64.2051 34.3552 64.2808ZM34.2416 63.5635C34.6889 63.4927 35.0133 63.2915 35.215 62.96C35.4204 62.6234 35.4764 62.1606 35.3832 61.5717C35.2948 61.0138 35.1065 60.5988 34.8183 60.3267C34.5294 60.0502 34.1503 59.9491 33.6809 60.0234C33.2426 60.0929 32.9207 60.2959 32.7153 60.6325C32.5092 60.9647 32.4528 61.4253 32.5461 62.0142C32.6337 62.5677 32.822 62.9827 33.1109 63.2592C33.3998 63.5357 33.7767 63.6372 34.2416 63.5635ZM37.25 63.7543L38.4159 58.6063L39.3325 58.4611L42.0321 62.9969L41.1953 63.1294L40.5508 62.0264L38.339 62.3767L38.067 63.6249L37.25 63.7543ZM38.8578 60.0205L38.4985 61.6638L40.1855 61.3966L39.3426 59.9437C39.2314 59.7571 39.1137 59.5442 38.9896 59.3052C38.9491 59.5658 38.9052 59.8042 38.8578 60.0205ZM42.561 61.1361L42.0686 58.0277L42.859 57.9025L43.3429 60.9578C43.4074 61.3651 43.5689 61.6391 43.8272 61.7798C44.0848 61.916 44.404 61.954 44.7848 61.8937C45.2231 61.8242 45.5236 61.6722 45.6861 61.4377C45.8531 61.2025 45.9089 60.9099 45.8535 60.5601L45.3696 57.5049L46.1534 57.3808L46.6457 60.4891C46.7032 60.8522 46.6758 61.1811 46.5637 61.4757C46.4508 61.766 46.2535 62.0105 45.9718 62.2095C45.6945 62.4077 45.3323 62.5422 44.8851 62.6131C44.2519 62.7134 43.7292 62.6373 43.317 62.3848C42.9042 62.128 42.6521 61.7117 42.561 61.1361ZM52.3913 61.4242C51.9175 61.4993 51.4984 61.4612 51.1341 61.3101C50.7697 61.1591 50.4695 60.9116 50.2335 60.5677C49.9975 60.2238 49.8391 59.7972 49.7585 59.288C49.6757 58.7655 49.6982 58.3058 49.826 57.9088C49.9531 57.5074 50.1694 57.1827 50.4751 56.9346C50.7852 56.6857 51.1705 56.5249 51.631 56.4519C52.0295 56.3888 52.3883 56.4046 52.7074 56.4993C53.0302 56.5889 53.2999 56.7436 53.5162 56.9635C53.7371 57.1827 53.8959 57.4549 53.9928 57.78L53.2137 58.0191C53.0956 57.6747 52.9051 57.4325 52.6424 57.2926C52.3841 57.1519 52.0823 57.1089 51.7369 57.1636C51.2587 57.2394 50.9253 57.4556 50.7367 57.8123C50.5518 58.1638 50.5025 58.6119 50.5887 59.1565C50.6827 59.7499 50.8816 60.1745 51.1854 60.4305C51.4885 60.6821 51.857 60.7735 52.291 60.7048C52.6762 60.6438 52.9644 60.5005 53.1556 60.2751C53.3506 60.0445 53.4509 59.7608 53.4566 59.424L54.2606 59.3852C54.2739 59.7553 54.2031 60.0819 54.0482 60.3652C53.8978 60.6477 53.6803 60.8796 53.3958 61.0608C53.1114 61.2421 52.7765 61.3632 52.3913 61.4242ZM55.1954 60.912L56.3613 55.764L57.2779 55.6188L59.9775 60.1546L59.1406 60.2871L58.4962 59.1841L56.2844 59.5344L56.0123 60.7826L55.1954 60.912ZM56.8031 57.1782L56.4438 58.8215L58.1309 58.5543L57.288 57.1014C57.1767 56.9148 57.0591 56.702 56.935 56.4629C56.8945 56.7235 56.8506 56.9619 56.8031 57.1782ZM61.0221 59.9891L60.2553 55.1472L61.5239 54.9463L63.3829 58.4306L64.0876 54.5403L65.3296 54.3435L66.0965 59.1854L65.3194 59.3085L64.6941 55.1455L63.8848 59.5357L63.2139 59.642L61.1218 55.7181L61.7793 59.8692L61.0221 59.9891ZM67.6554 58.9385L66.8885 54.0966L69.1069 53.7453C69.6382 53.6611 70.0714 53.731 70.4064 53.9548C70.7459 54.1779 70.9514 54.5153 71.0229 54.9669C71.0952 55.423 71.0021 55.8099 70.7438 56.1277C70.4892 56.4404 70.0962 56.6388 69.5649 56.7229L68.1502 56.947L68.4458 58.8133L67.6554 58.9385ZM69.2439 54.4385L67.7894 54.6688L68.0418 56.2629L69.4964 56.0325C69.7444 55.9932 69.9357 55.8971 70.0703 55.7442C70.2042 55.5868 70.2498 55.373 70.207 55.1029C70.1649 54.8373 70.0581 54.6499 69.8865 54.5409C69.7149 54.4319 69.5007 54.3978 69.2439 54.4385ZM72.4627 56.4001L71.9704 53.2918L72.7607 53.1666L73.2446 56.2218C73.3092 56.6292 73.4706 56.9032 73.7289 57.0438C73.9865 57.18 74.3057 57.218 74.6865 57.1577C75.1248 57.0883 75.4253 56.9363 75.5879 56.7017C75.7548 56.4665 75.8106 56.174 75.7552 55.8242L75.2713 52.7689L76.0551 52.6448L76.5474 55.7532C76.6049 56.1163 76.5776 56.4451 76.4654 56.7398C76.3525 57.03 76.1552 57.2746 75.8735 57.4735C75.5962 57.6717 75.234 57.8063 74.7868 57.8771C74.1536 57.9774 73.6309 57.9013 73.2187 57.6489C72.8059 57.392 72.5538 56.9758 72.4627 56.4001ZM80.4176 53.4653C80.3581 53.1752 80.2234 52.9696 80.0136 52.8485C79.8038 52.7274 79.5461 52.691 79.2406 52.7394C78.9483 52.7857 78.7342 52.8809 78.5981 53.025C78.4665 53.1684 78.4161 53.3375 78.447 53.5323C78.4737 53.7006 78.5456 53.8254 78.6629 53.9066C78.7802 53.9879 78.9389 54.0445 79.1391 54.0763C79.3393 54.1081 79.5721 54.1303 79.8373 54.1428C80.1158 54.1531 80.3805 54.1906 80.6313 54.2553C80.8821 54.32 81.0931 54.4341 81.2642 54.5976C81.4398 54.7604 81.5525 54.999 81.6023 55.3134C81.671 55.7473 81.5626 56.1231 81.277 56.4407C80.9958 56.7575 80.5586 56.9629 79.9652 57.0569C79.5756 57.1186 79.2285 57.1055 78.9241 57.0176C78.6241 56.9289 78.3781 56.7795 78.1859 56.5694C77.9975 56.3541 77.8762 56.0897 77.822 55.776L78.5766 55.5543C78.6439 55.8932 78.7909 56.1332 79.0175 56.2743C79.2485 56.4147 79.5345 56.4579 79.8754 56.4039C80.181 56.3555 80.4176 56.259 80.5853 56.1145C80.7531 55.9699 80.8159 55.7648 80.7738 55.4991C80.7444 55.3131 80.671 55.1795 80.5537 55.0982C80.4409 55.0162 80.2987 54.9638 80.1271 54.9411C79.9549 54.9139 79.7678 54.8936 79.566 54.8802C79.1954 54.8617 78.873 54.8175 78.5986 54.7474C78.328 54.6723 78.1119 54.5545 77.9503 54.394C77.7887 54.2335 77.6851 54.0093 77.6395 53.7215C77.5974 53.4558 77.6311 53.2099 77.7406 52.9838C77.8493 52.7532 78.0229 52.5601 78.2615 52.4043C78.5001 52.2485 78.7921 52.1432 79.1375 52.0885C79.6998 51.9994 80.1592 52.0628 80.5157 52.2787C80.8714 52.4902 81.0951 52.8133 81.1867 53.2482L80.4176 53.4653ZM82.8365 57.5145L82.7723 57.1093L82.8985 57.0894C83.018 57.0704 83.0954 57.0287 83.1306 56.9641C83.1664 56.9039 83.177 56.8274 83.1623 56.7344L83.1233 56.4886L82.7448 56.5486L82.6154 55.7317L83.3858 55.6096L83.5657 56.7454C83.6001 56.9624 83.5633 57.1316 83.4555 57.2531C83.3483 57.379 83.1929 57.458 82.9892 57.4903L82.8365 57.5145ZM87.6734 55.768L86.883 55.8932L86.1161 51.0513L86.9065 50.9261L87.6734 55.768ZM89.2289 55.5216L88.462 50.6797L89.2524 50.5545L89.9109 54.7123L92.5278 54.2979L92.6361 54.982L89.2289 55.5216ZM93.6309 54.8244L92.864 49.9825L96.3311 49.4334L96.4384 50.1109L93.7617 50.5348L93.9774 51.8964L96.3751 51.5166L96.4792 52.1742L94.0815 52.5539L94.3129 54.0151L97.1888 53.5596L97.2972 54.2437L93.6309 54.8244ZM97.7513 52.3199L97.6419 51.6292L99.9798 51.2589L100.089 51.9496L97.7513 52.3199ZM102.363 53.4414L101.572 53.5666L100.805 48.7247L101.596 48.5995L102.363 53.4414ZM103.918 53.1951L103.151 48.3532L106.572 47.8114L106.68 48.4955L104.05 48.9121L104.273 50.3202L106.584 49.9541L106.692 50.6315L104.38 50.9976L104.709 53.0699L103.918 53.1951ZM108.463 52.4752L107.696 47.6334L111.163 47.0842L111.27 47.7617L108.594 48.1856L108.809 49.5472L111.207 49.1675L111.311 49.825L108.914 50.2048L109.145 51.666L112.021 51.2105L112.129 51.8946L108.463 52.4752Z" fill="white"/>
<path d="M36.0153 83.3089L34.4176 73.2216L38.8732 72.5159C39.8602 72.3596 40.6592 72.4789 41.2703 72.8738C41.8813 73.2688 42.2459 73.8398 42.3643 74.5871C42.4476 75.1129 42.3752 75.6113 42.1472 76.0824C41.9178 76.5443 41.4863 76.9247 40.8528 77.2236C41.6477 77.2868 42.2462 77.5135 42.6485 77.9037C43.0507 78.2939 43.2964 78.7704 43.3855 79.3331C43.5184 80.1725 43.32 80.8895 42.79 81.4841C42.2678 82.068 41.4856 82.4425 40.4432 82.6076L36.0153 83.3089ZM39.009 73.3738L35.4529 73.937L36.0315 77.5901L39.5876 77.0268C40.2979 76.9143 40.8067 76.6635 41.1138 76.2745C41.4288 75.8747 41.5439 75.4073 41.4591 74.8723C41.3671 74.2911 41.0971 73.8705 40.6493 73.6105C40.2015 73.3504 39.6548 73.2715 39.009 73.3738ZM39.7628 77.8643L36.1652 78.4341L36.7766 82.2947L40.3743 81.7249C40.9462 81.6343 41.389 81.4743 41.7025 81.245C42.0253 81.0142 42.2378 80.7441 42.3401 80.4348C42.4502 80.1148 42.4767 79.7749 42.4198 79.4151C42.3204 78.7878 42.0376 78.3456 41.5714 78.0885C41.1036 77.8222 40.5008 77.7474 39.7628 77.8643ZM49.8049 81.2666C48.8271 81.4215 47.9625 81.3362 47.2112 81.0108C46.4599 80.6853 45.843 80.1637 45.3605 79.4458C44.8873 78.7264 44.5688 77.8501 44.4052 76.817C44.2299 75.71 44.2707 74.7437 44.5276 73.9182C44.7923 73.0819 45.2346 72.4114 45.8544 71.9066C46.482 71.3912 47.2524 71.0611 48.1656 70.9165C49.1434 70.7616 50.008 70.8469 50.7593 71.1723C51.5091 71.4885 52.1253 72.0056 52.6078 72.7235C53.0903 73.4414 53.4134 74.3169 53.577 75.3501C53.7523 76.4571 53.7076 77.4287 53.4429 78.2649C53.186 79.0905 52.7437 79.761 52.1162 80.2765C51.4978 80.7905 50.7274 81.1205 49.8049 81.2666ZM49.669 80.4087C50.8314 80.2247 51.667 79.7093 52.1759 78.8628C52.6941 78.0148 52.8443 76.9035 52.6266 75.529C52.4075 74.1453 51.9205 73.1302 51.1656 72.4838C50.4185 71.8268 49.4638 71.5903 48.3015 71.7744C47.1392 71.9585 46.3035 72.4738 45.7946 73.3203C45.2857 74.1669 45.1408 75.282 45.3599 76.6658C45.5791 78.0495 46.0615 79.0653 46.8071 79.7131C47.5528 80.361 48.5067 80.5928 49.669 80.4087ZM60.3449 79.5973C59.3671 79.7521 58.5025 79.6669 57.7512 79.3414C56.9999 79.016 56.383 78.4943 55.9005 77.7764C55.4273 77.057 55.1088 76.1808 54.9452 75.1476C54.7699 74.0406 54.8107 73.0744 55.0676 72.2488C55.3323 71.4126 55.7746 70.742 56.3944 70.2373C57.022 69.7218 57.7924 69.3917 58.7056 69.2471C59.6835 69.0922 60.548 69.1775 61.2993 69.503C62.0492 69.8192 62.6653 70.3362 63.1478 71.0541C63.6303 71.772 63.9534 72.6476 64.117 73.6807C64.2923 74.7877 64.2477 75.7593 63.9829 76.5956C63.726 77.4211 63.2837 78.0916 62.6562 78.6071C62.0378 79.1211 61.2674 79.4512 60.3449 79.5973ZM60.2091 78.7394C61.3714 78.5553 62.207 78.04 62.7159 77.1934C63.2341 76.3454 63.3843 75.2341 63.1666 73.8596C62.9475 72.4759 62.4605 71.4609 61.7056 70.8145C60.9585 70.1574 60.0038 69.9209 58.8415 70.105C57.6792 70.2891 56.8436 70.8044 56.3346 71.651C55.8257 72.4975 55.6808 73.6127 55.8999 74.9964C56.1191 76.3801 56.6015 77.3959 57.3471 78.0437C58.0928 78.6916 59.0467 78.9235 60.2091 78.7394ZM70.8849 77.9279C69.9071 78.0828 69.0426 77.9975 68.2913 77.672C67.54 77.3466 66.9231 76.8249 66.4406 76.107C65.9673 75.3877 65.6488 74.5114 65.4852 73.4782C65.3099 72.3713 65.3507 71.405 65.6076 70.5794C65.8723 69.7432 66.3146 69.0727 66.9344 68.5679C67.562 68.0524 68.3324 67.7224 69.2456 67.5777C70.4818 67.3819 71.494 67.5337 72.2822 68.0329C73.0783 68.5215 73.6421 69.2454 73.9737 70.2047L73.0918 70.4579C72.7428 69.5675 72.2424 68.9754 71.5906 68.6815C70.9374 68.3783 70.2003 68.2918 69.3793 68.4218C68.217 68.6059 67.3814 69.1212 66.8724 69.9678C66.3635 70.8143 66.2186 71.9295 66.4378 73.3132C66.6569 74.6969 67.14 75.7173 67.8871 76.3744C68.6342 77.0314 69.5889 77.2679 70.7513 77.0838C71.766 76.9231 72.4944 76.5666 72.9364 76.0143C73.3863 75.4514 73.6229 74.7661 73.6463 73.9587L74.5633 73.9269C74.5743 74.6533 74.4255 75.2962 74.117 75.8557C73.8177 76.4138 73.3887 76.8694 72.83 77.2227C72.2805 77.5745 71.6321 77.8096 70.8849 77.9279ZM79.3104 76.4516L77.7127 66.3643L78.6121 66.2219L79.3244 70.7189L85.7863 69.6955L85.0741 65.1984L85.9597 65.0581L87.5573 75.1454L86.6717 75.2857L85.9156 70.5119L79.4537 71.5353L80.2098 76.3091L79.3104 76.4516ZM88.7325 74.9593L91.3275 64.208L92.4345 64.0326L98.2248 73.4559L97.2839 73.6049L95.6358 70.9014L90.4054 71.7298L89.6734 74.8103L88.7325 74.9593ZM91.7195 66.1458L90.6009 70.9045L95.181 70.1791L92.6328 66.0012C92.5298 65.8284 92.4221 65.6563 92.3099 65.485C92.2069 65.3122 92.1024 65.1301 91.9964 64.9389C91.9548 65.1535 91.9071 65.3597 91.8533 65.5573C91.8087 65.7535 91.7641 65.9497 91.7195 66.1458ZM99.404 73.2691L97.8063 63.1818L98.7057 63.0394L100.172 72.2964L106.246 71.3343L106.378 72.1645L99.404 73.2691ZM107.512 71.985L105.914 61.8977L106.813 61.7552L108.28 71.0123L114.354 70.0502L114.486 70.8804L107.512 71.985Z" fill="#C2C2C2"/>
<path d="M38.7445 97.1735L38.1028 93.122L36.6831 93.3468L36.5727 92.6494L36.7387 92.6231C37.1594 92.5565 37.4782 92.384 37.6951 92.1057C37.9175 91.8265 38.0308 91.4852 38.035 91.0817L38.749 90.9686L39.7076 97.021L38.7445 97.1735ZM43.7558 96.4649C43.2189 96.5499 42.7638 96.4887 42.3905 96.2811C42.0228 96.0727 41.7246 95.7483 41.496 95.3079C41.272 94.8611 41.1109 94.3278 41.0128 93.7079C40.8979 92.9828 40.8959 92.3789 41.0066 91.8961C41.1165 91.4078 41.3232 91.029 41.6266 90.7596C41.9301 90.4903 42.3115 90.3192 42.7709 90.2465C43.3078 90.1614 43.7628 90.2227 44.1361 90.4302C44.5094 90.6378 44.8076 90.9622 45.0307 91.4034C45.2593 91.8438 45.4227 92.374 45.5209 92.9939C45.6357 93.7189 45.6354 94.3261 45.52 94.8153C45.4101 95.3036 45.2035 95.6824 44.9 95.9517C44.5966 96.2211 44.2152 96.3921 43.7558 96.4649ZM43.6203 95.6098C44.0797 95.537 44.372 95.2865 44.497 94.8581C44.6268 94.4234 44.6359 93.8546 44.5246 93.1517C44.4334 92.576 44.3067 92.1337 44.1442 91.8247C43.9873 91.5148 43.8043 91.3083 43.5951 91.2053C43.385 91.0967 43.1554 91.0622 42.9063 91.1016C42.4469 91.1744 42.1547 91.4249 42.0296 91.8532C41.9046 92.2815 41.8977 92.8472 42.009 93.5501C42.1002 94.1257 42.2247 94.5712 42.3824 94.8867C42.5393 95.1966 42.7228 95.4058 42.9329 95.5144C43.1477 95.6165 43.3768 95.6483 43.6203 95.6098ZM46.8824 95.8846L48.3398 89.4496L49.4855 89.2681L52.8601 94.9378L51.814 95.1035L51.0084 93.7247L48.2437 94.1626L47.9036 95.7228L46.8824 95.8846ZM48.8921 91.2174L48.443 93.2715L50.5518 92.9375L49.4982 91.1214C49.3591 90.8881 49.212 90.622 49.0569 90.3232C49.0064 90.6489 48.9514 90.947 48.8921 91.2174ZM54.1659 94.731L53.2073 88.6786L54.793 88.4275L57.1169 92.7828L57.9977 87.9199L59.5502 87.674L60.5088 93.7264L59.5375 93.8802L58.7558 88.6764L57.7442 94.1642L56.9056 94.2971L54.2905 89.3922L55.1123 94.5811L54.1659 94.731ZM62.0885 94.7017L62.0083 94.1953L62.166 94.1703C62.3155 94.1466 62.4122 94.0944 62.4561 94.0137C62.5009 93.9385 62.5141 93.8428 62.4957 93.7266L62.4471 93.4194L61.9739 93.4943L61.8121 92.4731L62.7752 92.3206L63 93.7403C63.043 94.0115 62.9971 94.223 62.8623 94.3749C62.7283 94.5323 62.534 94.6311 62.2794 94.6714L62.0885 94.7017ZM69.1606 92.4412C68.4577 92.5525 67.9025 92.4504 67.4951 92.1347C67.0932 91.8183 66.8445 91.3584 66.7489 90.7551L66.599 89.8086L67.587 89.6521L67.7408 90.6235C67.8066 91.0386 67.9518 91.3106 68.1765 91.4396C68.4058 91.5621 68.6865 91.5971 69.0186 91.5445C69.4393 91.4779 69.7141 91.3322 69.843 91.1076C69.972 90.8829 70.0101 90.6045 69.9575 90.2724L69.3014 86.1296L70.2894 85.9731L70.9416 90.091C71.0494 90.7718 70.9359 91.3089 70.6011 91.7024C70.2717 92.095 69.7916 92.3412 69.1606 92.4412ZM72.7179 89.5714L72.1025 85.6859L73.0905 85.5294L73.6953 89.3485C73.776 89.8577 73.9778 90.2002 74.3006 90.376C74.6226 90.5463 75.0216 90.5937 75.4976 90.5183C76.0456 90.4315 76.4212 90.2416 76.6244 89.9484C76.8331 89.6543 76.9029 89.2887 76.8336 88.8514L76.2287 85.0324L77.2084 84.8772L77.8238 88.7627C77.8957 89.2165 77.8615 89.6276 77.7213 89.9959C77.5801 90.3587 77.3335 90.6644 76.9814 90.9131C76.6349 91.1609 76.1821 91.3291 75.623 91.4176C74.8316 91.543 74.1782 91.4479 73.663 91.1323C73.1469 90.8112 72.8319 90.2909 72.7179 89.5714ZM80.0489 90.6315L79.0903 84.5792L80.3688 84.3767L84.1452 88.553L83.4075 83.8954L84.3789 83.7415L85.3375 89.7939L84.1751 89.978L80.2738 85.7108L81.0286 90.4764L80.0489 90.6315ZM87.2784 89.4865L86.3198 83.4341L90.6536 82.7477L90.7877 83.5945L87.4419 84.1245L87.7114 85.8264L90.7086 85.3517L90.8387 86.1737L87.8416 86.6484L88.1309 88.4749L91.7258 87.9055L91.8612 88.7606L87.2784 89.4865ZM96.8968 87.9631L96.2551 83.9116L94.8354 84.1364L94.725 83.439L94.891 83.4127C95.3117 83.3461 95.6305 83.1736 95.8474 82.8953C96.0698 82.6161 96.1831 82.2748 96.1873 81.8713L96.9013 81.7582L97.8599 87.8105L96.8968 87.9631ZM102.479 87.0789L102.278 85.8086L99.2562 86.2873L99.1299 85.4903L101.512 81.0278L102.492 80.8727L103.119 84.8329L104.049 84.6856L104.179 85.5075L103.25 85.6548L103.451 86.925L102.479 87.0789ZM100.155 85.3023L102.148 84.9867L101.722 82.2968L100.155 85.3023ZM107.002 86.3626L106.179 81.1653L104.12 81.4914L103.984 80.6363L109.065 79.8316L109.201 80.6867L107.167 81.0089L107.99 86.2061L107.002 86.3626ZM111.28 85.6849L110.322 79.6326L111.31 79.4761L111.711 82.0083L114.849 81.5112L114.448 78.979L115.419 78.8252L116.378 84.8776L115.407 85.0314L114.983 82.3581L111.845 82.8551L112.268 85.5285L111.28 85.6849Z" fill="white"/>
<g clip-path="url(#clip1_1_5641)">
<rect x="164.868" y="36.9675" width="42.2926" height="42.2926" rx="2.19702" transform="rotate(-9 164.868 36.9675)" fill="white"/>
<g clip-path="url(#clip2_1_5641)">
<path d="M203.07 35.9201L170.521 41.0754L175.676 73.6249L208.225 68.4696L203.07 35.9201Z" fill="white"/>
<path d="M172.239 51.9253L173.225 51.7691L173.382 52.7554L174.368 52.5992L174.524 53.5855L173.538 53.7417L173.694 54.7281L173.85 55.7144L174.837 55.5582L174.993 56.5446L174.006 56.7008L174.163 57.6871L174.319 58.6735L174.475 59.6598L173.489 59.8161L173.333 58.8297L173.176 57.8434L173.02 56.857L172.864 55.8707L172.708 54.8843L172.551 53.898L172.395 52.9116L172.239 51.9253ZM173.957 62.7751L174.944 62.6189L175.1 63.6052L174.114 63.7615L173.957 62.7751ZM174.27 64.7478L175.256 64.5916L175.412 65.5779L174.426 65.7342L174.27 64.7478ZM174.631 60.6462L175.618 60.49L175.774 61.4763L176.76 61.3201L176.604 60.3337L177.59 60.1775L177.434 59.1912L177.278 58.2048L176.292 58.361L176.135 57.3747L175.149 57.5309L174.993 56.5446L175.979 56.3884L175.823 55.402L174.837 55.5582L174.68 54.5719L175.667 54.4157L176.653 54.2594L176.809 55.2458L176.966 56.2321L177.952 56.0759L177.796 55.0896L178.782 54.9333L178.938 55.9197L179.925 55.7635L179.768 54.7771L178.782 54.9333L178.626 53.947L179.612 53.7908L179.456 52.8044L180.442 52.6482L180.598 53.6345L180.755 54.6209L180.911 55.6072L181.897 55.451L182.053 56.4374L182.21 57.4237L182.366 58.4101L183.352 58.2538L183.509 59.2402L182.522 59.3964L182.678 60.3828L181.692 60.539L181.848 61.5253L180.862 61.6816L180.706 60.6952L179.719 60.8514L179.563 59.8651L180.549 59.7089L180.393 58.7225L179.407 58.8787L178.421 59.035L178.577 60.0213L178.733 61.0077L178.889 61.994L179.045 62.9803L178.059 63.1366L177.073 63.2928L176.917 62.3064L175.93 62.4627L174.944 62.6189L174.788 61.6325L174.631 60.6462ZM175.1 63.6052L176.086 63.449L177.073 63.2928L177.229 64.2791L178.215 64.1229L179.202 63.9667L179.358 64.953L178.372 65.1093L177.385 65.2655L176.399 65.4217L176.243 64.4354L175.256 64.5916L175.1 63.6052ZM173.743 48.6538L174.729 48.4976L174.886 49.4839L175.872 49.3277L175.716 48.3413L176.702 48.1851L177.688 48.0289L178.675 47.8727L178.831 48.859L177.845 49.0152L178.001 50.0016L178.987 49.8454L179.974 49.6891L179.817 48.7028L179.661 47.7165L180.647 47.5602L181.634 47.404L181.79 48.3904L182.776 48.2341L182.62 47.2478L183.607 47.0916L184.593 46.9353L184.749 47.9217L183.763 48.0779L183.919 49.0643L184.075 50.0506L183.089 50.2068L183.245 51.1932L182.259 51.3494L182.415 52.3357L181.429 52.492L180.442 52.6482L180.286 51.6618L180.13 50.6755L179.143 50.8317L178.157 50.9879L177.171 51.1442L177.015 50.1578L176.028 50.314L175.042 50.4703L175.198 51.4566L175.354 52.443L174.368 52.5992L174.212 51.6128L174.055 50.6265L173.899 49.6401L173.743 48.6538ZM175.305 58.5173L176.292 58.361L176.448 59.3474L175.461 59.5036L175.305 58.5173ZM176.184 51.3004L177.171 51.1442L177.327 52.1305L176.341 52.2867L176.184 51.3004ZM176.497 53.2731L177.483 53.1169L178.47 52.9606L178.626 53.947L177.639 54.1032L176.653 54.2594L176.497 53.2731ZM179.094 56.906L179.251 57.8924L180.237 57.7362L181.223 57.5799L181.067 56.5936L180.081 56.7498L179.094 56.906ZM178.313 51.9743L179.3 51.8181L179.456 52.8044L178.47 52.9606L178.313 51.9743ZM179.876 61.8378L180.862 61.6816L181.018 62.6679L180.032 62.8241L179.876 61.8378ZM180.188 63.8105L181.174 63.6543L182.161 63.498L182.317 64.4844L181.331 64.6406L180.344 64.7968L180.188 63.8105ZM178.411 39.8257L179.398 39.6694L180.384 39.5132L180.54 40.4996L181.527 40.3433L181.683 41.3297L180.696 41.4859L180.853 42.4723L179.866 42.6285L179.71 41.6421L179.554 40.6558L178.568 40.812L178.411 39.8257ZM178.88 42.7847L179.866 42.6285L180.023 43.6148L179.036 43.7711L178.88 42.7847ZM179.349 45.7438L180.335 45.5875L180.491 46.5739L179.505 46.7301L179.349 45.7438ZM181.848 61.5253L182.835 61.3691L182.678 60.3828L183.665 60.2265L183.509 59.2402L184.495 59.084L184.651 60.0703L184.807 61.0567L185.794 60.9004L185.637 59.9141L185.481 58.9277L186.468 58.7715L186.311 57.7852L186.155 56.7988L185.169 56.955L185.013 55.9687L184.026 56.1249L183.87 55.1386L184.856 54.9824L185.843 54.8261L186.829 54.6699L187.815 54.5137L187.659 53.5273L188.645 53.3711L188.802 54.3575L188.958 55.3438L187.972 55.5L186.985 55.6563L187.141 56.6426L187.298 57.629L187.454 58.6153L188.44 58.4591L188.284 57.4727L188.128 56.4864L189.114 56.3302L189.27 57.3165L189.427 58.3029L189.583 59.2892L188.596 59.4454L187.61 59.6016L186.624 59.7579L186.78 60.7442L186.936 61.7306L185.95 61.8868L184.964 62.043L183.977 62.1992L184.133 63.1856L185.12 63.0294L185.276 64.0157L185.432 65.0021L185.588 65.9884L184.602 66.1446L184.758 67.131L184.915 68.1173L183.928 68.2735L182.942 68.4298L182.786 67.4434L182.629 66.4571L183.616 66.3009L183.459 65.3145L184.446 65.1583L184.29 64.1719L183.303 64.3282L183.147 63.3418L182.161 63.498L182.004 62.5117L181.848 61.5253ZM182.317 64.4844L183.303 64.3282L183.459 65.3145L182.473 65.4707L182.317 64.4844ZM183.098 69.4161L184.084 69.2599L185.071 69.1037L185.227 70.09L184.241 70.2462L183.254 70.4025L183.098 69.4161ZM180.023 43.6148L181.009 43.4586L181.995 43.3024L182.152 44.2887L181.165 44.445L181.321 45.4313L180.335 45.5875L180.179 44.6012L180.023 43.6148ZM181.585 53.4783L182.571 53.3221L182.727 54.3084L181.741 54.4647L181.585 53.4783ZM184.397 71.2326L185.383 71.0764L186.37 70.9202L186.526 71.9065L185.539 72.0627L184.553 72.2189L184.397 71.2326ZM181.321 45.4313L182.308 45.2751L182.464 46.2614L182.62 47.2478L181.634 47.404L181.478 46.4177L181.321 45.4313ZM182.415 52.3357L183.401 52.1795L183.245 51.1932L184.231 51.037L184.075 50.0506L185.062 49.8944L184.905 48.908L185.892 48.7518L186.048 49.7382L187.034 49.5819L186.878 48.5956L187.864 48.4394L188.021 49.4257L189.007 49.2695L189.163 50.2558L188.177 50.4121L187.19 50.5683L186.204 50.7245L185.218 50.8807L185.374 51.8671L186.36 51.7109L187.347 51.5546L188.333 51.3984L188.489 52.3848L187.503 52.541L187.659 53.5273L186.673 53.6836L186.517 52.6972L185.53 52.8534L185.686 53.8398L184.7 53.996L184.544 53.0097L183.558 53.1659L182.571 53.3221L182.415 52.3357ZM182.727 54.3084L183.714 54.1522L183.87 55.1386L182.884 55.2948L182.727 54.3084ZM181.683 41.3297L182.669 41.1735L182.513 40.1871L183.499 40.0309L183.656 41.0172L184.642 40.861L185.628 40.7048L186.615 40.5486L186.771 41.5349L185.784 41.6912L185.941 42.6775L186.097 43.6638L185.111 43.8201L184.124 43.9763L183.138 44.1325L182.982 43.1462L183.968 42.9899L184.954 42.8337L184.798 41.8474L183.812 42.0036L182.825 42.1598L182.982 43.1462L181.995 43.3024L181.839 42.316L181.683 41.3297ZM182.152 44.2887L183.138 44.1325L183.294 45.1189L182.308 45.2751L182.152 44.2887ZM184.182 57.1113L185.169 56.955L185.325 57.9414L185.481 58.9277L184.495 59.084L184.339 58.0976L184.182 57.1113ZM185.588 65.9884L186.575 65.8322L186.731 66.8185L185.745 66.9748L185.588 65.9884ZM185.901 67.9611L186.887 67.8049L186.731 66.8185L187.717 66.6623L187.561 65.676L188.547 65.5197L188.704 66.5061L189.69 66.3499L189.846 67.3362L190.833 67.18L190.989 68.1663L190.002 68.3226L190.159 69.3089L190.315 70.2953L189.329 70.4515L189.172 69.4651L189.016 68.4788L188.03 68.635L187.043 68.7912L187.2 69.7776L186.213 69.9338L186.057 68.9475L185.901 67.9611ZM183.294 45.1189L184.28 44.9626L184.437 45.949L183.45 46.1052L183.294 45.1189ZM186.106 62.8731L187.092 62.7169L187.249 63.7033L188.235 63.547L189.221 63.3908L189.065 62.4045L188.909 61.4181L189.895 61.2619L190.882 61.1057L191.038 62.092L190.051 62.2483L190.208 63.2346L190.364 64.2209L190.52 65.2073L189.534 65.3635L188.547 65.5197L188.391 64.5334L187.405 64.6896L186.419 64.8458L186.262 63.8595L186.106 62.8731ZM184.437 45.949L185.423 45.7928L185.267 44.8064L186.253 44.6502L186.409 45.6365L186.566 46.6229L187.552 46.4667L188.538 46.3105L188.694 47.2968L187.708 47.453L186.722 47.6092L186.878 48.5956L185.892 48.7518L185.735 47.7655L185.579 46.7791L184.593 46.9353L184.437 45.949ZM188.342 70.6077L189.329 70.4515L189.485 71.4378L188.498 71.5941L188.342 70.6077ZM186.097 43.6638L187.083 43.5076L187.239 44.494L186.253 44.6502L186.097 43.6638ZM190.315 70.2953L191.301 70.139L191.145 69.1527L190.989 68.1663L191.975 68.0101L191.819 67.0238L192.805 66.8675L192.962 67.8539L193.118 68.8402L193.274 69.8266L192.288 69.9828L192.444 70.9692L191.457 71.1254L190.471 71.2816L190.315 70.2953ZM186.302 38.5759L187.288 38.4197L188.275 38.2634L189.261 38.1072L190.248 37.951L190.404 38.9373L190.56 39.9237L189.574 40.0799L189.417 39.0936L188.431 39.2498L187.445 39.406L187.601 40.3924L186.615 40.5486L186.458 39.5622L186.302 38.5759ZM186.927 42.5213L187.913 42.3651L187.757 41.3787L187.601 40.3924L188.587 40.2361L188.744 41.2225L189.73 41.0663L190.716 40.91L190.872 41.8964L191.029 42.8827L190.042 43.039L189.886 42.0526L188.9 42.2088L189.056 43.1952L190.042 43.039L190.199 44.0253L190.355 45.0117L189.368 45.1679L189.212 44.1815L188.226 44.3378L188.07 43.3514L187.083 43.5076L186.927 42.5213ZM187.239 44.494L188.226 44.3378L188.382 45.3241L187.396 45.4803L187.239 44.494ZM190.52 65.2073L191.506 65.0511L191.663 66.0374L191.819 67.0238L190.833 67.18L190.676 66.1936L190.52 65.2073ZM188.382 45.3241L189.368 45.1679L189.525 46.1542L188.538 46.3105L188.382 45.3241ZM188.851 48.2831L189.837 48.1269L189.681 47.1406L189.525 46.1542L190.511 45.998L190.667 46.9844L190.823 47.9707L191.81 47.8145L191.654 46.8281L191.497 45.8418L191.341 44.8554L191.185 43.8691L191.029 42.8827L192.015 42.7265L192.171 43.7129L192.327 44.6992L193.314 44.543L193.158 43.5566L193.001 42.5703L192.015 42.7265L191.859 41.7402L191.703 40.7538L192.689 40.5976L193.675 40.4414L193.831 41.4277L194.818 41.2715L194.974 42.2578L195.96 42.1016L196.117 43.088L196.273 44.0743L196.429 45.0607L195.443 45.2169L195.599 46.2032L196.585 46.047L196.742 47.0334L195.755 47.1896L194.769 47.3458L194.925 48.3322L195.911 48.1759L196.898 48.0197L196.742 47.0334L197.728 46.8771L197.884 47.8635L198.87 47.7073L199.027 48.6936L200.013 48.5374L200.169 49.5237L200.325 50.5101L200.482 51.4964L200.638 52.4828L199.652 52.639L199.495 51.6527L199.339 50.6663L198.353 50.8225L198.509 51.8089L198.665 52.7952L199.652 52.639L199.808 53.6254L198.821 53.7816L197.835 53.9378L197.679 52.9515L197.523 51.9651L197.366 50.9788L197.21 49.9924L196.224 50.1486L196.068 49.1623L195.081 49.3185L194.095 49.4747L194.251 50.4611L193.265 50.6173L192.278 50.7735L191.292 50.9297L191.136 49.9434L190.98 48.9571L189.993 49.1133L189.007 49.2695L188.851 48.2831ZM189.163 50.2558L190.15 50.0996L190.306 51.086L191.292 50.9297L191.448 51.9161L190.462 52.0723L189.476 52.2285L189.319 51.2422L189.163 50.2558ZM189.632 53.2149L190.618 53.0587L190.774 54.045L191.761 53.8888L191.605 52.9024L192.591 52.7462L192.747 53.7326L193.733 53.5763L193.577 52.59L193.421 51.6037L194.407 51.4474L194.564 52.4338L195.55 52.2776L196.536 52.1213L196.692 53.1077L196.849 54.094L195.862 54.2503L194.876 54.4065L195.032 55.3928L194.046 55.549L193.89 54.5627L192.903 54.7189L191.917 54.8751L190.931 55.0314L191.087 56.0177L190.1 56.1739L189.944 55.1876L189.788 54.2012L189.632 53.2149ZM190.257 57.1603L191.243 57.0041L191.399 57.9904L192.386 57.8342L192.229 56.8478L191.243 57.0041L191.087 56.0177L192.073 55.8615L193.06 55.7053L193.216 56.6916L193.372 57.678L194.358 57.5217L194.515 58.5081L195.501 58.3519L195.657 59.3382L196.643 59.182L196.8 60.1683L196.956 61.1547L195.97 61.3109L194.983 61.4671L194.827 60.4808L194.671 59.4944L193.684 59.6507L193.528 58.6643L192.542 58.8205L191.556 58.9768L191.712 59.9631L190.725 60.1193L190.569 59.133L190.413 58.1466L190.257 57.1603ZM191.194 63.0784L192.18 62.9222L192.337 63.9085L193.323 63.7523L193.167 62.7659L194.153 62.6097L194.309 63.5961L194.466 64.5824L193.479 64.7386L193.635 65.725L192.649 65.8812L192.493 64.8949L191.506 65.0511L191.35 64.0647L191.194 63.0784ZM191.712 59.9631L192.698 59.8069L192.854 60.7932L193.011 61.7796L192.024 61.9358L191.868 60.9495L191.712 59.9631ZM193.274 69.8266L194.26 69.6704L194.104 68.684L193.948 67.6977L193.792 66.7113L194.778 66.5551L194.934 67.5415L195.09 68.5278L195.247 69.5142L196.233 69.3579L196.077 68.3716L195.921 67.3852L195.764 66.3989L196.751 66.2427L196.907 67.229L197.063 68.2154L197.219 69.2017L197.376 70.1881L196.389 70.3443L195.403 70.5005L194.417 70.6567L193.43 70.8129L193.274 69.8266ZM190.56 39.9237L191.546 39.7675L191.703 40.7538L190.716 40.91L190.56 39.9237ZM192.484 45.6856L192.64 46.6719L193.626 46.5157L194.613 46.3595L194.456 45.3731L193.47 45.5293L192.484 45.6856ZM192.796 47.6583L192.952 48.6446L193.939 48.4884L193.782 47.502L192.796 47.6583ZM193.997 61.6234L194.983 61.4671L195.139 62.4535L194.153 62.6097L193.997 61.6234ZM191.234 37.7948L192.22 37.6385L193.207 37.4823L194.193 37.3261L195.179 37.1699L195.336 38.1562L194.349 38.3125L194.505 39.2988L195.492 39.1426L195.648 40.1289L195.804 41.1153L194.818 41.2715L194.662 40.2852L193.675 40.4414L193.519 39.455L192.533 39.6112L192.376 38.6249L191.39 38.7811L191.234 37.7948ZM194.202 56.5354L195.188 56.3792L195.032 55.3928L196.019 55.2366L196.175 56.223L196.331 57.2093L195.345 57.3655L194.358 57.5217L194.202 56.5354ZM195.139 62.4535L196.126 62.2973L196.282 63.2836L197.268 63.1274L197.425 64.1137L196.438 64.27L196.594 65.2563L195.608 65.4125L195.452 64.4262L195.296 63.4398L195.139 62.4535ZM194.144 43.4004L194.3 44.3868L195.286 44.2305L195.13 43.2442L194.144 43.4004ZM194.251 50.4611L195.237 50.3049L195.394 51.2912L194.407 51.4474L194.251 50.4611ZM196.594 65.2563L197.581 65.1001L197.737 66.0864L196.751 66.2427L196.594 65.2563ZM197.112 62.141L198.098 61.9848L197.942 60.9985L198.929 60.8422L198.772 59.8559L199.759 59.6997L199.915 60.686L200.901 60.5298L201.888 60.3736L202.874 60.2174L203.86 60.0611L204.017 61.0475L203.03 61.2037L203.186 62.1901L204.173 62.0338L204.329 63.0202L203.343 63.1764L203.499 64.1628L203.655 65.1491L203.811 66.1355L202.825 66.2917L202.669 65.3053L201.682 65.4615L200.696 65.6178L199.71 65.774L198.723 65.9302L198.567 64.9439L198.411 63.9575L198.255 62.9712L197.268 63.1274L197.112 62.141ZM197.893 67.0728L198.88 66.9166L199.866 66.7603L200.852 66.6041L201.009 67.5905L200.022 67.7467L200.178 68.733L200.335 69.7194L199.348 69.8756L198.362 70.0318L198.206 69.0455L199.192 68.8893L199.036 67.9029L198.049 68.0591L197.893 67.0728ZM197.63 59.0258L198.616 58.8696L198.772 59.8559L197.786 60.0121L197.63 59.0258ZM199.085 61.8286L199.241 62.8149L199.397 63.8013L199.554 64.7876L200.54 64.6314L201.526 64.4752L202.513 64.319L202.356 63.3326L202.2 62.3463L202.044 61.3599L201.058 61.5162L200.071 61.6724L199.085 61.8286ZM196.429 45.0607L197.415 44.9044L197.572 45.8908L196.585 46.047L196.429 45.0607ZM197.991 54.9242L198.978 54.7679L199.134 55.7543L198.148 55.9105L197.991 54.9242ZM198.304 56.8969L199.29 56.7406L199.134 55.7543L200.12 55.5981L201.107 55.4418L201.263 56.4282L200.276 56.5844L200.433 57.5708L201.419 57.4145L201.575 58.4009L200.589 58.5571L200.745 59.5435L199.759 59.6997L199.603 58.7133L199.446 57.727L198.46 57.8832L198.304 56.8969ZM197.572 45.8908L198.558 45.7346L198.714 46.7209L197.728 46.8771L197.572 45.8908ZM200.227 62.6587L201.214 62.5025L201.37 63.4889L200.384 63.6451L200.227 62.6587ZM201.009 67.5905L201.995 67.4342L201.839 66.4479L202.825 66.2917L202.981 67.278L203.137 68.2644L203.294 69.2507L202.307 69.4069L201.321 69.5632L201.165 68.5768L201.009 67.5905ZM199.701 46.5647L200.687 46.4085L200.843 47.3948L199.857 47.5511L199.701 46.5647ZM200.638 52.4828L201.624 52.3266L201.78 53.3129L200.794 53.4691L200.638 52.4828ZM201.575 58.4009L202.562 58.2447L202.405 57.2583L202.249 56.272L203.235 56.1157L203.392 57.1021L204.378 56.9459L205.364 56.7896L205.521 57.776L206.507 57.6198L206.663 58.6061L206.819 59.5925L206.976 60.5788L207.132 61.5652L207.288 62.5515L207.444 63.5379L206.458 63.6941L206.302 62.7077L205.315 62.864L205.159 61.8776L204.173 62.0338L204.017 61.0475L205.003 60.8913L205.989 60.735L205.833 59.7487L205.677 58.7623L204.69 58.9186L203.704 59.0748L202.718 59.231L201.731 59.3872L201.575 58.4009ZM200.374 44.4358L201.361 44.2796L201.517 45.2659L200.531 45.4221L200.374 44.4358ZM200.999 48.3812L201.986 48.225L202.972 48.0687L203.128 49.0551L204.115 48.8989L203.958 47.9125L202.972 48.0687L202.816 47.0824L202.66 46.096L201.673 46.2523L201.517 45.2659L202.503 45.1097L203.49 44.9535L203.334 43.9671L204.32 43.8109L204.476 44.7972L204.632 45.7836L204.789 46.7699L204.945 47.7563L205.101 48.7426L205.257 49.729L205.413 50.7153L205.57 51.7017L205.726 52.688L204.74 52.8443L204.583 51.8579L203.597 52.0141L203.441 51.0278L202.454 51.184L202.298 50.1977L202.142 49.2113L201.156 49.3675L200.999 48.3812ZM201.78 53.3129L202.767 53.1567L202.611 52.1703L203.597 52.0141L203.753 53.0005L204.74 52.8443L204.896 53.8306L205.882 53.6744L206.038 54.6607L205.052 54.817L204.066 54.9732L203.079 55.1294L202.923 54.143L201.937 54.2993L201.78 53.3129ZM204.485 64.0065L205.472 63.8503L206.458 63.6941L206.614 64.6804L207.601 64.5242L207.757 65.5106L206.77 65.6668L205.784 65.823L205.628 64.8367L204.641 64.9929L204.485 64.0065ZM205.208 55.8033L206.195 55.6471L206.351 56.6334L205.364 56.7896L205.208 55.8033Z" fill="black"/>
<path d="M204.292 68.1077C204.493 68.0723 204.494 67.869 204.476 67.7516C204.448 67.5778 204.35 67.5312 204.241 67.5373C204.117 67.6172 204.036 67.7327 204.048 67.8892C204.05 67.9149 204.055 67.949 204.063 67.9884C204.086 68.0934 204.171 68.1291 204.292 68.1077ZM205.373 68.1836C205.229 68.2064 205.063 68.1417 205.03 67.9769C204.893 68.1765 204.653 68.2992 204.33 68.3504C204.005 68.402 203.833 68.2014 203.806 68.0285C203.723 67.4505 203.675 67.2365 203.666 67.1926C203.665 67.1887 203.664 67.1861 203.664 67.1848L203.664 67.1833C203.659 67.1615 203.653 67.1289 203.632 67.13C203.619 67.1306 203.611 67.1359 203.599 67.1568C203.581 67.19 203.538 67.2089 203.508 67.1974C203.472 67.1835 203.459 67.1422 203.47 67.1006C203.5 66.9894 203.567 66.9316 203.668 66.9171C203.842 66.8921 203.91 66.9976 203.932 67.1393C203.932 67.1393 203.961 67.3441 203.979 67.459C204.032 67.3992 204.114 67.3312 204.265 67.3073C204.579 67.2576 204.84 67.6147 204.694 68.019C204.937 67.8563 204.959 67.6391 204.936 67.4305L204.924 67.3608C204.912 67.2824 204.952 67.208 205.03 67.1956C205.109 67.1831 205.173 67.2457 205.182 67.321C205.212 67.5745 205.235 67.7409 205.249 67.8287C205.257 67.8795 205.297 67.9529 205.379 67.9399C205.539 67.9145 205.572 67.7803 205.538 67.4825C205.521 67.3721 205.507 67.2798 205.507 67.2798C205.434 67.2913 205.392 67.2588 205.385 67.211C205.377 67.1632 205.408 67.113 205.47 67.1031C205.47 67.1031 205.444 66.9369 205.433 66.8681C205.421 66.7897 205.471 66.7151 205.55 66.7026C205.629 66.6902 205.701 66.7453 205.714 66.8236C205.718 66.8496 205.722 66.8801 205.726 66.9138C205.731 66.9568 205.737 67.0051 205.746 67.0559L205.757 67.054C205.778 67.0506 205.827 67.0428 205.891 67.0319C205.967 67.0188 206.005 67.0567 206.013 67.1102C206.022 67.1637 205.987 67.2076 205.933 67.2163C205.883 67.2244 205.773 67.2412 205.773 67.2412C205.793 67.4005 205.819 67.5923 205.843 67.7452C205.852 67.8004 205.9 67.8574 205.992 67.8428C206.178 67.8134 206.221 67.6373 206.185 67.3217C206.15 67.1036 206.127 66.9776 206.11 66.8827C206.098 66.8161 206.089 66.7648 206.08 66.7077C206.067 66.6294 206.121 66.549 206.2 66.5365C206.279 66.524 206.347 66.5777 206.359 66.6561C206.369 66.7165 206.378 66.7875 206.39 66.8842C206.41 67.0479 206.439 67.2855 206.497 67.6705C206.504 67.7218 206.535 67.7539 206.601 67.7434C206.779 67.7153 206.797 67.5156 206.771 67.245C206.769 67.2321 206.767 67.2194 206.765 67.207C206.761 67.1816 206.757 67.157 206.754 67.133C206.741 67.0546 206.783 66.9829 206.862 66.9705C206.941 66.958 206.997 67.0157 207.01 67.094C207.019 67.1499 207.025 67.2024 207.032 67.2566C207.038 67.3044 207.044 67.3535 207.052 67.4074C207.072 67.546 207.139 67.6603 207.254 67.6418C207.364 67.6239 207.478 67.5582 207.444 67.3207C207.434 67.2547 207.425 67.2043 207.416 67.1534C207.409 67.1157 207.403 67.0776 207.396 67.0329C207.383 66.9545 207.428 66.8809 207.506 66.8684C207.585 66.856 207.65 66.9123 207.662 66.9907C207.67 67.0376 207.675 67.0845 207.682 67.1365C207.689 67.2012 207.698 67.2738 207.713 67.3638C207.713 67.3638 207.76 67.6928 207.783 67.7637C207.817 67.7459 207.863 67.7024 207.905 67.6081C207.93 67.5512 207.992 67.5301 208.035 67.5467C208.094 67.5696 208.102 67.6315 208.089 67.6796C208.055 67.8039 207.998 67.8856 207.836 67.9715C207.868 68.1682 207.9 68.4607 207.545 68.5708C207.24 68.6651 207.071 68.5067 207.046 68.3531C207.007 68.1104 207.238 68.0013 207.574 67.8576L207.544 67.7391C207.544 67.7391 207.482 67.8537 207.284 67.8801C207.131 67.9004 207.014 67.845 206.935 67.7534C206.88 67.8856 206.775 67.9621 206.601 67.9895C206.487 68.0076 206.369 67.9645 206.301 67.8857C206.237 67.9933 206.134 68.0622 205.985 68.0858C205.856 68.1064 205.753 68.0767 205.684 68.0159C205.623 68.1104 205.522 68.16 205.373 68.1836ZM207.628 68.0477C207.457 68.1139 207.244 68.2049 207.264 68.3135C207.282 68.4153 207.391 68.4172 207.476 68.3851C207.653 68.3183 207.657 68.205 207.628 68.0477ZM205.133 66.916C205.121 66.8369 205.046 66.7831 204.967 66.7957C204.888 66.8082 204.833 66.8824 204.846 66.9615C204.858 67.0406 204.933 67.0944 205.012 67.0819C205.092 67.0693 205.146 66.9951 205.133 66.916Z" fill="black"/>
<path d="M170.521 41.0754L171.507 40.9192L172.493 40.763L173.48 40.6068L174.466 40.4506L175.452 40.2943L176.439 40.1381L177.425 39.9819L177.581 40.9682L177.737 41.9546L177.894 42.9409L178.05 43.9273L178.206 44.9136L178.362 45.9L178.519 46.8863L177.532 47.0425L176.546 47.1988L175.56 47.355L174.573 47.5112L173.587 47.6674L172.6 47.8237L171.614 47.9799L171.458 46.9935L171.302 46.0072L171.145 45.0208L170.989 44.0345L170.833 43.0481L170.677 42.0618L170.521 41.0754ZM171.663 41.9056L171.819 42.8919L171.976 43.8783L172.132 44.8646L172.288 45.851L172.444 46.8373L173.431 46.6811L174.417 46.5249L175.403 46.3686L176.39 46.2124L177.376 46.0562L177.22 45.0699L177.064 44.0835L176.907 43.0972L176.751 42.1108L176.595 41.1245L175.609 41.2807L174.622 41.4369L173.636 41.5931L172.649 41.7493L171.663 41.9056Z" fill="black"/>
<path d="M172.81 42.739L173.796 42.5828L174.782 42.4266L175.769 42.2703L175.925 43.2567L176.081 44.243L176.237 45.2294L175.251 45.3856L174.265 45.5418L173.278 45.6981L173.122 44.7117L172.966 43.7254L172.81 42.739Z" fill="black"/>
<path d="M196.164 37.0142L197.151 36.8579L198.137 36.7017L199.123 36.5455L200.11 36.3893L201.096 36.233L202.082 36.0768L203.069 35.9206L203.225 36.907L203.381 37.8933L203.537 38.8797L203.694 39.866L203.85 40.8523L204.006 41.8387L204.162 42.825L203.176 42.9813L202.189 43.1375L201.203 43.2937L200.217 43.4499L199.23 43.6062L198.244 43.7624L197.258 43.9186L197.102 42.9323L196.945 41.9459L196.789 40.9596L196.633 39.9732L196.477 38.9869L196.32 38.0005L196.164 37.0142ZM197.307 37.8443L197.463 38.8306L197.619 39.817L197.775 40.8033L197.932 41.7897L198.088 42.776L199.074 42.6198L200.061 42.4636L201.047 42.3074L202.033 42.1511L203.02 41.9949L202.863 41.0086L202.707 40.0222L202.551 39.0359L202.395 38.0495L202.239 37.0632L201.252 37.2194L200.266 37.3756L199.279 37.5318L198.293 37.6881L197.307 37.8443Z" fill="black"/>
<path d="M198.453 38.676L199.44 38.5198L200.426 38.3636L201.412 38.2074L201.569 39.1937L201.725 40.1801L201.881 41.1664L200.895 41.3226L199.908 41.4788L198.922 41.6351L198.766 40.6487L198.61 39.6624L198.453 38.676Z" fill="black"/>
<path d="M174.582 66.7209L175.569 66.5647L176.555 66.4085L177.541 66.2523L178.528 66.0961L179.514 65.9398L180.5 65.7836L181.487 65.6274L181.643 66.6137L181.799 67.6001L181.955 68.5864L182.112 69.5728L182.268 70.5591L182.424 71.5455L182.58 72.5318L181.594 72.6881L180.608 72.8443L179.621 73.0005L178.635 73.1567L177.648 73.3129L176.662 73.4692L175.676 73.6254L175.52 72.639L175.363 71.6527L175.207 70.6663L175.051 69.68L174.895 68.6936L174.738 67.7073L174.582 66.7209ZM175.725 67.5511L175.881 68.5374L176.037 69.5238L176.193 70.5101L176.35 71.4965L176.506 72.4828L177.492 72.3266L178.479 72.1704L179.465 72.0142L180.451 71.8579L181.438 71.7017L181.281 70.7154L181.125 69.729L180.969 68.7427L180.813 67.7563L180.657 66.77L179.67 66.9262L178.684 67.0824L177.697 67.2386L176.711 67.3949L175.725 67.5511Z" fill="black"/>
<path d="M176.871 68.3821L177.857 68.2259L178.844 68.0696L179.83 67.9134L179.986 68.8998L180.142 69.8861L180.299 70.8725L179.312 71.0287L178.326 71.1849L177.34 71.3411L177.183 70.3548L177.027 69.3684L176.871 68.3821Z" fill="black"/>
</g>
</g>
<rect x="131.131" y="42.7004" width="23.0687" height="4.61373" transform="rotate(-9 131.131 42.7004)" fill="#D9D9D9"/>
<rect x="132.214" y="49.5359" width="23.0687" height="0.768956" transform="rotate(-9 132.214 49.5359)" fill="#D9D9D9"/>
<rect x="132.695" y="52.5737" width="23.0687" height="4.61373" transform="rotate(-9 132.695 52.5737)" fill="#D9D9D9"/>
<rect x="133.777" y="59.4092" width="23.0687" height="0.768956" transform="rotate(-9 133.777 59.4092)" fill="#D9D9D9"/>
<rect x="134.259" y="62.447" width="23.0687" height="3.07582" transform="rotate(-9 134.259 62.447)" fill="#D9D9D9"/>
<rect x="135.101" y="67.7637" width="23.0687" height="3.07582" transform="rotate(-9 135.101 67.7637)" fill="#D9D9D9"/>
<rect x="135.943" y="73.0801" width="23.0687" height="4.61373" transform="rotate(-9 135.943 73.0801)" fill="#D9D9D9"/>
<rect x="137.025" y="79.9153" width="23.0687" height="2.30687" transform="rotate(-9 137.025 79.9153)" fill="#D9D9D9"/>
</g>
<rect x="21.9609" y="51.4275" width="193.777" height="58.4406" transform="rotate(-9 21.9609 51.4275)" stroke="#C2C2C2" stroke-width="0.768956" stroke-dasharray="3.08 3.08"/>
</g>
<defs>
<filter id="filter0_d_1_5641" x="0.84375" y="-0.00170898" width="266.767" height="154.265" filterUnits="userSpaceOnUse" color-interpolation-filters="sRGB">
<feFlood flood-opacity="0" result="BackgroundImageFix"/>
<feColorMatrix in="SourceAlpha" type="matrix" values="0 0 0 0 0 0 0 0 0 0 0 0 0 0 0 0 0 0 127 0" result="hardAlpha"/>
<feOffset dx="24" dy="24"/>
<feComposite in2="hardAlpha" operator="out"/>
<feColorMatrix type="matrix" values="0 0 0 0 0 0 0 0 0 0 0 0 0 0 0 0 0 0 1 0"/>
<feBlend mode="normal" in2="BackgroundImageFix" result="effect1_dropShadow_1_5641"/>
<feBlend mode="normal" in="SourceGraphic" in2="effect1_dropShadow_1_5641" result="shape"/>
</filter>
<clipPath id="clip0_1_5641">
<rect x="21.9609" y="51.4275" width="193.777" height="58.4406" transform="rotate(-9 21.9609 51.4275)" fill="white"/>
</clipPath>
<clipPath id="clip1_1_5641">
<rect x="164.868" y="36.9675" width="42.2926" height="42.2926" rx="2.19702" transform="rotate(-9 164.868 36.9675)" fill="white"/>
</clipPath>
<clipPath id="clip2_1_5641">
<rect width="32.9552" height="32.9552" fill="white" transform="translate(170.521 41.0759) rotate(-9)"/>
</clipPath>
</defs>
</svg>
