<svg width="149" height="155" viewBox="0 0 149 155" fill="none" xmlns="http://www.w3.org/2000/svg">
<g filter="url(#filter0_d_201_681)">
<mask id="path-1-inside-1_201_681" fill="white">
<path d="M105.125 19.6057C105.923 24.639 110.65 28.0732 115.683 27.2762C120.559 26.5038 123.935 22.0435 123.416 17.1893L123.353 16.7187L228.163 0.118488L229.607 9.23242C227.09 9.63102 225.372 11.9941 225.771 14.5107C226.157 16.9489 228.388 18.6371 230.815 18.3777L231.05 18.3464L232.253 25.9411C229.736 26.3397 228.019 28.7028 228.417 31.2195C228.803 33.6576 231.034 35.3458 233.461 35.0864L233.696 35.0551L234.899 42.6499C232.383 43.0484 230.665 45.4116 231.064 47.9282C231.45 50.3663 233.68 52.0545 236.108 51.7951L236.343 51.7638L237.546 59.3586C235.029 59.7572 233.312 62.1203 233.71 64.6369C234.096 67.075 236.327 68.7632 238.754 68.5038L238.989 68.4725L240.192 76.0673C237.676 76.4659 235.958 78.829 236.356 81.3456C236.743 83.7837 238.973 85.472 241.4 85.2126L241.636 85.1812L243.079 94.2952L138.269 110.895C137.472 105.862 132.745 102.428 127.712 103.225C122.679 104.022 119.244 108.749 120.042 113.782L15.2328 130.382L13.7893 121.269C16.3059 120.87 18.0225 118.506 17.6239 115.989C17.2376 113.552 15.008 111.864 12.5811 112.123L12.3458 112.155L11.1429 104.56C13.6595 104.161 15.3761 101.797 14.9775 99.2807C14.5912 96.8429 12.3616 95.1553 9.93466 95.4146L9.69936 95.4459L8.49646 87.8511C11.0131 87.4524 12.7297 85.0886 12.3311 82.572C11.9448 80.1341 9.71518 78.4466 7.28826 78.7058L7.05296 78.7372L5.85006 71.1424C8.36667 70.7437 10.0833 68.3799 9.68472 65.8633C9.29843 63.4254 7.06879 61.7379 4.64186 61.9971L4.40656 62.0285L3.20366 54.4337C5.72027 54.035 7.43691 51.6712 7.03832 49.1546C6.65204 46.7167 4.4224 45.0292 1.99546 45.2884L1.76016 45.3197L0.31665 36.2058L105.125 19.6057Z"/>
</mask>
<path d="M105.125 19.6057C105.923 24.639 110.65 28.0732 115.683 27.2762C120.559 26.5038 123.935 22.0435 123.416 17.1893L123.353 16.7187L228.163 0.118488L229.607 9.23242C227.09 9.63102 225.372 11.9941 225.771 14.5107C226.157 16.9489 228.388 18.6371 230.815 18.3777L231.05 18.3464L232.253 25.9411C229.736 26.3397 228.019 28.7028 228.417 31.2195C228.803 33.6576 231.034 35.3458 233.461 35.0864L233.696 35.0551L234.899 42.6499C232.383 43.0484 230.665 45.4116 231.064 47.9282C231.45 50.3663 233.68 52.0545 236.108 51.7951L236.343 51.7638L237.546 59.3586C235.029 59.7572 233.312 62.1203 233.71 64.6369C234.096 67.075 236.327 68.7632 238.754 68.5038L238.989 68.4725L240.192 76.0673C237.676 76.4659 235.958 78.829 236.356 81.3456C236.743 83.7837 238.973 85.472 241.4 85.2126L241.636 85.1812L243.079 94.2952L138.269 110.895C137.472 105.862 132.745 102.428 127.712 103.225C122.679 104.022 119.244 108.749 120.042 113.782L15.2328 130.382L13.7893 121.269C16.3059 120.87 18.0225 118.506 17.6239 115.989C17.2376 113.552 15.008 111.864 12.5811 112.123L12.3458 112.155L11.1429 104.56C13.6595 104.161 15.3761 101.797 14.9775 99.2807C14.5912 96.8429 12.3616 95.1553 9.93466 95.4146L9.69936 95.4459L8.49646 87.8511C11.0131 87.4524 12.7297 85.0886 12.3311 82.572C11.9448 80.1341 9.71518 78.4466 7.28826 78.7058L7.05296 78.7372L5.85006 71.1424C8.36667 70.7437 10.0833 68.3799 9.68472 65.8633C9.29843 63.4254 7.06879 61.7379 4.64186 61.9971L4.40656 62.0285L3.20366 54.4337C5.72027 54.035 7.43691 51.6712 7.03832 49.1546C6.65204 46.7167 4.4224 45.0292 1.99546 45.2884L1.76016 45.3197L0.31665 36.2058L105.125 19.6057Z" fill="#063550"/>
<path d="M105.125 19.6057L105.885 19.4854L105.765 18.726L105.005 18.8462L105.125 19.6057ZM115.683 27.2762L115.803 28.0357L115.803 28.0356L115.683 27.2762ZM123.416 17.1893L124.181 17.1076L124.18 17.0977L124.178 17.0878L123.416 17.1893ZM123.353 16.7187L123.233 15.9592L122.492 16.0766L122.591 16.8202L123.353 16.7187ZM228.163 0.118488L228.923 -0.00180268L228.802 -0.761291L228.043 -0.641L228.163 0.118488ZM229.607 9.23242L229.727 9.99191L230.486 9.87162L230.366 9.11213L229.607 9.23242ZM225.771 14.5107L225.011 14.631L225.011 14.631L225.771 14.5107ZM230.815 18.3777L230.896 19.1423L230.906 19.1412L230.916 19.1399L230.815 18.3777ZM231.05 18.3464L231.81 18.2261L231.692 17.4851L230.949 17.5841L231.05 18.3464ZM232.253 25.9411L232.373 26.7006L233.133 26.5803L233.012 25.8208L232.253 25.9411ZM228.417 31.2195L227.658 31.3397L227.658 31.3397L228.417 31.2195ZM233.461 35.0864L233.543 35.851L233.553 35.8499L233.563 35.8486L233.461 35.0864ZM233.696 35.0551L234.456 34.9348L234.339 34.1938L233.595 34.2928L233.696 35.0551ZM234.899 42.6499L235.02 43.4093L235.779 43.2891L235.659 42.5296L234.899 42.6499ZM231.064 47.9282L230.304 48.0484L230.304 48.0485L231.064 47.9282ZM236.108 51.7951L236.189 52.5597L236.199 52.5587L236.209 52.5573L236.108 51.7951ZM236.343 51.7638L237.102 51.6435L236.985 50.9025L236.241 51.0016L236.343 51.7638ZM237.546 59.3586L237.666 60.1181L238.426 59.9978L238.305 59.2383L237.546 59.3586ZM233.71 64.6369L232.95 64.7571L232.95 64.7572L233.71 64.6369ZM238.754 68.5038L238.836 69.2684L238.846 69.2674L238.855 69.2661L238.754 68.5038ZM238.989 68.4725L239.749 68.3522L239.631 67.6112L238.888 67.7103L238.989 68.4725ZM240.192 76.0673L240.312 76.8268L241.072 76.7065L240.952 75.947L240.192 76.0673ZM236.356 81.3456L235.597 81.4658L235.597 81.4659L236.356 81.3456ZM241.4 85.2126L241.482 85.9772L241.492 85.9761L241.502 85.9748L241.4 85.2126ZM241.636 85.1812L242.395 85.0609L242.278 84.32L241.534 84.419L241.636 85.1812ZM243.079 94.2952L243.199 95.0546L243.959 94.9343L243.839 94.1749L243.079 94.2952ZM138.269 110.895L137.51 111.016L137.63 111.775L138.39 111.655L138.269 110.895ZM127.712 103.225L127.592 102.465L127.592 102.465L127.712 103.225ZM120.042 113.782L120.162 114.542L120.921 114.422L120.801 113.662L120.042 113.782ZM15.2328 130.382L14.4733 130.503L14.5936 131.262L15.3531 131.142L15.2328 130.382ZM13.7893 121.269L13.6689 120.509L12.9095 120.629L13.0298 121.389L13.7893 121.269ZM17.6239 115.989L18.3834 115.869L18.3834 115.869L17.6239 115.989ZM12.5811 112.123L12.4994 111.359L12.4895 111.36L12.4796 111.361L12.5811 112.123ZM12.3458 112.155L11.5863 112.275L11.7036 113.016L12.4473 112.917L12.3458 112.155ZM11.1429 104.56L11.0225 103.8L10.2631 103.921L10.3834 104.68L11.1429 104.56ZM14.9775 99.2807L15.737 99.1604L15.737 99.1603L14.9775 99.2807ZM9.93466 95.4146L9.85299 94.65L9.84305 94.651L9.83315 94.6523L9.93466 95.4146ZM9.69936 95.4459L8.93987 95.5662L9.05723 96.3072L9.80086 96.2081L9.69936 95.4459ZM8.49646 87.8511L8.37614 87.0916L7.61669 87.2119L7.73697 87.9714L8.49646 87.8511ZM12.3311 82.572L13.0906 82.4517L13.0906 82.4516L12.3311 82.572ZM7.28826 78.7058L7.20658 77.9412L7.19665 77.9423L7.18675 77.9436L7.28826 78.7058ZM7.05296 78.7372L6.29347 78.8575L6.41083 79.5984L7.15446 79.4994L7.05296 78.7372ZM5.85006 71.1424L5.72973 70.3829L4.97029 70.5032L5.09057 71.2627L5.85006 71.1424ZM9.68472 65.8633L10.4442 65.743L10.4442 65.7429L9.68472 65.8633ZM4.64186 61.9971L4.56018 61.2325L4.55025 61.2336L4.54035 61.2349L4.64186 61.9971ZM4.40656 62.0285L3.64707 62.1488L3.76443 62.8897L4.50806 62.7907L4.40656 62.0285ZM3.20366 54.4337L3.08333 53.6742L2.32389 53.7945L2.44417 54.554L3.20366 54.4337ZM7.03832 49.1546L7.7978 49.0343L7.7978 49.0342L7.03832 49.1546ZM1.99546 45.2884L1.91378 44.5238L1.90385 44.5249L1.89395 44.5262L1.99546 45.2884ZM1.76016 45.3197L1.00067 45.44L1.11802 46.181L1.86166 46.082L1.76016 45.3197ZM0.31665 36.2058L0.196359 35.4463L-0.563129 35.5666L-0.442838 36.3261L0.31665 36.2058ZM105.125 19.6057L104.366 19.726C105.23 25.1788 110.35 28.8991 115.803 28.0357L115.683 27.2762L115.563 26.5167C110.949 27.2473 106.616 24.0992 105.885 19.4854L105.125 19.6057ZM115.683 27.2762L115.803 28.0356C121.086 27.1989 124.743 22.367 124.181 17.1076L123.416 17.1893L122.651 17.271C123.127 21.7201 120.032 25.8087 115.563 26.5167L115.683 27.2762ZM123.416 17.1893L124.178 17.0878L124.116 16.6172L123.353 16.7187L122.591 16.8202L122.654 17.2908L123.416 17.1893ZM123.353 16.7187L123.474 17.4782L228.283 0.877977L228.163 0.118488L228.043 -0.641L123.233 15.9592L123.353 16.7187ZM228.163 0.118488L227.404 0.23878L228.847 9.35271L229.607 9.23242L230.366 9.11213L228.923 -0.00180268L228.163 0.118488ZM229.607 9.23242L229.486 8.47293C226.55 8.93794 224.546 11.6948 225.011 14.631L225.771 14.5107L226.53 14.3905C226.198 12.2935 227.63 10.3241 229.727 9.99191L229.607 9.23242ZM225.771 14.5107L225.011 14.631C225.462 17.4757 228.064 19.445 230.896 19.1423L230.815 18.3777L230.733 17.6131C228.711 17.8292 226.852 16.422 226.53 14.3904L225.771 14.5107ZM230.815 18.3777L230.916 19.1399L231.152 19.1086L231.05 18.3464L230.949 17.5841L230.713 17.6155L230.815 18.3777ZM231.05 18.3464L230.291 18.4666L231.493 26.0614L232.253 25.9411L233.012 25.8208L231.81 18.2261L231.05 18.3464ZM232.253 25.9411L232.133 25.1816C229.197 25.6467 227.193 28.4035 227.658 31.3397L228.417 31.2195L229.177 31.0992C228.845 29.0022 230.276 27.0328 232.373 26.7006L232.253 25.9411ZM228.417 31.2195L227.658 31.3397C228.108 34.1844 230.711 36.1537 233.543 35.851L233.461 35.0864L233.379 34.3218C231.357 34.5379 229.498 33.1308 229.177 31.0992L228.417 31.2195ZM233.461 35.0864L233.563 35.8486L233.798 35.8173L233.696 35.0551L233.595 34.2928L233.36 34.3242L233.461 35.0864ZM233.696 35.0551L232.937 35.1754L234.14 42.7701L234.899 42.6499L235.659 42.5296L234.456 34.9348L233.696 35.0551ZM234.899 42.6499L234.779 41.8904C231.843 42.3554 229.839 45.1122 230.304 48.0484L231.064 47.9282L231.823 47.8079C231.491 45.7109 232.922 43.7415 235.02 43.4093L234.899 42.6499ZM231.064 47.9282L230.304 48.0485C230.755 50.8931 233.357 52.8624 236.189 52.5597L236.108 51.7951L236.026 51.0305C234.004 51.2466 232.145 49.8395 231.823 47.8079L231.064 47.9282ZM236.108 51.7951L236.209 52.5573L236.444 52.526L236.343 51.7638L236.241 51.0016L236.006 51.0329L236.108 51.7951ZM236.343 51.7638L235.583 51.8841L236.786 59.4789L237.546 59.3586L238.305 59.2383L237.102 51.6435L236.343 51.7638ZM237.546 59.3586L237.425 58.5991C234.49 59.0641 232.486 61.821 232.95 64.7571L233.71 64.6369L234.469 64.5167C234.138 62.4196 235.569 60.4502 237.666 60.1181L237.546 59.3586ZM233.71 64.6369L232.95 64.7572C233.401 67.6019 236.003 69.5712 238.836 69.2684L238.754 68.5038L238.672 67.7392C236.65 67.9553 234.791 66.5482 234.469 64.5166L233.71 64.6369ZM238.754 68.5038L238.855 69.2661L239.091 69.2347L238.989 68.4725L238.888 67.7103L238.652 67.7416L238.754 68.5038ZM238.989 68.4725L238.23 68.5928L239.433 76.1876L240.192 76.0673L240.952 75.947L239.749 68.3522L238.989 68.4725ZM240.192 76.0673L240.072 75.3078C237.136 75.7728 235.132 78.5297 235.597 81.4658L236.356 81.3456L237.116 81.2254C236.784 79.1284 238.215 77.159 240.312 76.8268L240.192 76.0673ZM236.356 81.3456L235.597 81.4659C236.047 84.3106 238.65 86.2799 241.482 85.9772L241.4 85.2126L241.319 84.448C239.297 84.6641 237.438 83.2569 237.116 81.2253L236.356 81.3456ZM241.4 85.2126L241.502 85.9748L241.737 85.9434L241.636 85.1812L241.534 84.419L241.299 84.4503L241.4 85.2126ZM241.636 85.1812L240.876 85.3015L242.32 94.4154L243.079 94.2952L243.839 94.1749L242.395 85.0609L241.636 85.1812ZM243.079 94.2952L242.959 93.5357L138.149 110.136L138.269 110.895L138.39 111.655L243.199 95.0546L243.079 94.2952ZM138.269 110.895L139.029 110.775C138.165 105.322 133.045 101.602 127.592 102.465L127.712 103.225L127.832 103.984C132.446 103.254 136.779 106.402 137.51 111.016L138.269 110.895ZM127.712 103.225L127.592 102.465C122.139 103.329 118.418 108.45 119.282 113.903L120.042 113.782L120.801 113.662C120.07 109.048 123.218 104.715 127.832 103.984L127.712 103.225ZM120.042 113.782L119.921 113.023L15.1125 129.623L15.2328 130.382L15.3531 131.142L120.162 114.542L120.042 113.782ZM15.2328 130.382L15.9923 130.262L14.5488 121.148L13.7893 121.269L13.0298 121.389L14.4733 130.503L15.2328 130.382ZM13.7893 121.269L13.9096 122.028C16.8458 121.563 18.8484 118.805 18.3834 115.869L17.6239 115.989L16.8644 116.11C17.1966 118.207 15.7659 120.177 13.6689 120.509L13.7893 121.269ZM17.6239 115.989L18.3834 115.869C17.9326 113.025 15.3315 111.056 12.4994 111.359L12.5811 112.123L12.6627 112.888C14.6844 112.672 16.5425 114.078 16.8644 116.11L17.6239 115.989ZM12.5811 112.123L12.4796 111.361L12.2443 111.392L12.3458 112.155L12.4473 112.917L12.6826 112.885L12.5811 112.123ZM12.3458 112.155L13.1052 112.034L11.9024 104.44L11.1429 104.56L10.3834 104.68L11.5863 112.275L12.3458 112.155ZM11.1429 104.56L11.2632 105.319C14.1994 104.854 16.202 102.096 15.737 99.1604L14.9775 99.2807L14.218 99.401C14.5502 101.498 13.1195 103.468 11.0225 103.8L11.1429 104.56ZM14.9775 99.2807L15.737 99.1603C15.2863 96.316 12.6851 94.3474 9.85299 94.65L9.93466 95.4146L10.0163 96.1792C12.038 95.9632 13.8961 97.3697 14.218 99.4011L14.9775 99.2807ZM9.93466 95.4146L9.83315 94.6523L9.59785 94.6837L9.69936 95.4459L9.80086 96.2081L10.0362 96.1768L9.93466 95.4146ZM9.69936 95.4459L10.4588 95.3256L9.25595 87.7308L8.49646 87.8511L7.73697 87.9714L8.93987 95.5662L9.69936 95.4459ZM8.49646 87.8511L8.61679 88.6106C11.553 88.1454 13.5556 85.3876 13.0906 82.4517L12.3311 82.572L11.5716 82.6923C11.9038 84.7896 10.4731 86.7594 8.37614 87.0916L8.49646 87.8511ZM12.3311 82.572L13.0906 82.4516C12.6399 79.6073 10.0387 77.6387 7.20658 77.9412L7.28826 78.7058L7.36993 79.4704C9.39166 79.2545 11.2497 80.661 11.5716 82.6923L12.3311 82.572ZM7.28826 78.7058L7.18675 77.9436L6.95145 77.9749L7.05296 78.7372L7.15446 79.4994L7.38976 79.4681L7.28826 78.7058ZM7.05296 78.7372L7.81245 78.6169L6.60955 71.0221L5.85006 71.1424L5.09057 71.2627L6.29347 78.8575L7.05296 78.7372ZM5.85006 71.1424L5.97039 71.9019C8.90659 71.4367 10.9092 68.6789 10.4442 65.743L9.68472 65.8633L8.92523 65.9836C9.25742 68.0809 7.82674 70.0507 5.72973 70.3829L5.85006 71.1424ZM9.68472 65.8633L10.4442 65.7429C9.9935 62.8986 7.3923 60.93 4.56018 61.2325L4.64186 61.9971L4.72353 62.7617C6.74527 62.5458 8.60335 63.9522 8.92524 65.9836L9.68472 65.8633ZM4.64186 61.9971L4.54035 61.2349L4.30505 61.2662L4.40656 62.0285L4.50806 62.7907L4.74336 62.7594L4.64186 61.9971ZM4.40656 62.0285L5.16604 61.9082L3.96315 54.3134L3.20366 54.4337L2.44417 54.554L3.64707 62.1488L4.40656 62.0285ZM3.20366 54.4337L3.32399 55.1932C6.26019 54.728 8.26281 51.9702 7.7978 49.0343L7.03832 49.1546L6.27883 49.2748C6.61102 51.3722 5.18034 53.342 3.08333 53.6742L3.20366 54.4337ZM7.03832 49.1546L7.7978 49.0342C7.34711 46.1898 4.7459 44.2213 1.91378 44.5238L1.99546 45.2884L2.07713 46.053C4.09889 45.8371 5.95697 47.2435 6.27883 49.2749L7.03832 49.1546ZM1.99546 45.2884L1.89395 44.5262L1.65865 44.5575L1.76016 45.3197L1.86166 46.082L2.09696 46.0506L1.99546 45.2884ZM1.76016 45.3197L2.51964 45.1995L1.07614 36.0855L0.31665 36.2058L-0.442838 36.3261L1.00067 45.44L1.76016 45.3197ZM0.31665 36.2058L0.436942 36.9653L105.246 20.3652L105.125 19.6057L105.005 18.8462L0.196359 35.4463L0.31665 36.2058Z" fill="black" mask="url(#path-1-inside-1_201_681)"/>
<g clip-path="url(#clip0_201_681)">
<rect x="21.4297" y="51.5476" width="193.777" height="58.4406" transform="rotate(-9 21.4297 51.5476)" fill="#063550"/>
<line x1="116.662" y1="31.0141" x2="128.692" y2="106.963" stroke="#C2C2C2" stroke-width="0.768956" stroke-dasharray="3.08 3.08"/>
<path d="M33.8242 64.401C33.3593 64.4746 32.9431 64.4406 32.5757 64.2991C32.2121 64.1525 31.9104 63.9098 31.6706 63.571C31.4302 63.2278 31.2686 62.795 31.1858 62.2725C31.1038 61.7544 31.1222 61.2976 31.2411 60.902C31.3593 60.502 31.5687 60.1761 31.8692 59.9243C32.1742 59.6717 32.5635 59.5079 33.0373 59.4329C33.5067 59.3585 33.925 59.3921 34.2924 59.5337C34.6598 59.6752 34.9637 59.9175 35.2042 60.2607C35.4439 60.5995 35.6052 61.0301 35.6879 61.5526C35.77 62.0707 35.7519 62.5297 35.6337 62.9297C35.5155 63.3297 35.3039 63.656 34.9989 63.9085C34.694 64.1611 34.3024 64.3252 33.8242 64.401ZM33.7106 63.6836C34.1578 63.6128 34.4822 63.4116 34.6839 63.0801C34.8893 62.7435 34.9454 62.2807 34.8521 61.6918C34.7637 61.1339 34.5755 60.7189 34.2873 60.4468C33.9984 60.1703 33.6192 60.0692 33.1499 60.1435C32.7115 60.213 32.3896 60.416 32.1842 60.7527C31.9781 61.0849 31.9217 61.5454 32.015 62.1343C32.1026 62.6878 32.2909 63.1028 32.5798 63.3793C32.8687 63.6558 33.2456 63.7573 33.7106 63.6836ZM36.7189 63.8744L37.8848 58.7264L38.8014 58.5812L41.5011 63.117L40.6642 63.2495L40.0197 62.1465L37.808 62.4968L37.5359 63.745L36.7189 63.8744ZM38.3267 60.1406L37.9674 61.7839L39.6544 61.5167L38.8116 60.0638C38.7003 59.8772 38.5826 59.6644 38.4585 59.4253C38.4181 59.6859 38.3741 59.9243 38.3267 60.1406ZM42.0299 61.2562L41.5376 58.1478L42.328 58.0227L42.8119 61.0779C42.8764 61.4853 43.0378 61.7593 43.2961 61.8999C43.5537 62.0361 43.8729 62.0741 44.2537 62.0138C44.692 61.9443 44.9925 61.7924 45.1551 61.5578C45.3221 61.3226 45.3779 61.0301 45.3225 60.6802L44.8386 57.625L45.6223 57.5009L46.1146 60.6093C46.1721 60.9723 46.1448 61.3012 46.0326 61.5959C45.9197 61.8861 45.7224 62.1307 45.4407 62.3296C45.1635 62.5278 44.8012 62.6624 44.354 62.7332C43.7208 62.8335 43.1981 62.7574 42.786 62.505C42.3731 62.2481 42.1211 61.8318 42.0299 61.2562ZM51.8602 61.5443C51.3864 61.6194 50.9674 61.5813 50.603 61.4303C50.2387 61.2792 49.9385 61.0317 49.7024 60.6878C49.4664 60.3439 49.3081 59.9174 49.2274 59.4082C49.1447 58.8857 49.1672 58.4259 49.2949 58.029C49.422 57.6276 49.6384 57.3028 49.944 57.0547C50.2541 56.8059 50.6394 56.645 51.0999 56.572C51.4984 56.5089 51.8572 56.5247 52.1763 56.6194C52.4992 56.709 52.7688 56.8637 52.9852 57.0836C53.206 57.3028 53.3648 57.575 53.4617 57.9001L52.6826 58.1392C52.5645 57.7948 52.3741 57.5526 52.1113 57.4127C51.853 57.272 51.5512 57.2291 51.2058 57.2838C50.7276 57.3595 50.3942 57.5757 50.2056 57.9324C50.0207 58.2839 49.9714 58.732 50.0577 59.2767C50.1516 59.87 50.3505 60.2947 50.6543 60.5507C50.9574 60.8022 51.326 60.8936 51.7599 60.8249C52.1451 60.7639 52.4333 60.6207 52.6246 60.3952C52.8195 60.1646 52.9199 59.8809 52.9255 59.5441L53.7296 59.5053C53.7428 59.8754 53.672 60.2021 53.5171 60.4853C53.3667 60.7679 53.1493 60.9997 52.8648 61.181C52.5803 61.3622 52.2454 61.4833 51.8602 61.5443ZM54.6643 61.0321L55.8302 55.8841L56.7468 55.7389L59.4464 60.2747L58.6096 60.4073L57.9651 59.3042L55.7534 59.6545L55.4813 60.9027L54.6643 61.0321ZM56.2721 57.2984L55.9128 58.9416L57.5998 58.6744L56.7569 57.2216C56.6457 57.0349 56.528 56.8221 56.4039 56.583C56.3635 56.8436 56.3195 57.0821 56.2721 57.2984ZM60.4911 60.1092L59.7242 55.2674L60.9928 55.0664L62.8519 58.5507L63.5565 54.6604L64.7985 54.4637L65.5654 59.3056L64.7883 59.4286L64.163 55.2656L63.3537 59.6559L62.6829 59.7621L60.5908 55.8382L61.2482 59.9893L60.4911 60.1092ZM67.1243 59.0586L66.3575 54.2168L68.5758 53.8654C69.1072 53.7812 69.5404 53.8511 69.8754 54.0749C70.2148 54.298 70.4203 54.6354 70.4919 55.087C70.5641 55.5431 70.471 55.93 70.2127 56.2478C69.9581 56.5605 69.5652 56.7589 69.0338 56.843L67.6191 57.0671L67.9147 58.9335L67.1243 59.0586ZM68.7129 54.5586L67.2583 54.789L67.5108 56.383L68.9653 56.1526C69.2133 56.1133 69.4046 56.0172 69.5392 55.8643C69.6732 55.7069 69.7187 55.4932 69.676 55.2231C69.6339 54.9574 69.527 54.77 69.3555 54.6611C69.1839 54.5521 68.9697 54.5179 68.7129 54.5586ZM71.9316 56.5202L71.4393 53.4119L72.2297 53.2867L72.7136 56.3419C72.7781 56.7493 72.9395 57.0233 73.1978 57.1639C73.4554 57.3002 73.7746 57.3381 74.1554 57.2778C74.5938 57.2084 74.8942 57.0564 75.0568 56.8219C75.2238 56.5866 75.2796 56.2941 75.2242 55.9443L74.7403 52.889L75.524 52.7649L76.0163 55.8733C76.0738 56.2364 76.0465 56.5652 75.9343 56.8599C75.8214 57.1501 75.6241 57.3947 75.3424 57.5936C75.0652 57.7919 74.7029 57.9264 74.2557 57.9972C73.6225 58.0975 73.0999 58.0214 72.6877 57.769C72.2748 57.5121 72.0228 57.0959 71.9316 56.5202ZM79.8866 53.5854C79.827 53.2953 79.6923 53.0897 79.4825 52.9686C79.2727 52.8475 79.015 52.8111 78.7095 52.8595C78.4173 52.9058 78.2031 53.001 78.0671 53.1451C77.9355 53.2885 77.8851 53.4576 77.9159 53.6524C77.9426 53.8207 78.0145 53.9455 78.1318 54.0268C78.2491 54.108 78.4078 54.1646 78.608 54.1964C78.8083 54.2283 79.041 54.2504 79.3062 54.2629C79.5847 54.2732 79.8494 54.3107 80.1002 54.3754C80.351 54.4401 80.562 54.5542 80.7331 54.7177C80.9087 54.8805 81.0214 55.1191 81.0712 55.4335C81.1399 55.8675 81.0315 56.2432 80.7459 56.5608C80.4648 56.8776 80.0275 57.0831 79.4342 57.177C79.0445 57.2388 78.6975 57.2256 78.3931 57.1377C78.0931 57.049 77.847 56.8996 77.6548 56.6895C77.4664 56.4742 77.3451 56.2098 77.2909 55.8961L78.0456 55.6744C78.1128 56.0133 78.2598 56.2533 78.4864 56.3944C78.7174 56.5348 79.0034 56.578 79.3444 56.524C79.6499 56.4756 79.8865 56.3792 80.0543 56.2346C80.222 56.09 80.2848 55.8849 80.2427 55.6192C80.2133 55.4332 80.1399 55.2996 80.0227 55.2183C79.9098 55.1363 79.7676 55.084 79.5961 55.0612C79.4238 55.034 79.2368 55.0137 79.0349 55.0003C78.6644 54.9818 78.3419 54.9376 78.0675 54.8676C77.7969 54.7924 77.5808 54.6746 77.4192 54.5141C77.2576 54.3536 77.154 54.1294 77.1085 53.8416C77.0664 53.5759 77.1001 53.33 77.2095 53.1039C77.3182 52.8734 77.4919 52.6802 77.7305 52.5244C77.969 52.3686 78.261 52.2633 78.6064 52.2086C79.1687 52.1196 79.6281 52.183 79.9846 52.3988C80.3404 52.6103 80.564 52.9335 80.6556 53.3683L79.8866 53.5854ZM82.3054 57.6346L82.2412 57.2295L82.3674 57.2095C82.487 57.1905 82.5643 57.1488 82.5995 57.0842C82.6354 57.0241 82.6459 56.9475 82.6312 56.8545L82.5923 56.6088L82.2137 56.6687L82.0843 55.8518L82.8547 55.7298L83.0346 56.8655C83.069 57.0825 83.0323 57.2517 82.9244 57.3732C82.8173 57.4991 82.6618 57.5782 82.4582 57.6104L82.3054 57.6346ZM87.1423 55.8881L86.3519 56.0133L85.585 51.1714L86.3754 51.0462L87.1423 55.8881ZM88.6978 55.6417L87.9309 50.7998L88.7213 50.6747L89.3798 54.8324L91.9967 54.418L92.1051 55.1021L88.6978 55.6417ZM93.0998 54.9445L92.333 50.1026L95.8 49.5535L95.9073 50.231L93.2306 50.6549L93.4463 52.0165L95.844 51.6367L95.9481 52.2943L93.5504 52.674L93.7819 54.1352L96.6578 53.6797L96.7661 54.3638L93.0998 54.9445ZM97.2202 52.44L97.1108 51.7493L99.4487 51.379L99.5581 52.0697L97.2202 52.44ZM101.832 53.5616L101.041 53.6867L100.274 48.8448L101.065 48.7197L101.832 53.5616ZM103.387 53.3152L102.62 48.4733L106.041 47.9315L106.149 48.6156L103.519 49.0322L103.742 50.4403L106.053 50.0742L106.161 50.7517L103.849 51.1177L104.178 53.19L103.387 53.3152ZM107.932 52.5954L107.165 47.7535L110.632 47.2043L110.739 47.8818L108.063 48.3058L108.278 49.6673L110.676 49.2876L110.78 49.9451L108.382 50.3249L108.614 51.7861L111.49 51.3306L111.598 52.0147L107.932 52.5954Z" fill="white"/>
<path d="M35.4842 83.429L33.8865 73.3417L38.3421 72.636C39.3291 72.4797 40.1282 72.599 40.7392 72.9939C41.3502 73.3889 41.7149 73.96 41.8332 74.7072C41.9165 75.233 41.8442 75.7314 41.6162 76.2025C41.3867 76.6644 40.9553 77.0448 40.3218 77.3437C41.1166 77.4069 41.7152 77.6336 42.1174 78.0238C42.5196 78.414 42.7653 78.8905 42.8544 79.4532C42.9874 80.2926 42.7889 81.0096 42.2589 81.6042C41.7368 82.1881 40.9545 82.5626 39.9121 82.7277L35.4842 83.429ZM38.478 73.4939L34.9218 74.0572L35.5004 77.7102L39.0566 77.1469C39.7669 77.0344 40.2756 76.7836 40.5828 76.3946C40.8977 75.9948 41.0128 75.5274 40.9281 74.9924C40.836 74.4112 40.5661 73.9906 40.1183 73.7306C39.6705 73.4705 39.1237 73.3917 38.478 73.4939ZM39.2318 77.9844L35.6341 78.5542L36.2455 82.4148L39.8432 81.845C40.4151 81.7544 40.8579 81.5944 41.1714 81.3651C41.4942 81.1343 41.7068 80.8643 41.8091 80.5549C41.9191 80.2349 41.9457 79.895 41.8887 79.5352C41.7893 78.9079 41.5065 78.4657 41.0403 78.2086C40.5726 77.9423 39.9697 77.8675 39.2318 77.9844ZM49.2739 81.3868C48.296 81.5416 47.4315 81.4564 46.6802 81.1309C45.9289 80.8055 45.312 80.2838 44.8295 79.5659C44.3562 78.8465 44.0377 77.9703 43.8741 76.9371C43.6988 75.8301 43.7396 74.8639 43.9965 74.0383C44.2613 73.2021 44.7035 72.5315 45.3233 72.0268C45.9509 71.5113 46.7213 71.1812 47.6346 71.0366C48.6124 70.8817 49.4769 70.967 50.2282 71.2924C50.9781 71.6087 51.5942 72.1257 52.0767 72.8436C52.5592 73.5615 52.8823 74.4371 53.0459 75.4702C53.2213 76.5772 53.1766 77.5488 52.9119 78.3851C52.6549 79.2106 52.2127 79.8811 51.5851 80.3966C50.9667 80.9106 50.1963 81.2407 49.2739 81.3868ZM49.138 80.5289C50.3003 80.3448 51.1359 79.8294 51.6449 78.9829C52.163 78.1349 52.3133 77.0236 52.0956 75.6491C51.8764 74.2654 51.3894 73.2504 50.6345 72.604C49.8875 71.9469 48.9327 71.7104 47.7704 71.8945C46.6081 72.0786 45.7725 72.5939 45.2635 73.4405C44.7546 74.287 44.6097 75.4022 44.8289 76.7859C45.048 78.1696 45.5304 79.1854 46.2761 79.8332C47.0217 80.4811 47.9757 80.713 49.138 80.5289ZM59.8139 79.7174C58.836 79.8723 57.9715 79.787 57.2202 79.4615C56.4689 79.1361 55.852 78.6144 55.3695 77.8965C54.8962 77.1772 54.5778 76.3009 54.4141 75.2677C54.2388 74.1607 54.2796 73.1945 54.5366 72.3689C54.8013 71.5327 55.2435 70.8622 55.8633 70.3574C56.4909 69.8419 57.2613 69.5119 58.1746 69.3672C59.1524 69.2123 60.0169 69.2976 60.7682 69.6231C61.5181 69.9393 62.1343 70.4564 62.6168 71.1743C63.0992 71.8921 63.4223 72.7677 63.586 73.8009C63.7613 74.9078 63.7166 75.8794 63.4519 76.7157C63.1949 77.5412 62.7527 78.2118 62.1251 78.7272C61.5068 79.2412 60.7363 79.5713 59.8139 79.7174ZM59.678 78.8595C60.8403 78.6754 61.6759 78.1601 62.1849 77.3135C62.703 76.4655 62.8533 75.3542 62.6356 73.9798C62.4164 72.596 61.9294 71.581 61.1746 70.9346C60.4275 70.2775 59.4728 70.041 58.3104 70.2251C57.1481 70.4092 56.3125 70.9245 55.8036 71.7711C55.2946 72.6176 55.1497 73.7328 55.3689 75.1165C55.588 76.5002 56.0704 77.516 56.8161 78.1639C57.5617 78.8117 58.5157 79.0436 59.678 78.8595ZM70.3539 78.048C69.3761 78.2029 68.5115 78.1176 67.7602 77.7922C67.0089 77.4667 66.392 76.945 65.9095 76.2271C65.4362 75.5078 65.1178 74.6315 64.9541 73.5983C64.7788 72.4914 64.8196 71.5251 65.0766 70.6996C65.3413 69.8633 65.7835 69.1928 66.4033 68.688C67.0309 68.1725 67.8013 67.8425 68.7146 67.6978C69.9507 67.5021 70.9629 67.6538 71.7512 68.153C72.5472 68.6416 73.1111 69.3655 73.4427 70.3248L72.5608 70.578C72.2117 69.6877 71.7113 69.0955 71.0596 68.8016C70.4064 68.4984 69.6693 68.4119 68.8483 68.5419C67.6859 68.726 66.8503 69.2413 66.3414 70.0879C65.8324 70.9344 65.6875 72.0496 65.9067 73.4333C66.1259 74.817 66.609 75.8374 67.3561 76.4945C68.1032 77.1516 69.0579 77.388 70.2202 77.204C71.2349 77.0432 71.9633 76.6867 72.4054 76.1345C72.8552 75.5715 73.0918 74.8863 73.1152 74.0788L74.0322 74.047C74.0432 74.7734 73.8945 75.4163 73.5859 75.9758C73.2866 76.5339 72.8576 76.9895 72.2989 77.3428C71.7494 77.6946 71.1011 77.9297 70.3539 78.048ZM78.7793 76.5717L77.1816 66.4844L78.0811 66.342L78.7933 70.8391L85.2553 69.8156L84.543 65.3185L85.4286 65.1783L87.0263 75.2655L86.1407 75.4058L85.3846 70.632L78.9226 71.6555L79.6787 76.4293L78.7793 76.5717ZM88.2014 75.0794L90.7964 64.3281L91.9034 64.1527L97.6937 73.576L96.7528 73.725L95.1048 71.0215L89.8743 71.8499L89.1424 74.9304L88.2014 75.0794ZM91.1885 66.266L90.0698 71.0246L94.6499 70.2992L92.1017 66.1213C91.9987 65.9485 91.8911 65.7764 91.7788 65.6051C91.6758 65.4323 91.5713 65.2503 91.4654 65.059C91.4237 65.2736 91.376 65.4798 91.3222 65.6774C91.2776 65.8736 91.233 66.0698 91.1885 66.266ZM98.8729 73.3892L97.2752 63.3019L98.1746 63.1595L99.6408 72.4165L105.715 71.4544L105.847 72.2846L98.8729 73.3892ZM106.981 72.1051L105.383 62.0178L106.282 61.8753L107.749 71.1324L113.823 70.1703L113.955 71.0005L106.981 72.1051Z" fill="#C2C2C2"/>
<path d="M38.2134 97.2936L37.5717 93.2421L36.152 93.467L36.0416 92.7696L36.2076 92.7433C36.6282 92.6766 36.947 92.5042 37.1639 92.2258C37.3864 91.9466 37.4997 91.6053 37.5039 91.2018L38.2179 91.0887L39.1765 97.1411L38.2134 97.2936ZM43.2246 96.585C42.6878 96.67 42.2327 96.6088 41.8594 96.4012C41.4916 96.1928 41.1934 95.8684 40.9648 95.4281C40.7409 94.9813 40.5798 94.4479 40.4816 93.828C40.3668 93.1029 40.3647 92.499 40.4755 92.0162C40.5854 91.5279 40.7921 91.1491 41.0955 90.8797C41.3989 90.6104 41.7804 90.4394 42.2397 90.3666C42.7766 90.2816 43.2317 90.3428 43.605 90.5504C43.9783 90.7579 44.2765 91.0823 44.4996 91.5236C44.7282 91.9639 44.8916 92.4941 44.9898 93.114C45.1046 93.8391 45.1043 94.4462 44.9889 94.9354C44.879 95.4237 44.6723 95.8025 44.3689 96.0719C44.0655 96.3412 43.684 96.5122 43.2246 96.585ZM43.0892 95.7299C43.5486 95.6571 43.8408 95.4066 43.9659 94.9783C44.0956 94.5435 44.1048 93.9747 43.9935 93.2718C43.9023 92.6962 43.7755 92.2538 43.6131 91.9448C43.4562 91.6349 43.2732 91.4284 43.0639 91.3254C42.8538 91.2168 42.6243 91.1823 42.3752 91.2217C41.9158 91.2945 41.6236 91.545 41.4985 91.9733C41.3734 92.4017 41.3666 92.9673 41.4779 93.6702C41.5691 94.2458 41.6935 94.6914 41.8513 95.0068C42.0082 95.3167 42.1917 95.5259 42.4018 95.6345C42.6165 95.7367 42.8457 95.7684 43.0892 95.7299ZM46.3513 96.0047L47.8087 89.5697L48.9544 89.3882L52.329 95.0579L51.2829 95.2236L50.4773 93.8448L47.7126 94.2827L47.3725 95.8429L46.3513 96.0047ZM48.361 91.3375L47.9119 93.3916L50.0207 93.0576L48.9671 91.2415C48.828 91.0082 48.6809 90.7422 48.5258 90.4433C48.4752 90.7691 48.4203 91.0671 48.361 91.3375ZM53.6348 94.8511L52.6762 88.7987L54.2619 88.5476L56.5857 92.9029L57.4666 88.04L59.0191 87.7941L59.9777 93.8465L59.0063 94.0003L58.2247 88.7965L57.213 94.2844L56.3745 94.4172L53.7594 89.5123L54.5812 94.7012L53.6348 94.8511ZM61.5574 94.8218L61.4771 94.3154L61.6349 94.2904C61.7843 94.2667 61.881 94.2145 61.925 94.1338C61.9698 94.0586 61.983 93.9629 61.9646 93.8467L61.916 93.5395L61.4427 93.6144L61.281 92.5933L62.2441 92.4407L62.4689 93.8604C62.5119 94.1316 62.4659 94.3432 62.3311 94.495C62.1972 94.6524 62.0029 94.7512 61.7483 94.7916L61.5574 94.8218ZM68.6295 92.5613C67.9266 92.6726 67.3714 92.5705 66.964 92.2549C66.5621 91.9384 66.3133 91.4785 66.2178 90.8752L66.0679 89.9287L67.0559 89.7722L67.2097 90.7436C67.2755 91.1587 67.4207 91.4308 67.6453 91.5597C67.8747 91.6823 68.1554 91.7172 68.4875 91.6646C68.9081 91.598 69.1829 91.4524 69.3119 91.2277C69.4408 91.003 69.479 90.7246 69.4264 90.3925L68.7703 86.2497L69.7582 86.0932L70.4104 90.2111C70.5183 90.8919 70.4048 91.429 70.0699 91.8225C69.7406 92.2151 69.2605 92.4613 68.6295 92.5613ZM72.1868 89.6915L71.5714 85.806L72.5593 85.6496L73.1642 89.4686C73.2449 89.9778 73.4466 90.3203 73.7695 90.4961C74.0915 90.6664 74.4905 90.7138 74.9665 90.6385C75.5145 90.5517 75.89 90.3617 76.0932 90.0685C76.302 89.7745 76.3717 89.4088 76.3025 88.9716L75.6976 85.1525L76.6773 84.9973L77.2927 88.8828C77.3646 89.3367 77.3304 89.7477 77.1901 90.1161C77.049 90.4788 76.8024 90.7846 76.4503 91.0332C76.1037 91.281 75.6509 91.4492 75.0919 91.5377C74.3004 91.6631 73.6471 91.568 73.1319 91.2524C72.6158 90.9313 72.3007 90.411 72.1868 89.6915ZM79.5178 90.7516L78.5592 84.6993L79.8377 84.4968L83.614 88.6731L82.8764 84.0155L83.8477 83.8616L84.8063 89.914L83.644 90.0981L79.7427 85.831L80.4974 90.5965L79.5178 90.7516ZM86.7472 89.6066L85.7886 83.5542L90.1224 82.8678L90.2566 83.7147L86.9107 84.2446L87.1803 85.9466L90.1774 85.4719L90.3076 86.2938L87.3105 86.7685L87.5998 88.595L91.1947 88.0256L91.3301 88.8807L86.7472 89.6066ZM96.3657 88.0832L95.724 84.0317L94.3043 84.2565L94.1939 83.5591L94.3599 83.5328C94.7805 83.4662 95.0993 83.2937 95.3162 83.0154C95.5387 82.7362 95.652 82.3949 95.6562 81.9914L96.3702 81.8783L97.3288 87.9307L96.3657 88.0832ZM101.948 87.199L101.747 85.9287L98.725 86.4074L98.5988 85.6104L100.981 81.1479L101.961 80.9928L102.588 84.953L103.518 84.8057L103.648 85.6276L102.718 85.7749L102.92 87.0451L101.948 87.199ZM99.6243 85.4224L101.617 85.1068L101.191 82.4169L99.6243 85.4224ZM106.471 86.4827L105.648 81.2855L103.589 81.6116L103.453 80.7564L108.534 79.9517L108.67 80.8068L106.636 81.129L107.459 86.3262L106.471 86.4827ZM110.749 85.8051L109.791 79.7527L110.779 79.5962L111.18 82.1284L114.318 81.6314L113.917 79.0992L114.888 78.9453L115.847 84.9977L114.876 85.1515L114.452 82.4782L111.314 82.9752L111.737 85.6486L110.749 85.8051Z" fill="white"/>
<rect x="130.6" y="42.8206" width="23.0687" height="4.61373" transform="rotate(-9 130.6 42.8206)" fill="#D9D9D9"/>
<rect x="131.682" y="49.656" width="23.0687" height="0.768956" transform="rotate(-9 131.682 49.656)" fill="#D9D9D9"/>
<rect x="132.164" y="52.6938" width="23.0687" height="4.61373" transform="rotate(-9 132.164 52.6938)" fill="#D9D9D9"/>
<rect x="133.246" y="59.5293" width="23.0687" height="0.768956" transform="rotate(-9 133.246 59.5293)" fill="#D9D9D9"/>
<rect x="133.728" y="62.5671" width="23.0687" height="3.07582" transform="rotate(-9 133.728 62.5671)" fill="#D9D9D9"/>
<rect x="134.57" y="67.8838" width="23.0687" height="3.07582" transform="rotate(-9 134.57 67.8838)" fill="#D9D9D9"/>
<rect x="135.412" y="73.2002" width="23.0687" height="4.61373" transform="rotate(-9 135.412 73.2002)" fill="#D9D9D9"/>
<rect x="136.494" y="80.0354" width="23.0687" height="2.30687" transform="rotate(-9 136.494 80.0354)" fill="#D9D9D9"/>
</g>
<rect x="21.4297" y="51.5476" width="193.777" height="58.4406" transform="rotate(-9 21.4297 51.5476)" stroke="#C2C2C2" stroke-width="0.768956" stroke-dasharray="3.08 3.08"/>
</g>
<defs>
<filter id="filter0_d_201_681" x="0.3125" y="0.118408" width="266.767" height="154.265" filterUnits="userSpaceOnUse" color-interpolation-filters="sRGB">
<feFlood flood-opacity="0" result="BackgroundImageFix"/>
<feColorMatrix in="SourceAlpha" type="matrix" values="0 0 0 0 0 0 0 0 0 0 0 0 0 0 0 0 0 0 127 0" result="hardAlpha"/>
<feOffset dx="24" dy="24"/>
<feComposite in2="hardAlpha" operator="out"/>
<feColorMatrix type="matrix" values="0 0 0 0 0 0 0 0 0 0 0 0 0 0 0 0 0 0 1 0"/>
<feBlend mode="normal" in2="BackgroundImageFix" result="effect1_dropShadow_201_681"/>
<feBlend mode="normal" in="SourceGraphic" in2="effect1_dropShadow_201_681" result="shape"/>
</filter>
<clipPath id="clip0_201_681">
<rect x="21.4297" y="51.5476" width="193.777" height="58.4406" transform="rotate(-9 21.4297 51.5476)" fill="white"/>
</clipPath>
</defs>
</svg>
