<svg width="274" height="194" viewBox="0 0 274 194" fill="none" xmlns="http://www.w3.org/2000/svg">
<g filter="url(#filter0_d_1_5543)">
<mask id="path-1-inside-1_1_5543" fill="white">
<path d="M99.7704 43.31C101.513 48.0987 106.809 50.5678 111.597 48.825C116.237 47.1365 118.699 42.114 117.264 37.448L117.112 36.998L216.829 0.704082L219.985 9.37513C217.591 10.2466 216.356 12.894 217.227 15.2884C218.071 17.608 220.583 18.8396 222.916 18.1218L223.141 18.0462L225.771 25.2719C223.377 26.1434 222.142 28.7908 223.013 31.1851C223.857 33.5048 226.369 34.7364 228.702 34.0186L228.927 33.943L231.557 41.1687C229.163 42.0401 227.928 44.6876 228.799 47.0819C229.643 49.4016 232.155 50.6331 234.488 49.9154L234.713 49.8397L237.343 57.0655C234.949 57.9369 233.714 60.5844 234.585 62.9787C235.429 65.2983 237.941 66.5299 240.274 65.8122L240.499 65.7365L243.129 72.9622C240.735 73.8337 239.5 76.4811 240.371 78.8755C241.215 81.1951 243.727 82.4267 246.06 81.7089L246.285 81.6333L249.441 90.3043L149.724 126.598C147.981 121.809 142.686 119.34 137.897 121.083C133.109 122.826 130.639 128.121 132.382 132.91L32.6665 169.204L29.5105 160.533C31.9048 159.661 33.1389 157.013 32.2674 154.619C31.423 152.3 28.9123 151.068 26.5795 151.786L26.3545 151.862L23.7246 144.636C26.1188 143.764 27.3529 141.116 26.4814 138.722C25.6371 136.403 23.1264 135.172 20.7935 135.889L20.5685 135.965L17.9386 128.739C20.3329 127.868 21.567 125.22 20.6955 122.825C19.8511 120.506 17.3405 119.275 15.0076 119.992L14.7826 120.068L12.1526 112.842C14.5469 111.971 15.781 109.323 14.9095 106.929C14.0652 104.609 11.5545 103.378 9.22164 104.096L8.99664 104.171L6.3667 96.9456C8.76099 96.074 9.99507 93.4262 9.12359 91.0318C8.27924 88.7124 5.76858 87.4814 3.43569 88.1989L3.21069 88.2746L0.0546875 79.6035L99.7704 43.31Z"/>
</mask>
<path d="M99.7704 43.31C101.513 48.0987 106.809 50.5678 111.597 48.825C116.237 47.1365 118.699 42.114 117.264 37.448L117.112 36.998L216.829 0.704082L219.985 9.37513C217.591 10.2466 216.356 12.894 217.227 15.2884C218.071 17.608 220.583 18.8396 222.916 18.1218L223.141 18.0462L225.771 25.2719C223.377 26.1434 222.142 28.7908 223.013 31.1851C223.857 33.5048 226.369 34.7364 228.702 34.0186L228.927 33.943L231.557 41.1687C229.163 42.0401 227.928 44.6876 228.799 47.0819C229.643 49.4016 232.155 50.6331 234.488 49.9154L234.713 49.8397L237.343 57.0655C234.949 57.9369 233.714 60.5844 234.585 62.9787C235.429 65.2983 237.941 66.5299 240.274 65.8122L240.499 65.7365L243.129 72.9622C240.735 73.8337 239.5 76.4811 240.371 78.8755C241.215 81.1951 243.727 82.4267 246.06 81.7089L246.285 81.6333L249.441 90.3043L149.724 126.598C147.981 121.809 142.686 119.34 137.897 121.083C133.109 122.826 130.639 128.121 132.382 132.91L32.6665 169.204L29.5105 160.533C31.9048 159.661 33.1389 157.013 32.2674 154.619C31.423 152.3 28.9123 151.068 26.5795 151.786L26.3545 151.862L23.7246 144.636C26.1188 143.764 27.3529 141.116 26.4814 138.722C25.6371 136.403 23.1264 135.172 20.7935 135.889L20.5685 135.965L17.9386 128.739C20.3329 127.868 21.567 125.22 20.6955 122.825C19.8511 120.506 17.3405 119.275 15.0076 119.992L14.7826 120.068L12.1526 112.842C14.5469 111.971 15.781 109.323 14.9095 106.929C14.0652 104.609 11.5545 103.378 9.22164 104.096L8.99664 104.171L6.3667 96.9456C8.76099 96.074 9.99507 93.4262 9.12359 91.0318C8.27924 88.7124 5.76858 87.4814 3.43569 88.1989L3.21069 88.2746L0.0546875 79.6035L99.7704 43.31Z" fill="#410173"/>
<path d="M99.7704 43.31L100.493 43.047L100.23 42.3244L99.5074 42.5874L99.7704 43.31ZM111.597 48.825L111.86 49.5476L111.86 49.5476L111.597 48.825ZM117.264 37.448L117.999 37.2219L117.996 37.2123L117.993 37.2029L117.264 37.448ZM117.112 36.998L116.849 36.2754L116.145 36.532L116.384 37.243L117.112 36.998ZM216.829 0.704082L217.552 0.441085L217.289 -0.281497L216.566 -0.0184997L216.829 0.704082ZM219.985 9.37513L220.248 10.0977L220.971 9.83472L220.708 9.11214L219.985 9.37513ZM217.227 15.2884L216.504 15.5513L216.504 15.5514L217.227 15.2884ZM222.916 18.1218L223.142 18.8568L223.152 18.8539L223.161 18.8507L222.916 18.1218ZM223.141 18.0462L223.864 17.7832L223.607 17.0782L222.896 17.3173L223.141 18.0462ZM225.771 25.2719L226.034 25.9945L226.757 25.7315L226.494 25.0089L225.771 25.2719ZM223.013 31.1851L222.29 31.4481L222.29 31.4481L223.013 31.1851ZM228.702 34.0186L228.928 34.7536L228.938 34.7506L228.947 34.7475L228.702 34.0186ZM228.927 33.943L229.65 33.68L229.393 32.975L228.682 33.2141L228.927 33.943ZM231.557 41.1687L231.82 41.8913L232.543 41.6283L232.28 40.9057L231.557 41.1687ZM228.799 47.0819L228.076 47.3449L228.076 47.3449L228.799 47.0819ZM234.488 49.9154L234.714 50.6503L234.724 50.6474L234.733 50.6442L234.488 49.9154ZM234.713 49.8397L235.436 49.5767L235.179 48.8718L234.468 49.1109L234.713 49.8397ZM237.343 57.0655L237.606 57.788L238.329 57.525L238.066 56.8025L237.343 57.0655ZM234.585 62.9787L233.862 63.2416L233.862 63.2417L234.585 62.9787ZM240.274 65.8122L240.5 66.5471L240.51 66.5442L240.519 66.541L240.274 65.8122ZM240.499 65.7365L241.222 65.4735L240.965 64.7685L240.254 65.0076L240.499 65.7365ZM243.129 72.9622L243.392 73.6848L244.114 73.4218L243.851 72.6992L243.129 72.9622ZM240.371 78.8755L239.648 79.1384L239.648 79.1385L240.371 78.8755ZM246.06 81.7089L246.286 82.4439L246.296 82.441L246.305 82.4378L246.06 81.7089ZM246.285 81.6333L247.008 81.3703L246.751 80.6653L246.04 80.9044L246.285 81.6333ZM249.441 90.3043L249.704 91.0269L250.427 90.7639L250.164 90.0413L249.441 90.3043ZM149.724 126.598L149.002 126.861L149.265 127.584L149.987 127.321L149.724 126.598ZM137.897 121.083L137.634 120.361L137.634 120.361L137.897 121.083ZM132.382 132.91L132.645 133.633L133.368 133.37L133.105 132.647L132.382 132.91ZM32.6665 169.204L31.9439 169.467L32.2069 170.189L32.9295 169.926L32.6665 169.204ZM29.5105 160.533L29.2475 159.81L28.5249 160.073L28.7879 160.796L29.5105 160.533ZM32.2674 154.619L32.99 154.356L32.99 154.356L32.2674 154.619ZM26.5795 151.786L26.3534 151.051L26.3439 151.054L26.3344 151.057L26.5795 151.786ZM26.3545 151.862L25.6319 152.125L25.8885 152.83L26.5996 152.591L26.3545 151.862ZM23.7246 144.636L23.4615 143.913L22.739 144.176L23.002 144.899L23.7246 144.636ZM26.4814 138.722L27.204 138.459L27.204 138.459L26.4814 138.722ZM20.7935 135.889L20.5675 135.154L20.5579 135.157L20.5485 135.16L20.7935 135.889ZM20.5685 135.965L19.846 136.228L20.1025 136.933L20.8136 136.694L20.5685 135.965ZM17.9386 128.739L17.6756 128.017L16.953 128.28L17.216 129.002L17.9386 128.739ZM20.6955 122.825L21.4181 122.562L21.4181 122.562L20.6955 122.825ZM15.0076 119.992L14.7815 119.257L14.772 119.26L14.7625 119.264L15.0076 119.992ZM14.7826 120.068L14.06 120.331L14.3166 121.036L15.0277 120.797L14.7826 120.068ZM12.1526 112.842L11.8896 112.12L11.1671 112.383L11.4301 113.105L12.1526 112.842ZM14.9095 106.929L15.6321 106.666L15.6321 106.666L14.9095 106.929ZM9.22164 104.096L8.99558 103.361L8.98603 103.364L8.97656 103.367L9.22164 104.096ZM8.99664 104.171L8.27406 104.434L8.53065 105.139L9.24173 104.9L8.99664 104.171ZM6.3667 96.9456L6.10366 96.223L5.38113 96.4861L5.64411 97.2086L6.3667 96.9456ZM9.12359 91.0318L9.84617 90.7688L9.84616 90.7688L9.12359 91.0318ZM3.43569 88.1989L3.20962 87.4639L3.20008 87.4669L3.19061 87.4701L3.43569 88.1989ZM3.21069 88.2746L2.48811 88.5376L2.74469 89.2425L3.45577 89.0034L3.21069 88.2746ZM0.0546875 79.6035L-0.208311 78.8809L-0.930893 79.1439L-0.667894 79.8665L0.0546875 79.6035ZM99.7704 43.31L99.0478 43.573C100.936 48.7607 106.673 51.4356 111.86 49.5476L111.597 48.825L111.334 48.1024C106.945 49.7 102.091 47.4366 100.493 43.047L99.7704 43.31ZM111.597 48.825L111.86 49.5476C116.886 47.7183 119.554 42.2774 117.999 37.2219L117.264 37.448L116.529 37.674C117.844 41.9506 115.587 46.5547 111.334 48.1024L111.597 48.825ZM117.264 37.448L117.993 37.2029L117.841 36.7529L117.112 36.998L116.384 37.243L116.535 37.693L117.264 37.448ZM117.112 36.998L117.375 37.7205L217.092 1.42666L216.829 0.704082L216.566 -0.0184997L116.849 36.2754L117.112 36.998ZM216.829 0.704082L216.107 0.967079L219.263 9.63813L219.985 9.37513L220.708 9.11214L217.552 0.441085L216.829 0.704082ZM219.985 9.37513L219.722 8.65255C216.929 9.66921 215.488 12.7578 216.504 15.5513L217.227 15.2884L217.95 15.0254C217.224 13.0303 218.253 10.824 220.248 10.0977L219.985 9.37513ZM217.227 15.2884L216.504 15.5514C217.489 18.2578 220.42 19.6944 223.142 18.8568L222.916 18.1218L222.69 17.3869C220.746 17.9848 218.653 16.9582 217.95 15.0254L217.227 15.2884ZM222.916 18.1218L223.161 18.8507L223.386 18.775L223.141 18.0462L222.896 17.3173L222.671 17.393L222.916 18.1218ZM223.141 18.0462L222.419 18.3092L225.048 25.5349L225.771 25.2719L226.494 25.0089L223.864 17.7832L223.141 18.0462ZM225.771 25.2719L225.508 24.5493C222.715 25.566 221.274 28.6546 222.29 31.4481L223.013 31.1851L223.736 30.9222C223.009 28.927 224.039 26.7208 226.034 25.9945L225.771 25.2719ZM223.013 31.1851L222.29 31.4481C223.275 34.1546 226.206 35.5912 228.928 34.7536L228.702 34.0186L228.476 33.2837C226.532 33.8816 224.439 32.855 223.735 30.9221L223.013 31.1851ZM228.702 34.0186L228.947 34.7475L229.172 34.6718L228.927 33.943L228.682 33.2141L228.457 33.2898L228.702 34.0186ZM228.927 33.943L228.204 34.206L230.834 41.4317L231.557 41.1687L232.28 40.9057L229.65 33.68L228.927 33.943ZM231.557 41.1687L231.294 40.4461C228.501 41.4628 227.06 44.5513 228.076 47.3449L228.799 47.0819L229.521 46.819C228.795 44.8238 229.825 42.6175 231.82 41.8913L231.557 41.1687ZM228.799 47.0819L228.076 47.3449C229.061 50.0514 231.992 51.4879 234.714 50.6503L234.488 49.9154L234.262 49.1804C232.318 49.7784 230.225 48.7518 229.521 46.8189L228.799 47.0819ZM234.488 49.9154L234.733 50.6442L234.958 50.5686L234.713 49.8397L234.468 49.1109L234.243 49.1865L234.488 49.9154ZM234.713 49.8397L233.99 50.1027L236.62 57.3284L237.343 57.0655L238.066 56.8025L235.436 49.5767L234.713 49.8397ZM237.343 57.0655L237.08 56.3429C234.287 57.3595 232.846 60.4481 233.862 63.2416L234.585 62.9787L235.307 62.7157C234.581 60.7206 235.611 58.5143 237.606 57.788L237.343 57.0655ZM234.585 62.9787L233.862 63.2417C234.847 65.9481 237.778 67.3847 240.5 66.5471L240.274 65.8122L240.048 65.0772C238.104 65.6751 236.011 64.6486 235.307 62.7157L234.585 62.9787ZM240.274 65.8122L240.519 66.541L240.744 66.4654L240.499 65.7365L240.254 65.0076L240.029 65.0833L240.274 65.8122ZM240.499 65.7365L239.776 65.9995L242.406 73.2252L243.129 72.9622L243.851 72.6992L241.222 65.4735L240.499 65.7365ZM243.129 72.9622L242.866 72.2396C240.073 73.2563 238.632 76.3449 239.648 79.1384L240.371 78.8755L241.093 78.6125C240.367 76.6174 241.397 74.4111 243.392 73.6848L243.129 72.9622ZM240.371 78.8755L239.648 79.1385C240.633 81.8449 243.563 83.2815 246.286 82.4439L246.06 81.7089L245.834 80.974C243.89 81.5719 241.797 80.5453 241.093 78.6125L240.371 78.8755ZM246.06 81.7089L246.305 82.4378L246.53 82.3621L246.285 81.6333L246.04 80.9044L245.815 80.9801L246.06 81.7089ZM246.285 81.6333L245.562 81.8963L248.718 90.5673L249.441 90.3043L250.164 90.0413L247.008 81.3703L246.285 81.6333ZM249.441 90.3043L249.178 89.5817L149.461 125.876L149.724 126.598L149.987 127.321L249.704 91.0269L249.441 90.3043ZM149.724 126.598L150.447 126.335C148.559 121.147 142.822 118.472 137.634 120.361L137.897 121.083L138.16 121.806C142.55 120.208 147.404 122.471 149.002 126.861L149.724 126.598ZM137.897 121.083L137.634 120.361C132.447 122.249 129.771 127.985 131.66 133.173L132.382 132.91L133.105 132.647C131.507 128.258 133.771 123.404 138.16 121.806L137.897 121.083ZM132.382 132.91L132.119 132.188L32.4035 168.481L32.6665 169.204L32.9295 169.926L132.645 133.633L132.382 132.91ZM32.6665 169.204L33.3891 168.941L30.2331 160.27L29.5105 160.533L28.7879 160.796L31.9439 169.467L32.6665 169.204ZM29.5105 160.533L29.7735 161.255C32.567 160.238 34.0066 157.149 32.99 154.356L32.2674 154.619L31.5448 154.882C32.2711 156.877 31.2426 159.084 29.2475 159.81L29.5105 160.533ZM32.2674 154.619L32.99 154.356C32.0048 151.65 29.0758 150.214 26.3534 151.051L26.5795 151.786L26.8056 152.521C28.7489 151.923 30.8412 152.949 31.5448 154.882L32.2674 154.619ZM26.5795 151.786L26.3344 151.057L26.1094 151.133L26.3545 151.862L26.5996 152.591L26.8246 152.515L26.5795 151.786ZM26.3545 151.862L27.0771 151.599L24.4471 144.373L23.7246 144.636L23.002 144.899L25.6319 152.125L26.3545 151.862ZM23.7246 144.636L23.9876 145.359C26.7811 144.342 28.2207 141.252 27.204 138.459L26.4814 138.722L25.7589 138.985C26.4852 140.981 25.4566 143.187 23.4615 143.913L23.7246 144.636ZM26.4814 138.722L27.204 138.459C26.2188 135.753 23.2898 134.317 20.5675 135.154L20.7935 135.889L21.0196 136.624C22.963 136.026 25.0553 137.053 25.7589 138.985L26.4814 138.722ZM20.7935 135.889L20.5485 135.16L20.3235 135.236L20.5685 135.965L20.8136 136.694L21.0386 136.618L20.7935 135.889ZM20.5685 135.965L21.2911 135.702L18.6612 128.476L17.9386 128.739L17.216 129.002L19.846 136.228L20.5685 135.965ZM17.9386 128.739L18.2016 129.462C20.9951 128.445 22.4347 125.356 21.4181 122.562L20.6955 122.825L19.9729 123.088C20.6992 125.084 19.6707 127.29 17.6756 128.017L17.9386 128.739ZM20.6955 122.825L21.4181 122.562C20.4329 119.856 17.5039 118.42 14.7815 119.257L15.0076 119.992L15.2337 120.727C17.177 120.13 19.2693 121.156 19.9729 123.088L20.6955 122.825ZM15.0076 119.992L14.7625 119.264L14.5375 119.339L14.7826 120.068L15.0277 120.797L15.2527 120.721L15.0076 119.992ZM14.7826 120.068L15.5052 119.805L12.8752 112.579L12.1526 112.842L11.4301 113.105L14.06 120.331L14.7826 120.068ZM12.1526 112.842L12.4157 113.565C15.2092 112.548 16.6488 109.459 15.6321 106.666L14.9095 106.929L14.187 107.192C14.9132 109.187 13.8847 111.394 11.8896 112.12L12.1526 112.842ZM14.9095 106.929L15.6321 106.666C14.647 103.959 11.7179 102.523 8.99558 103.361L9.22164 104.096L9.44771 104.831C11.3911 104.233 13.4834 105.259 14.187 107.192L14.9095 106.929ZM9.22164 104.096L8.97656 103.367L8.75156 103.442L8.99664 104.171L9.24173 104.9L9.46672 104.825L9.22164 104.096ZM8.99664 104.171L9.71923 103.908L7.08928 96.6826L6.3667 96.9456L5.64411 97.2086L8.27406 104.434L8.99664 104.171ZM6.3667 96.9456L6.62973 97.6682C9.42322 96.6513 10.8628 93.5621 9.84617 90.7688L9.12359 91.0318L8.40101 91.2948C9.1273 93.2902 8.09875 95.4968 6.10366 96.223L6.3667 96.9456ZM9.12359 91.0318L9.84616 90.7688C8.86102 88.0626 5.93199 86.6266 3.20962 87.4639L3.43569 88.1989L3.66175 88.9339C5.60516 88.3361 7.69746 89.3622 8.40103 91.2948L9.12359 91.0318ZM3.43569 88.1989L3.19061 87.4701L2.96561 87.5457L3.21069 88.2746L3.45577 89.0034L3.68077 88.9278L3.43569 88.1989ZM3.21069 88.2746L3.93327 88.0116L0.777269 79.3405L0.0546875 79.6035L-0.667894 79.8665L2.48811 88.5376L3.21069 88.2746ZM0.0546875 79.6035L0.317686 80.3261L100.033 44.0326L99.7704 43.31L99.5074 42.5874L-0.208311 78.8809L0.0546875 79.6035Z" fill="black" mask="url(#path-1-inside-1_1_5543)"/>
<g clip-path="url(#clip0_1_5543)">
<rect x="23.707" y="90.6348" width="193.777" height="58.4406" transform="rotate(-20 23.707 90.6348)" fill="#410173"/>
<line x1="113.272" y1="52.3072" x2="139.572" y2="124.565" stroke="#C2C2C2" stroke-width="0.768956" stroke-dasharray="3.08 3.08"/>
<path d="M38.3263 100.887C37.8839 101.048 37.4689 101.094 37.0813 101.025C36.6964 100.951 36.3539 100.77 36.0539 100.483C35.7524 100.192 35.5112 99.798 35.3302 99.3009C35.1508 98.8081 35.0818 98.3561 35.123 97.9451C35.1627 97.5299 35.306 97.17 35.553 96.8655C35.8042 96.5594 36.1551 96.3243 36.6059 96.1602C37.0524 95.9977 37.4695 95.9508 37.8572 96.0197C38.2448 96.0885 38.5894 96.2684 38.8909 96.5594C39.1909 96.8462 39.4313 97.2382 39.6123 97.7353C39.7917 98.2281 39.8615 98.6822 39.8218 99.0974C39.7821 99.5126 39.6366 99.8732 39.3855 100.179C39.1343 100.485 38.7812 100.721 38.3263 100.887ZM38.0779 100.204C38.5033 100.05 38.7834 99.7902 38.9182 99.4263C39.0556 99.0566 39.0223 98.5917 38.8184 98.0314C38.6252 97.5006 38.3612 97.1291 38.0263 96.917C37.69 96.7007 37.2985 96.6738 36.852 96.8364C36.4349 96.9882 36.1577 97.2489 36.0203 97.6185C35.8814 97.984 35.9139 98.4468 36.1178 99.0071C36.3095 99.5337 36.5735 99.9052 36.9098 100.121C37.2462 100.338 37.6355 100.365 38.0779 100.204ZM41.0674 99.8176L41.2295 94.5418L42.1016 94.2244L45.6171 98.1617L44.8209 98.4515L43.9778 97.4917L41.8735 98.2576L41.8446 99.5348L41.0674 99.8176ZM41.9331 95.8457L41.894 97.5274L43.499 96.9432L42.3944 95.6778C42.2496 95.5158 42.0935 95.3294 41.926 95.1184C41.9361 95.3819 41.9384 95.6243 41.9331 95.8457ZM45.7812 96.2342L44.7048 93.2769L45.4568 93.0032L46.5147 95.91C46.6558 96.2975 46.8665 96.5357 47.1469 96.6245C47.4258 96.709 47.7464 96.6854 48.1087 96.5535C48.5257 96.4017 48.7917 96.1952 48.9065 95.934C49.0255 95.6712 49.0245 95.3734 48.9033 95.0406L47.8454 92.1338L48.591 91.8624L49.6674 94.8197C49.7931 95.1652 49.829 95.4932 49.7751 95.8039C49.7197 96.1103 49.5727 96.388 49.3341 96.637C49.0998 96.8845 48.7699 97.0857 48.3444 97.2406C47.742 97.4598 47.2144 97.4849 46.7616 97.3157C46.3073 97.1424 45.9805 96.7819 45.7812 96.2342ZM55.4858 94.6413C55.0351 94.8054 54.6165 94.848 54.23 94.7692C53.8435 94.6904 53.5016 94.5048 53.2043 94.2122C52.907 93.9197 52.6702 93.5312 52.4938 93.0467C52.3129 92.5496 52.2473 92.0941 52.2969 91.68C52.3451 91.2617 52.4955 90.9017 52.7482 90.5998C53.0051 90.2964 53.3526 90.0649 53.7908 89.9054C54.1699 89.7674 54.5251 89.7145 54.8565 89.7466C55.1904 89.7729 55.4846 89.8733 55.739 90.0479C55.9976 90.221 56.2055 90.4578 56.3626 90.7584L55.6434 91.1418C55.4617 90.8263 55.2286 90.6249 54.944 90.5377C54.6636 90.4489 54.3591 90.4643 54.0305 90.5839C53.5756 90.7495 53.2895 91.0253 53.1724 91.4115C53.058 91.7918 53.0951 92.2411 53.2837 92.7592C53.4892 93.3238 53.7655 93.7027 54.1125 93.896C54.4581 94.0851 54.8372 94.1045 55.2501 93.9543C55.6166 93.8209 55.8722 93.6252 56.0169 93.3674C56.1643 93.1039 56.2086 92.8063 56.1499 92.4746L56.9318 92.283C57.0154 92.6438 57.0082 92.978 56.9103 93.2856C56.8165 93.5916 56.6473 93.8608 56.4026 94.0929C56.1579 94.3251 55.8524 94.5079 55.4858 94.6413ZM58.1407 93.6035L58.3029 88.3276L59.1749 88.0102L62.6904 91.9475L61.8942 92.2373L61.0511 91.2775L58.9469 92.0434L58.918 93.3206L58.1407 93.6035ZM59.0065 89.6315L58.9673 91.3132L60.5724 90.729L59.4678 89.4636C59.323 89.3017 59.1668 89.1152 58.9994 88.9042C59.0094 89.1677 59.0118 89.4101 59.0065 89.6315ZM63.6843 91.5858L62.0076 86.9791L63.2146 86.5399L65.7043 89.6054L65.6537 85.6521L66.8354 85.222L68.5121 89.8286L67.7728 90.0977L66.3646 86.1304L66.4078 90.5945L65.7696 90.8268L62.9672 87.3741L64.4047 91.3236L63.6843 91.5858ZM69.9952 89.2888L68.3186 84.6822L70.4291 83.914C70.9347 83.73 71.3732 83.7159 71.7448 83.8716C72.1206 84.0259 72.3867 84.3179 72.5431 84.7476C72.701 85.1815 72.6835 85.579 72.4906 85.9403C72.3003 86.2958 71.9524 86.5655 71.4469 86.7495L70.1009 87.2394L70.7472 89.0151L69.9952 89.2888ZM70.6959 84.5683L69.312 85.072L69.864 86.5885L71.2479 86.0849C71.4838 85.999 71.6533 85.8681 71.7562 85.6923C71.8577 85.5123 71.8616 85.2937 71.7681 85.0368C71.6761 84.784 71.5355 84.6205 71.3463 84.5463C71.157 84.472 70.9403 84.4793 70.6959 84.5683ZM74.2298 85.8797L73.1535 82.9224L73.9054 82.6487L74.9634 85.5555C75.1045 85.9431 75.3152 86.1812 75.5956 86.27C75.8744 86.3546 76.195 86.3309 76.5573 86.1991C76.9744 86.0473 77.2403 85.8407 77.3551 85.5795C77.4742 85.3167 77.4731 85.0189 77.352 84.6861L76.294 81.7793L77.0397 81.5079L78.1161 84.4653C78.2418 84.8107 78.2777 85.1387 78.2238 85.4494C78.1683 85.7558 78.0213 86.0335 77.7828 86.2826C77.5485 86.5301 77.2186 86.7313 76.7931 86.8861C76.1907 87.1054 75.6631 87.1304 75.2103 86.9613C74.756 86.7879 74.4292 86.4274 74.2298 85.8797ZM81.4787 81.481C81.3648 81.2075 81.1934 81.0314 80.9643 80.9525C80.7352 80.8737 80.4754 80.8872 80.1847 80.993C79.9067 81.0942 79.7146 81.2285 79.6086 81.3959C79.5067 81.5618 79.4895 81.7374 79.557 81.9228C79.6153 82.0828 79.7097 82.1916 79.8403 82.249C79.971 82.3064 80.1376 82.3316 80.3402 82.3247C80.5428 82.3177 80.7755 82.2951 81.0382 82.2567C81.3136 82.2137 81.5806 82.2 81.8391 82.2157C82.0976 82.2313 82.3265 82.303 82.5257 82.4309C82.7291 82.5572 82.8853 82.77 82.9941 83.0691C83.1444 83.4819 83.1097 83.8714 82.8899 84.2377C82.6744 84.6024 82.2844 84.8874 81.7199 85.0929C81.3492 85.2278 81.006 85.2812 80.6904 85.2529C80.379 85.2231 80.1089 85.1234 79.8802 84.9538C79.6542 84.7785 79.4846 84.542 79.3716 84.2445L80.0701 83.8829C80.2008 84.2027 80.3908 84.4102 80.6402 84.5055C80.8938 84.5993 81.1827 84.5871 81.5071 84.469C81.7978 84.3632 82.0117 84.2234 82.1487 84.0494C82.2858 83.8755 82.3083 83.6622 82.2163 83.4094C82.1519 83.2325 82.0544 83.1153 81.9238 83.0579C81.7974 82.9989 81.6478 82.9747 81.4751 82.9851C81.3008 82.9912 81.1133 83.007 80.9126 83.0323C80.5453 83.0849 80.2204 83.103 79.9377 83.0866C79.6577 83.0645 79.4231 82.9901 79.2338 82.8633C79.0446 82.7366 78.9001 82.5363 78.8005 82.2625C78.7085 82.0098 78.6946 81.7619 78.7589 81.5191C78.8216 81.272 78.9552 81.0493 79.1597 80.8508C79.3642 80.6523 79.6307 80.4933 79.9593 80.3737C80.4943 80.179 80.9574 80.1536 81.3485 80.2975C81.738 80.4372 82.0193 80.7117 82.1921 81.1211L81.4787 81.481ZM84.6257 84.9942L84.4854 84.6088L84.6054 84.5651C84.7192 84.5237 84.7871 84.4679 84.8093 84.3978C84.8331 84.3319 84.8288 84.2547 84.7966 84.1663L84.7115 83.9325L84.3513 84.0636L84.0684 83.2863L84.8015 83.0195L85.1947 84.1001C85.2699 84.3065 85.2661 84.4796 85.1834 84.6195C85.1022 84.7635 84.9648 84.8708 84.771 84.9413L84.6257 84.9942ZM89.0404 82.3569L88.2885 82.6306L86.6118 78.024L87.3638 77.7503L89.0404 82.3569ZM90.5204 81.8182L88.8437 77.2116L89.5957 76.9379L91.0355 80.8937L93.5252 79.9875L93.7621 80.6383L90.5204 81.8182ZM94.7085 80.2939L93.0318 75.6873L96.3304 74.4867L96.565 75.1312L94.0184 76.0581L94.4899 77.3535L96.7711 76.5232L96.9988 77.1488L94.7176 77.9791L95.2236 79.3693L97.9597 78.3734L98.1966 79.0243L94.7085 80.2939ZM98.2753 77.0492L98.0361 76.392L100.26 75.5824L100.5 76.2396L98.2753 77.0492ZM103.016 77.2702L102.264 77.5439L100.587 72.9373L101.339 72.6636L103.016 77.2702ZM104.496 76.7316L102.819 72.1249L106.074 70.9405L106.31 71.5913L103.808 72.5021L104.296 73.8418L106.495 73.0414L106.729 73.6859L104.53 74.4863L105.248 76.4579L104.496 76.7316ZM108.82 75.1578L107.143 70.5512L110.442 69.3506L110.676 69.9952L108.13 70.922L108.601 72.2174L110.882 71.3872L111.11 72.0128L108.829 72.843L109.335 74.2332L112.071 73.2373L112.308 73.8882L108.82 75.1578Z" fill="white"/>
<path d="M43.5865 119.249L40.0935 109.652L44.3325 108.109C45.2716 107.767 46.0787 107.732 46.7539 108.003C47.429 108.274 47.896 108.765 48.1547 109.476C48.3368 109.976 48.3609 110.479 48.227 110.985C48.0899 111.482 47.7389 111.938 47.1741 112.352C47.9664 112.263 48.5972 112.371 49.0665 112.677C49.5358 112.983 49.8679 113.404 50.0627 113.94C50.3534 114.738 50.2954 115.48 49.8886 116.165C49.4875 116.838 48.791 117.354 47.7993 117.715L43.5865 119.249ZM44.6296 108.925L41.2463 110.156L42.5112 113.632L45.8946 112.4C46.5704 112.154 47.0219 111.811 47.2492 111.371C47.4821 110.918 47.5059 110.437 47.3206 109.928C47.1193 109.375 46.7741 109.014 46.2849 108.844C45.7957 108.674 45.244 108.701 44.6296 108.925ZM46.2264 113.189L42.8035 114.435L44.1404 118.108L47.5632 116.862C48.1074 116.664 48.5114 116.423 48.7755 116.138C49.0483 115.849 49.2054 115.544 49.2468 115.221C49.2938 114.885 49.255 114.547 49.1304 114.204C48.9132 113.608 48.5512 113.228 48.0445 113.064C47.5345 112.892 46.9285 112.934 46.2264 113.189ZM56.7332 114.613C55.8029 114.951 54.9379 115.033 54.1383 114.857C53.3387 114.68 52.6336 114.286 52.023 113.673C51.4212 113.058 50.9414 112.258 50.5836 111.275C50.2003 110.222 50.056 109.266 50.1507 108.406C50.2509 107.535 50.5571 106.792 51.0692 106.179C51.5869 105.553 52.2802 105.082 53.1491 104.766C54.0794 104.427 54.9443 104.346 55.7439 104.522C56.5403 104.689 57.2438 105.079 57.8544 105.692C58.4651 106.304 58.9493 107.102 59.307 108.085C59.6903 109.138 59.8319 110.101 59.7316 110.972C59.6369 111.832 59.3307 112.574 58.813 113.2C58.3041 113.822 57.6108 114.293 56.7332 114.613ZM56.4361 113.797C57.5419 113.394 58.2639 112.729 58.6019 111.801C58.9488 110.869 58.8842 109.75 58.4082 108.442C57.9291 107.126 57.2573 106.222 56.393 105.732C55.5343 105.229 54.552 105.179 53.4461 105.582C52.3403 105.984 51.6184 106.65 51.2803 107.578C50.9423 108.506 51.0128 109.628 51.492 110.945C51.9711 112.261 52.6385 113.166 53.494 113.66C54.3496 114.154 55.3303 114.199 56.4361 113.797ZM66.761 110.963C65.8307 111.302 64.9657 111.383 64.1661 111.207C63.3665 111.031 62.6614 110.636 62.0508 110.024C61.449 109.408 60.9692 108.608 60.6114 107.625C60.2281 106.572 60.0838 105.616 60.1785 104.757C60.2788 103.885 60.585 103.143 61.0971 102.529C61.6147 101.903 62.308 101.432 63.1769 101.116C64.1072 100.777 64.9722 100.696 65.7718 100.872C66.5682 101.039 67.2717 101.429 67.8823 102.042C68.4929 102.655 68.9771 103.452 69.3348 104.435C69.7182 105.489 69.8597 106.451 69.7594 107.322C69.6647 108.182 69.3585 108.924 68.8408 109.55C68.3319 110.173 67.6386 110.644 66.761 110.963ZM66.4639 110.147C67.5698 109.744 68.2917 109.079 68.6298 108.151C68.9766 107.22 68.912 106.1 68.4361 104.792C67.9569 103.476 67.2852 102.572 66.4208 102.082C65.5621 101.579 64.5798 101.53 63.474 101.932C62.3681 102.334 61.6462 103 61.3081 103.928C60.9701 104.856 61.0406 105.978 61.5198 107.295C61.9989 108.611 62.6663 109.516 63.5218 110.01C64.3774 110.504 65.3581 110.549 66.4639 110.147ZM76.7888 107.313C75.8585 107.652 74.9936 107.733 74.194 107.557C73.3944 107.381 72.6893 106.986 72.0787 106.374C71.4768 105.758 70.997 104.959 70.6392 103.976C70.2559 102.922 70.1116 101.966 70.2063 101.107C70.3066 100.235 70.6128 99.4927 71.1249 98.8789C71.6426 98.2532 72.3359 97.7822 73.2047 97.466C74.3808 97.0379 75.4033 96.9937 76.2724 97.3334C77.147 97.6611 77.8386 98.2641 78.3472 99.1425L77.5298 99.5593C77.0173 98.7519 76.4131 98.2662 75.7173 98.102C75.0182 97.929 74.2781 97.9847 73.497 98.269C72.3912 98.6715 71.6692 99.3368 71.3312 100.265C70.9931 101.193 71.0637 102.315 71.5428 103.632C72.022 104.948 72.6909 105.858 73.5497 106.36C74.4084 106.863 75.3907 106.913 76.4965 106.51C77.462 106.159 78.1089 105.67 78.4375 105.043C78.7717 104.405 78.8732 103.687 78.7421 102.89L79.6361 102.684C79.7856 103.395 79.7622 104.054 79.5661 104.662C79.3788 105.267 79.0446 105.796 78.5635 106.25C78.0913 106.7 77.4997 107.054 76.7888 107.313ZM84.7778 104.256L81.2847 94.6593L82.1404 94.3478L83.6977 98.6264L89.8456 96.3887L88.2884 92.1101L89.1309 91.8035L92.624 101.401L91.7814 101.707L90.1283 97.1654L83.9804 99.4031L85.6335 103.945L84.7778 104.256ZM93.742 100.994L94.2379 89.9447L95.2911 89.5614L102.773 97.7066L101.878 98.0324L99.7442 95.6931L94.768 97.5043L94.6372 100.668L93.742 100.994ZM94.9925 91.7722L94.8024 96.6569L99.16 95.0709L95.8614 91.4559C95.7273 91.306 95.5888 91.1576 95.4459 91.0108C95.3118 90.8608 95.1745 90.7021 95.034 90.5345C95.0341 90.7532 95.0266 90.9646 95.0115 91.1689C95.0051 91.37 94.9988 91.5711 94.9925 91.7722ZM103.895 97.2983L100.402 87.7012L101.258 87.3897L104.463 96.1969L110.242 94.0934L110.53 94.8833L103.895 97.2983ZM111.609 94.4907L108.116 84.8936L108.971 84.5822L112.177 93.3894L117.956 91.2859L118.244 92.0758L111.609 94.4907Z" fill="#C2C2C2"/>
<path d="M48.911 132.338L47.5081 128.483L46.1574 128.975L45.9159 128.311L46.0738 128.254C46.474 128.108 46.7541 127.878 46.9139 127.563C47.079 127.247 47.1251 126.89 47.0522 126.493L47.7315 126.246L49.8273 132.004L48.911 132.338ZM53.695 130.686C53.1842 130.872 52.7258 130.898 52.3198 130.766C51.919 130.632 51.5644 130.37 51.2559 129.981C50.9509 129.586 50.691 129.093 50.4763 128.503C50.2252 127.813 50.108 127.221 50.1246 126.726C50.1393 126.225 50.2699 125.814 50.5164 125.492C50.7628 125.169 51.1046 124.929 51.5417 124.77C52.0525 124.584 52.5109 124.557 52.9169 124.69C53.3229 124.822 53.6776 125.084 53.9807 125.474C54.2892 125.863 54.5507 126.352 54.7654 126.942C55.0165 127.632 55.132 128.228 55.1121 128.73C55.0974 129.23 54.9668 129.642 54.7203 129.964C54.4738 130.286 54.1321 130.527 53.695 130.686ZM53.3989 129.872C53.836 129.713 54.075 129.412 54.1161 128.967C54.1604 128.516 54.0609 127.956 53.8175 127.287C53.6182 126.739 53.4093 126.329 53.1909 126.057C52.9778 125.783 52.7587 125.615 52.5337 125.554C52.3067 125.487 52.0748 125.497 51.8378 125.583C51.4007 125.742 51.1617 126.044 51.1206 126.488C51.0796 126.933 51.1808 127.489 51.4242 128.158C51.6235 128.706 51.8307 129.119 52.0457 129.399C52.2589 129.673 52.4789 129.843 52.7059 129.91C52.9362 129.969 53.1672 129.957 53.3989 129.872ZM56.6535 129.52L56.8562 122.925L57.9463 122.528L62.3407 127.45L61.3454 127.812L60.2915 126.612L57.6612 127.57L57.6251 129.166L56.6535 129.52ZM57.7357 124.555L57.6868 126.657L59.6931 125.927L58.3123 124.345C58.1313 124.142 57.9361 123.909 57.7268 123.646C57.7394 123.975 57.7424 124.278 57.7357 124.555ZM63.583 126.997L61.4872 121.239L62.9959 120.69L66.108 124.522L66.0448 119.58L67.5219 119.043L69.6177 124.801L68.6936 125.137L66.9333 120.178L66.9874 125.758L66.1896 126.049L62.6866 121.733L64.4835 126.67L63.583 126.997ZM71.3545 125.457L71.1791 124.975L71.3292 124.921C71.4713 124.869 71.5563 124.799 71.584 124.712C71.6137 124.629 71.6084 124.533 71.5682 124.422L71.4618 124.13L71.0116 124.294L70.6579 123.322L71.5742 122.989L72.0658 124.339C72.1597 124.597 72.155 124.814 72.0516 124.989C71.9502 125.169 71.7784 125.303 71.5361 125.391L71.3545 125.457ZM77.8653 121.889C77.1966 122.132 76.6321 122.138 76.1719 121.906C75.717 121.672 75.3851 121.268 75.1762 120.694L74.8485 119.793L75.7884 119.451L76.1248 120.375C76.2686 120.77 76.463 121.01 76.7082 121.093C76.9567 121.17 77.2389 121.151 77.5548 121.036C77.9551 120.89 78.197 120.694 78.2807 120.449C78.3644 120.204 78.3488 119.924 78.2338 119.608L76.7992 115.666L77.7392 115.324L79.1651 119.242C79.4009 119.89 79.3919 120.438 79.1383 120.889C78.89 121.337 78.4656 121.67 77.8653 121.889ZM80.8097 118.393L79.4642 114.696L80.4042 114.354L81.7266 117.987C81.903 118.472 82.1664 118.77 82.5169 118.881C82.8654 118.986 83.2662 118.957 83.719 118.792C84.2403 118.602 84.5728 118.344 84.7163 118.017C84.8651 117.689 84.8638 117.317 84.7124 116.901L83.3899 113.267L84.322 112.928L85.6675 116.625C85.8246 117.057 85.8695 117.467 85.8021 117.855C85.7328 118.238 85.5491 118.585 85.2509 118.896C84.958 119.206 84.5456 119.457 84.0137 119.651C83.2607 119.925 82.6012 119.956 82.0352 119.745C81.4674 119.528 81.0588 119.077 80.8097 118.393ZM88.2083 118.035L86.1124 112.276L87.3288 111.834L91.8327 115.213L90.2198 110.781L91.144 110.445L93.2398 116.203L92.134 116.606L87.4901 113.161L89.1403 117.695L88.2083 118.035ZM95.0864 115.531L92.9906 109.773L97.1138 108.272L97.407 109.078L94.2238 110.236L94.8132 111.856L97.6646 110.818L97.9493 111.6L95.0978 112.638L95.7303 114.375L99.1505 113.131L99.4466 113.944L95.0864 115.531ZM104.237 112.2L102.835 108.346L101.484 108.837L101.242 108.174L101.4 108.116C101.8 107.971 102.081 107.741 102.24 107.426C102.405 107.11 102.451 106.753 102.379 106.356L103.058 106.109L105.154 111.867L104.237 112.2ZM109.549 110.267L109.109 109.059L106.234 110.105L105.958 109.347L107.445 104.512L108.377 104.173L109.748 107.94L110.633 107.618L110.918 108.4L110.033 108.722L110.473 109.931L109.549 110.267ZM106.929 108.967L108.824 108.277L107.893 105.718L106.929 108.967ZM113.852 108.701L112.052 103.757L110.093 104.47L109.797 103.656L114.631 101.896L114.927 102.71L112.992 103.414L114.792 108.359L113.852 108.701ZM117.922 107.22L115.826 101.461L116.766 101.119L117.643 103.528L120.629 102.442L119.752 100.033L120.676 99.6962L122.772 105.454L121.848 105.791L120.922 103.247L117.936 104.334L118.862 106.878L117.922 107.22Z" fill="white"/>
<g clip-path="url(#clip1_1_5543)">
<rect x="161.23" y="49.1726" width="42.2926" height="42.2926" rx="2.19702" transform="rotate(-20 161.23 49.1726)" fill="white"/>
<g clip-path="url(#clip2_1_5543)">
<path d="M198.53 40.8551L167.562 52.1265L178.833 83.0943L209.801 71.8229L198.53 40.8551Z" fill="white"/>
<path d="M171.319 62.4491L172.258 62.1075L172.599 63.0459L173.538 62.7044L173.879 63.6428L172.941 63.9843L173.282 64.9228L173.624 65.8612L174.562 65.5196L174.904 66.458L173.965 66.7996L174.307 67.738L174.648 68.6764L174.99 69.6149L174.052 69.9564L173.71 69.018L173.368 68.0796L173.027 67.1412L172.685 66.2027L172.344 65.2643L172.002 64.3259L171.661 63.3875L171.319 62.4491ZM175.076 72.7717L176.015 72.4301L176.356 73.3685L175.418 73.7101L175.076 72.7717ZM175.759 74.6485L176.698 74.3069L177.039 75.2454L176.101 75.5869L175.759 74.6485ZM175.332 70.5533L176.27 70.2117L176.612 71.1501L177.55 70.8086L177.208 69.8702L178.147 69.5286L177.805 68.5902L177.464 67.6518L176.525 67.9933L176.184 67.0549L175.245 67.3965L174.904 66.458L175.842 66.1165L175.501 65.1781L174.562 65.5196L174.221 64.5812L175.159 64.2396L176.097 63.8981L176.439 64.8365L176.781 65.7749L177.719 65.4334L177.377 64.495L178.316 64.1534L178.657 65.0918L179.596 64.7503L179.254 63.8118L178.316 64.1534L177.974 63.215L178.913 62.8734L178.571 61.935L179.51 61.5934L179.851 62.5319L180.193 63.4703L180.534 64.4087L181.473 64.0671L181.814 65.0056L182.156 65.944L182.497 66.8824L183.436 66.5408L183.777 67.4793L182.839 67.8208L183.18 68.7592L182.242 69.1008L182.584 70.0392L181.645 70.3808L181.304 69.4423L180.365 69.7839L180.024 68.8455L180.962 68.5039L180.621 67.5655L179.682 67.9071L178.744 68.2486L179.085 69.187L179.427 70.1255L179.768 71.0639L180.11 72.0023L179.171 72.3439L178.233 72.6854L177.892 71.747L176.953 72.0885L176.015 72.4301L175.673 71.4917L175.332 70.5533ZM176.356 73.3685L177.295 73.027L178.233 72.6854L178.575 73.6238L179.513 73.2823L180.451 72.9407L180.793 73.8791L179.855 74.2207L178.916 74.5622L177.978 74.9038L177.636 73.9654L176.698 74.3069L176.356 73.3685ZM172.171 58.9507L173.11 58.6091L173.451 59.5476L174.39 59.206L174.048 58.2676L174.987 57.926L175.925 57.5845L176.863 57.2429L177.205 58.1813L176.267 58.5229L176.608 59.4613L177.546 59.1198L178.485 58.7782L178.143 57.8398L177.802 56.9014L178.74 56.5598L179.679 56.2182L180.02 57.1567L180.959 56.8151L180.617 55.8767L181.555 55.5351L182.494 55.1936L182.835 56.132L181.897 56.4736L182.239 57.412L182.58 58.3504L181.642 58.6919L181.983 59.6304L181.045 59.9719L181.386 60.9103L180.448 61.2519L179.51 61.5934L179.168 60.655L178.826 59.7166L177.888 60.0582L176.95 60.3997L176.011 60.7413L175.67 59.8029L174.731 60.1444L173.793 60.486L174.134 61.4244L174.476 62.3628L173.538 62.7044L173.196 61.766L172.854 60.8275L172.513 59.8891L172.171 58.9507ZM175.587 68.3349L176.525 67.9933L176.867 68.9317L175.928 69.2733L175.587 68.3349ZM175.073 61.0828L176.011 60.7413L176.353 61.6797L175.414 62.0213L175.073 61.0828ZM175.756 62.9597L176.694 62.6181L177.633 62.2766L177.974 63.215L177.036 63.5565L176.097 63.8981L175.756 62.9597ZM178.999 66.0302L179.341 66.9687L180.279 66.6271L181.217 66.2855L180.876 65.3471L179.937 65.6887L178.999 66.0302ZM177.291 61.3381L178.23 60.9966L178.571 61.935L177.633 62.2766L177.291 61.3381ZM180.707 70.7223L181.645 70.3808L181.987 71.3192L181.048 71.6607L180.707 70.7223ZM181.39 72.5992L182.328 72.2576L183.267 71.916L183.608 72.8545L182.67 73.196L181.731 73.5376L181.39 72.5992ZM175.069 49.394L176.008 49.0525L176.946 48.7109L177.288 49.6493L178.226 49.3078L178.568 50.2462L177.629 50.5877L177.971 51.5262L177.032 51.8677L176.691 50.9293L176.349 49.9909L175.411 50.3324L175.069 49.394ZM176.094 52.2093L177.032 51.8677L177.374 52.8061L176.436 53.1477L176.094 52.2093ZM177.119 55.0245L178.057 54.683L178.399 55.6214L177.46 55.9629L177.119 55.0245ZM182.584 70.0392L183.522 69.6977L183.18 68.7592L184.119 68.4177L183.777 67.4793L184.716 67.1377L185.057 68.0761L185.399 69.0145L186.337 68.673L185.996 67.7346L185.654 66.7962L186.593 66.4546L186.251 65.5162L185.909 64.5778L184.971 64.9193L184.629 63.9809L183.691 64.3225L183.35 63.384L184.288 63.0425L185.226 62.7009L186.165 62.3594L187.103 62.0178L186.762 61.0794L187.7 60.7378L188.042 61.6763L188.383 62.6147L187.445 62.9562L186.506 63.2978L186.848 64.2362L187.189 65.1746L187.531 66.113L188.469 65.7715L188.128 64.8331L187.786 63.8946L188.725 63.5531L189.066 64.4915L189.408 65.4299L189.749 66.3683L188.811 66.7099L187.873 67.0515L186.934 67.393L187.276 68.3314L187.617 69.2698L186.679 69.6114L185.74 69.953L184.802 70.2945L185.144 71.2329L186.082 70.8914L186.424 71.8298L186.765 72.7682L187.107 73.7066L186.168 74.0482L186.51 74.9866L186.851 75.925L185.913 76.2666L184.974 76.6081L184.633 75.6697L184.291 74.7313L185.23 74.3897L184.888 73.4513L185.827 73.1098L185.485 72.1714L184.547 72.5129L184.205 71.5745L183.267 71.916L182.925 70.9776L182.584 70.0392ZM183.608 72.8545L184.547 72.5129L184.888 73.4513L183.95 73.7929L183.608 72.8545ZM185.316 77.5466L186.254 77.205L187.193 76.8634L187.534 77.8019L186.596 78.1434L185.658 78.485L185.316 77.5466ZM177.374 52.8061L178.312 52.4646L179.251 52.123L179.592 53.0614L178.654 53.403L178.996 54.3414L178.057 54.683L177.716 53.7445L177.374 52.8061ZM180.79 62.1903L181.728 61.8488L182.07 62.7872L181.131 63.1287L180.79 62.1903ZM186.938 79.0818L187.876 78.7403L188.814 78.3987L189.156 79.3371L188.218 79.6787L187.279 80.0203L186.938 79.0818ZM178.996 54.3414L179.934 53.9999L180.276 54.9383L180.617 55.8767L179.679 56.2182L179.337 55.2798L178.996 54.3414ZM181.386 60.9103L182.325 60.5688L181.983 59.6304L182.922 59.2888L182.58 58.3504L183.519 58.0088L183.177 57.0704L184.115 56.7289L184.457 57.6673L185.395 57.3257L185.054 56.3873L185.992 56.0457L186.334 56.9842L187.272 56.6426L187.614 57.581L186.675 57.9226L185.737 58.2641L184.799 58.6057L183.86 58.9472L184.202 59.8857L185.14 59.5441L186.079 59.2026L187.017 58.861L187.358 59.7994L186.42 60.141L186.762 61.0794L185.823 61.4209L185.482 60.4825L184.543 60.8241L184.885 61.7625L183.946 62.1041L183.605 61.1656L182.666 61.5072L181.728 61.8488L181.386 60.9103ZM182.07 62.7872L183.008 62.4456L183.35 63.384L182.411 63.7256L182.07 62.7872ZM178.568 50.2462L179.506 49.9046L179.165 48.9662L180.103 48.6247L180.445 49.5631L181.383 49.2215L182.321 48.88L183.26 48.5384L183.601 49.4768L182.663 49.8184L183.005 50.7568L183.346 51.6952L182.408 52.0368L181.469 52.3783L180.531 52.7199L180.189 51.7815L181.128 51.4399L182.066 51.0983L181.725 50.1599L180.786 50.5015L179.848 50.843L180.189 51.7815L179.251 52.123L178.909 51.1846L178.568 50.2462ZM179.592 53.0614L180.531 52.7199L180.872 53.6583L179.934 53.9999L179.592 53.0614ZM184.033 65.2609L184.971 64.9193L185.313 65.8577L185.654 66.7962L184.716 67.1377L184.374 66.1993L184.033 65.2609ZM187.107 73.7066L188.045 73.3651L188.387 74.3035L187.448 74.6451L187.107 73.7066ZM187.79 75.5835L188.728 75.2419L188.387 74.3035L189.325 73.9619L188.983 73.0235L189.922 72.682L190.263 73.6204L191.202 73.2788L191.543 74.2172L192.482 73.8757L192.823 74.8141L191.885 75.1557L192.227 76.0941L192.568 77.0325L191.63 77.3741L191.288 76.4356L190.947 75.4972L190.008 75.8388L189.07 76.1803L189.411 77.1187L188.473 77.4603L188.131 76.5219L187.79 75.5835ZM180.872 53.6583L181.811 53.3167L182.152 54.2552L181.214 54.5967L180.872 53.6583ZM187.02 70.5498L187.959 70.2083L188.3 71.1467L189.239 70.8051L190.177 70.4636L189.836 69.5252L189.494 68.5867L190.432 68.2452L191.371 67.9036L191.712 68.842L190.774 69.1836L191.116 70.122L191.457 71.0604L191.799 71.9989L190.86 72.3404L189.922 72.682L189.58 71.7435L188.642 72.0851L187.703 72.4267L187.362 71.4882L187.02 70.5498ZM182.152 54.2552L183.091 53.9136L182.749 52.9752L183.688 52.6336L184.029 53.572L184.371 54.5105L185.309 54.1689L186.248 53.8274L186.589 54.7658L185.651 55.1073L184.712 55.4489L185.054 56.3873L184.115 56.7289L183.774 55.7904L183.432 54.852L182.494 55.1936L182.152 54.2552ZM190.691 77.7156L191.63 77.3741L191.971 78.3125L191.033 78.654L190.691 77.7156ZM183.346 51.6952L184.284 51.3537L184.626 52.2921L183.688 52.6336L183.346 51.6952ZM192.568 77.0325L193.506 76.6909L193.165 75.7525L192.823 74.8141L193.762 74.4725L193.42 73.5341L194.359 73.1926L194.7 74.131L195.042 75.0694L195.383 76.0078L194.445 76.3494L194.786 77.2878L193.848 77.6294L192.91 77.9709L192.568 77.0325ZM182.577 46.6616L183.515 46.32L184.454 45.9785L185.392 45.6369L186.33 45.2953L186.672 46.2338L187.013 47.1722L186.075 47.5137L185.734 46.5753L184.795 46.9169L183.857 47.2584L184.198 48.1968L183.26 48.5384L182.918 47.6L182.577 46.6616ZM183.943 50.4152L184.881 50.0737L184.54 49.1353L184.198 48.1968L185.137 47.8553L185.478 48.7937L186.417 48.4522L187.355 48.1106L187.697 49.049L188.038 49.9874L187.1 50.329L186.758 49.3906L185.82 49.7321L186.161 50.6705L187.1 50.329L187.441 51.2674L187.783 52.2058L186.844 52.5474L186.503 51.609L185.564 51.9505L185.223 51.0121L184.284 51.3537L183.943 50.4152ZM184.626 52.2921L185.564 51.9505L185.906 52.8889L184.968 53.2305L184.626 52.2921ZM191.799 71.9989L192.737 71.6573L193.079 72.5957L193.42 73.5341L192.482 73.8757L192.14 72.9373L191.799 71.9989ZM185.906 52.8889L186.844 52.5474L187.186 53.4858L186.248 53.8274L185.906 52.8889ZM186.931 55.7042L187.869 55.3626L187.528 54.4242L187.186 53.4858L188.124 53.1442L188.466 54.0827L188.808 55.0211L189.746 54.6795L189.404 53.7411L189.063 52.8027L188.721 51.8643L188.38 50.9258L188.038 49.9874L188.977 49.6459L189.318 50.5843L189.66 51.5227L190.598 51.1812L190.257 50.2427L189.915 49.3043L188.977 49.6459L188.635 48.7075L188.293 47.769L189.232 47.4275L190.17 47.0859L190.512 48.0243L191.45 47.6828L191.792 48.6212L192.73 48.2796L193.072 49.2181L193.413 50.1565L193.755 51.0949L192.816 51.4365L193.158 52.3749L194.096 52.0333L194.438 52.9717L193.5 53.3133L192.561 53.6549L192.903 54.5933L193.841 54.2517L194.78 53.9102L194.438 52.9717L195.376 52.6302L195.718 53.5686L196.656 53.227L196.998 54.1655L197.936 53.8239L198.278 54.7623L198.62 55.7007L198.961 56.6392L199.303 57.5776L198.364 57.9191L198.023 56.9807L197.681 56.0423L196.743 56.3839L197.084 57.3223L197.426 58.2607L198.364 57.9191L198.706 58.8576L197.767 59.1991L196.829 59.5407L196.487 58.6022L196.146 57.6638L195.804 56.7254L195.463 55.787L194.524 56.1286L194.183 55.1901L193.244 55.5317L192.306 55.8732L192.647 56.8117L191.709 57.1532L190.771 57.4948L189.832 57.8363L189.491 56.8979L189.149 55.9595L188.211 56.3011L187.272 56.6426L186.931 55.7042ZM187.614 57.581L188.552 57.2395L188.894 58.1779L189.832 57.8363L190.174 58.7747L189.235 59.1163L188.297 59.4579L187.955 58.5194L187.614 57.581ZM188.638 60.3963L189.577 60.0547L189.918 60.9931L190.857 60.6516L190.515 59.7132L191.454 59.3716L191.795 60.31L192.734 59.9685L192.392 59.0301L192.051 58.0916L192.989 57.7501L193.331 58.6885L194.269 58.3469L195.207 58.0054L195.549 58.9438L195.89 59.8822L194.952 60.2238L194.014 60.5653L194.355 61.5038L193.417 61.8453L193.075 60.9069L192.137 61.2484L191.198 61.59L190.26 61.9316L190.602 62.87L189.663 63.2115L189.322 62.2731L188.98 61.3347L188.638 60.3963ZM190.005 64.15L190.943 63.8084L191.285 64.7468L192.223 64.4053L191.882 63.4668L190.943 63.8084L190.602 62.87L191.54 62.5284L192.478 62.1869L192.82 63.1253L193.161 64.0637L194.1 63.7221L194.441 64.6606L195.38 64.319L195.721 65.2574L196.66 64.9159L197.001 65.8543L197.343 66.7927L196.405 67.1343L195.466 67.4758L195.125 66.5374L194.783 65.599L193.845 65.9405L193.503 65.0021L192.565 65.3437L191.626 65.6852L191.968 66.6237L191.029 66.9652L190.688 66.0268L190.346 65.0884L190.005 64.15ZM192.054 69.7805L192.992 69.4389L193.334 70.3773L194.272 70.0358L193.931 69.0973L194.869 68.7558L195.211 69.6942L195.552 70.6326L194.614 70.9742L194.956 71.9126L194.017 72.2542L193.676 71.3157L192.737 71.6573L192.396 70.7189L192.054 69.7805ZM191.968 66.6237L192.906 66.2821L193.248 67.2205L193.589 68.1589L192.651 68.5005L192.309 67.5621L191.968 66.6237ZM195.383 76.0078L196.322 75.6663L195.98 74.7279L195.639 73.7894L195.297 72.851L196.236 72.5095L196.577 73.4479L196.919 74.3863L197.26 75.3247L198.199 74.9832L197.857 74.0447L197.515 73.1063L197.174 72.1679L198.112 71.8263L198.454 72.7648L198.795 73.7032L199.137 74.6416L199.479 75.58L198.54 75.9216L197.602 76.2631L196.663 76.6047L195.725 76.9462L195.383 76.0078ZM187.013 47.1722L187.952 46.8306L188.293 47.769L187.355 48.1106L187.013 47.1722ZM190.001 52.4611L190.343 53.3995L191.281 53.058L192.22 52.7164L191.878 51.778L190.94 52.1196L190.001 52.4611ZM190.684 54.338L191.026 55.2764L191.964 54.9348L191.623 53.9964L190.684 54.338ZM194.528 67.8174L195.466 67.4758L195.808 68.4142L194.869 68.7558L194.528 67.8174ZM187.269 44.9538L188.207 44.6122L189.146 44.2707L190.084 43.9291L191.022 43.5876L191.364 44.526L190.426 44.8675L190.767 45.806L191.706 45.4644L192.047 46.4028L192.389 47.3412L191.45 47.6828L191.109 46.7444L190.17 47.0859L189.829 46.1475L188.89 46.4891L188.549 45.5506L187.61 45.8922L187.269 44.9538ZM193.758 62.7837L194.697 62.4422L194.355 61.5038L195.294 61.1622L195.635 62.1006L195.977 63.039L195.038 63.3806L194.1 63.7221L193.758 62.7837ZM195.808 68.4142L196.746 68.0727L197.088 69.0111L198.026 68.6695L198.368 69.608L197.429 69.9495L197.771 70.8879L196.832 71.2295L196.491 70.2911L196.149 69.3527L195.808 68.4142ZM191.195 49.9012L191.537 50.8396L192.475 50.498L192.133 49.5596L191.195 49.9012ZM192.647 56.8117L193.586 56.4701L193.927 57.4085L192.989 57.7501L192.647 56.8117ZM197.771 70.8879L198.709 70.5464L199.051 71.4848L198.112 71.8263L197.771 70.8879ZM197.685 67.7311L198.623 67.3896L198.281 66.4511L199.22 66.1096L198.878 65.1712L199.817 64.8296L200.158 65.768L201.097 65.4265L202.035 65.0849L202.973 64.7434L203.912 64.4018L204.253 65.3402L203.315 65.6818L203.657 66.6202L204.595 66.2786L204.937 67.2171L203.998 67.5586L204.34 68.497L204.681 69.4355L205.023 70.3739L204.084 70.7154L203.743 69.777L202.804 70.1186L201.866 70.4601L200.928 70.8017L199.989 71.1432L199.648 70.2048L199.306 69.2664L198.965 68.328L198.026 68.6695L197.685 67.7311ZM199.392 72.4232L200.331 72.0817L201.269 71.7401L202.208 71.3985L202.549 72.337L201.611 72.6785L201.952 73.6169L202.294 74.5554L201.355 74.8969L200.417 75.2385L200.075 74.3L201.014 73.9585L200.672 73.0201L199.734 73.3616L199.392 72.4232ZM197.598 64.5743L198.537 64.2328L198.878 65.1712L197.94 65.5127L197.598 64.5743ZM199.561 67.048L199.903 67.9864L200.244 68.9248L200.586 69.8633L201.524 69.5217L202.463 69.1802L203.401 68.8386L203.06 67.9002L202.718 66.9618L202.377 66.0233L201.438 66.3649L200.5 66.7065L199.561 67.048ZM193.755 51.0949L194.693 50.7533L195.035 51.6918L194.096 52.0333L193.755 51.0949ZM197.17 60.4791L198.109 60.1375L198.45 61.0759L197.512 61.4175L197.17 60.4791ZM197.854 62.3559L198.792 62.0144L198.45 61.0759L199.389 60.7344L200.327 60.3928L200.669 61.3313L199.73 61.6728L200.072 62.6112L201.01 62.2697L201.352 63.2081L200.414 63.5496L200.755 64.4881L199.817 64.8296L199.475 63.8912L199.134 62.9528L198.195 63.2943L197.854 62.3559ZM195.035 51.6918L195.973 51.3502L196.315 52.2886L195.376 52.6302L195.035 51.6918ZM200.841 67.6449L201.78 67.3033L202.121 68.2417L201.183 68.5833L200.841 67.6449ZM202.549 72.337L203.488 71.9954L203.146 71.057L204.084 70.7154L204.426 71.6538L204.768 72.5923L205.109 73.5307L204.171 73.8722L203.232 74.2138L202.891 73.2754L202.549 72.337ZM197.253 51.9471L198.192 51.6055L198.533 52.5439L197.595 52.8855L197.253 51.9471ZM199.303 57.5776L200.241 57.236L200.583 58.1744L199.644 58.516L199.303 57.5776ZM201.352 63.2081L202.29 62.8665L201.949 61.9281L201.607 60.9897L202.546 60.6481L202.887 61.5866L203.826 61.245L204.764 60.9034L205.106 61.8419L206.044 61.5003L206.386 62.4387L206.727 63.3771L207.069 64.3156L207.41 65.254L207.752 66.1924L208.093 67.1308L207.155 67.4724L206.813 66.534L205.875 66.8755L205.533 65.9371L204.595 66.2786L204.253 65.3402L205.192 64.9987L206.13 64.6571L205.789 63.7187L205.447 62.7803L204.509 63.1218L203.57 63.4634L202.632 63.8049L201.694 64.1465L201.352 63.2081ZM197.509 49.7287L198.447 49.3871L198.789 50.3255L197.85 50.6671L197.509 49.7287ZM198.875 53.4824L199.813 53.1408L200.752 52.7992L201.093 53.7377L202.032 53.3961L201.69 52.4577L200.752 52.7992L200.41 51.8608L200.069 50.9224L199.13 51.264L198.789 50.3255L199.727 49.984L200.665 49.6424L200.324 48.704L201.262 48.3625L201.604 49.3009L201.945 50.2393L202.287 51.1777L202.628 52.1161L202.97 53.0545L203.312 53.993L203.653 54.9314L203.995 55.8698L204.336 56.8082L203.398 57.1498L203.056 56.2114L202.118 56.5529L201.776 55.6145L200.838 55.956L200.496 55.0176L200.155 54.0792L199.216 54.4208L198.875 53.4824ZM200.583 58.1744L201.521 57.8329L201.179 56.8945L202.118 56.5529L202.459 57.4913L203.398 57.1498L203.739 58.0882L204.678 57.7466L205.019 58.6851L204.081 59.0266L203.143 59.3682L202.204 59.7097L201.863 58.7713L200.924 59.1129L200.583 58.1744ZM205.278 68.1555L206.217 67.8139L207.155 67.4724L207.497 68.4108L208.435 68.0692L208.776 69.0076L207.838 69.3492L206.9 69.6908L206.558 68.7523L205.62 69.0939L205.278 68.1555ZM204.423 59.965L205.361 59.6235L205.702 60.5619L204.764 60.9034L204.423 59.965Z" fill="black"/>
<path d="M205.871 72.2181C206.061 72.1449 206.024 71.9451 205.983 71.8334C205.923 71.6681 205.818 71.6411 205.712 71.6679C205.606 71.7699 205.548 71.8989 205.59 72.0501C205.597 72.075 205.608 72.1075 205.624 72.1446C205.666 72.2434 205.756 72.2622 205.871 72.2181ZM206.947 72.0863C206.809 72.1362 206.634 72.1043 206.57 71.9489C206.474 72.1709 206.262 72.3371 205.955 72.449C205.645 72.5618 205.439 72.3976 205.379 72.233C205.187 71.6815 205.1 71.4805 205.082 71.4393C205.08 71.4356 205.079 71.4332 205.078 71.4319L205.078 71.4305C205.069 71.4099 205.057 71.3792 205.036 71.3843C205.024 71.3874 205.017 71.3941 205.009 71.4169C204.998 71.4529 204.959 71.4796 204.928 71.4741C204.89 71.4673 204.869 71.4292 204.872 71.3863C204.88 71.2714 204.935 71.2019 205.031 71.1685C205.197 71.1107 205.284 71.2013 205.333 71.3362C205.333 71.3362 205.4 71.5317 205.44 71.6411C205.481 71.5721 205.548 71.4898 205.692 71.4376C205.99 71.3289 206.314 71.6296 206.248 72.0543C206.456 71.8482 206.436 71.6309 206.374 71.4304L206.349 71.3643C206.322 71.2897 206.347 71.209 206.422 71.1818C206.497 71.1546 206.571 71.2039 206.594 71.276C206.672 71.5191 206.726 71.6782 206.757 71.7617C206.774 71.81 206.828 71.8744 206.906 71.846C207.058 71.7904 207.065 71.6524 206.974 71.3666C206.937 71.2615 206.906 71.1736 206.906 71.1736C206.836 71.1988 206.789 71.1748 206.772 71.1294C206.756 71.0839 206.777 71.0287 206.836 71.0071C206.836 71.0071 206.778 70.849 206.755 70.7835C206.727 70.7089 206.763 70.626 206.838 70.5988C206.913 70.5715 206.995 70.6117 207.022 70.6863C207.031 70.711 207.04 70.7402 207.051 70.7725C207.064 70.8137 207.079 70.8599 207.097 70.9082L207.108 70.9042C207.128 70.8968 207.174 70.8799 207.235 70.857C207.307 70.8296 207.352 70.8595 207.37 70.9104C207.389 70.9613 207.363 71.0111 207.312 71.0299C207.264 71.0474 207.16 71.0849 207.16 71.0849C207.21 71.2374 207.271 71.4208 207.324 71.5663C207.343 71.6188 207.401 71.6656 207.489 71.6337C207.666 71.5693 207.675 71.3882 207.579 71.0852C207.503 70.878 207.457 70.7586 207.422 70.6687C207.397 70.6056 207.378 70.557 207.359 70.5027C207.332 70.4281 207.369 70.3389 207.444 70.3116C207.519 70.2844 207.596 70.3241 207.623 70.3987C207.644 70.4561 207.666 70.5241 207.697 70.6169C207.748 70.7737 207.822 71.0013 207.952 71.3682C207.969 71.4171 208.005 71.4428 208.068 71.4198C208.237 71.3584 208.217 71.1588 208.139 70.8983C208.135 70.886 208.131 70.8739 208.127 70.8621C208.118 70.8378 208.11 70.8144 208.101 70.7916C208.074 70.717 208.102 70.6386 208.177 70.6113C208.252 70.5841 208.318 70.6299 208.345 70.7045C208.365 70.7576 208.381 70.8079 208.398 70.8598C208.413 70.9056 208.428 70.9527 208.446 71.0041C208.493 71.1362 208.58 71.2358 208.689 71.1956C208.794 71.157 208.894 71.0707 208.815 70.8442C208.793 70.7812 208.774 70.7334 208.756 70.6851C208.742 70.6494 208.728 70.6134 208.712 70.5709C208.685 70.4963 208.715 70.4155 208.79 70.3883C208.864 70.361 208.939 70.4039 208.966 70.4785C208.982 70.5231 208.997 70.5681 209.013 70.618C209.033 70.68 209.056 70.7495 209.087 70.8352C209.087 70.8352 209.196 71.1492 209.232 71.2143C209.262 71.1904 209.299 71.1387 209.322 71.0383C209.336 70.9776 209.393 70.945 209.438 70.9532C209.5 70.9644 209.52 71.0236 209.516 71.0734C209.507 71.2018 209.467 71.2929 209.324 71.4081C209.393 71.5952 209.48 71.8761 209.152 72.052C208.871 72.2027 208.675 72.0796 208.621 71.9335C208.536 71.7027 208.743 71.5514 209.045 71.3463L208.993 71.2357C208.993 71.2357 208.954 71.36 208.764 71.4238C208.618 71.4729 208.493 71.4407 208.398 71.366C208.369 71.5061 208.28 71.6014 208.115 71.6614C208.007 71.7009 207.882 71.6812 207.801 71.6167C207.758 71.7346 207.671 71.8219 207.529 71.8735C207.406 71.9184 207.299 71.9089 207.22 71.8623C207.178 71.9667 207.088 72.0347 206.947 72.0863ZM209.134 71.5226C208.979 71.6203 208.787 71.7502 208.827 71.853C208.865 71.9494 208.972 71.9306 209.049 71.8828C209.21 71.7836 209.192 71.6716 209.134 71.5226ZM206.469 70.8877C206.442 70.8125 206.359 70.7738 206.283 70.8013C206.208 70.8289 206.169 70.912 206.196 70.9872C206.223 71.0625 206.307 71.1012 206.382 71.0736C206.458 71.0461 206.497 70.963 206.469 70.8877Z" fill="black"/>
<path d="M167.562 52.1265L168.5 51.7849L169.439 51.4434L170.377 51.1018L171.316 50.7602L172.254 50.4187L173.193 50.0771L174.131 49.7356L174.472 50.674L174.814 51.6124L175.156 52.5508L175.497 53.4892L175.839 54.4277L176.18 55.3661L176.522 56.3045L175.583 56.6461L174.645 56.9876L173.707 57.3292L172.768 57.6707L171.83 58.0123L170.891 58.3538L169.953 58.6954L169.611 57.757L169.27 56.8186L168.928 55.8801L168.587 54.9417L168.245 54.0033L167.904 53.0649L167.562 52.1265ZM168.842 52.7233L169.184 53.6617L169.525 54.6002L169.867 55.5386L170.208 56.477L170.55 57.4154L171.488 57.0739L172.427 56.7323L173.365 56.3907L174.303 56.0492L175.242 55.7076L174.9 54.7692L174.559 53.8308L174.217 52.8924L173.876 51.954L173.534 51.0155L172.596 51.3571L171.657 51.6987L170.719 52.0402L169.78 52.3818L168.842 52.7233Z" fill="black"/>
<path d="M170.126 53.3228L171.065 52.9812L172.003 52.6396L172.942 52.2981L173.283 53.2365L173.625 54.1749L173.966 55.1133L173.028 55.4549L172.089 55.7965L171.151 56.138L170.809 55.1996L170.468 54.2612L170.126 53.3228Z" fill="black"/>
<path d="M191.96 43.2468L192.898 42.9053L193.836 42.5637L194.775 42.2222L195.713 41.8806L196.652 41.539L197.59 41.1975L198.529 40.8559L198.87 41.7944L199.212 42.7328L199.553 43.6712L199.895 44.6096L200.236 45.548L200.578 46.4864L200.919 47.4249L199.981 47.7664L199.043 48.108L198.104 48.4495L197.166 48.7911L196.227 49.1326L195.289 49.4742L194.35 49.8158L194.009 48.8773L193.667 47.9389L193.326 47.0005L192.984 46.0621L192.643 45.1237L192.301 44.1852L191.96 43.2468ZM193.24 43.8437L193.581 44.7821L193.923 45.7205L194.264 46.6589L194.606 47.5974L194.947 48.5358L195.886 48.1942L196.824 47.8527L197.763 47.5111L198.701 47.1696L199.639 46.828L199.298 45.8896L198.956 44.9512L198.615 44.0127L198.273 43.0743L197.932 42.1359L196.993 42.4775L196.055 42.819L195.116 43.1606L194.178 43.5021L193.24 43.8437Z" fill="black"/>
<path d="M194.524 44.4414L195.462 44.0999L196.401 43.7583L197.339 43.4167L197.681 44.3552L198.022 45.2936L198.364 46.232L197.425 46.5735L196.487 46.9151L195.548 47.2567L195.207 46.3182L194.865 45.3798L194.524 44.4414Z" fill="black"/>
<path d="M176.442 76.5259L177.381 76.1843L178.319 75.8428L179.258 75.5012L180.196 75.1597L181.134 74.8181L182.073 74.4765L183.011 74.135L183.353 75.0734L183.694 76.0118L184.036 76.9502L184.378 77.8887L184.719 78.8271L185.061 79.7655L185.402 80.7039L184.464 81.0455L183.525 81.387L182.587 81.7286L181.649 82.0701L180.71 82.4117L179.772 82.7533L178.833 83.0948L178.492 82.1564L178.15 81.218L177.809 80.2796L177.467 79.3411L177.125 78.4027L176.784 77.4643L176.442 76.5259ZM177.722 77.1227L178.064 78.0612L178.405 78.9996L178.747 79.938L179.089 80.8764L179.43 81.8148L180.369 81.4733L181.307 81.1317L182.245 80.7902L183.184 80.4486L184.122 80.1071L183.781 79.1686L183.439 78.2302L183.098 77.2918L182.756 76.3534L182.414 75.415L181.476 75.7565L180.538 76.0981L179.599 76.4396L178.661 76.7812L177.722 77.1227Z" fill="black"/>
<path d="M179.006 77.72L179.945 77.3784L180.883 77.0369L181.821 76.6953L182.163 77.6337L182.504 78.5721L182.846 79.5106L181.908 79.8521L180.969 80.1937L180.031 80.5352L179.689 79.5968L179.348 78.6584L179.006 77.72Z" fill="black"/>
</g>
</g>
<rect x="129.206" y="61.2373" width="23.0687" height="4.61373" transform="rotate(-20 129.206 61.2373)" fill="#D9D9D9"/>
<rect x="131.573" y="67.7405" width="23.0687" height="0.768956" transform="rotate(-20 131.573 67.7405)" fill="#D9D9D9"/>
<rect x="132.625" y="70.6309" width="23.0687" height="4.61373" transform="rotate(-20 132.625 70.6309)" fill="#D9D9D9"/>
<rect x="134.992" y="77.134" width="23.0687" height="0.768956" transform="rotate(-20 134.992 77.134)" fill="#D9D9D9"/>
<rect x="136.044" y="80.0244" width="23.0687" height="3.07582" transform="rotate(-20 136.044 80.0244)" fill="#D9D9D9"/>
<rect x="137.885" y="85.0825" width="23.0687" height="3.07582" transform="rotate(-20 137.885 85.0825)" fill="#D9D9D9"/>
<rect x="139.726" y="90.1406" width="23.0687" height="4.61373" transform="rotate(-20 139.726 90.1406)" fill="#D9D9D9"/>
<rect x="142.093" y="96.6438" width="23.0687" height="2.30687" transform="rotate(-20 142.093 96.6438)" fill="#D9D9D9"/>
</g>
<rect x="23.707" y="90.6348" width="193.777" height="58.4406" transform="rotate(-20 23.707 90.6348)" stroke="#C2C2C2" stroke-width="0.768956" stroke-dasharray="3.08 3.08"/>
</g>
<defs>
<filter id="filter0_d_1_5543" x="0.0507812" y="0.704102" width="273.39" height="192.501" filterUnits="userSpaceOnUse" color-interpolation-filters="sRGB">
<feFlood flood-opacity="0" result="BackgroundImageFix"/>
<feColorMatrix in="SourceAlpha" type="matrix" values="0 0 0 0 0 0 0 0 0 0 0 0 0 0 0 0 0 0 127 0" result="hardAlpha"/>
<feOffset dx="24" dy="24"/>
<feComposite in2="hardAlpha" operator="out"/>
<feColorMatrix type="matrix" values="0 0 0 0 0 0 0 0 0 0 0 0 0 0 0 0 0 0 1 0"/>
<feBlend mode="normal" in2="BackgroundImageFix" result="effect1_dropShadow_1_5543"/>
<feBlend mode="normal" in="SourceGraphic" in2="effect1_dropShadow_1_5543" result="shape"/>
</filter>
<clipPath id="clip0_1_5543">
<rect x="23.707" y="90.6348" width="193.777" height="58.4406" transform="rotate(-20 23.707 90.6348)" fill="white"/>
</clipPath>
<clipPath id="clip1_1_5543">
<rect x="161.23" y="49.1726" width="42.2926" height="42.2926" rx="2.19702" transform="rotate(-20 161.23 49.1726)" fill="white"/>
</clipPath>
<clipPath id="clip2_1_5543">
<rect width="32.9552" height="32.9552" fill="white" transform="translate(167.563 52.127) rotate(-20)"/>
</clipPath>
</defs>
</svg>
