<svg width="274" height="208" viewBox="0 0 274 208" fill="none" xmlns="http://www.w3.org/2000/svg">
<g filter="url(#filter0_d_1_5592)">
<mask id="path-1-inside-1_1_5592" fill="white">
<path d="M136.474 44.8477C134.32 49.4663 136.319 54.9566 140.937 57.1104C145.412 59.1969 150.704 57.3867 152.989 53.0723L153.2 52.6472L249.374 97.4938L245.474 105.857C243.165 104.78 240.42 105.779 239.343 108.088C238.299 110.325 239.205 112.972 241.362 114.114L241.575 114.22L238.325 121.189C236.016 120.112 233.27 121.111 232.193 123.42C231.15 125.657 232.055 128.304 234.213 129.446L234.425 129.552L231.175 136.521C228.866 135.444 226.121 136.443 225.044 138.752C224.001 140.989 224.906 143.636 227.063 144.778L227.276 144.884L224.026 151.853C221.717 150.776 218.971 151.775 217.894 154.084C216.851 156.321 217.756 158.968 219.914 160.11L220.126 160.216L216.877 167.185C214.567 166.108 211.822 167.107 210.745 169.416C209.702 171.653 210.607 174.3 212.764 175.442L212.977 175.548L209.077 183.911L112.903 139.064C115.057 134.445 113.059 128.955 108.44 126.801C103.821 124.648 98.3309 126.646 96.1772 131.265L0.00412573 86.4184L3.90385 78.0555C6.21317 79.1322 8.95814 78.1325 10.035 75.8232C11.0779 73.5861 10.1731 70.9403 8.01617 69.7981L7.80358 69.6925L11.0533 62.7234C13.3626 63.8002 16.1076 62.8005 17.1844 60.4912C18.2274 58.2541 17.3226 55.6083 15.1656 54.4661L14.953 54.3605L18.2027 47.3914C20.512 48.4682 23.257 47.4685 24.3338 45.1592C25.3768 42.9221 24.472 40.2763 22.315 39.1341L22.1024 39.0285L25.3521 32.0594C27.6615 33.1362 30.4064 32.1365 31.4833 29.8272C32.5263 27.5901 31.6214 24.9443 29.4645 23.8021L29.2519 23.6965L32.5016 16.7274C34.8109 17.8042 37.5559 16.8045 38.6327 14.4952C39.6757 12.2581 38.7709 9.61227 36.6139 8.47005L36.4013 8.36446L40.301 0.00146484L136.474 44.8477Z"/>
</mask>
<path d="M136.474 44.8477C134.32 49.4663 136.319 54.9566 140.937 57.1104C145.412 59.1969 150.704 57.3867 152.989 53.0723L153.2 52.6472L249.374 97.4938L245.474 105.857C243.165 104.78 240.42 105.779 239.343 108.088C238.299 110.325 239.205 112.972 241.362 114.114L241.575 114.22L238.325 121.189C236.016 120.112 233.27 121.111 232.193 123.42C231.15 125.657 232.055 128.304 234.213 129.446L234.425 129.552L231.175 136.521C228.866 135.444 226.121 136.443 225.044 138.752C224.001 140.989 224.906 143.636 227.063 144.778L227.276 144.884L224.026 151.853C221.717 150.776 218.971 151.775 217.894 154.084C216.851 156.321 217.756 158.968 219.914 160.11L220.126 160.216L216.877 167.185C214.567 166.108 211.822 167.107 210.745 169.416C209.702 171.653 210.607 174.3 212.764 175.442L212.977 175.548L209.077 183.911L112.903 139.064C115.057 134.445 113.059 128.955 108.44 126.801C103.821 124.648 98.3309 126.646 96.1772 131.265L0.00412573 86.4184L3.90385 78.0555C6.21317 79.1322 8.95814 78.1325 10.035 75.8232C11.0779 73.5861 10.1731 70.9403 8.01617 69.7981L7.80358 69.6925L11.0533 62.7234C13.3626 63.8002 16.1076 62.8005 17.1844 60.4912C18.2274 58.2541 17.3226 55.6083 15.1656 54.4661L14.953 54.3605L18.2027 47.3914C20.512 48.4682 23.257 47.4685 24.3338 45.1592C25.3768 42.9221 24.472 40.2763 22.315 39.1341L22.1024 39.0285L25.3521 32.0594C27.6615 33.1362 30.4064 32.1365 31.4833 29.8272C32.5263 27.5901 31.6214 24.9443 29.4645 23.8021L29.2519 23.6965L32.5016 16.7274C34.8109 17.8042 37.5559 16.8045 38.6327 14.4952C39.6757 12.2581 38.7709 9.61227 36.6139 8.47005L36.4013 8.36446L40.301 0.00146484L136.474 44.8477Z" fill="#1B3E18"/>
<path d="M136.474 44.8477L137.171 45.1727L137.496 44.4758L136.799 44.1508L136.474 44.8477ZM140.937 57.1104L140.612 57.8073L140.612 57.8073L140.937 57.1104ZM152.989 53.0723L153.668 53.4322L153.673 53.4234L153.678 53.4144L152.989 53.0723ZM153.2 52.6472L153.525 51.9502L152.845 51.6332L152.511 52.3051L153.2 52.6472ZM249.374 97.4938L250.071 97.8188L250.396 97.1219L249.699 96.7969L249.374 97.4938ZM245.474 105.857L245.149 106.554L245.846 106.879L246.171 106.182L245.474 105.857ZM239.343 108.088L238.646 107.763L238.646 107.763L239.343 108.088ZM241.362 114.114L241.002 114.794L241.011 114.798L241.02 114.803L241.362 114.114ZM241.575 114.22L242.271 114.545L242.589 113.865L241.917 113.531L241.575 114.22ZM238.325 121.189L238 121.886L238.697 122.211L239.022 121.514L238.325 121.189ZM232.193 123.42L231.496 123.095L231.496 123.095L232.193 123.42ZM234.213 129.446L233.853 130.126L233.862 130.13L233.87 130.135L234.213 129.446ZM234.425 129.552L235.122 129.877L235.439 129.197L234.767 128.863L234.425 129.552ZM231.175 136.521L230.85 137.218L231.547 137.543L231.872 136.846L231.175 136.521ZM225.044 138.752L224.347 138.427L224.347 138.427L225.044 138.752ZM227.063 144.778L226.703 145.458L226.712 145.462L226.721 145.467L227.063 144.778ZM227.276 144.884L227.973 145.209L228.29 144.529L227.618 144.195L227.276 144.884ZM224.026 151.853L223.701 152.55L224.398 152.875L224.723 152.178L224.026 151.853ZM217.894 154.084L217.198 153.759L217.197 153.759L217.894 154.084ZM219.914 160.11L219.554 160.79L219.563 160.794L219.572 160.799L219.914 160.11ZM220.126 160.216L220.823 160.541L221.14 159.861L220.468 159.527L220.126 160.216ZM216.877 167.185L216.552 167.882L217.248 168.207L217.573 167.51L216.877 167.185ZM210.745 169.416L210.048 169.091L210.048 169.091L210.745 169.416ZM212.764 175.442L212.404 176.122L212.413 176.126L212.422 176.131L212.764 175.442ZM212.977 175.548L213.674 175.873L213.991 175.193L213.319 174.859L212.977 175.548ZM209.077 183.911L208.752 184.608L209.449 184.933L209.774 184.236L209.077 183.911ZM112.903 139.064L112.206 138.739L111.881 139.436L112.578 139.761L112.903 139.064ZM108.44 126.801L108.765 126.105L108.765 126.104L108.44 126.801ZM96.1772 131.265L95.8522 131.962L96.5491 132.287L96.8741 131.59L96.1772 131.265ZM0.00412573 86.4184L-0.692785 86.0935L-1.01776 86.7904L-0.32085 87.1154L0.00412573 86.4184ZM3.90385 78.0555L4.2288 77.3585L3.5319 77.0336L3.20694 77.7305L3.90385 78.0555ZM10.035 75.8232L10.7319 76.1481L10.7319 76.1481L10.035 75.8232ZM8.01617 69.7981L8.37603 69.1185L8.3672 69.1138L8.35825 69.1094L8.01617 69.7981ZM7.80358 69.6925L7.10667 69.3675L6.78962 70.0474L7.4615 70.3811L7.80358 69.6925ZM11.0533 62.7234L11.3782 62.0265L10.6813 61.7016L10.3564 62.3985L11.0533 62.7234ZM17.1844 60.4912L17.8813 60.8161L17.8813 60.8161L17.1844 60.4912ZM15.1656 54.4661L15.5255 53.7865L15.5166 53.7818L15.5077 53.7774L15.1656 54.4661ZM14.953 54.3605L14.2561 54.0355L13.939 54.7154L14.6109 55.0491L14.953 54.3605ZM18.2027 47.3914L18.5277 46.6945L17.8308 46.3696L17.5058 47.0665L18.2027 47.3914ZM24.3338 45.1592L25.0307 45.4841L25.0308 45.4841L24.3338 45.1592ZM22.315 39.1341L22.6749 38.4545L22.6661 38.4498L22.6571 38.4454L22.315 39.1341ZM22.1024 39.0285L21.4055 38.7035L21.0885 39.3834L21.7604 39.7171L22.1024 39.0285ZM25.3521 32.0594L25.6771 31.3625L24.9802 31.0376L24.6552 31.7345L25.3521 32.0594ZM31.4833 29.8272L32.1802 30.1521L32.1802 30.1521L31.4833 29.8272ZM29.4645 23.8021L29.8243 23.1225L29.8155 23.1178L29.8065 23.1134L29.4645 23.8021ZM29.2519 23.6965L28.555 23.3715L28.2379 24.0514L28.9098 24.3851L29.2519 23.6965ZM32.5016 16.7274L32.8265 16.0305L32.1296 15.7056L31.8047 16.4025L32.5016 16.7274ZM38.6327 14.4952L39.3296 14.8201L39.3296 14.8201L38.6327 14.4952ZM36.6139 8.47005L36.9737 7.7905L36.9649 7.78582L36.956 7.78138L36.6139 8.47005ZM36.4013 8.36446L35.7044 8.03948L35.3873 8.7194L36.0592 9.05313L36.4013 8.36446ZM40.301 0.00146484L40.626 -0.695446L39.9291 -1.02042L39.6041 -0.32351L40.301 0.00146484ZM136.474 44.8477L135.777 44.5227C133.444 49.5262 135.609 55.474 140.612 57.8073L140.937 57.1104L141.262 56.4135C137.029 54.4392 135.197 49.4064 137.171 45.1727L136.474 44.8477ZM140.937 57.1104L140.612 57.8073C145.46 60.0677 151.193 58.1067 153.668 53.4322L152.989 53.0723L152.309 52.7125C150.216 56.6668 145.364 58.326 141.262 56.4135L140.937 57.1104ZM152.989 53.0723L153.678 53.4144L153.889 52.9892L153.2 52.6472L152.511 52.3051L152.3 52.7303L152.989 53.0723ZM153.2 52.6472L152.875 53.3441L249.049 98.1907L249.374 97.4938L249.699 96.7969L153.525 51.9502L153.2 52.6472ZM249.374 97.4938L248.677 97.1688L244.777 105.532L245.474 105.857L246.171 106.182L250.071 97.8188L249.374 97.4938ZM245.474 105.857L245.799 105.16C243.105 103.904 239.902 105.069 238.646 107.763L239.343 108.088L240.04 108.413C240.937 106.489 243.225 105.656 245.149 106.554L245.474 105.857ZM239.343 108.088L238.646 107.763C237.429 110.373 238.485 113.461 241.002 114.794L241.362 114.114L241.722 113.435C239.925 112.483 239.17 110.277 240.04 108.413L239.343 108.088ZM241.362 114.114L241.02 114.803L241.232 114.908L241.575 114.22L241.917 113.531L241.704 113.426L241.362 114.114ZM241.575 114.22L240.878 113.895L237.628 120.864L238.325 121.189L239.022 121.514L242.271 114.545L241.575 114.22ZM238.325 121.189L238.65 120.492C235.956 119.236 232.753 120.401 231.496 123.095L232.193 123.42L232.89 123.745C233.788 121.821 236.075 120.988 238 121.886L238.325 121.189ZM232.193 123.42L231.496 123.095C230.279 125.705 231.335 128.793 233.853 130.126L234.213 129.446L234.572 128.767C232.775 127.815 232.021 125.609 232.89 123.745L232.193 123.42ZM234.213 129.446L233.87 130.135L234.083 130.24L234.425 129.552L234.767 128.863L234.555 128.758L234.213 129.446ZM234.425 129.552L233.728 129.227L230.479 136.196L231.175 136.521L231.872 136.846L235.122 129.877L234.425 129.552ZM231.175 136.521L231.5 135.824C228.806 134.568 225.603 135.733 224.347 138.427L225.044 138.752L225.741 139.077C226.638 137.153 228.926 136.32 230.85 137.218L231.175 136.521ZM225.044 138.752L224.347 138.427C223.13 141.037 224.186 144.125 226.703 145.458L227.063 144.778L227.423 144.099C225.626 143.147 224.871 140.941 225.741 139.077L225.044 138.752ZM227.063 144.778L226.721 145.467L226.934 145.572L227.276 144.884L227.618 144.195L227.405 144.09L227.063 144.778ZM227.276 144.884L226.579 144.559L223.329 151.528L224.026 151.853L224.723 152.178L227.973 145.209L227.276 144.884ZM224.026 151.853L224.351 151.156C221.657 149.9 218.454 151.065 217.198 153.759L217.894 154.084L218.591 154.409C219.489 152.485 221.777 151.652 223.701 152.55L224.026 151.853ZM217.894 154.084L217.197 153.759C215.98 156.369 217.036 159.457 219.554 160.79L219.914 160.11L220.273 159.431C218.476 158.479 217.722 156.273 218.591 154.409L217.894 154.084ZM219.914 160.11L219.572 160.799L219.784 160.904L220.126 160.216L220.468 159.527L220.256 159.422L219.914 160.11ZM220.126 160.216L219.429 159.891L216.18 166.86L216.877 167.185L217.573 167.51L220.823 160.541L220.126 160.216ZM216.877 167.185L217.202 166.488C214.508 165.232 211.305 166.397 210.048 169.091L210.745 169.416L211.442 169.741C212.339 167.817 214.627 166.984 216.552 167.882L216.877 167.185ZM210.745 169.416L210.048 169.091C208.831 171.701 209.887 174.789 212.404 176.122L212.764 175.442L213.124 174.763C211.327 173.811 210.573 171.605 211.442 169.741L210.745 169.416ZM212.764 175.442L212.422 176.131L212.635 176.236L212.977 175.548L213.319 174.859L213.106 174.754L212.764 175.442ZM212.977 175.548L212.28 175.223L208.38 183.586L209.077 183.911L209.774 184.236L213.674 175.873L212.977 175.548ZM209.077 183.911L209.402 183.214L113.228 138.367L112.903 139.064L112.578 139.761L208.752 184.608L209.077 183.911ZM112.903 139.064L113.6 139.389C115.933 134.385 113.768 128.438 108.765 126.105L108.44 126.801L108.115 127.498C112.349 129.473 114.181 134.505 112.206 138.739L112.903 139.064ZM108.44 126.801L108.765 126.104C103.761 123.772 97.8135 125.936 95.4803 130.94L96.1772 131.265L96.8741 131.59C98.8483 127.356 103.881 125.524 108.115 127.498L108.44 126.801ZM96.1772 131.265L96.5022 130.568L0.329102 85.7215L0.00412573 86.4184L-0.32085 87.1154L95.8522 131.962L96.1772 131.265ZM0.00412573 86.4184L0.701036 86.7434L4.60076 78.3804L3.90385 78.0555L3.20694 77.7305L-0.692785 86.0935L0.00412573 86.4184ZM3.90385 78.0555L3.57891 78.7524C6.27326 80.0086 9.47564 78.8422 10.7319 76.1481L10.035 75.8232L9.33806 75.4982C8.44063 77.4228 6.15308 78.2557 4.2288 77.3585L3.90385 78.0555ZM10.035 75.8232L10.7319 76.1481C11.9487 73.538 10.8931 70.4514 8.37603 69.1185L8.01617 69.7981L7.65632 70.4776C9.45315 71.4291 10.2071 73.6342 9.33804 75.4983L10.035 75.8232ZM8.01617 69.7981L8.35825 69.1094L8.14566 69.0038L7.80358 69.6925L7.4615 70.3811L7.6741 70.4867L8.01617 69.7981ZM7.80358 69.6925L8.50049 70.0174L11.7502 63.0484L11.0533 62.7234L10.3564 62.3985L7.10667 69.3675L7.80358 69.6925ZM11.0533 62.7234L10.7283 63.4204C13.4227 64.6766 16.6251 63.5102 17.8813 60.8161L17.1844 60.4912L16.4875 60.1662C15.5901 62.0907 13.3025 62.9237 11.3782 62.0265L11.0533 62.7234ZM17.1844 60.4912L17.8813 60.8161C19.0982 58.206 18.0425 55.1194 15.5255 53.7865L15.1656 54.4661L14.8058 55.1456C16.6026 56.0971 17.3565 58.3022 16.4875 60.1662L17.1844 60.4912ZM15.1656 54.4661L15.5077 53.7774L15.2951 53.6718L14.953 54.3605L14.6109 55.0491L14.8235 55.1547L15.1656 54.4661ZM14.953 54.3605L15.6499 54.6854L18.8996 47.7164L18.2027 47.3914L17.5058 47.0665L14.2561 54.0355L14.953 54.3605ZM18.2027 47.3914L17.8778 48.0884C20.5721 49.3446 23.7745 48.1782 25.0307 45.4841L24.3338 45.1592L23.6369 44.8342C22.7395 46.7588 20.4519 47.5917 18.5277 46.6945L18.2027 47.3914ZM24.3338 45.1592L25.0308 45.4841C26.2476 42.874 25.192 39.7874 22.6749 38.4545L22.315 39.1341L21.9552 39.8136C23.752 40.7651 24.506 42.9702 23.6369 44.8342L24.3338 45.1592ZM22.315 39.1341L22.6571 38.4454L22.4445 38.3398L22.1024 39.0285L21.7604 39.7171L21.973 39.8227L22.315 39.1341ZM22.1024 39.0285L22.7993 39.3534L26.0491 32.3844L25.3521 32.0594L24.6552 31.7345L21.4055 38.7035L22.1024 39.0285ZM25.3521 32.0594L25.0272 32.7564C27.7216 34.0126 30.9239 32.8462 32.1802 30.1521L31.4833 29.8272L30.7864 29.5022C29.8889 31.4268 27.6014 32.2597 25.6771 31.3625L25.3521 32.0594ZM31.4833 29.8272L32.1802 30.1521C33.3971 27.542 32.3414 24.4554 29.8243 23.1225L29.4645 23.8021L29.1046 24.4816C30.9015 25.4331 31.6554 27.6382 30.7863 29.5022L31.4833 29.8272ZM29.4645 23.8021L29.8065 23.1134L29.5939 23.0078L29.2519 23.6965L28.9098 24.3851L29.1224 24.4907L29.4645 23.8021ZM29.2519 23.6965L29.9488 24.0214L33.1985 17.0524L32.5016 16.7274L31.8047 16.4025L28.555 23.3715L29.2519 23.6965ZM32.5016 16.7274L32.1766 17.4244C34.871 18.6806 38.0734 17.5142 39.3296 14.8201L38.6327 14.4952L37.9358 14.1702C37.0383 16.0947 34.7508 16.9277 32.8265 16.0305L32.5016 16.7274ZM38.6327 14.4952L39.3296 14.8201C40.5465 12.21 39.4908 9.12341 36.9737 7.7905L36.6139 8.47005L36.254 9.14961C38.0509 10.1011 38.8049 12.3061 37.9358 14.1702L38.6327 14.4952ZM36.6139 8.47005L36.956 7.78138L36.7434 7.67578L36.4013 8.36446L36.0592 9.05313L36.2718 9.15873L36.6139 8.47005ZM36.4013 8.36446L37.0982 8.68943L40.9979 0.32644L40.301 0.00146484L39.6041 -0.32351L35.7044 8.03948L36.4013 8.36446ZM40.301 0.00146484L39.9761 0.698375L136.149 45.5446L136.474 44.8477L136.799 44.1508L40.626 -0.695446L40.301 0.00146484Z" fill="black" mask="url(#path-1-inside-1_1_5592)"/>
<g clip-path="url(#clip0_1_5592)">
<rect x="49.2255" y="24.5264" width="193.777" height="58.4406" transform="rotate(25 49.2255 24.5264)" fill="#1B3E18"/>
<line x1="139.659" y1="60.757" x2="107.162" y2="130.448" stroke="#C2C2C2" stroke-width="0.768956" stroke-dasharray="3.08 3.08"/>
<path d="M52.3135 42.1131C51.8868 41.9142 51.5608 41.6534 51.3354 41.3306C51.1159 41.0057 51.0015 40.6357 50.9922 40.2208C50.9848 39.8018 51.0928 39.3526 51.3164 38.8732C51.5381 38.3978 51.8088 38.0294 52.1286 37.768C52.4502 37.5024 52.8061 37.3493 53.196 37.3086C53.5901 37.2697 54.0045 37.3517 54.4392 37.5544C54.8699 37.7552 55.198 38.017 55.4234 38.3398C55.6488 38.6626 55.7653 39.0334 55.7727 39.4524C55.782 39.8673 55.6749 40.3145 55.4513 40.7939C55.2297 41.2693 54.958 41.6398 54.6363 41.9053C54.3147 42.1708 53.9568 42.323 53.5628 42.3618C53.1687 42.4007 52.7523 42.3178 52.3135 42.1131ZM52.6204 41.4549C53.0308 41.6463 53.4122 41.6609 53.7648 41.4989C54.1233 41.3346 54.4286 40.9823 54.6806 40.442C54.9193 39.93 54.9953 39.4807 54.9085 39.0939C54.8236 38.7032 54.5658 38.4074 54.1351 38.2065C53.7329 38.019 53.3525 38.0073 52.994 38.1715C52.6373 38.3317 52.333 38.682 52.081 39.2223C51.8442 39.7302 51.7682 40.1796 51.8531 40.5703C51.938 40.9611 52.1938 41.256 52.6204 41.4549ZM55.0078 43.2953L58.8531 39.6794L59.6941 40.0716L59.3959 45.3415L58.628 44.9834L58.7105 43.7086L56.681 42.7622L55.7574 43.6449L55.0078 43.2953ZM58.4286 41.099L57.2118 42.2604L58.7598 42.9822L58.8735 41.3064C58.8856 41.0895 58.907 40.8472 58.9378 40.5796C58.7586 40.773 58.5888 40.9462 58.4286 41.099ZM60.8748 44.0946L62.2049 41.2424L62.9301 41.5805L61.6228 44.384C61.4485 44.7578 61.4291 45.0753 61.5646 45.3363C61.702 45.5933 61.9454 45.8032 62.2948 45.9662C62.6971 46.1538 63.0311 46.1958 63.2971 46.0922C63.5671 45.9906 63.7769 45.7793 63.9266 45.4583L65.2339 42.6548L65.953 42.9901L64.623 45.8424C64.4676 46.1756 64.2611 46.4329 64.0033 46.6145C63.7474 46.7919 63.4471 46.8844 63.1023 46.8918C62.7616 46.9011 62.3861 46.8101 61.9757 46.6187C61.3947 46.3478 61.0039 45.9924 60.8033 45.5527C60.6047 45.1088 60.6285 44.6228 60.8748 44.0946ZM68.8634 49.8305C68.4287 49.6278 68.1025 49.3619 67.8849 49.0329C67.6674 48.7039 67.5569 48.3309 67.5535 47.9138C67.5501 47.4967 67.6574 47.0546 67.8753 46.5873C68.0988 46.1079 68.3746 45.7393 68.7025 45.4817C69.0323 45.2199 69.3933 45.0717 69.7854 45.0369C70.1816 45.004 70.591 45.0861 71.0136 45.2831C71.3792 45.4537 71.6679 45.6674 71.8795 45.9244C72.097 46.1791 72.234 46.4582 72.2904 46.7615C72.3509 47.0667 72.3304 47.3812 72.229 47.7048L71.4493 47.4674C71.544 47.1158 71.5216 46.8086 71.382 46.5457C71.2465 46.2846 71.0203 46.0802 70.7034 45.9324C70.2646 45.7278 69.8673 45.7206 69.5114 45.9108C69.1616 46.0989 68.8701 46.4428 68.6371 46.9426C68.3832 47.487 68.3106 47.9503 68.4194 48.3324C68.53 48.7105 68.7844 48.9923 69.1825 49.178C69.536 49.3428 69.8551 49.3852 70.1397 49.3053C70.4303 49.2231 70.6721 49.044 70.8651 48.768L71.5534 49.1854C71.3574 49.4996 71.116 49.7309 70.8293 49.8791C70.5466 50.0292 70.2366 50.0999 69.8994 50.091C69.5622 50.0822 69.2169 49.9953 68.8634 49.8305ZM71.4746 50.9739L75.3199 47.358L76.1609 47.7502L75.8626 53.0201L75.0947 52.662L75.1772 51.3872L73.1477 50.4408L72.2242 51.3235L71.4746 50.9739ZM74.8953 48.7775L73.6786 49.939L75.2266 50.6608L75.3402 48.985C75.3524 48.7681 75.3738 48.5258 75.4046 48.2582C75.2254 48.4516 75.0556 48.6247 74.8953 48.7775ZM76.8212 53.4671L78.893 49.0242L80.0571 49.567L79.6499 53.4951L82.4096 50.664L83.5492 51.1954L81.4775 55.6383L80.7644 55.3058L82.5739 51.5048L79.448 54.692L78.8324 54.4049L79.2922 49.982L77.516 53.7911L76.8212 53.4671ZM82.9079 56.3054L84.9797 51.8624L87.0153 52.8116C87.5029 53.039 87.8229 53.3391 87.9755 53.712C88.1322 54.0868 88.1139 54.4814 87.9206 54.8958C87.7255 55.3143 87.432 55.5831 87.0401 55.7021C86.6542 55.8189 86.2175 55.7637 85.7299 55.5363L84.4318 54.931L83.6332 56.6436L82.9079 56.3054ZM86.7413 53.4629L85.4066 52.8406L84.7245 54.3033L86.0592 54.9256C86.2867 55.0317 86.4991 55.059 86.6962 55.0075C86.8953 54.9519 87.0526 54.8002 87.1681 54.5524C87.2818 54.3086 87.298 54.0936 87.2167 53.9072C87.1354 53.7209 86.9769 53.5728 86.7413 53.4629ZM88.3128 56.8891L89.6428 54.0369L90.3681 54.3751L89.0608 57.1786C88.8865 57.5524 88.8671 57.8698 89.0026 58.1308C89.1399 58.3878 89.3833 58.5978 89.7328 58.7607C90.135 58.9483 90.4691 58.9903 90.735 58.8868C91.005 58.7851 91.2148 58.5738 91.3645 58.2528L92.6718 55.4493L93.391 55.7847L92.0609 58.6369C91.9056 58.9701 91.699 59.2275 91.4412 59.409C91.1854 59.5865 90.885 59.6789 90.5403 59.6863C90.1996 59.6956 89.824 59.6046 89.4136 59.4132C88.8326 59.1423 88.4419 58.787 88.2413 58.3472C88.0427 57.9034 88.0665 57.4173 88.3128 56.8891ZM96.5489 58.9044C96.6617 58.6306 96.6651 58.3848 96.5588 58.1671C96.4526 57.9494 96.2593 57.7751 95.979 57.6444C95.7108 57.5194 95.48 57.4785 95.2867 57.5219C95.0974 57.5672 94.961 57.6792 94.8777 57.858C94.8057 58.0124 94.7956 58.1561 94.8473 58.2891C94.8991 58.422 94.9991 58.5577 95.1473 58.696C95.2955 58.8344 95.476 58.9829 95.6889 59.1415C95.914 59.3059 96.1125 59.485 96.2842 59.6788C96.456 59.8727 96.5671 60.0853 96.6176 60.3165C96.6721 60.5497 96.6321 60.8105 96.4975 61.099C96.3119 61.4972 96.0119 61.7481 95.5975 61.8516C95.1872 61.9571 94.7099 61.8829 94.1654 61.629C93.8079 61.4623 93.5275 61.2574 93.3243 61.0142C93.1252 60.773 93.0047 60.5115 92.9629 60.2299C92.9271 59.946 92.9744 59.6589 93.1048 59.3686L93.8544 59.6068C93.7207 59.9254 93.7084 60.2065 93.8173 60.4502C93.9303 60.6958 94.1433 60.8916 94.4561 61.0374C94.7365 61.1682 94.9866 61.2205 95.2065 61.1944C95.4264 61.1684 95.5932 61.0335 95.7069 60.7897C95.7865 60.619 95.8004 60.4672 95.7486 60.3343C95.7009 60.2032 95.6123 60.0803 95.4828 59.9655C95.3552 59.8466 95.2115 59.7252 95.0517 59.6012C94.7548 59.3786 94.5122 59.1616 94.3239 58.9502C94.1415 58.7365 94.0283 58.518 93.9841 58.2946C93.9398 58.0712 93.9793 57.8274 94.1025 57.5633C94.2161 57.3195 94.3816 57.1345 94.5987 57.0082C94.8178 56.8779 95.0698 56.8149 95.3547 56.8191C95.6396 56.8233 95.9405 56.8994 96.2575 57.0471C96.7735 57.2878 97.1189 57.5972 97.2937 57.9755C97.4704 58.3498 97.4751 58.7427 97.3078 59.1545L96.5489 58.9044ZM96.2899 63.6139L96.4633 63.2422L96.579 63.2962C96.6888 63.3473 96.7762 63.356 96.8415 63.3221C96.9049 63.2923 96.9564 63.2347 96.9962 63.1494L97.1014 62.9239L96.754 62.7619L97.1035 62.0123L97.8105 62.3419L97.3245 63.3841C97.2317 63.5832 97.1066 63.7029 96.9493 63.7433C96.79 63.7878 96.617 63.7665 96.4301 63.6793L96.2899 63.6139ZM101.276 64.8708L100.551 64.5326L102.623 60.0896L103.348 60.4278L101.276 64.8708ZM102.704 65.5364L104.776 61.0934L105.501 61.4316L103.722 65.2468L106.123 66.3666L105.83 66.9943L102.704 65.5364ZM106.743 67.4199L108.815 62.977L111.996 64.4605L111.706 65.0821L109.25 63.9368L108.668 65.1862L110.868 66.2122L110.587 66.8155L108.386 65.7896L107.761 67.1304L110.4 68.361L110.107 68.9887L106.743 67.4199ZM111.56 67.6477L111.855 67.0139L114 68.0142L113.705 68.6481L111.56 67.6477ZM114.755 71.1561L114.03 70.818L116.102 66.375L116.827 66.7132L114.755 71.1561ZM116.183 71.8217L118.255 67.3788L121.393 68.8424L121.101 69.4701L118.687 68.3447L118.085 69.6368L120.206 70.6258L119.916 71.2474L117.795 70.2584L116.908 72.1599L116.183 71.8217ZM120.353 73.7664L122.425 69.3234L125.606 70.8069L125.316 71.4286L122.86 70.2833L122.278 71.5326L124.478 72.5586L124.196 73.162L121.996 72.136L121.371 73.4768L124.01 74.7074L123.717 75.3351L120.353 73.7664Z" fill="white"/>
<path d="M43.0493 58.8165L47.3655 49.5604L51.4539 51.4668C52.3597 51.8892 52.9554 52.4349 53.2411 53.104C53.5268 53.7731 53.5098 54.4505 53.19 55.1361C52.9651 55.6186 52.6263 55.9914 52.1739 56.2544C51.7254 56.509 51.155 56.5831 50.4626 56.4767C51.0863 56.9736 51.4557 57.4963 51.571 58.0447C51.6862 58.5931 51.6235 59.1254 51.3827 59.6418C51.0235 60.4121 50.458 60.8955 49.6862 61.0921C48.9268 61.2841 48.0688 61.1572 47.1123 60.7111L43.0493 58.8165ZM51.0869 52.2541L47.8237 50.7324L46.2606 54.0844L49.5238 55.6061C50.1756 55.91 50.7376 55.9866 51.2098 55.8358C51.6944 55.6805 52.0512 55.3573 52.2801 54.8664C52.5288 54.3331 52.5402 53.8335 52.3144 53.3675C52.0886 52.9015 51.6794 52.5304 51.0869 52.2541ZM49.2007 56.3984L45.8995 54.859L44.2476 58.4014L47.5488 59.9408C48.0736 60.1855 48.5301 60.3005 48.9183 60.2857C49.315 60.2749 49.6422 60.1699 49.9 59.9706C50.1702 59.7668 50.3823 59.4999 50.5362 59.1698C50.8046 58.5942 50.8175 58.0694 50.5747 57.5955C50.3359 57.1132 49.8779 56.7141 49.2007 56.3984ZM55.6234 64.8345C54.7262 64.4161 54.0571 63.8619 53.6162 63.172C53.1754 62.4821 52.9556 61.7046 52.9571 60.8397C52.967 59.9786 53.193 59.0741 53.6351 58.1261C54.1087 57.1103 54.6829 56.332 55.3575 55.7913C56.0446 55.2461 56.7862 54.9375 57.5823 54.8656C58.3909 54.7892 59.2141 54.9464 60.0521 55.3371C60.9494 55.7555 61.6184 56.3097 62.0593 56.9996C62.5041 57.6811 62.7258 58.4543 62.7244 59.3193C62.723 60.1842 62.5012 61.0907 62.0591 62.0388C61.5855 63.0546 61.0051 63.8351 60.318 64.3803C59.6433 64.9211 58.9017 65.2296 58.0932 65.306C57.2932 65.3864 56.4699 65.2292 55.6234 64.8345ZM55.9905 64.0473C57.0571 64.5446 58.038 64.5847 58.9333 64.1674C59.8371 63.7542 60.5831 62.9169 61.1712 61.6557C61.7632 60.386 61.9271 59.2721 61.6628 58.3141C61.4108 57.3516 60.7516 56.6217 59.685 56.1243C58.6185 55.627 57.6376 55.5869 56.7422 56.0042C55.8469 56.4214 55.1032 57.2649 54.5112 58.5346C53.9191 59.8043 53.751 60.9162 54.0069 61.8702C54.2627 62.8242 54.924 63.5499 55.9905 64.0473ZM65.295 69.3444C64.3977 68.926 63.7287 68.3719 63.2878 67.6819C62.8469 66.992 62.6272 66.2146 62.6287 65.3496C62.6386 64.4886 62.8645 63.584 63.3066 62.636C63.7803 61.6202 64.3544 60.842 65.0291 60.3012C65.7162 59.756 66.4578 59.4474 67.2539 59.3755C68.0624 59.2991 68.8857 59.4563 69.7237 59.847C70.6209 60.2654 71.29 60.8196 71.7309 61.5095C72.1757 62.191 72.3974 62.9642 72.396 63.8292C72.3945 64.6942 72.1728 65.6007 71.7307 66.5487C71.257 67.5645 70.6767 68.345 69.9896 68.8902C69.3149 69.431 68.5733 69.7395 67.7648 69.816C66.9647 69.8963 66.1415 69.7391 65.295 69.3444ZM65.6621 68.5572C66.7286 69.0545 67.7096 69.0946 68.6049 68.6774C69.5087 68.2641 70.2546 67.4268 70.8427 66.1656C71.4348 64.8959 71.5987 63.782 71.3343 62.824C71.0824 61.8615 70.4232 61.1316 69.3566 60.6343C68.2901 60.1369 67.3091 60.0969 66.4138 60.5141C65.5185 60.9313 64.7748 61.7748 64.1827 63.0445C63.5906 64.3142 63.4226 65.4261 63.6784 66.3801C63.9343 67.3342 64.5955 68.0599 65.6621 68.5572ZM74.9666 73.8543C74.0693 73.4359 73.4002 72.8818 72.9594 72.1919C72.5185 71.5019 72.2988 70.7245 72.3002 69.8595C72.3101 68.9985 72.5361 68.0939 72.9782 67.1459C73.4518 66.1301 74.026 65.3519 74.7007 64.8112C75.3878 64.2659 76.1293 63.9573 76.9255 63.8854C77.734 63.809 78.5573 63.9662 79.3953 64.357C80.5295 64.8859 81.2838 65.5777 81.6582 66.4324C82.0449 67.2826 82.1075 68.198 81.846 69.1788L80.9733 68.8955C81.1818 67.9622 81.0981 67.1915 80.7221 66.5833C80.3501 65.9667 79.7874 65.4828 79.0341 65.1315C77.9675 64.6341 76.9866 64.5941 76.0913 65.0113C75.196 65.4286 74.4523 66.272 73.8602 67.5417C73.2681 68.8114 73.0981 69.9275 73.35 70.8901C73.6019 71.8526 74.2612 72.5825 75.3277 73.0798C76.2588 73.514 77.0621 73.6258 77.7374 73.4151C78.4251 73.1999 79.0045 72.7642 79.4754 72.1078L80.2533 72.5943C79.8563 73.2026 79.3735 73.6525 78.8048 73.9438C78.2446 74.239 77.6341 74.3769 76.9734 74.3573C76.3211 74.3417 75.6522 74.1741 74.9666 73.8543ZM82.7771 77.3419L87.0933 68.0858L87.9186 68.4706L85.9944 72.5971L91.9239 75.3621L93.8481 71.2356L94.6607 71.6145L90.3445 80.8706L89.5319 80.4917L91.5746 76.1112L85.6451 73.3463L83.6024 77.7267L82.7771 77.3419ZM91.4229 81.3735L99.5863 73.9113L100.602 74.385L100.133 85.4351L99.2696 85.0325L99.4151 81.8696L94.6157 79.6316L92.2863 81.7761L91.4229 81.3735ZM98.8276 75.7371L95.2392 79.0567L99.442 81.0165L99.6657 76.1279C99.6769 75.927 99.6839 75.7242 99.6866 75.5194C99.6979 75.3185 99.713 75.1092 99.7322 74.8914C99.5776 75.046 99.4228 75.1902 99.2676 75.324C99.121 75.4617 98.9743 75.5994 98.8276 75.7371ZM101.215 85.9397L105.531 76.6835L106.357 77.0684L102.396 85.5627L107.97 88.1619L107.614 88.9237L101.215 85.9397ZM108.655 89.4088L112.971 80.1527L113.796 80.5375L109.835 89.0319L115.409 91.631L115.054 92.3929L108.655 89.4088Z" fill="#C2C2C2"/>
<path d="M37.559 71.8368L39.2926 68.1191L37.9899 67.5117L38.2883 66.8717L38.4406 66.9428C38.8266 67.1228 39.1874 67.158 39.5228 67.0486C39.8634 66.9415 40.1482 66.7219 40.3773 66.3897L41.0324 66.6952L38.4427 72.2489L37.559 71.8368ZM42.1098 74.0516C41.6171 73.8219 41.2741 73.5166 41.0807 73.1358C40.8923 72.7574 40.8265 72.3217 40.8832 71.8288C40.9474 71.3331 41.1121 70.8009 41.3774 70.2321C41.6876 69.5668 42.0237 69.0649 42.3855 68.7266C42.7496 68.3832 43.1328 68.1847 43.535 68.1311C43.9371 68.0775 44.349 68.149 44.7705 68.3456C45.2632 68.5753 45.6062 68.8806 45.7996 69.2614C45.993 69.6422 46.0589 70.0778 45.997 70.5684C45.9403 71.0613 45.7793 71.5922 45.5141 72.161C45.2038 72.8264 44.8641 73.3295 44.4948 73.6706C44.1307 74.0139 43.7475 74.2124 43.3453 74.2661C42.9432 74.3197 42.5313 74.2482 42.1098 74.0516ZM42.4757 73.2669C42.8972 73.4635 43.2796 73.4192 43.6228 73.1341C43.9734 72.8462 44.2991 72.3798 44.5999 71.7348C44.8462 71.2066 44.9884 70.769 45.0266 70.4219C45.0698 70.0773 45.0335 69.8038 44.9177 69.6013C44.8042 69.3939 44.6332 69.2368 44.4046 69.1302C43.9831 68.9337 43.6007 68.978 43.2575 69.2631C42.9143 69.5483 42.5923 70.0134 42.2916 70.6584C42.0453 71.1866 41.8993 71.6255 41.8537 71.9753C41.8105 72.3199 41.8456 72.596 41.9591 72.8035C42.08 73.0082 42.2522 73.1627 42.4757 73.2669ZM45.0264 75.3189L49.833 70.799L50.8843 71.2892L50.5115 77.8767L49.5516 77.4291L49.6547 75.8355L47.1179 74.6526L45.9634 75.7559L45.0264 75.3189ZM49.3024 72.5734L47.7814 74.0252L49.7164 74.9275L49.8585 72.8328C49.8737 72.5616 49.9005 72.2588 49.939 71.9243C49.7149 72.1661 49.5027 72.3824 49.3024 72.5734ZM51.7097 78.4354L54.2994 72.8817L55.7545 73.5602L55.2456 78.4704L58.6952 74.9315L60.1198 75.5958L57.53 81.1495L56.6387 80.7338L58.9006 75.9826L54.9932 79.9665L54.2237 79.6077L54.7985 74.079L52.5782 78.8404L51.7097 78.4354ZM58.2942 82.8414L58.5109 82.3767L58.6557 82.4442C58.7928 82.5081 58.9022 82.5189 58.9837 82.4766C59.0629 82.4393 59.1274 82.3673 59.1772 82.2607L59.3086 81.9788L58.8744 81.7763L59.3113 80.8393L60.195 81.2514L59.5875 82.5541C59.4715 82.8029 59.3151 82.9526 59.1185 83.0031C58.9194 83.0587 58.7031 83.032 58.4695 82.9231L58.2942 82.8414ZM65.4214 84.922C64.7764 84.6212 64.3732 84.2261 64.2119 83.7366C64.0557 83.2495 64.1067 82.7292 64.3648 82.1756L64.7698 81.3071L65.6764 81.7298L65.2607 82.6212C65.0831 83.0021 65.0514 83.3088 65.1655 83.5413C65.2872 83.7712 65.5003 83.9571 65.805 84.0992C66.191 84.2792 66.5003 84.3121 66.7328 84.198C66.9654 84.0838 67.1527 83.8744 67.2948 83.5697L69.0675 79.7682L69.974 80.1909L68.212 83.9695C67.9207 84.5942 67.5263 84.9761 67.0287 85.115C66.5361 85.2563 66.0004 85.192 65.4214 84.922ZM69.9752 84.532L71.6378 80.9667L72.5444 81.3895L70.9102 84.8938C70.6924 85.3611 70.6681 85.7579 70.8375 86.0842C71.0092 86.4054 71.3135 86.6678 71.7502 86.8715C72.253 87.106 72.6706 87.1585 73.003 87.0291C73.3405 86.902 73.6028 86.6379 73.7899 86.2367L75.424 82.7323L76.323 83.1515L74.6604 86.7168C74.4662 87.1333 74.208 87.4549 73.8858 87.6819C73.566 87.9037 73.1906 88.0193 72.7596 88.0285C72.3337 88.0402 71.8643 87.9264 71.3513 87.6872C70.6251 87.3485 70.1366 86.9043 69.8859 86.3546C69.6376 85.7998 69.6674 85.1923 69.9752 84.532ZM75.4601 89.5104L78.0498 83.9567L79.223 84.5038L80.0184 90.0778L82.0113 85.804L82.9026 86.2196L80.3129 91.7733L79.2464 91.2759L78.3981 85.5567L76.359 89.9296L75.4601 89.5104ZM82.0939 92.6038L84.6836 87.0501L88.6603 88.9045L88.298 89.6815L85.2278 88.2499L84.4996 89.8116L87.2498 91.0941L86.8981 91.8483L84.1479 90.5658L83.3664 92.2418L86.6651 93.78L86.2992 94.5647L82.0939 92.6038ZM90.9198 96.7194L92.6534 93.0017L91.3507 92.3942L91.6491 91.7543L91.8015 91.8253C92.1875 92.0053 92.5482 92.0406 92.8837 91.9312C93.2242 91.8241 93.509 91.6045 93.7381 91.2723L94.3933 91.5778L91.8036 97.1315L90.9198 96.7194ZM96.0424 99.1081L96.586 97.9425L93.8129 96.6494L94.154 95.9181L98.6245 93.5509L99.5235 93.97L97.829 97.6039L98.6822 98.0018L98.3305 98.756L97.4773 98.3581L96.9338 99.5237L96.0424 99.1081ZM95.1093 96.3357L96.9376 97.1883L98.0886 94.72L95.1093 96.3357ZM100.192 101.043L102.416 96.2742L100.527 95.3932L100.893 94.6086L105.555 96.7827L105.189 97.5673L103.323 96.697L101.099 101.466L100.192 101.043ZM104.118 102.874L106.708 97.3202L107.615 97.743L106.531 100.067L109.411 101.409L110.494 99.0858L111.386 99.5014L108.796 105.055L107.905 104.639L109.048 102.186L106.169 100.844L105.025 103.297L104.118 102.874Z" fill="white"/>
<g clip-path="url(#clip1_1_5592)">
<rect x="175.787" y="92.4514" width="42.2926" height="42.2926" rx="2.19702" transform="rotate(25 175.787 92.4514)" fill="white"/>
<g clip-path="url(#clip2_1_5592)">
<path d="M208.043 112.945L178.176 99.0178L164.248 128.885L194.116 142.813L208.043 112.945Z" fill="white"/>
<path d="M173.533 108.974L174.438 109.396L174.016 110.301L174.921 110.723L174.499 111.628L173.594 111.206L173.172 112.111L172.75 113.016L173.655 113.438L173.233 114.343L172.328 113.921L171.906 114.826L171.484 115.731L171.062 116.636L170.157 116.214L170.579 115.309L171.001 114.404L171.423 113.499L171.845 112.594L172.267 111.689L172.689 110.784L173.111 109.879L173.533 108.974ZM168.891 118.93L169.796 119.352L169.374 120.257L168.469 119.835L168.891 118.93ZM168.047 120.74L168.952 121.162L168.53 122.067L167.625 121.645L168.047 120.74ZM170.64 117.541L171.545 117.963L171.123 118.869L172.028 119.291L172.45 118.386L173.355 118.808L173.777 117.902L174.199 116.997L173.294 116.575L173.716 115.67L172.811 115.248L173.233 114.343L174.138 114.765L174.56 113.86L173.655 113.438L174.077 112.533L174.982 112.955L175.887 113.377L175.465 114.282L175.043 115.187L175.948 115.609L176.37 114.704L177.276 115.126L176.854 116.031L177.759 116.453L178.181 115.548L177.276 115.126L177.698 114.221L178.603 114.643L179.025 113.738L179.93 114.16L179.508 115.065L179.086 115.97L178.664 116.875L179.569 117.297L179.147 118.203L178.725 119.108L178.303 120.013L179.208 120.435L178.786 121.34L177.881 120.918L177.459 121.823L176.553 121.401L176.131 122.306L175.226 121.884L175.648 120.979L174.743 120.557L175.165 119.652L176.07 120.074L176.492 119.169L175.587 118.747L174.682 118.325L174.26 119.23L173.838 120.135L173.416 121.04L172.994 121.945L172.089 121.523L171.184 121.101L171.606 120.196L170.701 119.774L169.796 119.352L170.218 118.447L170.64 117.541ZM169.374 120.257L170.279 120.679L171.184 121.101L170.762 122.006L171.667 122.428L172.572 122.85L172.15 123.755L171.245 123.333L170.34 122.911L169.435 122.489L169.857 121.584L168.952 121.162L169.374 120.257ZM176.61 107.103L177.515 107.525L177.093 108.43L177.998 108.852L178.42 107.947L179.325 108.369L180.23 108.791L181.135 109.213L180.713 110.118L179.808 109.696L179.386 110.601L180.291 111.023L181.196 111.445L181.618 110.54L182.04 109.635L182.945 110.057L183.85 110.479L183.428 111.384L184.333 111.806L184.755 110.901L185.66 111.323L186.565 111.745L186.143 112.65L185.238 112.228L184.816 113.133L184.394 114.038L183.489 113.616L183.067 114.521L182.162 114.099L181.74 115.004L180.835 114.582L179.93 114.16L180.352 113.255L180.774 112.35L179.869 111.928L178.964 111.506L178.059 111.084L178.481 110.179L177.576 109.757L176.671 109.335L176.249 110.24L175.826 111.145L174.921 110.723L175.343 109.818L175.765 108.913L176.188 108.008L176.61 107.103ZM172.389 116.153L173.294 116.575L172.872 117.48L171.967 117.058L172.389 116.153ZM177.154 110.662L178.059 111.084L177.637 111.989L176.732 111.567L177.154 110.662ZM176.31 112.472L177.215 112.894L178.12 113.316L177.698 114.221L176.793 113.799L175.887 113.377L176.31 112.472ZM176.431 116.936L176.009 117.842L176.915 118.264L177.82 118.686L178.242 117.781L177.337 117.358L176.431 116.936ZM178.542 112.411L179.447 112.833L179.025 113.738L178.12 113.316L178.542 112.411ZM174.321 121.462L175.226 121.884L174.804 122.789L173.899 122.367L174.321 121.462ZM173.477 123.272L174.382 123.694L175.287 124.116L174.865 125.021L173.96 124.599L173.055 124.177L173.477 123.272ZM185.416 102.394L186.321 102.816L187.227 103.238L186.805 104.143L187.71 104.565L187.288 105.47L186.382 105.048L185.96 105.954L185.055 105.531L185.477 104.626L185.899 103.721L184.994 103.299L185.416 102.394ZM184.15 105.109L185.055 105.531L184.633 106.437L183.728 106.014L184.15 105.109ZM182.884 107.825L183.789 108.247L183.367 109.152L182.462 108.73L182.884 107.825ZM176.131 122.306L177.036 122.728L177.459 121.823L178.364 122.245L178.786 121.34L179.691 121.762L179.269 122.667L178.847 123.572L179.752 123.994L180.174 123.089L180.596 122.184L181.501 122.606L181.923 121.701L182.345 120.796L181.44 120.374L181.862 119.469L180.957 119.047L181.379 118.142L182.284 118.564L183.189 118.986L184.094 119.408L184.999 119.83L185.421 118.925L186.326 119.347L185.904 120.252L185.482 121.157L184.577 120.735L183.672 120.313L183.25 121.218L182.828 122.123L182.406 123.028L183.311 123.45L183.733 122.545L184.155 121.64L185.06 122.062L184.638 122.967L184.216 123.872L183.794 124.777L182.889 124.355L181.984 123.933L181.079 123.511L180.657 124.416L180.235 125.321L179.33 124.899L178.425 124.477L177.52 124.055L177.097 124.96L178.003 125.382L177.581 126.287L177.158 127.192L176.736 128.097L175.831 127.675L175.409 128.58L174.987 129.486L174.082 129.064L173.177 128.641L173.599 127.736L174.021 126.831L174.926 127.253L175.348 126.348L176.253 126.77L176.675 125.865L175.77 125.443L176.192 124.538L175.287 124.116L175.709 123.211L176.131 122.306ZM174.865 125.021L175.77 125.443L175.348 126.348L174.443 125.926L174.865 125.021ZM172.755 129.547L173.66 129.969L174.565 130.391L174.143 131.296L173.238 130.874L172.333 130.452L172.755 129.547ZM184.633 106.437L185.538 106.859L186.443 107.281L186.021 108.186L185.116 107.764L184.694 108.669L183.789 108.247L184.211 107.342L184.633 106.437ZM180.413 115.487L181.318 115.909L180.896 116.814L179.991 116.392L180.413 115.487ZM172.816 131.779L173.721 132.201L174.626 132.623L174.204 133.528L173.299 133.106L172.394 132.684L172.816 131.779ZM184.694 108.669L185.599 109.091L185.177 109.996L184.755 110.901L183.85 110.479L184.272 109.574L184.694 108.669ZM181.74 115.004L182.645 115.426L183.067 114.521L183.972 114.943L184.394 114.038L185.299 114.46L185.721 113.555L186.626 113.977L186.204 114.882L187.109 115.304L187.532 114.399L188.437 114.821L188.015 115.726L188.92 116.148L188.498 117.054L187.592 116.631L186.687 116.209L185.782 115.787L184.877 115.365L184.455 116.27L185.36 116.692L186.265 117.115L187.17 117.537L186.748 118.442L185.843 118.02L185.421 118.925L184.516 118.503L184.938 117.598L184.033 117.176L183.611 118.081L182.706 117.659L183.128 116.753L182.223 116.331L181.318 115.909L181.74 115.004ZM180.896 116.814L181.801 117.236L181.379 118.142L180.474 117.72L180.896 116.814ZM187.288 105.47L188.193 105.893L188.615 104.987L189.52 105.409L189.098 106.315L190.003 106.737L190.908 107.159L191.813 107.581L191.391 108.486L190.486 108.064L190.064 108.969L189.642 109.874L188.737 109.452L187.832 109.03L186.926 108.608L187.349 107.703L188.254 108.125L189.159 108.547L189.581 107.642L188.676 107.22L187.771 106.798L187.349 107.703L186.443 107.281L186.866 106.376L187.288 105.47ZM186.021 108.186L186.926 108.608L186.504 109.513L185.599 109.091L186.021 108.186ZM180.535 119.952L181.44 120.374L181.018 121.279L180.596 122.184L179.691 121.762L180.113 120.857L180.535 119.952ZM176.736 128.097L177.642 128.519L177.219 129.425L176.314 129.003L176.736 128.097ZM175.892 129.908L176.797 130.33L177.219 129.425L178.125 129.847L178.547 128.942L179.452 129.364L179.03 130.269L179.935 130.691L179.513 131.596L180.418 132.018L179.996 132.923L179.091 132.501L178.669 133.406L178.247 134.311L177.341 133.889L177.763 132.984L178.186 132.079L177.28 131.657L176.375 131.235L175.953 132.14L175.048 131.718L175.47 130.813L175.892 129.908ZM186.504 109.513L187.41 109.935L186.987 110.84L186.082 110.418L186.504 109.513ZM178.908 125.804L179.813 126.226L179.391 127.131L180.296 127.553L181.201 127.975L181.623 127.07L182.045 126.165L182.95 126.587L183.855 127.009L183.433 127.914L182.528 127.492L182.106 128.398L181.684 129.303L181.262 130.208L180.357 129.786L179.452 129.364L179.874 128.458L178.969 128.036L178.064 127.614L178.486 126.709L178.908 125.804ZM186.987 110.84L187.893 111.262L188.315 110.357L189.22 110.779L188.798 111.684L188.376 112.589L189.281 113.011L190.186 113.433L189.764 114.338L188.859 113.916L187.954 113.494L187.532 114.399L186.626 113.977L187.048 113.072L187.471 112.167L186.565 111.745L186.987 110.84ZM176.436 133.467L177.341 133.889L176.919 134.794L176.014 134.372L176.436 133.467ZM189.642 109.874L190.547 110.296L190.125 111.201L189.22 110.779L189.642 109.874ZM178.247 134.311L179.152 134.733L179.574 133.828L179.996 132.923L180.901 133.345L181.323 132.44L182.228 132.862L181.806 133.767L181.384 134.672L180.962 135.577L180.057 135.155L179.635 136.06L178.73 135.638L177.824 135.216L178.247 134.311ZM192.657 105.771L193.562 106.193L194.467 106.615L195.372 107.037L196.277 107.459L195.855 108.364L195.433 109.269L194.528 108.847L194.95 107.942L194.045 107.52L193.14 107.098L192.718 108.003L191.813 107.581L192.235 106.676L192.657 105.771ZM190.969 109.391L191.874 109.813L192.296 108.908L192.718 108.003L193.623 108.425L193.201 109.33L194.106 109.752L195.011 110.174L194.589 111.079L194.167 111.984L193.262 111.562L193.684 110.657L192.779 110.235L192.357 111.14L193.262 111.562L192.84 112.467L192.418 113.372L191.513 112.95L191.935 112.045L191.03 111.623L191.452 110.718L190.547 110.296L190.969 109.391ZM190.125 111.201L191.03 111.623L190.608 112.528L189.703 112.106L190.125 111.201ZM181.262 130.208L182.167 130.63L181.745 131.535L181.323 132.44L180.418 132.018L180.84 131.113L181.262 130.208ZM190.608 112.528L191.513 112.95L191.091 113.855L190.186 113.433L190.608 112.528ZM189.342 115.243L190.247 115.665L190.669 114.76L191.091 113.855L191.996 114.277L191.574 115.182L191.152 116.087L192.057 116.51L192.479 115.604L192.901 114.699L193.323 113.794L193.745 112.889L194.167 111.984L195.072 112.406L194.65 113.311L194.228 114.216L195.133 114.638L195.555 113.733L195.977 112.828L195.072 112.406L195.494 111.501L195.916 110.596L196.821 111.018L197.726 111.44L197.304 112.345L198.209 112.767L197.787 113.672L198.693 114.094L198.27 114.999L197.848 115.904L197.426 116.81L196.521 116.388L196.099 117.293L197.004 117.715L196.582 118.62L195.677 118.198L194.772 117.776L194.35 118.681L195.255 119.103L196.16 119.525L196.582 118.62L197.487 119.042L197.065 119.947L197.97 120.369L197.548 121.274L198.453 121.696L198.031 122.601L197.609 123.506L197.187 124.411L196.765 125.316L195.86 124.894L196.282 123.989L196.704 123.084L195.799 122.662L195.377 123.567L194.955 124.472L195.86 124.894L195.438 125.799L194.533 125.377L193.628 124.955L194.05 124.05L194.472 123.145L194.894 122.24L195.316 121.335L194.411 120.913L194.833 120.008L193.928 119.586L193.023 119.164L192.601 120.069L191.696 119.647L190.791 119.225L189.886 118.803L190.308 117.898L190.73 116.993L189.825 116.57L188.92 116.148L189.342 115.243ZM188.498 117.054L189.403 117.476L188.981 118.381L189.886 118.803L189.464 119.708L188.559 119.286L187.653 118.864L188.076 117.959L188.498 117.054ZM187.231 119.769L188.137 120.191L187.714 121.096L188.62 121.518L189.042 120.613L189.947 121.035L189.525 121.94L190.43 122.362L190.852 121.457L191.274 120.552L192.179 120.974L191.757 121.879L192.662 122.301L193.567 122.723L193.145 123.628L192.723 124.533L191.818 124.111L190.913 123.689L190.491 124.594L189.586 124.172L190.008 123.267L189.103 122.845L188.198 122.423L187.292 122.001L186.87 122.906L185.965 122.484L186.387 121.579L186.809 120.674L187.231 119.769ZM185.543 123.389L186.448 123.811L186.026 124.716L186.931 125.138L187.353 124.233L186.448 123.811L186.87 122.906L187.775 123.328L188.681 123.75L188.258 124.655L187.836 125.56L188.742 125.982L188.319 126.887L189.225 127.309L188.803 128.215L189.708 128.637L189.286 129.542L188.864 130.447L187.958 130.025L187.053 129.603L187.475 128.698L187.897 127.792L186.992 127.37L187.414 126.465L186.509 126.043L185.604 125.621L185.182 126.526L184.277 126.104L184.699 125.199L185.121 124.294L185.543 123.389ZM183.011 128.82L183.916 129.242L183.494 130.147L184.399 130.569L184.821 129.664L185.726 130.086L185.304 130.991L184.882 131.896L183.977 131.474L183.555 132.379L182.65 131.957L183.072 131.052L182.167 130.63L182.589 129.725L183.011 128.82ZM185.182 126.526L186.087 126.948L185.665 127.853L185.243 128.759L184.338 128.337L184.76 127.431L185.182 126.526ZM180.962 135.577L181.867 135.999L182.289 135.094L182.711 134.189L183.133 133.284L184.038 133.706L183.616 134.611L183.194 135.516L182.772 136.421L183.677 136.843L184.099 135.938L184.521 135.033L184.943 134.128L185.848 134.55L185.426 135.455L185.004 136.36L184.582 137.265L184.16 138.17L183.255 137.748L182.35 137.326L181.445 136.904L180.54 136.482L180.962 135.577ZM195.433 109.269L196.338 109.691L195.916 110.596L195.011 110.174L195.433 109.269ZM193.806 115.121L193.384 116.026L194.289 116.449L195.194 116.871L195.616 115.965L194.711 115.543L193.806 115.121ZM192.962 116.932L192.54 117.837L193.445 118.259L193.867 117.354L192.962 116.932ZM186.148 129.181L187.053 129.603L186.631 130.508L185.726 130.086L186.148 129.181ZM197.182 107.881L198.088 108.303L198.993 108.725L199.898 109.147L200.803 109.569L200.381 110.474L199.476 110.052L199.054 110.957L199.959 111.379L199.537 112.284L199.115 113.189L198.209 112.767L198.632 111.862L197.726 111.44L198.148 110.535L197.243 110.113L197.665 109.208L196.76 108.786L197.182 107.881ZM189.164 125.077L190.069 125.499L190.491 124.594L191.396 125.016L190.974 125.921L190.552 126.826L189.647 126.404L188.742 125.982L189.164 125.077ZM186.631 130.508L187.536 130.93L187.114 131.835L188.019 132.257L187.597 133.162L186.692 132.74L186.27 133.645L185.365 133.223L185.787 132.318L186.209 131.413L186.631 130.508ZM196.46 114.155L196.038 115.06L196.943 115.482L197.365 114.577L196.46 114.155ZM192.601 120.069L193.506 120.491L193.084 121.396L192.179 120.974L192.601 120.069ZM186.27 133.645L187.175 134.067L186.753 134.972L185.848 134.55L186.27 133.645ZM188.441 131.352L189.347 131.774L189.769 130.869L190.674 131.291L191.096 130.386L192.001 130.808L191.579 131.713L192.484 132.135L193.389 132.557L194.294 132.979L195.199 133.401L194.777 134.306L193.872 133.884L193.45 134.789L194.355 135.211L193.933 136.116L193.028 135.694L192.606 136.599L192.184 137.504L191.762 138.409L190.857 137.987L191.279 137.082L190.374 136.66L189.469 136.238L188.563 135.816L187.658 135.394L188.08 134.489L188.502 133.584L188.924 132.679L188.019 132.257L188.441 131.352ZM186.331 135.877L187.236 136.299L188.141 136.721L189.046 137.143L188.624 138.048L187.719 137.626L187.297 138.531L186.875 139.437L185.97 139.014L185.065 138.592L185.487 137.687L186.392 138.109L186.814 137.204L185.909 136.782L186.331 135.877ZM190.613 129.059L191.518 129.481L191.096 130.386L190.191 129.964L190.613 129.059ZM190.252 132.196L189.83 133.101L189.408 134.006L188.985 134.911L189.891 135.333L190.796 135.755L191.701 136.177L192.123 135.272L192.545 134.367L192.967 133.462L192.062 133.04L191.157 132.618L190.252 132.196ZM197.426 116.81L198.331 117.232L197.909 118.137L197.004 117.715L197.426 116.81ZM193.206 125.86L194.111 126.282L193.689 127.187L192.784 126.765L193.206 125.86ZM192.362 127.671L193.267 128.093L193.689 127.187L194.594 127.61L195.499 128.032L195.077 128.937L194.172 128.515L193.75 129.42L194.655 129.842L194.233 130.747L193.328 130.325L192.906 131.23L192.001 130.808L192.423 129.903L192.845 128.998L191.94 128.576L192.362 127.671ZM197.909 118.137L198.814 118.559L198.392 119.464L197.487 119.042L197.909 118.137ZM190.735 133.523L191.64 133.945L191.218 134.85L190.313 134.428L190.735 133.523ZM188.624 138.048L189.53 138.47L189.952 137.565L190.857 137.987L190.435 138.893L190.013 139.798L189.59 140.703L188.685 140.281L187.78 139.859L188.202 138.954L188.624 138.048ZM199.298 119.886L200.203 120.308L199.781 121.213L198.875 120.791L199.298 119.886ZM196.765 125.316L197.67 125.738L197.248 126.643L196.343 126.221L196.765 125.316ZM194.233 130.747L195.138 131.169L195.56 130.264L195.982 129.359L196.887 129.781L196.465 130.686L197.37 131.108L198.275 131.53L197.853 132.435L198.758 132.857L198.336 133.762L197.914 134.667L197.492 135.572L197.07 136.477L196.648 137.382L196.226 138.288L195.321 137.865L195.743 136.96L194.838 136.538L195.26 135.633L194.355 135.211L194.777 134.306L195.682 134.728L196.587 135.15L197.009 134.245L197.431 133.34L196.526 132.918L195.621 132.496L194.716 132.074L193.811 131.652L194.233 130.747ZM201.047 118.498L201.952 118.92L201.53 119.825L200.625 119.403L201.047 118.498ZM199.359 122.118L200.264 122.54L201.169 122.962L200.747 123.867L201.652 124.289L202.074 123.384L201.169 122.962L201.591 122.057L202.013 121.152L201.108 120.73L201.53 119.825L202.435 120.247L203.34 120.669L203.762 119.764L204.667 120.186L204.245 121.091L203.823 121.996L203.401 122.901L202.979 123.806L202.557 124.711L202.135 125.616L201.713 126.521L201.291 127.427L200.869 128.332L199.964 127.91L200.386 127.005L199.48 126.582L199.903 125.677L198.997 125.255L199.42 124.35L199.842 123.445L198.936 123.023L199.359 122.118ZM197.248 126.643L198.153 127.066L198.575 126.16L199.48 126.582L199.058 127.488L199.964 127.91L199.541 128.815L200.447 129.237L200.025 130.142L199.119 129.72L198.214 129.298L197.309 128.876L197.731 127.971L196.826 127.549L197.248 126.643ZM193.511 137.021L194.416 137.443L195.321 137.865L194.899 138.771L195.804 139.193L195.382 140.098L194.477 139.676L193.572 139.254L193.994 138.348L193.089 137.926L193.511 137.021ZM198.697 130.625L199.602 131.047L199.18 131.952L198.275 131.53L198.697 130.625Z" fill="black"/>
<path d="M191.057 140.313C191.244 140.396 191.359 140.229 191.409 140.121C191.483 139.961 191.428 139.868 191.334 139.812C191.187 139.809 191.054 139.859 190.977 139.996C190.965 140.019 190.95 140.049 190.935 140.087C190.894 140.186 190.945 140.263 191.057 140.313ZM191.911 140.981C191.779 140.919 191.678 140.773 191.742 140.617C191.517 140.707 191.25 140.674 190.953 140.536C190.654 140.397 190.625 140.135 190.699 139.976C190.953 139.45 191.033 139.246 191.05 139.205C191.051 139.201 191.052 139.198 191.053 139.197L191.053 139.196C191.062 139.175 191.075 139.145 191.057 139.134C191.045 139.127 191.036 139.127 191.014 139.138C190.981 139.155 190.935 139.147 190.917 139.12C190.894 139.089 190.907 139.047 190.939 139.019C191.026 138.943 191.114 138.933 191.206 138.977C191.364 139.054 191.361 139.179 191.3 139.309C191.3 139.309 191.21 139.495 191.16 139.601C191.238 139.581 191.344 139.57 191.482 139.635C191.77 139.769 191.787 140.211 191.44 140.465C191.733 140.466 191.872 140.298 191.97 140.112L191.999 140.048C192.033 139.976 192.107 139.937 192.18 139.97C192.252 140.004 192.269 140.091 192.235 140.159C192.118 140.386 192.044 140.536 192.006 140.617C191.985 140.664 191.977 140.747 192.052 140.782C192.199 140.851 192.302 140.758 192.44 140.492C192.487 140.391 192.527 140.306 192.527 140.306C192.461 140.275 192.444 140.225 192.465 140.181C192.485 140.137 192.539 140.113 192.596 140.139C192.596 140.139 192.667 139.987 192.697 139.924C192.73 139.852 192.814 139.818 192.886 139.852C192.958 139.886 192.988 139.972 192.954 140.044C192.943 140.068 192.929 140.095 192.914 140.126C192.894 140.164 192.872 140.208 192.851 140.254L192.861 140.259C192.881 140.268 192.925 140.289 192.984 140.315C193.055 140.347 193.065 140.4 193.042 140.449C193.019 140.498 192.966 140.515 192.916 140.492C192.87 140.471 192.77 140.423 192.77 140.423C192.697 140.567 192.611 140.74 192.546 140.88C192.522 140.931 192.53 141.005 192.615 141.044C192.785 141.124 192.92 141.002 193.066 140.72C193.159 140.52 193.211 140.403 193.249 140.314C193.277 140.253 193.298 140.205 193.322 140.153C193.356 140.081 193.446 140.044 193.518 140.078C193.59 140.112 193.616 140.194 193.583 140.266C193.557 140.321 193.525 140.385 193.48 140.472C193.406 140.619 193.297 140.832 193.13 141.184C193.107 141.231 193.115 141.274 193.176 141.303C193.338 141.379 193.466 141.224 193.595 140.984C193.6 140.972 193.606 140.961 193.611 140.95C193.622 140.926 193.633 140.904 193.643 140.882C193.677 140.81 193.752 140.774 193.824 140.808C193.896 140.841 193.911 140.921 193.877 140.993C193.853 141.044 193.829 141.091 193.805 141.14C193.783 141.183 193.76 141.227 193.737 141.276C193.676 141.402 193.667 141.534 193.773 141.583C193.875 141.63 194.006 141.64 194.11 141.423C194.139 141.363 194.16 141.317 194.181 141.269C194.197 141.234 194.212 141.199 194.231 141.158C194.265 141.086 194.343 141.05 194.415 141.083C194.487 141.117 194.51 141.2 194.476 141.272C194.456 141.315 194.434 141.357 194.411 141.404C194.381 141.462 194.348 141.527 194.309 141.609C194.309 141.609 194.164 141.909 194.144 141.98C194.182 141.985 194.245 141.975 194.332 141.92C194.385 141.887 194.448 141.904 194.474 141.941C194.51 141.993 194.482 142.049 194.444 142.082C194.347 142.166 194.254 142.202 194.072 142.182C193.988 142.363 193.851 142.624 193.495 142.516C193.19 142.424 193.138 142.198 193.203 142.057C193.306 141.834 193.559 141.873 193.918 141.942L193.96 141.826C193.96 141.826 193.844 141.887 193.665 141.798C193.527 141.729 193.461 141.618 193.446 141.498C193.328 141.577 193.197 141.581 193.038 141.507C192.933 141.458 192.859 141.356 192.847 141.253C192.734 141.306 192.61 141.306 192.473 141.242C192.354 141.187 192.286 141.105 192.263 141.016C192.16 141.06 192.048 141.045 191.911 140.981ZM193.856 142.129C193.678 142.088 193.45 142.045 193.406 142.146C193.365 142.241 193.453 142.303 193.542 142.324C193.726 142.367 193.792 142.276 193.856 142.129ZM192.421 139.796C192.455 139.723 192.423 139.637 192.351 139.603C192.278 139.569 192.191 139.6 192.158 139.673C192.124 139.746 192.155 139.832 192.228 139.866C192.301 139.9 192.387 139.869 192.421 139.796Z" fill="black"/>
<path d="M178.176 99.0178L179.081 99.4399L179.986 99.8619L180.891 100.284L181.796 100.706L182.701 101.128L183.606 101.55L184.511 101.972L184.089 102.877L183.667 103.782L183.245 104.687L182.823 105.592L182.401 106.498L181.979 107.403L181.557 108.308L180.652 107.886L179.747 107.464L178.842 107.042L177.937 106.62L177.032 106.197L176.127 105.775L175.221 105.353L175.644 104.448L176.066 103.543L176.488 102.638L176.91 101.733L177.332 100.828L177.754 99.9229L178.176 99.0178ZM178.659 100.345L178.237 101.25L177.815 102.155L177.393 103.06L176.971 103.965L176.549 104.87L177.454 105.292L178.359 105.714L179.264 106.136L180.169 106.559L181.074 106.981L181.496 106.075L181.918 105.17L182.34 104.265L182.762 103.36L183.184 102.455L182.279 102.033L181.374 101.611L180.469 101.189L179.564 100.767L178.659 100.345Z" fill="black"/>
<path d="M179.143 101.677L180.048 102.099L180.953 102.521L181.858 102.943L181.436 103.848L181.014 104.754L180.592 105.659L179.687 105.237L178.782 104.815L177.877 104.392L178.299 103.487L178.721 102.582L179.143 101.677Z" fill="black"/>
<path d="M201.706 109.991L202.611 110.413L203.516 110.835L204.421 111.257L205.326 111.679L206.232 112.101L207.137 112.523L208.042 112.945L207.62 113.85L207.198 114.755L206.776 115.66L206.354 116.565L205.932 117.47L205.509 118.376L205.087 119.281L204.182 118.859L203.277 118.436L202.372 118.014L201.467 117.592L200.562 117.17L199.657 116.748L198.752 116.326L199.174 115.421L199.596 114.516L200.018 113.611L200.44 112.706L200.862 111.801L201.284 110.896L201.706 109.991ZM202.189 111.318L201.767 112.223L201.345 113.128L200.923 114.033L200.501 114.938L200.079 115.843L200.984 116.265L201.889 116.687L202.794 117.109L203.699 117.531L204.604 117.953L205.026 117.048L205.448 116.143L205.871 115.238L206.293 114.333L206.715 113.428L205.81 113.006L204.904 112.584L203.999 112.162L203.094 111.74L202.189 111.318Z" fill="black"/>
<path d="M202.675 112.648L203.58 113.07L204.485 113.493L205.39 113.915L204.968 114.82L204.546 115.725L204.124 116.63L203.219 116.208L202.314 115.786L201.409 115.364L201.831 114.459L202.253 113.554L202.675 112.648Z" fill="black"/>
<path d="M167.202 122.55L168.107 122.972L169.012 123.394L169.917 123.816L170.822 124.238L171.728 124.661L172.633 125.083L173.538 125.505L173.116 126.41L172.694 127.315L172.272 128.22L171.85 129.125L171.427 130.03L171.005 130.935L170.583 131.84L169.678 131.418L168.773 130.996L167.868 130.574L166.963 130.152L166.058 129.73L165.153 129.308L164.248 128.886L164.67 127.981L165.092 127.076L165.514 126.171L165.936 125.266L166.358 124.36L166.78 123.455L167.202 122.55ZM167.685 123.877L167.263 124.782L166.841 125.688L166.419 126.593L165.997 127.498L165.575 128.403L166.48 128.825L167.385 129.247L168.29 129.669L169.195 130.091L170.1 130.513L170.522 129.608L170.944 128.703L171.366 127.798L171.789 126.893L172.211 125.988L171.305 125.566L170.4 125.144L169.495 124.722L168.59 124.299L167.685 123.877Z" fill="black"/>
<path d="M168.171 125.208L169.076 125.63L169.981 126.052L170.886 126.474L170.464 127.379L170.042 128.284L169.62 129.189L168.715 128.767L167.81 128.345L166.905 127.923L167.327 127.018L167.749 126.113L168.171 125.208Z" fill="black"/>
</g>
</g>
<rect x="144.612" y="78.3384" width="23.0687" height="4.61373" transform="rotate(25 144.612 78.3384)" fill="#D9D9D9"/>
<rect x="141.687" y="84.6106" width="23.0687" height="0.768956" transform="rotate(25 141.687 84.6106)" fill="#D9D9D9"/>
<rect x="140.387" y="87.3982" width="23.0687" height="4.61373" transform="rotate(25 140.387 87.3982)" fill="#D9D9D9"/>
<rect x="137.462" y="93.6704" width="23.0687" height="0.768956" transform="rotate(25 137.462 93.6704)" fill="#D9D9D9"/>
<rect x="136.162" y="96.458" width="23.0687" height="3.07582" transform="rotate(25 136.162 96.458)" fill="#D9D9D9"/>
<rect x="133.888" y="101.336" width="23.0687" height="3.07582" transform="rotate(25 133.888 101.336)" fill="#D9D9D9"/>
<rect x="131.613" y="106.215" width="23.0687" height="4.61373" transform="rotate(25 131.613 106.215)" fill="#D9D9D9"/>
<rect x="128.688" y="112.487" width="23.0687" height="2.30687" transform="rotate(25 128.688 112.487)" fill="#D9D9D9"/>
</g>
<rect x="49.2255" y="24.5264" width="193.777" height="58.4406" transform="rotate(25 49.2255 24.5264)" stroke="#C2C2C2" stroke-width="0.768956" stroke-dasharray="3.08 3.08"/>
</g>
<defs>
<filter id="filter0_d_1_5592" x="0" y="0" width="273.374" height="207.911" filterUnits="userSpaceOnUse" color-interpolation-filters="sRGB">
<feFlood flood-opacity="0" result="BackgroundImageFix"/>
<feColorMatrix in="SourceAlpha" type="matrix" values="0 0 0 0 0 0 0 0 0 0 0 0 0 0 0 0 0 0 127 0" result="hardAlpha"/>
<feOffset dx="24" dy="24"/>
<feComposite in2="hardAlpha" operator="out"/>
<feColorMatrix type="matrix" values="0 0 0 0 0 0 0 0 0 0 0 0 0 0 0 0 0 0 1 0"/>
<feBlend mode="normal" in2="BackgroundImageFix" result="effect1_dropShadow_1_5592"/>
<feBlend mode="normal" in="SourceGraphic" in2="effect1_dropShadow_1_5592" result="shape"/>
</filter>
<clipPath id="clip0_1_5592">
<rect x="49.2255" y="24.5264" width="193.777" height="58.4406" transform="rotate(25 49.2255 24.5264)" fill="white"/>
</clipPath>
<clipPath id="clip1_1_5592">
<rect x="175.787" y="92.4514" width="42.2926" height="42.2926" rx="2.19702" transform="rotate(25 175.787 92.4514)" fill="white"/>
</clipPath>
<clipPath id="clip2_1_5592">
<rect width="32.9552" height="32.9552" fill="white" transform="translate(178.176 99.0188) rotate(25)"/>
</clipPath>
</defs>
</svg>
