<svg width="274" height="209" viewBox="0 0 274 209" fill="none" xmlns="http://www.w3.org/2000/svg">
<g filter="url(#filter0_d_208_31)">
<mask id="path-1-inside-1_208_31" fill="white">
<path d="M243.69 110.473C244.495 108.698 243.723 106.602 241.952 105.776C240.171 104.945 238.053 105.716 237.222 107.498C236.391 109.28 237.161 111.398 238.943 112.229C240.714 113.055 242.817 112.298 243.659 110.539L236.54 125.805C237.346 124.03 236.574 121.934 234.803 121.108C233.021 120.277 230.904 121.048 230.073 122.83C229.242 124.612 230.012 126.73 231.794 127.561C233.565 128.387 235.668 127.63 236.509 125.871L229.391 141.137C230.196 139.362 229.424 137.266 227.654 136.44C225.872 135.609 223.754 136.38 222.923 138.162C222.092 139.944 222.863 142.062 224.644 142.893C226.416 143.719 228.519 142.962 229.36 141.203L222.242 156.469C223.047 154.694 222.275 152.598 220.504 151.772C218.722 150.941 216.605 151.712 215.774 153.494C214.943 155.276 215.713 157.394 217.495 158.225C219.266 159.051 221.369 158.294 222.211 156.535L215.092 171.801C215.898 170.026 215.125 167.93 213.355 167.104C211.573 166.273 209.455 167.044 208.624 168.826C207.793 170.608 208.564 172.726 210.346 173.557C212.118 174.383 214.222 173.625 215.062 171.865L209.227 184.379L146.988 155.357C150.552 157.019 154.788 155.477 156.45 151.913C158.112 148.349 156.57 144.113 153.006 142.451C149.442 140.789 145.206 142.331 143.544 145.895C141.882 149.459 143.424 153.695 146.988 155.357L84.7483 126.334L125.045 39.9172L249.524 97.9625L243.69 110.473ZM95.3294 112.068C93.5475 111.237 91.4291 112.008 90.5981 113.789C89.7671 115.571 90.5383 117.69 92.3203 118.521C94.1021 119.352 96.2202 118.58 97.0511 116.798C97.8817 115.017 97.1109 112.899 95.3294 112.068ZM102.479 96.736C100.697 95.9051 98.5785 96.6755 97.7475 98.4573C96.9166 100.239 97.6878 102.358 99.4697 103.189C101.252 104.02 103.37 103.248 104.201 101.466C105.031 99.6846 104.26 97.567 102.479 96.736ZM109.628 81.404C107.846 80.5731 105.728 81.3435 104.897 83.1253C104.066 84.9072 104.837 87.0261 106.619 87.857C108.401 88.6876 110.519 87.9162 111.35 86.1344C112.181 84.3526 111.41 82.235 109.628 81.404ZM116.778 66.072C114.996 65.2411 112.877 66.0115 112.046 67.7933C111.215 69.5752 111.987 71.6941 113.769 72.525C115.55 73.3556 117.669 72.5842 118.499 70.8024C119.33 69.0206 118.559 66.903 116.778 66.072ZM123.927 50.74C122.145 49.9091 120.027 50.6795 119.196 52.4613C118.365 54.2432 119.136 56.3621 120.918 57.193C122.7 58.0236 124.818 57.2522 125.649 55.4704C126.48 53.6886 125.709 51.571 123.927 50.74ZM187.285 68.9401C183.721 67.2782 179.485 68.8201 177.823 72.384C176.161 75.9478 177.703 80.1843 181.267 81.8461C184.83 83.5077 189.067 81.9658 190.729 78.4022C192.391 74.8384 190.848 70.602 187.285 68.9401Z"/>
</mask>
<path d="M243.69 110.473C244.495 108.698 243.723 106.602 241.952 105.776C240.171 104.945 238.053 105.716 237.222 107.498C236.391 109.28 237.161 111.398 238.943 112.229C240.714 113.055 242.817 112.298 243.659 110.539L236.54 125.805C237.346 124.03 236.574 121.934 234.803 121.108C233.021 120.277 230.904 121.048 230.073 122.83C229.242 124.612 230.012 126.73 231.794 127.561C233.565 128.387 235.668 127.63 236.509 125.871L229.391 141.137C230.196 139.362 229.424 137.266 227.654 136.44C225.872 135.609 223.754 136.38 222.923 138.162C222.092 139.944 222.863 142.062 224.644 142.893C226.416 143.719 228.519 142.962 229.36 141.203L222.242 156.469C223.047 154.694 222.275 152.598 220.504 151.772C218.722 150.941 216.605 151.712 215.774 153.494C214.943 155.276 215.713 157.394 217.495 158.225C219.266 159.051 221.369 158.294 222.211 156.535L215.092 171.801C215.898 170.026 215.125 167.93 213.355 167.104C211.573 166.273 209.455 167.044 208.624 168.826C207.793 170.608 208.564 172.726 210.346 173.557C212.118 174.383 214.222 173.625 215.062 171.865L209.227 184.379L146.988 155.357C150.552 157.019 154.788 155.477 156.45 151.913C158.112 148.349 156.57 144.113 153.006 142.451C149.442 140.789 145.206 142.331 143.544 145.895C141.882 149.459 143.424 153.695 146.988 155.357L84.7483 126.334L125.045 39.9172L249.524 97.9625L243.69 110.473ZM95.3294 112.068C93.5475 111.237 91.4291 112.008 90.5981 113.789C89.7671 115.571 90.5383 117.69 92.3203 118.521C94.1021 119.352 96.2202 118.58 97.0511 116.798C97.8817 115.017 97.1109 112.899 95.3294 112.068ZM102.479 96.736C100.697 95.9051 98.5785 96.6755 97.7475 98.4573C96.9166 100.239 97.6878 102.358 99.4697 103.189C101.252 104.02 103.37 103.248 104.201 101.466C105.031 99.6846 104.26 97.567 102.479 96.736ZM109.628 81.404C107.846 80.5731 105.728 81.3435 104.897 83.1253C104.066 84.9072 104.837 87.0261 106.619 87.857C108.401 88.6876 110.519 87.9162 111.35 86.1344C112.181 84.3526 111.41 82.235 109.628 81.404ZM116.778 66.072C114.996 65.2411 112.877 66.0115 112.046 67.7933C111.215 69.5752 111.987 71.6941 113.769 72.525C115.55 73.3556 117.669 72.5842 118.499 70.8024C119.33 69.0206 118.559 66.903 116.778 66.072ZM123.927 50.74C122.145 49.9091 120.027 50.6795 119.196 52.4613C118.365 54.2432 119.136 56.3621 120.918 57.193C122.7 58.0236 124.818 57.2522 125.649 55.4704C126.48 53.6886 125.709 51.571 123.927 50.74ZM187.285 68.9401C183.721 67.2782 179.485 68.8201 177.823 72.384C176.161 75.9478 177.703 80.1843 181.267 81.8461C184.83 83.5077 189.067 81.9658 190.729 78.4022C192.391 74.8384 190.848 70.602 187.285 68.9401Z" fill="#1B3E18"/>
<path d="M243.69 110.473L242.99 110.155L244.387 110.798L243.69 110.473ZM241.952 105.776L242.277 105.079L242.277 105.079L241.952 105.776ZM237.222 107.498L236.525 107.173L236.525 107.173L237.222 107.498ZM238.943 112.229L238.618 112.926L238.618 112.926L238.943 112.229ZM243.659 110.539L244.356 110.864L242.965 110.207L243.659 110.539ZM236.54 125.805L235.84 125.487L237.237 126.13L236.54 125.805ZM234.803 121.108L235.128 120.411L235.128 120.411L234.803 121.108ZM230.073 122.83L229.376 122.505L229.376 122.505L230.073 122.83ZM231.794 127.561L231.469 128.258L231.469 128.258L231.794 127.561ZM236.509 125.871L237.206 126.196L235.816 125.539L236.509 125.871ZM229.391 141.137L228.691 140.819L230.088 141.462L229.391 141.137ZM227.654 136.44L227.979 135.743L227.979 135.743L227.654 136.44ZM222.923 138.162L222.226 137.837L222.226 137.837L222.923 138.162ZM224.644 142.893L224.319 143.59L224.319 143.59L224.644 142.893ZM229.36 141.203L230.057 141.528L228.666 140.871L229.36 141.203ZM222.242 156.469L221.541 156.151L222.938 156.794L222.242 156.469ZM220.504 151.772L220.829 151.075L220.829 151.075L220.504 151.772ZM215.774 153.494L215.077 153.169L215.077 153.169L215.774 153.494ZM217.495 158.225L217.17 158.922L217.17 158.922L217.495 158.225ZM222.211 156.535L222.907 156.86L221.517 156.203L222.211 156.535ZM215.092 171.801L214.392 171.483L215.789 172.126L215.092 171.801ZM213.355 167.104L213.68 166.407L213.68 166.407L213.355 167.104ZM208.624 168.826L207.927 168.501L207.927 168.501L208.624 168.826ZM210.346 173.557L210.021 174.254L210.021 174.254L210.346 173.557ZM215.062 171.865L215.759 172.19L214.368 171.533L215.062 171.865ZM209.227 184.379L208.902 185.076L209.599 185.401L209.924 184.704L209.227 184.379ZM156.45 151.913L157.147 152.238L157.147 152.238L156.45 151.913ZM153.006 142.451L153.331 141.754L153.331 141.754L153.006 142.451ZM143.544 145.895L142.847 145.57L142.847 145.57L143.544 145.895ZM84.7483 126.334L84.0514 126.009L83.7264 126.706L84.4233 127.031L84.7483 126.334ZM125.045 39.9172L125.37 39.2203L124.673 38.8954L124.348 39.5923L125.045 39.9172ZM249.524 97.9625L250.22 98.2874L250.545 97.5905L249.849 97.2655L249.524 97.9625ZM95.3294 112.068L95.6544 111.371L95.6543 111.371L95.3294 112.068ZM90.5981 113.789L89.9012 113.464L89.9012 113.464L90.5981 113.789ZM92.3203 118.521L91.9953 119.218L91.9954 119.218L92.3203 118.521ZM97.0511 116.798L97.748 117.123L97.748 117.123L97.0511 116.798ZM102.479 96.736L102.804 96.0391L102.804 96.0391L102.479 96.736ZM97.7475 98.4573L97.0506 98.1323L97.0506 98.1323L97.7475 98.4573ZM99.4697 103.189L99.1447 103.886L99.1448 103.886L99.4697 103.189ZM104.201 101.466L104.897 101.791L104.897 101.791L104.201 101.466ZM109.628 81.404L109.953 80.7071L109.953 80.7071L109.628 81.404ZM104.897 83.1253L104.2 82.8003L104.2 82.8003L104.897 83.1253ZM106.619 87.857L106.294 88.5539L106.294 88.5539L106.619 87.857ZM111.35 86.1344L112.047 86.4593L112.047 86.4593L111.35 86.1344ZM116.778 66.072L117.103 65.3751L117.103 65.3751L116.778 66.072ZM112.046 67.7933L111.349 67.4683L111.349 67.4683L112.046 67.7933ZM113.769 72.525L113.444 73.2219L113.444 73.2219L113.769 72.525ZM118.499 70.8024L119.196 71.1273L119.196 71.1273L118.499 70.8024ZM123.927 50.74L124.252 50.0431L124.252 50.0431L123.927 50.74ZM119.196 52.4613L118.499 52.1363L118.499 52.1363L119.196 52.4613ZM120.918 57.193L120.593 57.8899L120.593 57.8899L120.918 57.193ZM125.649 55.4704L126.346 55.7953L126.346 55.7953L125.649 55.4704ZM187.285 68.9401L187.61 68.2432L187.61 68.2431L187.285 68.9401ZM177.823 72.384L177.126 72.059L177.126 72.059L177.823 72.384ZM181.267 81.8461L180.942 82.543L180.942 82.543L181.267 81.8461ZM190.729 78.4022L191.426 78.7272L191.426 78.7271L190.729 78.4022ZM243.69 110.473L244.39 110.791C245.37 108.632 244.431 106.083 242.277 105.079L241.952 105.776L241.627 106.473C243.016 107.12 243.621 108.764 242.99 110.155L243.69 110.473ZM241.952 105.776L242.277 105.079C240.111 104.069 237.536 105.006 236.525 107.173L237.222 107.498L237.919 107.823C238.57 106.426 240.231 105.822 241.627 106.473L241.952 105.776ZM237.222 107.498L236.525 107.173C235.515 109.339 236.451 111.915 238.618 112.926L238.943 112.229L239.268 111.532C237.872 110.881 237.267 109.22 237.919 107.823L237.222 107.498ZM238.943 112.229L238.618 112.926C240.772 113.93 243.329 113.01 244.353 110.871L243.659 110.539L242.965 110.207C242.306 111.586 240.657 112.18 239.268 111.532L238.943 112.229ZM243.659 110.539L242.962 110.214L235.843 125.48L236.54 125.805L237.237 126.13L244.356 110.864L243.659 110.539ZM236.54 125.805L237.241 126.123C238.22 123.964 237.281 121.415 235.128 120.411L234.803 121.108L234.478 121.805C235.866 122.452 236.472 124.096 235.84 125.487L236.54 125.805ZM234.803 121.108L235.128 120.411C232.961 119.401 230.386 120.338 229.376 122.505L230.073 122.83L230.769 123.155C231.421 121.758 233.081 121.154 234.478 121.805L234.803 121.108ZM230.073 122.83L229.376 122.505C228.365 124.671 229.302 127.247 231.469 128.258L231.794 127.561L232.119 126.864C230.722 126.213 230.118 124.552 230.769 123.155L230.073 122.83ZM231.794 127.561L231.469 128.258C233.623 129.262 236.18 128.342 237.203 126.203L236.509 125.871L235.816 125.539C235.156 126.918 233.507 127.512 232.119 126.864L231.794 127.561ZM236.509 125.871L235.813 125.546L228.694 140.812L229.391 141.137L230.088 141.462L237.206 126.196L236.509 125.871ZM229.391 141.137L230.091 141.455C231.071 139.296 230.132 136.747 227.979 135.743L227.654 136.44L227.329 137.137C228.717 137.784 229.322 139.428 228.691 140.819L229.391 141.137ZM227.654 136.44L227.979 135.743C225.812 134.733 223.237 135.67 222.226 137.837L222.923 138.162L223.62 138.487C224.272 137.09 225.932 136.486 227.329 137.137L227.654 136.44ZM222.923 138.162L222.226 137.837C221.216 140.003 222.153 142.579 224.319 143.59L224.644 142.893L224.969 142.196C223.573 141.545 222.969 139.884 223.62 138.487L222.923 138.162ZM224.644 142.893L224.319 143.59C226.473 144.594 229.031 143.674 230.054 141.535L229.36 141.203L228.666 140.871C228.007 142.25 226.358 142.844 224.969 142.196L224.644 142.893ZM229.36 141.203L228.663 140.878L221.545 156.144L222.242 156.469L222.938 156.794L230.057 141.528L229.36 141.203ZM222.242 156.469L222.942 156.787C223.921 154.628 222.982 152.079 220.829 151.075L220.504 151.772L220.179 152.469C221.567 153.116 222.173 154.76 221.541 156.151L222.242 156.469ZM220.504 151.772L220.829 151.075C218.662 150.065 216.087 151.002 215.077 153.169L215.774 153.494L216.471 153.819C217.122 152.422 218.782 151.818 220.179 152.469L220.504 151.772ZM215.774 153.494L215.077 153.169C214.067 155.335 215.003 157.911 217.17 158.922L217.495 158.225L217.82 157.528C216.423 156.877 215.819 155.216 216.471 153.819L215.774 153.494ZM217.495 158.225L217.17 158.922C219.324 159.926 221.881 159.006 222.904 156.867L222.211 156.535L221.517 156.203C220.857 157.582 219.208 158.176 217.82 157.528L217.495 158.225ZM222.211 156.535L221.514 156.21L214.395 171.476L215.092 171.801L215.789 172.126L222.907 156.86L222.211 156.535ZM215.092 171.801L215.792 172.119C216.772 169.96 215.833 167.411 213.68 166.407L213.355 167.104L213.03 167.801C214.418 168.448 215.023 170.092 214.392 171.483L215.092 171.801ZM213.355 167.104L213.68 166.407C211.513 165.397 208.938 166.334 207.927 168.501L208.624 168.826L209.321 169.151C209.973 167.754 211.633 167.15 213.03 167.801L213.355 167.104ZM208.624 168.826L207.927 168.501C206.917 170.667 207.854 173.243 210.021 174.254L210.346 173.557L210.671 172.86C209.274 172.209 208.67 170.548 209.321 169.151L208.624 168.826ZM210.346 173.557L210.021 174.254C212.176 175.259 214.734 174.337 215.756 172.196L215.062 171.865L214.368 171.533C213.709 172.914 212.06 173.508 210.671 172.86L210.346 173.557ZM215.062 171.865L214.365 171.54L208.53 184.054L209.227 184.379L209.924 184.704L215.759 172.19L215.062 171.865ZM209.227 184.379L209.552 183.683L147.313 154.66L146.988 155.357L146.663 156.054L208.902 185.076L209.227 184.379ZM146.988 155.357L146.663 156.054C150.612 157.895 155.306 156.187 157.147 152.238L156.45 151.913L155.753 151.588C154.271 154.767 150.492 156.142 147.313 154.66L146.988 155.357ZM156.45 151.913L157.147 152.238C158.988 148.289 157.28 143.595 153.331 141.754L153.006 142.451L152.681 143.148C155.86 144.63 157.235 148.409 155.753 151.588L156.45 151.913ZM153.006 142.451L153.331 141.754C149.382 139.913 144.688 141.621 142.847 145.57L143.544 145.895L144.241 146.22C145.723 143.041 149.502 141.666 152.681 143.148L153.006 142.451ZM143.544 145.895L142.847 145.57C141.006 149.519 142.714 154.213 146.663 156.054L146.988 155.357L147.313 154.66C144.134 153.178 142.759 149.399 144.241 146.22L143.544 145.895ZM146.988 155.357L147.313 154.66L85.0732 125.637L84.7483 126.334L84.4233 127.031L146.663 156.054L146.988 155.357ZM84.7483 126.334L85.4452 126.659L125.742 40.2422L125.045 39.9172L124.348 39.5923L84.0514 126.009L84.7483 126.334ZM125.045 39.9172L124.72 40.6141L249.199 98.6594L249.524 97.9625L249.849 97.2655L125.37 39.2203L125.045 39.9172ZM249.524 97.9625L248.827 97.6375L242.993 110.148L243.69 110.473L244.387 110.798L250.22 98.2874L249.524 97.9625ZM95.3294 112.068L95.6543 111.371C93.4878 110.361 90.9118 111.298 89.9012 113.464L90.5981 113.789L91.2949 114.114C91.9464 112.718 93.6073 112.113 95.0044 112.765L95.3294 112.068ZM90.5981 113.789L89.9012 113.464C88.8907 115.631 89.8285 118.207 91.9953 119.218L92.3203 118.521L92.6452 117.824C91.2482 117.173 90.6435 115.511 91.295 114.114L90.5981 113.789ZM92.3203 118.521L91.9954 119.218C94.1622 120.228 96.7377 119.29 97.748 117.123L97.0511 116.798L96.3542 116.473C95.7027 117.87 94.042 118.475 92.6452 117.824L92.3203 118.521ZM97.0511 116.798L97.748 117.123C98.7581 114.957 97.8207 112.382 95.6544 111.371L95.3294 112.068L95.0043 112.765C96.401 113.416 97.0053 115.077 96.3541 116.473L97.0511 116.798ZM102.479 96.736L102.804 96.0391C100.637 95.0288 98.0612 95.9654 97.0506 98.1323L97.7475 98.4573L98.4444 98.7823C99.0958 97.3856 100.757 96.7814 102.154 97.4329L102.479 96.736ZM97.7475 98.4573L97.0506 98.1323C96.0402 100.299 96.9779 102.875 99.1447 103.886L99.4697 103.189L99.7947 102.492C98.3976 101.841 97.793 100.179 98.4444 98.7823L97.7475 98.4573ZM99.4697 103.189L99.1448 103.886C101.312 104.896 103.887 103.958 104.897 101.791L104.201 101.466L103.504 101.141C102.852 102.538 101.191 103.143 99.7946 102.492L99.4697 103.189ZM104.201 101.466L104.897 101.791C105.908 99.6246 104.97 97.0496 102.804 96.0391L102.479 96.736L102.154 97.4328C103.551 98.0844 104.155 99.7446 103.504 101.141L104.201 101.466ZM109.628 81.404L109.953 80.7071C107.787 79.6968 105.211 80.6334 104.2 82.8003L104.897 83.1253L105.594 83.4503C106.245 82.0536 107.906 81.4494 109.303 82.1009L109.628 81.404ZM104.897 83.1253L104.2 82.8003C103.19 84.9671 104.127 87.5435 106.294 88.5539L106.619 87.857L106.944 87.1601C105.547 86.5086 104.942 84.8473 105.594 83.4503L104.897 83.1253ZM106.619 87.857L106.294 88.5539C108.461 89.564 111.037 88.6259 112.047 86.4593L111.35 86.1344L110.653 85.8094C110.002 87.2065 108.341 87.8112 106.944 87.16L106.619 87.857ZM111.35 86.1344L112.047 86.4593C113.057 84.2926 112.12 81.7176 109.953 80.7071L109.628 81.404L109.303 82.1008C110.7 82.7524 111.304 84.4126 110.653 85.8094L111.35 86.1344ZM116.778 66.072L117.103 65.3751C114.936 64.3648 112.36 65.3014 111.349 67.4683L112.046 67.7933L112.743 68.1183C113.395 66.7215 115.055 66.1174 116.453 66.7689L116.778 66.072ZM112.046 67.7933L111.349 67.4683C110.339 69.6351 111.277 72.2115 113.444 73.2219L113.769 72.525L114.094 71.8281C112.696 71.1766 112.092 69.5153 112.743 68.1183L112.046 67.7933ZM113.769 72.525L113.444 73.2219C115.611 74.232 118.186 73.2939 119.196 71.1273L118.499 70.8024L117.802 70.4774C117.151 71.8745 115.49 72.4792 114.093 71.828L113.769 72.525ZM118.499 70.8024L119.196 71.1273C120.207 68.9606 119.269 66.3856 117.103 65.3751L116.778 66.072L116.453 66.7688C117.849 67.4204 118.454 69.0806 117.802 70.4774L118.499 70.8024ZM123.927 50.74L124.252 50.0431C122.085 49.0328 119.509 49.9694 118.499 52.1363L119.196 52.4613L119.893 52.7863C120.544 51.3895 122.205 50.7853 123.602 51.4369L123.927 50.74ZM119.196 52.4613L118.499 52.1363C117.488 54.3031 118.426 56.8795 120.593 57.8899L120.918 57.193L121.243 56.4961C119.846 55.8446 119.241 54.1833 119.893 52.7863L119.196 52.4613ZM120.918 57.193L120.593 57.8899C122.76 58.9 125.335 57.9619 126.346 55.7953L125.649 55.4704L124.952 55.1454C124.3 56.5425 122.64 57.1472 121.243 56.496L120.918 57.193ZM125.649 55.4704L126.346 55.7953C127.356 53.6286 126.418 51.0536 124.252 50.0431L123.927 50.74L123.602 51.4368C124.999 52.0884 125.603 53.7486 124.952 55.1454L125.649 55.4704ZM187.285 68.9401L187.61 68.2431C183.661 66.4018 178.967 68.1103 177.126 72.059L177.823 72.384L178.52 72.709C180.002 69.53 183.781 68.1546 186.96 69.637L187.285 68.9401ZM177.823 72.384L177.126 72.059C175.285 76.0077 176.993 80.7017 180.942 82.543L181.267 81.8461L181.592 81.1492C178.413 79.6668 177.037 75.8879 178.52 72.7089L177.823 72.384ZM181.267 81.8461L180.942 82.543C184.89 84.3841 189.584 82.6757 191.426 78.7272L190.729 78.4022L190.032 78.0772C188.549 81.2559 184.77 82.6314 181.592 81.1492L181.267 81.8461ZM190.729 78.4022L191.426 78.7271C193.267 74.7784 191.558 70.0846 187.61 68.2432L187.285 68.9401L186.96 69.6369C190.139 71.1194 191.514 74.8983 190.032 78.0772L190.729 78.4022Z" fill="black" mask="url(#path-1-inside-1_208_31)"/>
<g clip-path="url(#clip0_208_31)">
<rect x="49.3755" y="24.9951" width="193.777" height="58.4406" transform="rotate(25 49.3755 24.9951)" fill="#1B3E18"/>
<line x1="139.809" y1="61.2257" x2="107.312" y2="130.917" stroke="#C2C2C2" stroke-width="0.768956" stroke-dasharray="3.08 3.08"/>
<path d="M52.4635 42.5819C52.0369 42.383 51.7108 42.1221 51.4854 41.7993C51.2659 41.4744 51.1515 41.1045 51.1422 40.6896C51.1348 40.2706 51.2428 39.8214 51.4664 39.3419C51.6881 38.8666 51.9588 38.4982 52.2786 38.2367C52.6003 37.9712 52.9561 37.8181 53.3461 37.7773C53.7401 37.7385 54.1545 37.8204 54.5893 38.0232C55.0199 38.224 55.348 38.4858 55.5734 38.8085C55.7989 39.1313 55.9153 39.5022 55.9227 39.9212C55.9321 40.3361 55.8249 40.7833 55.6014 41.2627C55.3797 41.7381 55.108 42.1085 54.7864 42.374C54.4647 42.6395 54.1068 42.7917 53.7128 42.8306C53.3187 42.8694 52.9023 42.7865 52.4635 42.5819ZM52.7704 41.9237C53.1808 42.115 53.5623 42.1297 53.9148 41.9676C54.2734 41.8034 54.5786 41.4511 54.8306 40.9107C55.0693 40.3988 55.1453 39.9494 55.0585 39.5627C54.9736 39.1719 54.7159 38.8761 54.2852 38.6753C53.8829 38.4877 53.5025 38.476 53.144 38.6403C52.7874 38.8004 52.4831 39.1507 52.2311 39.6911C51.9942 40.199 51.9183 40.6483 52.0032 41.0391C52.088 41.4299 52.3438 41.7247 52.7704 41.9237ZM55.1578 43.7641L59.0031 40.1481L59.8442 40.5403L59.5459 45.8103L58.778 45.4522L58.8605 44.1774L56.831 43.231L55.9074 44.1136L55.1578 43.7641ZM58.5786 41.5677L57.3618 42.7291L58.9098 43.451L59.0235 41.7752C59.0356 41.5582 59.0571 41.316 59.0879 41.0484C58.9086 41.2418 58.7389 41.4149 58.5786 41.5677ZM61.0249 44.5634L62.3549 41.7111L63.0801 42.0493L61.7728 44.8528C61.5985 45.2266 61.5791 45.544 61.7146 45.8051C61.852 46.062 62.0954 46.272 62.4448 46.4349C62.8471 46.6225 63.1812 46.6645 63.4471 46.561C63.7171 46.4593 63.9269 46.248 64.0766 45.9271L65.3839 43.1235L66.103 43.4589L64.773 46.3112C64.6177 46.6443 64.4111 46.9017 64.1533 47.0832C63.8974 47.2607 63.5971 47.3531 63.2523 47.3605C62.9116 47.3698 62.5361 47.2788 62.1257 47.0875C61.5447 46.8165 61.1539 46.4612 60.9534 46.0214C60.7547 45.5776 60.7785 45.0916 61.0249 44.5634ZM69.0134 50.2993C68.5787 50.0965 68.2525 49.8307 68.035 49.5017C67.8174 49.1727 67.7069 48.7996 67.7035 48.3826C67.7002 47.9655 67.8074 47.5233 68.0253 47.0561C68.2489 46.5766 68.5246 46.2081 68.8525 45.9504C69.1823 45.6887 69.5433 45.5404 69.9354 45.5057C70.3316 45.4728 70.741 45.5549 71.1636 45.7519C71.5293 45.9224 71.8179 46.1361 72.0295 46.3931C72.2471 46.6479 72.384 46.9269 72.4405 47.2303C72.501 47.5355 72.4805 47.8499 72.379 48.1736L71.5993 47.9362C71.694 47.5846 71.6716 47.2773 71.532 47.0144C71.3965 46.7534 71.1703 46.549 70.8534 46.4012C70.4146 46.1966 70.0173 46.1894 69.6615 46.3796C69.3116 46.5676 69.0202 46.9116 68.7871 47.4113C68.5332 47.9558 68.4607 48.419 68.5694 48.8012C68.68 49.1792 68.9344 49.4611 69.3326 49.6467C69.686 49.8116 70.0051 49.854 70.2897 49.774C70.5803 49.6919 70.8221 49.5128 71.0151 49.2367L71.7034 49.6542C71.5074 49.9684 71.2661 50.1996 70.9793 50.3478C70.6966 50.498 70.3866 50.5686 70.0495 50.5598C69.7123 50.5509 69.3669 50.4641 69.0134 50.2993ZM71.6246 51.4427L75.4699 47.8267L76.3109 48.2189L76.0127 53.4889L75.2448 53.1308L75.3273 51.8559L73.2978 50.9096L72.3742 51.7922L71.6246 51.4427ZM75.0454 49.2463L73.8286 50.4077L75.3766 51.1296L75.4903 49.4537C75.5024 49.2368 75.5238 48.9945 75.5546 48.7269C75.3754 48.9204 75.2056 49.0935 75.0454 49.2463ZM76.9712 53.9358L79.043 49.4929L80.2071 50.0357L79.8 53.9639L82.5596 51.1327L83.6993 51.6642L81.6275 56.1071L80.9144 55.7746L82.724 51.9736L79.598 55.1607L78.9824 54.8737L79.4422 50.4507L77.666 54.2598L76.9712 53.9358ZM83.058 56.7741L85.1297 52.3312L87.1653 53.2804C87.6529 53.5078 87.973 53.8079 88.1256 54.1808C88.2822 54.5556 88.2639 54.9502 88.0706 55.3646C87.8755 55.7831 87.582 56.0518 87.1901 56.1709C86.8042 56.2877 86.3675 56.2324 85.8799 56.0051L84.5818 55.3997L83.7832 57.1123L83.058 56.7741ZM86.8913 53.9317L85.5566 53.3093L84.8745 54.772L86.2092 55.3944C86.4368 55.5005 86.6491 55.5278 86.8462 55.4763C87.0453 55.4207 87.2026 55.269 87.3182 55.0211C87.4319 54.7773 87.448 54.5623 87.3667 54.376C87.2854 54.1897 87.1269 54.0416 86.8913 53.9317ZM88.4628 57.3579L89.7928 54.5056L90.5181 54.8438L89.2108 57.6473C89.0365 58.0211 89.0171 58.3385 89.1526 58.5996C89.29 58.8566 89.5334 59.0665 89.8828 59.2295C90.285 59.417 90.6191 59.4591 90.885 59.3555C91.155 59.2539 91.3649 59.0426 91.5145 58.7216L92.8218 55.9181L93.541 56.2534L92.211 59.1057C92.0556 59.4389 91.849 59.6962 91.5913 59.8777C91.3354 60.0552 91.0351 60.1477 90.6903 60.1551C90.3496 60.1644 89.974 60.0734 89.5637 59.882C88.9827 59.6111 88.5919 59.2557 88.3913 58.8159C88.1927 58.3721 88.2165 57.8861 88.4628 57.3579ZM96.6989 59.3732C96.8118 59.0993 96.8151 58.8536 96.7089 58.6358C96.6026 58.4181 96.4093 58.2439 96.129 58.1132C95.8608 57.9881 95.6301 57.9473 95.4367 57.9907C95.2474 58.036 95.1111 58.148 95.0277 58.3268C94.9557 58.4812 94.9456 58.6248 94.9974 58.7578C95.0491 58.8908 95.1491 59.0264 95.2973 59.1648C95.4455 59.3031 95.626 59.4516 95.839 59.6103C96.0641 59.7746 96.2625 59.9537 96.4343 60.1476C96.606 60.3414 96.7171 60.554 96.7676 60.7853C96.8221 61.0185 96.7821 61.2793 96.6476 61.5678C96.4619 61.9659 96.1619 62.2168 95.7475 62.3204C95.3373 62.4259 94.8599 62.3517 94.3154 62.0978C93.9579 61.9311 93.6775 61.7261 93.4743 61.483C93.2752 61.2417 93.1547 60.9803 93.1129 60.6986C93.0771 60.4148 93.1244 60.1277 93.2549 59.8373L94.0045 60.0756C93.8708 60.3941 93.8584 60.6752 93.9673 60.919C94.0804 61.1646 94.2933 61.3603 94.6061 61.5062C94.8865 61.6369 95.1366 61.6893 95.3565 61.6632C95.5764 61.6371 95.7432 61.5022 95.8569 61.2584C95.9365 61.0878 95.9504 60.936 95.8986 60.803C95.8509 60.6719 95.7623 60.549 95.6328 60.4342C95.5052 60.3154 95.3615 60.1939 95.2017 60.0699C94.9048 59.8474 94.6622 59.6304 94.4739 59.4189C94.2916 59.2053 94.1783 58.9868 94.1341 58.7633C94.0899 58.5399 94.1293 58.2962 94.2525 58.0321C94.3662 57.7883 94.5316 57.6033 94.7488 57.477C94.9678 57.3466 95.2198 57.2836 95.5047 57.2879C95.7897 57.2921 96.0906 57.3681 96.4075 57.5159C96.9235 57.7565 97.2689 58.066 97.4437 58.4443C97.6204 58.8185 97.6251 59.2115 97.4579 59.6232L96.6989 59.3732ZM96.4399 64.0827L96.6133 63.7109L96.7291 63.7649C96.8388 63.8161 96.9263 63.8247 96.9915 63.7908C97.0549 63.761 97.1065 63.7035 97.1462 63.6181L97.2514 63.3926L96.904 63.2307L97.2536 62.481L97.9605 62.8107L97.4746 63.8529C97.3817 64.0519 97.2566 64.1717 97.0993 64.2121C96.9401 64.2566 96.767 64.2352 96.5801 64.1481L96.4399 64.0827ZM101.427 65.3395L100.701 65.0013L102.773 60.5584L103.498 60.8966L101.427 65.3395ZM102.854 66.0051L104.926 61.5622L105.651 61.9004L103.872 65.7156L106.273 66.8353L105.98 67.463L102.854 66.0051ZM106.893 67.8887L108.965 63.4457L112.146 64.9292L111.856 65.5509L109.4 64.4056L108.818 65.655L111.018 66.6809L110.737 67.2843L108.536 66.2583L107.911 67.5991L110.55 68.8297L110.257 69.4574L106.893 67.8887ZM111.71 68.1164L112.005 67.4826L114.15 68.483L113.855 69.1168L111.71 68.1164ZM114.906 71.6249L114.18 71.2867L116.252 66.8438L116.977 67.182L114.906 71.6249ZM116.333 72.2905L118.405 67.8475L121.543 69.3111L121.251 69.9389L118.837 68.8135L118.235 70.1055L120.356 71.0945L120.066 71.7162L117.945 70.7272L117.058 72.6287L116.333 72.2905ZM120.503 74.2351L122.575 69.7922L125.756 71.2757L125.466 71.8973L123.01 70.752L122.428 72.0014L124.628 73.0273L124.346 73.6307L122.146 72.6048L121.521 73.9456L124.16 75.1761L123.867 75.8039L120.503 74.2351Z" fill="white"/>
<path d="M43.1992 59.2853L47.5154 50.0291L51.6038 51.9356C52.5096 52.3579 53.1053 52.9037 53.391 53.5728C53.6767 54.2419 53.6597 54.9192 53.3399 55.6049C53.115 56.0873 52.7762 56.4601 52.3238 56.7232C51.8753 56.9778 51.3049 57.0519 50.6125 56.9454C51.2362 57.4423 51.6056 57.965 51.7209 58.5134C51.8362 59.0618 51.7734 59.5942 51.5326 60.1105C51.1734 60.8808 50.6079 61.3642 49.8361 61.5608C49.0767 61.7529 48.2188 61.6259 47.2622 61.1799L43.1992 59.2853ZM51.2368 52.7228L47.9736 51.2012L46.4106 54.5532L49.6737 56.0748C50.3255 56.3788 50.8875 56.4553 51.3597 56.3045C51.8443 56.1492 52.2011 55.8261 52.43 55.3351C52.6787 54.8019 52.6901 54.3022 52.4643 53.8362C52.2385 53.3703 51.8293 52.9991 51.2368 52.7228ZM49.3506 56.8671L46.0494 55.3277L44.3975 58.8702L47.6987 60.4096C48.2235 60.6543 48.68 60.7693 49.0682 60.7545C49.4649 60.7436 49.7921 60.6386 50.0499 60.4393C50.3201 60.2356 50.5322 59.9686 50.6861 59.6385C50.9545 59.0629 50.9674 58.5382 50.7246 58.0643C50.4858 57.5819 50.0278 57.1829 49.3506 56.8671ZM55.7733 65.3032C54.8761 64.8849 54.207 64.3307 53.7661 63.6408C53.3253 62.9508 53.1056 62.1734 53.107 61.3084C53.1169 60.4474 53.3429 59.5428 53.785 58.5948C54.2586 57.579 54.8328 56.8008 55.5074 56.2601C56.1945 55.7148 56.9361 55.4062 57.7322 55.3343C58.5408 55.2579 59.364 55.4151 60.202 55.8059C61.0993 56.2243 61.7684 56.7784 62.2092 57.4684C62.654 58.1498 62.8757 58.923 62.8743 59.788C62.8729 60.653 62.6511 61.5595 62.209 62.5075C61.7354 63.5233 61.155 64.3038 60.4679 64.8491C59.7932 65.3898 59.0517 65.6984 58.2431 65.7748C57.4431 65.8551 56.6198 65.698 55.7733 65.3032ZM56.1404 64.516C57.207 65.0134 58.1879 65.0534 59.0832 64.6362C59.987 64.2229 60.733 63.3856 61.3211 62.1244C61.9131 60.8547 62.077 59.7409 61.8127 58.7829C61.5607 57.8204 60.9015 57.0904 59.8349 56.5931C58.7684 56.0957 57.7875 56.0557 56.8921 56.4729C55.9968 56.8902 55.2531 57.7336 54.6611 59.0033C54.069 60.273 53.9009 61.3849 54.1568 62.339C54.4126 63.293 55.0739 64.0187 56.1404 64.516ZM65.4449 69.8132C64.5476 69.3948 63.8786 68.8406 63.4377 68.1507C62.9968 67.4608 62.7771 66.6833 62.7786 65.8183C62.7885 64.9573 63.0144 64.0528 63.4565 63.1047C63.9302 62.089 64.5043 61.3107 65.179 60.77C65.8661 60.2247 66.6077 59.9162 67.4038 59.8443C68.2123 59.7678 69.0356 59.925 69.8736 60.3158C70.7709 60.7342 71.4399 61.2884 71.8808 61.9783C72.3256 62.6598 72.5473 63.433 72.5459 64.2979C72.5444 65.1629 72.3227 66.0694 71.8806 67.0175C71.4069 68.0332 70.8266 68.8137 70.1395 69.359C69.4648 69.8997 68.7232 70.2083 67.9147 70.2847C67.1146 70.3651 66.2914 70.2079 65.4449 69.8132ZM65.812 69.026C66.8785 69.5233 67.8595 69.5634 68.7548 69.1461C69.6586 68.7328 70.4045 67.8956 70.9926 66.6343C71.5847 65.3646 71.7486 64.2508 71.4842 63.2928C71.2323 62.3303 70.5731 61.6004 69.5065 61.103C68.44 60.6057 67.459 60.5656 66.5637 60.9829C65.6684 61.4001 64.9247 62.2436 64.3326 63.5133C63.7406 64.783 63.5725 65.8948 63.8283 66.8489C64.0842 67.8029 64.7454 68.5286 65.812 69.026ZM75.1165 74.3231C74.2192 73.9047 73.5501 73.3505 73.1093 72.6606C72.6684 71.9707 72.4487 71.1932 72.4501 70.3283C72.46 69.4672 72.686 68.5627 73.1281 67.6147C73.6017 66.5989 74.1759 65.8206 74.8506 65.2799C75.5377 64.7346 76.2792 64.4261 77.0754 64.3542C77.8839 64.2778 78.7072 64.435 79.5452 64.8257C80.6794 65.3546 81.4337 66.0464 81.8081 66.9012C82.1948 67.7513 82.2574 68.6668 81.9959 69.6475L81.1232 69.3642C81.3317 68.4309 81.248 67.6602 80.872 67.0521C80.5 66.4355 79.9374 65.9515 79.184 65.6002C78.1174 65.1029 77.1365 65.0628 76.2412 65.4801C75.3459 65.8973 74.6022 66.7408 74.0101 68.0105C73.418 69.2802 73.248 70.3963 73.4999 71.3588C73.7518 72.3213 74.4111 73.0512 75.4776 73.5486C76.4087 73.9828 77.212 74.0945 77.8873 73.8839C78.575 73.6687 79.1544 73.2329 79.6253 72.5766L80.4032 73.063C80.0062 73.6714 79.5234 74.1212 78.9547 74.4125C78.3945 74.7078 77.784 74.8456 77.1233 74.8261C76.471 74.8105 75.8021 74.6428 75.1165 74.3231ZM82.927 77.8106L87.2432 68.5545L88.0685 68.9393L86.1443 73.0659L92.0738 75.8309L93.998 71.7043L94.8106 72.0833L90.4944 81.3394L89.6818 80.9605L91.7245 76.58L85.795 73.815L83.7523 78.1955L82.927 77.8106ZM91.5728 81.8422L99.7362 74.3801L100.752 74.8537L100.283 85.9038L99.4195 85.5012L99.565 82.3384L94.7656 80.1003L92.4362 82.2448L91.5728 81.8422ZM98.9776 76.2059L95.3892 79.5255L99.5919 81.4852L99.8156 76.5966C99.8268 76.3958 99.8338 76.1929 99.8365 75.9881C99.8478 75.7872 99.8629 75.5779 99.8821 75.3601C99.7275 75.5148 99.5727 75.659 99.4175 75.7927C99.2709 75.9304 99.1242 76.0682 98.9776 76.2059ZM101.365 86.4084L105.681 77.1523L106.506 77.5371L102.546 86.0314L108.12 88.6306L107.764 89.3924L101.365 86.4084ZM108.805 89.8776L113.121 80.6214L113.946 81.0063L109.985 89.5006L115.559 92.0998L115.204 92.8616L108.805 89.8776Z" fill="#C2C2C2"/>
<path d="M37.7091 72.3056L39.4427 68.5879L38.14 67.9804L38.4384 67.3405L38.5908 67.4115C38.9768 67.5915 39.3375 67.6268 39.673 67.5173C40.0135 67.4103 40.2983 67.1906 40.5274 66.8585L41.1826 67.164L38.5929 72.7176L37.7091 72.3056ZM42.2599 74.5204C41.7673 74.2906 41.4242 73.9854 41.2308 73.6046C41.0425 73.2261 40.9767 72.7905 41.0334 72.2975C41.0976 71.8019 41.2623 71.2697 41.5275 70.7008C41.8378 70.0355 42.1738 69.5337 42.5356 69.1954C42.8998 68.852 43.2829 68.6535 43.6851 68.5999C44.0873 68.5463 44.4991 68.6178 44.9207 68.8143C45.4133 69.044 45.7564 69.3493 45.9498 69.7301C46.1432 70.1109 46.209 70.5466 46.1472 71.0372C46.0905 71.5301 45.9295 72.061 45.6642 72.6298C45.354 73.2951 45.0142 73.7983 44.645 74.1393C44.2808 74.4827 43.8976 74.6812 43.4955 74.7348C43.0933 74.7884 42.6814 74.7169 42.2599 74.5204ZM42.6258 73.7357C43.0474 73.9323 43.4297 73.888 43.7729 73.6028C44.1236 73.3149 44.4493 72.8485 44.75 72.2035C44.9963 71.6753 45.1386 71.2377 45.1767 70.8907C45.22 70.546 45.1836 70.2725 45.0678 70.0701C44.9543 69.8626 44.7833 69.7056 44.5548 69.599C44.1332 69.4024 43.7509 69.4467 43.4077 69.7319C43.0645 70.017 42.7425 70.4821 42.4417 71.1271C42.1954 71.6553 42.0495 72.0943 42.0039 72.444C41.9606 72.7886 41.9958 73.0647 42.1092 73.2722C42.2301 73.477 42.4023 73.6315 42.6258 73.7357ZM45.1765 75.7877L49.9832 71.2677L51.0345 71.758L50.6617 78.3454L49.7018 77.8978L49.8049 76.3043L47.268 75.1213L46.1136 76.2246L45.1765 75.7877ZM49.4525 73.0422L47.9315 74.494L49.8666 75.3963L50.0087 73.3015C50.0238 73.0303 50.0506 72.7275 50.0891 72.393C49.8651 72.6348 49.6529 72.8512 49.4525 73.0422ZM51.8599 78.9042L54.4496 73.3505L55.9047 74.029L55.3958 78.9392L58.8453 75.4002L60.2699 76.0645L57.6802 81.6182L56.7889 81.2026L59.0508 76.4513L55.1433 80.4352L54.3739 80.0765L54.9486 74.5477L52.7283 79.3091L51.8599 78.9042ZM58.4444 83.3101L58.6611 82.8454L58.8058 82.9129C58.943 82.9769 59.0523 82.9877 59.1339 82.9453C59.2131 82.9081 59.2776 82.8361 59.3273 82.7294L59.4587 82.4476L59.0245 82.2451L59.4614 81.308L60.3452 81.7201L59.7377 83.0228C59.6216 83.2717 59.4653 83.4214 59.2686 83.4719C59.0696 83.5275 58.8532 83.5008 58.6196 83.3918L58.4444 83.3101ZM65.5715 85.3908C64.9265 85.09 64.5234 84.6949 64.3621 84.2054C64.2059 83.7183 64.2568 83.1979 64.515 82.6443L64.92 81.7758L65.8265 82.1986L65.4109 83.0899C65.2333 83.4708 65.2015 83.7775 65.3157 84.0101C65.4373 84.2399 65.6505 84.4259 65.9552 84.568C66.3412 84.748 66.6504 84.7809 66.883 84.6667C67.1155 84.5526 67.3029 84.3431 67.445 84.0384L69.2176 80.2369L70.1242 80.6597L68.3622 84.4383C68.0709 85.063 67.6764 85.4448 67.1788 85.5838C66.6863 85.7251 66.1505 85.6607 65.5715 85.3908ZM70.1254 85.0008L71.7879 81.4355L72.6945 81.8582L71.0604 85.3626C70.8425 85.8298 70.8182 86.2266 70.9876 86.5529C71.1593 86.8741 71.4636 87.1366 71.9004 87.3403C72.4032 87.5747 72.8208 87.6273 73.1532 87.4978C73.4907 87.3708 73.753 87.1066 73.9401 86.7054L75.5742 83.201L76.4731 83.6202L74.8106 87.1855C74.6164 87.602 74.3582 87.9237 74.036 88.1506C73.7161 88.3725 73.3407 88.488 72.9097 88.4973C72.4839 88.5089 72.0144 88.3951 71.5015 88.1559C70.7752 87.8173 70.2867 87.3731 70.036 86.8234C69.7877 86.2686 69.8175 85.661 70.1254 85.0008ZM75.6102 89.9791L78.2 84.4255L79.3732 84.9725L80.1685 90.5465L82.1614 86.2727L83.0528 86.6884L80.4631 92.242L79.3965 91.7447L78.5483 86.0255L76.5092 90.3983L75.6102 89.9791ZM82.244 93.0725L84.8338 87.5188L88.8105 89.3732L88.4481 90.1503L85.378 88.7186L84.6497 90.2804L87.3999 91.5628L87.0482 92.317L84.298 91.0346L83.5165 92.7106L86.8152 94.2488L86.4493 95.0335L82.244 93.0725ZM91.07 97.1881L92.8036 93.4704L91.5009 92.863L91.7993 92.223L91.9516 92.2941C92.3376 92.4741 92.6983 92.5094 93.0338 92.3999C93.3743 92.2928 93.6592 92.0732 93.8883 91.741L94.5434 92.0465L91.9537 97.6002L91.07 97.1881ZM96.1926 99.5768L96.7361 98.4113L93.9631 97.1182L94.3041 96.3868L98.7747 94.0196L99.6736 94.4388L97.9791 98.0727L98.8324 98.4706L98.4807 99.2248L97.6274 98.8269L97.0839 99.9925L96.1926 99.5768ZM95.2594 96.8045L97.0878 97.657L98.2388 95.1887L95.2594 96.8045ZM100.343 101.512L102.566 96.743L100.677 95.862L101.043 95.0773L105.705 97.2514L105.339 98.0361L103.473 97.1657L101.249 101.935L100.343 101.512ZM104.268 103.343L106.858 97.789L107.765 98.2117L106.681 100.535L109.561 101.878L110.644 99.5545L111.536 99.9702L108.946 105.524L108.055 105.108L109.199 102.655L106.319 101.312L105.175 103.765L104.268 103.343Z" fill="white"/>
<g clip-path="url(#clip1_208_31)">
<rect x="175.937" y="92.9202" width="42.2926" height="42.2926" rx="2.19702" transform="rotate(25 175.937 92.9202)" fill="white"/>
<g clip-path="url(#clip2_208_31)">
<path d="M208.193 113.414L178.325 99.4866L164.398 129.354L194.266 143.282L208.193 113.414Z" fill="white"/>
<path d="M173.683 109.442L174.588 109.864L174.166 110.77L175.071 111.192L174.649 112.097L173.744 111.675L173.322 112.58L172.9 113.485L173.805 113.907L173.383 114.812L172.478 114.39L172.056 115.295L171.634 116.2L171.212 117.105L170.307 116.683L170.729 115.778L171.151 114.873L171.573 113.968L171.995 113.063L172.417 112.158L172.839 111.253L173.261 110.348L173.683 109.442ZM169.04 119.398L169.946 119.82L169.523 120.725L168.618 120.303L169.04 119.398ZM168.196 121.208L169.101 121.63L168.679 122.536L167.774 122.114L168.196 121.208ZM170.79 118.01L171.695 118.432L171.273 119.337L172.178 119.759L172.6 118.854L173.505 119.276L173.927 118.371L174.349 117.466L173.444 117.044L173.866 116.139L172.961 115.717L173.383 114.812L174.288 115.234L174.71 114.329L173.805 113.907L174.227 113.002L175.132 113.424L176.037 113.846L175.615 114.751L175.193 115.656L176.098 116.078L176.52 115.173L177.425 115.595L177.003 116.5L177.908 116.922L178.33 116.017L177.425 115.595L177.847 114.69L178.752 115.112L179.174 114.207L180.079 114.629L179.657 115.534L179.235 116.439L178.813 117.344L179.718 117.766L179.296 118.671L178.874 119.576L178.452 120.481L179.357 120.904L178.935 121.809L178.03 121.387L177.608 122.292L176.703 121.87L176.281 122.775L175.376 122.353L175.798 121.448L174.893 121.025L175.315 120.12L176.22 120.542L176.642 119.637L175.737 119.215L174.832 118.793L174.41 119.698L173.988 120.603L173.566 121.509L173.144 122.414L172.239 121.992L171.334 121.57L171.756 120.664L170.851 120.242L169.946 119.82L170.368 118.915L170.79 118.01ZM169.523 120.725L170.429 121.147L171.334 121.57L170.912 122.475L171.817 122.897L172.722 123.319L172.3 124.224L171.395 123.802L170.49 123.38L169.584 122.958L170.007 122.053L169.101 121.63L169.523 120.725ZM176.759 107.571L177.664 107.993L177.242 108.898L178.147 109.32L178.569 108.415L179.474 108.837L180.38 109.259L181.285 109.682L180.863 110.587L179.958 110.165L179.535 111.07L180.441 111.492L181.346 111.914L181.768 111.009L182.19 110.104L183.095 110.526L184 110.948L183.578 111.853L184.483 112.275L184.905 111.37L185.81 111.792L186.715 112.214L186.293 113.119L185.388 112.697L184.966 113.602L184.544 114.507L183.639 114.085L183.217 114.99L182.312 114.568L181.89 115.473L180.985 115.051L180.079 114.629L180.502 113.724L180.924 112.819L180.018 112.397L179.113 111.975L178.208 111.553L178.63 110.648L177.725 110.226L176.82 109.803L176.398 110.709L175.976 111.614L175.071 111.192L175.493 110.287L175.915 109.381L176.337 108.476L176.759 107.571ZM172.539 116.622L173.444 117.044L173.022 117.949L172.117 117.527L172.539 116.622ZM177.303 111.131L178.208 111.553L177.786 112.458L176.881 112.036L177.303 111.131ZM176.459 112.941L177.364 113.363L178.269 113.785L177.847 114.69L176.942 114.268L176.037 113.846L176.459 112.941ZM176.581 117.405L176.159 118.31L177.064 118.732L177.969 119.154L178.391 118.249L177.486 117.827L176.581 117.405ZM178.691 112.88L179.596 113.302L179.174 114.207L178.269 113.785L178.691 112.88ZM174.471 121.931L175.376 122.353L174.954 123.258L174.049 122.836L174.471 121.931ZM173.627 123.741L174.532 124.163L175.437 124.585L175.015 125.49L174.11 125.068L173.205 124.646L173.627 123.741ZM185.566 102.863L186.471 103.285L187.376 103.707L186.954 104.612L187.859 105.034L187.437 105.939L186.532 105.517L186.11 106.422L185.205 106L185.627 105.095L186.049 104.19L185.144 103.768L185.566 102.863ZM184.3 105.578L185.205 106L184.783 106.905L183.878 106.483L184.3 105.578ZM183.034 108.293L183.939 108.715L183.517 109.621L182.612 109.198L183.034 108.293ZM176.281 122.775L177.186 123.197L177.608 122.292L178.513 122.714L178.935 121.809L179.84 122.231L179.418 123.136L178.996 124.041L179.901 124.463L180.323 123.558L180.745 122.653L181.651 123.075L182.073 122.17L182.495 121.265L181.59 120.843L182.012 119.937L181.107 119.515L181.529 118.61L182.434 119.032L183.339 119.454L184.244 119.876L185.149 120.299L185.571 119.393L186.476 119.815L186.054 120.721L185.632 121.626L184.727 121.204L183.822 120.782L183.4 121.687L182.978 122.592L182.556 123.497L183.461 123.919L183.883 123.014L184.305 122.109L185.21 122.531L184.788 123.436L184.366 124.341L183.944 125.246L183.039 124.824L182.134 124.402L181.229 123.98L180.806 124.885L180.384 125.79L179.479 125.368L178.574 124.946L177.669 124.524L177.247 125.429L178.152 125.851L177.73 126.756L177.308 127.661L176.886 128.566L175.981 128.144L175.559 129.049L175.137 129.954L174.232 129.532L173.327 129.11L173.749 128.205L174.171 127.3L175.076 127.722L175.498 126.817L176.403 127.239L176.825 126.334L175.92 125.912L176.342 125.007L175.437 124.585L175.859 123.68L176.281 122.775ZM175.015 125.49L175.92 125.912L175.498 126.817L174.593 126.395L175.015 125.49ZM172.905 130.015L173.81 130.437L174.715 130.859L174.293 131.764L173.388 131.342L172.483 130.92L172.905 130.015ZM184.783 106.905L185.688 107.327L186.593 107.749L186.171 108.654L185.266 108.232L184.844 109.137L183.939 108.715L184.361 107.81L184.783 106.905ZM180.563 115.956L181.468 116.378L181.046 117.283L180.14 116.861L180.563 115.956ZM172.966 132.247L173.871 132.67L174.776 133.092L174.354 133.997L173.449 133.575L172.544 133.153L172.966 132.247ZM184.844 109.137L185.749 109.56L185.327 110.465L184.905 111.37L184 110.948L184.422 110.043L184.844 109.137ZM181.89 115.473L182.795 115.895L183.217 114.99L184.122 115.412L184.544 114.507L185.449 114.929L185.871 114.024L186.776 114.446L186.354 115.351L187.259 115.773L187.681 114.868L188.586 115.29L188.164 116.195L189.069 116.617L188.647 117.522L187.742 117.1L186.837 116.678L185.932 116.256L185.027 115.834L184.605 116.739L185.51 117.161L186.415 117.583L187.32 118.005L186.898 118.91L185.993 118.488L185.571 119.393L184.666 118.971L185.088 118.066L184.183 117.644L183.761 118.549L182.856 118.127L183.278 117.222L182.373 116.8L181.468 116.378L181.89 115.473ZM181.046 117.283L181.951 117.705L181.529 118.61L180.624 118.188L181.046 117.283ZM187.437 105.939L188.342 106.361L188.764 105.456L189.669 105.878L189.247 106.783L190.152 107.205L191.058 107.627L191.963 108.049L191.541 108.955L190.635 108.532L190.213 109.438L189.791 110.343L188.886 109.921L187.981 109.499L187.076 109.077L187.498 108.171L188.403 108.593L189.308 109.016L189.73 108.11L188.825 107.688L187.92 107.266L187.498 108.171L186.593 107.749L187.015 106.844L187.437 105.939ZM186.171 108.654L187.076 109.077L186.654 109.982L185.749 109.56L186.171 108.654ZM180.684 120.42L181.59 120.843L181.168 121.748L180.745 122.653L179.84 122.231L180.262 121.326L180.684 120.42ZM176.886 128.566L177.791 128.988L177.369 129.893L176.464 129.471L176.886 128.566ZM176.042 130.376L176.947 130.798L177.369 129.893L178.274 130.315L178.696 129.41L179.601 129.832L179.179 130.737L180.084 131.159L179.662 132.065L180.567 132.487L180.145 133.392L179.24 132.97L178.818 133.875L178.396 134.78L177.491 134.358L177.913 133.453L178.335 132.548L177.43 132.126L176.525 131.703L176.103 132.609L175.198 132.186L175.62 131.281L176.042 130.376ZM186.654 109.982L187.559 110.404L187.137 111.309L186.232 110.887L186.654 109.982ZM179.057 126.273L179.962 126.695L179.54 127.6L180.445 128.022L181.35 128.444L181.773 127.539L182.195 126.634L183.1 127.056L184.005 127.478L183.583 128.383L182.678 127.961L182.256 128.866L181.834 129.771L181.411 130.676L180.506 130.254L179.601 129.832L180.023 128.927L179.118 128.505L178.213 128.083L178.635 127.178L179.057 126.273ZM187.137 111.309L188.042 111.731L188.464 110.826L189.369 111.248L188.947 112.153L188.525 113.058L189.43 113.48L190.335 113.902L189.913 114.807L189.008 114.385L188.103 113.963L187.681 114.868L186.776 114.446L187.198 113.541L187.62 112.636L186.715 112.214L187.137 111.309ZM176.586 133.936L177.491 134.358L177.069 135.263L176.164 134.841L176.586 133.936ZM189.791 110.343L190.696 110.765L190.274 111.67L189.369 111.248L189.791 110.343ZM178.396 134.78L179.301 135.202L179.723 134.297L180.145 133.392L181.05 133.814L181.472 132.909L182.378 133.331L181.956 134.236L181.533 135.141L181.111 136.046L180.206 135.624L179.784 136.529L178.879 136.107L177.974 135.685L178.396 134.78ZM192.807 106.239L193.712 106.661L194.617 107.083L195.522 107.505L196.427 107.927L196.005 108.833L195.583 109.738L194.678 109.316L195.1 108.411L194.195 107.988L193.29 107.566L192.868 108.471L191.963 108.049L192.385 107.144L192.807 106.239ZM191.119 109.86L192.024 110.282L192.446 109.377L192.868 108.471L193.773 108.894L193.351 109.799L194.256 110.221L195.161 110.643L194.739 111.548L194.317 112.453L193.412 112.031L193.834 111.126L192.929 110.704L192.507 111.609L193.412 112.031L192.99 112.936L192.568 113.841L191.663 113.419L192.085 112.514L191.18 112.092L191.602 111.187L190.696 110.765L191.119 109.86ZM190.274 111.67L191.18 112.092L190.757 112.997L189.852 112.575L190.274 111.67ZM181.411 130.676L182.317 131.098L181.895 132.004L181.472 132.909L180.567 132.487L180.989 131.581L181.411 130.676ZM190.757 112.997L191.663 113.419L191.24 114.324L190.335 113.902L190.757 112.997ZM189.491 115.712L190.396 116.134L190.818 115.229L191.24 114.324L192.146 114.746L191.724 115.651L191.301 116.556L192.207 116.978L192.629 116.073L193.051 115.168L193.473 114.263L193.895 113.358L194.317 112.453L195.222 112.875L194.8 113.78L194.378 114.685L195.283 115.107L195.705 114.202L196.127 113.297L195.222 112.875L195.644 111.97L196.066 111.065L196.971 111.487L197.876 111.909L197.454 112.814L198.359 113.236L197.937 114.141L198.842 114.563L198.42 115.468L197.998 116.373L197.576 117.278L196.671 116.856L196.249 117.761L197.154 118.183L196.732 119.088L195.827 118.666L194.922 118.244L194.5 119.149L195.405 119.572L196.31 119.994L196.732 119.088L197.637 119.511L197.215 120.416L198.12 120.838L197.698 121.743L198.603 122.165L198.181 123.07L197.759 123.975L197.337 124.88L196.915 125.785L196.01 125.363L196.432 124.458L196.854 123.553L195.949 123.131L195.527 124.036L195.105 124.941L196.01 125.363L195.588 126.268L194.683 125.846L193.778 125.424L194.2 124.519L194.622 123.614L195.044 122.709L195.466 121.804L194.561 121.382L194.983 120.477L194.078 120.055L193.173 119.633L192.751 120.538L191.846 120.116L190.94 119.693L190.035 119.271L190.457 118.366L190.879 117.461L189.974 117.039L189.069 116.617L189.491 115.712ZM188.647 117.522L189.552 117.944L189.13 118.849L190.035 119.271L189.613 120.177L188.708 119.754L187.803 119.332L188.225 118.427L188.647 117.522ZM187.381 120.238L188.286 120.66L187.864 121.565L188.769 121.987L189.191 121.082L190.096 121.504L189.674 122.409L190.579 122.831L191.001 121.926L191.423 121.021L192.329 121.443L191.906 122.348L192.812 122.77L193.717 123.192L193.295 124.097L192.873 125.002L191.967 124.58L191.062 124.158L190.64 125.063L189.735 124.641L190.157 123.736L189.252 123.314L188.347 122.892L187.442 122.47L187.02 123.375L186.115 122.953L186.537 122.048L186.959 121.143L187.381 120.238ZM185.693 123.858L186.598 124.28L186.176 125.185L187.081 125.607L187.503 124.702L186.598 124.28L187.02 123.375L187.925 123.797L188.83 124.219L188.408 125.124L187.986 126.029L188.891 126.451L188.469 127.356L189.374 127.778L188.952 128.683L189.857 129.105L189.435 130.01L189.013 130.915L188.108 130.493L187.203 130.071L187.625 129.166L188.047 128.261L187.142 127.839L187.564 126.934L186.659 126.512L185.754 126.09L185.332 126.995L184.427 126.573L184.849 125.668L185.271 124.763L185.693 123.858ZM183.161 129.288L184.066 129.71L183.644 130.615L184.549 131.037L184.971 130.132L185.876 130.554L185.454 131.46L185.032 132.365L184.127 131.943L183.705 132.848L182.8 132.426L183.222 131.52L182.317 131.098L182.739 130.193L183.161 129.288ZM185.332 126.995L186.237 127.417L185.815 128.322L185.393 129.227L184.488 128.805L184.91 127.9L185.332 126.995ZM181.111 136.046L182.016 136.468L182.439 135.563L182.861 134.658L183.283 133.753L184.188 134.175L183.766 135.08L183.344 135.985L182.922 136.89L183.827 137.312L184.249 136.407L184.671 135.502L185.093 134.597L185.998 135.019L185.576 135.924L185.154 136.829L184.732 137.734L184.31 138.639L183.405 138.217L182.5 137.795L181.594 137.373L180.689 136.951L181.111 136.046ZM195.583 109.738L196.488 110.16L196.066 111.065L195.161 110.643L195.583 109.738ZM193.956 115.59L193.534 116.495L194.439 116.917L195.344 117.339L195.766 116.434L194.861 116.012L193.956 115.59ZM193.112 117.4L192.69 118.305L193.595 118.727L194.017 117.822L193.112 117.4ZM186.298 129.649L187.203 130.071L186.781 130.976L185.876 130.554L186.298 129.649ZM197.332 108.35L198.237 108.772L199.142 109.194L200.047 109.616L200.952 110.038L200.53 110.943L199.625 110.521L199.203 111.426L200.108 111.848L199.686 112.753L199.264 113.658L198.359 113.236L198.781 112.331L197.876 111.909L198.298 111.004L197.393 110.582L197.815 109.677L196.91 109.255L197.332 108.35ZM189.313 125.546L190.218 125.968L190.64 125.063L191.545 125.485L191.123 126.39L190.701 127.295L189.796 126.873L188.891 126.451L189.313 125.546ZM186.781 130.976L187.686 131.399L187.264 132.304L188.169 132.726L187.747 133.631L186.842 133.209L186.42 134.114L185.515 133.692L185.937 132.787L186.359 131.882L186.781 130.976ZM196.61 114.624L196.188 115.529L197.093 115.951L197.515 115.046L196.61 114.624ZM192.751 120.538L193.656 120.96L193.234 121.865L192.329 121.443L192.751 120.538ZM186.42 134.114L187.325 134.536L186.903 135.441L185.998 135.019L186.42 134.114ZM188.591 131.821L189.496 132.243L189.918 131.338L190.823 131.76L191.245 130.855L192.15 131.277L191.728 132.182L192.633 132.604L193.539 133.026L194.444 133.448L195.349 133.87L194.927 134.775L194.022 134.353L193.6 135.258L194.505 135.68L194.083 136.585L193.177 136.163L192.755 137.068L192.333 137.973L191.911 138.878L191.006 138.456L191.428 137.551L190.523 137.129L189.618 136.707L188.713 136.285L187.808 135.863L188.23 134.958L188.652 134.053L189.074 133.148L188.169 132.726L188.591 131.821ZM186.481 136.346L187.386 136.768L188.291 137.19L189.196 137.612L188.774 138.517L187.869 138.095L187.447 139L187.025 139.905L186.12 139.483L185.215 139.061L185.637 138.156L186.542 138.578L186.964 137.673L186.059 137.251L186.481 136.346ZM190.762 129.527L191.667 129.949L191.245 130.855L190.34 130.432L190.762 129.527ZM190.401 132.665L189.979 133.57L189.557 134.475L189.135 135.38L190.04 135.802L190.945 136.224L191.85 136.646L192.272 135.741L192.694 134.836L193.117 133.931L192.211 133.509L191.306 133.087L190.401 132.665ZM197.576 117.278L198.481 117.7L198.059 118.605L197.154 118.183L197.576 117.278ZM193.356 126.329L194.261 126.751L193.839 127.656L192.934 127.234L193.356 126.329ZM192.511 128.139L193.417 128.561L193.839 127.656L194.744 128.078L195.649 128.5L195.227 129.405L194.322 128.983L193.9 129.888L194.805 130.31L194.383 131.216L193.478 130.794L193.056 131.699L192.15 131.277L192.572 130.371L192.995 129.466L192.089 129.044L192.511 128.139ZM198.059 118.605L198.964 119.027L198.542 119.933L197.637 119.511L198.059 118.605ZM190.884 133.992L191.789 134.414L191.367 135.319L190.462 134.897L190.884 133.992ZM188.774 138.517L189.679 138.939L190.101 138.034L191.006 138.456L190.584 139.361L190.162 140.266L189.74 141.171L188.835 140.749L187.93 140.327L188.352 139.422L188.774 138.517ZM199.447 120.355L200.352 120.777L199.93 121.682L199.025 121.26L199.447 120.355ZM196.915 125.785L197.82 126.207L197.398 127.112L196.493 126.69L196.915 125.785ZM194.383 131.216L195.288 131.638L195.71 130.733L196.132 129.827L197.037 130.249L196.615 131.155L197.52 131.577L198.425 131.999L198.003 132.904L198.908 133.326L198.486 134.231L198.064 135.136L197.642 136.041L197.22 136.946L196.798 137.851L196.376 138.756L195.471 138.334L195.893 137.429L194.988 137.007L195.41 136.102L194.505 135.68L194.927 134.775L195.832 135.197L196.737 135.619L197.159 134.714L197.581 133.809L196.676 133.387L195.771 132.965L194.866 132.543L193.961 132.121L194.383 131.216ZM201.196 118.967L202.101 119.389L201.679 120.294L200.774 119.872L201.196 118.967ZM199.508 122.587L200.413 123.009L201.318 123.431L200.896 124.336L201.801 124.758L202.223 123.853L201.318 123.431L201.74 122.526L202.162 121.621L201.257 121.199L201.679 120.294L202.584 120.716L203.49 121.138L203.912 120.233L204.817 120.655L204.395 121.56L203.973 122.465L203.551 123.37L203.128 124.275L202.706 125.18L202.284 126.085L201.862 126.99L201.44 127.895L201.018 128.8L200.113 128.378L200.535 127.473L199.63 127.051L200.052 126.146L199.147 125.724L199.569 124.819L199.991 123.914L199.086 123.492L199.508 122.587ZM197.398 127.112L198.303 127.534L198.725 126.629L199.63 127.051L199.208 127.956L200.113 128.378L199.691 129.283L200.596 129.705L200.174 130.611L199.269 130.189L198.364 129.766L197.459 129.344L197.881 128.439L196.976 128.017L197.398 127.112ZM193.661 137.49L194.566 137.912L195.471 138.334L195.049 139.239L195.954 139.661L195.532 140.566L194.627 140.144L193.722 139.722L194.144 138.817L193.238 138.395L193.661 137.49ZM198.847 131.094L199.752 131.516L199.33 132.421L198.425 131.999L198.847 131.094Z" fill="black"/>
<path d="M191.207 140.782C191.394 140.865 191.508 140.697 191.559 140.59C191.633 140.43 191.577 140.337 191.483 140.281C191.336 140.278 191.204 140.328 191.127 140.465C191.115 140.487 191.099 140.518 191.084 140.556C191.044 140.655 191.095 140.732 191.207 140.782ZM192.061 141.45C191.929 141.388 191.827 141.242 191.892 141.086C191.667 141.175 191.4 141.143 191.103 141.005C190.804 140.865 190.774 140.603 190.848 140.445C191.103 139.919 191.183 139.715 191.2 139.673C191.201 139.67 191.202 139.667 191.203 139.666L191.203 139.664C191.212 139.644 191.225 139.613 191.207 139.602C191.195 139.596 191.186 139.596 191.164 139.606C191.131 139.624 191.085 139.615 191.066 139.589C191.044 139.557 191.057 139.516 191.089 139.487C191.176 139.412 191.264 139.402 191.355 139.446C191.514 139.523 191.511 139.648 191.45 139.778C191.45 139.778 191.359 139.964 191.31 140.069C191.388 140.05 191.494 140.039 191.632 140.103C191.92 140.238 191.937 140.68 191.59 140.933C191.882 140.935 192.022 140.767 192.12 140.581L192.149 140.517C192.182 140.445 192.257 140.405 192.329 140.439C192.402 140.473 192.419 140.56 192.385 140.628C192.268 140.855 192.194 141.005 192.156 141.086C192.134 141.132 192.127 141.216 192.202 141.251C192.349 141.319 192.451 141.227 192.589 140.96C192.637 140.86 192.677 140.775 192.677 140.775C192.61 140.744 192.594 140.694 192.614 140.65C192.635 140.606 192.689 140.582 192.746 140.608C192.746 140.608 192.817 140.456 192.846 140.393C192.88 140.321 192.964 140.287 193.036 140.321C193.108 140.354 193.137 140.441 193.104 140.513C193.093 140.537 193.079 140.564 193.064 140.594C193.044 140.633 193.022 140.676 193 140.723L193.011 140.728C193.03 140.737 193.075 140.757 193.134 140.784C193.205 140.816 193.215 140.869 193.192 140.918C193.169 140.967 193.115 140.984 193.066 140.961C193.02 140.94 192.92 140.892 192.92 140.892C192.847 141.035 192.761 141.209 192.696 141.349C192.672 141.4 192.68 141.474 192.765 141.513C192.935 141.593 193.069 141.471 193.216 141.189C193.309 140.989 193.36 140.871 193.399 140.783C193.427 140.721 193.448 140.674 193.472 140.621C193.506 140.549 193.595 140.513 193.668 140.547C193.74 140.58 193.766 140.663 193.733 140.735C193.707 140.79 193.674 140.854 193.63 140.941C193.555 141.088 193.447 141.301 193.279 141.653C193.257 141.699 193.265 141.743 193.325 141.772C193.488 141.847 193.615 141.692 193.744 141.453C193.75 141.441 193.755 141.43 193.761 141.418C193.772 141.395 193.783 141.373 193.793 141.351C193.826 141.279 193.902 141.243 193.974 141.277C194.046 141.31 194.061 141.39 194.027 141.462C194.003 141.513 193.979 141.56 193.954 141.609C193.932 141.652 193.91 141.696 193.887 141.745C193.826 141.871 193.817 142.003 193.923 142.052C194.025 142.099 194.156 142.108 194.26 141.892C194.289 141.832 194.31 141.785 194.331 141.738C194.346 141.703 194.362 141.668 194.381 141.627C194.415 141.555 194.493 141.518 194.565 141.552C194.637 141.586 194.659 141.669 194.626 141.741C194.606 141.784 194.584 141.826 194.56 141.873C194.531 141.931 194.497 141.996 194.459 142.078C194.459 142.078 194.314 142.377 194.293 142.449C194.332 142.453 194.395 142.443 194.482 142.388C194.534 142.355 194.598 142.372 194.624 142.41C194.66 142.462 194.632 142.518 194.594 142.55C194.497 142.635 194.404 142.671 194.222 142.651C194.138 142.832 194.001 143.093 193.645 142.985C193.34 142.893 193.288 142.667 193.353 142.526C193.456 142.302 193.709 142.341 194.068 142.41L194.109 142.295C194.109 142.295 193.994 142.356 193.815 142.266C193.676 142.198 193.611 142.087 193.596 141.966C193.477 142.045 193.347 142.05 193.188 141.976C193.083 141.927 193.009 141.825 192.997 141.722C192.884 141.775 192.76 141.775 192.623 141.711C192.504 141.656 192.435 141.573 192.413 141.485C192.309 141.529 192.198 141.513 192.061 141.45ZM194.006 142.598C193.827 142.557 193.6 142.513 193.556 142.615C193.514 142.709 193.603 142.772 193.692 142.793C193.876 142.836 193.942 142.744 194.006 142.598ZM192.571 140.265C192.605 140.192 192.573 140.106 192.5 140.072C192.427 140.038 192.341 140.069 192.307 140.142C192.273 140.214 192.305 140.301 192.378 140.335C192.451 140.368 192.537 140.337 192.571 140.265Z" fill="black"/>
<path d="M178.325 99.4866L179.231 99.9086L180.136 100.331L181.041 100.753L181.946 101.175L182.851 101.597L183.756 102.019L184.661 102.441L184.239 103.346L183.817 104.251L183.395 105.156L182.973 106.061L182.551 106.966L182.129 107.871L181.707 108.776L180.802 108.354L179.897 107.932L178.991 107.51L178.086 107.088L177.181 106.666L176.276 106.244L175.371 105.822L175.793 104.917L176.215 104.012L176.637 103.107L177.059 102.202L177.481 101.297L177.903 100.392L178.325 99.4866ZM178.808 100.814L178.386 101.719L177.964 102.624L177.542 103.529L177.12 104.434L176.698 105.339L177.603 105.761L178.508 106.183L179.413 106.605L180.319 107.027L181.224 107.449L181.646 106.544L182.068 105.639L182.49 104.734L182.912 103.829L183.334 102.924L182.429 102.502L181.524 102.08L180.619 101.658L179.714 101.236L178.808 100.814Z" fill="black"/>
<path d="M179.293 102.146L180.198 102.568L181.103 102.99L182.008 103.412L181.586 104.317L181.164 105.222L180.742 106.127L179.837 105.705L178.932 105.283L178.027 104.861L178.449 103.956L178.871 103.051L179.293 102.146Z" fill="black"/>
<path d="M201.856 110.459L202.761 110.882L203.666 111.304L204.571 111.726L205.477 112.148L206.382 112.57L207.287 112.992L208.192 113.414L207.77 114.319L207.348 115.224L206.926 116.129L206.504 117.034L206.082 117.939L205.659 118.844L205.237 119.749L204.332 119.327L203.427 118.905L202.522 118.483L201.617 118.061L200.712 117.639L199.807 117.217L198.902 116.795L199.324 115.89L199.746 114.985L200.168 114.08L200.59 113.175L201.012 112.27L201.434 111.365L201.856 110.459ZM202.339 111.787L201.917 112.692L201.495 113.597L201.073 114.502L200.651 115.407L200.229 116.312L201.134 116.734L202.039 117.156L202.944 117.578L203.849 118L204.754 118.422L205.176 117.517L205.598 116.612L206.021 115.707L206.443 114.802L206.865 113.897L205.96 113.475L205.054 113.053L204.149 112.631L203.244 112.209L202.339 111.787Z" fill="black"/>
<path d="M202.825 113.117L203.73 113.539L204.635 113.961L205.54 114.383L205.118 115.288L204.696 116.193L204.274 117.099L203.369 116.677L202.464 116.254L201.559 115.832L201.981 114.927L202.403 114.022L202.825 113.117Z" fill="black"/>
<path d="M167.352 123.019L168.257 123.441L169.162 123.863L170.067 124.285L170.972 124.707L171.877 125.129L172.783 125.551L173.688 125.973L173.266 126.878L172.844 127.784L172.421 128.689L171.999 129.594L171.577 130.499L171.155 131.404L170.733 132.309L169.828 131.887L168.923 131.465L168.018 131.043L167.113 130.621L166.208 130.199L165.303 129.777L164.398 129.355L164.82 128.45L165.242 127.544L165.664 126.639L166.086 125.734L166.508 124.829L166.93 123.924L167.352 123.019ZM167.835 124.346L167.413 125.251L166.991 126.156L166.569 127.061L166.147 127.966L165.725 128.872L166.63 129.294L167.535 129.716L168.44 130.138L169.345 130.56L170.25 130.982L170.672 130.077L171.094 129.172L171.516 128.267L171.938 127.361L172.36 126.456L171.455 126.034L170.55 125.612L169.645 125.19L168.74 124.768L167.835 124.346Z" fill="black"/>
<path d="M168.321 125.676L169.226 126.098L170.131 126.52L171.036 126.942L170.614 127.847L170.192 128.753L169.77 129.658L168.865 129.236L167.959 128.814L167.054 128.392L167.476 127.486L167.899 126.581L168.321 125.676Z" fill="black"/>
</g>
</g>
<rect x="144.762" y="78.8071" width="23.0687" height="4.61373" transform="rotate(25 144.762 78.8071)" fill="#D9D9D9"/>
<rect x="141.837" y="85.0793" width="23.0687" height="0.768956" transform="rotate(25 141.837 85.0793)" fill="#D9D9D9"/>
<rect x="140.537" y="87.8669" width="23.0687" height="4.61373" transform="rotate(25 140.537 87.8669)" fill="#D9D9D9"/>
<rect x="137.612" y="94.1392" width="23.0687" height="0.768956" transform="rotate(25 137.612 94.1392)" fill="#D9D9D9"/>
<rect x="136.312" y="96.9268" width="23.0687" height="3.07582" transform="rotate(25 136.312 96.9268)" fill="#D9D9D9"/>
<rect x="134.038" y="101.805" width="23.0687" height="3.07582" transform="rotate(25 134.038 101.805)" fill="#D9D9D9"/>
<rect x="131.763" y="106.684" width="23.0687" height="4.61373" transform="rotate(25 131.763 106.684)" fill="#D9D9D9"/>
<rect x="128.838" y="112.956" width="23.0687" height="2.30687" transform="rotate(25 128.838 112.956)" fill="#D9D9D9"/>
</g>
<rect x="49.3755" y="24.9951" width="193.777" height="58.4406" transform="rotate(25 49.3755 24.9951)" stroke="#C2C2C2" stroke-width="0.768956" stroke-dasharray="3.08 3.08"/>
</g>
<defs>
<filter id="filter0_d_208_31" x="0.149902" y="0.46875" width="273.374" height="207.911" filterUnits="userSpaceOnUse" color-interpolation-filters="sRGB">
<feFlood flood-opacity="0" result="BackgroundImageFix"/>
<feColorMatrix in="SourceAlpha" type="matrix" values="0 0 0 0 0 0 0 0 0 0 0 0 0 0 0 0 0 0 127 0" result="hardAlpha"/>
<feOffset dx="24" dy="24"/>
<feComposite in2="hardAlpha" operator="out"/>
<feColorMatrix type="matrix" values="0 0 0 0 0 0 0 0 0 0 0 0 0 0 0 0 0 0 1 0"/>
<feBlend mode="normal" in2="BackgroundImageFix" result="effect1_dropShadow_208_31"/>
<feBlend mode="normal" in="SourceGraphic" in2="effect1_dropShadow_208_31" result="shape"/>
</filter>
<clipPath id="clip0_208_31">
<rect x="49.3755" y="24.9951" width="193.777" height="58.4406" transform="rotate(25 49.3755 24.9951)" fill="white"/>
</clipPath>
<clipPath id="clip1_208_31">
<rect x="175.937" y="92.9202" width="42.2926" height="42.2926" rx="2.19702" transform="rotate(25 175.937 92.9202)" fill="white"/>
</clipPath>
<clipPath id="clip2_208_31">
<rect width="32.9552" height="32.9552" fill="white" transform="translate(178.326 99.4875) rotate(25)"/>
</clipPath>
</defs>
</svg>
