<svg width="159" height="209" viewBox="0 0 159 209" fill="none" xmlns="http://www.w3.org/2000/svg">
<g filter="url(#filter0_d_201_632)">
<mask id="path-1-inside-1_201_632" fill="white">
<path d="M21.4819 45.1426C19.3283 49.7612 21.3267 55.2515 25.9452 57.4053C30.4196 59.4918 35.7122 57.6816 37.9967 53.3673L38.2079 52.9421L134.382 97.7887L130.482 106.152C128.173 105.075 125.427 106.074 124.351 108.383C123.307 110.62 124.213 113.267 126.37 114.409L126.582 114.515L123.333 121.484C121.023 120.407 118.278 121.406 117.201 123.715C116.158 125.952 117.063 128.599 119.22 129.741L119.433 129.847L116.183 136.816C113.874 135.739 111.129 136.738 110.052 139.047C109.008 141.284 109.914 143.931 112.071 145.073L112.284 145.179L109.034 152.148C106.725 151.071 103.979 152.07 102.902 154.379C101.859 156.616 102.764 159.263 104.921 160.405L105.134 160.511L101.884 167.48C99.5751 166.403 96.8298 167.402 95.7528 169.711C94.7095 171.948 95.6148 174.595 97.7721 175.737L97.9847 175.843L94.0849 184.206L-2.08902 139.359C0.0647216 134.74 -1.93357 129.25 -6.55228 127.096C-11.1709 124.943 -16.6613 126.941 -18.815 131.56L-114.988 86.7134L-111.088 78.3504C-108.779 79.4271 -106.034 78.4274 -104.957 76.1181C-103.914 73.881 -104.819 71.2352 -106.976 70.093L-107.189 69.9874L-103.939 63.0184C-101.63 64.0951 -98.8846 63.0954 -97.8078 60.7861C-96.7648 58.549 -97.6696 55.9032 -99.8266 54.761L-100.039 54.6554L-96.7895 47.6864C-94.4802 48.7631 -91.7352 47.7634 -90.6584 45.4541C-89.6154 43.217 -90.5202 40.5712 -92.6772 39.429L-92.8897 39.3234L-89.64 32.3544C-87.3307 33.4311 -84.5858 32.4314 -83.5089 30.1221C-82.4659 27.885 -83.3707 25.2392 -85.5277 24.097L-85.7403 23.9914L-82.4906 17.0224C-80.1813 18.0991 -77.4363 17.0994 -76.3595 14.7901C-75.3165 12.553 -76.2213 9.90719 -78.3783 8.76498L-78.5909 8.65938L-74.6912 0.296387L21.4819 45.1426Z"/>
</mask>
<path d="M21.4819 45.1426C19.3283 49.7612 21.3267 55.2515 25.9452 57.4053C30.4196 59.4918 35.7122 57.6816 37.9967 53.3673L38.2079 52.9421L134.382 97.7887L130.482 106.152C128.173 105.075 125.427 106.074 124.351 108.383C123.307 110.62 124.213 113.267 126.37 114.409L126.582 114.515L123.333 121.484C121.023 120.407 118.278 121.406 117.201 123.715C116.158 125.952 117.063 128.599 119.22 129.741L119.433 129.847L116.183 136.816C113.874 135.739 111.129 136.738 110.052 139.047C109.008 141.284 109.914 143.931 112.071 145.073L112.284 145.179L109.034 152.148C106.725 151.071 103.979 152.07 102.902 154.379C101.859 156.616 102.764 159.263 104.921 160.405L105.134 160.511L101.884 167.48C99.5751 166.403 96.8298 167.402 95.7528 169.711C94.7095 171.948 95.6148 174.595 97.7721 175.737L97.9847 175.843L94.0849 184.206L-2.08902 139.359C0.0647216 134.74 -1.93357 129.25 -6.55228 127.096C-11.1709 124.943 -16.6613 126.941 -18.815 131.56L-114.988 86.7134L-111.088 78.3504C-108.779 79.4271 -106.034 78.4274 -104.957 76.1181C-103.914 73.881 -104.819 71.2352 -106.976 70.093L-107.189 69.9874L-103.939 63.0184C-101.63 64.0951 -98.8846 63.0954 -97.8078 60.7861C-96.7648 58.549 -97.6696 55.9032 -99.8266 54.761L-100.039 54.6554L-96.7895 47.6864C-94.4802 48.7631 -91.7352 47.7634 -90.6584 45.4541C-89.6154 43.217 -90.5202 40.5712 -92.6772 39.429L-92.8897 39.3234L-89.64 32.3544C-87.3307 33.4311 -84.5858 32.4314 -83.5089 30.1221C-82.4659 27.885 -83.3707 25.2392 -85.5277 24.097L-85.7403 23.9914L-82.4906 17.0224C-80.1813 18.0991 -77.4363 17.0994 -76.3595 14.7901C-75.3165 12.553 -76.2213 9.90719 -78.3783 8.76498L-78.5909 8.65938L-74.6912 0.296387L21.4819 45.1426Z" fill="#1B3E18"/>
<path d="M21.4819 45.1426L22.1788 45.4676L22.5038 44.7707L21.8069 44.4457L21.4819 45.1426ZM25.9452 57.4053L25.6202 58.1022L25.6202 58.1023L25.9452 57.4053ZM37.9967 53.3673L38.6762 53.7271L38.6809 53.7183L38.6854 53.7093L37.9967 53.3673ZM38.2079 52.9421L38.5329 52.2452L37.8529 51.9281L37.5192 52.6L38.2079 52.9421ZM134.382 97.7887L135.079 98.1137L135.404 97.4168L134.707 97.0918L134.382 97.7887ZM130.482 106.152L130.157 106.849L130.854 107.174L131.179 106.477L130.482 106.152ZM124.351 108.383L123.654 108.058L123.654 108.058L124.351 108.383ZM126.37 114.409L126.01 115.089L126.019 115.093L126.028 115.098L126.37 114.409ZM126.582 114.515L127.279 114.84L127.596 114.16L126.924 113.826L126.582 114.515ZM123.333 121.484L123.008 122.181L123.705 122.506L124.03 121.809L123.333 121.484ZM117.201 123.715L116.504 123.39L116.504 123.39L117.201 123.715ZM119.22 129.741L118.861 130.421L118.869 130.425L118.878 130.43L119.22 129.741ZM119.433 129.847L120.13 130.172L120.447 129.492L119.775 129.158L119.433 129.847ZM116.183 136.816L115.858 137.513L116.555 137.838L116.88 137.141L116.183 136.816ZM110.052 139.047L109.355 138.722L109.355 138.722L110.052 139.047ZM112.071 145.073L111.711 145.753L111.72 145.757L111.729 145.762L112.071 145.073ZM112.284 145.179L112.98 145.504L113.297 144.824L112.626 144.49L112.284 145.179ZM109.034 152.148L108.709 152.845L109.406 153.17L109.731 152.473L109.034 152.148ZM102.902 154.379L102.205 154.054L102.205 154.054L102.902 154.379ZM104.921 160.405L104.562 161.085L104.57 161.089L104.579 161.094L104.921 160.405ZM105.134 160.511L105.831 160.836L106.148 160.156L105.476 159.822L105.134 160.511ZM101.884 167.48L101.559 168.177L102.256 168.502L102.581 167.805L101.884 167.48ZM95.7528 169.711L95.0559 169.386L95.0559 169.386L95.7528 169.711ZM97.7721 175.737L97.4122 176.417L97.4211 176.421L97.43 176.426L97.7721 175.737ZM97.9847 175.843L98.6816 176.168L98.9986 175.488L98.3267 175.154L97.9847 175.843ZM94.0849 184.206L93.7599 184.903L94.4569 185.228L94.7818 184.531L94.0849 184.206ZM-2.08902 139.359L-2.78593 139.034L-3.11091 139.731L-2.414 140.056L-2.08902 139.359ZM-6.55228 127.096L-6.22731 126.399L-6.22734 126.399L-6.55228 127.096ZM-18.815 131.56L-19.14 132.257L-18.4431 132.581L-18.1181 131.885L-18.815 131.56ZM-114.988 86.7134L-115.685 86.3884L-116.01 87.0853L-115.313 87.4103L-114.988 86.7134ZM-111.088 78.3504L-110.763 77.6534L-111.46 77.3285L-111.785 78.0254L-111.088 78.3504ZM-104.957 76.1181L-104.26 76.4431L-104.26 76.443L-104.957 76.1181ZM-106.976 70.093L-106.616 69.4134L-106.625 69.4087L-106.634 69.4043L-106.976 70.093ZM-107.189 69.9874L-107.886 69.6624L-108.203 70.3423L-107.531 70.6761L-107.189 69.9874ZM-103.939 63.0184L-103.614 62.3214L-104.311 61.9965L-104.636 62.6934L-103.939 63.0184ZM-97.8078 60.7861L-97.1109 61.1111L-97.1108 61.111L-97.8078 60.7861ZM-99.8266 54.761L-99.4667 54.0814L-99.4756 54.0767L-99.4845 54.0723L-99.8266 54.761ZM-100.039 54.6554L-100.736 54.3304L-101.053 55.0103L-100.381 55.3441L-100.039 54.6554ZM-96.7895 47.6864L-96.4645 46.9894L-97.1614 46.6645L-97.4864 47.3614L-96.7895 47.6864ZM-90.6584 45.4541L-89.9614 45.7791L-89.9614 45.779L-90.6584 45.4541ZM-92.6772 39.429L-92.3173 38.7494L-92.3261 38.7447L-92.3351 38.7403L-92.6772 39.429ZM-92.8897 39.3234L-93.5867 38.9984L-93.9037 39.6783L-93.2318 40.0121L-92.8897 39.3234ZM-89.64 32.3544L-89.3151 31.6574L-90.012 31.3325L-90.337 32.0294L-89.64 32.3544ZM-83.5089 30.1221L-82.812 30.4471L-82.812 30.447L-83.5089 30.1221ZM-85.5277 24.097L-85.1679 23.4174L-85.1767 23.4127L-85.1856 23.4083L-85.5277 24.097ZM-85.7403 23.9914L-86.4372 23.6664L-86.7543 24.3463L-86.0824 24.6801L-85.7403 23.9914ZM-82.4906 17.0224L-82.1657 16.3254L-82.8626 16.0005L-83.1875 16.6974L-82.4906 17.0224ZM-76.3595 14.7901L-75.6626 15.1151L-75.6626 15.115L-76.3595 14.7901ZM-78.3783 8.76498L-78.0184 8.08542L-78.0273 8.08074L-78.0362 8.0763L-78.3783 8.76498ZM-78.5909 8.65938L-79.2878 8.3344L-79.6048 9.01432L-78.933 9.34805L-78.5909 8.65938ZM-74.6912 0.296387L-74.3662 -0.400524L-75.0631 -0.725498L-75.3881 -0.028588L-74.6912 0.296387ZM21.4819 45.1426L20.785 44.8177C18.4519 49.8212 20.6169 55.7689 25.6202 58.1022L25.9452 57.4053L26.2702 56.7084C22.0365 54.7341 20.2047 49.7013 22.1788 45.4676L21.4819 45.1426ZM25.9452 57.4053L25.6202 58.1023C30.4677 60.3627 36.2011 58.4016 38.6762 53.7271L37.9967 53.3673L37.3171 53.0074C35.2234 56.9617 30.3715 58.6209 26.2701 56.7084L25.9452 57.4053ZM37.9967 53.3673L38.6854 53.7093L38.8966 53.2842L38.2079 52.9421L37.5192 52.6L37.308 53.0252L37.9967 53.3673ZM38.2079 52.9421L37.8829 53.639L134.057 98.4856L134.382 97.7887L134.707 97.0918L38.5329 52.2452L38.2079 52.9421ZM134.382 97.7887L133.685 97.4638L129.785 105.827L130.482 106.152L131.179 106.477L135.079 98.1137L134.382 97.7887ZM130.482 106.152L130.807 105.455C128.113 104.199 124.91 105.364 123.654 108.058L124.351 108.383L125.047 108.708C125.945 106.784 128.233 105.951 130.157 106.849L130.482 106.152ZM124.351 108.383L123.654 108.058C122.436 110.668 123.493 113.756 126.01 115.089L126.37 114.409L126.73 113.73C124.932 112.778 124.178 110.572 125.047 108.708L124.351 108.383ZM126.37 114.409L126.028 115.098L126.24 115.203L126.582 114.515L126.924 113.826L126.712 113.72L126.37 114.409ZM126.582 114.515L125.885 114.19L122.636 121.159L123.333 121.484L124.03 121.809L127.279 114.84L126.582 114.515ZM123.333 121.484L123.658 120.787C120.964 119.531 117.761 120.696 116.504 123.39L117.201 123.715L117.898 124.04C118.795 122.116 121.083 121.283 123.008 122.181L123.333 121.484ZM117.201 123.715L116.504 123.39C115.287 126 116.343 129.088 118.861 130.421L119.22 129.741L119.58 129.062C117.783 128.11 117.029 125.904 117.898 124.04L117.201 123.715ZM119.22 129.741L118.878 130.43L119.091 130.535L119.433 129.847L119.775 129.158L119.562 129.052L119.22 129.741ZM119.433 129.847L118.736 129.522L115.486 136.491L116.183 136.816L116.88 137.141L120.13 130.172L119.433 129.847ZM116.183 136.816L116.508 136.119C113.814 134.863 110.611 136.028 109.355 138.722L110.052 139.047L110.749 139.372C111.646 137.448 113.934 136.615 115.858 137.513L116.183 136.816ZM110.052 139.047L109.355 138.722C108.138 141.332 109.194 144.42 111.711 145.753L112.071 145.073L112.431 144.394C110.634 143.442 109.879 141.236 110.749 139.372L110.052 139.047ZM112.071 145.073L111.729 145.762L111.941 145.867L112.284 145.179L112.626 144.49L112.413 144.384L112.071 145.073ZM112.284 145.179L111.587 144.854L108.337 151.823L109.034 152.148L109.731 152.473L112.98 145.504L112.284 145.179ZM109.034 152.148L109.359 151.451C106.665 150.195 103.462 151.36 102.205 154.054L102.902 154.379L103.599 154.704C104.497 152.78 106.784 151.947 108.709 152.845L109.034 152.148ZM102.902 154.379L102.205 154.054C100.988 156.664 102.044 159.752 104.562 161.085L104.921 160.405L105.281 159.726C103.484 158.774 102.73 156.568 103.599 154.704L102.902 154.379ZM104.921 160.405L104.579 161.094L104.792 161.199L105.134 160.511L105.476 159.822L105.264 159.716L104.921 160.405ZM105.134 160.511L104.437 160.186L101.187 167.155L101.884 167.48L102.581 167.805L105.831 160.836L105.134 160.511ZM101.884 167.48L102.209 166.783C99.5154 165.527 96.3124 166.692 95.0559 169.386L95.7528 169.711L96.4497 170.036C97.3471 168.112 99.6349 167.279 101.559 168.177L101.884 167.48ZM95.7528 169.711L95.0559 169.386C93.8387 171.996 94.8948 175.084 97.4122 176.417L97.7721 175.737L98.1319 175.058C96.3348 174.106 95.5804 171.9 96.4497 170.036L95.7528 169.711ZM97.7721 175.737L97.43 176.426L97.6426 176.531L97.9847 175.843L98.3267 175.154L98.1141 175.048L97.7721 175.737ZM97.9847 175.843L97.2877 175.518L93.388 183.881L94.0849 184.206L94.7818 184.531L98.6816 176.168L97.9847 175.843ZM94.0849 184.206L94.4099 183.509L-1.76405 138.662L-2.08902 139.359L-2.414 140.056L93.7599 184.903L94.0849 184.206ZM-2.08902 139.359L-1.39211 139.684C0.941111 134.68 -1.2237 128.733 -6.22731 126.399L-6.55228 127.096L-6.87726 127.793C-2.64344 129.768 -0.811667 134.8 -2.78593 139.034L-2.08902 139.359ZM-6.55228 127.096L-6.22734 126.399C-11.2308 124.066 -17.1787 126.231 -19.5119 131.235L-18.815 131.56L-18.1181 131.885C-16.1439 127.651 -11.111 125.819 -6.87723 127.793L-6.55228 127.096ZM-18.815 131.56L-18.49 130.863L-114.663 86.0165L-114.988 86.7134L-115.313 87.4103L-19.14 132.257L-18.815 131.56ZM-114.988 86.7134L-114.291 87.0383L-110.391 78.6753L-111.088 78.3504L-111.785 78.0254L-115.685 86.3884L-114.988 86.7134ZM-111.088 78.3504L-111.413 79.0473C-108.719 80.3035 -105.517 79.1371 -104.26 76.4431L-104.957 76.1181L-105.654 75.7931C-106.552 77.7177 -108.839 78.5506 -110.763 77.6534L-111.088 78.3504ZM-104.957 76.1181L-104.26 76.443C-103.043 73.8329 -104.099 70.7463 -106.616 69.4134L-106.976 70.093L-107.336 70.7725C-105.539 71.724 -104.785 73.9291 -105.654 75.7932L-104.957 76.1181ZM-106.976 70.093L-106.634 69.4043L-106.847 69.2987L-107.189 69.9874L-107.531 70.6761L-107.318 70.7817L-106.976 70.093ZM-107.189 69.9874L-106.492 70.3124L-103.242 63.3433L-103.939 63.0184L-104.636 62.6934L-107.886 69.6624L-107.189 69.9874ZM-103.939 63.0184L-104.264 63.7153C-101.569 64.9715 -98.3671 63.8051 -97.1109 61.1111L-97.8078 60.7861L-98.5047 60.4611C-99.4021 62.3857 -101.69 63.2186 -103.614 62.3214L-103.939 63.0184ZM-97.8078 60.7861L-97.1108 61.111C-95.894 58.5009 -96.9496 55.4143 -99.4667 54.0814L-99.8266 54.761L-100.186 55.4405C-98.3896 56.392 -97.6357 58.5971 -98.5047 60.4612L-97.8078 60.7861ZM-99.8266 54.761L-99.4845 54.0723L-99.6971 53.9667L-100.039 54.6554L-100.381 55.3441L-100.169 55.4497L-99.8266 54.761ZM-100.039 54.6554L-99.3423 54.9804L-96.0926 48.0113L-96.7895 47.6864L-97.4864 47.3614L-100.736 54.3304L-100.039 54.6554ZM-96.7895 47.6864L-97.1144 48.3833C-94.4201 49.6395 -91.2177 48.4731 -89.9614 45.7791L-90.6584 45.4541L-91.3553 45.1291C-92.2527 47.0537 -94.5403 47.8866 -96.4645 46.9894L-96.7895 47.6864ZM-90.6584 45.4541L-89.9614 45.779C-88.7445 43.1689 -89.8002 40.0823 -92.3173 38.7494L-92.6772 39.429L-93.037 40.1085C-91.2402 41.06 -90.4862 43.2651 -91.3553 45.1292L-90.6584 45.4541ZM-92.6772 39.429L-92.3351 38.7403L-92.5477 38.6347L-92.8897 39.3234L-93.2318 40.0121L-93.0192 40.1177L-92.6772 39.429ZM-92.8897 39.3234L-92.1928 39.6484L-88.9431 32.6793L-89.64 32.3544L-90.337 32.0294L-93.5867 38.9984L-92.8897 39.3234ZM-89.64 32.3544L-89.965 33.0513C-87.2706 34.3075 -84.0683 33.1411 -82.812 30.4471L-83.5089 30.1221L-84.2058 29.7971C-85.1033 31.7217 -87.3908 32.5546 -89.3151 31.6574L-89.64 32.3544ZM-83.5089 30.1221L-82.812 30.447C-81.5951 27.8369 -82.6508 24.7503 -85.1679 23.4174L-85.5277 24.097L-85.8876 24.7765C-84.0907 25.728 -83.3368 27.9331 -84.2059 29.7972L-83.5089 30.1221ZM-85.5277 24.097L-85.1856 23.4083L-85.3982 23.3027L-85.7403 23.9914L-86.0824 24.6801L-85.8698 24.7857L-85.5277 24.097ZM-85.7403 23.9914L-85.0434 24.3164L-81.7937 17.3473L-82.4906 17.0224L-83.1875 16.6974L-86.4372 23.6664L-85.7403 23.9914ZM-82.4906 17.0224L-82.8156 17.7193C-80.1212 18.9755 -76.9188 17.8091 -75.6626 15.1151L-76.3595 14.7901L-77.0564 14.4651C-77.9538 16.3897 -80.2414 17.2226 -82.1657 16.3254L-82.4906 17.0224ZM-76.3595 14.7901L-75.6626 15.115C-74.4456 12.5049 -75.5013 9.41833 -78.0184 8.08542L-78.3783 8.76498L-78.7381 9.44453C-76.9413 10.3961 -76.1873 12.6011 -77.0564 14.4652L-76.3595 14.7901ZM-78.3783 8.76498L-78.0362 8.0763L-78.2488 7.9707L-78.5909 8.65938L-78.933 9.34805L-78.7204 9.45365L-78.3783 8.76498ZM-78.5909 8.65938L-77.894 8.98435L-73.9943 0.621361L-74.6912 0.296387L-75.3881 -0.028588L-79.2878 8.3344L-78.5909 8.65938ZM-74.6912 0.296387L-75.0161 0.993297L21.1569 45.8395L21.4819 45.1426L21.8069 44.4457L-74.3662 -0.400524L-74.6912 0.296387Z" fill="black" mask="url(#path-1-inside-1_201_632)"/>
<g clip-path="url(#clip0_201_632)">
<rect x="-65.7666" y="24.8213" width="193.777" height="58.4406" transform="rotate(25 -65.7666 24.8213)" fill="#1B3E18"/>
<line x1="24.6671" y1="61.0519" x2="-7.83041" y2="130.743" stroke="#C2C2C2" stroke-width="0.768956" stroke-dasharray="3.08 3.08"/>
<path d="M-62.6786 42.4081C-63.1052 42.2091 -63.4312 41.9483 -63.6567 41.6255C-63.8761 41.3006 -63.9905 40.9307 -63.9999 40.5157C-64.0073 40.0968 -63.8992 39.6476 -63.6757 39.1681C-63.454 38.6927 -63.1833 38.3243 -62.8635 38.0629C-62.5418 37.7974 -62.186 37.6442 -61.796 37.6035C-61.402 37.5647 -60.9876 37.6466 -60.5528 37.8493C-60.1221 38.0502 -59.7941 38.312 -59.5687 38.6347C-59.3432 38.9575 -59.2268 39.3284 -59.2194 39.7473C-59.21 40.1622 -59.3172 40.6094 -59.5407 41.0889C-59.7624 41.5642 -60.0341 41.9347 -60.3557 42.2002C-60.6774 42.4657 -61.0353 42.6179 -61.4293 42.6567C-61.8234 42.6956 -62.2398 42.6127 -62.6786 42.4081ZM-62.3717 41.7499C-61.9613 41.9412 -61.5798 41.9559 -61.2273 41.7938C-60.8687 41.6296 -60.5635 41.2773 -60.3115 40.7369C-60.0728 40.2249 -59.9968 39.7756 -60.0836 39.3889C-60.1684 38.9981 -60.4262 38.7023 -60.8569 38.5014C-61.2592 38.3139 -61.6395 38.3022 -61.9981 38.4664C-62.3547 38.6266 -62.659 38.9769 -62.911 39.5173C-63.1478 40.0251 -63.2238 40.4745 -63.1389 40.8653C-63.054 41.2561 -62.7983 41.5509 -62.3717 41.7499ZM-59.9843 43.5903L-56.139 39.9743L-55.2979 40.3665L-55.5962 45.6365L-56.3641 45.2784L-56.2816 44.0035L-58.3111 43.0572L-59.2347 43.9398L-59.9843 43.5903ZM-56.5635 41.3939L-57.7803 42.5553L-56.2323 43.2771L-56.1186 41.6013C-56.1065 41.3844 -56.085 41.1421 -56.0542 40.8745C-56.2335 41.068 -56.4032 41.2411 -56.5635 41.3939ZM-54.1172 44.3895L-52.7872 41.5373L-52.062 41.8755L-53.3692 44.679C-53.5436 45.0528 -53.563 45.3702 -53.4275 45.6312C-53.2901 45.8882 -53.0467 46.0982 -52.6973 46.2611C-52.295 46.4487 -51.9609 46.4907 -51.695 46.3872C-51.425 46.2855 -51.2152 46.0742 -51.0655 45.7532L-49.7582 42.9497L-49.039 43.2851L-50.3691 46.1373C-50.5244 46.4705 -50.731 46.7279 -50.9888 46.9094C-51.2447 47.0869 -51.545 47.1793 -51.8898 47.1867C-52.2305 47.196 -52.606 47.105 -53.0164 46.9136C-53.5974 46.6427 -53.9882 46.2874 -54.1887 45.8476C-54.3874 45.4037 -54.3635 44.9177 -54.1172 44.3895ZM-46.1286 50.1254C-46.5634 49.9227 -46.8896 49.6569 -47.1071 49.3279C-47.3247 48.9989 -47.4352 48.6258 -47.4386 48.2087C-47.4419 47.7917 -47.3347 47.3495 -47.1168 46.8822C-46.8932 46.4028 -46.6175 46.0342 -46.2896 45.7766C-45.9598 45.5149 -45.5988 45.3666 -45.2067 45.3318C-44.8104 45.2989 -44.4011 45.381 -43.9785 45.5781C-43.6128 45.7486 -43.3242 45.9623 -43.1126 46.2193C-42.895 46.4741 -42.758 46.7531 -42.7016 47.0564C-42.6411 47.3616 -42.6616 47.6761 -42.7631 47.9998L-43.5428 47.7623C-43.4481 47.4108 -43.4705 47.1035 -43.6101 46.8406C-43.7456 46.5795 -43.9718 46.3751 -44.2887 46.2273C-44.7275 46.0227 -45.1248 46.0155 -45.4806 46.2058C-45.8305 46.3938 -46.1219 46.7377 -46.355 47.2375C-46.6088 47.7819 -46.6814 48.2452 -46.5727 48.6273C-46.4621 49.0054 -46.2077 49.2872 -45.8095 49.4729C-45.456 49.6377 -45.137 49.6802 -44.8524 49.6002C-44.5618 49.518 -44.32 49.3389 -44.127 49.0629L-43.4387 49.4803C-43.6346 49.7946 -43.876 50.0258 -44.1628 50.174C-44.4455 50.3241 -44.7554 50.3948 -45.0926 50.3859C-45.4298 50.3771 -45.7752 50.2903 -46.1286 50.1254ZM-43.5175 51.2688L-39.6722 47.6529L-38.8312 48.0451L-39.1294 53.315L-39.8973 52.9569L-39.8148 51.6821L-41.8443 50.7357L-42.7679 51.6184L-43.5175 51.2688ZM-40.0967 49.0725L-41.3135 50.2339L-39.7655 50.9557L-39.6518 49.2799C-39.6397 49.063 -39.6182 48.8207 -39.5874 48.5531C-39.7667 48.7465 -39.9364 48.9197 -40.0967 49.0725ZM-38.1709 53.762L-36.0991 49.3191L-34.935 49.8619L-35.3421 53.79L-32.5825 50.9589L-31.4428 51.4903L-33.5146 55.9333L-34.2277 55.6008L-32.4181 51.7998L-35.5441 54.9869L-36.1596 54.6999L-35.6999 50.2769L-37.4761 54.086L-38.1709 53.762ZM-32.0841 56.6003L-30.0124 52.1574L-27.9768 53.1066C-27.4892 53.3339 -27.1691 53.634 -27.0165 54.0069C-26.8599 54.3817 -26.8782 54.7763 -27.0714 55.1908C-27.2666 55.6093 -27.5601 55.878 -27.952 55.997C-28.3379 56.1139 -28.7746 56.0586 -29.2622 55.8313L-30.5603 55.2259L-31.3589 56.9385L-32.0841 56.6003ZM-28.2508 53.7579L-29.5855 53.1355L-30.2676 54.5982L-28.9329 55.2206C-28.7053 55.3267 -28.493 55.354 -28.2958 55.3024C-28.0968 55.2469 -27.9395 55.0951 -27.8239 54.8473C-27.7102 54.6035 -27.6941 54.3885 -27.7754 54.2022C-27.8567 54.0159 -28.0151 53.8678 -28.2508 53.7579ZM-26.6793 57.1841L-25.3493 54.3318L-24.624 54.67L-25.9313 57.4735C-26.1056 57.8473 -26.125 58.1647 -25.9895 58.4258C-25.8521 58.6827 -25.6087 58.8927 -25.2593 59.0556C-24.8571 59.2432 -24.523 59.2852 -24.257 59.1817C-23.9871 59.08 -23.7772 58.8687 -23.6275 58.5478L-22.3202 55.7442L-21.6011 56.0796L-22.9311 58.9319C-23.0865 59.265 -23.293 59.5224 -23.5508 59.7039C-23.8067 59.8814 -24.107 59.9738 -24.4518 59.9812C-24.7925 59.9906 -25.168 59.8995 -25.5784 59.7082C-26.1594 59.4372 -26.5502 59.0819 -26.7508 58.6421C-26.9494 58.1983 -26.9256 57.7123 -26.6793 57.1841ZM-18.4432 59.1994C-18.3303 58.9255 -18.327 58.6797 -18.4332 58.462C-18.5395 58.2443 -18.7328 58.0701 -19.0131 57.9393C-19.2813 57.8143 -19.512 57.7735 -19.7054 57.8169C-19.8947 57.8621 -20.031 57.9742 -20.1144 58.1529C-20.1864 58.3073 -20.1965 58.451 -20.1447 58.584C-20.093 58.7169 -19.993 58.8526 -19.8448 58.991C-19.6966 59.1293 -19.5161 59.2778 -19.3031 59.4364C-19.078 59.6008 -18.8796 59.7799 -18.7078 59.9737C-18.5361 60.1676 -18.425 60.3802 -18.3745 60.6115C-18.32 60.8446 -18.36 61.1054 -18.4945 61.3939C-18.6802 61.7921 -18.9802 62.043 -19.3946 62.1466C-19.8048 62.252 -20.2822 62.1778 -20.8266 61.924C-21.1842 61.7572 -21.4646 61.5523 -21.6678 61.3091C-21.8669 61.0679 -21.9874 60.8064 -22.0292 60.5248C-22.065 60.241 -22.0177 59.9539 -21.8872 59.6635L-21.1376 59.9017C-21.2713 60.2203 -21.2837 60.5014 -21.1747 60.7451C-21.0617 60.9907 -20.8488 61.1865 -20.5359 61.3324C-20.2556 61.4631 -20.0055 61.5154 -19.7856 61.4894C-19.5657 61.4633 -19.3989 61.3284 -19.2852 61.0846C-19.2056 60.9139 -19.1917 60.7621 -19.2435 60.6292C-19.2912 60.4981 -19.3798 60.3752 -19.5093 60.2604C-19.6369 60.1415 -19.7806 60.0201 -19.9404 59.8961C-20.2373 59.6736 -20.4799 59.4566 -20.6682 59.2451C-20.8505 59.0315 -20.9638 58.8129 -21.008 58.5895C-21.0522 58.3661 -21.0127 58.1223 -20.8896 57.8582C-20.7759 57.6145 -20.6105 57.4294 -20.3933 57.3032C-20.1743 57.1728 -19.9223 57.1098 -19.6374 57.114C-19.3524 57.1183 -19.0515 57.1943 -18.7346 57.3421C-18.2186 57.5827 -17.8732 57.8921 -17.6984 58.2704C-17.5217 58.6447 -17.517 59.0377 -17.6842 59.4494L-18.4432 59.1994ZM-18.7022 63.9089L-18.5288 63.5371L-18.413 63.5911C-18.3033 63.6423 -18.2158 63.6509 -18.1506 63.617C-18.0872 63.5872 -18.0356 63.5296 -17.9958 63.4443L-17.8907 63.2188L-18.2381 63.0568L-17.8885 62.3072L-17.1816 62.6369L-17.6675 63.679C-17.7604 63.8781 -17.8854 63.9979 -18.0428 64.0383C-18.202 64.0827 -18.3751 64.0614 -18.562 63.9742L-18.7022 63.9089ZM-13.7156 65.1657L-14.4408 64.8275L-12.369 60.3846L-11.6438 60.7228L-13.7156 65.1657ZM-12.2882 65.8313L-10.2164 61.3884L-9.49117 61.7265L-11.2702 65.5417L-8.86897 66.6615L-9.16169 67.2892L-12.2882 65.8313ZM-8.24888 67.7149L-6.17711 63.2719L-2.99574 64.7554L-3.28562 65.3771L-5.74173 64.2318L-6.32433 65.4811L-4.12419 66.5071L-4.40554 67.1105L-6.60568 66.0845L-7.23091 67.4253L-4.59196 68.6559L-4.88468 69.2836L-8.24888 67.7149ZM-3.43246 67.9426L-3.13689 67.3088L-0.991604 68.3091L-1.28717 68.943L-3.43246 67.9426ZM-0.236566 71.4511L-0.96182 71.1129L1.10996 66.6699L1.83521 67.0081L-0.236566 71.4511ZM1.1908 72.1167L3.26258 67.6737L6.40128 69.1373L6.10856 69.7651L3.69511 68.6397L3.09262 69.9317L5.21353 70.9207L4.92365 71.5423L2.80274 70.5533L1.91605 72.4549L1.1908 72.1167ZM5.36106 74.0613L7.43284 69.6183L10.6142 71.1018L10.3243 71.7235L7.86821 70.5782L7.28561 71.8276L9.48575 72.8535L9.2044 73.4569L7.00426 72.4309L6.37903 73.7717L9.01798 75.0023L8.72526 75.63L5.36106 74.0613Z" fill="white"/>
<path d="M-71.9429 59.1114L-67.6267 49.8553L-63.5382 51.7618C-62.6325 52.1841 -62.0368 52.7298 -61.7511 53.3989C-61.4654 54.068 -61.4824 54.7454 -61.8021 55.431C-62.0271 55.9135 -62.3658 56.2863 -62.8183 56.5494C-63.2668 56.804 -63.8372 56.8781 -64.5295 56.7716C-63.9059 57.2685 -63.5365 57.7912 -63.4212 58.3396C-63.3059 58.888 -63.3687 59.4204 -63.6095 59.9367C-63.9687 60.707 -64.5342 61.1904 -65.306 61.387C-66.0654 61.5791 -66.9233 61.4521 -67.8798 61.0061L-71.9429 59.1114ZM-63.9053 52.549L-67.1685 51.0274L-68.7315 54.3794L-65.4684 55.901C-64.8166 56.2049 -64.2546 56.2815 -63.7824 56.1307C-63.2978 55.9754 -62.941 55.6523 -62.7121 55.1613C-62.4634 54.628 -62.452 54.1284 -62.6778 53.6624C-62.9036 53.1964 -63.3128 52.8253 -63.9053 52.549ZM-65.7915 56.6933L-69.0927 55.1539L-70.7446 58.6964L-67.4434 60.2357C-66.9185 60.4805 -66.462 60.5954 -66.0739 60.5807C-65.6772 60.5698 -65.35 60.4648 -65.0922 60.2655C-64.822 60.0618 -64.6099 59.7948 -64.456 59.4647C-64.1876 58.8891 -64.1747 58.3643 -64.4175 57.8905C-64.6563 57.4081 -65.1143 57.009 -65.7915 56.6933ZM-59.3688 65.1294C-60.266 64.711 -60.9351 64.1569 -61.376 63.4669C-61.8168 62.777 -62.0365 61.9996 -62.0351 61.1346C-62.0252 60.2736 -61.7992 59.369 -61.3571 58.421C-60.8835 57.4052 -60.3093 56.627 -59.6346 56.0862C-58.9476 55.541 -58.206 55.2324 -57.4099 55.1605C-56.6013 55.0841 -55.7781 55.2413 -54.9401 55.632C-54.0428 56.0504 -53.3737 56.6046 -52.9329 57.2945C-52.4881 57.976 -52.2664 58.7492 -52.2678 59.6142C-52.2692 60.4792 -52.491 61.3857 -52.9331 62.3337C-53.4067 63.3495 -53.9871 64.13 -54.6742 64.6752C-55.3488 65.216 -56.0904 65.5245 -56.899 65.601C-57.699 65.6813 -58.5223 65.5241 -59.3688 65.1294ZM-59.0017 64.3422C-57.9351 64.8395 -56.9542 64.8796 -56.0589 64.4624C-55.1551 64.0491 -54.4091 63.2118 -53.821 61.9506C-53.2289 60.6809 -53.0651 59.567 -53.3294 58.609C-53.5814 57.6465 -54.2406 56.9166 -55.3071 56.4193C-56.3737 55.9219 -57.3546 55.8819 -58.2499 56.2991C-59.1453 56.7163 -59.889 57.5598 -60.481 58.8295C-61.0731 60.0992 -61.2412 61.2111 -60.9853 62.1651C-60.7294 63.1192 -60.0682 63.8449 -59.0017 64.3422ZM-49.6972 69.6393C-50.5945 69.2209 -51.2635 68.6668 -51.7044 67.9769C-52.1453 67.2869 -52.365 66.5095 -52.3635 65.6445C-52.3536 64.7835 -52.1276 63.8789 -51.6856 62.9309C-51.2119 61.9151 -50.6377 61.1369 -49.9631 60.5962C-49.276 60.0509 -48.5344 59.7423 -47.7383 59.6704C-46.9298 59.594 -46.1065 59.7512 -45.2685 60.142C-44.3712 60.5604 -43.7022 61.1145 -43.2613 61.8045C-42.8165 62.4859 -42.5948 63.2591 -42.5962 64.1241C-42.5977 64.9891 -42.8194 65.8956 -43.2615 66.8436C-43.7352 67.8594 -44.3155 68.6399 -45.0026 69.1852C-45.6773 69.7259 -46.4189 70.0345 -47.2274 70.1109C-48.0275 70.1912 -48.8507 70.0341 -49.6972 69.6393ZM-49.3301 68.8521C-48.2636 69.3495 -47.2826 69.3895 -46.3873 68.9723C-45.4835 68.559 -44.7376 67.7217 -44.1494 66.4605C-43.5574 65.1908 -43.3935 64.077 -43.6579 63.119C-43.9098 62.1564 -44.569 61.4265 -45.6356 60.9292C-46.7021 60.4318 -47.6831 60.3918 -48.5784 60.809C-49.4737 61.2263 -50.2174 62.0697 -50.8095 63.3394C-51.4015 64.6091 -51.5696 65.721 -51.3138 66.675C-51.0579 67.6291 -50.3967 68.3548 -49.3301 68.8521ZM-40.0256 74.1493C-40.9229 73.7309 -41.592 73.1767 -42.0328 72.4868C-42.4737 71.7969 -42.6934 71.0194 -42.692 70.1544C-42.6821 69.2934 -42.4561 68.3889 -42.014 67.4408C-41.5403 66.4251 -40.9662 65.6468 -40.2915 65.1061C-39.6044 64.5608 -38.8628 64.2522 -38.0667 64.1804C-37.2582 64.1039 -36.4349 64.2611 -35.5969 64.6519C-34.4627 65.1808 -33.7084 65.8726 -33.334 66.7273C-32.9473 67.5775 -32.8847 68.493 -33.1462 69.4737L-34.0188 69.1904C-33.8103 68.2571 -33.8941 67.4864 -34.27 66.8783C-34.6421 66.2617 -35.2047 65.7777 -35.9581 65.4264C-37.0246 64.9291 -38.0056 64.889 -38.9009 65.3063C-39.7962 65.7235 -40.5399 66.567 -41.132 67.8367C-41.7241 69.1064 -41.8941 70.2225 -41.6422 71.185C-41.3903 72.1475 -40.731 72.8774 -39.6645 73.3748C-38.7334 73.8089 -37.9301 73.9207 -37.2548 73.71C-36.5671 73.4949 -35.9877 73.0591 -35.5168 72.4028L-34.7388 72.8892C-35.1359 73.4975 -35.6187 73.9474 -36.1874 74.2387C-36.7476 74.534 -37.3581 74.6718 -38.0188 74.6523C-38.671 74.6367 -39.34 74.469 -40.0256 74.1493ZM-32.2151 77.6368L-27.8989 68.3807L-27.0736 68.7655L-28.9978 72.8921L-23.0683 75.657L-21.1441 71.5305L-20.3315 71.9094L-24.6477 81.1656L-25.4603 80.7866L-23.4176 76.4062L-29.3471 73.6412L-31.3898 78.0217L-32.2151 77.6368ZM-23.5693 81.6684L-15.4059 74.2062L-14.3901 74.6799L-14.8591 85.73L-15.7225 85.3274L-15.5771 82.1645L-20.3765 79.9265L-22.7059 82.071L-23.5693 81.6684ZM-16.1645 76.0321L-19.7529 79.3517L-15.5502 81.3114L-15.3265 76.4228C-15.3153 76.2219 -15.3083 76.0191 -15.3056 75.8143C-15.2943 75.6134 -15.2792 75.4041 -15.26 75.1863C-15.4146 75.3409 -15.5694 75.4851 -15.7246 75.6189C-15.8712 75.7566 -16.0179 75.8943 -16.1645 76.0321ZM-13.7771 86.2346L-9.46091 76.9784L-8.6356 77.3633L-12.5966 85.8576L-7.02257 88.4568L-7.37781 89.2186L-13.7771 86.2346ZM-6.33745 89.7037L-2.02124 80.4476L-1.19594 80.8325L-5.1569 89.3268L0.417095 91.926L0.0618521 92.6878L-6.33745 89.7037Z" fill="#C2C2C2"/>
<g clip-path="url(#clip1_201_632)">
<rect x="60.7947" y="92.7463" width="42.2926" height="42.2926" rx="2.19702" transform="rotate(25 60.7947 92.7463)" fill="white"/>
<g clip-path="url(#clip2_201_632)">
<path d="M93.0509 113.24L63.1833 99.3127L49.2559 129.18L79.1235 143.108L93.0509 113.24Z" fill="white"/>
<path d="M58.5409 109.269L59.4459 109.691L59.0239 110.596L59.929 111.018L59.5069 111.923L58.6018 111.501L58.1798 112.406L57.7578 113.311L58.6628 113.733L58.2408 114.638L57.3357 114.216L56.9137 115.121L56.4916 116.026L56.0696 116.931L55.1645 116.509L55.5865 115.604L56.0086 114.699L56.4306 113.794L56.8527 112.889L57.2747 111.984L57.6968 111.079L58.1188 110.174L58.5409 109.269ZM53.8984 119.224L54.8034 119.647L54.3814 120.552L53.4763 120.13L53.8984 119.224ZM53.0543 121.035L53.9593 121.457L53.5373 122.362L52.6322 121.94L53.0543 121.035ZM55.6475 117.836L56.5526 118.258L56.1306 119.163L57.0356 119.586L57.4577 118.68L58.3628 119.102L58.7848 118.197L59.2069 117.292L58.3018 116.87L58.7238 115.965L57.8187 115.543L58.2408 114.638L59.1459 115.06L59.5679 114.155L58.6628 113.733L59.0849 112.828L59.99 113.25L60.895 113.672L60.473 114.577L60.0509 115.482L60.956 115.904L61.3781 114.999L62.2831 115.421L61.8611 116.326L62.7662 116.748L63.1882 115.843L62.2831 115.421L62.7052 114.516L63.6103 114.938L64.0323 114.033L64.9374 114.455L64.5153 115.36L64.0933 116.265L63.6713 117.17L64.5763 117.592L64.1543 118.497L63.7322 119.403L63.3102 120.308L64.2153 120.73L63.7932 121.635L62.8882 121.213L62.4661 122.118L61.561 121.696L61.139 122.601L60.2339 122.179L60.656 121.274L59.7509 120.852L60.1729 119.947L61.078 120.369L61.5 119.464L60.595 119.042L59.6899 118.619L59.2678 119.525L58.8458 120.43L58.4238 121.335L58.0017 122.24L57.0966 121.818L56.1915 121.396L56.6136 120.491L55.7085 120.069L54.8034 119.647L55.2255 118.741L55.6475 117.836ZM54.3814 120.552L55.2865 120.974L56.1915 121.396L55.7695 122.301L56.6746 122.723L57.5797 123.145L57.1576 124.05L56.2525 123.628L55.3475 123.206L54.4424 122.784L54.8644 121.879L53.9593 121.457L54.3814 120.552ZM61.6171 107.397L62.5222 107.82L62.1002 108.725L63.0053 109.147L63.4273 108.242L64.3324 108.664L65.2375 109.086L66.1425 109.508L65.7205 110.413L64.8154 109.991L64.3934 110.896L65.2984 111.318L66.2035 111.74L66.6256 110.835L67.0476 109.93L67.9527 110.352L68.8578 110.774L68.4357 111.679L69.3408 112.101L69.7629 111.196L70.6679 111.618L71.573 112.04L71.151 112.945L70.2459 112.523L69.8238 113.428L69.4018 114.333L68.4967 113.911L68.0747 114.816L67.1696 114.394L66.7475 115.299L65.8425 114.877L64.9374 114.455L65.3594 113.55L65.7815 112.645L64.8764 112.223L63.9713 111.801L63.0662 111.379L63.4883 110.474L62.5832 110.052L61.6781 109.63L61.2561 110.535L60.834 111.44L59.929 111.018L60.351 110.113L60.7731 109.208L61.1951 108.303L61.6171 107.397ZM57.3967 116.448L58.3018 116.87L57.8797 117.775L56.9747 117.353L57.3967 116.448ZM62.1612 110.957L63.0662 111.379L62.6442 112.284L61.7391 111.862L62.1612 110.957ZM61.3171 112.767L62.2222 113.189L63.1272 113.611L62.7052 114.516L61.8001 114.094L60.895 113.672L61.3171 112.767ZM61.4391 117.231L61.017 118.136L61.9221 118.558L62.8272 118.981L63.2492 118.075L62.3441 117.653L61.4391 117.231ZM63.5493 112.706L64.4544 113.128L64.0323 114.033L63.1272 113.611L63.5493 112.706ZM59.3288 121.757L60.2339 122.179L59.8119 123.084L58.9068 122.662L59.3288 121.757ZM58.4847 123.567L59.3898 123.989L60.2949 124.411L59.8729 125.316L58.9678 124.894L58.0627 124.472L58.4847 123.567ZM70.424 102.689L71.3291 103.111L72.2341 103.533L71.8121 104.438L72.7172 104.86L72.2951 105.765L71.39 105.343L70.968 106.248L70.0629 105.826L70.485 104.921L70.907 104.016L70.0019 103.594L70.424 102.689ZM69.1578 105.404L70.0629 105.826L69.6409 106.731L68.7358 106.309L69.1578 105.404ZM67.8917 108.12L68.7968 108.542L68.3747 109.447L67.4697 109.025L67.8917 108.12ZM61.139 122.601L62.0441 123.023L62.4661 122.118L63.3712 122.54L63.7932 121.635L64.6983 122.057L64.2763 122.962L63.8542 123.867L64.7593 124.289L65.1813 123.384L65.6034 122.479L66.5085 122.901L66.9305 121.996L67.3526 121.091L66.4475 120.669L66.8695 119.764L65.9644 119.342L66.3865 118.436L67.2916 118.859L68.1966 119.281L69.1017 119.703L70.0068 120.125L70.4289 119.22L71.3339 119.642L70.9119 120.547L70.4898 121.452L69.5848 121.03L68.6797 120.608L68.2576 121.513L67.8356 122.418L67.4135 123.323L68.3186 123.745L68.7407 122.84L69.1627 121.935L70.0678 122.357L69.6457 123.262L69.2237 124.167L68.8017 125.072L67.8966 124.65L66.9915 124.228L66.0864 123.806L65.6644 124.711L65.2423 125.616L64.3373 125.194L63.4322 124.772L62.5271 124.35L62.1051 125.255L63.0101 125.677L62.5881 126.582L62.166 127.487L61.744 128.392L60.8389 127.97L60.4169 128.875L59.9948 129.78L59.0897 129.358L58.1847 128.936L58.6067 128.031L59.0288 127.126L59.9338 127.548L60.3559 126.643L61.261 127.065L61.683 126.16L60.7779 125.738L61.2 124.833L60.2949 124.411L60.7169 123.506L61.139 122.601ZM59.8729 125.316L60.7779 125.738L60.3559 126.643L59.4508 126.221L59.8729 125.316ZM57.7626 129.841L58.6677 130.264L59.5728 130.686L59.1507 131.591L58.2457 131.169L57.3406 130.747L57.7626 129.841ZM69.6409 106.731L70.546 107.154L71.451 107.576L71.029 108.481L70.1239 108.059L69.7019 108.964L68.7968 108.542L69.2188 107.637L69.6409 106.731ZM65.4204 115.782L66.3255 116.204L65.9035 117.109L64.9984 116.687L65.4204 115.782ZM57.8236 132.074L58.7287 132.496L59.6338 132.918L59.2117 133.823L58.3066 133.401L57.4016 132.979L57.8236 132.074ZM69.7019 108.964L70.6069 109.386L70.1849 110.291L69.7629 111.196L68.8578 110.774L69.2798 109.869L69.7019 108.964ZM66.7475 115.299L67.6526 115.721L68.0747 114.816L68.9798 115.238L69.4018 114.333L70.3069 114.755L70.7289 113.85L71.634 114.272L71.212 115.177L72.117 115.599L72.5391 114.694L73.4442 115.116L73.0221 116.021L73.9272 116.443L73.5051 117.348L72.6001 116.926L71.695 116.504L70.7899 116.082L69.8848 115.66L69.4628 116.565L70.3679 116.987L71.2729 117.409L72.178 117.831L71.756 118.737L70.8509 118.315L70.4289 119.22L69.5238 118.798L69.9458 117.892L69.0407 117.47L68.6187 118.376L67.7136 117.953L68.1357 117.048L67.2306 116.626L66.3255 116.204L66.7475 115.299ZM65.9035 117.109L66.8085 117.531L66.3865 118.436L65.4814 118.014L65.9035 117.109ZM72.2951 105.765L73.2002 106.187L73.6222 105.282L74.5273 105.704L74.1053 106.609L75.0104 107.032L75.9154 107.454L76.8205 107.876L76.3985 108.781L75.4934 108.359L75.0713 109.264L74.6493 110.169L73.7442 109.747L72.8391 109.325L71.9341 108.903L72.3561 107.998L73.2612 108.42L74.1663 108.842L74.5883 107.937L73.6832 107.515L72.7782 107.093L72.3561 107.998L71.451 107.576L71.8731 106.67L72.2951 105.765ZM71.029 108.481L71.9341 108.903L71.512 109.808L70.6069 109.386L71.029 108.481ZM65.5424 120.247L66.4475 120.669L66.0254 121.574L65.6034 122.479L64.6983 122.057L65.1204 121.152L65.5424 120.247ZM61.744 128.392L62.6491 128.814L62.227 129.719L61.322 129.297L61.744 128.392ZM60.8999 130.203L61.805 130.625L62.227 129.719L63.1321 130.142L63.5542 129.236L64.4592 129.658L64.0372 130.564L64.9423 130.986L64.5202 131.891L65.4253 132.313L65.0033 133.218L64.0982 132.796L63.6761 133.701L63.2541 134.606L62.349 134.184L62.7711 133.279L63.1931 132.374L62.288 131.952L61.3829 131.53L60.9609 132.435L60.0558 132.013L60.4779 131.108L60.8999 130.203ZM71.512 109.808L72.4171 110.23L71.9951 111.135L71.09 110.713L71.512 109.808ZM63.9152 126.099L64.8203 126.521L64.3982 127.426L65.3033 127.848L66.2084 128.27L66.6304 127.365L67.0525 126.46L67.9576 126.882L68.8626 127.304L68.4406 128.209L67.5355 127.787L67.1135 128.692L66.6914 129.598L66.2694 130.503L65.3643 130.081L64.4592 129.658L64.8813 128.753L63.9762 128.331L63.0711 127.909L63.4932 127.004L63.9152 126.099ZM71.9951 111.135L72.9001 111.557L73.3222 110.652L74.2273 111.074L73.8052 111.979L73.3832 112.884L74.2882 113.306L75.1933 113.728L74.7713 114.633L73.8662 114.211L72.9611 113.789L72.5391 114.694L71.634 114.272L72.056 113.367L72.4781 112.462L71.573 112.04L71.9951 111.135ZM61.4439 133.762L62.349 134.184L61.927 135.089L61.0219 134.667L61.4439 133.762ZM74.6493 110.169L75.5544 110.591L75.1323 111.496L74.2273 111.074L74.6493 110.169ZM63.2541 134.606L64.1592 135.028L64.5812 134.123L65.0033 133.218L65.9083 133.64L66.3304 132.735L67.2355 133.157L66.8134 134.062L66.3914 134.967L65.9693 135.872L65.0642 135.45L64.6422 136.355L63.7371 135.933L62.832 135.511L63.2541 134.606ZM77.6646 106.065L78.5697 106.488L79.4748 106.91L80.3798 107.332L81.2849 107.754L80.8629 108.659L80.4408 109.564L79.5357 109.142L79.9578 108.237L79.0527 107.815L78.1476 107.393L77.7256 108.298L76.8205 107.876L77.2426 106.971L77.6646 106.065ZM75.9764 109.686L76.8815 110.108L77.3035 109.203L77.7256 108.298L78.6307 108.72L78.2086 109.625L79.1137 110.047L80.0188 110.469L79.5967 111.374L79.1747 112.279L78.2696 111.857L78.6917 110.952L77.7866 110.53L77.3645 111.435L78.2696 111.857L77.8476 112.762L77.4255 113.667L76.5204 113.245L76.9425 112.34L76.0374 111.918L76.4595 111.013L75.5544 110.591L75.9764 109.686ZM75.1323 111.496L76.0374 111.918L75.6154 112.823L74.7103 112.401L75.1323 111.496ZM66.2694 130.503L67.1745 130.925L66.7524 131.83L66.3304 132.735L65.4253 132.313L65.8473 131.408L66.2694 130.503ZM75.6154 112.823L76.5204 113.245L76.0984 114.15L75.1933 113.728L75.6154 112.823ZM74.3492 115.538L75.2543 115.96L75.6764 115.055L76.0984 114.15L77.0035 114.572L76.5814 115.477L76.1594 116.382L77.0645 116.804L77.4865 115.899L77.9086 114.994L78.3306 114.089L78.7526 113.184L79.1747 112.279L80.0798 112.701L79.6577 113.606L79.2357 114.511L80.1408 114.933L80.5628 114.028L80.9848 113.123L80.0798 112.701L80.5018 111.796L80.9239 110.891L81.8289 111.313L82.734 111.735L82.312 112.64L83.2171 113.062L82.795 113.967L83.7001 114.389L83.278 115.294L82.856 116.199L82.4339 117.104L81.5289 116.682L81.1068 117.588L82.0119 118.01L81.5899 118.915L80.6848 118.493L79.7797 118.071L79.3577 118.976L80.2627 119.398L81.1678 119.82L81.5899 118.915L82.4949 119.337L82.0729 120.242L82.978 120.664L82.5559 121.569L83.461 121.991L83.039 122.896L82.6169 123.801L82.1949 124.706L81.7728 125.611L80.8677 125.189L81.2898 124.284L81.7118 123.379L80.8068 122.957L80.3847 123.862L79.9627 124.767L80.8677 125.189L80.4457 126.094L79.5406 125.672L78.6355 125.25L79.0576 124.345L79.4796 123.44L79.9017 122.535L80.3237 121.63L79.4186 121.208L79.8407 120.303L78.9356 119.881L78.0305 119.459L77.6085 120.364L76.7034 119.942L75.7983 119.52L74.8933 119.098L75.3153 118.193L75.7373 117.287L74.8323 116.865L73.9272 116.443L74.3492 115.538ZM73.5051 117.348L74.4102 117.77L73.9882 118.676L74.8933 119.098L74.4712 120.003L73.5661 119.581L72.6611 119.159L73.0831 118.254L73.5051 117.348ZM72.239 120.064L73.1441 120.486L72.722 121.391L73.6271 121.813L74.0492 120.908L74.9542 121.33L74.5322 122.235L75.4373 122.657L75.8593 121.752L76.2814 120.847L77.1864 121.269L76.7644 122.174L77.6695 122.596L78.5746 123.018L78.1525 123.923L77.7305 124.828L76.8254 124.406L75.9203 123.984L75.4983 124.889L74.5932 124.467L75.0152 123.562L74.1102 123.14L73.2051 122.718L72.3 122.296L71.878 123.201L70.9729 122.779L71.3949 121.874L71.817 120.969L72.239 120.064ZM70.5508 123.684L71.4559 124.106L71.0339 125.011L71.9389 125.433L72.361 124.528L71.4559 124.106L71.878 123.201L72.783 123.623L73.6881 124.045L73.2661 124.95L72.844 125.855L73.7491 126.277L73.3271 127.182L74.2321 127.604L73.8101 128.509L74.7152 128.932L74.2931 129.837L73.8711 130.742L72.966 130.32L72.0609 129.898L72.483 128.992L72.905 128.087L71.9999 127.665L72.422 126.76L71.5169 126.338L70.6118 125.916L70.1898 126.821L69.2847 126.399L69.7067 125.494L70.1288 124.589L70.5508 123.684ZM68.0186 129.114L68.9236 129.537L68.5016 130.442L69.4067 130.864L69.8287 129.959L70.7338 130.381L70.3117 131.286L69.8897 132.191L68.9846 131.769L68.5626 132.674L67.6575 132.252L68.0795 131.347L67.1745 130.925L67.5965 130.02L68.0186 129.114ZM70.1898 126.821L71.0948 127.243L70.6728 128.148L70.2508 129.053L69.3457 128.631L69.7677 127.726L70.1898 126.821ZM65.9693 135.872L66.8744 136.294L67.2964 135.389L67.7185 134.484L68.1405 133.579L69.0456 134.001L68.6236 134.906L68.2015 135.811L67.7795 136.716L68.6846 137.138L69.1066 136.233L69.5286 135.328L69.9507 134.423L70.8558 134.845L70.4337 135.75L70.0117 136.655L69.5896 137.56L69.1676 138.465L68.2625 138.043L67.3574 137.621L66.4524 137.199L65.5473 136.777L65.9693 135.872ZM80.4408 109.564L81.3459 109.986L80.9239 110.891L80.0188 110.469L80.4408 109.564ZM78.8136 115.416L78.3916 116.321L79.2967 116.743L80.2017 117.165L80.6238 116.26L79.7187 115.838L78.8136 115.416ZM77.9695 117.226L77.5475 118.132L78.4526 118.554L78.8746 117.649L77.9695 117.226ZM71.1558 129.476L72.0609 129.898L71.6389 130.803L70.7338 130.381L71.1558 129.476ZM82.19 108.176L83.0951 108.598L84.0002 109.02L84.9052 109.442L85.8103 109.864L85.3883 110.769L84.4832 110.347L84.0611 111.252L84.9662 111.674L84.5442 112.579L84.1221 113.484L83.2171 113.062L83.6391 112.157L82.734 111.735L83.1561 110.83L82.251 110.408L82.673 109.503L81.768 109.081L82.19 108.176ZM74.1711 125.372L75.0762 125.794L75.4983 124.889L76.4033 125.311L75.9813 126.216L75.5593 127.121L74.6542 126.699L73.7491 126.277L74.1711 125.372ZM71.6389 130.803L72.5439 131.225L72.1219 132.13L73.027 132.552L72.6049 133.457L71.6999 133.035L71.2778 133.94L70.3727 133.518L70.7948 132.613L71.2168 131.708L71.6389 130.803ZM81.4679 114.45L81.0458 115.355L81.9509 115.777L82.373 114.872L81.4679 114.45ZM77.6085 120.364L78.5136 120.786L78.0915 121.691L77.1864 121.269L77.6085 120.364ZM71.2778 133.94L72.1829 134.362L71.7608 135.267L70.8558 134.845L71.2778 133.94ZM73.449 131.647L74.3541 132.069L74.7762 131.164L75.6812 131.586L76.1033 130.681L77.0084 131.103L76.5863 132.008L77.4914 132.43L78.3965 132.852L79.3015 133.274L80.2066 133.696L79.7846 134.601L78.8795 134.179L78.4575 135.084L79.3625 135.506L78.9405 136.411L78.0354 135.989L77.6134 136.894L77.1913 137.799L76.7693 138.704L75.8642 138.282L76.2862 137.377L75.3812 136.955L74.4761 136.533L73.571 136.111L72.6659 135.689L73.088 134.784L73.51 133.879L73.9321 132.974L73.027 132.552L73.449 131.647ZM71.3388 136.172L72.2439 136.594L73.149 137.016L74.054 137.438L73.632 138.343L72.7269 137.921L72.3049 138.826L71.8828 139.731L70.9777 139.309L70.0727 138.887L70.4947 137.982L71.3998 138.404L71.8218 137.499L70.9168 137.077L71.3388 136.172ZM75.6202 129.354L76.5253 129.776L76.1033 130.681L75.1982 130.259L75.6202 129.354ZM75.2592 132.491L74.8371 133.396L74.4151 134.301L73.993 135.206L74.8981 135.628L75.8032 136.05L76.7083 136.472L77.1303 135.567L77.5524 134.662L77.9744 133.757L77.0693 133.335L76.1643 132.913L75.2592 132.491ZM82.4339 117.104L83.339 117.527L82.917 118.432L82.0119 118.01L82.4339 117.104ZM78.2135 126.155L79.1186 126.577L78.6965 127.482L77.7915 127.06L78.2135 126.155ZM77.3694 127.965L78.2745 128.387L78.6965 127.482L79.6016 127.904L80.5067 128.326L80.0846 129.232L79.1796 128.81L78.7575 129.715L79.6626 130.137L79.2406 131.042L78.3355 130.62L77.9134 131.525L77.0084 131.103L77.4304 130.198L77.8524 129.293L76.9474 128.871L77.3694 127.965ZM82.917 118.432L83.8221 118.854L83.4 119.759L82.4949 119.337L82.917 118.432ZM75.7422 133.818L76.6473 134.24L76.2253 135.145L75.3202 134.723L75.7422 133.818ZM73.632 138.343L74.5371 138.765L74.9591 137.86L75.8642 138.282L75.4421 139.187L75.0201 140.093L74.5981 140.998L73.693 140.576L72.7879 140.154L73.2099 139.248L73.632 138.343ZM84.3051 120.181L85.2102 120.603L84.7881 121.508L83.8831 121.086L84.3051 120.181ZM81.7728 125.611L82.6779 126.033L82.2559 126.938L81.3508 126.516L81.7728 125.611ZM79.2406 131.042L80.1456 131.464L80.5677 130.559L80.9897 129.654L81.8948 130.076L81.4728 130.981L82.3778 131.403L83.2829 131.825L82.8609 132.73L83.7659 133.152L83.3439 134.057L82.9219 134.962L82.4998 135.867L82.0778 136.772L81.6557 137.677L81.2337 138.582L80.3286 138.16L80.7506 137.255L79.8456 136.833L80.2676 135.928L79.3625 135.506L79.7846 134.601L80.6897 135.023L81.5947 135.445L82.0168 134.54L82.4388 133.635L81.5337 133.213L80.6287 132.791L79.7236 132.369L78.8185 131.947L79.2406 131.042ZM86.0543 118.793L86.9593 119.215L86.5373 120.12L85.6322 119.698L86.0543 118.793ZM84.3661 122.413L85.2712 122.835L86.1762 123.257L85.7542 124.162L86.6593 124.584L87.0813 123.679L86.1762 123.257L86.5983 122.352L87.0203 121.447L86.1153 121.025L86.5373 120.12L87.4424 120.542L88.3475 120.964L88.7695 120.059L89.6746 120.481L89.2525 121.386L88.8305 122.291L88.4084 123.196L87.9864 124.101L87.5644 125.006L87.1423 125.911L86.7203 126.816L86.2982 127.721L85.8762 128.627L84.9711 128.205L85.3931 127.299L84.4881 126.877L84.9101 125.972L84.005 125.55L84.4271 124.645L84.8491 123.74L83.944 123.318L84.3661 122.413ZM82.2559 126.938L83.1609 127.36L83.583 126.455L84.4881 126.877L84.066 127.782L84.9711 128.205L84.549 129.11L85.4541 129.532L85.0321 130.437L84.127 130.015L83.2219 129.593L82.3168 129.171L82.7389 128.266L81.8338 127.843L82.2559 126.938ZM78.5184 137.316L79.4235 137.738L80.3286 138.16L79.9066 139.065L80.8116 139.488L80.3896 140.393L79.4845 139.971L78.5794 139.548L79.0015 138.643L78.0964 138.221L78.5184 137.316ZM83.705 130.92L84.61 131.342L84.188 132.247L83.2829 131.825L83.705 130.92Z" fill="black"/>
<path d="M76.0649 140.608C76.2514 140.691 76.3662 140.524 76.4165 140.416C76.4908 140.256 76.4353 140.163 76.3414 140.107C76.1943 140.104 76.0621 140.154 75.9852 140.291C75.9725 140.313 75.9574 140.344 75.9422 140.382C75.9019 140.481 75.9525 140.558 76.0649 140.608ZM76.9188 141.276C76.7865 141.214 76.6853 141.068 76.7497 140.912C76.5249 141.002 76.2574 140.969 75.9611 140.831C75.6622 140.692 75.6324 140.43 75.7064 140.271C75.9607 139.745 76.0411 139.541 76.0576 139.499C76.059 139.496 76.06 139.493 76.0605 139.492L76.0611 139.491C76.0697 139.47 76.0826 139.44 76.0644 139.429C76.0531 139.422 76.0438 139.422 76.0222 139.432C75.989 139.45 75.9426 139.442 75.9242 139.415C75.902 139.384 75.9144 139.342 75.9465 139.314C76.0336 139.238 76.1217 139.228 76.2133 139.272C76.3716 139.349 76.3688 139.474 76.3082 139.604C76.3082 139.604 76.2173 139.79 76.1681 139.895C76.2459 139.876 76.3517 139.865 76.49 139.93C76.7781 140.064 76.7947 140.506 76.4477 140.759C76.7403 140.761 76.8798 140.593 76.9778 140.407L77.0068 140.343C77.0403 140.271 77.1151 140.231 77.1873 140.265C77.2595 140.299 77.2771 140.386 77.2426 140.454C77.1261 140.681 77.0516 140.831 77.0141 140.912C76.9923 140.959 76.9844 141.042 77.0597 141.077C77.2071 141.146 77.3094 141.053 77.4474 140.787C77.4952 140.686 77.5351 140.601 77.5351 140.601C77.4684 140.57 77.4518 140.52 77.4723 140.476C77.4927 140.432 77.5464 140.408 77.6036 140.434C77.6036 140.434 77.6748 140.282 77.7043 140.219C77.7378 140.147 77.8214 140.113 77.8936 140.147C77.9659 140.181 77.9954 140.267 77.9618 140.339C77.9507 140.363 77.9368 140.39 77.9215 140.42C77.9019 140.459 77.8799 140.503 77.8583 140.549L77.8687 140.554C77.8883 140.563 77.9327 140.584 77.992 140.61C78.0626 140.642 78.0729 140.695 78.05 140.744C78.0271 140.793 77.9733 140.81 77.9239 140.787C77.8781 140.766 77.7775 140.718 77.7775 140.718C77.7051 140.862 77.619 141.035 77.5535 141.175C77.5299 141.226 77.5379 141.3 77.6224 141.339C77.7929 141.419 77.9273 141.297 78.0742 141.015C78.1665 140.815 78.2182 140.698 78.2572 140.609C78.2845 140.547 78.3056 140.5 78.33 140.447C78.3635 140.376 78.4534 140.339 78.5256 140.373C78.5978 140.406 78.6241 140.489 78.5906 140.561C78.5648 140.616 78.5323 140.68 78.4881 140.767C78.4133 140.914 78.3048 141.127 78.1373 141.479C78.115 141.526 78.1225 141.569 78.1834 141.598C78.346 141.674 78.4732 141.518 78.6022 141.279C78.6079 141.267 78.6134 141.256 78.6188 141.244C78.6299 141.221 78.6406 141.199 78.6508 141.177C78.6844 141.105 78.7594 141.069 78.8316 141.103C78.9038 141.136 78.9185 141.216 78.885 141.288C78.8611 141.339 78.837 141.386 78.8123 141.435C78.7904 141.478 78.7679 141.522 78.7444 141.571C78.684 141.697 78.6752 141.829 78.781 141.878C78.8826 141.925 79.0139 141.935 79.118 141.718C79.1469 141.658 79.1677 141.611 79.1887 141.564C79.2042 141.529 79.2199 141.494 79.239 141.453C79.2726 141.381 79.3505 141.345 79.4227 141.378C79.4949 141.412 79.5172 141.495 79.4837 141.567C79.4636 141.61 79.4421 141.652 79.4182 141.699C79.3886 141.757 79.3553 141.822 79.3167 141.904C79.3167 141.904 79.1718 142.204 79.1513 142.275C79.1896 142.28 79.2525 142.269 79.3397 142.215C79.3924 142.181 79.4555 142.199 79.4818 142.236C79.5179 142.288 79.4898 142.344 79.452 142.377C79.3545 142.461 79.2619 142.497 79.0794 142.477C78.9957 142.658 78.8589 142.919 78.5026 142.811C78.1975 142.719 78.1455 142.493 78.2109 142.352C78.3141 142.129 78.567 142.168 78.926 142.236L78.9672 142.121C78.9672 142.121 78.8519 142.182 78.6726 142.093C78.5344 142.024 78.469 141.913 78.4541 141.792C78.3352 141.872 78.2047 141.876 78.0457 141.802C77.941 141.753 77.867 141.651 77.855 141.548C77.7414 141.601 77.6178 141.601 77.4812 141.537C77.3622 141.482 77.2934 141.4 77.2706 141.311C77.1673 141.355 77.0554 141.339 76.9188 141.276ZM78.8642 142.424C78.6854 142.383 78.458 142.34 78.4137 142.441C78.3722 142.536 78.4611 142.598 78.5496 142.619C78.7335 142.662 78.8 142.571 78.8642 142.424ZM77.4289 140.091C77.4627 140.018 77.4311 139.932 77.3583 139.898C77.2854 139.864 77.1991 139.895 77.1652 139.968C77.1313 140.04 77.1629 140.127 77.2358 140.161C77.3087 140.195 77.395 140.163 77.4289 140.091Z" fill="black"/>
<path d="M63.1833 99.3127L64.0884 99.7348L64.9935 100.157L65.8986 100.579L66.8037 101.001L67.7087 101.423L68.6138 101.845L69.5189 102.267L69.0969 103.172L68.6748 104.077L68.2528 104.982L67.8307 105.887L67.4087 106.792L66.9866 107.698L66.5646 108.603L65.6595 108.181L64.7544 107.759L63.8493 107.336L62.9443 106.914L62.0392 106.492L61.1341 106.07L60.229 105.648L60.6511 104.743L61.0731 103.838L61.4952 102.933L61.9172 102.028L62.3393 101.123L62.7613 100.218L63.1833 99.3127ZM63.6664 100.64L63.2443 101.545L62.8223 102.45L62.4002 103.355L61.9782 104.26L61.5562 105.165L62.4612 105.587L63.3663 106.009L64.2714 106.431L65.1765 106.853L66.0816 107.275L66.5036 106.37L66.9256 105.465L67.3477 104.56L67.7697 103.655L68.1918 102.75L67.2867 102.328L66.3816 101.906L65.4765 101.484L64.5715 101.062L63.6664 100.64Z" fill="black"/>
<path d="M64.1509 101.972L65.056 102.394L65.961 102.816L66.8661 103.238L66.4441 104.143L66.022 105.048L65.6 105.954L64.6949 105.531L63.7898 105.109L62.8847 104.687L63.3068 103.782L63.7288 102.877L64.1509 101.972Z" fill="black"/>
<path d="M86.7141 110.286L87.6192 110.708L88.5243 111.13L89.4293 111.552L90.3344 111.974L91.2395 112.396L92.1446 112.818L93.0497 113.24L92.6276 114.145L92.2056 115.05L91.7835 115.955L91.3615 116.86L90.9394 117.765L90.5174 118.67L90.0953 119.576L89.1903 119.153L88.2852 118.731L87.3801 118.309L86.475 117.887L85.57 117.465L84.6649 117.043L83.7598 116.621L84.1818 115.716L84.6039 114.811L85.0259 113.906L85.448 113.001L85.87 112.096L86.2921 111.191L86.7141 110.286ZM87.1971 111.613L86.7751 112.518L86.3531 113.423L85.931 114.328L85.509 115.233L85.0869 116.138L85.992 116.56L86.8971 116.982L87.8022 117.404L88.7072 117.826L89.6123 118.248L90.0344 117.343L90.4564 116.438L90.8784 115.533L91.3005 114.628L91.7225 113.723L90.8175 113.301L89.9124 112.879L89.0073 112.457L88.1022 112.035L87.1971 111.613Z" fill="black"/>
<path d="M87.6826 112.943L88.5877 113.365L89.4928 113.787L90.3979 114.209L89.9758 115.115L89.5538 116.02L89.1317 116.925L88.2266 116.503L87.3216 116.081L86.4165 115.659L86.8385 114.754L87.2606 113.848L87.6826 112.943Z" fill="black"/>
<path d="M52.21 122.845L53.115 123.267L54.0201 123.689L54.9252 124.111L55.8303 124.533L56.7354 124.955L57.6404 125.377L58.5455 125.8L58.1235 126.705L57.7014 127.61L57.2794 128.515L56.8573 129.42L56.4353 130.325L56.0132 131.23L55.5912 132.135L54.6861 131.713L53.781 131.291L52.876 130.869L51.9709 130.447L51.0658 130.025L50.1607 129.603L49.2556 129.181L49.6777 128.276L50.0997 127.371L50.5218 126.466L50.9438 125.56L51.3659 124.655L51.7879 123.75L52.21 122.845ZM52.693 124.172L52.2709 125.077L51.8489 125.982L51.4269 126.888L51.0048 127.793L50.5828 128.698L51.4878 129.12L52.3929 129.542L53.298 129.964L54.2031 130.386L55.1082 130.808L55.5302 129.903L55.9523 128.998L56.3743 128.093L56.7963 127.188L57.2184 126.283L56.3133 125.861L55.4082 125.438L54.5032 125.016L53.5981 124.594L52.693 124.172Z" fill="black"/>
<path d="M53.1785 125.502L54.0835 125.924L54.9886 126.347L55.8937 126.769L55.4717 127.674L55.0496 128.579L54.6276 129.484L53.7225 129.062L52.8174 128.64L51.9123 128.218L52.3344 127.313L52.7564 126.408L53.1785 125.502Z" fill="black"/>
</g>
</g>
<rect x="29.6196" y="78.6333" width="23.0687" height="4.61373" transform="rotate(25 29.6196 78.6333)" fill="#D9D9D9"/>
<rect x="26.6948" y="84.9055" width="23.0687" height="0.768956" transform="rotate(25 26.6948 84.9055)" fill="#D9D9D9"/>
<rect x="25.395" y="87.6931" width="23.0687" height="4.61373" transform="rotate(25 25.395 87.6931)" fill="#D9D9D9"/>
<rect x="22.4702" y="93.9653" width="23.0687" height="0.768956" transform="rotate(25 22.4702 93.9653)" fill="#D9D9D9"/>
<rect x="21.1702" y="96.7529" width="23.0687" height="3.07582" transform="rotate(25 21.1702 96.7529)" fill="#D9D9D9"/>
<rect x="18.8955" y="101.631" width="23.0687" height="3.07582" transform="rotate(25 18.8955 101.631)" fill="#D9D9D9"/>
<rect x="16.6206" y="106.51" width="23.0687" height="4.61373" transform="rotate(25 16.6206 106.51)" fill="#D9D9D9"/>
<rect x="13.6958" y="112.782" width="23.0687" height="2.30687" transform="rotate(25 13.6958 112.782)" fill="#D9D9D9"/>
</g>
<rect x="-65.7666" y="24.8213" width="193.777" height="58.4406" transform="rotate(25 -65.7666 24.8213)" stroke="#C2C2C2" stroke-width="0.768956" stroke-dasharray="3.08 3.08"/>
</g>
<defs>
<filter id="filter0_d_201_632" x="-114.992" y="0.294922" width="273.374" height="207.911" filterUnits="userSpaceOnUse" color-interpolation-filters="sRGB">
<feFlood flood-opacity="0" result="BackgroundImageFix"/>
<feColorMatrix in="SourceAlpha" type="matrix" values="0 0 0 0 0 0 0 0 0 0 0 0 0 0 0 0 0 0 127 0" result="hardAlpha"/>
<feOffset dx="24" dy="24"/>
<feComposite in2="hardAlpha" operator="out"/>
<feColorMatrix type="matrix" values="0 0 0 0 0 0 0 0 0 0 0 0 0 0 0 0 0 0 1 0"/>
<feBlend mode="normal" in2="BackgroundImageFix" result="effect1_dropShadow_201_632"/>
<feBlend mode="normal" in="SourceGraphic" in2="effect1_dropShadow_201_632" result="shape"/>
</filter>
<clipPath id="clip0_201_632">
<rect x="-65.7666" y="24.8213" width="193.777" height="58.4406" transform="rotate(25 -65.7666 24.8213)" fill="white"/>
</clipPath>
<clipPath id="clip1_201_632">
<rect x="60.7947" y="92.7463" width="42.2926" height="42.2926" rx="2.19702" transform="rotate(25 60.7947 92.7463)" fill="white"/>
</clipPath>
<clipPath id="clip2_201_632">
<rect width="32.9552" height="32.9552" fill="white" transform="translate(63.1838 99.3137) rotate(25)"/>
</clipPath>
</defs>
</svg>
