<svg width="174" height="218" viewBox="0 0 174 218" fill="none" xmlns="http://www.w3.org/2000/svg">
<g filter="url(#filter0_d_201_534)">
<mask id="path-1-inside-1_201_534" fill="white">
<path d="M140.047 53.3503C137.499 57.7637 139.011 63.4072 143.424 65.9554C147.7 68.4239 153.13 67.0819 155.782 62.983L156.029 62.5779L247.929 115.636L243.315 123.627C241.108 122.353 238.286 123.109 237.012 125.315C235.778 127.453 236.449 130.169 238.499 131.495L238.701 131.619L234.857 138.278C232.65 137.004 229.828 137.759 228.554 139.966C227.32 142.104 227.991 144.82 230.04 146.145L230.243 146.269L226.398 152.928C224.191 151.654 221.369 152.41 220.095 154.616C218.861 156.754 219.532 159.47 221.582 160.796L221.784 160.92L217.94 167.579C215.733 166.305 212.911 167.061 211.637 169.267C210.403 171.405 211.074 174.121 213.123 175.446L213.326 175.57L209.481 182.229C207.274 180.955 204.453 181.711 203.178 183.918C201.944 186.055 202.615 188.771 204.665 190.097L204.867 190.221L200.254 198.212L108.354 145.154C110.902 140.74 109.39 135.097 104.977 132.549C100.563 130.001 94.9197 131.513 92.3716 135.926L0.473145 82.8688L5.08691 74.8775C7.2936 76.1514 10.1153 75.3947 11.3893 73.188C12.6232 71.0504 11.9525 68.3358 9.90327 67.0099L9.70068 66.8862L13.5454 60.2269C15.7521 61.5008 18.5737 60.7442 19.8478 58.5375C21.0817 56.3998 20.411 53.6852 18.3618 52.3594L18.1592 52.2356L22.0039 45.5764C24.2106 46.8503 27.0322 46.0936 28.3063 43.887C29.5402 41.7493 28.8695 39.0347 26.8203 37.7088L26.6177 37.5851L30.4624 30.9258C32.6691 32.1997 35.4907 31.4431 36.7647 29.2364C37.9987 27.0987 37.328 24.3841 35.2788 23.0583L35.0762 22.9346L38.9209 16.2753C41.1276 17.5492 43.9492 16.7925 45.2232 14.5859C46.4573 12.4482 45.7865 9.7336 43.7373 8.40773L43.5347 8.28401L48.1484 0.292725L140.047 53.3503Z"/>
</mask>
<path d="M140.047 53.3503C137.499 57.7637 139.011 63.4072 143.424 65.9554C147.7 68.4239 153.13 67.0819 155.782 62.983L156.029 62.5779L247.929 115.636L243.315 123.627C241.108 122.353 238.286 123.109 237.012 125.315C235.778 127.453 236.449 130.169 238.499 131.495L238.701 131.619L234.857 138.278C232.65 137.004 229.828 137.759 228.554 139.966C227.32 142.104 227.991 144.82 230.04 146.145L230.243 146.269L226.398 152.928C224.191 151.654 221.369 152.41 220.095 154.616C218.861 156.754 219.532 159.47 221.582 160.796L221.784 160.92L217.94 167.579C215.733 166.305 212.911 167.061 211.637 169.267C210.403 171.405 211.074 174.121 213.123 175.446L213.326 175.57L209.481 182.229C207.274 180.955 204.453 181.711 203.178 183.918C201.944 186.055 202.615 188.771 204.665 190.097L204.867 190.221L200.254 198.212L108.354 145.154C110.902 140.74 109.39 135.097 104.977 132.549C100.563 130.001 94.9197 131.513 92.3716 135.926L0.473145 82.8688L5.08691 74.8775C7.2936 76.1514 10.1153 75.3947 11.3893 73.188C12.6232 71.0504 11.9525 68.3358 9.90327 67.0099L9.70068 66.8862L13.5454 60.2269C15.7521 61.5008 18.5737 60.7442 19.8478 58.5375C21.0817 56.3998 20.411 53.6852 18.3618 52.3594L18.1592 52.2356L22.0039 45.5764C24.2106 46.8503 27.0322 46.0936 28.3063 43.887C29.5402 41.7493 28.8695 39.0347 26.8203 37.7088L26.6177 37.5851L30.4624 30.9258C32.6691 32.1997 35.4907 31.4431 36.7647 29.2364C37.9987 27.0987 37.328 24.3841 35.2788 23.0583L35.0762 22.9346L38.9209 16.2753C41.1276 17.5492 43.9492 16.7925 45.2232 14.5859C46.4573 12.4482 45.7865 9.7336 43.7373 8.40773L43.5347 8.28401L48.1484 0.292725L140.047 53.3503Z" fill="#072422"/>
<path d="M140.047 53.3503L140.713 53.7348L141.097 53.0689L140.431 52.6844L140.047 53.3503ZM143.424 65.9554L143.04 66.6213L143.04 66.6213L143.424 65.9554ZM155.782 62.983L156.428 63.4007L156.433 63.3924L156.438 63.3838L155.782 62.983ZM156.029 62.5779L156.414 61.9119L155.764 61.5368L155.373 62.1771L156.029 62.5779ZM247.929 115.636L248.595 116.02L248.979 115.355L248.313 114.97L247.929 115.636ZM243.315 123.627L242.931 124.293L243.597 124.678L243.981 124.012L243.315 123.627ZM237.012 125.315L236.346 124.931L236.346 124.931L237.012 125.315ZM238.499 131.495L238.081 132.14L238.089 132.146L238.098 132.151L238.499 131.495ZM238.701 131.619L239.367 132.003L239.742 131.353L239.102 130.962L238.701 131.619ZM234.857 138.278L234.472 138.944L235.138 139.328L235.522 138.662L234.857 138.278ZM228.554 139.966L227.888 139.581L227.888 139.581L228.554 139.966ZM230.04 146.145L229.623 146.791L229.631 146.796L229.639 146.802L230.04 146.145ZM230.243 146.269L230.909 146.654L231.284 146.004L230.644 145.613L230.243 146.269ZM226.398 152.928L226.014 153.594L226.68 153.979L227.064 153.313L226.398 152.928ZM220.095 154.616L219.429 154.232L219.429 154.232L220.095 154.616ZM221.582 160.796L221.164 161.442L221.172 161.447L221.181 161.452L221.582 160.796ZM221.784 160.92L222.45 161.304L222.825 160.654L222.185 160.263L221.784 160.92ZM217.94 167.579L217.555 168.245L218.221 168.629L218.606 167.963L217.94 167.579ZM211.637 169.267L210.971 168.882L210.971 168.883L211.637 169.267ZM213.123 175.446L212.706 176.092L212.714 176.098L212.722 176.103L213.123 175.446ZM213.326 175.57L213.992 175.955L214.367 175.305L213.727 174.914L213.326 175.57ZM209.481 182.229L209.097 182.895L209.763 183.28L210.147 182.614L209.481 182.229ZM203.178 183.918L202.512 183.533L202.512 183.533L203.178 183.918ZM204.665 190.097L204.247 190.743L204.255 190.748L204.264 190.753L204.665 190.097ZM204.867 190.221L205.533 190.605L205.908 189.956L205.268 189.564L204.867 190.221ZM200.254 198.212L199.869 198.878L200.535 199.262L200.919 198.596L200.254 198.212ZM108.354 145.154L107.688 144.769L107.304 145.435L107.97 145.82L108.354 145.154ZM104.977 132.549L105.361 131.883L105.361 131.883L104.977 132.549ZM92.3716 135.926L91.9872 136.592L92.6531 136.977L93.0376 136.311L92.3716 135.926ZM0.473145 82.8688L-0.192791 82.4843L-0.577268 83.1502L0.0886667 83.5347L0.473145 82.8688ZM5.08691 74.8775L5.47136 74.2115L4.80544 73.8271L4.42098 74.493L5.08691 74.8775ZM11.3893 73.188L12.0552 73.5725L12.0552 73.5725L11.3893 73.188ZM9.90327 67.0099L10.321 66.3643L10.3126 66.3589L10.3041 66.3537L9.90327 67.0099ZM9.70068 66.8862L9.03475 66.5017L8.65965 67.1514L9.29989 67.5424L9.70068 66.8862ZM13.5454 60.2269L13.9299 59.561L13.2639 59.1765L12.8795 59.8424L13.5454 60.2269ZM19.8478 58.5375L20.5137 58.922L20.5137 58.9219L19.8478 58.5375ZM18.3618 52.3594L18.7795 51.7138L18.7711 51.7083L18.7626 51.7031L18.3618 52.3594ZM18.1592 52.2356L17.4932 51.8512L17.1181 52.5009L17.7584 52.8919L18.1592 52.2356ZM22.0039 45.5764L22.3884 44.9104L21.7224 44.526L21.338 45.1919L22.0039 45.5764ZM28.3063 43.887L28.9722 44.2714L28.9722 44.2714L28.3063 43.887ZM26.8203 37.7088L27.238 37.0632L27.2296 37.0578L27.2211 37.0526L26.8203 37.7088ZM26.6177 37.5851L25.9517 37.2006L25.5766 37.8503L26.2169 38.2413L26.6177 37.5851ZM30.4624 30.9258L30.8468 30.2599L30.1809 29.8755L29.7965 30.5414L30.4624 30.9258ZM36.7647 29.2364L37.4307 29.6209L37.4307 29.6208L36.7647 29.2364ZM35.2788 23.0583L35.6965 22.4127L35.6881 22.4072L35.6796 22.402L35.2788 23.0583ZM35.0762 22.9346L34.4102 22.5501L34.0351 23.1998L34.6754 23.5908L35.0762 22.9346ZM38.9209 16.2753L39.3053 15.6093L38.6394 15.2249L38.255 15.8908L38.9209 16.2753ZM45.2232 14.5859L45.8892 14.9703L45.8892 14.9703L45.2232 14.5859ZM43.7373 8.40773L44.155 7.76213L44.1466 7.7567L44.138 7.75149L43.7373 8.40773ZM43.5347 8.28401L42.8687 7.89953L42.4936 8.54923L43.1339 8.94025L43.5347 8.28401ZM48.1484 0.292725L48.5329 -0.373211L47.867 -0.757688L47.4825 -0.0917532L48.1484 0.292725ZM140.047 53.3503L139.381 52.9659C136.621 57.747 138.259 63.8608 143.04 66.6213L143.424 65.9554L143.809 65.2895C139.764 62.9536 138.377 57.7803 140.713 53.7348L140.047 53.3503ZM143.424 65.9554L143.04 66.6213C147.672 69.2956 153.555 67.8417 156.428 63.4007L155.782 62.983L155.136 62.5654C152.706 66.3221 147.728 67.5521 143.809 65.2895L143.424 65.9554ZM155.782 62.983L156.438 63.3838L156.686 62.9787L156.029 62.5779L155.373 62.1771L155.126 62.5822L155.782 62.983ZM156.029 62.5779L155.645 63.2438L247.544 116.302L247.929 115.636L248.313 114.97L156.414 61.9119L156.029 62.5779ZM247.929 115.636L247.263 115.252L242.649 123.243L243.315 123.627L243.981 124.012L248.595 116.02L247.929 115.636ZM243.315 123.627L243.7 122.961C241.125 121.475 237.833 122.356 236.346 124.931L237.012 125.315L237.678 125.7C238.74 123.861 241.092 123.231 242.931 124.293L243.315 123.627ZM237.012 125.315L236.346 124.931C234.906 127.425 235.689 130.593 238.081 132.14L238.499 131.495L238.916 130.849C237.209 129.745 236.65 127.481 237.678 125.7L237.012 125.315ZM238.499 131.495L238.098 132.151L238.3 132.275L238.701 131.619L239.102 130.962L238.9 130.839L238.499 131.495ZM238.701 131.619L238.035 131.234L234.191 137.893L234.857 138.278L235.522 138.662L239.367 132.003L238.701 131.619ZM234.857 138.278L235.241 137.612C232.667 136.126 229.374 137.007 227.888 139.581L228.554 139.966L229.22 140.35C230.281 138.512 232.633 137.882 234.472 138.944L234.857 138.278ZM228.554 139.966L227.888 139.581C226.448 142.076 227.231 145.244 229.623 146.791L230.04 146.145L230.458 145.5C228.751 144.395 228.191 142.132 229.22 140.35L228.554 139.966ZM230.04 146.145L229.639 146.802L229.842 146.925L230.243 146.269L230.644 145.613L230.441 145.489L230.04 146.145ZM230.243 146.269L229.577 145.885L225.732 152.544L226.398 152.928L227.064 153.313L230.909 146.654L230.243 146.269ZM226.398 152.928L226.783 152.262C224.208 150.776 220.916 151.658 219.429 154.232L220.095 154.616L220.761 155.001C221.823 153.162 224.175 152.533 226.014 153.594L226.398 152.928ZM220.095 154.616L219.429 154.232C217.989 156.726 218.772 159.894 221.164 161.442L221.582 160.796L221.999 160.15C220.292 159.046 219.733 156.782 220.761 155.001L220.095 154.616ZM221.582 160.796L221.181 161.452L221.383 161.576L221.784 160.92L222.185 160.263L221.983 160.14L221.582 160.796ZM221.784 160.92L221.118 160.535L217.274 167.194L217.94 167.579L218.606 167.963L222.45 161.304L221.784 160.92ZM217.94 167.579L218.324 166.913C215.75 165.427 212.458 166.308 210.971 168.882L211.637 169.267L212.303 169.652C213.364 167.813 215.716 167.183 217.555 168.245L217.94 167.579ZM211.637 169.267L210.971 168.883C209.531 171.377 210.314 174.545 212.706 176.092L213.123 175.446L213.541 174.801C211.834 173.696 211.274 171.433 212.303 169.651L211.637 169.267ZM213.123 175.446L212.722 176.103L212.925 176.226L213.326 175.57L213.727 174.914L213.524 174.79L213.123 175.446ZM213.326 175.57L212.66 175.186L208.815 181.845L209.481 182.229L210.147 182.614L213.992 175.955L213.326 175.57ZM209.481 182.229L209.866 181.564C207.291 180.077 203.999 180.959 202.512 183.533L203.178 183.918L203.844 184.302C204.906 182.463 207.258 181.834 209.097 182.895L209.481 182.229ZM203.178 183.918L202.512 183.533C201.072 186.027 201.855 189.195 204.247 190.743L204.665 190.097L205.082 189.451C203.375 188.347 202.816 186.083 203.844 184.302L203.178 183.918ZM204.665 190.097L204.264 190.753L204.467 190.877L204.867 190.221L205.268 189.564L205.066 189.441L204.665 190.097ZM204.867 190.221L204.201 189.836L199.588 197.828L200.254 198.212L200.919 198.596L205.533 190.605L204.867 190.221ZM200.254 198.212L200.638 197.546L108.739 144.488L108.354 145.154L107.97 145.82L199.869 198.878L200.254 198.212ZM108.354 145.154L109.02 145.538C111.781 140.757 110.142 134.643 105.361 131.883L104.977 132.549L104.592 133.215C108.638 135.551 110.024 140.724 107.688 144.769L108.354 145.154ZM104.977 132.549L105.361 131.883C100.58 129.123 94.4661 130.761 91.7057 135.542L92.3716 135.926L93.0376 136.311C95.3732 132.265 100.547 130.879 104.592 133.215L104.977 132.549ZM92.3716 135.926L92.7561 135.26L0.857622 82.2028L0.473145 82.8688L0.0886667 83.5347L91.9872 136.592L92.3716 135.926ZM0.473145 82.8688L1.13908 83.2532L5.75285 75.2619L5.08691 74.8775L4.42098 74.493L-0.192791 82.4843L0.473145 82.8688ZM5.08691 74.8775L4.70247 75.5434C7.27708 77.0297 10.5689 76.1468 12.0552 73.5725L11.3893 73.188L10.7233 72.8036C9.66157 74.6426 7.31012 75.273 5.47136 74.2115L5.08691 74.8775ZM11.3893 73.188L12.0552 73.5725C13.4949 71.0784 12.7123 67.9115 10.321 66.3643L9.90327 67.0099L9.48555 67.6555C11.1926 68.76 11.7515 71.0224 10.7233 72.8036L11.3893 73.188ZM9.90327 67.0099L10.3041 66.3537L10.1015 66.2299L9.70068 66.8862L9.29989 67.5424L9.50247 67.6662L9.90327 67.0099ZM9.70068 66.8862L10.3666 67.2707L14.2113 60.6114L13.5454 60.2269L12.8795 59.8424L9.03475 66.5017L9.70068 66.8862ZM13.5454 60.2269L13.161 60.8929C15.7356 62.3792 19.0274 61.4963 20.5137 58.922L19.8478 58.5375L19.1818 58.153C18.1201 59.992 15.7686 60.6225 13.9299 59.561L13.5454 60.2269ZM19.8478 58.5375L20.5137 58.9219C21.9534 56.4278 21.1708 53.261 18.7795 51.7138L18.3618 52.3594L17.9441 53.005C19.6511 54.1095 20.21 56.3718 19.1818 58.1531L19.8478 58.5375ZM18.3618 52.3594L18.7626 51.7031L18.56 51.5794L18.1592 52.2356L17.7584 52.8919L17.961 53.0156L18.3618 52.3594ZM18.1592 52.2356L18.8251 52.6201L22.6698 45.9609L22.0039 45.5764L21.338 45.1919L17.4932 51.8512L18.1592 52.2356ZM22.0039 45.5764L21.6195 46.2423C24.1941 47.7286 27.4859 46.8457 28.9722 44.2714L28.3063 43.887L27.6403 43.5025C26.5786 45.3415 24.2271 45.9719 22.3884 44.9104L22.0039 45.5764ZM28.3063 43.887L28.9722 44.2714C30.4119 41.7773 29.6293 38.6104 27.238 37.0632L26.8203 37.7088L26.4025 38.3544C28.1096 39.4589 28.6685 41.7213 27.6403 43.5025L28.3063 43.887ZM26.8203 37.7088L27.2211 37.0526L27.0185 36.9289L26.6177 37.5851L26.2169 38.2413L26.4195 38.3651L26.8203 37.7088ZM26.6177 37.5851L27.2836 37.9696L31.1283 31.3103L30.4624 30.9258L29.7965 30.5414L25.9517 37.2006L26.6177 37.5851ZM30.4624 30.9258L30.078 31.5918C32.6526 33.0781 35.9444 32.1952 37.4307 29.6209L36.7647 29.2364L36.0988 28.8519C35.0371 30.691 32.6856 31.3214 30.8468 30.2599L30.4624 30.9258ZM36.7647 29.2364L37.4307 29.6208C38.8705 27.1267 38.0878 23.9599 35.6965 22.4127L35.2788 23.0583L34.861 23.7039C36.5681 24.8084 37.127 27.0707 36.0988 28.852L36.7647 29.2364ZM35.2788 23.0583L35.6796 22.402L35.477 22.2783L35.0762 22.9346L34.6754 23.5908L34.878 23.7145L35.2788 23.0583ZM35.0762 22.9346L35.7421 23.319L39.5868 16.6598L38.9209 16.2753L38.255 15.8908L34.4102 22.5501L35.0762 22.9346ZM38.9209 16.2753L38.5365 16.9412C41.1111 18.4275 44.4029 17.5446 45.8892 14.9703L45.2232 14.5859L44.5573 14.2014C43.4956 16.0404 41.1441 16.6708 39.3053 15.6093L38.9209 16.2753ZM45.2232 14.5859L45.8892 14.9703C47.329 12.4762 46.5463 9.30934 44.155 7.76213L43.7373 8.40773L43.3195 9.05334C45.0266 10.1579 45.5855 12.4202 44.5573 14.2014L45.2232 14.5859ZM43.7373 8.40773L44.138 7.75149L43.9355 7.62777L43.5347 8.28401L43.1339 8.94025L43.3365 9.06398L43.7373 8.40773ZM43.5347 8.28401L44.2006 8.66849L48.8144 0.677202L48.1484 0.292725L47.4825 -0.0917532L42.8687 7.89953L43.5347 8.28401ZM48.1484 0.292725L47.764 0.95866L139.662 54.0163L140.047 53.3503L140.431 52.6844L48.5329 -0.373211L48.1484 0.292725Z" fill="black" mask="url(#path-1-inside-1_201_534)"/>
<g clip-path="url(#clip0_201_534)">
<rect x="54.9016" y="25.5022" width="193.777" height="58.4406" transform="rotate(30 54.9016 25.5022)" fill="#072422"/>
<line x1="141.833" y1="69.4767" x2="103.386" y2="136.07" stroke="#C2C2C2" stroke-width="0.768956" stroke-dasharray="3.08 3.08"/>
<path d="M56.4451 43.291C56.0374 43.0557 55.7354 42.7674 55.5389 42.4262C55.3486 42.0834 55.2669 41.7049 55.2938 41.2907C55.3229 40.8727 55.4697 40.4346 55.7342 39.9765C55.9964 39.5223 56.2982 39.1788 56.6396 38.9463C56.9832 38.7098 57.351 38.5883 57.743 38.5817C58.139 38.5773 58.5447 38.6951 58.9601 38.9349C59.3716 39.1725 59.6756 39.4619 59.8721 39.8031C60.0685 40.1443 60.1522 40.5239 60.123 40.9419C60.0962 41.3561 59.9505 41.7922 59.686 42.2503C59.4237 42.7046 59.1208 43.0499 58.7772 43.2864C58.4336 43.5229 58.0639 43.6433 57.6679 43.6476C57.272 43.652 56.8644 43.5331 56.4451 43.291ZM56.8082 42.6621C57.2003 42.8885 57.5791 42.9363 57.9444 42.8056C58.3159 42.6732 58.6507 42.3489 58.9488 41.8325C59.2313 41.3433 59.3461 40.9023 59.2934 40.5095C59.2429 40.1128 59.0119 39.7956 58.6003 39.558C58.216 39.3361 57.838 39.2914 57.4665 39.4237C57.0973 39.5522 56.7636 39.8746 56.4655 40.391C56.1853 40.8763 56.0705 41.3173 56.121 41.714C56.1715 42.1107 56.4005 42.4267 56.8082 42.6621ZM59.0261 44.7035L63.1719 41.4365L63.9756 41.9005L63.2192 47.1244L62.4854 46.7007L62.6787 45.438L60.7394 44.3183L59.7424 45.1171L59.0261 44.7035ZM62.6253 42.8137L61.3119 43.8646L62.7911 44.7186L63.0504 43.0591C63.0814 42.844 63.1239 42.6046 63.1779 42.3407C62.9825 42.5178 62.7983 42.6754 62.6253 42.8137ZM64.8012 46.0111L66.3747 43.2856L67.0677 43.6858L65.5211 46.3646C65.3149 46.7218 65.2679 47.0364 65.3801 47.3082C65.4946 47.5762 65.7187 47.8066 66.0526 47.9993C66.437 48.2213 66.7661 48.2922 67.0401 48.2123C67.3179 48.1345 67.5454 47.9423 67.7224 47.6356L69.2691 44.9567L69.9563 45.3535L68.3827 48.0789C68.1989 48.3973 67.9707 48.6357 67.6981 48.794C67.4277 48.9485 67.1205 49.0145 66.7764 48.9918C66.4362 48.9714 66.07 48.848 65.6779 48.6216C65.1227 48.301 64.7643 47.913 64.6029 47.4574C64.4437 46.9979 64.5098 46.5158 64.8012 46.0111ZM72.2594 52.4215C71.844 52.1816 71.5423 51.8883 71.3542 51.5416C71.1661 51.1949 71.0886 50.8137 71.1216 50.3979C71.1546 49.9821 71.2999 49.551 71.5577 49.1045C71.8222 48.6463 72.129 48.3032 72.4781 48.0751C72.8295 47.8431 73.202 47.7269 73.5957 47.7264C73.9933 47.7282 74.394 47.8457 74.7977 48.0788C75.1472 48.2805 75.4161 48.5186 75.6045 48.793C75.799 49.0658 75.9111 49.3557 75.9409 49.6628C75.9746 49.9721 75.9267 50.2836 75.7975 50.5972L75.0414 50.2927C75.1664 49.9507 75.1708 49.6427 75.0547 49.3686C74.9425 49.0967 74.735 48.8734 74.4322 48.6986C74.0128 48.4565 73.6177 48.4147 73.2466 48.5732C72.8817 48.73 72.5614 49.0472 72.2857 49.5248C71.9853 50.045 71.8726 50.5002 71.9476 50.8903C72.0249 51.2766 72.2537 51.5795 72.6342 51.7992C72.972 51.9942 73.2861 52.0643 73.5766 52.0094C73.8733 51.9529 74.1298 51.7956 74.3461 51.5374L74.9954 52.0133C74.7728 52.3092 74.5122 52.5185 74.2136 52.6412C73.9189 52.7661 73.6039 52.8095 73.2688 52.7713C72.9337 52.7331 72.5972 52.6165 72.2594 52.4215ZM74.761 53.7881L78.9068 50.521L79.7105 50.985L78.954 56.2089L78.2203 55.7853L78.4136 54.5225L76.4743 53.4028L75.4773 54.2016L74.761 53.7881ZM78.3602 51.8982L77.0468 52.9491L78.526 53.8032L78.7853 52.1436C78.8163 51.9286 78.8588 51.6891 78.9128 51.4252C78.7174 51.6023 78.5332 51.7599 78.3602 51.8982ZM79.87 56.7378L82.3211 52.4923L83.4335 53.1345L82.6855 57.0122L85.6814 54.4323L86.7704 55.0611L84.3193 59.3066L83.6379 58.9132L85.7719 55.2844L82.38 58.1869L81.7918 57.8473L82.6353 53.4813L80.5339 57.1211L79.87 56.7378ZM85.6862 60.0957L88.1373 55.8503L90.0824 56.9733C90.5483 57.2423 90.841 57.5691 90.9605 57.9539C91.0839 58.3409 91.0313 58.7324 90.8027 59.1285C90.5718 59.5283 90.256 59.7705 89.8552 59.8549C89.4606 59.9377 89.0304 59.8446 88.5645 59.5756L87.324 58.8594L86.3792 60.4959L85.6862 60.0957ZM89.7527 57.5982L88.4773 56.8619L87.6703 58.2596L88.9457 58.9959C89.1631 59.1214 89.3723 59.1671 89.5732 59.133C89.7763 59.095 89.9462 58.9575 90.083 58.7207C90.2175 58.4878 90.2523 58.2749 90.1876 58.0823C90.1228 57.8896 89.9779 57.7282 89.7527 57.5982ZM91.0196 61.1483L92.5932 58.4229L93.2862 58.823L91.7395 61.5019C91.5333 61.8591 91.4863 62.1736 91.5985 62.4454C91.713 62.7134 91.9372 62.9438 92.2711 63.1366C92.6554 63.3585 92.9846 63.4294 93.2585 63.3495C93.5363 63.2718 93.7638 63.0795 93.9409 62.7728L95.4875 60.0939L96.1747 60.4907L94.6012 63.2162C94.4174 63.5345 94.1891 63.7729 93.9165 63.9313C93.6461 64.0858 93.3389 64.1517 92.9948 64.129C92.6546 64.1086 92.2884 63.9852 91.8963 63.7588C91.3411 63.4383 90.9828 63.0502 90.8213 62.5946C90.6621 62.1352 90.7282 61.6531 91.0196 61.1483ZM99.0487 63.8738C99.185 63.6108 99.2097 63.3663 99.1229 63.1401C99.036 62.914 98.8587 62.7236 98.5908 62.5689C98.3345 62.421 98.1082 62.3602 97.9118 62.3865C97.7193 62.4152 97.5737 62.5149 97.4751 62.6857C97.3899 62.8332 97.3673 62.9755 97.4073 63.1125C97.4473 63.2494 97.535 63.3933 97.6706 63.544C97.8062 63.6948 97.9731 63.8584 98.1714 64.035C98.3813 64.2184 98.5634 64.4141 98.7176 64.6222C98.8718 64.8303 98.964 65.0517 98.994 65.2865C99.028 65.5235 98.9654 65.7799 98.8063 66.0555C98.5866 66.436 98.2659 66.6598 97.8441 66.7269C97.4262 66.7962 96.9571 66.6807 96.4369 66.3803C96.0952 66.183 95.8338 65.9544 95.6525 65.6945C95.4752 65.4368 95.378 65.1659 95.3609 64.8816C95.3499 64.5958 95.4221 64.3139 95.5773 64.036L96.3033 64.3387C96.1424 64.6443 96.1055 64.9233 96.1928 65.1756C96.284 65.4301 96.4791 65.6437 96.778 65.8163C97.0459 65.971 97.2905 66.0449 97.5119 66.0381C97.7332 66.0313 97.9111 65.9114 98.0456 65.6785C98.1398 65.5154 98.1668 65.3654 98.1269 65.2284C98.0907 65.0937 98.0132 64.9635 97.8942 64.8379C97.7775 64.7083 97.6449 64.5748 97.4965 64.4374C97.2201 64.1898 96.9973 63.9525 96.8282 63.7254C96.6652 63.4967 96.5714 63.2692 96.5468 63.0427C96.5222 62.8163 96.5828 62.5769 96.7285 62.3246C96.863 62.0916 97.0439 61.9217 97.2713 61.8148C97.5008 61.7041 97.7574 61.6632 98.0408 61.6923C98.3243 61.7214 98.6174 61.8233 98.9203 61.9982C99.4134 62.2828 99.7305 62.6212 99.8716 63.0133C100.015 63.4015 99.9855 63.7934 99.783 64.189L99.0487 63.8738ZM98.3802 68.5428L98.5853 68.1876L98.696 68.2514C98.8008 68.312 98.8872 68.3282 98.9552 68.3001C99.0209 68.276 99.0773 68.2231 99.1244 68.1416L99.2488 67.9261L98.9168 67.7345L99.3304 67.0181L100.006 67.4082L99.431 68.404C99.3212 68.5943 99.1861 68.7026 99.0258 68.7292C98.8633 68.7596 98.6928 68.7233 98.5142 68.6201L98.3802 68.5428ZM103.238 70.2295L102.545 69.8294L104.996 65.5839L105.689 65.984L103.238 70.2295ZM104.602 71.0169L107.053 66.7715L107.746 67.1716L105.642 70.8172L107.936 72.142L107.59 72.7418L104.602 71.0169ZM108.462 73.2454L110.913 68.9999L113.953 70.755L113.61 71.3491L111.263 69.994L110.574 71.1879L112.676 72.4017L112.343 72.9782L110.241 71.7644L109.501 73.0457L112.023 74.5015L111.677 75.1014L108.462 73.2454ZM113.24 73.8921L113.59 73.2864L115.64 74.4699L115.29 75.0756L113.24 73.8921ZM116.118 77.6657L115.425 77.2656L117.876 73.0201L118.569 73.4202L116.118 77.6657ZM117.482 78.4532L119.933 74.2077L122.932 75.9393L122.586 76.5391L120.28 75.2076L119.567 76.4423L121.594 77.6123L121.251 78.2064L119.224 77.0363L118.175 78.8533L117.482 78.4532ZM121.467 80.7538L123.918 76.5084L126.958 78.2635L126.615 78.8575L124.268 77.5025L123.579 78.6964L125.681 79.9102L125.348 80.4867L123.246 79.2729L122.506 80.5541L125.028 82.01L124.682 82.6098L121.467 80.7538Z" fill="white"/>
<path d="M45.7605 59.1234L50.867 50.2786L54.7737 52.5342C55.6391 53.0339 56.185 53.6294 56.4113 54.3209C56.6376 55.0123 56.5616 55.6856 56.1834 56.3408C55.9172 56.8019 55.5473 57.1437 55.0736 57.3663C54.6047 57.5809 54.03 57.605 53.3495 57.4386C53.9275 57.9879 54.25 58.5408 54.317 59.0972C54.384 59.6535 54.2751 60.1784 53.9902 60.6718C53.5653 61.4079 52.9598 61.8402 52.1738 61.9687C51.4005 62.0939 50.5569 61.8926 49.6429 61.3649L45.7605 59.1234ZM54.3394 53.2864L51.2213 51.4862L49.372 54.6892L52.4901 56.4894C53.1129 56.849 53.6661 56.9743 54.1497 56.8652C54.646 56.7527 55.0296 56.4619 55.3004 55.9928C55.5946 55.4832 55.6496 54.9865 55.4652 54.5026C55.2809 54.0187 54.9056 53.6133 54.3394 53.2864ZM52.0992 57.2506L48.9447 55.4293L46.9904 58.8143L50.1449 60.6356C50.6464 60.9251 51.0911 61.0794 51.4791 61.0985C51.8752 61.1223 52.2103 61.0462 52.4845 60.8702C52.7715 60.6907 53.006 60.4433 53.1881 60.1278C53.5057 59.5778 53.5642 59.0562 53.3636 58.5629C53.1678 58.0616 52.7463 57.6241 52.0992 57.2506ZM57.7622 66.2144C56.9049 65.7194 56.2866 65.109 55.9076 64.3833C55.5285 63.6575 55.3774 62.8639 55.4542 62.0023C55.5391 61.1455 55.8431 60.2641 56.3661 59.3582C56.9265 58.3875 57.5663 57.6623 58.2855 57.1824C59.0175 56.6991 59.7832 56.4564 60.5825 56.4541C61.3946 56.4485 62.2011 56.6768 63.0018 57.1391C63.8592 57.6341 64.4774 58.2445 64.8565 58.9702C65.2402 59.6879 65.3937 60.4775 65.3169 61.339C65.24 62.2006 64.9401 63.0843 64.4171 63.9902C63.8567 64.9608 63.2105 65.6878 62.4785 66.1711C61.7593 66.651 60.9936 66.8937 60.1815 66.8994C59.3775 66.9097 58.5711 66.6814 57.7622 66.2144ZM58.1965 65.4621C59.2157 66.0506 60.1894 66.1759 61.1177 65.8383C62.054 65.5054 62.8701 64.7363 63.5659 63.5311C64.2664 62.3179 64.5267 61.2226 64.3469 60.2452C64.1798 59.2644 63.5867 58.4798 62.5675 57.8914C61.5484 57.3029 60.5747 57.1776 59.6464 57.5152C58.7181 57.8528 57.9038 58.6282 57.2033 59.8415C56.5028 61.0548 56.2384 62.1478 56.4102 63.1205C56.5819 64.0932 57.1774 64.8737 58.1965 65.4621ZM67.0039 71.5501C66.1466 71.0551 65.5283 70.4447 65.1493 69.719C64.7702 68.9932 64.6191 68.1996 64.6959 67.338C64.7808 66.4812 65.0848 65.5998 65.6078 64.6939C66.1682 63.7232 66.808 62.998 67.5272 62.5181C68.2592 62.0348 69.0249 61.7921 69.8242 61.7898C70.6363 61.7842 71.4428 62.0125 72.2435 62.4748C73.1009 62.9698 73.7191 63.5802 74.0982 64.3059C74.4819 65.0236 74.6354 65.8132 74.5586 66.6747C74.4817 67.5363 74.1818 68.42 73.6588 69.3259C73.0984 70.2965 72.4522 71.0235 71.7202 71.5068C71.001 71.9867 70.2353 72.2294 69.4232 72.2351C68.6192 72.2454 67.8128 72.0171 67.0039 71.5501ZM67.4382 70.7978C68.4574 71.3862 69.4311 71.5116 70.3594 71.174C71.2957 70.8411 72.1118 70.072 72.8076 68.8668C73.5081 67.6536 73.7684 66.5582 73.5886 65.5809C73.4215 64.6001 72.8284 63.8154 71.8092 63.227C70.7901 62.6386 69.8164 62.5132 68.8881 62.8509C67.9598 63.1885 67.1454 63.9639 66.445 65.1772C65.7445 66.3905 65.4801 67.4834 65.6519 68.4562C65.8236 69.4289 66.4191 70.2094 67.4382 70.7978ZM76.2456 76.8858C75.3883 76.3908 74.77 75.7804 74.391 75.0547C74.0119 74.3289 73.8608 73.5353 73.9376 72.6737C74.0225 71.8169 74.3265 70.9355 74.8495 70.0295C75.4099 69.0589 76.0497 68.3337 76.7689 67.8538C77.5009 67.3705 78.2666 67.1277 79.0659 67.1255C79.878 67.1199 80.6845 67.3482 81.4852 67.8105C82.5691 68.4363 83.2602 69.1912 83.5586 70.0753C83.8698 70.9559 83.8524 71.8734 83.5064 72.8276L82.6618 72.4693C82.9508 71.5577 82.9346 70.7826 82.613 70.1441C82.2962 69.4974 81.7778 68.9662 81.0579 68.5506C80.0388 67.9622 79.0651 67.8368 78.1368 68.1744C77.2085 68.512 76.3941 69.2875 75.6937 70.5007C74.9932 71.714 74.7265 72.8111 74.8936 73.7919C75.0607 74.7727 75.6538 75.5573 76.6729 76.1457C77.5627 76.6594 78.3531 76.8407 79.0442 76.6897C79.7481 76.5353 80.3632 76.1517 80.8895 75.5389L81.6221 76.0912C81.1736 76.6627 80.6534 77.0687 80.0615 77.3094C79.4777 77.5547 78.8575 77.6388 78.201 77.5617C77.5526 77.4894 76.9008 77.264 76.2456 76.8858ZM83.7225 81.0408L88.829 72.196L89.6176 72.6513L87.3411 76.5945L93.007 79.8657L95.2836 75.9226L96.0601 76.3709L90.9536 85.2156L90.1771 84.7673L92.5937 80.5815L86.9278 77.3103L84.5111 81.4961L83.7225 81.0408ZM91.984 85.8105L100.767 79.0883L101.737 79.6487L100.307 90.6158L99.482 90.1395L99.9026 87.0014L95.3164 84.3536L92.809 86.2869L91.984 85.8105ZM99.8518 80.841L95.9878 83.8352L100.004 86.1538L100.653 81.3033C100.681 81.1042 100.706 80.9027 100.727 80.6989C100.755 80.4998 100.789 80.2926 100.827 80.0773C100.659 80.2179 100.492 80.348 100.326 80.4678C100.168 80.5922 100.01 80.7166 99.8518 80.841ZM101.341 91.2128L106.447 82.3681L107.236 82.8234L102.55 90.9401L107.876 94.0153L107.456 94.7432L101.341 91.2128ZM108.45 95.3172L113.556 86.4724L114.345 86.9278L109.659 95.0445L114.985 98.1196L114.565 98.8476L108.45 95.3172Z" fill="#C2C2C2"/>
<path d="M39.1561 71.6156L41.2071 68.0631L39.9623 67.3444L40.3153 66.733L40.4609 66.817C40.8298 67.03 41.186 67.0965 41.5298 67.0167C41.8783 66.9398 42.1812 66.7458 42.4384 66.4348L43.0644 66.7963L40.0005 72.1031L39.1561 71.6156ZM43.4965 74.2186C43.0258 73.9468 42.7106 73.6128 42.5511 73.2166C42.3965 72.8232 42.3689 72.3834 42.4684 71.8973C42.5755 71.4092 42.786 70.8933 43.0998 70.3498C43.4669 69.714 43.8453 69.2434 44.2353 68.9379C44.628 68.6275 45.027 68.4632 45.4323 68.4448C45.8376 68.4265 46.2417 68.5336 46.6445 68.7662C47.1152 69.0379 47.4303 69.3719 47.5898 69.7682C47.7493 70.1644 47.7769 70.6041 47.6726 71.0874C47.5731 71.5735 47.3665 72.0884 47.0526 72.6319C46.6856 73.2677 46.3033 73.7393 45.9057 74.0469C45.513 74.3572 45.114 74.5215 44.7087 74.5399C44.3034 74.5583 43.8993 74.4511 43.4965 74.2186ZM43.9294 73.4688C44.3322 73.7013 44.717 73.6905 45.0837 73.4364C45.4581 73.1802 45.8232 72.7439 46.1791 72.1276C46.4705 71.6229 46.6503 71.1993 46.7186 70.8569C46.7917 70.5174 46.7793 70.2417 46.6816 70.03C46.5866 69.8134 46.43 69.642 46.2116 69.516C45.8088 69.2834 45.424 69.2942 45.0572 69.5484C44.6905 69.8025 44.3292 70.2378 43.9734 70.8541C43.682 71.3588 43.4983 71.7834 43.4224 72.1278C43.3493 72.4674 43.3602 72.7455 43.4552 72.962C43.5578 73.1766 43.7159 73.3455 43.9294 73.4688ZM46.2916 75.7353L51.4739 71.6515L52.4784 72.2315L51.5329 78.7613L50.6157 78.2318L50.8573 76.6533L48.4332 75.2537L47.187 76.2522L46.2916 75.7353ZM50.7906 73.3729L49.1489 74.6866L50.9979 75.7541L51.322 73.6797C51.3607 73.4109 51.4138 73.1116 51.4813 72.7817C51.2371 73.003 51.0068 73.2001 50.7906 73.3729ZM52.6779 79.4224L55.7418 74.1155L57.1322 74.9183L56.1973 79.7654L59.9421 76.5406L61.3034 77.3266L58.2395 82.6334L57.3878 82.1417L60.0552 77.6056L55.8154 81.2338L55.0801 80.8093L56.1345 75.3518L53.5077 79.9015L52.6779 79.4224ZM58.8533 84.3855L59.1097 83.9414L59.248 84.0213C59.379 84.0969 59.487 84.1172 59.572 84.0821C59.6541 84.0519 59.7246 83.9859 59.7835 83.8839L59.939 83.6146L59.524 83.375L60.041 82.4796L60.8854 82.9672L60.1667 84.212C60.0295 84.4498 59.8606 84.5853 59.6603 84.6184C59.4572 84.6565 59.244 84.611 59.0207 84.4821L58.8533 84.3855ZM65.772 87.0794C65.1557 86.7235 64.7885 86.2947 64.6705 85.7931C64.5573 85.2942 64.6534 84.7803 64.9588 84.2513L65.438 83.4214L66.3042 83.9215L65.8125 84.7733C65.6024 85.1372 65.544 85.44 65.6375 85.6816C65.7386 85.9212 65.9347 86.125 66.2259 86.2932C66.5947 86.5061 66.9 86.5658 67.1416 86.4724C67.3832 86.3789 67.588 86.1866 67.7562 85.8954L69.8534 82.2629L70.7197 82.7631L68.635 86.3737C68.2904 86.9707 67.8642 87.3167 67.3563 87.4117C66.8534 87.5096 66.3253 87.3988 65.772 87.0794ZM70.3425 87.0878L72.3095 83.6809L73.1757 84.1811L71.2424 87.5297C70.9846 87.9762 70.9259 88.3693 71.0662 88.7091C71.2093 89.0441 71.4895 89.3321 71.9069 89.573C72.3873 89.8504 72.7987 89.9392 73.1412 89.8392C73.4884 89.742 73.7728 89.5018 73.9941 89.1184L75.9274 85.7698L76.7864 86.2657L74.8195 89.6726C74.5897 90.0705 74.3045 90.3685 73.9637 90.5664C73.6257 90.7596 73.2417 90.8419 72.8115 90.8136C72.3863 90.7881 71.9285 90.6338 71.4384 90.3508C70.7444 89.9502 70.2965 89.4651 70.0947 88.8956C69.8957 88.3213 69.9783 87.7187 70.3425 87.0878ZM75.3726 92.5252L78.4365 87.2184L79.5576 87.8656L79.8641 93.4877L82.2219 89.4039L83.0736 89.8956L80.0097 95.2024L78.9906 94.614L78.6441 88.8427L76.2316 93.0211L75.3726 92.5252ZM81.7116 96.185L84.7755 90.8782L88.5754 93.0721L88.1467 93.8146L85.213 92.1208L84.3515 93.6131L86.9794 95.1304L86.5633 95.8511L83.9354 94.3338L83.0107 95.9353L86.1628 97.7552L85.7299 98.505L81.7116 96.185ZM90.1452 101.054L92.1962 97.5017L90.9514 96.783L91.3045 96.1715L91.4501 96.2556C91.8189 96.4685 92.1752 96.5351 92.5189 96.4553C92.8675 96.3783 93.1703 96.1844 93.4275 95.8734L94.0536 96.2349L90.9897 101.542L90.1452 101.054ZM95.0401 103.88L95.6832 102.766L93.0334 101.237L93.4369 100.538L98.0968 98.5692L98.9558 99.0652L96.951 102.538L97.7663 103.008L97.3502 103.729L96.5349 103.258L95.8918 104.372L95.0401 103.88ZM94.3522 101.037L96.0993 102.046L97.461 99.6872L94.3522 101.037ZM99.0056 106.17L101.637 101.613L99.8313 100.57L100.264 99.8206L104.719 102.393L104.286 103.143L102.503 102.113L99.8719 106.67L99.0056 106.17ZM102.757 108.336L105.821 103.029L106.687 103.529L105.405 105.749L108.157 107.338L109.439 105.118L110.291 105.609L107.227 110.916L106.375 110.424L107.728 108.08L104.977 106.492L103.623 108.836L102.757 108.336Z" fill="white"/>
<g clip-path="url(#clip1_201_534)">
<rect x="175.061" y="104.199" width="42.2926" height="42.2926" rx="2.19702" transform="rotate(30 175.061 104.199)" fill="white"/>
<g clip-path="url(#clip2_201_534)">
<path d="M205.409 127.426L176.869 110.949L160.392 139.489L188.932 155.966L205.409 127.426Z" fill="white"/>
<path d="M171.377 120.462L172.241 120.961L171.742 121.826L172.607 122.326L172.108 123.19L171.243 122.691L170.743 123.556L170.244 124.421L171.109 124.92L170.61 125.785L169.745 125.286L169.246 126.151L168.746 127.015L168.247 127.88L167.382 127.381L167.881 126.516L168.381 125.651L168.88 124.786L169.379 123.921L169.879 123.057L170.378 122.192L170.877 121.327L171.377 120.462ZM165.884 129.975L166.749 130.475L166.25 131.34L165.385 130.84L165.884 129.975ZM164.885 131.705L165.75 132.204L165.251 133.069L164.386 132.57L164.885 131.705ZM167.748 128.745L168.612 129.244L168.113 130.109L168.978 130.609L169.477 129.744L170.342 130.243L170.841 129.378L171.341 128.513L170.476 128.014L170.975 127.149L170.11 126.65L170.61 125.785L171.475 126.284L171.974 125.419L171.109 124.92L171.608 124.055L172.473 124.555L173.338 125.054L172.839 125.919L172.339 126.784L173.204 127.283L173.704 126.418L174.568 126.917L174.069 127.782L174.934 128.282L175.433 127.417L174.568 126.917L175.068 126.053L175.933 126.552L176.432 125.687L177.297 126.186L176.797 127.051L176.298 127.916L175.799 128.781L176.664 129.28L176.164 130.145L175.665 131.01L175.166 131.875L176.031 132.374L175.531 133.239L174.666 132.74L174.167 133.604L173.302 133.105L172.803 133.97L171.938 133.471L172.437 132.606L171.572 132.107L172.072 131.242L172.937 131.741L173.436 130.876L172.571 130.377L171.706 129.878L171.207 130.742L170.708 131.607L170.208 132.472L169.709 133.337L168.844 132.838L167.979 132.338L168.479 131.473L167.614 130.974L166.749 130.475L167.248 129.61L167.748 128.745ZM166.25 131.34L167.114 131.839L167.979 132.338L167.48 133.203L168.345 133.702L169.21 134.202L168.71 135.067L167.845 134.567L166.981 134.068L166.116 133.569L166.615 132.704L165.75 132.204L166.25 131.34ZM174.604 118.866L175.469 119.366L174.97 120.23L175.835 120.73L176.334 119.865L177.199 120.364L178.064 120.863L178.929 121.363L178.429 122.228L177.564 121.728L177.065 122.593L177.93 123.092L178.795 123.592L179.294 122.727L179.793 121.862L180.658 122.361L181.523 122.861L181.024 123.726L181.889 124.225L182.388 123.36L183.253 123.859L184.118 124.359L183.618 125.224L182.753 124.724L182.254 125.589L181.755 126.454L180.89 125.955L180.391 126.819L179.526 126.32L179.026 127.185L178.162 126.686L177.297 126.186L177.796 125.322L178.295 124.457L177.431 123.957L176.566 123.458L175.701 122.959L176.2 122.094L175.335 121.595L174.47 121.095L173.971 121.96L173.472 122.825L172.607 122.326L173.106 121.461L173.606 120.596L174.105 119.731L174.604 118.866ZM169.611 127.515L170.476 128.014L169.977 128.879L169.112 128.38L169.611 127.515ZM174.836 122.459L175.701 122.959L175.202 123.824L174.337 123.324L174.836 122.459ZM173.837 124.189L174.702 124.688L175.567 125.188L175.068 126.053L174.203 125.553L173.338 125.054L173.837 124.189ZM173.57 128.647L173.07 129.512L173.935 130.011L174.8 130.511L175.299 129.646L174.435 129.146L173.57 128.647ZM176.066 124.323L176.931 124.822L176.432 125.687L175.567 125.188L176.066 124.323ZM171.073 132.971L171.938 133.471L171.439 134.336L170.574 133.836L171.073 132.971ZM170.075 134.701L170.939 135.2L171.804 135.7L171.305 136.565L170.44 136.065L169.575 135.566L170.075 134.701ZM183.788 114.943L184.653 115.443L185.518 115.942L185.018 116.807L185.883 117.306L185.384 118.171L184.519 117.672L184.02 118.537L183.155 118.037L183.654 117.172L184.153 116.307L183.289 115.808L183.788 114.943ZM182.29 117.538L183.155 118.037L182.656 118.902L181.791 118.403L182.29 117.538ZM180.792 120.132L181.657 120.632L181.158 121.497L180.293 120.997L180.792 120.132ZM172.803 133.97L173.668 134.469L174.167 133.604L175.032 134.104L175.531 133.239L176.396 133.738L175.897 134.603L175.397 135.468L176.262 135.967L176.762 135.102L177.261 134.238L178.126 134.737L178.625 133.872L179.124 133.007L178.26 132.508L178.759 131.643L177.894 131.144L178.393 130.279L179.258 130.778L180.123 131.278L180.988 131.777L181.853 132.276L182.352 131.411L183.217 131.911L182.718 132.775L182.218 133.64L181.353 133.141L180.489 132.642L179.989 133.507L179.49 134.371L178.991 135.236L179.855 135.736L180.355 134.871L180.854 134.006L181.719 134.505L181.22 135.37L180.72 136.235L180.221 137.1L179.356 136.6L178.491 136.101L177.626 135.602L177.127 136.467L176.628 137.331L175.763 136.832L174.898 136.333L174.033 135.834L173.534 136.698L174.399 137.198L173.899 138.063L173.4 138.927L172.901 139.792L172.036 139.293L171.537 140.158L171.037 141.023L170.172 140.523L169.308 140.024L169.807 139.159L170.306 138.294L171.171 138.794L171.67 137.929L172.535 138.428L173.035 137.563L172.17 137.064L172.669 136.199L171.804 135.7L172.304 134.835L172.803 133.97ZM171.305 136.565L172.17 137.064L171.67 137.929L170.806 137.429L171.305 136.565ZM168.808 140.889L169.673 141.388L170.538 141.887L170.039 142.752L169.174 142.253L168.309 141.754L168.808 140.889ZM182.656 118.902L183.52 119.401L184.385 119.901L183.886 120.766L183.021 120.266L182.522 121.131L181.657 120.632L182.156 119.767L182.656 118.902ZM177.662 127.551L178.527 128.05L178.028 128.915L177.163 128.415L177.662 127.551ZM168.674 143.118L169.539 143.617L170.404 144.116L169.905 144.981L169.04 144.482L168.175 143.983L168.674 143.118ZM182.522 121.131L183.387 121.63L182.887 122.495L182.388 123.36L181.523 122.861L182.022 121.996L182.522 121.131ZM179.026 127.185L179.891 127.684L180.391 126.819L181.255 127.319L181.755 126.454L182.62 126.953L183.119 126.088L183.984 126.588L183.485 127.453L184.349 127.952L184.849 127.087L185.714 127.586L185.214 128.451L186.079 128.951L185.58 129.815L184.715 129.316L183.85 128.817L182.985 128.317L182.12 127.818L181.621 128.683L182.486 129.182L183.351 129.682L184.216 130.181L183.716 131.046L182.851 130.546L182.352 131.411L181.487 130.912L181.987 130.047L181.122 129.548L180.622 130.413L179.758 129.913L180.257 129.049L179.392 128.549L178.527 128.05L179.026 127.185ZM178.028 128.915L178.893 129.414L178.393 130.279L177.528 129.78L178.028 128.915ZM185.384 118.171L186.249 118.67L186.748 117.805L187.613 118.305L187.114 119.17L187.978 119.669L188.843 120.168L189.708 120.668L189.209 121.532L188.344 121.033L187.845 121.898L187.345 122.763L186.48 122.263L185.616 121.764L184.751 121.265L185.25 120.4L186.115 120.899L186.98 121.399L187.479 120.534L186.614 120.034L185.749 119.535L185.25 120.4L184.385 119.901L184.885 119.036L185.384 118.171ZM183.886 120.766L184.751 121.265L184.251 122.13L183.387 121.63L183.886 120.766ZM177.395 132.009L178.26 132.508L177.76 133.373L177.261 134.238L176.396 133.738L176.895 132.873L177.395 132.009ZM172.901 139.792L173.766 140.292L173.266 141.156L172.401 140.657L172.901 139.792ZM171.902 141.522L172.767 142.021L173.266 141.156L174.131 141.656L174.631 140.791L175.495 141.29L174.996 142.155L175.861 142.654L175.362 143.519L176.226 144.019L175.727 144.883L174.862 144.384L174.363 145.249L173.864 146.114L172.999 145.614L173.498 144.75L173.997 143.885L173.133 143.385L172.268 142.886L171.768 143.751L170.904 143.252L171.403 142.387L171.902 141.522ZM184.251 122.13L185.116 122.629L184.617 123.494L183.752 122.995L184.251 122.13ZM175.264 137.697L176.128 138.196L175.629 139.061L176.494 139.561L177.359 140.06L177.858 139.195L178.357 138.33L179.222 138.829L180.087 139.329L179.588 140.194L178.723 139.694L178.224 140.559L177.724 141.424L177.225 142.289L176.36 141.79L175.495 141.29L175.995 140.425L175.13 139.926L174.265 139.427L174.764 138.562L175.264 137.697ZM184.617 123.494L185.482 123.993L185.981 123.128L186.846 123.628L186.347 124.493L185.847 125.357L186.712 125.857L187.577 126.356L187.078 127.221L186.213 126.722L185.348 126.222L184.849 127.087L183.984 126.588L184.483 125.723L184.982 124.858L184.118 124.359L184.617 123.494ZM172.134 145.115L172.999 145.614L172.499 146.479L171.635 145.98L172.134 145.115ZM187.345 122.763L188.21 123.262L187.711 124.127L186.846 123.628L187.345 122.763ZM173.864 146.114L174.728 146.613L175.228 145.748L175.727 144.883L176.592 145.383L177.091 144.518L177.956 145.017L177.457 145.882L176.957 146.747L176.458 147.612L175.593 147.112L175.094 147.977L174.229 147.478L173.364 146.979L173.864 146.114ZM190.707 118.938L191.572 119.437L192.436 119.937L193.301 120.436L194.166 120.935L193.667 121.8L193.168 122.665L192.303 122.166L192.802 121.301L191.937 120.801L191.072 120.302L190.573 121.167L189.708 120.668L190.207 119.803L190.707 118.938ZM188.709 122.397L189.574 122.897L190.074 122.032L190.573 121.167L191.438 121.666L190.938 122.531L191.803 123.03L192.668 123.53L192.169 124.395L191.67 125.259L190.805 124.76L191.304 123.895L190.439 123.396L189.94 124.261L190.805 124.76L190.305 125.625L189.806 126.49L188.941 125.99L189.441 125.126L188.576 124.626L189.075 123.761L188.21 123.262L188.709 122.397ZM187.711 124.127L188.576 124.626L188.076 125.491L187.211 124.992L187.711 124.127ZM177.225 142.289L178.09 142.788L177.591 143.653L177.091 144.518L176.226 144.019L176.726 143.154L177.225 142.289ZM188.076 125.491L188.941 125.99L188.442 126.855L187.577 126.356L188.076 125.491ZM186.578 128.086L187.443 128.585L187.943 127.72L188.442 126.855L189.307 127.355L188.807 128.22L188.308 129.084L189.173 129.584L189.672 128.719L190.172 127.854L190.671 126.989L191.17 126.124L191.67 125.259L192.534 125.759L192.035 126.624L191.536 127.488L192.401 127.988L192.9 127.123L193.399 126.258L192.534 125.759L193.034 124.894L193.533 124.029L194.398 124.528L195.263 125.028L194.763 125.893L195.628 126.392L195.129 127.257L195.994 127.756L195.494 128.621L194.995 129.486L194.496 130.351L193.631 129.851L193.132 130.716L193.997 131.215L193.497 132.08L192.632 131.581L191.767 131.082L191.268 131.946L192.133 132.446L192.998 132.945L193.497 132.08L194.362 132.58L193.863 133.444L194.728 133.944L194.228 134.809L195.093 135.308L194.594 136.173L194.094 137.038L193.595 137.903L193.096 138.767L192.231 138.268L192.73 137.403L193.23 136.538L192.365 136.039L191.865 136.904L191.366 137.769L192.231 138.268L191.732 139.133L190.867 138.634L190.002 138.134L190.501 137.269L191.001 136.405L191.5 135.54L191.999 134.675L191.134 134.176L191.634 133.311L190.769 132.811L189.904 132.312L189.405 133.177L188.54 132.678L187.675 132.178L186.81 131.679L187.309 130.814L187.809 129.949L186.944 129.45L186.079 128.951L186.578 128.086ZM185.58 129.815L186.445 130.315L185.945 131.18L186.81 131.679L186.311 132.544L185.446 132.044L184.581 131.545L185.08 130.68L185.58 129.815ZM184.082 132.41L184.947 132.909L184.447 133.774L185.312 134.273L185.811 133.409L186.676 133.908L186.177 134.773L187.042 135.272L187.541 134.407L188.041 133.542L188.905 134.042L188.406 134.907L189.271 135.406L190.136 135.905L189.636 136.77L189.137 137.635L188.272 137.136L187.407 136.636L186.908 137.501L186.043 137.002L186.543 136.137L185.678 135.638L184.813 135.138L183.948 134.639L183.449 135.504L182.584 135.005L183.083 134.14L183.582 133.275L184.082 132.41ZM182.084 135.869L182.949 136.369L182.45 137.234L183.315 137.733L183.814 136.868L182.949 136.369L183.449 135.504L184.314 136.003L185.178 136.502L184.679 137.367L184.18 138.232L185.045 138.732L184.545 139.596L185.41 140.096L184.911 140.961L185.776 141.46L185.276 142.325L184.777 143.19L183.912 142.69L183.047 142.191L183.547 141.326L184.046 140.461L183.181 139.962L183.68 139.097L182.816 138.598L181.951 138.098L181.451 138.963L180.587 138.464L181.086 137.599L181.585 136.734L182.084 135.869ZM179.089 141.058L179.953 141.558L179.454 142.423L180.319 142.922L180.818 142.057L181.683 142.556L181.184 143.421L180.684 144.286L179.82 143.787L179.32 144.652L178.455 144.152L178.955 143.287L178.09 142.788L178.589 141.923L179.089 141.058ZM181.451 138.963L182.316 139.463L181.817 140.327L181.318 141.192L180.453 140.693L180.952 139.828L181.451 138.963ZM176.458 147.612L177.323 148.111L177.822 147.246L178.322 146.381L178.821 145.517L179.686 146.016L179.187 146.881L178.687 147.746L178.188 148.61L179.053 149.11L179.552 148.245L180.051 147.38L180.551 146.515L181.416 147.014L180.916 147.879L180.417 148.744L179.918 149.609L179.418 150.474L178.553 149.975L177.689 149.475L176.824 148.976L175.959 148.477L176.458 147.612ZM193.168 122.665L194.032 123.164L193.533 124.029L192.668 123.53L193.168 122.665ZM191.036 128.353L190.537 129.218L191.402 129.717L192.267 130.217L192.766 129.352L191.901 128.853L191.036 128.353ZM190.038 130.083L189.538 130.948L190.403 131.447L190.903 130.582L190.038 130.083ZM182.182 141.692L183.047 142.191L182.548 143.056L181.683 142.556L182.182 141.692ZM195.031 121.434L195.896 121.934L196.761 122.433L197.626 122.932L198.49 123.432L197.991 124.297L197.126 123.797L196.627 124.662L197.492 125.161L196.992 126.026L196.493 126.891L195.628 126.392L196.128 125.527L195.263 125.028L195.762 124.163L194.897 123.664L195.397 122.799L194.532 122.299L195.031 121.434ZM185.544 137.867L186.409 138.366L186.908 137.501L187.773 138L187.274 138.865L186.774 139.73L185.909 139.231L185.045 138.732L185.544 137.867ZM182.548 143.056L183.413 143.555L182.913 144.42L183.778 144.919L183.279 145.784L182.414 145.285L181.915 146.15L181.05 145.65L181.549 144.785L182.049 143.921L182.548 143.056ZM193.765 127.622L193.265 128.487L194.13 128.986L194.63 128.122L193.765 127.622ZM189.405 133.177L190.27 133.676L189.77 134.541L188.905 134.042L189.405 133.177ZM181.915 146.15L182.78 146.649L182.28 147.514L181.416 147.014L181.915 146.15ZM184.278 144.054L185.143 144.554L185.642 143.689L186.507 144.188L187.006 143.323L187.871 143.823L187.372 144.688L188.236 145.187L189.101 145.686L189.966 146.185L190.831 146.685L190.332 147.55L189.467 147.05L188.967 147.915L189.832 148.415L189.333 149.279L188.468 148.78L187.969 149.645L187.469 150.51L186.97 151.375L186.105 150.875L186.605 150.01L185.74 149.511L184.875 149.012L184.01 148.512L183.145 148.013L183.645 147.148L184.144 146.283L184.643 145.419L183.778 144.919L184.278 144.054ZM181.781 148.379L182.646 148.878L183.511 149.377L184.376 149.877L183.876 150.741L183.011 150.242L182.512 151.107L182.013 151.972L181.148 151.473L180.283 150.973L180.782 150.108L181.647 150.608L182.147 149.743L181.282 149.244L181.781 148.379ZM186.64 141.959L187.505 142.458L187.006 143.323L186.141 142.824L186.64 141.959ZM186.007 145.053L185.508 145.918L185.009 146.783L184.509 147.648L185.374 148.147L186.239 148.646L187.104 149.146L187.603 148.281L188.103 147.416L188.602 146.551L187.737 146.052L186.872 145.552L186.007 145.053ZM194.496 130.351L195.361 130.85L194.861 131.715L193.997 131.215L194.496 130.351ZM189.503 138.999L190.367 139.498L189.868 140.363L189.003 139.864L189.503 138.999ZM188.504 140.729L189.369 141.228L189.868 140.363L190.733 140.863L191.598 141.362L191.099 142.227L190.234 141.727L189.734 142.592L190.599 143.092L190.1 143.956L189.235 143.457L188.736 144.322L187.871 143.823L188.37 142.958L188.87 142.093L188.005 141.594L188.504 140.729ZM194.861 131.715L195.726 132.214L195.227 133.079L194.362 132.58L194.861 131.715ZM186.373 146.417L187.238 146.917L186.738 147.781L185.874 147.282L186.373 146.417ZM183.876 150.741L184.741 151.241L185.24 150.376L186.105 150.875L185.606 151.74L185.107 152.605L184.607 153.47L183.742 152.97L182.878 152.471L183.377 151.606L183.876 150.741ZM196.092 133.578L196.957 134.078L196.457 134.942L195.592 134.443L196.092 133.578ZM193.096 138.767L193.961 139.267L193.461 140.132L192.596 139.632L193.096 138.767ZM190.1 143.956L190.965 144.456L191.464 143.591L191.963 142.726L192.828 143.225L192.329 144.09L193.194 144.59L194.059 145.089L193.559 145.954L194.424 146.453L193.925 147.318L193.425 148.183L192.926 149.048L192.427 149.912L191.928 150.777L191.428 151.642L190.563 151.143L191.063 150.278L190.198 149.779L190.697 148.914L189.832 148.415L190.332 147.55L191.196 148.049L192.061 148.548L192.561 147.683L193.06 146.819L192.195 146.319L191.33 145.82L190.465 145.321L189.601 144.821L190.1 143.956ZM197.955 132.348L198.82 132.847L198.321 133.712L197.456 133.213L197.955 132.348ZM195.958 135.807L196.823 136.307L197.688 136.806L197.188 137.671L198.053 138.17L198.553 137.305L197.688 136.806L198.187 135.941L198.686 135.076L197.821 134.577L198.321 133.712L199.186 134.211L200.05 134.711L200.55 133.846L201.415 134.345L200.915 135.21L200.416 136.075L199.917 136.94L199.417 137.805L198.918 138.669L198.419 139.534L197.919 140.399L197.42 141.264L196.921 142.129L196.056 141.629L196.555 140.765L195.69 140.265L196.19 139.4L195.325 138.901L195.824 138.036L196.323 137.171L195.459 136.672L195.958 135.807ZM193.461 140.132L194.326 140.631L194.826 139.766L195.69 140.265L195.191 141.13L196.056 141.629L195.557 142.494L196.421 142.994L195.922 143.859L195.057 143.359L194.192 142.86L193.328 142.361L193.827 141.496L192.962 140.996L193.461 140.132ZM188.834 150.144L189.699 150.644L190.563 151.143L190.064 152.008L190.929 152.507L190.43 153.372L189.565 152.873L188.7 152.373L189.199 151.508L188.334 151.009L188.834 150.144ZM194.558 144.224L195.423 144.723L194.923 145.588L194.059 145.089L194.558 144.224Z" fill="black"/>
<path d="M176.869 110.949L177.734 111.448L178.599 111.947L179.464 112.447L180.329 112.946L181.193 113.445L182.058 113.945L182.923 114.444L182.424 115.309L181.924 116.174L181.425 117.039L180.926 117.903L180.426 118.768L179.927 119.633L179.428 120.498L178.563 119.999L177.698 119.499L176.833 119L175.968 118.501L175.104 118.001L174.239 117.502L173.374 117.003L173.873 116.138L174.373 115.273L174.872 114.408L175.371 113.543L175.87 112.678L176.37 111.814L176.869 110.949ZM177.235 112.313L176.735 113.178L176.236 114.043L175.737 114.907L175.237 115.772L174.738 116.637L175.603 117.136L176.468 117.636L177.333 118.135L178.197 118.634L179.062 119.134L179.562 118.269L180.061 117.404L180.56 116.539L181.06 115.674L181.559 114.81L180.694 114.31L179.829 113.811L178.964 113.312L178.1 112.812L177.235 112.313Z" fill="black"/>
<path d="M163.886 133.435L164.751 133.934L165.616 134.434L166.481 134.933L167.346 135.432L168.21 135.932L169.075 136.431L169.94 136.93L169.441 137.795L168.942 138.66L168.442 139.525L167.943 140.39L167.444 141.255L166.944 142.119L166.445 142.984L165.58 142.485L164.715 141.986L163.85 141.486L162.986 140.987L162.121 140.488L161.256 139.988L160.391 139.489L160.89 138.624L161.39 137.759L161.889 136.894L162.388 136.03L162.888 135.165L163.387 134.3L163.886 133.435ZM164.252 134.799L163.752 135.664L163.253 136.529L162.754 137.394L162.254 138.259L161.755 139.123L162.62 139.623L163.485 140.122L164.35 140.621L165.215 141.121L166.079 141.62L166.579 140.755L167.078 139.89L167.577 139.026L168.077 138.161L168.576 137.296L167.711 136.797L166.846 136.297L165.981 135.798L165.117 135.299L164.252 134.799Z" fill="black"/>
<path d="M164.619 136.167L165.484 136.666L166.349 137.165L167.214 137.665L166.715 138.53L166.215 139.394L165.716 140.259L164.851 139.76L163.986 139.261L163.121 138.761L163.621 137.896L164.12 137.032L164.619 136.167Z" fill="black"/>
</g>
</g>
<rect x="145.235" y="87.4229" width="23.0687" height="4.61373" transform="rotate(30 145.235 87.4229)" fill="#D9D9D9"/>
<rect x="141.775" y="93.4163" width="23.0687" height="0.768956" transform="rotate(30 141.775 93.4163)" fill="#D9D9D9"/>
<rect x="140.237" y="96.0801" width="23.0687" height="4.61373" transform="rotate(30 140.237 96.0801)" fill="#D9D9D9"/>
<rect x="136.776" y="102.073" width="23.0687" height="0.768956" transform="rotate(30 136.776 102.073)" fill="#D9D9D9"/>
<rect x="135.239" y="104.737" width="23.0687" height="3.07582" transform="rotate(30 135.239 104.737)" fill="#D9D9D9"/>
<rect x="132.547" y="109.399" width="23.0687" height="3.07582" transform="rotate(30 132.547 109.399)" fill="#D9D9D9"/>
<rect x="129.856" y="114.06" width="23.0687" height="4.61373" transform="rotate(30 129.856 114.06)" fill="#D9D9D9"/>
<rect x="126.396" y="120.054" width="23.0687" height="2.30687" transform="rotate(30 126.396 120.054)" fill="#D9D9D9"/>
</g>
<rect x="54.9016" y="25.5022" width="193.777" height="58.4406" transform="rotate(30 54.9016 25.5022)" stroke="#C2C2C2" stroke-width="0.768956" stroke-dasharray="3.08 3.08"/>
</g>
<defs>
<filter id="filter0_d_201_534" x="0.469238" y="0.291016" width="271.459" height="221.921" filterUnits="userSpaceOnUse" color-interpolation-filters="sRGB">
<feFlood flood-opacity="0" result="BackgroundImageFix"/>
<feColorMatrix in="SourceAlpha" type="matrix" values="0 0 0 0 0 0 0 0 0 0 0 0 0 0 0 0 0 0 127 0" result="hardAlpha"/>
<feOffset dx="24" dy="24"/>
<feComposite in2="hardAlpha" operator="out"/>
<feColorMatrix type="matrix" values="0 0 0 0 0 0 0 0 0 0 0 0 0 0 0 0 0 0 1 0"/>
<feBlend mode="normal" in2="BackgroundImageFix" result="effect1_dropShadow_201_534"/>
<feBlend mode="normal" in="SourceGraphic" in2="effect1_dropShadow_201_534" result="shape"/>
</filter>
<clipPath id="clip0_201_534">
<rect x="54.9016" y="25.5022" width="193.777" height="58.4406" transform="rotate(30 54.9016 25.5022)" fill="white"/>
</clipPath>
<clipPath id="clip1_201_534">
<rect x="175.061" y="104.199" width="42.2926" height="42.2926" rx="2.19702" transform="rotate(30 175.061 104.199)" fill="white"/>
</clipPath>
<clipPath id="clip2_201_534">
<rect width="32.9552" height="32.9552" fill="white" transform="translate(176.869 110.95) rotate(30)"/>
</clipPath>
</defs>
</svg>
