<svg width="64" height="64" viewBox="0 0 64 64" fill="none" xmlns="http://www.w3.org/2000/svg">
<rect width="64" height="64" rx="32" fill="#051A17"/>
<path d="M32.001 22C37.524 22 42.001 26.477 42.001 32C42.001 37.523 37.524 42 32.001 42C30.2337 42.003 28.4976 41.5353 26.971 40.645L22.005 42L23.357 37.032C22.466 35.5049 21.9979 33.768 22.001 32C22.001 26.477 26.478 22 32.001 22ZM28.593 27.3L28.393 27.308C28.2637 27.3169 28.1373 27.3509 28.021 27.408C27.9126 27.4695 27.8136 27.5463 27.727 27.636C27.607 27.749 27.539 27.847 27.466 27.942C27.0961 28.4229 26.897 29.0133 26.9 29.62C26.902 30.11 27.03 30.587 27.23 31.033C27.639 31.935 28.312 32.89 29.2 33.775C29.414 33.988 29.624 34.202 29.85 34.401C30.9534 35.3724 32.2683 36.073 33.69 36.447L34.258 36.534C34.443 36.544 34.628 36.53 34.814 36.521C35.1052 36.5056 35.3895 36.4268 35.647 36.29C35.7778 36.2223 35.9056 36.1489 36.03 36.07C36.03 36.07 36.0723 36.0413 36.155 35.98C36.29 35.88 36.373 35.809 36.485 35.692C36.569 35.6053 36.639 35.5047 36.695 35.39C36.773 35.227 36.851 34.916 36.883 34.657C36.907 34.459 36.9 34.351 36.897 34.284C36.893 34.177 36.804 34.066 36.707 34.019L36.125 33.758C36.125 33.758 35.255 33.379 34.723 33.137C34.6673 33.1128 34.6077 33.0989 34.547 33.096C34.4786 33.0888 34.4094 33.0965 34.3442 33.1184C34.279 33.1403 34.2192 33.176 34.169 33.223C34.164 33.221 34.097 33.278 33.374 34.154C33.3325 34.2098 33.2753 34.2519 33.2098 34.2751C33.1443 34.2982 33.0733 34.3013 33.006 34.284C32.9408 34.2666 32.877 34.2446 32.815 34.218C32.691 34.166 32.648 34.146 32.563 34.11C31.9889 33.8599 31.4574 33.5215 30.988 33.107C30.862 32.997 30.745 32.877 30.625 32.761C30.2316 32.3842 29.8887 31.958 29.605 31.493L29.546 31.398C29.5043 31.3338 29.47 31.265 29.444 31.193C29.406 31.046 29.505 30.928 29.505 30.928C29.505 30.928 29.748 30.662 29.861 30.518C29.971 30.378 30.064 30.242 30.124 30.145C30.242 29.955 30.279 29.76 30.217 29.609C29.937 28.925 29.6477 28.2447 29.349 27.568C29.29 27.434 29.115 27.338 28.956 27.319C28.902 27.3123 28.848 27.307 28.794 27.303C28.6597 27.2953 28.5251 27.2966 28.391 27.307L28.593 27.3Z" fill="white"/>
</svg>
